<svg width="11" height="10" viewBox="0 0 11 10" fill="none" xmlns="http://www.w3.org/2000/svg">
    <path
        d="M10.4399 0.282539C10.1474 -0.00996077 9.67488 -0.00996077 9.38238 0.282539L5.71488 3.94254L2.04738 0.275039C1.75488 -0.0174609 1.28238 -0.0174609 0.989883 0.275039C0.697383 0.567539 0.697383 1.04004 0.989883 1.33254L4.65738 5.00004L0.989883 8.66754C0.697383 8.96004 0.697383 9.43254 0.989883 9.72504C1.28238 10.0175 1.75488 10.0175 2.04738 9.72504L5.71488 6.05754L9.38238 9.72504C9.67488 10.0175 10.1474 10.0175 10.4399 9.72504C10.7324 9.43254 10.7324 8.96004 10.4399 8.66754L6.77238 5.00004L10.4399 1.33254C10.7249 1.04754 10.7249 0.567539 10.4399 0.282539Z"
        fill="black" />
</svg>
