<svg width="414" height="201" viewBox="0 0 414 201" fill="none" xmlns="http://www.w3.org/2000/svg">
<path d="M73.0391 154.724L89.0576 147.565L132.182 159.539L116.114 166.69L73.0391 154.724Z" fill="#A1CE60"/>
<path d="M104.181 209.645L120.248 202.499L132.184 159.538L116.11 166.688L104.181 209.645Z" fill="#80B741"/>
<path d="M104.181 209.645L61.106 197.679L73.0408 154.724L116.11 166.688L104.181 209.645Z" fill="#96C54E"/>
<path opacity="0.639999" d="M83.8441 179.039C83.9588 179.018 84.0789 178.999 84.2136 178.989C84.543 179.003 87.2781 179.192 87.5389 179.204C89.0738 179.306 90.3519 179.316 91.3752 179.27C92.7473 179.208 93.8157 179.036 94.5951 178.763C95.2934 178.515 95.7234 178.218 95.8958 177.875C96.476 176.695 96.5237 175.746 96.0935 175.058C95.7115 174.383 94.8804 173.776 93.6001 173.238C91.7769 172.498 89.6176 172.068 87.1023 171.938C86.7799 172.734 86.3238 173.729 85.7243 174.937C84.7642 176.977 84.1446 178.346 83.8441 179.039ZM88.4019 182.993C88.0685 182.972 87.7041 182.96 87.3154 182.954C87.0345 182.93 84.4013 182.768 84.0972 182.767C83.5045 182.729 83.0309 182.481 82.6738 182.013C81.1524 185.977 80.0734 188.632 79.442 189.981C84.8 191.548 89.0376 192.088 92.1589 191.607C94.3747 191.289 95.6621 190.557 96.0089 189.413C96.1321 188.953 96.0884 188.409 95.8873 187.788C95.6821 187.16 95.2659 186.527 94.6467 185.88C93.1472 184.339 91.1457 183.384 88.6162 183.05L88.4019 182.993ZM84.3227 168.765C84.507 168.27 84.8384 167.912 85.3048 167.693C85.7659 167.473 86.2347 167.438 86.7151 167.595C87.067 167.718 87.361 167.929 87.5863 168.224C90.4453 168.4 92.9247 168.921 95.0244 169.788C97.0817 170.62 98.5206 171.744 99.3467 173.163C100.44 175.019 100.411 177.143 99.2586 179.515C98.6859 180.73 97.6489 181.621 96.1422 182.185C96.5857 182.545 97.0104 182.911 97.3875 183.304C98.3731 184.341 99.0674 185.501 99.4926 186.743C99.9111 187.99 99.9383 189.217 99.5753 190.443C99.2094 191.766 98.421 192.843 97.2154 193.677C96.0126 194.501 94.5113 195.067 92.7214 195.337C88.9016 195.918 83.8962 195.178 77.6448 193.366C77.3032 193.268 77.0314 193.104 76.8093 192.861C76.5285 192.837 76.2513 192.757 75.9801 192.633C75.5308 192.381 75.2301 192.003 75.0861 191.511C74.9327 191.012 74.9687 190.535 75.2101 190.084C75.7949 188.952 76.3658 187.764 76.896 186.514C77.4315 185.266 78.0058 183.787 78.6363 182.077C79.2639 180.378 79.7588 179.067 80.1165 178.16C80.4972 177.254 81.243 175.65 82.3555 173.341C83.2719 171.422 83.9345 169.892 84.3227 168.765Z" fill="white"/>
<path d="M347.323 138.765L359.832 121.971L411.572 109.137L399.056 125.933L347.323 138.765Z" fill="#D07DB4"/>
<path d="M411.849 177.524L424.371 160.726L411.573 109.136L399.051 125.934L411.849 177.524Z" fill="#B45DA4"/>
<path d="M411.849 177.524L360.117 190.362L347.324 138.764L399.051 125.934L411.849 177.524Z" fill="#C46BAB"/>
<path opacity="0.639999" d="M378.817 150.46C378.793 151.166 378.689 152.396 378.53 154.141C378.371 155.886 377.944 160.38 377.855 161.331C380.873 160.495 383.205 159.719 384.849 158.997C384.048 157.832 379.881 151.911 378.817 150.46ZM376.72 176.107C376.691 176.719 376.438 177.24 375.973 177.66C375.507 178.08 374.96 178.275 374.358 178.237C373.745 178.209 373.22 177.972 372.81 177.519C372.393 177.068 372.184 176.52 372.219 175.879C372.349 173.077 372.866 167.069 373.694 157.853C374.457 149.266 374.831 144.909 374.821 144.795C374.807 144.229 374.986 143.714 375.361 143.264C375.924 142.619 376.633 142.36 377.508 142.49C377.929 142.596 378.311 142.789 378.668 143.071C378.848 143.229 379.083 143.461 379.346 143.775C379.737 144.233 380.3 144.947 381.029 145.919C382.327 147.658 384.009 150.029 386.105 152.997C390.856 159.756 394.18 164.687 396.065 167.793C396.377 168.314 396.459 168.876 396.313 169.464C396.155 170.055 395.81 170.512 395.283 170.832C394.749 171.153 394.186 171.235 393.595 171.085C392.998 170.936 392.544 170.604 392.232 170.084C391.278 168.499 389.679 166.051 387.44 162.758C385.323 163.717 381.991 164.823 377.467 166.076C377.055 170.807 376.822 174.151 376.72 176.107Z" fill="white"/>
<g opacity="0.2">
<path d="M219.587 129.475L234.154 127.147L266.567 146.255L251.962 148.561L219.587 129.475Z" fill="#FDB525"/>
<path d="M232.929 180.846L247.534 178.54L266.569 146.255L251.96 148.559L232.929 180.846Z" fill="#F8981C"/>
<path d="M232.929 180.846L200.553 161.76L219.588 129.475L251.959 148.559L232.929 180.846Z" fill="#FAA41C"/>
<g opacity="0.639999">
<path opacity="0.64" d="M240.498 149.906C240.808 150.21 240.962 150.58 240.958 151.017C240.958 151.456 240.802 151.834 240.502 152.139C240.197 152.441 239.829 152.6 239.404 152.603C238.972 152.607 238.607 152.458 238.292 152.152C235.059 148.98 231.622 147.862 227.976 148.77C226.436 149.159 225.013 149.863 223.719 150.901C222.419 151.941 221.388 153.131 220.614 154.481C219.884 155.805 219.505 157.056 219.474 158.226C219.437 159.404 219.753 160.363 220.407 161.118C221.173 162.011 222.498 162.63 224.377 162.983C226.259 163.343 228.795 163.292 231.952 162.665C232.375 162.577 232.767 162.651 233.127 162.899C233.495 163.151 233.714 163.485 233.796 163.91C233.876 164.339 233.794 164.725 233.547 165.084C233.299 165.436 232.96 165.652 232.515 165.738C225.446 167.057 220.595 166.199 217.989 163.163C217.192 162.236 216.689 161.151 216.458 159.919C216.232 158.697 216.248 157.495 216.513 156.342C216.787 155.183 217.233 154.049 217.87 152.936C218.853 151.223 220.161 149.72 221.795 148.416C223.428 147.113 225.232 146.217 227.21 145.726C228.648 145.357 230.091 145.244 231.544 145.396C233 145.544 234.494 145.979 236.048 146.701C237.603 147.419 239.074 148.499 240.498 149.906Z" fill="white"/>
</g>
</g>
<path d="M-0.413425 8.475L14.1536 6.14689L46.5672 25.2551L31.9621 27.5612L-0.413425 8.475Z" fill="#FDB525"/>
<path d="M12.9292 59.8457L27.5343 57.5396L46.5691 25.2548L31.9598 27.5585L12.9292 59.8457Z" fill="#F8981C"/>
<path d="M12.9287 59.8455L-19.4469 40.7593L-0.412055 8.47457L31.9593 27.5583L12.9287 59.8455Z" fill="#FAA41C"/>
<g opacity="0.639999">
<path opacity="0.64" d="M20.4977 28.9062C20.8082 29.2094 20.9615 29.5794 20.9576 30.0164C20.958 30.4559 20.8022 30.8333 20.5018 31.1385C20.1971 31.4412 19.8287 31.6002 19.4039 31.6026C18.9723 31.6069 18.6067 31.4578 18.292 31.1521C15.0593 27.9794 11.6223 26.8622 7.97617 27.7697C6.43604 28.1587 5.01306 28.8632 3.71928 29.9012C2.41882 30.9411 1.38758 32.1307 0.613995 33.4804C-0.116472 34.8043 -0.494565 36.0557 -0.526317 37.2255C-0.562945 38.4037 -0.247323 39.3631 0.406564 40.1179C1.17273 41.0107 2.49799 41.6294 4.37749 41.9825C6.25879 42.3423 8.7948 42.2917 11.9515 41.6647C12.3749 41.5769 12.7667 41.6511 13.1265 41.8983C13.4948 42.1503 13.7137 42.4851 13.7959 42.9098C13.8757 43.3388 13.7939 43.7251 13.5472 44.0839C13.2988 44.4359 12.9599 44.6513 12.5147 44.7378C5.44647 46.0571 0.595207 45.199 -2.01059 42.1629C-2.80754 41.2354 -3.31064 40.1509 -3.54233 38.9191C-3.76798 37.6964 -3.75188 36.495 -3.48685 35.3417C-3.2127 34.1823 -2.76711 33.0487 -2.13007 31.9355C-1.1468 30.2227 0.161252 28.7198 1.79471 27.4161C3.42817 26.1124 5.23241 25.217 7.20986 24.7257C8.64809 24.3567 10.0909 24.2437 11.5444 24.3959C13.0003 24.5438 14.4941 24.9783 16.0475 25.7006C17.6034 26.4187 19.0744 27.4989 20.4977 28.9062Z" fill="white"/>
</g>
</svg>
