<svg width="414" height="210" viewBox="0 0 414 210" fill="none" xmlns="http://www.w3.org/2000/svg">
<path d="M289.791 31.6357C286.691 41.4151 287.012 52.3412 297.124 57.5341C301.864 59.9659 306.639 60.0741 311.696 59.0029C328.074 55.5338 336.518 42.9388 337.22 26.4645C337.496 19.9489 347.619 20.254 347.341 26.8022C346.819 39.0747 343.019 51.478 333.385 59.6543C327.477 64.6656 320.237 67.7209 312.679 69.1426C304.347 70.7089 295.88 69.4055 288.875 64.3476C277.195 55.9184 275.998 41.6498 280.101 28.7016C282.073 22.4803 291.773 25.3852 289.791 31.6357Z" fill="#FF941A"/>
<path d="M266.21 46.0139C264.838 46.0964 263.468 46.1794 262.096 46.262C260.771 46.3412 259.555 44.9201 259.654 43.6408C259.77 42.1647 260.852 41.2756 262.272 41.1886C263.644 41.106 265.014 41.0231 266.384 40.9401C267.709 40.8609 268.928 42.2843 268.826 43.5612C268.71 45.0373 267.629 45.9284 266.21 46.0139Z" fill="#25B9F3"/>
<path d="M261.033 43.9495C261.019 43.8791 261.012 43.8107 261.016 43.7469C261.091 42.7766 261.886 42.5837 262.353 42.5552L266.465 42.3067C266.65 42.2945 266.889 42.4157 267.089 42.6198C267.333 42.8706 267.484 43.2057 267.465 43.456C267.39 44.4278 266.597 44.6196 266.13 44.6481L262.015 44.8958C261.832 44.9084 261.592 44.7872 261.392 44.5813C261.209 44.3946 261.078 44.1597 261.033 43.9495ZM270.115 42.6716C269.96 41.9533 269.585 41.2585 269.038 40.6999C268.279 39.9258 267.281 39.5158 266.303 39.5739L262.193 39.8228C260.024 39.9534 258.457 41.4447 258.293 43.5356C258.208 44.573 258.641 45.6826 259.442 46.5011C260.202 47.2767 261.198 47.6878 262.179 47.629L266.291 47.3805C268.457 47.2495 270.023 45.7593 270.188 43.6673C270.213 43.3381 270.189 43.0035 270.115 42.6716Z" fill="#25B9F3"/>
<path d="M279.898 73.4944C278.738 74.6448 278.078 75.4777 277.214 76.8767C276.516 78.0082 274.867 78.4824 273.73 77.7167C272.599 76.9508 272.155 75.4341 272.899 74.2261C273.885 72.633 275.068 71.1511 276.396 69.8319C277.34 68.8978 279.084 68.8881 279.976 69.9053C280.893 70.9529 280.903 72.496 279.898 73.4944Z" fill="white"/>
<path d="M281.938 70.839C281.795 70.1844 281.483 69.5509 281.002 69.0003C280.347 68.2543 279.366 67.8059 278.313 67.7697C277.219 67.7316 276.172 68.1309 275.436 68.8608C274.024 70.2606 272.779 71.824 271.74 73.5076C270.637 75.293 271.174 77.6413 272.968 78.8508C273.79 79.4073 274.804 79.5918 275.824 79.3707C276.891 79.1399 277.82 78.4918 278.374 77.5975C279.177 76.2958 279.78 75.5352 280.856 74.4684C281.852 73.4817 282.217 72.1184 281.938 70.839Z" fill="#E7BC04"/>
<path d="M273.925 75.7533C273.868 75.4907 273.901 75.2065 274.062 74.9436C274.987 73.4483 276.095 72.0542 277.354 70.8052C277.552 70.6094 277.882 70.4933 278.215 70.505C278.522 70.5159 278.788 70.6268 278.949 70.8109C279.414 71.3382 279.406 72.0587 278.936 72.5207L278.936 72.5222C277.702 73.7479 276.973 74.665 276.051 76.1582C275.892 76.4151 275.586 76.6214 275.252 76.6936C275.084 76.7295 274.766 76.763 274.496 76.5797C274.216 76.3907 273.998 76.0883 273.925 75.7533Z" fill="#E7BC04"/>
<path d="M306.788 82.7971C306.657 84.1485 306.681 85.2612 306.923 86.5226C307.18 87.8673 306.42 89.2532 305.049 89.5831C303.76 89.8923 302.258 89.0602 301.999 87.7088C301.677 86.0329 301.562 84.327 301.729 82.6286C301.862 81.2649 302.919 80.1295 304.346 80.1759C305.647 80.2188 306.923 81.4274 306.788 82.7971Z" fill="#E7BC04"/>
<path d="M308.085 81.8575C307.952 81.2562 307.662 80.6857 307.227 80.1872C306.5 79.3568 305.439 78.8411 304.392 78.8079C302.313 78.7405 300.581 80.3257 300.37 82.4956C300.199 84.2374 300.294 86.0793 300.658 87.9674C300.871 88.9328 301.433 89.798 302.313 90.3683C303.232 90.9616 304.343 91.161 305.366 90.9136C307.399 90.4237 308.672 88.3796 308.263 86.2621C308.054 85.1791 308.021 84.2129 308.148 82.93L308.148 82.9285C308.183 82.5686 308.16 82.2074 308.085 81.8575Z" fill="#25B9F3"/>
<path d="M330.459 71.8869C331.105 73.2375 331.804 74.1506 332.976 75.1619C334.013 76.0563 333.818 77.8663 332.898 78.7496C331.829 79.777 330.356 79.5725 329.319 78.6766C327.938 77.4856 326.81 75.9868 326.024 74.3421C325.434 73.1078 325.775 71.5811 327.021 70.8929C328.168 70.2587 329.867 70.6459 330.459 71.8869Z" fill="#E7BC04"/>
<path d="M327.144 73.4248C327.038 72.9319 327.172 72.3719 327.678 72.0924C327.945 71.9452 328.32 71.9205 328.655 72.0276C328.812 72.0791 329.097 72.2048 329.227 72.4805C329.953 73.9984 330.78 75.0757 332.084 76.2016C332.267 76.3583 332.307 76.6337 332.307 76.7859C332.318 77.1566 332.175 77.5493 331.952 77.7636C331.232 78.4552 330.375 77.7816 330.209 77.6375C328.989 76.5831 327.968 75.2398 327.256 73.7496C327.206 73.6474 327.168 73.5373 327.144 73.4248ZM334.95 75.9757C334.789 75.2403 334.418 74.5987 333.867 74.1232C332.846 73.2424 332.255 72.4755 331.693 71.2932C331.267 70.4043 330.485 69.7397 329.491 69.4196C328.435 69.0811 327.294 69.1811 326.365 69.6944C324.557 70.6903 323.866 72.9869 324.793 74.9342C325.666 76.7641 326.923 78.4161 328.427 79.7145C330.111 81.1707 332.34 81.1814 333.842 79.7391C334.623 78.9881 335.068 77.857 335.037 76.7093C335.032 76.459 335.002 76.2116 334.95 75.9757Z" fill="#E7BC04"/>
<path d="M360.136 57.8624C359.918 56.8691 359.282 56.022 358.317 55.4685L352.3 52.029C350.103 50.7732 347.899 51.8878 346.938 53.5734C346 55.2174 346.165 57.52 348.292 58.7349L354.312 62.1767C355.552 62.8847 356.951 62.8901 358.144 62.191C359.409 61.4474 360.224 60.0446 360.217 58.6132C360.215 58.3559 360.188 58.1045 360.136 57.8624Z" fill="#25B9F3"/>
<path d="M351.205 54.5806L357.223 58.022C357.687 58.289 357.746 58.5933 357.746 58.8023C357.749 59.2534 357.447 59.7557 357.029 60.0003C356.68 60.2063 356.318 60.1949 355.926 59.971L349.908 56.5311C349.154 56.0975 349.369 55.4517 349.571 55.1015C349.634 54.99 350.224 54.0198 351.205 54.5806Z" fill="#25B9F3"/>
<path d="M356.398 25.7534C357.125 25.6674 357.851 25.58 358.576 25.4937C359.27 25.4088 359.871 25.4177 360.489 25.7956C361.018 26.1212 361.506 26.7465 361.627 27.3684C361.86 28.5891 361.159 30.2589 359.752 30.427C359.027 30.5148 358.299 30.6004 357.574 30.6896C356.881 30.7701 356.279 30.7641 355.66 30.3844C355.134 30.0596 354.644 29.4354 354.524 28.8138C354.292 27.5931 354.991 25.923 356.398 25.7534Z" fill="#E7BC04"/>
<path d="M356.557 27.1123L358.735 26.8526C359.346 26.7786 359.558 26.8306 359.773 26.9644C360.03 27.1189 360.213 27.4152 360.284 27.6276C360.354 27.987 360.243 28.4737 360.018 28.7827C359.827 29.0392 359.65 29.0616 359.592 29.068L357.414 29.3292C356.807 29.401 356.587 29.3485 356.376 29.2174C356.122 29.0607 355.903 28.7691 355.868 28.5535C355.797 28.1937 355.909 27.7088 356.134 27.3999C356.32 27.1437 356.496 27.1213 356.557 27.1123ZM362.952 27.0365C362.747 26.0958 362.067 25.1574 361.203 24.6282C360.21 24.0181 359.237 24.0347 358.417 24.1351L356.238 24.3944C355.324 24.5043 354.503 25.0008 353.93 25.7887C353.258 26.7116 352.973 27.9696 353.184 29.0753C353.385 30.0056 354.059 31.004 354.943 31.5514C355.942 32.1645 356.914 32.146 357.733 32.0471L359.913 31.7849C360.825 31.6789 361.645 31.1839 362.221 30.3969C362.893 29.474 363.18 28.2148 362.968 27.1073C362.963 27.0838 362.957 27.06 362.952 27.0365Z" fill="#E7BC04"/>
<path d="M303.022 183.084C303.022 184.892 307.464 186.358 312.943 186.358C318.423 186.358 322.865 184.892 322.865 183.084C322.865 181.276 318.423 179.811 312.943 179.811C307.464 179.811 303.022 181.276 303.022 183.084Z" fill="#91BB3F"/>
<path d="M281.809 157.319C258.017 157.754 195.216 171.442 161.421 164.231C109.487 153.15 20.8148 158.31 -0.438477 159.575V211.515H414V166.965C364.585 156.585 340.559 156.247 281.809 157.319Z" fill="#A2CC47"/>
<path d="M281.809 157.32C258.017 157.754 197.251 157.9 163.049 154.38C98.4496 147.734 20.8148 155.534 -0.438477 156.798V186.275C36.2248 196.945 73.79 196.122 114.15 198.864C133.452 200.176 152.943 199.644 172.365 199.548C213.112 199.347 254.067 180.391 293.745 186.025C315.29 189.085 336.419 193.283 358.243 195.492C375.621 197.252 396.345 198.2 414 195.213V166.965C364.585 156.585 340.559 156.247 281.809 157.32Z" fill="#A9D160"/>
<path d="M64.9104 188.949C64.9104 188.949 66.8537 188.612 69.0926 193.114C69.2805 193.493 68.8807 191.076 69.1213 190.913C69.235 190.837 69.381 190.934 69.5083 191.028C70.0754 191.45 70.6426 191.873 71.2101 192.295C71.3366 191.403 69.7544 186.959 69.4638 186.047C70.3874 186.732 72.8001 190.841 73.7233 191.527C73.4859 189.305 73.2494 187.083 73.0125 184.862C74.6802 187.211 75.924 189.238 76.6008 192.452C76.8395 191.848 81.7822 189.241 81.4197 189.693C79.269 192.372 78.6314 195.762 78.4413 195.729C76.8109 195.445 69.879 195.267 68.2577 195.382C68.2204 194.527 65.9937 190.85 64.9104 188.949Z" fill="#84B73E"/>
<path d="M9.5986 137.284C9.5986 137.284 15.3308 145.337 15.6364 153.227C15.6849 154.467 19.146 142.325 19.6293 142.5C21.7792 143.279 25.103 148.638 27.2529 149.419C27.825 146.794 22.1359 135.353 21.0966 132.977C24.5995 134.242 33.529 144.121 37.0318 145.385C36.3251 139.257 35.6183 133.128 34.9115 127C41.1324 132.434 45.7445 137.268 48.056 145.887C49.036 143.998 68.365 132.956 66.9232 134.505C58.368 143.694 56.1266 156.429 55.759 157.069C54.429 159.403 49.8882 156.562 47.6023 156.922C42.523 157.721 37.2647 156.525 31.962 157.61C25.6576 158.902 7.27234 156.439 1.00032 157.96C0.93839 155.563 10.0079 148.348 9.5986 137.284Z" fill="#A9D160"/>
<path d="M217.674 147.056C217.674 147.056 215.01 154.619 212.379 156.009C211.995 156.212 213.336 147.113 213.261 148.409C213.24 148.77 210.981 151.536 210.734 151.643C209.629 152.115 209.245 153.571 208.141 154.045C207.847 152.613 208.357 145.096 208.891 143.768C207.091 144.536 204.918 151.262 203.118 152.03C203.482 148.646 198.262 142 198.262 142C197.945 146.695 198.331 150.732 197.455 152.537C196.952 151.517 188.304 149.241 189.045 150.064C193.439 154.937 189.19 156.873 192.019 159.076C193.019 159.857 196.514 158.444 197.687 158.594C200.297 158.928 202.997 158.159 205.721 158.648C208.96 159.226 213.632 159.295 216.854 160C216.885 158.682 218.73 157.588 217.674 147.056Z" fill="#A9D160"/>
<g opacity="0.169998">
<g opacity="0.169998">
<path opacity="0.169998" d="M112.089 156.421C112.089 157.517 113.716 158.406 115.723 158.406C117.73 158.406 119.358 157.517 119.358 156.421C119.358 155.326 117.73 154.437 115.723 154.437C113.716 154.437 112.089 155.326 112.089 156.421Z" fill="#030505"/>
</g>
</g>
<path d="M114.806 153.935C115.758 153.857 116.729 153.781 117.652 154.066C118.574 154.353 119.458 155.069 119.785 156.141C119.897 156.509 119.917 156.984 119.664 157.234C119.536 157.357 119.367 157.397 119.205 157.427C117.598 157.734 115.94 157.644 114.363 157.167C113.978 157.05 113.548 156.86 113.399 156.419C113.211 155.861 113.588 155.247 114.018 154.934C114.093 154.88 114.478 154.673 114.438 154.662C114.496 154.547 114.515 154.414 114.569 154.296C114.6 154.23 114.638 154.169 114.676 154.11C114.714 154.049 114.751 153.989 114.806 153.935Z" fill="#D1C5B2"/>
<path d="M395.324 151.013C395.324 151.013 391.219 156.005 390.661 161.162C390.574 161.973 388.866 153.839 388.543 153.93C387.104 154.332 384.692 157.678 383.255 158.081C383 156.331 387.232 149.117 388.017 147.612C385.674 148.266 379.399 154.293 377.057 154.946C377.796 150.964 378.534 146.982 379.273 143C374.968 146.25 371.741 149.187 369.839 154.722C369.286 153.433 357.175 145.226 358.045 146.312C363.212 152.766 364.098 161.226 364.308 161.666C365.07 163.262 395.973 163.688 399.997 165C400.146 163.431 394.556 158.246 395.324 151.013Z" fill="#A9D160"/>
<path d="M39.2638 179.281C38.9537 179.141 38.5585 179.058 38.3961 179.404C38.211 179.796 38.5626 180.923 38.8955 181.252C38.1196 180.734 37.1586 180.965 36.2941 181.211C36.0667 181.276 35.7888 181.41 35.7838 181.689C35.7774 182 36.1071 182.134 36.3655 182.164C37.1354 182.255 37.914 182.246 38.6831 182.139C38.0755 182.461 37.2846 183.434 37.2196 184.225C37.2141 184.29 37.4138 184.73 37.9963 184.567C38.6162 184.392 39.2265 182.855 39.5153 182.176C39.6868 182.641 39.3812 183.825 39.4276 184.298C39.4548 184.575 39.6636 184.851 39.8846 184.941C40.0661 185.015 40.2662 184.892 40.3958 184.724C40.8583 184.122 40.4131 183.321 40.163 182.561C40.7151 182.973 41.1253 183.071 41.7738 183.14C41.9735 183.161 42.1881 183.161 42.3587 183.034C42.5292 182.908 42.6252 182.612 42.5074 182.418C42.446 182.317 42.3437 182.265 42.2464 182.221C41.7029 181.977 41.1303 181.824 40.5513 181.771C41.0916 181.098 41.8516 180.88 41.9999 180.063C42.1313 179.335 41.3209 178.944 40.7032 179.786C40.5509 179.994 40.2116 181.01 40.0006 180.976C39.5886 180.908 39.8032 179.525 39.2638 179.281Z" fill="#F4F5F6"/>
<path d="M46.399 185.657C46.057 185.503 45.6209 185.411 45.4417 185.792C45.237 186.225 45.6254 187.468 45.992 187.832C45.1365 187.259 44.0768 187.515 43.1227 187.785C42.8717 187.857 42.5656 188.005 42.5597 188.313C42.5528 188.656 42.9167 188.804 43.2014 188.837C44.0514 188.937 44.91 188.928 45.7577 188.809C45.0874 189.164 44.2156 190.238 44.1437 191.11C44.1378 191.181 44.3579 191.668 45.0001 191.487C45.6845 191.295 46.3572 189.6 46.676 188.851C46.8647 189.363 46.5282 190.668 46.5791 191.191C46.6096 191.497 46.8397 191.801 47.0835 191.901C47.2831 191.983 47.5046 191.847 47.6469 191.661C48.1572 190.996 47.6665 190.113 47.3904 189.275C47.9999 189.729 48.4519 189.838 49.1669 189.913C49.3874 189.937 49.6239 189.937 49.8122 189.797C50 189.658 50.106 189.332 49.9764 189.118C49.9091 189.006 49.7963 188.948 49.688 188.9C49.0891 188.63 48.4574 188.462 47.8189 188.403C48.4151 187.66 49.2533 187.421 49.4165 186.519C49.5612 185.717 48.6679 185.286 47.9862 186.214C47.8184 186.443 47.4441 187.564 47.2113 187.526C46.7569 187.452 46.9934 185.926 46.399 185.657Z" fill="#F4F5F6"/>
<path d="M278.994 167.605C278.668 167.458 278.173 167.538 278.145 167.954C278.134 168.108 278.199 168.254 278.268 168.385C278.507 168.846 278.808 169.26 279.158 169.605C278.343 169.061 277.335 169.304 276.426 169.562C276.188 169.63 275.896 169.77 275.891 170.064C275.884 170.39 276.23 170.531 276.502 170.563C277.31 170.657 278.128 170.648 278.935 170.536C278.297 170.874 277.833 171.641 277.764 172.472C277.759 172.539 277.757 172.612 277.787 172.669C277.828 172.747 277.915 172.769 277.993 172.771C278.661 172.792 279.103 171.974 279.406 171.261C279.331 171.753 279.318 172.258 279.366 172.755C279.395 173.047 279.478 173.384 279.711 173.478C279.901 173.556 280.111 173.427 280.247 173.25C280.733 172.618 280.516 171.614 280.253 170.815C280.832 171.248 281.499 171.515 282.179 171.587C282.389 171.609 282.615 171.609 282.793 171.476C282.972 171.343 283.073 171.033 282.95 170.829C282.886 170.723 282.778 170.668 282.676 170.623C282.105 170.365 281.504 170.205 280.896 170.15C281.623 170.025 282.305 169.562 282.766 168.878C282.813 168.807 282.861 168.728 282.869 168.637C282.891 168.361 282.63 168.09 282.399 168.111C282.058 168.141 281.685 168.275 281.354 168.563C281.159 168.733 280.539 169.351 280.318 169.315C279.885 169.244 279.56 167.861 278.994 167.605Z" fill="#F4F5F6"/>
<path d="M384.524 185.484C384.108 185.296 383.474 185.398 383.438 185.929C383.425 186.126 383.509 186.313 383.596 186.481C383.901 187.07 384.287 187.599 384.733 188.042C383.692 187.345 382.402 187.656 381.241 187.985C380.936 188.072 380.563 188.253 380.556 188.627C380.548 189.044 380.99 189.224 381.337 189.266C382.371 189.387 383.416 189.375 384.448 189.231C383.633 189.664 383.04 190.645 382.952 191.706C382.945 191.792 382.942 191.885 382.981 191.958C383.034 192.058 383.145 192.086 383.244 192.089C384.098 192.116 384.664 191.07 385.052 190.158C384.955 190.787 384.938 191.434 385 192.069C385.037 192.441 385.144 192.872 385.441 192.993C385.684 193.093 385.953 192.927 386.127 192.701C386.748 191.893 386.469 190.61 386.133 189.588C386.875 190.142 387.726 190.482 388.597 190.575C388.865 190.603 389.153 190.603 389.382 190.433C389.611 190.264 389.74 189.867 389.582 189.606C389.5 189.47 389.363 189.401 389.231 189.342C388.502 189.012 387.734 188.808 386.956 188.737C387.886 188.579 388.758 187.985 389.346 187.111C389.408 187.02 389.468 186.92 389.478 186.803C389.507 186.451 389.173 186.103 388.877 186.13C388.441 186.169 387.965 186.341 387.542 186.709C387.292 186.926 386.5 187.716 386.217 187.67C385.664 187.58 385.247 185.811 384.524 185.484Z" fill="#F4F5F6"/>
<g opacity="0.119995">
<g opacity="0.119995">
<path opacity="0.119995" d="M276.57 200.074L218 198.602L226.062 191.374H285.252L276.57 200.074Z" fill="black"/>
</g>
</g>
<path d="M237.021 191.371L228.897 198.602V170.184L237.021 163V191.371Z" fill="#0486BF"/>
<path d="M226.176 163.048L218.066 170.254H274.33L282.446 163.048H226.176Z" fill="#30B6EC"/>
<path d="M282.446 191.371L274.33 198.601V170.184L282.446 163.048V191.371Z" fill="#0486BF"/>
<path d="M218.066 170.254V198.602H228.898C228.898 188.966 236.715 181.11 246.35 181.11C255.987 181.11 263.799 188.965 263.799 198.601H274.33V170.254H218.066Z" fill="#00A6E0"/>
<path d="M86 148.361L92.4659 143H113.861L107.373 148.361H86Z" fill="#FF9053"/>
<g opacity="0.119995">
<g opacity="0.119995">
<path opacity="0.119995" d="M109.718 170.856L86 169.742L92.093 164.368H116.224L109.718 170.856Z" fill="black"/>
</g>
</g>
<path d="M107.373 169.743L113.861 164.368V143L107.373 148.361V169.743Z" fill="#ED5E0F"/>
<path d="M107.373 169.743H86V148.361H107.373V169.743Z" fill="#FF7610"/>
</svg>
