<svg width="27" height="27" viewBox="0 0 27 27" fill="none" xmlns="http://www.w3.org/2000/svg">

    <defs>
        <linearGradient id="paint0_linear_10312_34989" x1="13.286" y1="22.2886" x2="13.286"
            y2="5.75391" gradientUnits="userSpaceOnUse">
            <stop stop-color="#A3D8FF" />
            <stop offset="1" stop-color="#D6EEFF" />
        </linearGradient>
        <linearGradient id="paint1_linear_10312_34989" x1="13.286" y1="16.0933" x2="13.286"
            y2="5.53076" gradientUnits="userSpaceOnUse">
            <stop stop-color="#5558FF" />
            <stop offset="1" stop-color="#00C0FF" />
        </linearGradient>
        <clipPath id="clip0_10312_34989">
            <rect width="26" height="26" fill="white" transform="translate(0.286011 0.909668)" />
        </clipPath>
    </defs>
    <g clip-path="url(#clip0_10312_34989)">
        <path
            d="M26.0629 5.75391H0.509093C0.371272 5.89173 0.286011 6.08216 0.286011 6.29249V21.5269C0.286011 21.9475 0.627058 22.2886 1.04773 22.2886H25.5243C25.945 22.2886 26.286 21.9475 26.286 21.5269V6.29249C26.286 6.08216 26.2007 5.89173 26.0629 5.75391Z"
            fill="url(#paint0_linear_10312_34989)" />
        <path
            d="M25.5242 5.53076H1.04767C0.837334 5.53076 0.646904 5.61602 0.509033 5.75389L12.7653 15.8876C13.0582 16.1619 13.5137 16.1619 13.8066 15.8876L26.0629 5.75389C25.925 5.61602 25.7346 5.53076 25.5242 5.53076Z"
            fill="url(#paint1_linear_10312_34989)" />
    </g>
</svg>
