<svg width="414" height="203" viewBox="0 0 414 203" fill="none" xmlns="http://www.w3.org/2000/svg">
<path opacity="0.5" d="M305.561 41.6844C308.837 41.6949 312.005 41.8545 314.997 42.1444C313.924 38.9497 313.342 35.5323 313.339 31.9806C313.333 14.3268 327.668 0.00841151 345.352 9.94129e-06C363.044 -0.00629123 377.388 14.2995 377.395 31.9533C377.395 33.2954 377.311 34.6166 377.152 35.9125C377.5 35.8684 377.852 35.8453 378.212 35.8453C381.464 35.8432 384.291 37.6516 385.741 40.317C387.918 36.5048 392.599 34.3939 397.414 35.4273C403.308 36.6917 407.168 42.1864 406.03 47.7041C405.881 48.4329 405.649 49.1261 405.349 49.7772C420.844 50.8001 432.008 53.6083 432 56.8786C431.99 60.9765 414.51 64.2468 392.959 64.188C391.943 64.1859 390.933 64.1754 389.936 64.1585C385.185 69.9598 373.453 74.0409 359.743 74.0052C355.475 73.9926 351.402 73.583 347.672 72.8479C343.942 76.5887 337.857 79.0167 330.982 78.9999C319.661 78.9705 310.498 72.3165 310.523 64.1438C310.523 63.7994 310.546 63.4591 310.58 63.1231C308.925 63.1987 307.231 63.2365 305.507 63.2323C286.99 63.1819 271.983 58.3174 272 52.3691C272.015 46.4186 287.043 41.6361 305.561 41.6844Z" fill="#B6E69D"/>
<path opacity="0.5" d="M308.459 173.689C310.26 173.695 312.003 173.782 313.648 173.939C313.058 172.2 312.738 170.34 312.737 168.407C312.733 158.798 320.617 151.005 330.344 151C340.074 150.997 347.964 158.783 347.967 168.392C347.967 169.123 347.921 169.842 347.833 170.547C348.025 170.523 348.218 170.511 348.417 170.511C350.205 170.51 351.76 171.494 352.557 172.945C353.755 170.87 356.329 169.721 358.978 170.283C362.219 170.971 364.342 173.962 363.717 176.966C363.635 177.362 363.507 177.739 363.342 178.094C371.864 178.651 378.005 180.179 378 181.959C377.994 184.19 368.38 185.97 356.528 185.938C355.969 185.937 355.413 185.931 354.865 185.922C352.252 189.079 345.799 191.301 338.259 191.281C335.911 191.274 333.671 191.052 331.62 190.651C329.568 192.687 326.222 194.009 322.44 194C316.214 193.984 311.174 190.362 311.188 185.914C311.188 185.726 311.2 185.541 311.219 185.358C310.308 185.399 309.377 185.42 308.429 185.418C298.245 185.39 289.991 182.742 290 179.505C290.008 176.266 298.273 173.663 308.459 173.689Z" fill="#B6E69D"/>
<path opacity="0.5" d="M-15.5412 70.689C-13.7399 70.6947 -11.9974 70.7816 -10.3517 70.9393C-10.9418 69.2004 -11.2621 67.3404 -11.2633 65.4071C-11.2667 55.7981 -3.38283 48.0046 6.34385 48C16.074 47.9966 23.9637 55.7833 23.9671 65.3923C23.9671 66.1228 23.921 66.8419 23.8334 67.5473C24.0248 67.5233 24.2184 67.5107 24.4166 67.5107C26.2052 67.5096 27.7598 68.4939 28.5573 69.9447C29.7547 67.8697 32.3293 66.7207 34.9776 67.2832C38.2195 67.9714 40.3423 70.9622 39.7165 73.9655C39.6347 74.3622 39.5068 74.7395 39.342 75.0939C47.8644 75.6507 54.0046 77.1792 54 78.9592C53.9942 81.1897 44.3805 82.9698 32.5275 82.9377C31.9686 82.9366 31.4131 82.9309 30.8645 82.9217C28.2519 86.0794 21.7994 88.3007 14.2589 88.2813C11.9113 88.2744 9.67098 88.0515 7.61962 87.6514C5.56825 89.6875 2.22154 91.0091 -1.55965 91C-7.78634 90.9839 -12.826 87.3621 -12.8122 82.9137C-12.8122 82.7262 -12.7995 82.541 -12.7811 82.3581C-13.6915 82.3993 -14.6227 82.4199 -15.5712 82.4176C-25.7554 82.3901 -34.0092 79.7424 -34 76.5047C-33.9919 73.2658 -25.7265 70.6627 -15.5412 70.689Z" fill="#B6E69D"/>
<path d="M170.782 131.89C170.514 131.827 170.296 131.61 170.244 131.323C170.175 130.932 170.434 130.562 170.821 130.494C176.178 129.543 180.668 123.321 181.049 116.33C181.071 115.936 181.406 115.632 181.801 115.655C182.19 115.673 182.497 116.012 182.474 116.406C182.053 124.161 177.152 130.821 171.071 131.899C170.972 131.917 170.876 131.913 170.782 131.89Z" fill="#663636"/>
<path d="M185.27 115.015C185.454 115.1 185.756 114.962 186.233 114.761C186.645 114.587 187.258 114.309 187.581 114.375C187.924 114.444 187.819 114.793 187.423 115.141C186.772 115.716 185.256 116.961 184.463 117.531C183.166 118.581 181.215 118.565 180.319 117.414C178.974 115.687 178.568 114.93 177.784 113.839C177.59 113.569 178.357 113.381 178.752 113.615C179.6 114.116 179.648 114.476 180.108 114.697C180.555 114.912 180.83 114.584 181 114.123C181.172 111.701 181.007 110.307 181.699 109.977C182.309 109.792 182.421 111.462 182.455 113.354C183.214 111.382 183.985 109.852 184.47 110.088C185.043 110.369 184.734 112.061 183.996 113.676C185.307 112.67 186.377 111.504 186.891 111.914C187.354 112.281 184.747 114.779 185.27 115.015Z" fill="#EF4041"/>
<path d="M170.704 155.06C166.679 156.688 144.636 161.407 135.601 162.676C135.172 160.478 126.29 120.248 124.213 113.238C129.964 112.474 136.125 111.374 142.539 109.96C148.516 108.643 153.075 107.575 159.368 105.734C159.643 105.893 161.004 106.154 161.251 106.248C163.049 113.636 169.386 149.799 170.704 155.06Z" fill="#EF4041"/>
<path d="M173.913 156.866C169.886 158.495 147.845 163.216 138.81 164.483C138.381 162.285 129.499 122.056 127.421 115.047C138.533 113.571 147.004 111.681 160.055 107.862C160.661 108.218 168.119 111.908 169.708 112.655C171.947 123.22 172.696 152.016 173.913 156.866Z" fill="#E5D8C1"/>
<path d="M138.539 111.956C133.647 112.947 129.015 113.82 124.532 114.415L124.213 113.238C129.952 112.475 136.185 111.36 142.57 109.951C148.583 108.627 153.166 107.501 159.381 105.684L161.253 106.248C155.009 108.076 148.857 109.722 142.816 111.053C141.379 111.37 139.951 111.672 138.539 111.956Z" fill="#F16163"/>
<path d="M147.956 116.926C142.984 117.93 138.206 118.738 133.727 119.332L133.559 118.049C138.492 117.395 143.798 116.483 149.324 115.322C155.855 113.955 162.068 112.427 168.763 110.504C169.163 110.69 170.819 111.247 170.819 111.247C163.657 113.341 156.577 115.129 149.588 116.593C149.042 116.704 148.499 116.816 147.956 116.926Z" fill="#F16163"/>
<path d="M134.096 119.643C133.315 119.293 131.806 118.486 130.341 117.635C128.54 116.586 125.366 114.64 124.339 113.366C124.339 113.366 125.918 113.137 126.406 113.52C127.435 114.326 129.033 115.373 130.993 116.511C132.643 117.471 134.007 118.183 134.626 118.461L134.096 119.643Z" fill="#F16163"/>
<path d="M134.279 162.83C134.655 164.066 143.11 169.295 143.795 168.383C143.841 164.357 136.066 126.1 133.727 119.332C133.03 119.02 131.593 118.26 130.032 117.352C127.685 115.986 125.053 114.281 124.212 113.238C124.597 115.668 133.163 157.062 134.279 162.83Z" fill="#CE282A"/>
<path d="M179.752 160.309C176.126 161.441 152.744 167.182 143.709 168.449C143.605 164.938 133.729 119.332 133.729 119.332C138.689 118.674 144.009 117.753 149.54 116.595C156.403 115.161 163.591 113.361 170.818 111.248C171.881 113.541 178.812 153.603 179.752 160.309Z" fill="#EF4041"/>
<path d="M150.801 117.153C151.441 120.263 149.438 123.304 146.329 123.943C143.223 124.583 140.182 122.582 139.54 119.474C138.901 116.362 140.902 113.323 144.012 112.681C147.122 112.04 150.162 114.043 150.801 117.153Z" fill="white"/>
<path d="M144.046 112.853C141.037 113.474 139.093 116.428 139.712 119.437C140.331 122.446 143.283 124.392 146.295 123.771C149.306 123.152 151.25 120.2 150.629 117.187C150.008 114.178 147.056 112.234 144.046 112.853ZM146.366 124.115C143.166 124.775 140.026 122.706 139.368 119.508C138.71 116.307 140.777 113.169 143.977 112.511C147.175 111.852 150.313 113.919 150.973 117.118C151.631 120.317 149.565 123.457 146.366 124.115Z" fill="#541312"/>
<path d="M144.576 119.785C144.528 119.794 144.479 119.794 144.431 119.783C144.241 119.744 144.12 119.556 144.163 119.366C144.36 118.453 145.08 117.716 146.042 117.448C146.978 117.181 147.961 117.445 148.633 118.151C148.766 118.291 148.759 118.513 148.619 118.646C148.479 118.781 148.257 118.775 148.124 118.635C147.629 118.114 146.937 117.915 146.231 118.123C145.52 118.323 144.99 118.857 144.848 119.515C144.817 119.655 144.706 119.757 144.576 119.785Z" fill="#541312"/>
<path d="M165.193 113.932C165.832 117.042 163.831 120.083 160.721 120.722C157.613 121.362 154.573 119.361 153.932 116.251C153.292 113.141 155.293 110.102 158.402 109.46C161.512 108.821 164.553 110.822 165.193 113.932Z" fill="white"/>
<path d="M158.439 109.632C155.429 110.253 153.484 113.205 154.105 116.214C154.723 119.225 157.676 121.171 160.687 120.55C163.697 119.933 165.641 116.979 165.02 113.966C164.401 110.957 161.448 109.013 158.439 109.632ZM160.758 120.894C157.559 121.554 154.419 119.485 153.759 116.285C153.101 113.086 155.168 109.948 158.368 109.29C161.568 108.631 164.706 110.698 165.363 113.897C166.023 117.098 163.956 120.236 160.758 120.894Z" fill="#541312"/>
<path d="M160.939 116.325C160.808 116.353 160.666 116.302 160.582 116.187C160.19 115.637 159.493 115.356 158.762 115.454C158.038 115.544 157.474 115.995 157.224 116.671C157.157 116.854 156.956 116.944 156.774 116.879C156.591 116.811 156.499 116.609 156.566 116.428C156.905 115.512 157.694 114.886 158.67 114.758C159.658 114.625 160.609 115.017 161.154 115.777C161.267 115.935 161.23 116.155 161.072 116.268C161.031 116.297 160.985 116.316 160.939 116.325Z" fill="#541312"/>
<path d="M137.287 107.662C137.061 107.739 136.806 107.723 136.582 107.597C136.165 107.361 136.018 106.83 136.254 106.413C137.421 104.355 140.269 102.918 143.029 103.004C143.508 103.018 143.886 103.417 143.87 103.896C143.856 104.373 143.453 104.749 142.976 104.739C140.856 104.669 138.619 105.762 137.766 107.269C137.654 107.464 137.482 107.597 137.287 107.662Z" fill="#541312"/>
<path d="M169.349 121.232C169.47 121.904 168.413 122.66 166.986 122.917C165.558 123.176 164.304 122.839 164.182 122.165C164.061 121.491 165.118 120.738 166.545 120.479C167.973 120.222 169.227 120.557 169.349 121.232Z" fill="#F491A7"/>
<path d="M130.601 187.846C130.961 184.748 136.553 182.74 143.94 182.71C142.111 179.396 141.087 175.453 141.179 171.24C141.429 159.777 149.815 150.664 159.91 150.884C168.597 151.074 175.713 158.113 177.371 167.378C178.43 165.44 180.279 163.947 182.599 163.418C186.899 162.446 191.174 165.139 192.15 169.439C192.744 172.061 191.971 174.668 190.303 176.53C190.935 176.312 191.588 176.124 192.263 175.97C198.946 174.453 205.192 176.869 206.212 181.367C207.232 185.862 202.639 190.736 195.957 192.253C192.829 192.962 189.799 192.812 187.355 191.99C189.278 194.068 190.142 196.271 189.521 198.175C188.189 202.253 180.554 203.415 172.468 200.774C168.551 199.495 165.248 197.557 163.032 195.434C159.619 196.949 153.964 197.554 147.695 196.826C137.811 195.68 130.16 191.658 130.601 187.846Z" fill="#B6E79D"/>
<g opacity="0.119995">
<g opacity="0.119995">
<g opacity="0.119995">
<path opacity="0.119995" d="M144.05 181.601C144.05 182.296 150.633 182.859 158.752 182.859C166.87 182.859 173.453 182.296 173.453 181.601C173.453 180.907 166.87 180.345 158.752 180.345C150.633 180.345 144.05 180.907 144.05 181.601Z" fill="#030404"/>
</g>
</g>
</g>
<path d="M146.903 177.896C147.144 177.88 147.378 177.768 147.54 177.564C152.524 171.282 153.021 165.204 148.982 159.977C148.684 159.594 148.127 159.523 147.744 159.819C147.357 160.117 147.286 160.673 147.584 161.059C151.121 165.631 150.639 170.815 146.156 176.464C145.853 176.846 145.916 177.403 146.298 177.706C146.477 177.848 146.692 177.908 146.903 177.896Z" fill="#663636"/>
<path d="M150.444 176.484C149.729 176.436 145.881 176.039 145.092 175.929C144.916 177.231 144.622 179.528 144.562 180.946C150.522 182.134 154.41 182.262 154.437 182.067C154.561 181.113 154.623 178.357 150.444 176.484Z" fill="#EF4041"/>
<path d="M154.522 181.28C152.521 181.191 149.088 180.854 144.639 180.089C144.629 180.247 144.566 180.802 144.561 180.946C150.522 182.133 154.412 182.262 154.437 182.067C154.451 181.963 154.516 181.427 154.522 181.28ZM149.549 177.776C150.06 177.841 151.008 177.911 151.229 177.169C151.302 176.924 151.222 176.534 150.965 175.945C150.6 175.104 148.735 175.005 148.411 176.14C148.15 177.052 149.003 177.708 149.549 177.776Z" fill="#931A1D"/>
<path d="M151.064 175.93C151.32 176.531 151.4 176.928 151.327 177.18C151.107 177.938 150.163 177.867 149.656 177.801C149.108 177.73 148.258 177.056 148.515 176.121C148.838 174.964 150.697 175.067 151.064 175.93Z" fill="#EF4041"/>
<path d="M152.639 177.546C152.038 177.443 151.47 177.634 150.986 178.101C150.902 178.183 150.902 178.316 150.98 178.397C151.016 178.433 151.058 178.454 151.105 178.461C151.165 178.468 151.229 178.449 151.275 178.403C151.545 178.145 151.992 177.856 152.568 177.957C152.682 177.977 152.79 177.902 152.809 177.789C152.829 177.674 152.753 177.567 152.639 177.546ZM152.096 177.125C152.112 177.008 152.043 176.904 151.914 176.889C151.337 176.826 150.645 177.058 150.189 177.496C150.106 177.576 150.104 177.709 150.186 177.792C150.219 177.826 150.262 177.847 150.31 177.853C150.368 177.862 150.434 177.842 150.48 177.798C150.847 177.441 151.404 177.244 151.862 177.303C151.976 177.319 152.082 177.239 152.096 177.125Z" fill="#E2E6EE"/>
<path d="M165.666 178.048C165.977 178.093 166.298 177.97 166.5 177.703C171.288 171.271 171.598 165.177 167.398 160.08C167.087 159.704 166.53 159.651 166.152 159.961C165.776 160.27 165.723 160.829 166.033 161.205C169.709 165.665 169.39 170.86 165.083 176.647C164.792 177.039 164.873 177.591 165.263 177.883C165.386 177.974 165.524 178.029 165.666 178.048Z" fill="#663636"/>
<path d="M169.259 176.39C168.542 176.374 164.681 176.154 163.889 176.082C163.771 177.391 163.584 179.699 163.59 181.118C169.6 182.03 173.492 181.977 173.508 181.782C173.586 180.822 173.522 178.065 169.259 176.39Z" fill="#EF4041"/>
<path d="M173.557 180.992C171.553 180.995 168.108 180.814 163.627 180.261C163.623 180.419 163.589 180.976 163.589 181.118C169.601 182.03 173.492 181.978 173.508 181.781C173.516 181.675 173.557 181.139 173.557 180.992ZM168.427 177.722C168.938 177.763 169.889 177.786 170.075 177.037C170.137 176.789 170.04 176.404 169.756 175.827C169.353 175.002 167.483 174.99 167.214 176.138C166.995 177.062 167.877 177.68 168.427 177.722Z" fill="#931A1D"/>
<path d="M169.853 175.807C170.135 176.396 170.235 176.791 170.174 177.043C169.988 177.81 169.043 177.781 168.534 177.74C167.982 177.694 167.102 177.063 167.317 176.117C167.585 174.946 169.447 174.962 169.853 175.807Z" fill="#EF4041"/>
<path d="M171.503 177.35C170.896 177.274 170.339 177.492 169.876 177.98C169.798 178.065 169.801 178.198 169.885 178.276C169.92 178.31 169.965 178.33 170.011 178.333C170.071 178.339 170.135 178.317 170.181 178.269C170.435 177.996 170.869 177.687 171.449 177.764C171.565 177.778 171.669 177.696 171.683 177.583C171.696 177.467 171.616 177.365 171.503 177.35ZM170.942 176.953C170.951 176.836 170.875 176.735 170.747 176.726C170.167 176.69 169.486 176.953 169.053 177.411C168.973 177.496 168.976 177.627 169.062 177.707C169.097 177.741 169.141 177.758 169.188 177.762C169.248 177.769 169.312 177.748 169.356 177.698C169.707 177.327 170.254 177.104 170.715 177.143C170.828 177.153 170.931 177.068 170.942 176.953Z" fill="#E2E6EE"/>
<path d="M149.102 126.84C150.101 128.969 152.886 130.443 155.873 129.689C158.864 128.937 160.973 126.185 160.615 123.936C160.084 120.613 157.587 123.838 154.558 124.438C151.536 125.039 147.589 123.625 149.102 126.84Z" fill="#53120C"/>
<path d="M155.009 127.6C156.625 127.194 158.14 127.288 159.14 127.829C158.338 128.681 157.229 129.405 155.887 129.742C154.377 130.123 153.006 129.94 151.821 129.435C152.509 128.615 153.573 127.962 155.009 127.6Z" fill="#F58984"/>
<path d="M150.447 124.536C151.354 124.067 152.975 124.429 154.481 124.129C156.182 123.792 157.413 122.685 158.529 122.714C158.331 123.744 156.887 124.839 154.953 125.325C152.879 125.848 150.974 125.49 150.447 124.536Z" fill="white"/>
<path d="M144.596 126.727C144.716 127.401 143.661 128.157 142.233 128.414C140.805 128.673 139.55 128.334 139.43 127.662C139.307 126.988 140.365 126.234 141.793 125.975C143.219 125.717 144.475 126.054 144.596 126.727Z" fill="#F491A7"/>
<path d="M135.442 136.057C135.376 136.126 135.294 136.181 135.2 136.22C129.495 138.581 121.78 135.601 117.257 129.29C117.028 128.969 117.104 128.52 117.422 128.293C117.741 128.062 118.188 128.135 118.417 128.456C122.497 134.15 129.632 136.979 134.656 134.902C135.021 134.749 135.438 134.921 135.589 135.287C135.701 135.558 135.633 135.86 135.442 136.057Z" fill="#663636"/>
<path d="M116.043 130.82C115.933 130.992 115.603 131.036 115.094 131.123C114.652 131.199 113.985 131.295 113.749 131.522C113.495 131.763 113.776 132.003 114.294 132.085C115.152 132.218 117.1 132.454 118.076 132.505C119.731 132.695 121.368 131.632 121.505 130.179C121.71 128.001 121.647 127.144 121.721 125.801C121.739 125.469 120.992 125.724 120.784 126.134C120.339 127.012 120.492 127.342 120.222 127.775C119.963 128.196 119.553 128.068 119.163 127.77C117.714 125.822 117.105 124.557 116.344 124.651C115.731 124.823 116.534 126.29 117.522 127.906C115.823 126.65 114.349 125.774 114.067 126.235C113.733 126.78 114.906 128.041 116.396 129.006C114.75 128.861 113.22 128.453 113.008 129.077C112.816 129.634 116.357 130.339 116.043 130.82Z" fill="#EF4041"/>
</svg>
