<svg width="414" height="736" viewBox="0 0 414 736" fill="none" xmlns="http://www.w3.org/2000/svg">
<defs>
<filter id="filter0_d_749_254" x="16" y="16" width="131.182" height="52.3115" filterUnits="userSpaceOnUse" color-interpolation-filters="sRGB">
<feFlood flood-opacity="0" result="BackgroundImageFix"/>
<feColorMatrix in="SourceAlpha" type="matrix" values="0 0 0 0 0 0 0 0 0 0 0 0 0 0 0 0 0 0 127 0" result="hardAlpha"/>
<feOffset dy="5"/>
<feComposite in2="hardAlpha" operator="out"/>
<feColorMatrix type="matrix" values="0 0 0 0 0 0 0 0 0 0 0 0 0 0 0 0 0 0 0.1 0"/>
<feBlend mode="normal" in2="BackgroundImageFix" result="effect1_dropShadow_749_254"/>
<feBlend mode="normal" in="SourceGraphic" in2="effect1_dropShadow_749_254" result="shape"/>
</filter>
<linearGradient id="paint0_linear_749_254" x1="207" y1="-20" x2="207" y2="476" gradientUnits="userSpaceOnUse">
<stop stop-color="#CB8CF2"/>
<stop offset="1" stop-color="#AC47EB"/>
</linearGradient>
<linearGradient id="paint1_linear_749_254" x1="207" y1="1" x2="207" y2="446" gradientUnits="userSpaceOnUse">
<stop stop-color="#DD5FFC"/>
<stop offset="0.661458" stop-color="#5107A6"/>
</linearGradient>
<clipPath id="clip0_749_254">
<rect width="414" height="736" fill="white"/>
</clipPath>
</defs>
<g clip-path="url(#clip0_749_254)">
<rect width="414" height="736" fill="white"/>
<rect width="414" height="736" fill="#F3F8E7"/>
<rect width="414" height="736" fill="#FBEFEF"/>
<g opacity="0.2">
<path d="M144.368 643.015L130.908 654.993V607.906L144.368 596V643.015Z" fill="#D63664"/>
<path d="M126.424 596.083L113 608.024H206.209L219.648 596.083H126.424Z" fill="#FF7795"/>
<path d="M219.648 643.015L206.209 655V608.024L219.648 596.083V643.015Z" fill="#E53366"/>
<path d="M113 608.024V654.992H130.907C130.907 639.023 143.86 626.011 159.828 626.011C175.796 626.011 188.742 639.033 188.742 655H206.209V608.024H113Z" fill="#F4517C"/>
</g>
<path d="M27.2 -22.5H386.8C386.97 -22.5 387.139 -22.5 387.306 -22.5C393.521 -22.5007 397.199 -22.501 400.277 -21.6066C407.674 -19.4576 413.458 -13.6741 415.607 -6.2773C416.501 -3.19866 416.501 0.479023 416.5 6.69445C416.5 6.86113 416.5 7.02964 416.5 7.2V448.734L416.5 449.241C416.501 455.47 416.501 459.155 415.604 462.238C413.448 469.646 407.647 475.433 400.234 477.571C397.149 478.46 393.464 478.451 387.235 478.435L386.728 478.434L27.1283 477.566L26.6238 477.564C20.4218 477.55 16.752 477.542 13.6799 476.642C6.29919 474.482 0.53299 468.702 -1.60934 461.316C-2.50104 458.242 -2.50064 454.572 -2.50006 448.37L-2.5 447.866V7.2L-2.50006 6.69441C-2.50064 0.479008 -2.50104 -3.19866 -1.6066 -6.2773C0.542389 -13.6741 6.32587 -19.4576 13.7227 -21.6066C16.8014 -22.501 20.479 -22.5007 26.6944 -22.5L27.2 -22.5Z" fill="url(#paint0_linear_749_254)" stroke="#EB4747" stroke-width="5"/>
<mask id="mask0_749_254" style="mask-type:alpha" maskUnits="userSpaceOnUse" x="0" y="-20" width="414" height="496">
<path d="M414 7.2C414 0.502387 414 -2.84642 413.206 -5.57982C411.296 -12.1548 406.155 -17.2957 399.58 -19.2059C396.846 -20 393.498 -20 386.8 -20H27.2C20.5024 -20 17.1536 -20 14.4202 -19.2059C7.8452 -17.2957 2.70433 -12.1548 0.794126 -5.57982C0 -2.84642 0 0.502386 0 7.2V448.8C0 455.498 0 458.846 0.794126 461.58C2.70433 468.155 7.8452 473.296 14.4202 475.206C17.1536 476 20.5024 476 27.2 476L386.8 476C393.498 476 396.846 476 399.58 475.206C406.155 473.296 411.296 468.155 413.206 461.58C414 458.846 414 455.498 414 448.8V7.2Z" fill="url(#paint1_linear_749_254)"/>
</mask>
<g mask="url(#mask0_749_254)">
<path d="M301.682 -138.052C307.3 -205.059 250.622 -272.907 219.12 -306.461L627.916 -70.4429L295.208 505.825L-346.339 135.428C-285.096 88.0965 -114.507 62.9171 96.1092 54.9936C233.995 49.8062 292.383 -27.1352 301.682 -138.052Z" fill="white" fill-opacity="0.1"/>
<path d="M344.014 -82.4795C350.149 -149.187 294.97 -216.169 264.265 -249.264L664.533 -18.1694L331.824 558.099L-296.34 195.428C-235.627 147.79 -67.48 121.201 139.913 111.417C275.688 105.011 333.858 27.9433 344.014 -82.4795Z" fill="white" fill-opacity="0.1"/>
<path d="M397.58 -73.3248C397.679 -176.651 340.646 -214.074 316.654 -243.659L608.739 -75.0234L268.124 514.939L-128.282 286.074C-89.3549 218.649 32.5425 167.663 214.721 140.243C333.988 122.291 397.476 35.315 397.58 -73.3248Z" fill="white" fill-opacity="0.1"/>
<path d="M436.005 -28.7424C440.885 -86.0791 392.949 -152.719 336.404 -194.935L641.111 -19.0127L332.682 515.201L19.0862 329.521C54.3352 268.468 187.935 203.7 279.425 173.082C392.113 135.371 427.503 71.1364 436.005 -28.7424Z" fill="white" fill-opacity="0.1"/>
</g>
<path d="M67.9846 121.143C66.97 121.36 66.5 120.5 65 120C58.6002 114.335 41.7859 15.6455 47 -79H44C38.7859 15.6455 53.6667 115.531 60.067 121.196C61.0712 122.085 62.0205 122.402 62.9235 122.238L67.9846 121.143Z" fill="#25B9F3"/>
<path d="M78 118.812C76.7431 119.135 75.5051 118.845 74.2975 117.791C67.8047 112.121 47.7102 15.712 53 -79H50C44.7101 15.712 62.9378 113.211 69.4311 118.879C70.5754 119.878 71.7218 120.173 72.865 119.907L78 118.812Z" fill="#EB4799"/>
<path d="M73 119.838C71.8842 120.104 70.7659 119.809 69.6491 118.81C63.3137 113.144 44.8385 15.6787 50 -79H46.9729C41.8114 15.6787 58.5652 114.232 64.9006 119.899C65.9559 120.843 66.9853 121.151 67.9897 120.934L73 119.838Z" fill="#2D459C"/>
<path d="M77.9195 119.874C76.676 120.2 75.4511 119.907 74.2563 118.847C67.8325 113.148 47.7663 16.2207 53 -79H56C50.766 16.2207 72.6472 112.054 79.0716 117.753C80.3285 118.868 81.6435 119.152 83 118.773L77.9195 119.874Z" fill="#79CE4B"/>
<path d="M81.9684 117.842C80.625 118.219 79.3225 117.937 78.0778 116.827C71.7155 111.155 50.8166 15.7725 56 -79H59C53.8166 15.7725 77.4842 110.065 83.8468 115.738C85.153 116.902 86.5452 117.176 88 116.745L81.9684 117.842Z" fill="#FBCE0D"/>
<path d="M91.8468 87.8319C83.9767 88.6323 77.5271 120.365 67.7533 121.599L62.7002 122.266C72.0939 121.228 76.3987 88.4608 84.3156 87.6556L91.8468 87.8319Z" fill="#25B9F3"/>
<path d="M121.971 88.5381C114.289 89.3194 99.2593 116.912 87.9663 118.935L82.913 119.601C93.8261 117.775 106.711 89.1477 114.44 88.3615L121.971 88.5381Z" fill="#FBCE0D"/>
<path d="M99.3778 88.0087C91.5548 88.8042 82.957 119.476 72.8066 120.933L67.7532 121.6C77.5271 120.365 83.9769 88.6327 91.8468 87.8321L99.3778 88.0087Z" fill="#2D459C"/>
<path d="M106.909 88.185C99.1327 88.976 88.3931 118.638 77.8598 120.267L72.8065 120.933C82.9569 119.476 91.5548 88.8042 99.3777 88.0084L106.909 88.185Z" fill="#EB4799"/>
<path d="M114.44 88.3611C106.711 89.1472 93.8263 117.775 82.9131 119.601L77.8598 120.267C88.3931 118.638 99.1327 88.9755 106.909 88.1847L114.44 88.3611Z" fill="#79CE4B"/>
<path d="M161 203C169.156 148.726 131.18 87.601 121.971 88.5378L114.44 88.3612C123.648 87.4246 155.757 153.183 140 203H161Z" fill="#FBCE0D"/>
<path d="M91.8469 87.832L84.7857 87.6666C93.7048 88.929 98.3672 171.558 53 203H74C112.558 166.553 101.055 86.8955 91.8469 87.832Z" fill="#25B9F3"/>
<path d="M99.3778 88.0084L92.3375 87.8435C101.476 89.0997 111.877 167.196 74 203H96C126.957 162.096 108.586 87.0718 99.3778 88.0084Z" fill="#2D459C"/>
<path d="M106.909 88.185L99.892 88.0206C109.263 89.2756 126.392 162.843 96 203H118C141.357 157.639 116.117 87.2482 106.909 88.185Z" fill="#EB4799"/>
<path d="M114.44 88.3615L107.45 88.1977C117.071 89.4569 140.914 158.499 118 203H140C155.757 153.183 123.648 87.425 114.44 88.3615Z" fill="#79CE4B"/>
<g filter="url(#filter0_d_749_254)">
<path d="M147.159 30.1383C147.159 29.7882 147.151 29.1819 146.997 28.4639C146.929 28.1427 146.838 27.8298 146.728 27.5277C146.992 26.8056 147.136 26.0258 147.136 25.2132C147.136 25.1636 147.135 25.1139 147.134 25.0644C147.03 21.4172 144.045 18.5191 140.438 18.5191C140.399 18.5191 140.361 18.5195 140.323 18.52C138.544 18.54 136.816 19.2814 135.574 20.5607C134.984 21.1682 134.52 21.8818 134.198 22.6528C134.059 22.3488 133.893 22.0396 133.693 21.7326C133.677 21.7065 133.659 21.6807 133.642 21.6549C132.423 19.8547 130.435 18.7957 128.342 18.8162C127.563 18.8248 126.805 18.9823 126.098 19.2694C125.074 18.6491 123.887 18.303 122.662 18.2879C120.723 18.2469 119.03 18.8814 117.799 20.0171C116.133 20.6522 114.835 21.9592 114.182 23.5941C114.18 23.5946 114.178 23.5951 114.176 23.5958C113.27 23.1769 112.274 22.978 111.265 23.0368C110.558 23.0775 109.873 23.2452 109.233 23.5191C108.183 22.9676 107.009 22.7109 105.81 22.797C105.236 22.8383 104.68 22.9556 104.149 23.1427C103.177 22.9003 102.159 22.8232 101.139 22.9253C99.8063 23.0594 98.5386 23.4955 97.4232 24.1783C96.1459 23.1784 94.5877 22.6814 92.9821 22.797C92.4086 22.8381 91.8514 22.9556 91.321 23.1427C90.3481 22.9004 89.3303 22.8234 88.3118 22.9253C87.6684 22.9901 87.0403 23.1259 86.4368 23.3246C86.3777 23.2143 86.3161 23.1052 86.2504 22.998C86.2407 22.9823 86.2311 22.9666 86.2215 22.9511C85.1877 21.2988 83.7339 20.0251 82.0171 19.2672C82.0103 19.2641 82.0038 19.2612 81.9971 19.2583C79.4333 18.1396 76.7407 18.031 74.2094 18.944C70.6317 20.2226 68.9014 22.5886 68.0794 24.3494C68.0751 24.3587 68.0706 24.368 68.0663 24.3776C67.9679 24.592 67.8805 24.8073 67.7983 25.0231C67.9122 23.4362 67.4068 21.847 66.3916 20.6317C64.4804 18.3443 61.3057 17.7571 58.764 19.0802C58.3827 18.4293 57.8788 17.8436 57.2689 17.3568C55.8572 16.2362 54.0488 15.7787 52.3057 16.1009C50.4976 16.4335 49.0152 17.4973 48.1228 18.9546C48.1214 18.9539 48.1198 18.9533 48.1181 18.9528C48.1168 18.9522 48.1157 18.9519 48.1146 18.9515C48.1145 18.9515 48.1143 18.9513 48.1141 18.9513C47.2684 18.6293 46.348 18.5264 45.4493 18.6542C44.5916 18.7758 43.7665 19.1069 43.0603 19.6131C43.0162 19.6448 42.9723 19.6772 42.929 19.7103C40.7818 21.3538 39.7215 23.7486 39.2587 25.1279C39.1973 25.0707 39.1362 25.0132 39.0723 24.9581C36.8514 23.0395 33.9517 21.7354 30.9071 21.2866C27.3156 20.7573 23.8761 21.5072 21.2223 23.3982C18.3386 25.4523 16.5171 28.4923 16.0929 31.9583C15.6492 35.5857 16.8084 39.3173 19.2726 42.1972C16.2885 44.1439 15.4083 47.9909 17.2431 51.2305C17.3553 51.4278 17.6967 52.0277 18.5571 53.0145C18.5747 53.0347 18.5924 53.0549 18.6101 53.0746C18.8685 53.3628 19.1548 53.6186 19.4616 53.8441C19.8109 54.3925 20.247 54.902 20.7697 55.3538C22.9906 57.2724 25.8905 58.5763 28.9352 59.0251C29.6867 59.1358 30.4316 59.1905 31.164 59.1905C33.9317 59.1905 36.5217 58.4088 38.6198 56.9137C38.9786 56.6581 39.3205 56.3872 39.6457 56.1023C39.983 58.5357 41.487 60.5578 43.6645 61.5104C44.5427 61.8964 45.4743 62.0846 46.4 62.0845C46.8078 62.0845 47.2144 62.0475 47.6149 61.9752L110.413 63.3093C110.485 63.3083 110.556 63.3076 110.628 63.3044C114.478 63.124 116.695 61.2238 117.877 59.6616C118.115 59.3463 118.324 59.0278 118.506 58.713C119.048 58.8297 119.599 58.8962 120.153 58.9027C120.186 58.9031 120.219 58.9033 120.252 58.9033C120.685 58.9033 121.111 58.8691 121.529 58.8032C121.846 59.8091 122.403 60.7343 123.168 61.4818C124.366 62.6537 125.992 63.3113 127.665 63.3113C127.764 63.3113 127.864 63.3089 127.964 63.3044C129.734 63.2213 131.154 62.773 132.292 62.1633C133.371 62.9008 134.667 63.3101 135.994 63.3101C139.599 63.3101 142.71 61.4108 144.526 58.0995C145.679 55.9987 146.042 53.8764 146.197 52.9703L146.213 52.8793C146.215 52.8674 146.217 52.8552 146.218 52.8432C146.449 51.4606 146.579 50.1572 146.676 49.0618C146.767 48.1336 146.767 47.2733 146.767 46.5132C146.767 46.4693 146.766 46.4252 146.765 46.3813C146.729 44.9619 146.238 43.6585 145.435 42.6122C146.082 41.8795 146.576 40.9966 146.86 40.0051C147.056 39.3353 147.154 38.6494 147.159 37.9123C147.182 36.5989 147.182 35.2764 147.182 33.9972C147.182 32.7326 147.182 31.4256 147.159 30.1383Z" fill="white"/>
<path d="M74.1598 48.0128C74.1088 48.3197 74.2622 48.524 74.4834 48.7285C74.8075 48.9842 75.1479 49.0865 75.54 49.0184C76.6137 48.8309 77.295 48.1831 77.6359 47.1779C77.8404 46.5986 77.8746 46.0019 77.7724 45.3888C77.721 45.0647 77.6359 44.741 77.4825 44.4515C77.1589 43.838 76.767 43.7187 76.1707 44.0423C75.6933 44.2982 75.3527 44.69 75.0288 45.0989C74.4834 45.7806 74.0233 46.4963 74.1598 47.4166C74.1766 47.4506 74.1598 47.4676 74.1598 47.4845C74.1598 47.6549 74.1939 47.8427 74.1598 48.0128ZM74.1256 54.4957C74.1256 54.7171 74.1256 54.9389 74.0916 55.1433C74.0233 55.7053 73.5802 56.0464 73.0522 56.0122C72.5409 55.978 72.1321 55.5694 72.1147 55.024C72.1147 54.0355 72.1321 50.4499 72.1321 49.4444C72.1321 49.2738 72.1488 49.1036 72.1488 48.9332V43.6164C72.1488 43.1735 72.2513 42.7475 72.4048 42.3555C72.5239 42.0656 72.7456 41.8613 73.0693 41.8443C73.3929 41.8103 73.6314 41.9804 73.7677 42.2703C73.9381 42.6109 74.0574 42.969 74.2108 43.3268C74.228 43.3097 74.2622 43.2585 74.3131 43.1904C74.7561 42.6792 75.2503 42.2191 75.9148 41.9804C77.1589 41.5376 78.3855 42.2022 78.9993 43.0712C79.4935 43.7528 79.6978 44.5025 79.8003 45.3034C79.9365 46.4963 79.749 47.621 79.1698 48.6775C78.403 50.0579 77.193 50.8246 75.6253 51.0289C75.1993 51.0973 74.7733 51.0289 74.3641 50.9098C74.2959 50.8927 74.228 50.8756 74.1256 50.8416V54.4957Z" fill="#314196"/>
<path d="M85.4917 48.916C85.7813 48.916 85.7986 48.899 85.8154 48.6091C85.8325 48.2687 85.8154 47.9446 85.5598 47.7061C85.27 47.4334 84.7588 47.4166 84.418 47.6551C83.9239 47.9446 83.7366 48.4388 83.5491 48.916H85.4917ZM85.662 51.6766C85.9519 51.6256 86.2582 51.5574 86.5312 51.4723C87.2127 51.2847 87.8091 51.6766 87.8263 52.3243C87.8263 52.7843 87.6045 53.1591 87.2127 53.3297C86.8036 53.5 86.3949 53.602 85.9519 53.6703C85.1849 53.7726 84.4353 53.7045 83.7024 53.4658C82.3051 53.0228 81.2827 51.6766 81.2485 50.2111C81.1975 48.9842 81.4189 47.8254 82.1348 46.8031C82.9354 45.6272 84.4861 45.0646 85.8154 45.4057C86.7867 45.6614 87.3489 46.3429 87.6557 47.2459C87.9456 48.0639 87.9114 48.8818 87.5878 49.6828C87.2298 50.62 86.5141 51.0289 85.5427 51.0461C84.9975 51.063 84.4694 51.0461 83.9239 51.0461C84.4011 51.5063 84.9464 51.8131 85.662 51.6766Z" fill="#314196"/>
<path d="M92.4268 51.0292C92.8358 51.3873 93.2788 51.3873 93.6709 51.0122C94.046 50.6543 94.1479 50.1941 94.2674 49.7174C94.3528 49.3424 94.2503 49.0354 94.0627 48.7118C94.0118 48.6267 93.9776 48.5242 93.9092 48.4391C93.6881 47.9621 93.2788 47.7572 92.7849 47.6552C92.461 47.6039 92.359 47.6552 92.2055 47.9449C91.9496 48.4049 91.8647 48.8993 91.8647 49.3763C91.8473 50.1433 92.0348 50.6714 92.4268 51.0292ZM93.6199 53.6021C92.2735 53.9771 91.166 53.5001 90.3139 52.4436C89.6836 51.7109 89.4278 50.8077 89.4109 49.8192C89.3936 49.0696 89.4961 48.2857 89.8027 47.5529C90.2286 46.5476 90.8933 45.7636 92.0009 45.457C92.87 45.2183 93.7223 45.2865 94.5061 45.7809C94.523 45.7978 94.5569 45.8151 94.5739 45.8151C94.5911 45.8319 94.6081 45.8151 94.6421 45.8319C94.6594 45.7295 94.6594 45.6443 94.6763 45.5424C94.6932 44.8437 94.6932 44.145 94.7615 43.4633C94.7956 43.1224 94.9319 42.7645 95.0683 42.4409C95.1874 42.134 95.4431 41.9126 95.8351 41.9126C96.193 41.9297 96.4146 42.1511 96.5506 42.4409C96.8575 43.0713 96.9257 43.719 96.9257 44.3834C96.9426 45.7127 96.9085 47.0417 96.9085 48.3709C96.9085 49.1378 96.9426 49.9215 96.9426 50.6714C96.9257 51.336 96.8915 51.9664 96.8405 52.6139C96.8063 53.0741 96.4996 53.4491 96.0736 53.5684C95.6306 53.6876 95.2216 53.5343 94.9319 53.1422C94.9148 53.1083 94.8808 53.0741 94.8808 53.0911C94.4546 53.2616 94.046 53.483 93.6199 53.6021Z" fill="#314196"/>
<path d="M102.531 50.9781C103.213 50.6373 103.844 50.0581 103.81 49.2912C103.622 45.8488 100.641 47.2461 100.794 49.785C100.811 50.8419 101.714 51.4041 102.531 50.9781ZM102.447 53.415C100.555 53.5854 99.2428 52.5629 98.8 50.9611C98.4931 49.8534 98.6465 48.7458 99.0726 47.7235C99.2942 47.1952 99.5667 46.6668 99.8904 46.2237C100.777 45.0139 102.583 44.8096 103.725 45.8488C103.81 45.9511 103.912 46.0362 104.031 46.1386C104.116 45.9681 104.184 45.7808 104.27 45.6274C104.679 44.9799 105.361 44.9287 105.855 45.5082C106.11 45.7977 106.263 46.1386 106.281 46.5306C106.315 47.3654 106.315 48.2005 106.332 49.0355V52.3587C106.315 52.5458 106.297 52.6991 106.247 52.8697C106.127 53.3636 105.701 53.6706 105.19 53.7217C104.73 53.7387 104.304 53.4321 104.116 52.989C104.1 52.9376 104.082 52.8866 104.048 52.8016C103.554 53.1082 103.026 53.3636 102.447 53.415Z" fill="#314196"/>
<path d="M112.858 49.2911V49.0013C112.841 48.1664 112.96 48.1664 112.006 47.9789H111.989C111.614 47.945 111.256 47.9106 110.967 48.2174C110.524 48.7457 110.302 49.3763 110.336 50.0748C110.371 50.6371 110.592 50.927 111.086 51.0632C111.733 51.2167 112.432 50.9952 112.79 50.4838C112.807 50.45 112.824 50.3475 112.824 50.3135C112.841 49.9724 112.858 49.6489 112.892 49.2911H112.858ZM110.455 53.3298C109.178 52.9889 108.428 52.1197 108.121 50.8247C107.746 49.2569 108.462 47.1782 109.757 46.2069C110.677 45.525 111.699 45.4398 112.756 45.7466C112.909 45.7976 113.012 45.7976 113.113 45.6615C113.557 45.2183 114.256 45.2523 114.647 45.7466C114.903 46.0535 115.005 46.4113 115.057 46.8032C115.193 48.2004 115.21 49.632 115.125 51.0462C115.057 51.9492 115.053 52.8524 114.798 53.7386C114.507 54.7268 114.188 57.9023 110.383 58.0807C109.667 58.1142 109.105 57.5354 109.121 56.8367C109.155 56.3425 109.559 55.8312 110.144 55.7462C112.359 55.4239 112.373 53.9612 112.381 53.4149C111.699 53.5512 111.069 53.5001 110.455 53.3298Z" fill="#314196"/>
<path d="M130.195 49.2911V49.0013C130.177 48.1664 130.297 48.1664 129.343 47.9789H129.325C128.951 47.945 128.592 47.9106 128.303 48.2174C127.86 48.7457 127.638 49.3763 127.672 50.0748C127.706 50.6371 127.928 50.927 128.423 51.0632C129.07 51.2167 129.769 50.9952 130.126 50.4838C130.143 50.45 130.16 50.3475 130.16 50.3135C130.177 49.9724 130.195 49.6489 130.229 49.2911H130.195ZM127.792 53.3298C126.513 52.9889 125.764 52.1197 125.457 50.8247C125.083 49.2569 125.798 47.1782 127.093 46.2069C128.013 45.525 129.036 45.4398 130.092 45.7466C130.245 45.7976 130.348 45.7976 130.45 45.6615C130.893 45.2183 131.591 45.2523 131.984 45.7466C132.239 46.0535 132.342 46.4113 132.392 46.8032C132.529 48.2004 132.546 49.632 132.461 51.0462C132.392 51.9492 132.39 52.8524 132.133 53.7386C131.844 54.7268 131.524 57.9023 127.719 58.0807C127.004 58.1142 126.441 57.5354 126.458 56.8367C126.492 56.3425 126.895 55.8312 127.48 55.7462C129.696 55.4239 129.71 53.9612 129.717 53.4149C129.036 53.5512 128.405 53.5001 127.792 53.3298Z" fill="#314196"/>
<path d="M119.675 47.8767C119.316 48.4728 119.095 49.1034 119.061 49.8022C119.044 50.279 119.163 50.7052 119.487 51.0801C119.93 51.5915 120.543 51.5573 120.918 50.9949C120.97 50.9095 121.038 50.8074 121.071 50.7052C121.328 50.143 121.446 49.5462 121.412 48.95C121.396 48.6603 121.293 48.3876 121.191 48.1152C120.97 47.5526 120.288 47.3313 119.845 47.6378C119.777 47.7401 119.709 47.8083 119.675 47.8767ZM118.413 45.8999C118.72 45.5931 119.095 45.3546 119.538 45.2862C120.833 45.0986 122.521 45.218 123.321 47.6207C123.662 48.5749 123.696 49.5635 123.475 50.5348C123.287 51.3188 122.963 52.0343 122.435 52.6478C120.986 54.3007 118.789 53.7385 117.749 52.4945C117.152 51.7615 116.812 50.7904 116.829 49.5977C116.931 48.3706 117.34 46.9904 118.413 45.8999Z" fill="#314196"/>
<path d="M140.447 45.3546C139.867 45.3374 139.373 45.7806 139.288 46.428C139.237 46.7178 139.237 47.0073 139.186 47.2972C138.981 48.3877 138.64 49.4442 138.13 50.4324C137.959 50.7563 137.72 51.0462 137.465 51.3189C137.226 51.5232 137.021 51.4722 136.868 51.1823C136.732 50.9438 136.63 50.6542 136.561 50.3984C136.323 49.5296 136.323 47.9105 136.34 47.0415C136.34 46.5303 136.17 46.0873 135.88 45.6783C135.573 45.2181 135.028 45.1671 134.671 45.559C134.346 45.9168 134.125 46.3086 134.108 46.7862C134.057 47.9617 134.091 49.8531 134.38 50.9778C134.602 51.7788 134.892 52.5114 135.505 53.0567C136.119 53.5683 136.766 53.8577 137.55 53.6874C137.823 53.636 138.078 53.551 138.368 53.4659C138.255 53.7265 138.08 55.0379 135.756 55.7459C135.19 55.9183 134.767 56.3423 134.733 56.8367C134.716 57.5352 135.278 58.0805 135.994 58.0805C140.132 58.0805 140.858 53.1517 141.06 51.9834C141.248 50.8586 141.367 49.7337 141.469 48.5751C141.537 47.8936 141.537 47.2118 141.537 46.5132C141.52 45.8486 141.043 45.3715 140.447 45.3546Z" fill="#314196"/>
<path d="M72.4463 36.9248C72.2138 36.5764 72.0748 36.2046 72.1442 35.7862C72.3532 34.7872 73.4691 34.3685 74.259 34.9962C74.4682 35.1355 74.6307 35.3447 74.793 35.5306C75.3509 36.1815 75.9782 36.7388 76.8385 36.9715C77.3261 37.1108 77.8608 37.2735 78.372 37.1108C79.3712 36.8318 79.7662 36.0186 79.3943 35.0657C79.069 34.2525 78.5113 33.602 77.7443 33.207C77.0009 32.8352 76.2574 32.533 75.4905 32.2078C74.8632 31.9287 74.259 31.6036 73.7475 31.1619C72.3533 29.9306 72.0281 28.2805 72.8181 26.5611C73.4691 25.1667 74.6075 24.3531 75.9782 23.8653C77.3261 23.3775 78.6277 23.4936 79.9053 24.0511C80.6955 24.3999 81.3229 24.9809 81.788 25.7244C82.0435 26.1426 82.0897 26.6074 81.9971 27.0723C81.8111 27.8855 80.9279 28.2805 80.2311 27.8391C79.9754 27.6994 79.7427 27.5368 79.5802 27.3276C78.7203 26.0496 77.1169 26.1194 76.0249 26.8863C75.5601 27.2348 75.2116 27.6531 75.165 28.2573C75.165 28.4433 75.2116 28.6988 75.3509 28.8148C75.6065 29.0707 75.8856 29.3263 76.2107 29.4889C76.8848 29.8375 77.5818 30.0928 78.2558 30.395C79.2319 30.8136 80.0914 31.3711 80.8119 32.1843C81.6253 33.114 82.1593 34.2062 82.2525 35.4607C82.369 37.041 81.7179 38.3189 80.4169 39.202C79.6963 39.69 78.8832 39.9459 78.0929 39.9459C75.6533 39.8761 73.8174 38.8537 72.4463 36.9248Z" fill="#314196"/>
<path d="M89.9449 36.0184C90.8741 35.5536 91.7342 34.7635 91.6873 33.7181C91.4318 29.0238 87.3655 30.9294 87.5747 34.3921C87.5978 35.8324 88.8292 36.5994 89.9449 36.0184ZM89.8284 39.3416C87.249 39.5739 85.4597 38.1795 84.8557 35.9953C84.4376 34.4849 84.6466 32.9743 85.2276 31.5799C85.5292 30.8597 85.9013 30.1393 86.3426 29.5354C87.551 27.8853 90.0144 27.6065 91.5715 29.0238C91.6873 29.1633 91.8268 29.2796 91.9895 29.4189C92.1053 29.1865 92.1987 28.9312 92.315 28.7218C92.8723 27.839 93.8021 27.7694 94.4757 28.5594C94.8244 28.9544 95.0334 29.4189 95.0565 29.9536C95.1036 31.0921 95.1036 32.2308 95.1268 33.3693V37.9006C95.1036 38.1564 95.0797 38.3655 95.0102 38.5979C94.8475 39.2717 94.2667 39.6899 93.5697 39.7598C92.9426 39.7829 92.3613 39.3647 92.1053 38.7605C92.0821 38.6909 92.059 38.621 92.0126 38.5049C91.3391 38.923 90.6184 39.2717 89.8284 39.3416Z" fill="#314196"/>
<path d="M102.773 36.0184C103.702 35.5536 104.562 34.7635 104.515 33.7181C104.26 29.0238 100.193 30.9294 100.403 34.3921C100.426 35.8324 101.657 36.5994 102.773 36.0184ZM102.657 39.3416C100.077 39.5739 98.2877 38.1795 97.6835 35.9953C97.2653 34.4849 97.4745 32.9743 98.0553 31.5799C98.3572 30.8597 98.7292 30.1393 99.1706 29.5354C100.379 27.8853 102.842 27.6065 104.399 29.0238C104.515 29.1633 104.655 29.2796 104.818 29.4189C104.933 29.1865 105.027 28.9312 105.143 28.7218C105.7 27.839 106.629 27.7694 107.303 28.5594C107.653 28.9544 107.861 29.4189 107.884 29.9536C107.931 31.0921 107.931 32.2308 107.955 33.3693V37.9006C107.931 38.1564 107.908 38.3655 107.838 38.5979C107.676 39.2717 107.095 39.6899 106.398 39.7598C105.77 39.7829 105.189 39.3647 104.933 38.7605C104.91 38.6909 104.887 38.621 104.841 38.5049C104.167 38.923 103.446 39.2717 102.657 39.3416Z" fill="#314196"/>
<path d="M115.484 28.6759C116.064 28.4435 116.693 28.3968 117.32 28.5366C118.087 28.6759 118.644 29.3497 118.598 30.0932C118.552 30.9064 117.947 31.5805 117.134 31.5573C116.134 31.5341 115.484 32.0684 114.973 32.8353C114.415 33.6254 113.903 34.4852 113.393 35.2986C113.323 35.4147 113.3 35.5541 113.3 35.6705C113.3 36.3676 113.323 37.0647 113.3 37.7618C113.276 38.0639 113.23 38.389 113.137 38.668C112.951 39.2954 112.416 39.6904 111.835 39.6904C111.278 39.6904 110.72 39.3419 110.535 38.7375C110.395 38.2032 110.372 37.6688 110.301 37.111C110.278 37.0181 110.278 36.9018 110.278 36.8089C110.278 34.8569 110.232 32.9283 110.232 30.9762C110.232 30.2327 110.325 29.5357 110.72 28.8619C111.162 28.0948 111.952 28.0485 112.486 28.7689C112.626 28.9546 112.719 29.1638 112.812 29.3961C112.928 29.675 112.997 29.9771 113.114 30.2791C113.788 29.5589 114.554 29.001 115.484 28.6759Z" fill="#314196"/>
<path d="M124.901 24.8413C124.599 24.8182 124.32 24.8182 123.995 24.8182C124.065 24.0513 123.298 23.5168 122.578 23.5168C121.764 23.4936 121.068 23.7028 120.927 24.8413C120.602 24.8881 120.254 24.795 119.905 24.8413C118.627 25.0272 118.603 27.1186 119.975 27.1653C120.278 27.1653 120.649 27.1418 120.998 27.1653V27.3976C120.998 29.4291 121.053 35.0838 121.061 38.2396C121.064 39.0927 121.755 39.7831 122.608 39.7831C123.468 39.7831 124.162 39.0845 124.155 38.2252C124.133 35.4518 124.085 30.071 124.065 28.8384C124.042 28.1643 124.042 27.8623 124.042 27.1653H124.901C126.063 27.0954 126.156 24.9343 124.901 24.8413Z" fill="#314196"/>
<path d="M132.146 28.4665C133.447 28.3503 134.493 28.8383 135.283 29.8607C135.91 30.6738 136.189 31.6499 136.375 32.6259C136.678 34.5082 136.607 36.3672 136.468 38.2495C136.398 39.1788 135.677 39.8062 134.841 39.7367C133.982 39.69 133.355 38.9698 133.378 37.9938C133.401 36.7388 133.447 35.4842 133.424 34.2062C133.401 33.4391 133.308 32.6491 132.959 31.9752C132.75 31.5337 132.564 31.4641 132.099 31.6036C131.705 31.7893 131.309 32.022 131.031 32.3471C130.077 33.4856 130.077 33.4856 130.077 34.9727C130.101 35.8793 130.101 36.8088 130.077 37.6918C130.077 37.9706 130.054 38.2259 130.031 38.4586C129.915 39.2487 129.334 39.7599 128.614 39.7599C127.893 39.7367 127.29 39.1788 127.243 38.3888C127.173 37.2501 127.08 36.1347 127.057 34.9962C127.033 32.4862 126.987 30 127.01 27.4904C127.01 26.7003 127.173 25.9569 127.29 25.1668C127.313 24.9809 127.406 24.7719 127.521 24.5858C127.987 23.8653 128.823 23.8653 129.31 24.5858C129.613 25.0503 129.683 25.6082 129.729 26.1425C129.822 27.0954 129.892 28.0714 129.962 29.024C129.962 29.0938 129.962 29.1635 129.985 29.2796C130.658 28.7916 131.356 28.5364 132.146 28.4665Z" fill="#314196"/>
<path d="M141.907 25.2131C141.907 26.073 141.256 26.7235 140.419 26.7235C139.583 26.7703 138.909 26.0963 138.909 25.2599C138.885 24.4463 139.559 23.7491 140.396 23.7491C141.232 23.7259 141.884 24.4 141.907 25.2131ZM141.93 37.8546C141.93 38.0868 141.907 38.3192 141.837 38.5517C141.65 39.2253 141.023 39.667 140.35 39.6439C139.676 39.6203 139.071 39.1323 138.932 38.4351C138.885 38.2496 138.862 38.0403 138.862 37.8546C138.862 35.2984 138.839 32.7189 138.862 30.1628C138.862 29.8375 138.932 29.512 139.071 29.2099C139.35 28.5594 139.954 28.2343 140.582 28.3038C141.186 28.3502 141.743 28.8848 141.884 29.5587C141.93 29.7678 141.93 29.9768 141.93 30.186C141.953 31.4409 141.953 32.7189 141.953 33.9972C141.953 35.2984 141.953 36.5764 141.93 37.8546Z" fill="#314196"/>
<path d="M24.6729 47.5137L23.9641 47.9397C23.6364 48.1361 23.3604 48.4243 23.1621 48.7726L22.6551 49.6642L22.6724 49.685C22.6085 49.6693 22.5499 49.6347 22.5051 49.5848C22.4843 49.5608 21.9928 49.0038 21.7875 48.6432C21.2494 47.6929 21.5893 46.9083 22.1635 46.5531C22.2946 46.4721 22.4448 46.4375 22.6034 46.4375C23.3638 46.4375 24.3521 47.224 24.6815 47.5067L24.6729 47.5137Z" fill="#314196"/>
<path d="M37.5986 33.6654C37.5503 33.7965 37.4536 33.8931 37.3245 33.9343C37.0467 34.024 36.7725 33.8361 36.2757 33.4964C35.8964 33.2361 35.4222 32.9118 34.8618 32.646C34.8374 32.6358 34.8168 32.6222 34.7979 32.6065L35.8724 32.2047C36.3119 32.0391 36.676 31.7217 36.8985 31.3079L37.1674 30.813C37.19 30.8456 37.2055 30.8835 37.2139 30.9233C37.4589 31.984 37.7245 33.3205 37.5986 33.6654Z" fill="#314196"/>
<path d="M36.5926 41.5101C36.1112 40.9481 34.78 39.9183 34.0139 39.6343C32.9932 39.2562 31.8666 38.9805 30.7639 38.7482C28.2934 38.2277 25.9603 37.7359 24.8476 35.4689C24.3104 34.3747 24.2585 33.1119 24.7045 32.0039C25.12 30.972 25.9234 30.1948 26.9664 29.815C28.8419 29.1334 31.7372 29.7617 33.4218 31.2176C34.2347 31.92 35.2497 31.6329 35.7921 31.0052C36.2618 30.4619 36.4187 29.5761 35.6537 28.9153C32.793 26.444 27.622 25.2593 24.2564 27.6574C22.5828 28.8497 21.5272 30.6027 21.2837 32.5933C21.0175 34.7695 21.734 37.0325 23.2496 38.8018C23.7308 39.3638 24.2779 39.8017 24.8678 40.1561H24.7966C25.1298 40.3557 25.4741 40.532 25.8282 40.6775C26.8351 41.0912 27.9756 41.3313 29.0784 41.5636C31.5487 42.084 33.882 42.5759 34.9948 44.8429C35.5317 45.937 35.5836 47.1997 35.1379 48.3078C34.7221 49.3397 33.919 50.117 32.8757 50.4969C31.0004 51.1783 28.1049 50.55 26.4203 49.0943C25.6077 48.3917 24.5924 48.6789 24.05 49.3067C23.5805 49.85 23.4235 50.7355 24.1885 51.3966C27.0491 53.8679 32.2202 55.0525 35.5857 52.6543C37.2595 51.4621 38.3149 49.7091 38.5585 47.7186C38.8248 45.5424 38.1084 43.2793 36.5926 41.5101Z" fill="#42A3CA"/>
<path d="M50.0103 26.7225C49.4774 26.9545 49.1358 27.4035 49.0732 27.9543C49.0058 28.5484 49.2791 29.1834 49.7532 29.5336C50.186 29.8536 50.7349 29.9062 51.2597 29.6772C52.8626 28.9804 55.7976 28.1868 57.4411 30.71C58.0521 31.6485 58.2708 32.7157 58.1297 34.0677C57.7366 37.826 55.1471 40.3276 51.0244 40.9312C50.0035 41.0806 49.5875 41.9642 49.704 42.76C49.8003 43.4208 50.2749 44.0333 51.0278 44.1182C51.1656 44.1338 51.3131 44.1316 51.4693 44.1088C53.9878 43.74 57.4208 42.6694 59.4737 39.662C60.5273 38.1179 61.1741 36.2002 61.344 34.1159C61.5357 31.7676 60.8821 29.6794 59.4545 28.076C57.2587 25.6111 53.7273 25.1047 50.0103 26.7225Z" fill="#D3559E"/>
<path d="M52.83 23.9825C52.9826 24.1043 53.1645 24.1793 53.3459 24.1999C53.4299 24.2093 53.5136 24.207 53.5946 24.1924C54.1079 24.0979 54.4366 23.6712 54.413 23.1301L54.3678 22.1031C54.3569 21.8582 54.2293 21.6216 54.0177 21.4528C53.7939 21.275 53.5081 21.196 53.2536 21.2436C52.74 21.3373 52.4112 21.7643 52.4352 22.3057L52.48 23.3326C52.491 23.5769 52.6186 23.8141 52.83 23.9825Z" fill="#D3559E"/>
<path d="M62.208 25.3581C62.4153 25.1981 62.5512 24.9508 62.5809 24.6804C62.609 24.4213 62.5372 24.1744 62.3785 23.9844C62.0324 23.5702 61.437 23.4967 61.0232 23.816C60.6336 24.1169 60.2787 24.4658 59.9687 24.852C59.807 25.0531 59.7356 25.3236 59.7731 25.5936C59.8094 25.8544 59.9459 26.0863 60.1476 26.2298C60.2964 26.3353 60.4613 26.3964 60.627 26.4151C60.9511 26.4517 61.279 26.3263 61.4975 26.0539C61.7338 25.7597 61.9065 25.5907 62.208 25.3581Z" fill="#D3559E"/>
<path d="M65.9911 30.9747C65.8273 30.7704 65.5982 30.653 65.3539 30.6247C64.8767 30.5831 64.4183 30.6058 63.9912 30.6927C63.4597 30.8012 63.112 31.2709 63.1825 31.7851C63.2182 32.0445 63.3732 32.2945 63.5977 32.4535C63.7321 32.5492 63.8812 32.6069 64.0336 32.624C64.1221 32.6339 64.212 32.6304 64.3005 32.6122H64.3007C64.615 32.5482 64.855 32.5317 65.1285 32.5561C65.6637 32.6029 66.1368 32.2352 66.2056 31.718C66.24 31.4581 66.1619 31.187 65.9911 30.9747Z" fill="#D3559E"/>
<path d="M62.7527 36.947C62.2464 36.7666 61.6958 36.9973 61.4959 37.4709C61.3932 37.7148 61.3979 38.0004 61.5092 38.254C61.6142 38.4925 61.7991 38.6697 62.0303 38.7525C62.3374 38.8621 62.5426 38.9891 62.7875 39.2203C62.9195 39.3448 63.088 39.4207 63.2741 39.4417C63.3338 39.4484 63.3956 39.4497 63.458 39.4446C63.7428 39.4229 64.0113 39.2835 64.177 39.0704C64.4952 38.661 64.4349 38.1088 64.0306 37.7272C63.6701 37.3871 63.2284 37.1173 62.7527 36.947Z" fill="#D3559E"/>
<path d="M59.4012 43.2536C59.045 42.7562 58.4706 42.7742 58.0879 43.0491C57.6954 43.3304 57.4768 43.9061 57.8445 44.419L58.8524 45.8248C59.0142 46.0502 59.2406 46.1867 59.492 46.2149C59.5534 46.222 59.6163 46.2224 59.6804 46.2162C60.0349 46.1811 60.3615 45.9433 60.5123 45.6105C60.6544 45.2961 60.6171 44.9492 60.4092 44.6596L59.4012 43.2536Z" fill="#D3559E"/>
<path d="M52.1344 45.1637C51.8551 45.1392 51.5507 45.2421 51.3399 45.4327C51.1595 45.5951 51.058 45.8114 51.0545 46.0411L51.0467 46.5884C51.0435 46.7945 51.0644 47.0368 51.2413 47.2675C51.3948 47.4684 51.6445 47.6132 51.8826 47.64C51.8886 47.6407 51.895 47.6415 51.901 47.6423C52.1805 47.6664 52.4848 47.5631 52.6958 47.3726C52.8759 47.2097 52.9769 46.9937 52.9801 46.7646L52.9883 46.217C52.9915 46.0113 52.9706 45.7693 52.7929 45.5374C52.6347 45.3316 52.3699 45.19 52.1344 45.1637Z" fill="#D3559E"/>
<path d="M47.1355 27.3033C46.8992 27.0239 46.3801 26.6756 45.7505 26.579C44.9557 26.4565 44.4417 26.6307 44.1986 27.0463C44.1726 27.0032 44.1659 26.948 44.1813 26.8963C44.2088 26.8169 44.7917 24.8699 46.1077 23.8628C46.1318 23.8455 46.1578 23.8353 46.1835 23.8317C46.2076 23.8284 46.2319 23.83 46.2543 23.8386C46.3042 23.8577 46.3473 23.8989 46.3646 23.9559C46.3905 24.0301 46.9665 25.7477 47.1355 27.3033Z" fill="#314196"/>
<path d="M47.6516 51.611C47.0404 46.584 46.711 41.7279 46.6835 36.9176C46.6715 34.5473 46.7116 32.7316 46.8567 31.0215C46.8621 30.972 46.8649 30.9234 46.8701 30.874C46.9357 30.2244 47.0535 28.8604 46.4558 28.1291C46.2171 27.8362 45.8982 27.6816 45.5112 27.6714C45.432 27.6691 45.3584 27.6711 45.2859 27.6747C43.8478 27.7657 43.7853 29.0879 43.7449 29.7321C43.6595 31.2772 43.4747 34.1856 43.4764 36.5223C43.4891 41.594 43.8248 46.6968 44.4578 52.0081C44.4713 52.1245 44.4849 52.2408 44.4991 52.3575C45.3907 52.2645 46.2831 52.1638 47.1738 52.0553C47.3486 52.0356 47.5236 52.0174 47.6982 51.9978C47.6836 51.8686 47.668 51.7401 47.6516 51.611Z" fill="#314196"/>
<path d="M44.57 53.427C44.5783 53.4895 44.5851 53.5522 44.5933 53.6159C44.6596 54.1598 44.7341 54.7354 44.8247 55.3781C44.9112 56.0138 45.2453 56.4938 45.7687 56.7228C46.3287 56.969 47.014 56.8601 47.4753 56.4425C47.7735 56.1754 47.9599 55.8102 48.0107 55.3918C48.031 55.2214 48.0294 55.0417 48.0057 54.8551C47.9221 54.2583 47.852 53.7298 47.7925 53.2396C47.7843 53.1798 47.7783 53.1195 47.7701 53.0596C46.7047 53.1938 45.6367 53.3169 44.57 53.427Z" fill="#314196"/>
</g>
<g opacity="0.119995">
<g opacity="0.119995">
<path opacity="0.119995" d="M263 710.765L362.809 706.782L371.383 707.703L363.877 715.327L263 710.765Z" fill="black"/>
</g>
</g>
<path d="M263 710.765H278.978V694.804L263 710.765Z" fill="#E249D0"/>
<path d="M289.683 690.752L285.109 694.822V710.823L289.683 706.727V690.752Z" fill="#E8546D"/>
<path d="M315.263 690.752L310.694 694.825V710.823L315.263 706.727V690.752Z" fill="#BA1E1E"/>
<path d="M283.559 706.793V690.838H289.646C289.646 696.263 294.043 700.689 299.469 700.689C304.894 700.689 309.293 696.277 309.293 690.851H315.238V706.793H283.559Z" fill="#2A2A9E"/>
<path d="M279.024 710.779V694.822H285.109C285.109 700.247 289.51 704.672 294.936 704.672C300.362 704.672 304.761 700.25 304.761 694.825H310.694V710.779H279.024Z" fill="#4040C1"/>
<path d="M289.683 690.752L285.109 694.822V678.823L289.683 674.777V690.752Z" fill="#D63664"/>
<path d="M283.586 674.805L279.024 678.85H310.693L315.262 674.805H283.586Z" fill="#FF7795"/>
<path d="M315.263 690.752L310.694 694.825V678.85L315.263 674.805V690.752Z" fill="#6E2CA8"/>
<path d="M279.024 678.85V694.822H285.109C285.109 689.396 289.51 684.974 294.936 684.974C300.362 684.974 304.761 689.399 304.761 694.825H310.694V678.85H279.024Z" fill="#F4517C"/>
<path d="M321.368 690.753L316.794 694.825V710.824L321.368 706.729V690.753Z" fill="#E8546D"/>
<path d="M315.238 706.793V690.851H321.331C321.331 696.277 325.728 700.69 331.154 700.69C336.58 700.69 340.979 696.278 340.979 690.852H346.917V706.793H315.238Z" fill="#7229B2"/>
<path d="M346.946 690.753L342.385 694.824V710.824L346.946 706.729V690.753Z" fill="#7229B2"/>
<path d="M310.693 710.779V694.825H316.794C316.794 700.25 321.196 704.672 326.621 704.672C332.048 704.672 336.447 700.25 336.447 694.824H342.385V710.779H310.693Z" fill="#9A47D6"/>
<path d="M321.368 690.753L316.794 694.825V678.823L321.368 674.778V690.753Z" fill="#0486BF"/>
<path d="M315.263 674.805L310.694 678.85H342.385L346.946 674.805H315.263Z" fill="#30B6EC"/>
<path d="M346.946 690.754L342.385 694.824V678.85L346.946 674.805V690.754Z" fill="#0486BF"/>
<path d="M310.693 678.85V694.825H316.794C316.794 689.399 321.196 684.975 326.621 684.975C332.048 684.975 336.447 689.398 336.447 694.824H342.385V678.85H310.693Z" fill="#00A6E0"/>
<path d="M294.769 662.907L299.583 658.911H315.519L310.694 662.907H294.769Z" fill="#FFE744"/>
<path d="M310.693 678.85L315.519 674.825V658.911L310.693 662.907V678.85Z" fill="#FFC926"/>
<path d="M310.693 678.85H294.769V662.907H310.693V678.85Z" fill="#FFD400"/>
<path d="M310.693 662.907L315.519 658.911H331.452L326.619 662.907H310.693Z" fill="#FF9053"/>
<path d="M326.618 678.85L331.452 674.858V658.911L326.618 662.907V678.85Z" fill="#ED5E0F"/>
<path d="M326.619 678.85H310.693V662.907H326.619V678.85Z" fill="#FF7610"/>
<path d="M342.385 694.977L347.122 691.01L362.809 706.781L358.058 710.779L342.385 694.977Z" fill="#5252DD"/>
<path d="M358.058 710.779H342.385V694.977L358.058 710.779Z" fill="#4040C1"/>
<path d="M302.973 646.994L307.787 643H323.725L318.892 646.994H302.973Z" fill="#FF5AF3"/>
<path d="M318.892 662.913L323.725 658.919V643L318.892 646.994V662.913Z" fill="#BA35A1"/>
<path d="M318.892 662.914H302.973V646.995H318.892V662.914Z" fill="#E249D0"/>
<path d="M44 715.401L54.4827 706.709H89.1687L78.6505 715.401H44Z" fill="#FF9053"/>
<path d="M78.6502 750.066L89.1685 741.352V706.709L78.6502 715.401V750.066Z" fill="#ED5E0F"/>
<path d="M78.6506 750.066H44.0002V715.401H78.6506V750.066Z" fill="#FF7610"/>
</g>
</svg>
