<svg width="328" height="140" viewBox="0 0 328 140" fill="none" xmlns="http://www.w3.org/2000/svg">
<g opacity="0.2">
<path d="M100.368 47.015L86.9077 58.9924V11.9061L100.368 -1.52588e-05V47.015Z" fill="#D63664"/>
<path d="M82.4236 0.0833006L69.0002 12.0238H162.209L175.648 0.0833006H82.4236Z" fill="#FF7795"/>
<path d="M175.648 47.0147L162.209 58.9999V12.0236L175.648 0.0830803V47.0147Z" fill="#E53366"/>
<path d="M69 12.0236V58.9921H86.9073C86.9073 43.0233 99.8596 30.0108 115.828 30.0108C131.796 30.0108 144.742 43.0328 144.742 58.9999H162.209V12.0236H69Z" fill="#F4517C"/>
</g>
<g opacity="0.119995">
<g opacity="0.119995">
<path opacity="0.119995" d="M219 114.765L318.809 110.782L327.383 111.703L319.877 119.326L219 114.765Z" fill="black"/>
</g>
</g>
<path d="M219 114.765H234.978V98.8038L219 114.765Z" fill="#E249D0"/>
<path d="M245.683 94.7519L241.109 98.8216V114.823L245.683 110.727V94.7519Z" fill="#E8546D"/>
<path d="M271.263 94.7519L266.694 98.8247V114.823L271.263 110.727V94.7519Z" fill="#BA1E1E"/>
<path d="M239.559 110.793V94.8373H245.646C245.646 100.263 250.043 104.689 255.469 104.689C260.894 104.689 265.293 100.277 265.293 94.851H271.238V110.793H239.559Z" fill="#2A2A9E"/>
<path d="M235.024 114.779V98.8219H241.109C241.109 104.247 245.51 108.672 250.936 108.672C256.362 108.672 260.761 104.251 260.761 98.825H266.694V114.779H235.024Z" fill="#4040C1"/>
<path d="M245.683 94.7519L241.109 98.8215V82.8224L245.683 78.7765V94.7519Z" fill="#D63664"/>
<path d="M239.586 78.8049L235.024 82.8499H266.693L271.262 78.8049H239.586Z" fill="#FF7795"/>
<path d="M271.263 94.7522L266.694 98.825V82.8499L271.263 78.805V94.7522Z" fill="#6E2CA8"/>
<path d="M235.024 82.8499V98.8219H241.109C241.109 93.3963 245.51 88.9745 250.936 88.9745C256.362 88.9745 260.761 93.3994 260.761 98.825H266.694V82.8499H235.024Z" fill="#F4517C"/>
<path d="M277.368 94.7532L272.794 98.825V114.824L277.368 110.729V94.7532Z" fill="#E8546D"/>
<path d="M271.238 110.793V94.851H277.331C277.331 100.277 281.728 104.69 287.154 104.69C292.58 104.69 296.979 100.278 296.979 94.8517H302.917V110.793H271.238Z" fill="#7229B2"/>
<path d="M302.946 94.7532L298.385 98.8239V114.824L302.946 110.729V94.7532Z" fill="#7229B2"/>
<path d="M266.693 114.779V98.825H272.794C272.794 104.251 277.196 108.672 282.621 108.672C288.048 108.672 292.447 104.25 292.447 98.824H298.385V114.779H266.693Z" fill="#9A47D6"/>
<path d="M277.368 94.7532L272.794 98.825V82.8234L277.368 78.7782V94.7532Z" fill="#0486BF"/>
<path d="M271.263 78.8049L266.694 82.8499H298.385L302.946 78.8049H271.263Z" fill="#30B6EC"/>
<path d="M302.946 94.7535L298.385 98.8242V82.8502L302.946 78.8053V94.7535Z" fill="#0486BF"/>
<path d="M266.693 82.8499V98.825H272.794C272.794 93.3994 277.196 88.9752 282.621 88.9752C288.048 88.9752 292.447 93.398 292.447 98.8239H298.385V82.8499H266.693Z" fill="#00A6E0"/>
<path d="M250.769 66.9066L255.583 62.9112H271.519L266.694 66.9066H250.769Z" fill="#FFE744"/>
<path d="M266.693 82.8499L271.519 78.8249V62.9114L266.693 66.9068V82.8499Z" fill="#FFC926"/>
<path d="M266.693 82.8499H250.769V66.9068H266.693V82.8499Z" fill="#FFD400"/>
<path d="M266.693 66.9066L271.519 62.9112H287.452L282.619 66.9066H266.693Z" fill="#FF9053"/>
<path d="M282.618 82.8499L287.452 78.8582V62.9114L282.618 66.9068V82.8499Z" fill="#ED5E0F"/>
<path d="M282.619 82.8499H266.693V66.9068H282.619V82.8499Z" fill="#FF7610"/>
<path d="M298.385 98.9773L303.122 95.0098L318.809 110.782L314.058 114.779L298.385 98.9773Z" fill="#5252DD"/>
<path d="M314.058 114.779H298.385V98.9773L314.058 114.779Z" fill="#4040C1"/>
<path d="M258.973 50.9943L263.787 47.0002H279.725L274.892 50.9943H258.973Z" fill="#FF5AF3"/>
<path d="M274.892 66.9127L279.725 62.9187V47L274.892 50.9941V66.9127Z" fill="#BA35A1"/>
<path d="M274.892 66.9133H258.973V50.9947H274.892V66.9133Z" fill="#E249D0"/>
<path d="M0 119.401L10.4827 110.709H45.1687L34.6505 119.401H0Z" fill="#FF9053"/>
<path d="M34.6502 154.066L45.1685 145.352V110.709L34.6502 119.401V154.066Z" fill="#ED5E0F"/>
<path d="M34.6506 154.066H0.000154495V119.401H34.6506V154.066Z" fill="#FF7610"/>
</svg>
