<svg width="22" height="22" viewBox="0 0 22 22" fill="none" xmlns="http://www.w3.org/2000/svg">
    <defs>
        <linearGradient id="paint0_linear_10443_31522" x1="11" y1="18.0898" x2="11" y2="3.91016"
            gradientUnits="userSpaceOnUse">
            <stop stop-color="#5558FF" />
            <stop offset="1" stop-color="#00C0FF" />
        </linearGradient>
        <linearGradient id="paint1_linear_10443_31522" x1="11" y1="16.8008" x2="11" y2="5.19922"
            gradientUnits="userSpaceOnUse">
            <stop stop-color="#ADDCFF" />
            <stop offset="0.5028" stop-color="#EAF6FF" />
            <stop offset="1" stop-color="#EAF6FF" />
        </linearGradient>
    </defs>
    <path
        d="M21.9525 10.7572C21.0949 8.64596 18.8705 6.2089 16.147 4.97466C14.5883 4.2683 12.8565 3.91016 11 3.91016C9.1434 3.91016 7.41171 4.2683 5.85298 4.97471C3.11926 6.21354 0.902892 8.65421 0.0474697 10.7572C-0.0158232 10.9129 -0.0158232 11.0871 0.0474697 11.2428C0.908306 13.3591 3.1325 15.7924 5.85298 17.0253C7.41171 17.7317 9.1434 18.0898 11 18.0898C12.8565 18.0898 14.5883 17.7317 16.147 17.0253C18.8753 15.7889 21.0969 13.3494 21.9525 11.2428C22.0158 11.0871 22.0158 10.9129 21.9525 10.7572Z"
        fill="url(#paint0_linear_10443_31522)" />
    <path
        d="M11 5.19922C7.80145 5.19922 5.19922 7.80145 5.19922 11C5.19922 14.1986 7.80145 16.8008 11 16.8008C14.1986 16.8008 16.8008 14.1986 16.8008 11C16.8008 7.80145 14.1986 5.19922 11 5.19922ZM11 14.2227C9.22303 14.2227 7.77734 12.777 7.77734 11C7.77734 9.22303 9.22303 7.77734 11 7.77734C11.3372 7.77734 11.53 7.89731 11.6483 8.07177C11.7626 8.24033 11.7905 8.45303 11.7235 8.64536C11.6704 8.79794 11.6445 8.93565 11.6445 9.06641C11.6445 9.7772 12.2228 10.3555 12.9336 10.3555C13.0643 10.3555 13.202 10.3296 13.3546 10.2765C13.5469 10.2096 13.7594 10.2374 13.9279 10.3516C14.1021 10.4694 14.2227 10.6621 14.2227 11C14.2227 12.777 12.777 14.2227 11 14.2227Z"
        fill="url(#paint1_linear_10443_31522)" />

</svg>
