<svg width="23" height="22" viewBox="0 0 23 22" fill="none" xmlns="http://www.w3.org/2000/svg">

    <defs>
        <linearGradient id="paint0_linear_10446_35204" x1="11.2143" y1="18.0898" x2="11.2143"
            y2="3.91016" gradientUnits="userSpaceOnUse">
            <stop stop-color="#5558FF" />
            <stop offset="1" stop-color="#00C0FF" />
        </linearGradient>
        <linearGradient id="paint1_linear_10446_35204" x1="11.2144" y1="22.0001" x2="11.2144"
            y2="0.00012207" gradientUnits="userSpaceOnUse">
            <stop stop-color="#A3D8FF" />
            <stop offset="1" stop-color="#D6EEFF" />
        </linearGradient>
        <clipPath id="clip0_10446_35204">
            <rect width="22" height="22" fill="white" transform="translate(0.214355)" />
        </clipPath>
    </defs>
    <g clip-path="url(#clip0_10446_35204)">
        <path
            d="M11.2143 18.0898C9.81104 18.0898 8.35981 17.7291 6.90098 17.0175C5.7553 16.4588 4.60155 15.6828 3.47169 14.7113C1.56147 13.0689 0.384812 11.4447 0.335656 11.3764C0.173922 11.1515 0.173922 10.8484 0.335656 10.6236C0.384812 10.5553 1.56151 8.9311 3.47169 7.28862C4.60155 6.31714 5.7553 5.54121 6.90098 4.98244C8.35981 4.27096 9.81104 3.91016 11.2143 3.91016C12.6176 3.91016 14.0688 4.27092 15.5276 4.98248C16.6733 5.54125 17.8271 6.31718 18.9569 7.28866C20.8672 8.93114 22.0438 10.5553 22.093 10.6236C22.2547 10.8485 22.2547 11.1516 22.093 11.3764C22.0438 11.4447 20.8671 13.0689 18.9569 14.7114C17.8271 15.6829 16.6733 16.4588 15.5276 17.0176C14.0688 17.7291 12.6176 18.0898 11.2143 18.0898V18.0898Z"
            fill="url(#paint0_linear_10446_35204)" />
        <path
            d="M11.2143 15.5118C8.72657 15.5118 6.70262 13.4879 6.70262 11.0001C6.70262 8.51234 8.72657 6.48838 11.2143 6.48838C13.7021 6.48838 15.7261 8.51234 15.7261 11.0001C15.7261 13.4879 13.7021 15.5118 11.2143 15.5118ZM22.0256 21.8113C22.2773 21.5596 22.2773 21.1516 22.0256 20.8998L1.31463 0.188905C1.06292 -0.0628057 0.65485 -0.0628057 0.403139 0.188905C0.151428 0.440616 0.151428 0.84869 0.403139 1.1004L21.1141 21.8113C21.3657 22.0631 21.7739 22.0631 22.0256 21.8113Z"
            fill="url(#paint1_linear_10446_35204)" />
    </g>
</svg>
