<svg width="94" height="64" viewBox="0 0 94 64" fill="none" xmlns="http://www.w3.org/2000/svg">
<path d="M0 63.8207H15.0485V48.7887L0 63.8207Z" fill="#E249D0"/>
<path d="M25.1301 44.9729L20.8221 48.8057V63.8756L25.1301 60.0182V44.9729Z" fill="#E8546D"/>
<path d="M49.2207 44.9729L44.9176 48.8086V63.8756L49.2207 60.0182V44.9729Z" fill="#BA1E1E"/>
<path d="M19.3625 60.08V45.0532H25.0948C25.0948 50.163 29.2359 54.3316 34.346 54.3316C39.4561 54.3316 43.5988 50.1762 43.5988 45.0661H49.1976V60.08H19.3625Z" fill="#2A2A9E"/>
<path d="M15.0918 63.8343V48.8055H20.8221C20.8221 53.9153 24.9674 58.082 30.0772 58.082C35.1876 58.082 39.3303 53.9182 39.3303 48.8084H44.9178V63.8343H15.0918Z" fill="#4040C1"/>
<path d="M25.1301 44.973L20.8221 48.8058V33.7378L25.1301 29.9274V44.973Z" fill="#D63664"/>
<path d="M19.3876 29.9537L15.0917 33.7632H44.9177L49.2207 29.9537H19.3876Z" fill="#FF7795"/>
<path d="M49.2207 44.9728L44.9176 48.8085V33.7632L49.2207 29.9537V44.9728Z" fill="#6E2CA8"/>
<path d="M15.0918 33.7632V48.8056H20.8221C20.8221 43.6958 24.9674 39.5314 30.0772 39.5314C35.1876 39.5314 39.3303 43.6987 39.3303 48.8085H44.9178V33.7632H15.0918Z" fill="#F4517C"/>
<path d="M54.9714 44.9738L50.6635 48.8086V63.8766L54.9714 60.0195V44.9738Z" fill="#E8546D"/>
<path d="M49.1976 60.08V45.0661H54.9363C54.9363 50.1762 59.0775 54.3323 64.1872 54.3323C69.2976 54.3323 73.4404 50.1772 73.4404 45.0668H79.0333V60.08H49.1976Z" fill="#7229B2"/>
<path d="M79.0599 44.9738L74.7646 48.8076V63.8766L79.0599 60.0195V44.9738Z" fill="#7229B2"/>
<path d="M44.9176 63.8343V48.8084H50.6634C50.6634 53.9182 54.8088 58.0826 59.9185 58.0826C65.0293 58.0826 69.172 53.9175 69.172 48.8075H74.7647V63.8343H44.9176Z" fill="#9A47D6"/>
<path d="M54.9714 44.9737L50.6635 48.8085V33.7383L54.9714 29.9284V44.9737Z" fill="#0486BF"/>
<path d="M49.2207 29.9537L44.9176 33.7632H74.7647L79.0599 29.9537H49.2207Z" fill="#30B6EC"/>
<path d="M79.0599 44.9738L74.7646 48.8076V33.7633L79.0599 29.9538V44.9738Z" fill="#0486BF"/>
<path d="M44.9176 33.7632V48.8085H50.6634C50.6634 43.6987 54.8088 39.532 59.9185 39.532C65.0293 39.532 69.172 43.6974 69.172 48.8075H74.7647V33.7632H44.9176Z" fill="#00A6E0"/>
<path d="M29.9199 18.748L34.4539 14.9852H49.4626L44.9179 18.748H29.9199Z" fill="#FFE744"/>
<path d="M44.9176 33.763L49.4622 29.9723V14.985L44.9176 18.7478V33.763Z" fill="#FFC926"/>
<path d="M44.9176 33.7632H29.9196V18.7481H44.9176V33.7632Z" fill="#FFD400"/>
<path d="M44.9176 18.748L49.4622 14.9852H64.468L59.9159 18.748H44.9176Z" fill="#FF9053"/>
<path d="M59.9159 33.763L64.4683 30.0037V14.985L59.9159 18.7478V33.763Z" fill="#ED5E0F"/>
<path d="M59.9159 33.7632H44.9176V18.7481H59.9159V33.7632Z" fill="#FF7610"/>
<path d="M74.7646 48.9519L79.2264 45.2153L94 60.0692L89.5253 63.8343L74.7646 48.9519Z" fill="#5252DD"/>
<path d="M89.5254 63.8343H74.7648V48.9519L89.5254 63.8343Z" fill="#4040C1"/>
<path d="M37.6461 3.76169L42.1801 0.000121593H57.191L52.6386 3.76169H37.6461Z" fill="#FF5AF3"/>
<path d="M52.6387 18.7538L57.1911 14.9922V5.72205e-06L52.6387 3.76157V18.7538Z" fill="#BA35A1"/>
<path d="M52.6386 18.754H37.6461V3.76179H52.6386V18.754Z" fill="#E249D0"/>
</svg>
