<svg width="395" height="147" viewBox="0 0 395 147" fill="none" xmlns="http://www.w3.org/2000/svg">
<path d="M92.2178 157.276L19.486 98.5006L27.5328 66.647L94.516 122.336L92.2178 157.276Z" fill="#7BB5E2"/>
<path d="M23.2402 76.6199L19.4874 98.5006L11.9047 106.083L20.5496 74.1722L23.2402 76.6199Z" fill="#6996CE"/>
<path d="M26.8692 69.2713L19.4855 98.4992L13.6515 104.333L21.1903 76.5039L26.8692 69.2713Z" fill="#DBECF9"/>
<path d="M92.2177 157.276L19.486 98.5003L11.9033 106.083L83.4376 164.186L92.2177 157.276Z" fill="#6996CE"/>
<path d="M34.9968 110.847L40.8019 77.6801L39.0854 76.2551L33.2176 109.777L26.0606 117.49L26.7985 118.184L27.5873 118.827L34.9968 110.847Z" fill="#437BC1"/>
<path d="M82.2203 149.352L85.9204 115.187L84.204 113.762L80.4411 148.287L73.2842 155.994L74.022 156.693L74.8108 157.336L82.2203 149.352Z" fill="#A073B2"/>
<path d="M270.993 111.731C271.667 112.127 271.888 112.996 271.491 113.666C271.093 114.335 270.224 114.56 269.55 114.161L270.993 111.731ZM263.539 111.373L264.531 108.727L265.094 108.924L266.609 109.527L268.099 110.195L269.561 110.93L270.993 111.731L269.55 114.161L268.231 113.424L266.879 112.746L265.502 112.127L264.098 111.568L263.539 111.373ZM263.539 111.373C262.806 111.098 262.434 110.284 262.71 109.555C262.984 108.824 263.8 108.453 264.531 108.727L263.539 111.373ZM257.644 106.951C258.413 107.099 258.912 107.843 258.762 108.608C258.611 109.375 257.867 109.873 257.098 109.722L257.644 106.951ZM250.51 109.212V106.387L250.729 106.383L252.359 106.411L253.987 106.504L255.608 106.659L257.225 106.877L257.644 106.951L257.098 109.722L256.787 109.667L255.283 109.466L253.772 109.32L252.253 109.233L250.731 109.208L250.51 109.212ZM250.51 109.212C249.728 109.212 249.095 108.58 249.093 107.798C249.093 107.019 249.728 106.387 250.51 106.387V109.212ZM243.44 107.012C244.213 106.896 244.936 107.426 245.055 108.197C245.174 108.966 244.643 109.689 243.869 109.807L243.44 107.012ZM237.418 111.483L236.568 108.788L237.883 108.347L239.447 107.892L241.028 107.491L242.624 107.154L243.44 107.012L243.869 109.807L243.157 109.928L241.668 110.244L240.193 110.614L238.733 111.042L237.418 111.483ZM237.418 111.483C236.672 111.716 235.877 111.303 235.641 110.559C235.407 109.816 235.822 109.023 236.568 108.788L237.418 111.483ZM230.042 111.735C230.728 111.36 231.591 111.608 231.967 112.293C232.345 112.975 232.094 113.833 231.41 114.21L230.042 111.735ZM225.961 117.992L224.193 115.784L224.978 115.132L226.278 114.144L227.615 113.214L228.992 112.341L230.042 111.735L231.41 114.21L230.46 114.757L229.185 115.566L227.946 116.426L226.746 117.34L225.961 117.992ZM225.961 117.992C225.349 118.48 224.457 118.38 223.97 117.77C223.481 117.162 223.581 116.274 224.193 115.784L225.961 117.992ZM219.191 120.957C219.673 120.34 220.564 120.234 221.178 120.715C221.794 121.196 221.9 122.084 221.418 122.698L219.191 120.957ZM218.417 128.309L215.736 127.406L215.846 127.063L216.001 126.624L216.167 126.19L216.343 125.762L216.53 125.338L216.726 124.921L216.932 124.506L217.147 124.097L217.37 123.694L217.601 123.294L217.842 122.9L218.088 122.512L218.345 122.128L218.607 121.749L218.876 121.376L219.151 121.007L219.191 120.957L221.418 122.698L221.41 122.713L221.163 123.041L220.923 123.374L220.691 123.709L220.466 124.048L220.249 124.391L220.037 124.737L219.835 125.084L219.641 125.436L219.457 125.79L219.278 126.146L219.108 126.506L218.951 126.868L218.8 127.23L218.66 127.597L218.53 127.968L218.417 128.309ZM218.417 128.309C218.169 129.048 217.366 129.445 216.624 129.195C215.882 128.947 215.485 128.146 215.736 127.406L218.417 128.309ZM215.289 134.899C215.147 134.129 215.657 133.394 216.426 133.252C217.196 133.112 217.933 133.619 218.075 134.386L215.289 134.899ZM220.904 139.583L218.917 141.596L218.706 141.397L218.366 141.05L218.043 140.687L217.735 140.31L217.446 139.924L217.172 139.524L216.915 139.115L216.673 138.698L216.45 138.27L216.239 137.833L216.048 137.39L215.872 136.939L215.71 136.483L215.566 136.022L215.438 135.553L215.328 135.083L215.289 134.899L218.075 134.386L218.094 134.479L218.184 134.856L218.286 135.229L218.4 135.598L218.528 135.96L218.666 136.316L218.817 136.666L218.981 137.007L219.157 137.337L219.342 137.662L219.542 137.975L219.75 138.278L219.969 138.573L220.2 138.857L220.441 139.126L220.693 139.384L220.904 139.583ZM220.904 139.583C221.461 140.128 221.469 141.022 220.921 141.579C220.373 142.134 219.474 142.143 218.917 141.596L220.904 139.583ZM226.801 143.524C226.1 143.868 225.252 143.579 224.905 142.882C224.559 142.181 224.848 141.336 225.549 140.992L226.801 143.524ZM227.103 138.609L229.876 139.183L229.835 139.363L229.791 139.543L229.742 139.721L229.689 139.899L229.629 140.077L229.565 140.253L229.497 140.427L229.423 140.6L229.347 140.772L229.264 140.942L229.177 141.109L229.085 141.274L228.987 141.439L228.885 141.6L228.777 141.759L228.667 141.914L228.548 142.067L228.424 142.217L228.297 142.361L228.165 142.503L228.025 142.643L227.88 142.776L227.732 142.906L227.576 143.031L227.415 143.149L227.249 143.264L227.077 143.372L226.901 143.471L226.801 143.524L225.549 140.992L225.543 140.995L225.619 140.95L225.696 140.903L225.77 140.85L225.842 140.797L225.915 140.738L225.987 140.677L226.059 140.611L226.127 140.543L226.195 140.469L226.263 140.393L226.327 140.312L226.391 140.23L226.454 140.145L226.512 140.056L226.571 139.965L226.627 139.869L226.68 139.774L226.733 139.674L226.782 139.575L226.826 139.471L226.871 139.367L226.913 139.261L226.952 139.153L226.988 139.047L227.02 138.939L227.052 138.829L227.077 138.717L227.103 138.609ZM227.103 138.609C227.26 137.844 228.01 137.354 228.777 137.513C229.542 137.67 230.035 138.42 229.876 139.183L227.103 138.609ZM227.103 136.445L229.908 136.053L229.963 136.386L230.014 136.844L230.042 137.303V137.772L230.014 138.242L229.959 138.71L229.876 139.183L227.103 138.609L227.158 138.301L227.192 137.996L227.209 137.691V137.386L227.192 137.081L227.158 136.776L227.103 136.445ZM227.103 136.445C226.994 135.674 227.534 134.96 228.307 134.85C229.081 134.742 229.799 135.28 229.908 136.053L227.103 136.445ZM225.645 129.523C226.267 129.996 226.386 130.883 225.913 131.504C225.439 132.123 224.55 132.244 223.928 131.771L225.645 129.523ZM221.594 130.523L222.534 127.858L222.961 128.019L223.382 128.197L223.798 128.389L224.202 128.599L224.601 128.826L224.99 129.067L225.369 129.324L225.645 129.523L223.928 131.771L223.739 131.633L223.447 131.438L223.15 131.252L222.848 131.08L222.542 130.921L222.23 130.775L221.913 130.642L221.594 130.523ZM221.594 130.523C220.857 130.265 220.468 129.459 220.727 128.724C220.987 127.987 221.796 127.601 222.534 127.858L221.594 130.523ZM218.247 129.875L218.464 127.059L218.709 127.074L219.136 127.114L219.565 127.163L219.992 127.224L220.417 127.298L220.844 127.383L221.269 127.483L221.692 127.593L222.115 127.72L222.534 127.858L221.594 130.523L221.261 130.413L220.923 130.313L220.585 130.224L220.243 130.142L219.897 130.074L219.55 130.015L219.197 129.962L218.845 129.924L218.49 129.89L218.247 129.875ZM218.247 129.875C217.468 129.815 216.883 129.135 216.945 128.36C217.004 127.58 217.684 127 218.464 127.059L218.247 129.875ZM211.203 127.862C211.964 127.678 212.731 128.146 212.911 128.902C213.094 129.661 212.627 130.424 211.866 130.608L211.203 127.862ZM209.977 131.138L209.144 128.438L209.537 128.317L209.934 128.201L210.334 128.091L210.735 127.983L211.139 127.877L211.203 127.862L211.866 130.608L211.836 130.614L211.462 130.712L211.09 130.813L210.716 130.917L210.347 131.025L209.977 131.138ZM209.977 131.138C209.231 131.366 208.438 130.947 208.207 130.203C207.977 129.457 208.396 128.667 209.144 128.438L209.977 131.138ZM205.552 132.746L204.477 130.133L204.841 129.974L206.972 129.159L209.144 128.438L209.977 131.138L207.928 131.816L205.914 132.589L205.552 132.746ZM205.552 132.746C204.828 133.042 204.001 132.697 203.704 131.975C203.408 131.254 203.755 130.428 204.477 130.133L205.552 132.746ZM198.159 133.295C198.837 132.907 199.704 133.142 200.091 133.82C200.48 134.496 200.244 135.358 199.564 135.746L198.159 133.295ZM194.015 139.507L192.315 137.248L193.019 136.7L194.863 135.377L196.761 134.129L198.159 133.295L199.564 135.746L198.27 136.522L196.47 137.704L194.717 138.96L194.015 139.507ZM194.015 139.507C193.389 139.975 192.5 139.85 192.033 139.225C191.563 138.602 191.691 137.717 192.315 137.248L194.015 139.507ZM187.018 141.893C187.585 141.355 188.48 141.374 189.019 141.94C189.561 142.501 189.54 143.395 188.975 143.935L187.018 141.893ZM184.508 148.942L182.326 147.141L183.169 146.084L184.657 144.361L186.206 142.7L187.018 141.893L188.975 143.935L188.242 144.664L186.767 146.245L185.352 147.883L184.508 148.942ZM184.508 148.942C184.009 149.544 183.116 149.629 182.513 149.129C181.911 148.633 181.826 147.743 182.326 147.141L184.508 148.942Z" fill="#FBCF0C"/>
<path d="M270.295 100.905L271.415 116.394L275.032 105.346L302.26 93.9298L270.295 100.905Z" fill="#FBCF0C"/>
<path d="M262.774 97.0315C262.774 97.0315 270.375 99.2542 270.307 101.083L301.928 93.8956C301.928 93.8956 283.583 90.4652 262.774 97.0315Z" fill="#42A4CB"/>
<path d="M271.311 116.747C271.277 117.27 281.76 110.644 281.76 110.644L274.698 105.311C274.698 105.311 271.61 112.153 271.311 116.747Z" fill="#2F4397"/>
<path d="M274.698 105.312C274.698 105.312 283.868 111.51 283.197 117.831L302.445 93.7943C302.445 93.7943 277.134 103.6 274.698 105.312Z" fill="#D3559F"/>
<path d="M262.391 99.9325C262.906 99.9643 263.09 99.9834 263.56 100.077C263.994 100.161 264.421 100.276 264.837 100.418C265.033 100.481 265.226 100.553 265.417 100.63C265.513 100.67 265.526 100.676 265.454 100.647C265.509 100.67 265.562 100.693 265.617 100.717C265.723 100.767 265.83 100.816 265.934 100.867C266.329 101.064 266.709 101.289 267.077 101.532C267.451 101.782 268.046 101.619 268.254 101.225C268.484 100.791 268.346 100.318 267.946 100.049C266.297 98.9494 264.368 98.3307 262.391 98.212C261.941 98.1866 261.509 98.6294 261.529 99.0723C261.55 99.5617 261.907 99.9029 262.391 99.9325Z" fill="#42A4CB"/>
<path d="M289.258 115.251C292.707 110.409 296.445 105.777 300.446 101.376C301.19 100.559 299.974 99.3402 299.228 100.162C295.129 104.671 291.304 109.422 287.77 114.384C287.126 115.289 288.62 116.147 289.258 115.251Z" fill="#FBCF0C"/>
<g opacity="0.4">
<path d="M417.078 18.0433L344.254 69.2071L349.444 100.478L416.6 51.8781L417.078 18.0433Z" fill="#958EC5"/>
<path d="M346.161 90.5492L344.253 69.2084L337.749 61.2863L343.446 92.7051L346.161 90.5492Z" fill="#7A72B4"/>
<path d="M349.013 97.9055L344.253 69.2068L339.251 63.1091L344.225 90.5064L349.013 97.9055Z" fill="#DAD2E8"/>
<path d="M417.078 18.0436L344.254 69.2074L337.749 61.2852L409.344 10.7189L417.078 18.0436Z" fill="#7A72B4"/>
<path d="M359.791 58.4614L362.744 90.8519L361.028 92.0969L358.036 59.3514L351.894 51.3874L352.637 50.7711L353.43 50.2107L359.791 58.4614Z" fill="#9A3E97"/>
<path d="M407.082 24.923L407.982 58.1236L406.261 59.3638L405.327 25.813L399.185 17.849L399.927 17.2328L400.721 16.6724L407.082 24.923Z" fill="#9A3E97"/>
<path d="M350.575 57.6875C349.764 56.6574 348.159 56.6254 346.987 57.6071C345.824 58.5912 345.53 60.221 346.343 61.2487C347.152 62.2763 348.759 62.3107 349.925 61.329C351.096 60.3425 351.383 58.7151 350.575 57.6875Z" fill="#9A3E97"/>
</g>
</svg>
