<svg width="704" height="254" viewBox="0 0 704 254" fill="none" xmlns="http://www.w3.org/2000/svg">
<path d="M703.074 76.3703C703.072 74.4963 703.035 71.2493 702.206 67.4053C701.841 65.6853 701.356 64.0103 700.765 62.3923C702.178 58.5263 702.95 54.3513 702.95 50.0003C702.95 49.7343 702.946 49.4683 702.938 49.2033C702.383 29.6753 686.396 14.1583 667.087 14.1583C666.881 14.1583 666.675 14.1603 666.468 14.1633C656.942 14.2703 647.695 18.2393 641.044 25.0893C637.885 28.3423 635.403 32.1633 633.68 36.2913C632.933 34.6633 632.044 33.0083 630.973 31.3643C630.883 31.2243 630.791 31.0863 630.697 30.9483C624.173 21.3093 613.529 15.6393 602.318 15.7493C598.15 15.7953 594.091 16.6383 590.311 18.1753C584.823 14.8543 578.468 13.0013 571.906 12.9203C561.524 12.7003 552.463 16.0983 545.875 22.1793C536.953 25.5793 530.004 32.5773 526.506 41.3313C526.495 41.3343 526.485 41.3363 526.474 41.3403C521.623 39.0973 516.29 38.0323 510.888 38.3473C507.099 38.5653 503.433 39.4633 500.008 40.9293C494.384 37.9763 488.098 36.6023 481.677 37.0633C478.607 37.2843 475.625 37.9123 472.786 38.9143C467.579 37.6163 462.129 37.2033 456.673 37.7503C449.534 38.4683 442.746 40.8033 436.774 44.4593C429.935 39.1053 421.592 36.4443 412.995 37.0633C409.924 37.2833 406.941 37.9123 404.101 38.9143C398.892 37.6173 393.442 37.2043 387.989 37.7503C384.544 38.0973 381.181 38.8243 377.95 39.8883C377.633 39.2973 377.303 38.7133 376.952 38.1393C376.9 38.0553 376.848 37.9713 376.797 37.8883C371.262 29.0413 363.478 22.2213 354.285 18.1633C354.249 18.1473 354.214 18.1313 354.178 18.1163C340.451 12.1263 326.034 11.5443 312.481 16.4333C293.325 23.2793 284.06 35.9473 279.659 45.3753C279.636 45.4253 279.612 45.4753 279.589 45.5263C279.062 46.6743 278.594 47.8273 278.154 48.9823C278.764 40.4853 276.058 31.9763 270.622 25.4693C260.389 13.2223 243.391 10.0783 229.782 17.1623C227.74 13.6773 225.042 10.5413 221.777 7.93529C214.218 1.93529 204.535 -0.514725 195.202 1.21028C185.521 2.99129 177.584 8.68729 172.806 16.4903C172.798 16.4863 172.79 16.4833 172.781 16.4803C172.774 16.4773 172.768 16.4753 172.762 16.4733C172.761 16.4733 172.76 16.4723 172.759 16.4723C168.231 14.7483 163.303 14.1973 158.491 14.8813C153.899 15.5323 149.481 17.3053 145.7 20.0153C145.464 20.1853 145.229 20.3593 144.997 20.5363C133.5 29.3363 127.823 42.1583 125.345 49.5433C125.016 49.2373 124.689 48.9293 124.347 48.6343C112.456 38.3613 96.9302 31.3793 80.6282 28.9763C61.3982 26.1423 42.9821 30.1573 28.7731 40.2823C13.3331 51.2803 3.58014 67.5573 1.30914 86.1153C-1.06686 105.537 5.14017 125.517 18.3342 140.937C2.35617 151.36 -2.35684 171.958 7.46716 189.304C8.06816 190.36 9.89617 193.572 14.5032 198.856C14.5972 198.964 14.6922 199.072 14.7872 199.178C16.1702 200.721 17.7031 202.09 19.3461 203.298C21.2161 206.234 23.5512 208.962 26.3502 211.381C38.2412 221.654 53.7681 228.635 70.0701 231.038C74.0941 231.631 78.0822 231.924 82.0042 231.924C96.8232 231.924 110.69 227.738 121.924 219.733C123.845 218.365 125.676 216.914 127.417 215.389C129.223 228.418 137.276 239.245 148.935 244.345C153.637 246.412 158.625 247.42 163.581 247.419C165.765 247.419 167.942 247.221 170.086 246.834L506.324 253.977C506.708 253.972 507.091 253.968 507.473 253.951C528.088 252.985 539.959 242.811 546.287 234.446C547.563 232.758 548.681 231.053 549.662 229.367C552.556 229.992 555.51 230.348 558.477 230.383C558.654 230.385 558.829 230.386 559.005 230.386C561.322 230.386 563.605 230.203 565.842 229.85C567.537 235.236 570.525 240.19 574.618 244.192C581.036 250.467 589.735 253.988 598.697 253.988C599.229 253.988 599.764 253.975 600.298 253.951C609.773 253.506 617.382 251.106 623.473 247.841C629.246 251.79 636.189 253.981 643.294 253.981C662.596 253.981 679.248 243.812 688.976 226.082C695.148 214.834 697.093 203.471 697.922 198.619L698.006 198.132C698.017 198.068 698.028 198.003 698.039 197.939C699.273 190.536 699.97 183.557 700.487 177.692C700.973 172.722 700.973 168.116 700.973 164.046C700.973 163.811 700.97 163.575 700.965 163.34C700.773 155.74 698.142 148.761 693.842 143.159C697.307 139.236 699.953 134.509 701.471 129.2C702.522 125.614 703.047 121.941 703.073 117.994C703.198 110.962 703.198 103.881 703.198 97.0323C703.198 90.2613 703.198 83.2633 703.074 76.3703Z" fill="white"/>
<path d="M312.215 172.076C311.942 173.719 312.763 174.813 313.948 175.908C315.683 177.277 317.506 177.825 319.605 177.46C325.354 176.456 329.002 172.988 330.827 167.606C331.922 164.504 332.105 161.309 331.558 158.026C331.283 156.291 330.827 154.558 330.006 153.008C328.273 149.723 326.175 149.084 322.982 150.817C320.426 152.187 318.602 154.285 316.868 156.474C313.948 160.124 311.484 163.956 312.215 168.884C312.305 169.066 312.215 169.157 312.215 169.247C312.215 170.16 312.398 171.165 312.215 172.076ZM312.032 206.787C312.032 207.973 312.032 209.16 311.85 210.255C311.484 213.264 309.112 215.09 306.285 214.907C303.547 214.724 301.358 212.536 301.265 209.616C301.265 204.323 301.358 185.125 301.358 179.741C301.358 178.828 301.448 177.916 301.448 177.004V148.536C301.448 146.165 301.996 143.884 302.818 141.785C303.456 140.233 304.643 139.139 306.376 139.048C308.109 138.866 309.386 139.777 310.116 141.329C311.028 143.153 311.667 145.07 312.488 146.986C312.58 146.894 312.763 146.62 313.036 146.255C315.408 143.518 318.054 141.055 321.612 139.777C328.273 137.406 334.841 140.964 338.127 145.617C340.773 149.267 341.867 153.281 342.416 157.569C343.145 163.956 342.141 169.978 339.04 175.635C334.934 183.026 328.456 187.131 320.062 188.225C317.781 188.591 315.5 188.225 313.309 187.587C312.944 187.496 312.58 187.404 312.032 187.222V206.787Z" fill="#314196"/>
<path d="M372.89 176.912C374.441 176.912 374.533 176.821 374.623 175.269C374.715 173.446 374.623 171.711 373.255 170.434C371.703 168.974 368.966 168.884 367.141 170.161C364.496 171.711 363.493 174.357 362.489 176.912H372.89ZM373.802 191.693C375.354 191.42 376.994 191.055 378.456 190.599C382.105 189.595 385.298 191.693 385.39 195.161C385.39 197.624 384.203 199.631 382.105 200.544C379.914 201.456 377.726 202.002 375.354 202.368C371.247 202.916 367.234 202.551 363.31 201.273C355.828 198.901 350.354 191.693 350.171 183.846C349.898 177.277 351.083 171.073 354.916 165.599C359.203 159.303 367.506 156.291 374.623 158.117C379.824 159.486 382.834 163.135 384.477 167.97C386.029 172.35 385.846 176.729 384.113 181.018C382.196 186.036 378.364 188.225 373.163 188.317C370.244 188.408 367.416 188.317 364.496 188.317C367.051 190.781 369.97 192.424 373.802 191.693Z" fill="#314196"/>
<path d="M410.022 188.225C412.212 190.142 414.584 190.142 416.683 188.134C418.691 186.218 419.237 183.754 419.877 181.201C420.334 179.193 419.785 177.55 418.781 175.817C418.508 175.361 418.325 174.813 417.959 174.357C416.775 171.803 414.584 170.706 411.939 170.16C410.205 169.885 409.659 170.16 408.837 171.711C407.467 174.174 407.012 176.821 407.012 179.375C406.919 183.482 407.923 186.309 410.022 188.225ZM416.41 202.001C409.201 204.009 403.271 201.455 398.709 195.798C395.334 191.875 393.964 187.039 393.874 181.746C393.781 177.733 394.33 173.536 395.972 169.612C398.252 164.229 401.811 160.032 407.741 158.39C412.395 157.112 416.958 157.477 421.155 160.124C421.245 160.215 421.427 160.307 421.518 160.307C421.61 160.397 421.701 160.307 421.883 160.397C421.976 159.849 421.976 159.393 422.066 158.847C422.157 155.106 422.157 151.365 422.522 147.715C422.705 145.89 423.435 143.974 424.165 142.241C424.803 140.598 426.172 139.412 428.271 139.412C430.187 139.504 431.374 140.689 432.102 142.241C433.745 145.616 434.11 149.084 434.11 152.642C434.201 159.759 434.018 166.875 434.018 173.992C434.018 178.098 434.201 182.294 434.201 186.309C434.11 189.868 433.927 193.243 433.654 196.71C433.471 199.174 431.829 201.182 429.548 201.821C427.176 202.459 424.986 201.638 423.435 199.539C423.343 199.357 423.161 199.174 423.161 199.265C420.879 200.178 418.691 201.363 416.41 202.001Z" fill="#314196"/>
<path d="M464.127 187.952C467.775 186.127 471.153 183.026 470.97 178.92C469.966 160.488 453.999 167.97 454.82 181.564C454.912 187.223 459.747 190.233 464.127 187.952ZM463.671 201C453.543 201.912 446.517 196.437 444.146 187.861C442.503 181.93 443.324 176 445.605 170.526C446.792 167.697 448.251 164.868 449.984 162.496C454.73 156.018 464.4 154.924 470.515 160.488C470.97 161.036 471.517 161.492 472.155 162.04C472.612 161.127 472.977 160.124 473.434 159.303C475.623 155.836 479.273 155.562 481.918 158.665C483.287 160.215 484.108 162.04 484.199 164.139C484.382 168.609 484.382 173.08 484.473 177.551V195.344C484.382 196.346 484.291 197.167 484.017 198.08C483.378 200.725 481.097 202.368 478.36 202.642C475.897 202.733 473.615 201.091 472.612 198.719C472.521 198.444 472.43 198.171 472.247 197.715C469.601 199.357 466.773 200.725 463.671 201Z" fill="#314196"/>
<path d="M519.418 178.92V177.368C519.326 172.898 519.964 172.898 514.856 171.894H514.764C512.758 171.712 510.84 171.528 509.29 173.171C506.918 176 505.731 179.376 505.914 183.116C506.097 186.127 507.281 187.679 509.928 188.408C513.396 189.23 517.137 188.044 519.053 185.306C519.144 185.125 519.235 184.576 519.235 184.394C519.326 182.568 519.418 180.836 519.599 178.92H519.418ZM506.553 200.544C499.709 198.719 495.695 194.065 494.053 187.131C492.045 178.737 495.878 167.607 502.812 162.406C507.739 158.755 513.213 158.299 518.87 159.942C519.691 160.215 520.239 160.215 520.785 159.486C523.159 157.113 526.898 157.295 528.998 159.942C530.366 161.585 530.914 163.501 531.188 165.599C531.918 173.08 532.009 180.745 531.553 188.317C531.188 193.152 531.169 197.988 529.801 202.733C528.249 208.024 526.537 225.027 506.164 225.982C502.334 226.161 499.321 223.062 499.411 219.321C499.594 216.675 501.753 213.937 504.886 213.482C516.747 211.757 516.82 203.925 516.862 201C513.213 201.73 509.838 201.456 506.553 200.544Z" fill="#314196"/>
<path d="M612.241 178.92V177.368C612.149 172.898 612.788 172.898 607.679 171.894H607.587C605.581 171.712 603.663 171.528 602.113 173.171C599.741 176 598.554 179.376 598.737 183.116C598.92 186.127 600.105 187.679 602.752 188.408C606.22 189.23 609.96 188.044 611.876 185.306C611.967 185.125 612.058 184.576 612.058 184.394C612.149 182.568 612.241 180.836 612.423 178.92H612.241ZM599.376 200.544C592.533 198.719 588.518 194.065 586.876 187.131C584.868 178.737 588.701 167.607 595.636 162.406C600.562 158.755 606.037 158.299 611.693 159.942C612.514 160.215 613.062 160.215 613.609 159.486C615.982 157.113 619.721 157.295 621.821 159.942C623.189 161.585 623.737 163.501 624.011 165.599C624.741 173.08 624.832 180.745 624.376 188.317C624.011 193.152 623.992 197.988 622.624 202.733C621.072 208.024 619.361 225.027 598.988 225.982C595.158 226.161 592.144 223.062 592.235 219.321C592.418 216.675 594.576 213.937 597.709 213.482C609.571 211.757 609.643 203.925 609.685 201C606.037 201.73 602.661 201.456 599.376 200.544Z" fill="#314196"/>
<path d="M555.912 171.348C553.996 174.54 552.811 177.916 552.629 181.658C552.536 184.211 553.175 186.493 554.91 188.5C557.281 191.238 560.566 191.055 562.572 188.044C562.848 187.587 563.213 187.04 563.393 186.493C564.764 183.483 565.402 180.287 565.219 177.095C565.129 175.544 564.581 174.084 564.032 172.625C562.848 169.613 559.197 168.428 556.825 170.069C556.46 170.617 556.095 170.982 555.912 171.348ZM549.161 160.764C550.804 159.121 552.811 157.844 555.183 157.478C562.117 156.474 571.15 157.113 575.438 169.978C577.264 175.087 577.446 180.38 576.26 185.58C575.255 189.778 573.522 193.609 570.693 196.894C562.938 205.744 551.169 202.734 545.602 196.073C542.41 192.149 540.585 186.949 540.675 180.563C541.224 173.993 543.414 166.603 549.161 160.764Z" fill="#314196"/>
<path d="M667.135 157.843C664.032 157.751 661.386 160.124 660.93 163.59C660.656 165.142 660.656 166.692 660.384 168.244C659.287 174.083 657.464 179.74 654.727 185.031C653.814 186.765 652.536 188.317 651.169 189.777C649.89 190.871 648.795 190.598 647.974 189.046C647.245 187.769 646.698 186.218 646.331 184.849C645.055 180.197 645.055 171.528 645.147 166.875C645.147 164.138 644.234 161.766 642.683 159.576C641.04 157.112 638.12 156.839 636.205 158.937C634.47 160.853 633.285 162.951 633.194 165.508C632.92 171.802 633.103 181.929 634.653 187.951C635.84 192.24 637.39 196.162 640.675 199.082C643.96 201.821 647.428 203.371 651.624 202.459C653.084 202.184 654.452 201.729 656.004 201.273C655.399 202.668 654.46 209.69 642.015 213.481C638.987 214.404 636.724 216.674 636.541 219.321C636.45 223.061 639.46 225.981 643.294 225.981C665.447 225.981 669.332 199.591 670.42 193.335C671.424 187.313 672.063 181.29 672.609 175.086C672.974 171.437 672.974 167.787 672.974 164.046C672.884 160.488 670.327 157.933 667.135 157.843Z" fill="#314196"/>
<path d="M303.04 112.708C301.795 110.843 301.051 108.852 301.423 106.612C302.542 101.263 308.516 99.0208 312.746 102.382C313.866 103.128 314.736 104.248 315.605 105.243C318.592 108.728 321.951 111.712 326.557 112.958C329.168 113.704 332.031 114.575 334.768 113.704C340.118 112.21 342.233 107.856 340.242 102.754C338.5 98.3998 335.514 94.9168 331.407 92.8018C327.427 90.8108 323.446 89.1928 319.34 87.4518C315.981 85.9578 312.746 84.2168 310.007 81.8518C302.542 75.2588 300.801 66.4238 305.031 57.2178C308.516 49.7518 314.612 45.3958 321.951 42.7838C329.168 40.1718 336.137 40.7938 342.978 43.7788C347.209 45.6458 350.568 48.7568 353.058 52.7378C354.426 54.9768 354.674 57.4658 354.178 59.9548C353.182 64.3088 348.453 66.4238 344.722 64.0608C343.353 63.3128 342.107 62.4418 341.237 61.3218C336.633 54.4788 328.048 54.8528 322.201 58.9588C319.712 60.8248 317.846 63.0648 317.597 66.2998C317.597 67.2958 317.846 68.6638 318.592 69.2848C319.961 70.6548 321.455 72.0238 323.196 72.8938C326.805 74.7608 330.537 76.1278 334.146 77.7458C339.372 79.9868 343.974 82.9718 347.832 87.3258C352.187 92.3038 355.046 98.1518 355.545 104.869C356.169 113.33 352.683 120.173 345.717 124.901C341.859 127.514 337.505 128.884 333.274 128.884C320.211 128.51 310.381 123.036 303.04 112.708Z" fill="#314196"/>
<path d="M396.733 107.856C401.708 105.367 406.313 101.137 406.062 95.5387C404.694 70.4047 382.922 80.6077 384.042 99.1477C384.166 106.86 390.759 110.967 396.733 107.856ZM396.109 125.649C382.298 126.893 372.718 119.427 369.484 107.732C367.245 99.6447 368.364 91.5567 371.475 84.0907C373.09 80.2347 375.082 76.3777 377.445 73.1437C383.915 64.3087 397.105 62.8157 405.442 70.4047C406.062 71.1517 406.809 71.7737 407.68 72.5197C408.3 71.2757 408.8 69.9087 409.423 68.7877C412.407 64.0607 417.385 63.6877 420.992 67.9177C422.859 70.0327 423.978 72.5197 424.102 75.3827C424.354 81.4787 424.354 87.5757 424.478 93.6717V117.934C424.354 119.303 424.226 120.423 423.854 121.667C422.983 125.275 419.873 127.514 416.141 127.888C412.783 128.012 409.671 125.773 408.3 122.538C408.176 122.165 408.052 121.791 407.804 121.169C404.198 123.408 400.339 125.275 396.109 125.649Z" fill="#314196"/>
<path d="M465.417 107.856C470.392 105.367 474.998 101.137 474.746 95.5387C473.379 70.4047 451.606 80.6077 452.727 99.1477C452.851 106.86 459.444 110.967 465.417 107.856ZM464.794 125.649C450.983 126.893 441.403 119.427 438.168 107.732C435.929 99.6447 437.049 91.5567 440.159 84.0907C441.775 80.2347 443.767 76.3777 446.13 73.1437C452.599 64.3087 465.79 62.8157 474.126 70.4047C474.746 71.1517 475.494 71.7737 476.365 72.5197C476.985 71.2757 477.485 69.9087 478.108 68.7877C481.092 64.0607 486.069 63.6877 489.677 67.9177C491.544 70.0327 492.663 72.5197 492.787 75.3827C493.039 81.4787 493.039 87.5757 493.163 93.6717V117.934C493.039 119.303 492.911 120.423 492.539 121.667C491.668 125.275 488.557 127.514 484.826 127.888C481.467 128.012 478.356 125.773 476.985 122.538C476.861 122.165 476.737 121.791 476.489 121.169C472.883 123.408 469.024 125.275 464.794 125.649Z" fill="#314196"/>
<path d="M533.474 68.5396C536.585 67.2957 539.948 67.0457 543.306 67.7937C547.412 68.5396 550.396 72.1477 550.148 76.1287C549.9 80.4827 546.664 84.0917 542.31 83.9677C536.96 83.8437 533.474 86.7047 530.739 90.8106C527.752 95.0406 525.014 99.6446 522.279 104C521.907 104.622 521.779 105.368 521.779 105.991C521.779 109.724 521.907 113.456 521.779 117.189C521.655 118.806 521.407 120.547 520.911 122.041C519.915 125.4 517.052 127.515 513.942 127.515C510.955 127.515 507.968 125.649 506.976 122.413C506.229 119.552 506.105 116.691 505.729 113.704C505.605 113.207 505.605 112.584 505.605 112.087C505.605 101.635 505.357 91.3087 505.357 80.8567C505.357 76.8757 505.853 73.1437 507.968 69.5356C510.335 65.4286 514.565 65.1807 517.424 69.0377C518.172 70.0326 518.671 71.1526 519.167 72.3956C519.791 73.8896 520.163 75.5066 520.786 77.1236C524.394 73.2677 528.499 70.2807 533.474 68.5396Z" fill="#314196"/>
<path d="M583.899 48.0097C582.28 47.8857 580.788 47.8857 579.045 47.8857C579.42 43.7797 575.314 40.9177 571.456 40.9177C567.101 40.7937 563.371 41.9137 562.623 48.0097C560.88 48.2597 559.016 47.7617 557.149 48.0097C550.304 49.0047 550.18 60.2027 557.521 60.4527C559.14 60.4527 561.131 60.3267 562.995 60.4527V61.6967C562.995 72.5737 563.292 102.851 563.338 119.748C563.351 124.316 567.055 128.012 571.623 128.012C576.224 128.012 579.944 124.272 579.906 119.671C579.786 104.821 579.528 76.0107 579.42 69.4107C579.296 65.8017 579.296 64.1847 579.296 60.4527H583.899C590.121 60.0787 590.617 48.5077 583.899 48.0097Z" fill="#314196"/>
<path d="M622.69 67.4197C629.656 66.7977 635.253 69.4107 639.484 74.8847C642.846 79.2387 644.338 84.4647 645.334 89.6907C646.95 99.7687 646.578 109.723 645.83 119.801C645.458 124.777 641.599 128.136 637.121 127.764C632.519 127.514 629.16 123.658 629.284 118.432C629.408 111.712 629.656 104.995 629.532 98.1517C629.408 94.0447 628.909 89.8147 627.044 86.2067C625.925 83.8427 624.929 83.4697 622.439 84.2167C620.324 85.2107 618.209 86.4567 616.717 88.1977C611.615 94.2937 611.615 94.2937 611.615 102.256C611.739 107.11 611.739 112.087 611.615 116.815C611.615 118.308 611.491 119.675 611.367 120.921C610.744 125.151 607.632 127.888 603.778 127.888C599.919 127.764 596.685 124.777 596.437 120.547C596.065 114.45 595.565 108.478 595.441 102.382C595.317 88.9427 595.069 75.6307 595.193 62.1937C595.193 57.9627 596.065 53.9827 596.685 49.7527C596.809 48.7567 597.308 47.6377 597.928 46.6417C600.419 42.7837 604.897 42.7837 607.508 46.6417C609.127 49.1287 609.5 52.1157 609.748 54.9767C610.248 60.0787 610.62 65.3047 610.995 70.4047C610.995 70.7787 610.995 71.1517 611.119 71.7737C614.726 69.1607 618.46 67.7937 622.69 67.4197Z" fill="#314196"/>
<path d="M674.95 50.0003C674.95 54.6043 671.464 58.0873 666.985 58.0873C662.507 58.3373 658.9 54.7293 658.9 50.2503C658.772 45.8943 662.383 42.1613 666.861 42.1613C671.34 42.0373 674.826 45.6463 674.95 50.0003ZM675.074 117.686C675.074 118.929 674.95 120.173 674.574 121.418C673.579 125.025 670.22 127.39 666.613 127.266C663.003 127.14 659.768 124.527 659.024 120.794C658.772 119.801 658.648 118.68 658.648 117.686C658.648 103.999 658.524 90.1883 658.648 76.5023C658.648 74.7603 659.024 73.0173 659.768 71.4003C661.263 67.9173 664.498 66.1763 667.856 66.5483C671.092 66.7973 674.078 69.6593 674.826 73.2673C675.074 74.3873 675.074 75.5063 675.074 76.6263C675.198 83.3453 675.198 90.1883 675.198 97.0323C675.198 103.999 675.198 110.842 675.074 117.686Z" fill="#314196"/>
<path d="M47.2484 169.404L43.4534 171.685C41.6984 172.737 40.2214 174.28 39.1594 176.145L36.4444 180.919L36.5374 181.03C36.1954 180.946 35.8814 180.761 35.6414 180.494C35.5304 180.365 32.8984 177.383 31.7994 175.452C28.9184 170.364 30.7384 166.163 33.8124 164.261C34.5144 163.827 35.3184 163.642 36.1674 163.642C40.2394 163.642 45.5304 167.853 47.2944 169.367L47.2484 169.404Z" fill="#314196"/>
<path d="M116.456 95.2561C116.197 95.9581 115.68 96.4751 114.988 96.6961C113.501 97.1761 112.033 96.1701 109.373 94.3511C107.342 92.9571 104.803 91.2211 101.802 89.7981C101.672 89.7431 101.561 89.6701 101.46 89.5861L107.213 87.4351C109.567 86.5481 111.516 84.8491 112.707 82.6331L114.147 79.9831C114.268 80.1581 114.351 80.3611 114.396 80.5741C115.708 86.2531 117.13 93.4091 116.456 95.2561Z" fill="#314196"/>
<path d="M111.07 137.258C108.493 134.249 101.365 128.735 97.2627 127.215C91.7977 125.19 85.7657 123.714 79.8617 122.47C66.6337 119.683 54.1417 117.05 48.1837 104.912C45.3077 99.0532 45.0297 92.2922 47.4177 86.3592C49.6427 80.8342 53.9437 76.6732 59.5287 74.6392C69.5707 70.9902 85.0727 74.3542 94.0927 82.1492C98.4447 85.9102 103.88 84.3732 106.784 81.0122C109.299 78.1032 110.139 73.3602 106.043 69.8222C90.7257 56.5902 63.0387 50.2472 45.0187 63.0872C36.0577 69.4712 30.4057 78.8572 29.1017 89.5152C27.6767 101.167 31.5127 113.284 39.6277 122.757C42.2047 125.766 45.1337 128.111 48.2917 130.008H47.9107C49.6947 131.077 51.5387 132.021 53.4347 132.8C58.8257 135.015 64.9317 136.301 70.8367 137.545C84.0637 140.331 96.5567 142.965 102.515 155.103C105.39 160.961 105.668 167.722 103.281 173.655C101.055 179.18 96.7547 183.342 91.1687 185.376C81.1277 189.024 65.6247 185.66 56.6047 177.866C52.2537 174.104 46.8177 175.642 43.9137 179.003C41.3997 181.912 40.5587 186.654 44.6547 190.193C59.9717 203.425 87.6587 209.768 105.679 196.927C114.641 190.544 120.292 181.158 121.596 170.5C123.022 158.848 119.186 146.731 111.07 137.258Z" fill="#42A3CA"/>
<path d="M182.912 58.0809C180.059 59.3229 178.23 61.7269 177.895 64.6759C177.534 67.8569 178.997 71.2569 181.536 73.1319C183.853 74.8459 186.792 75.1269 189.602 73.9009C198.184 70.1699 213.899 65.9209 222.699 79.4309C225.97 84.4559 227.141 90.1699 226.386 97.4089C224.281 117.532 210.416 130.926 188.342 134.158C182.876 134.958 180.648 139.689 181.272 143.95C181.788 147.488 184.329 150.768 188.36 151.222C189.098 151.306 189.888 151.294 190.724 151.172C204.209 149.197 222.59 143.465 233.582 127.362C239.223 119.095 242.686 108.827 243.596 97.6669C244.622 85.0939 241.123 73.9129 233.479 65.3279C221.722 52.1299 202.814 49.4189 182.912 58.0809Z" fill="#D3559E"/>
<path d="M198.01 43.4115C198.827 44.0635 199.801 44.4655 200.772 44.5755C201.222 44.6255 201.67 44.6135 202.104 44.5355C204.852 44.0295 206.612 41.7445 206.486 38.8475L206.244 33.3485C206.185 32.0375 205.502 30.7705 204.369 29.8665C203.171 28.9145 201.641 28.4915 200.278 28.7465C197.528 29.2485 195.768 31.5345 195.896 34.4335L196.136 39.9315C196.195 41.2395 196.878 42.5095 198.01 43.4115Z" fill="#D3559E"/>
<path d="M248.222 50.7774C249.332 49.9204 250.06 48.5964 250.219 47.1484C250.369 45.7614 249.985 44.4394 249.135 43.4224C247.282 41.2044 244.094 40.8104 241.878 42.5204C239.792 44.1314 237.892 45.9994 236.232 48.0674C235.366 49.1444 234.984 50.5924 235.185 52.0384C235.379 53.4344 236.11 54.6764 237.19 55.4444C237.987 56.0094 238.87 56.3364 239.757 56.4364C241.492 56.6324 243.248 55.9614 244.418 54.5024C245.683 52.9274 246.608 52.0224 248.222 50.7774Z" fill="#D3559E"/>
<path d="M268.478 80.848C267.601 79.754 266.374 79.126 265.066 78.974C262.511 78.751 260.057 78.873 257.77 79.338C254.924 79.919 253.062 82.434 253.44 85.187C253.631 86.576 254.461 87.915 255.663 88.766C256.383 89.278 257.181 89.587 257.997 89.679C258.471 89.732 258.952 89.713 259.426 89.616H259.427C261.11 89.273 262.395 89.185 263.859 89.315C266.725 89.566 269.258 87.597 269.626 84.828C269.811 83.436 269.392 81.985 268.478 80.848Z" fill="#D3559E"/>
<path d="M251.139 112.826C248.428 111.86 245.48 113.095 244.41 115.631C243.86 116.937 243.885 118.466 244.481 119.824C245.043 121.101 246.033 122.05 247.271 122.493C248.915 123.08 250.014 123.76 251.325 124.998C252.032 125.664 252.934 126.071 253.931 126.183C254.25 126.219 254.581 126.226 254.915 126.199C256.44 126.083 257.878 125.336 258.765 124.195C260.469 122.003 260.146 119.046 257.981 117.003C256.051 115.182 253.686 113.738 251.139 112.826Z" fill="#D3559E"/>
<path d="M233.194 146.593C231.287 143.93 228.211 144.026 226.162 145.498C224.061 147.004 222.89 150.087 224.859 152.833L230.256 160.36C231.122 161.567 232.334 162.298 233.68 162.449C234.009 162.487 234.346 162.489 234.689 162.456C236.587 162.268 238.336 160.995 239.143 159.213C239.904 157.529 239.704 155.672 238.591 154.121L233.194 146.593Z" fill="#D3559E"/>
<path d="M194.285 156.822C192.79 156.691 191.16 157.242 190.031 158.262C189.065 159.132 188.522 160.29 188.503 161.52L188.461 164.45C188.444 165.554 188.556 166.851 189.503 168.086C190.325 169.162 191.662 169.937 192.937 170.081C192.969 170.085 193.003 170.089 193.035 170.093C194.532 170.222 196.161 169.669 197.291 168.649C198.255 167.777 198.796 166.62 198.813 165.394L198.857 162.462C198.874 161.36 198.762 160.065 197.811 158.823C196.964 157.721 195.546 156.963 194.285 156.822Z" fill="#D3559E"/>
<path d="M167.519 61.1924C166.254 59.6964 163.475 57.8314 160.104 57.3144C155.848 56.6584 153.096 57.5914 151.794 59.8164C151.655 59.5854 151.619 59.2904 151.702 59.0134C151.849 58.5884 154.97 48.1634 162.016 42.7714C162.145 42.6784 162.284 42.6234 162.422 42.6044C162.551 42.5864 162.681 42.5954 162.801 42.6414C163.068 42.7434 163.299 42.9644 163.392 43.2694C163.53 43.6664 166.614 52.8634 167.519 61.1924Z" fill="#314196"/>
<path d="M170.283 191.342C167.011 164.426 165.247 138.425 165.1 112.669C165.036 99.9779 165.25 90.2559 166.027 81.0999C166.056 80.8349 166.071 80.5749 166.099 80.3099C166.45 76.8319 167.081 69.5289 163.881 65.6129C162.603 64.0449 160.895 63.2169 158.823 63.1629C158.399 63.1499 158.005 63.1609 157.617 63.1799C149.917 63.6669 149.582 70.7469 149.366 74.1959C148.909 82.4689 147.919 98.0409 147.928 110.553C147.996 137.708 149.794 165.03 153.183 193.468C153.255 194.091 153.328 194.714 153.404 195.339C158.178 194.841 162.956 194.302 167.725 193.721C168.661 193.615 169.598 193.518 170.533 193.413C170.455 192.721 170.371 192.033 170.283 191.342Z" fill="#314196"/>
<path d="M147.927 110.554V110.553C147.923 110.555 147.923 110.554 147.927 110.554Z" fill="#314196"/>
<path d="M153.783 201.065C153.828 201.4 153.864 201.736 153.908 202.077C154.263 204.989 154.662 208.071 155.147 211.512C155.61 214.916 157.399 217.486 160.202 218.712C163.2 220.03 166.869 219.447 169.339 217.211C170.936 215.781 171.934 213.826 172.206 211.586C172.315 210.673 172.306 209.711 172.179 208.712C171.732 205.516 171.356 202.687 171.038 200.062C170.994 199.742 170.962 199.419 170.918 199.098C165.213 199.817 159.495 200.476 153.783 201.065Z" fill="#314196"/>
</svg>
