<svg width="14" height="13" viewBox="0 0 14 13" fill="none" xmlns="http://www.w3.org/2000/svg">
    <path
        d="M9.92755 8.41014H9.33392L9.12352 8.20764C10.0252 7.15764 10.4911 5.72514 10.2356 4.20264C9.88247 2.11764 8.13914 0.452637 6.03513 0.197637C2.85658 -0.192363 0.181477 2.47764 0.572221 5.65014C0.827708 7.75014 2.49589 9.49014 4.58487 9.84264C6.11028 10.0976 7.54551 9.63264 8.59752 8.73264L8.8004 8.94264V9.53514L11.994 12.7226C12.3021 13.0301 12.8055 13.0301 13.1136 12.7226C13.4217 12.4151 13.4217 11.9126 13.1136 11.6051L9.92755 8.41014ZM5.41896 8.41014C3.54789 8.41014 2.03751 6.90264 2.03751 5.03514C2.03751 3.16764 3.54789 1.66014 5.41896 1.66014C7.29003 1.66014 8.8004 3.16764 8.8004 5.03514C8.8004 6.90264 7.29003 8.41014 5.41896 8.41014Z"
        fill="#0F5BE0" />
</svg>
