<svg width="245" height="320" viewBox="0 0 245 320" fill="none" xmlns="http://www.w3.org/2000/svg">
<g opacity="0.2">
<g opacity="0.119995">
<g opacity="0.119995">
<path opacity="0.119995" d="M126.142 197.467L231.039 201.329L244.109 200.442L232.654 193.123L126.142 197.467Z" fill="#030505"/>
</g>
</g>
<defs>
<linearGradient id="paint0_linear_2534_1808" x1="121.5" y1="204.486" x2="121.5" y2="320" gradientUnits="userSpaceOnUse">
<stop stop-color="white" stop-opacity="0"/>
<stop offset="0.379882" stop-color="white" stop-opacity="0.9"/>
<stop offset="0.665373" stop-color="white"/>
</linearGradient>
</defs>
<path d="M136.142 212.754L143.489 216.589H167.813L160.436 212.754H136.142Z" fill="#FCE846"/>
<path d="M160.436 197.468L167.813 201.304V216.589L160.436 212.754V197.468Z" fill="#FFCA2A"/>
<path d="M160.436 197.469H136.142V212.755H160.436V197.469Z" fill="#FBD30A"/>
<path d="M160.543 212.768L167.89 216.602H192.213L184.837 212.768H160.543Z" fill="#35B5E8"/>
<path d="M184.837 197.482L192.214 201.317V216.602L184.837 212.768V197.482Z" fill="#1797CE"/>
<path d="M184.838 197.482H160.544V212.768H184.838V197.482Z" fill="#12A4DD"/>
<path d="M152.614 216.546L145.564 212.729V227.794L152.614 231.606V216.546Z" fill="#B33F97"/>
<path d="M143.214 231.579L136.178 227.795H185.005L192.051 231.579H143.214Z" fill="#CF7DB4"/>
<path d="M192.05 216.546L185.006 212.743V227.795L192.05 231.579V216.546Z" fill="#B25EA4"/>
<path d="M136.177 227.796V212.729H145.563C145.563 217.841 152.349 222 160.714 222C169.081 222 175.864 217.855 175.864 212.743H185.006V227.796H136.177Z" fill="#BE5AA2"/>
<path d="M184.934 212.707L192.28 216.542H216.604L209.228 212.707H184.934Z" fill="#F17694"/>
<path d="M209.229 197.42L216.604 201.256V216.542L209.229 212.706V197.42Z" fill="#D85A78"/>
<path d="M209.228 197.42H184.934V212.706H209.228V197.42Z" fill="#F0527E"/>
<path d="M209.369 212.782L216.716 216.617H241.038L233.663 212.782H209.369Z" fill="#F05454"/>
<path d="M233.663 197.496L241.038 191.331V216.616L233.663 212.781V197.496Z" fill="#BA2027"/>
<path d="M233.662 197.496H209.368V212.781H233.662V197.496Z" fill="#EA2E30"/>
<path d="M201.466 216.572L194.413 212.743V227.821L201.466 231.632V216.572Z" fill="#FFCA2A"/>
<path d="M192.05 231.579L185.006 227.795H233.865L240.912 231.579H192.05Z" fill="#FCE846"/>
<path d="M240.912 216.572L233.865 212.753V227.796L240.912 231.58V216.572Z" fill="#FBB415"/>
<path d="M185.006 227.795V212.743H194.413C194.413 217.855 201.2 222.025 209.567 222.025C217.937 222.025 224.721 217.865 224.721 212.752H233.865V227.795H185.006Z" fill="#FBD30A"/>
<path d="M160.67 243.057L168.017 246.892H192.343L185.006 243.057H160.67Z" fill="#9E6FB0"/>
<path d="M185.006 227.795L192.344 231.607V246.892L185.006 243.058V227.795Z" fill="#7E52A0"/>
<path d="M185.006 227.795H160.67V243.058H185.006V227.795Z" fill="#4950A2"/>
<path d="M185.006 243.119L192.312 246.954H216.638L209.253 243.119H185.006Z" fill="#F68F57"/>
<path d="M209.253 227.795L216.637 231.668V246.954L209.253 243.118V227.795Z" fill="#EC6125"/>
<path d="M209.253 227.795H185.006V243.118H209.253V227.795Z" fill="#F37523"/>
<path d="M177.032 262.337L170.052 258.429V243.064L177.032 246.997V262.337Z" fill="#E7566E"/>
<path d="M216.068 262.337L209.093 258.428V243.064L216.068 246.997V262.337Z" fill="#BA2027"/>
<path d="M167.686 246.935V262.255H176.974C176.974 257.045 183.685 252.795 191.964 252.795C200.246 252.795 206.959 257.031 206.959 262.242H216.022V246.935H167.686Z" fill="#BA2027"/>
<path d="M160.764 243.109V258.428H170.052C170.052 253.218 176.767 248.97 185.048 248.97C193.33 248.97 200.042 253.217 200.042 258.427H209.091V243.109H160.764Z" fill="#EA2E30"/>
<path d="M177.032 262.336L170.052 258.429V273.791L177.032 277.676V262.336Z" fill="#6E3D97"/>
<path d="M167.725 277.649L160.764 273.749H209.092L216.068 277.649H167.725Z" fill="#8761A9"/>
<path d="M216.068 262.337L209.093 258.429V273.792L216.068 277.65V262.337Z" fill="#6E3D97"/>
<path d="M160.764 273.749V258.43H170.052C170.052 263.64 176.767 267.886 185.048 267.886C193.33 267.886 200.042 263.639 200.042 258.429H209.091V273.749H160.764Z" fill="#8557A3"/>
<path d="M184.551 289.39L192.023 293.298L216.841 277.757L209.322 273.849L184.551 289.39Z" fill="#CA6EAC"/>
<path d="M209.349 273.808H184.552V289.389L209.349 273.808Z" fill="#BE5AA2"/>
<path d="M240.812 231.536L240.814 231.57C240.814 235.875 235.629 239.472 228.221 239.616C224.494 239.687 221.62 239.226 219.393 238.436C214.48 236.693 210.711 232.995 209.84 230.21C209.798 230.075 214.2 231.27 214.2 231.27L233.978 227.819L240.812 231.536Z" fill="#8664AB"/>
<path d="M233.979 227.819C233.979 232.122 228.436 235.619 221.596 235.619C214.756 235.619 209.21 232.122 209.21 227.819H233.979Z" fill="#8557A3"/>
<path d="M160.155 273.808H184.552V289.134L160.155 273.808Z" fill="#FBD30A"/>
<g opacity="0.110001">
<g opacity="0.110001">
<path opacity="0.110001" d="M12.6804 191.782C31.5019 197.169 50.4415 194.481 74.8632 193.212C97.7261 192.023 100.466 199.136 103.454 203.526C108.86 211.468 87.7966 209.886 65.0037 211.522C42.2092 213.157 13.5407 196.526 12.6804 191.782Z" fill="#030505"/>
</g>
</g>
<path d="M95.2285 202.978C82.978 203.873 74.895 204.261 67.4031 204.751L68.7907 213.561C76.4195 213.925 87.6993 214.624 99.7989 215.374C104.418 215.66 109.011 212.378 108.076 208.376C107.061 204.024 99.7413 202.648 95.2285 202.978Z" fill="#FFDBC7"/>
<g opacity="0.110001">
<g opacity="0.110001">
<path opacity="0.110001" d="M67.9336 208.117C74.3366 208.425 81.0553 208.637 87.7927 208.534C93.5345 208.446 97.0439 205.99 98.0473 202.985C97.0486 202.915 96.0888 202.915 95.2285 202.978C82.978 203.873 74.895 204.261 67.4032 204.752L67.9336 208.117Z" fill="#531810"/>
</g>
</g>
<path d="M82.4675 218.164C82.4675 218.164 90.9021 217.399 101.672 215.374C97.5166 215.401 94.816 211.568 87.5389 207.031C73.9645 198.571 36.3263 197.818 21.2244 203.88C27.8949 210.582 34.1344 217.638 39.5853 221.812L82.4675 218.164Z" fill="#644B69"/>
<g opacity="0.220001">
<g opacity="0.220001">
<path opacity="0.220001" d="M86.7471 218.828C67.1463 209.451 39.8732 219.392 36.0557 223.205C37.6705 226.457 39.6088 228.729 41.768 232.796C51.0068 233.624 70.4551 227.413 79.2553 226.993C79.3782 223.353 86.1871 219.194 86.7471 218.828Z" fill="#030505"/>
</g>
</g>
<path d="M86.5161 205.977C67.5748 206.36 48.7814 204.596 37.2107 204.871L36.1747 197.287C47.8247 196.368 65.0236 194.885 83.4717 193.296C90.5155 192.69 96.7474 195.438 96.9838 199.432C97.1783 202.694 93.4946 205.836 86.5161 205.977Z" fill="#FFDBC7"/>
<path d="M41.5277 205.368C43.8938 205.087 47.3286 205.141 49.2 204.91L46.2505 195.499C46.2505 195.499 37.942 196.567 35.985 196.799C31.9248 198.121 37.2637 205.083 41.5277 205.368Z" fill="white"/>
<path d="M23.1504 192.39C24.8118 193.177 25.9272 194.792 25.8805 196.32C25.8743 196.5 25.6363 196.644 25.35 196.64C25.21 196.638 25.0856 196.603 24.9953 196.545C24.8958 196.484 24.8367 196.4 24.8398 196.306C24.8818 194.977 23.9422 193.567 22.525 192.912C22.2839 192.802 22.2497 192.598 22.4224 192.454C22.5966 192.31 22.9217 192.282 23.1504 192.39ZM25.5989 193.651C25.3671 193.544 25.3516 193.328 25.5367 193.189C25.7234 193.052 26.0501 193.034 26.2694 193.152C28.021 194.081 28.9357 195.477 28.7926 196.981C28.7755 197.161 28.5297 197.299 28.2419 197.288C28.1113 197.282 27.9946 197.248 27.9075 197.193C27.8048 197.129 27.7457 197.039 27.755 196.942C27.923 195.168 26.4779 194.12 25.5989 193.651ZM28.5111 194.395C28.2762 194.289 28.2139 194.088 28.3757 193.941C28.5375 193.792 28.8626 193.754 29.0991 193.854C30.9176 194.643 31.9085 196.226 31.501 197.712C31.4527 197.889 31.1836 198.008 30.9005 197.978C30.7916 197.965 30.6967 197.933 30.6236 197.888C30.5069 197.816 30.4462 197.71 30.4774 197.599C30.818 196.358 30.0153 195.037 28.5111 194.395Z" fill="#D2DBE7"/>
<g opacity="0.179993">
<g opacity="0.179993">
<path opacity="0.179993" d="M78.2154 206.012C76.3735 206.442 75.9784 206.553 74.7681 206.831C74.7043 206.846 78.1329 203.721 78.2854 203.524C79.0072 202.583 76.7795 201.876 74.6452 202.68C73.3618 203.161 71.4671 204.577 70.8106 204.974C71.2462 204.617 73.0803 203.102 73.4303 202.583C74.6141 200.82 71.744 200.557 69.5926 201.684C68.5441 202.235 67.2327 202.889 65.9089 203.655C66.136 203.189 67.8285 201.133 66.8096 200.497C66.0707 200.036 63.8912 200.558 61.928 201.695C59.5697 203.062 53.8793 206.311 52.6939 206.508C50.2407 207.319 50.6171 210.871 51.3809 211.436C53.3659 212.903 61.8145 213.687 65.3722 213.001C71.3364 211.848 77.6149 209.835 80.7681 206.911C81.4308 205.862 79.225 205.775 78.2154 206.012Z" fill="#6B1D0F"/>
</g>
</g>
<path d="M78.2336 206.207C76.1507 206.68 73.2588 208.751 70.9036 209.12C70.8398 209.129 70.7449 209.125 70.6376 209.114C74.1221 207.374 77.6783 204.255 78.1948 203.455C78.8154 202.494 76.356 202.371 75.2204 202.764C73.2557 203.447 72.0812 205.519 67.5543 207.481C69.9795 205.33 71.7669 204.235 73.2526 202.631C74.6339 201.141 71.8727 200.582 69.8349 201.789C68.259 202.721 65.9645 204.66 63.1893 206.389C62.8392 206.471 67.3925 201.793 66.7936 200.632C65.9256 200.273 64.0806 200.597 62.6837 202.026C61.9276 202.802 61.3645 203.762 59.3313 205.33C56.8703 206.184 53.8804 206.31 52.6935 206.507C50.2403 207.319 50.6167 210.871 51.3805 211.435C53.3671 212.903 61.8141 213.687 65.3718 213C71.336 211.848 74.3928 211.359 80.5251 207.056C81.1878 206.007 79.2464 205.976 78.2336 206.207Z" fill="#FFCDB1"/>
<path d="M110.71 289.242C115.878 279.511 119.554 281.187 122.961 273.069C126.108 265.568 118.977 253.074 109.327 252.29C114.436 255.516 112.563 259.539 111.844 259.942C111.925 257.201 104.57 252.156 103.097 251.537C90.8062 246.359 77.2894 248.294 66.4203 247.569C52.7402 246.655 33.8238 247.697 19.3846 251.994C15.7227 253.086 12.949 258.147 12.8028 262.707C8.96972 259.272 13.5775 254.091 12.6456 254.549C5.84603 257.881 -0.438675 267.063 8.95571 272.121C20.6462 278.415 8.86549 281.946 21.7911 296.22C46.9113 297.898 98.2187 298.211 110.71 289.242Z" fill="#5C5C5C"/>
<path d="M119.485 244.031C121.969 242.804 123.295 240.908 125.955 239.835C117.194 232.068 104.252 222.045 95.5829 223.337C84.3047 230.11 90.5645 230.317 95.222 232.832C100.8 232.877 105.581 235.665 119.485 244.031Z" fill="#FFDBC7"/>
<path d="M104.302 235.889C99.4302 233.65 91.0719 229.266 87.2481 227.349C79.8932 232.419 75.4612 236.27 75.3134 236.758C73.7718 241.823 75.1174 250.66 89.5676 247.767C92.8748 244.858 98.2324 241.031 104.302 235.889Z" fill="#DA1A5F"/>
<path d="M105.582 235.664L88.294 226.953L84.6974 229.777L101.987 238.489L105.582 235.664Z" fill="#EE5FA2"/>
<path d="M39.1305 220.217C54.4565 215.588 70.2009 214.883 85.2204 218.483C85.964 229.58 88.8185 237.633 84.8424 247.802C74.552 249.387 56.1707 249.991 46.6752 249.243C44.9578 238.285 45.5894 231.514 39.1305 220.217Z" fill="#F7C0D9"/>
<path d="M79.3427 247.839C79.4532 248.269 79.4158 248.695 79.3256 249.116C72.3253 249.933 53.8679 250.633 53.8181 250.44C52.9625 247.114 57.9825 243.834 65.031 243.117C72.0795 242.397 78.4871 244.512 79.3427 247.839Z" fill="#E186B8"/>
<path d="M78.7912 217.651C81.1402 215.02 85.6312 217.767 88.3738 217.484C87.8729 229.993 89.3383 236.144 87.5742 248.083C84.5983 248.578 81.4746 248.975 77.5934 249.369C79.3388 229.052 76.9229 219.747 78.7912 217.651Z" fill="#DA1A5F"/>
<path d="M76.4045 258.062L76.081 248.168C76.011 246.04 71.6568 244.372 66.3552 244.44C61.0552 244.508 56.8131 246.29 56.8831 248.417L57.2066 258.31L76.4045 258.062Z" fill="#FFCEB2"/>
<g opacity="0.179993">
<g opacity="0.179993">
<path opacity="0.179993" d="M87.3972 252.094C87.5543 252.541 87.5295 252.995 87.4439 253.448C79.0576 254.805 66.3637 256.475 57.1887 257.196C57.0689 257.009 56.8698 256.846 56.7997 256.645C55.5973 253.186 61.4697 249.362 69.9198 248.106C78.3684 246.849 86.1947 248.634 87.3972 252.094Z" fill="#6B1D0F"/>
</g>
</g>
<path d="M53.3803 216.22C58.3054 218.425 56.3438 246.168 55.2657 250.632C50.3251 250.553 45.9756 250.386 40.7113 249.642C39.148 238.221 36.7539 231.127 31.0805 216.972C37.2454 214.895 48.3914 213.986 53.3803 216.22Z" fill="#DA1A5F"/>
<path d="M111.711 272.861C110.825 267.665 104.58 263.859 99.3519 263.859C94.1219 263.859 92.3625 267.885 92.3641 272.809C92.3641 277.734 96.6047 281.738 101.832 281.725C108.98 281.707 112.547 277.744 111.711 272.861Z" fill="#F4B08B"/>
<path d="M110.798 287.251C111.425 269.697 93.2619 261.541 67.4293 261.176C41.5982 260.81 22.3707 268.438 21.7438 285.993C21.1185 303.547 41.4753 307.233 65.7492 308.257C91.5289 309.344 110.171 304.807 110.798 287.251Z" fill="#5C5C5C"/>
<path d="M104.353 264.218C98.9173 255.266 87.1381 251.129 75.2143 250.982C50.9451 250.682 28.4975 259.401 27.7633 279.974C27.029 300.544 43.8359 301.325 66.7751 301.649C82.0917 301.866 95.5494 301.863 102.106 295.58C106.151 291.702 107.014 268.602 104.353 264.218Z" fill="#FFDBC7"/>
<path d="M43.7761 266.401C43.7061 265.351 45.9679 264.439 48.8303 264.364C51.6895 264.289 54.0665 265.077 54.1365 266.128C54.2065 267.178 51.9431 268.09 49.0823 268.165C46.2215 268.241 43.8461 267.45 43.7761 266.401Z" fill="#F59597"/>
<path d="M92.6521 267.007C92.8154 265.961 95.2593 265.256 98.1092 265.433C100.958 265.608 103.135 266.6 102.972 267.645C102.809 268.691 100.365 269.395 97.5165 269.22C94.6666 269.043 92.4903 268.052 92.6521 267.007Z" fill="#F59597"/>
<path d="M84.5868 278.048C82.3623 275.433 82.8912 272.649 85.1017 271.657C88.4339 270.161 96.044 269.951 98.6823 272.354C101.235 274.683 99.5814 278.721 94.9784 280.332C90.9462 281.743 86.7383 280.579 84.5868 278.048Z" fill="#F9FDFF"/>
<path d="M98.6345 279.215C94.8419 283.033 86.5924 281.43 84.5126 277.96C86.734 280.574 91.1535 281.491 94.8808 280.188C97.1831 279.381 98.8958 277.869 99.4621 276.143C99.9148 274.766 99.5943 273.196 98.5349 272.228C99.7934 272.877 101.424 276.407 98.6345 279.215Z" fill="#733D29"/>
<path d="M88.9393 275.982C88.0868 274.194 89.4246 272.231 91.9276 271.599C94.4306 270.968 97.1529 271.906 98.0054 273.696C98.8579 275.484 97.5216 277.446 95.0171 278.079C92.5141 278.71 89.7918 277.771 88.9393 275.982Z" fill="#762C16"/>
<path d="M89.3053 276.297C89.0689 275.8 89.4391 275.257 90.1329 275.082C90.8283 274.906 91.5843 275.167 91.8192 275.663C92.0572 276.159 91.6854 276.704 90.9916 276.879C90.2962 277.054 89.5402 276.794 89.3053 276.297Z" fill="white"/>
<path d="M65.2433 277.505C68.1648 275.036 67.9859 272.23 65.6229 271.11C62.0621 269.419 53.4471 268.752 50.0869 270.986C46.8326 273.15 48.1035 277.272 53.0908 279.153C57.459 280.801 62.4168 279.894 65.2433 277.505Z" fill="#F9FDFF"/>
<path d="M49.1053 277.819C52.8372 281.85 62.4525 280.75 65.3429 277.421C62.423 279.888 57.2599 280.536 53.223 279.015C50.7278 278.073 49.0089 276.463 48.6262 274.71C48.3213 273.313 48.9218 271.766 50.2736 270.868C48.746 271.438 46.3581 274.856 49.1053 277.819Z" fill="#733D29"/>
<path d="M55.7015 275.119C54.7121 273.326 56.2211 271.368 59.0694 270.746C61.9193 270.123 65.0305 271.072 66.0199 272.865C67.0093 274.657 65.5019 276.614 62.6535 277.237C59.8037 277.86 56.6924 276.911 55.7015 275.119Z" fill="#762C16"/>
<path d="M56.1224 275.435C55.847 274.938 56.267 274.395 57.0573 274.222C57.846 274.049 58.7094 274.313 58.9847 274.809C59.26 275.307 58.84 275.85 58.0498 276.024C57.2595 276.195 56.3977 275.933 56.1224 275.435Z" fill="white"/>
<path d="M99.4397 286.632C99.0431 286.655 98.6573 286.768 98.3664 286.967C96.0858 288.52 91.3848 289.187 87.4164 288.521C86.5281 288.367 85.601 288.706 85.3614 289.27C85.1218 289.833 85.657 290.413 86.5514 290.565C91.7114 291.434 97.7192 290.52 100.834 288.402C101.464 287.972 101.42 287.303 100.74 286.907C100.375 286.693 99.8986 286.604 99.4397 286.632Z" fill="#762C16"/>
<path d="M48.016 284.85C47.4964 284.786 46.9426 284.837 46.4946 285.02C45.6655 285.359 45.5255 286.024 46.1835 286.503C49.4379 288.867 56.1519 290.265 62.1644 289.817C63.2051 289.74 63.8927 289.205 63.6982 288.623C63.5038 288.041 62.4926 287.633 61.4581 287.709C56.8426 288.055 51.5753 287.004 49.1936 285.271C48.8887 285.049 48.464 284.906 48.016 284.85Z" fill="#762C16"/>
<path d="M78.9173 269.374C78.7322 269.371 78.5657 269.453 78.53 269.57C78.2779 270.41 77.1999 270.94 75.7843 270.919C74.3609 270.9 73.2984 270.329 73.1397 269.5C73.1133 269.367 72.922 269.272 72.7104 269.289C72.4988 269.304 72.3479 269.426 72.3744 269.558C72.5782 270.619 73.972 271.379 75.7687 271.404C77.5515 271.43 78.9655 270.729 79.2875 269.661C79.328 269.529 79.1895 269.402 78.9811 269.378L78.9173 269.374Z" fill="#C4745C"/>
<path d="M87.376 263.427C87.2858 260.176 81.502 257.603 74.4535 257.679C67.4065 257.756 61.7658 260.454 61.856 263.705C61.9447 266.956 67.9167 266.28 74.9699 266.42C82.0153 266.559 87.4662 266.679 87.376 263.427Z" fill="#601510"/>
<path d="M75.2955 260.749C71.4874 260.791 68.1272 260.124 66.1796 259.087C68.4057 258.195 71.2883 257.639 74.4524 257.605C78.0132 257.566 81.2567 258.194 83.6305 259.24C81.6782 260.126 78.6774 260.712 75.2955 260.749Z" fill="#D46754"/>
<path d="M83.8637 266.282C81.605 266.624 78.4891 266.562 74.9765 266.492C71.0143 266.414 67.3944 266.586 64.9272 266.201C65.8994 264.88 69.6843 263.864 74.2422 263.814C79.13 263.762 83.187 264.837 83.8637 266.282Z" fill="white"/>
<path d="M40.7257 284.043C40.6572 275.64 35.7679 270.228 29.9546 270.155C24.1428 270.084 15.4904 278.241 16.822 286.603C18.4897 297.078 27.1 302.107 32.9149 302.76C38.6349 303.402 40.8035 293.595 40.7257 284.043Z" fill="#5C5C5C"/>
<path d="M18.7327 268.065C21.6293 262.543 30.6706 259.37 37.1388 260.185C43.6056 260.999 41.1135 277.652 29.2005 278.626C19.2803 279.436 16.0089 273.254 18.7327 268.065Z" fill="#FFDBC7"/>
<path d="M25.9549 268.592C26.7032 266.241 31.1321 264.404 34.2557 265.185C35.4738 265.49 32.5539 273.678 30.5705 273.601C27.215 273.469 25.2082 270.943 25.9549 268.592Z" fill="#E0946D"/>
<path d="M67.3169 306.649C94.4905 307.337 100.302 302.808 100.424 301.654C100.85 297.585 95.5592 293.741 93.7671 293.905C92.994 293.976 94.2867 296.099 93.9911 298.991C90.7072 294.695 82.8124 291.742 80.6144 292.202C79.4508 292.446 84.1207 295.021 85.0448 299.288C83.052 295.827 77.864 291.505 69.4217 290.961C62.2876 290.501 54.508 292.847 49.4989 295.419C50.3233 292.651 53.9184 291.725 53.1483 291.449C50.9829 290.671 37.9515 290.452 34.5665 297.565C34.0345 298.683 44.4571 306.069 67.3169 306.649Z" fill="#5C5C5C"/>
<path d="M27.4194 290.977C31.17 299.028 40.3684 307.305 63.4553 309.098C82.2223 310.556 94.7746 307.309 102.319 301.163C91.8034 305.286 80.9482 307.543 63.46 305.963C49.8623 304.736 37.2867 300.615 27.4194 290.977Z" fill="#8557A3"/>
<path d="M33.8135 299.248C34.1448 293.5 15.9223 287.836 4 296.545C17.5277 304.4 25.6542 302.857 33.8135 299.248Z" fill="#6E3D97"/>
<g opacity="0.279999">
<g opacity="0.279999">
<path opacity="0.279999" d="M32.2501 299.093C32.1319 300.397 24.1718 300.743 19.1021 298.047C24.5249 294.754 32.6095 295.173 32.2501 299.093Z" fill="#030505"/>
</g>
</g>
<path d="M31.6866 300.812C41.8183 297.16 57.1116 305.023 40.5443 316C33.0244 307.673 28.3451 305.398 31.6866 300.812Z" fill="#6E3D97"/>
<g opacity="0.279999">
<g opacity="0.279999">
<path opacity="0.279999" d="M34.16 301.037C33.127 303.018 39.1535 304.551 40.9611 307.773C42.5463 305.707 40.0558 299.091 34.16 301.037Z" fill="#030505"/>
</g>
</g>
<path d="M36.6102 298.02C35.0048 297.034 32.3276 297.071 30.632 298.1C28.9348 299.13 28.8648 300.763 30.4702 301.748C32.0756 302.733 34.7528 302.697 36.4484 301.668C38.1441 300.638 38.2172 299.006 36.6102 298.02Z" fill="#8557A3"/>
<path d="M60.6798 213.028C58.3588 211.679 54.2644 209.87 52.1581 208.389C38.4608 216.433 26.4686 224.915 27.3304 231.972C30.7823 232.636 39.3398 231.441 42.2861 230.687C41.4694 227.215 44.3131 223.401 60.6798 213.028Z" fill="#FFCDB1"/>
<path d="M25.1937 232.157C30.3926 230.889 40.7499 229.324 44.9517 229.312C46.6551 234.547 53.2042 250.22 53.2571 250.513C44.7152 250.377 38.4538 249.401 36.6524 248.951C33.1803 246.694 29.0392 239.182 25.1937 232.157Z" fill="#DA1A5F"/>
<path d="M25.8014 235.6L47.0869 231.746L45.4955 228.269L24.2115 232.122L25.8014 235.6Z" fill="#EE5FA2"/>
<path d="M117.303 242.147C118.78 239.367 122.46 237.695 127.048 238.66C131.635 239.626 135.394 242.863 133.918 245.642C132.44 248.422 127.522 249.893 122.935 248.929C118.347 247.963 115.827 244.928 117.303 242.147Z" fill="#FFDBC7"/>
<g opacity="0.110001">
<g opacity="0.110001">
<path opacity="0.110001" d="M122.701 243.703C123.933 241.869 126.422 240.778 128.258 241.266C130.096 241.754 130.585 243.638 129.353 245.473C128.121 247.308 125.632 248.399 123.795 247.911C121.957 247.422 121.467 245.538 122.701 243.703Z" fill="#531810"/>
</g>
</g>
<path d="M143.472 253.89C137.76 255.993 130.405 255.047 126.592 251.224C124.674 249.3 123.881 247.565 123.842 246.008C123.753 242.573 126.82 238.785 130.088 236.966C130.248 236.878 130.816 239.774 130.816 239.774L145.078 248.478L143.472 253.89Z" fill="#35B5E8"/>
<path d="M145.078 248.477C139.364 250.581 132.002 249.383 128.657 245.788C125.312 242.192 127.232 237.573 132.946 235.468L145.078 248.477Z" fill="#12A4DD"/>
<path d="M116.087 243.51C115.351 241.186 119.285 240.485 121.303 241.594C125.056 243.657 121.693 246.574 122.934 246.935C126.354 247.93 128.102 249.138 127.477 250.092C127.047 250.748 123.753 249.844 119.867 248.786C118.621 248.447 116.278 244.596 116.087 243.51Z" fill="#FFDBC7"/>
</g>
<rect y="200" width="243" height="120" fill="url(#paint0_linear_2534_1808)"/>
<g opacity="0.119995">
<g opacity="0.119995">
<path opacity="0.119995" d="M126.142 200.082L231.039 193.563L244.109 195.06L232.654 207.415L126.142 200.082Z" fill="#030505"/>
</g>
</g>
<path d="M136.142 174.277L143.489 167.804H167.813L160.436 174.277H136.142Z" fill="#FCE846"/>
<path d="M160.436 200.081L167.813 193.606V167.805L160.436 174.279V200.081Z" fill="#FFCA2A"/>
<path d="M160.436 200.079H136.142V174.277H160.436V200.079Z" fill="#FBD30A"/>
<path d="M160.543 174.255L167.89 167.782H192.213L184.837 174.255H160.543Z" fill="#35B5E8"/>
<path d="M184.837 200.058L192.214 193.584V167.782L184.837 174.256V200.058Z" fill="#1797CE"/>
<path d="M184.838 200.057H160.544V174.255H184.838V200.057Z" fill="#12A4DD"/>
<path d="M152.614 167.878L145.564 174.321V148.891L152.614 142.456V167.878Z" fill="#B33F97"/>
<path d="M143.214 142.501L136.178 148.889H185.005L192.051 142.501H143.214Z" fill="#CF7DB4"/>
<path d="M192.05 167.877L185.006 174.297V148.889L192.05 142.501V167.877Z" fill="#B25EA4"/>
<path d="M136.177 148.888V174.322H145.563C145.563 165.692 152.349 158.671 160.714 158.671C169.081 158.671 175.864 165.668 175.864 174.297H185.006V148.888H136.177Z" fill="#BE5AA2"/>
<path d="M184.934 174.359L192.28 167.884H216.604L209.228 174.359H184.934Z" fill="#F17694"/>
<path d="M209.229 200.161L216.604 193.686V167.884L209.229 174.359V200.161Z" fill="#D85A78"/>
<path d="M209.228 200.161H184.934V174.359H209.228V200.161Z" fill="#F0527E"/>
<path d="M209.369 174.231L216.716 167.758H241.038L233.663 174.231H209.369Z" fill="#F05454"/>
<path d="M233.663 200.034L241.038 193.561V167.759L233.663 174.232V200.034Z" fill="#BA2027"/>
<path d="M233.662 200.034H209.368V174.232H233.662V200.034Z" fill="#EA2E30"/>
<path d="M201.466 167.834L194.413 174.297V148.846L201.466 142.412V167.834Z" fill="#FFCA2A"/>
<path d="M192.05 142.501L185.006 148.889H233.865L240.912 142.501H192.05Z" fill="#FCE846"/>
<path d="M240.912 167.833L233.865 174.28V148.888L240.912 142.501V167.833Z" fill="#FBB415"/>
<path d="M185.006 148.889V174.297H194.413C194.413 165.668 201.2 158.628 209.567 158.628C217.937 158.628 224.721 165.652 224.721 174.281H233.865V148.889H185.006Z" fill="#FBD30A"/>
<path d="M160.67 123.127L168.017 116.654H192.343L185.006 123.127H160.67Z" fill="#9E6FB0"/>
<path d="M185.006 148.889L192.344 142.455V116.653L185.006 123.126V148.889Z" fill="#7E52A0"/>
<path d="M185.006 148.889H160.67V123.126H185.006V148.889Z" fill="#4950A2"/>
<path d="M185.006 123.023L192.312 116.549H216.638L209.253 123.023H185.006Z" fill="#F68F57"/>
<path d="M209.253 148.889L216.637 142.351V116.549L209.253 123.024V148.889Z" fill="#EC6125"/>
<path d="M209.253 148.889H185.006V123.024H209.253V148.889Z" fill="#F37523"/>
<path d="M177.032 90.5835L170.052 97.179V123.115L177.032 116.476V90.5835Z" fill="#E7566E"/>
<path d="M216.068 90.5835L209.093 97.1806V123.115L216.068 116.476V90.5835Z" fill="#BA2027"/>
<path d="M167.686 116.581V90.7212H176.974C176.974 99.5158 183.685 106.689 191.964 106.689C200.246 106.689 206.959 99.5389 206.959 90.7427H216.022V116.581H167.686Z" fill="#BA2027"/>
<path d="M160.764 123.039V97.1804H170.052C170.052 105.975 176.767 113.145 185.048 113.145C193.33 113.145 200.042 105.977 200.042 97.1821H209.091V123.039H160.764Z" fill="#EA2E30"/>
<path d="M177.032 90.5837L170.052 97.1792V71.2483L177.032 64.6909V90.5837Z" fill="#6E3D97"/>
<path d="M167.725 64.7364L160.764 71.3203H209.092L216.068 64.7364H167.725Z" fill="#8761A9"/>
<path d="M216.068 90.5826L209.093 97.1797V71.2472L216.068 64.7343V90.5826Z" fill="#6E3D97"/>
<path d="M160.764 71.3199V97.178H170.052C170.052 88.3835 176.767 81.2164 185.048 81.2164C193.33 81.2164 200.042 88.3852 200.042 97.1797H209.091V71.3199H160.764Z" fill="#8557A3"/>
<path d="M184.551 44.9182L192.023 38.321L216.841 64.5542L209.322 71.1514L184.551 44.9182Z" fill="#CA6EAC"/>
<path d="M209.349 71.2192H184.552V44.9183L209.349 71.2192Z" fill="#BE5AA2"/>
<path d="M240.812 142.575L240.814 142.517C240.814 135.251 235.629 129.179 228.221 128.936C224.494 128.816 221.62 129.594 219.393 130.927C214.48 133.87 210.711 140.111 209.84 144.812C209.798 145.04 214.2 143.024 214.2 143.024L233.978 148.848L240.812 142.575Z" fill="#8664AB"/>
<path d="M233.979 148.848C233.979 141.585 228.436 135.682 221.596 135.682C214.756 135.682 209.21 141.585 209.21 148.848H233.979Z" fill="#8557A3"/>
<path d="M160.155 71.2192H184.552V45.3495L160.155 71.2192Z" fill="#FBD30A"/>
<g opacity="0.110001">
<g opacity="0.110001">
<path opacity="0.110001" d="M12.6804 209.68C31.5019 200.587 50.4415 205.123 74.8632 207.266C97.7261 209.272 100.466 197.266 103.454 189.856C108.86 176.45 87.7966 179.12 65.0037 176.359C42.2092 173.598 13.5407 201.672 12.6804 209.68Z" fill="#030505"/>
</g>
</g>
<path d="M95.2285 190.78C82.978 189.269 74.895 188.614 67.4031 187.787L68.7907 172.916C76.4195 172.303 87.6993 171.121 99.7989 169.856C104.418 169.373 109.011 174.913 108.076 181.669C107.061 189.014 99.7413 191.337 95.2285 190.78Z" fill="#FFDBC7"/>
<g opacity="0.110001">
<g opacity="0.110001">
<path opacity="0.110001" d="M67.9336 182.105C74.3366 181.586 81.0553 181.228 87.7927 181.401C93.5345 181.55 97.0439 185.697 98.0473 190.769C97.0486 190.886 96.0888 190.886 95.2285 190.78C82.978 189.269 74.895 188.614 67.4032 187.785L67.9336 182.105Z" fill="#531810"/>
</g>
</g>
<path d="M82.4675 165.146C82.4675 165.146 90.9021 166.438 101.672 169.856C97.5166 169.81 94.816 176.28 87.5389 183.938C73.9645 198.219 36.3263 199.49 21.2244 189.258C27.8949 177.944 34.1344 166.035 39.5853 158.988L82.4675 165.146Z" fill="#644B69"/>
<g opacity="0.220001">
<g opacity="0.220001">
<path opacity="0.220001" d="M86.7471 164.026C67.1463 179.853 39.8732 163.074 36.0557 156.637C37.6705 151.147 39.6088 147.312 41.768 140.447C51.0068 139.05 70.4551 149.534 79.2553 150.243C79.3782 156.388 86.1871 163.408 86.7471 164.026Z" fill="#030505"/>
</g>
</g>
<path d="M86.5161 185.717C67.5748 185.071 48.7814 188.049 37.2107 187.584L36.1747 200.387C47.8247 201.938 65.0236 204.441 83.4717 207.123C90.5155 208.147 96.7474 203.508 96.9838 196.765C97.1783 191.26 93.4946 185.955 86.5161 185.717Z" fill="#FFDBC7"/>
<path d="M41.5277 186.746C43.8938 187.22 47.3286 187.129 49.2 187.519L46.2505 203.405C46.2505 203.405 37.942 201.602 35.985 201.211C31.9248 198.979 37.2637 187.227 41.5277 186.746Z" fill="white"/>
<path d="M31.0547 204.014C31.9616 204.526 33.259 205.002 34.393 205.499C35.2331 205.867 40.8302 199.322 39.3555 197.816C38.9774 197.431 38.6259 197.111 38.2899 196.84C39.2543 195.726 40.3246 194.543 41.4851 193.323C44.0052 190.671 46.3915 188.417 48.1774 186.948C45.9186 184.485 41.6407 180.634 39.1097 177.919C39.1097 177.919 8.62109 201.631 8.54486 210.081C8.52308 212.46 19.8215 210.14 31.0547 204.014Z" fill="#2FAFE5"/>
<path d="M40.7302 179.583C40.1484 179.002 39.5915 178.437 39.1092 177.92C39.1092 177.92 8.62064 201.631 8.54597 210.081C8.5413 210.416 8.76687 210.657 9.18222 210.808C14.574 201.255 33.2772 185.605 40.7302 179.583Z" fill="#1A83A5"/>
<path d="M19.8874 208.954C20.001 208.764 20.1145 208.572 20.2172 208.369C22.3702 204.131 21.3232 199.095 17.8807 197.124C17.7609 197.055 17.6364 197.002 17.5151 196.942C12.4935 202.085 8.57339 207.059 8.54539 210.08C8.52983 211.64 13.3818 211.181 19.8874 208.954Z" fill="#1A83A5"/>
<path d="M23.1504 208.652C24.8118 207.324 25.9272 204.598 25.8805 202.019C25.8743 201.715 25.6363 201.472 25.3501 201.479C25.2101 201.482 25.0856 201.541 24.9954 201.639C24.8958 201.741 24.8367 201.883 24.8398 202.042C24.8818 204.286 23.9422 206.666 22.5251 207.772C22.2839 207.957 22.2497 208.302 22.4224 208.545C22.5966 208.788 22.9217 208.836 23.1504 208.652ZM25.599 206.524C25.3672 206.704 25.3516 207.069 25.5367 207.304C25.7234 207.535 26.0501 207.565 26.2694 207.367C28.0211 205.799 28.9358 203.441 28.7927 200.904C28.7755 200.6 28.5298 200.367 28.242 200.385C28.1113 200.395 27.9946 200.453 27.9075 200.545C27.8048 200.652 27.7457 200.804 27.7551 200.97C27.9231 203.963 26.4779 205.733 25.599 206.524ZM28.5111 205.269C28.2762 205.447 28.214 205.786 28.3757 206.035C28.5375 206.286 28.8627 206.351 29.0991 206.181C30.9176 204.849 31.9086 202.177 31.501 199.669C31.4528 199.37 31.1836 199.169 30.9005 199.22C30.7916 199.242 30.6967 199.296 30.6236 199.372C30.5069 199.494 30.4463 199.673 30.4774 199.859C30.8181 201.954 30.0154 204.185 28.5111 205.269Z" fill="#D2DBE7"/>
<g opacity="0.179993">
<g opacity="0.179993">
<path opacity="0.179993" d="M78.2154 185.659C76.3735 184.934 75.9784 184.747 74.7681 184.278C74.7043 184.251 78.1329 189.527 78.2854 189.859C79.0072 191.448 76.7795 192.641 74.6452 191.285C73.3618 190.472 71.4671 188.081 70.8106 187.412C71.2462 188.015 73.0803 190.571 73.4303 191.448C74.6141 194.424 71.744 194.868 69.5926 192.965C68.5441 192.035 67.2327 190.931 65.9089 189.638C66.136 190.426 67.8285 193.895 66.8096 194.969C66.0707 195.747 63.8912 194.867 61.928 192.947C59.5697 190.639 53.8793 185.155 52.6939 184.823C50.2407 183.453 50.6171 177.458 51.3809 176.504C53.3659 174.028 61.8145 172.704 65.3722 173.863C71.3364 175.809 77.6149 179.206 80.7681 184.142C81.4308 185.914 79.225 186.059 78.2154 185.659Z" fill="#6B1D0F"/>
</g>
</g>
<path d="M78.2336 185.33C76.1507 184.532 73.2588 181.036 70.9036 180.413C70.8398 180.396 70.7449 180.405 70.6376 180.423C74.1221 183.36 77.6783 188.624 78.1948 189.974C78.8154 191.596 76.356 191.805 75.2204 191.14C73.2557 189.989 72.0812 186.491 67.5543 183.179C69.9795 186.81 71.7669 188.659 73.2526 191.365C74.6339 193.881 71.8727 194.825 69.8349 192.788C68.259 191.213 65.9645 187.94 63.1893 185.022C62.8392 184.884 67.3925 192.781 66.7936 194.74C65.9256 195.347 64.0806 194.798 62.6837 192.386C61.9276 191.078 61.3645 189.457 59.3313 186.81C56.8703 185.368 53.8804 185.156 52.6935 184.823C50.2403 183.453 50.6167 177.457 51.3805 176.504C53.3671 174.027 61.8141 172.704 65.3718 173.864C71.336 175.808 74.3928 176.633 80.5251 183.896C81.1878 185.667 79.2464 185.72 78.2336 185.33Z" fill="#FFCDB1"/>
<path d="M110.71 45.1679C115.878 61.5938 119.554 58.7636 122.961 72.4667C126.108 85.129 118.977 106.219 109.327 107.542C114.436 102.097 112.563 95.3063 111.844 94.6256C111.925 99.2517 104.57 107.769 103.097 108.813C90.8062 117.553 77.2894 114.286 66.4203 115.511C52.7402 117.054 33.8238 115.294 19.3846 108.041C15.7227 106.199 12.949 97.6557 12.8028 89.9582C8.96972 95.7557 13.5775 104.502 12.6456 103.729C5.84603 98.1051 -0.438675 82.6044 8.95571 74.0677C20.6462 63.4425 8.86549 57.4832 21.7911 33.3879C46.9113 30.5561 98.2187 30.0274 110.71 45.1679Z" fill="#5C5C5C"/>
<path d="M119.485 121.483C121.969 123.555 123.295 126.755 125.955 128.566C117.194 141.677 104.252 158.596 95.5829 156.415C84.3047 144.982 90.5645 144.633 95.222 140.387C100.8 140.311 105.581 135.606 119.485 121.483Z" fill="#FFDBC7"/>
<path d="M104.302 135.226C99.4302 139.006 91.0719 146.406 87.2481 149.643C79.8932 141.085 75.4612 134.584 75.3134 133.761C73.7718 125.211 75.1174 110.293 89.5676 115.177C92.8748 120.087 98.2324 126.547 104.302 135.226Z" fill="#DA1A5F"/>
<path d="M105.582 135.606L88.294 150.31L84.6974 145.544L101.987 130.838L105.582 135.606Z" fill="#EE5FA2"/>
<path d="M39.1305 161.682C54.4565 169.495 70.2009 170.684 85.2204 164.608C85.964 145.877 88.8185 132.283 84.8424 115.118C74.552 112.442 56.1707 111.422 46.6752 112.685C44.9578 131.182 45.5894 142.612 39.1305 161.682Z" fill="#F7C0D9"/>
<path d="M79.3427 115.055C79.4532 114.33 79.4158 113.611 79.3256 112.899C72.3253 111.521 53.8679 110.34 53.8181 110.665C52.9625 116.279 57.9825 121.816 65.031 123.027C72.0795 124.241 78.4871 120.671 79.3427 115.055Z" fill="#E186B8"/>
<path d="M78.7912 166.012C81.1402 170.453 85.6312 165.817 88.3738 166.294C87.8729 145.179 89.3383 134.797 87.5742 114.644C84.5983 113.808 81.4746 113.137 77.5934 112.473C79.3388 146.767 76.9229 162.474 78.7912 166.012Z" fill="#DA1A5F"/>
<path d="M76.4045 97.7997L76.081 114.5C76.011 118.092 71.6568 120.909 66.3552 120.793C61.0552 120.679 56.8131 117.67 56.8831 114.08L57.2066 97.3801L76.4045 97.7997Z" fill="#FFCEB2"/>
<g opacity="0.179993">
<g opacity="0.179993">
<path opacity="0.179993" d="M87.3972 107.873C87.5543 107.118 87.5295 106.353 87.4439 105.588C79.0576 103.296 66.3637 100.478 57.1887 99.2601C57.0689 99.5756 56.8698 99.8516 56.7997 100.19C55.5973 106.029 61.4697 112.484 69.9198 114.605C78.3684 116.727 86.1947 113.713 87.3972 107.873Z" fill="#6B1D0F"/>
</g>
</g>
<path d="M53.3803 168.427C58.3054 164.705 56.3437 117.876 55.2657 110.34C50.325 110.474 45.9755 110.755 40.7113 112.012C39.1479 131.29 36.7538 143.265 31.0805 167.159C37.2454 170.664 48.3914 172.199 53.3803 168.427Z" fill="#DA1A5F"/>
<path d="M111.711 72.8182C110.825 81.5895 104.58 88.0132 99.3519 88.0132C94.1219 88.0132 92.3625 81.2178 92.3641 72.9057C92.3641 64.5936 96.6047 57.8346 101.832 57.8561C108.98 57.8858 112.547 64.5755 111.711 72.8182Z" fill="#F4B08B"/>
<path d="M110.798 48.5274C111.425 78.1591 93.2619 91.9266 67.4293 92.5429C41.5982 93.1592 22.3707 80.2838 21.7438 50.6505C21.1185 21.0204 41.4753 14.7983 65.7492 13.0702C91.5289 11.2346 110.171 18.8941 110.798 48.5274Z" fill="#5C5C5C"/>
<path d="M104.353 87.4072C98.9173 102.518 87.1381 109.502 75.2143 109.75C50.9451 110.257 28.4975 95.5392 27.7633 60.8122C27.029 26.0902 43.8359 24.7717 66.7751 24.2249C82.0917 23.8581 95.5494 23.863 102.106 34.4683C106.151 41.0142 107.014 80.0072 104.353 87.4072Z" fill="#FFDBC7"/>
<path d="M43.7761 83.7233C43.7061 85.4945 45.9679 87.0343 48.8303 87.1615C51.6895 87.2887 54.0665 85.9571 54.1365 84.1843C54.2065 82.4115 51.9431 80.8717 49.0823 80.7445C46.2215 80.6173 43.8461 81.9522 43.7761 83.7233Z" fill="#F59597"/>
<path d="M92.6521 82.6996C92.8154 84.4658 95.2593 85.6554 98.1092 85.3563C100.958 85.0606 103.135 83.3869 102.972 81.6224C102.809 79.8562 100.365 78.6683 97.5165 78.9641C94.6666 79.2631 92.4903 80.9351 92.6521 82.6996Z" fill="#F59597"/>
<path d="M84.5868 64.0633C82.3623 68.4763 82.8912 73.1767 85.1017 74.8503C88.4339 77.3765 96.044 77.7301 98.6823 73.674C101.235 69.7435 99.5814 62.9266 94.9784 60.2071C90.9462 57.8263 86.7383 59.7908 84.5868 64.0633Z" fill="#F9FDFF"/>
<path d="M98.6345 62.0929C94.8419 55.6477 86.5924 58.354 84.5126 64.2109C86.734 59.7996 91.1535 58.2516 94.8808 60.4506C97.1831 61.812 98.8958 64.3646 99.4621 67.279C99.9148 69.6036 99.5943 72.2537 98.5349 73.8877C99.7934 72.7907 101.424 66.8329 98.6345 62.0929Z" fill="#733D29"/>
<path d="M88.9393 67.5498C88.0868 70.5683 89.4246 73.881 91.9276 74.9483C94.4306 76.0139 97.1529 74.4295 98.0054 71.4093C98.8579 68.3908 97.5216 65.0782 95.0171 64.0109C92.5141 62.9452 89.7918 64.5296 88.9393 67.5498Z" fill="#762C16"/>
<path d="M89.3053 67.0173C89.0689 67.8566 89.4391 68.7735 90.1329 69.0693C90.8283 69.3667 91.5843 68.9255 91.8192 68.0879C92.0572 67.2519 91.6854 66.3316 90.9916 66.0359C90.2962 65.7402 89.5402 66.1796 89.3053 67.0173Z" fill="white"/>
<path d="M65.2433 64.9795C68.1648 69.1479 67.9859 73.8831 65.6229 75.7748C62.0621 78.6281 53.4471 79.7549 50.0869 75.983C46.8326 72.33 48.1035 65.3727 53.0908 62.1972C57.459 59.4166 62.4168 60.9465 65.2433 64.9795Z" fill="#F9FDFF"/>
<path d="M49.1053 64.4489C52.8372 57.6453 62.4525 59.5006 65.3429 65.1213C62.423 60.9562 57.2599 59.8625 53.223 62.4299C50.7278 64.0193 49.0089 66.7372 48.6262 69.6962C48.3213 72.0555 48.9218 74.6659 50.2736 76.1826C48.746 75.2194 46.3581 69.45 49.1053 64.4489Z" fill="#733D29"/>
<path d="M55.7015 69.0065C54.7121 72.0333 56.2211 75.3376 59.0694 76.3884C61.9193 77.4392 65.0305 75.8382 66.0199 72.8115C67.0093 69.7864 65.5019 66.482 62.6535 65.4313C59.8037 64.3788 56.6924 65.9814 55.7015 69.0065Z" fill="#762C16"/>
<path d="M56.1224 68.473C55.847 69.3123 56.267 70.2293 57.0573 70.5217C57.846 70.8125 58.7094 70.3681 58.9847 69.5304C59.26 68.6895 58.84 67.7725 58.0498 67.4801C57.2595 67.1909 56.3977 67.6337 56.1224 68.473Z" fill="white"/>
<path d="M99.4397 49.5734C99.0431 49.5337 98.6573 49.3437 98.3664 49.0084C96.0858 46.3864 91.3848 45.2596 87.4164 46.3847C86.5281 46.6441 85.601 46.0724 85.3614 45.1208C85.1218 44.1691 85.657 43.1911 86.5514 42.935C91.7114 41.4678 97.7192 43.0093 100.834 46.5846C101.464 47.3116 101.42 48.44 100.74 49.1091C100.375 49.4693 99.8986 49.6197 99.4397 49.5734Z" fill="#762C16"/>
<path d="M48.016 52.5803C47.4964 52.6894 46.9426 52.6035 46.4946 52.2945C45.6655 51.7212 45.5255 50.5994 46.1835 49.7915C49.4379 45.7998 56.1519 43.4405 62.1644 44.1972C63.2051 44.3277 63.8927 45.2298 63.6982 46.2128C63.5038 47.1942 62.4926 47.8832 61.4581 47.756C56.8426 47.1711 51.5753 48.9455 49.1936 51.8699C48.8887 52.2449 48.464 52.4862 48.016 52.5803Z" fill="#762C16"/>
<path d="M78.9173 78.7051C78.7322 78.7101 78.5657 78.5713 78.53 78.373C78.2779 76.9555 77.1999 76.0617 75.7843 76.0963C74.3609 76.1294 73.2984 77.0926 73.1397 78.492C73.1133 78.7167 72.922 78.8769 72.7104 78.8489C72.4988 78.8224 72.3479 78.6176 72.3744 78.3945C72.5782 76.6036 73.972 75.3198 75.7687 75.2785C77.5515 75.2339 78.9655 76.4169 79.2875 78.2194C79.328 78.4424 79.1895 78.6572 78.9811 78.6985L78.9173 78.7051Z" fill="#C4745C"/>
<path d="M87.376 88.7423C87.2858 94.2308 81.502 98.5743 74.4535 98.4454C67.4065 98.3149 61.7658 93.7615 61.856 88.273C61.9447 82.7862 67.9167 83.9262 74.9699 83.6899C82.0153 83.4553 87.4662 83.2538 87.376 88.7423Z" fill="#601510"/>
<path d="M75.2955 93.2635C71.4874 93.1925 68.1272 94.3176 66.1796 96.0689C68.4057 97.5741 71.2883 98.5125 74.4524 98.5703C78.0132 98.6364 81.2567 97.5757 83.6305 95.8095C81.6782 94.3143 78.6774 93.3247 75.2955 93.2635Z" fill="#D46754"/>
<path d="M83.8637 83.9235C81.605 83.3453 78.4891 83.451 74.9765 83.5683C71.0143 83.7005 67.3944 83.4097 64.9272 84.0607C65.8994 86.2894 69.6843 88.0044 74.2422 88.0886C79.13 88.1779 83.187 86.3621 83.8637 83.9235Z" fill="white"/>
<path d="M40.7257 53.9433C40.6572 68.1272 35.7679 77.2637 29.9546 77.3859C24.1428 77.5065 15.4904 63.7374 16.822 49.6229C18.4897 31.9413 27.1 23.4508 32.9149 22.3488C38.6349 21.265 40.8035 37.8197 40.7257 53.9433Z" fill="#5C5C5C"/>
<path d="M18.7327 80.914C21.6293 90.2339 30.6706 95.5902 37.1388 94.2156C43.6056 92.841 41.1135 64.731 29.2005 63.0871C19.2803 61.7191 16.0089 72.1542 18.7327 80.914Z" fill="#FFDBC7"/>
<path d="M25.9549 80.0249C26.7032 83.9934 31.132 87.0929 34.2557 85.7744C35.4738 85.2606 32.5539 71.4385 30.5704 71.569C27.215 71.7921 25.2082 76.0563 25.9549 80.0249Z" fill="#E0946D"/>
<path d="M67.3169 15.7843C94.4905 14.6228 100.302 22.269 100.424 24.2169C100.85 31.085 95.5592 37.5731 93.7671 37.2972C92.994 37.1766 94.2867 33.593 93.9911 28.7109C90.7072 35.9622 82.8124 40.9468 80.6144 40.1703C79.4508 39.7589 84.1207 35.4121 85.0448 28.2102C83.052 34.0523 77.864 41.3483 69.4217 42.2653C62.2876 43.0418 54.508 39.0815 49.4989 34.7413C50.3233 39.4136 53.9184 40.9766 53.1483 41.4425C50.9829 42.756 37.9515 43.1244 34.5665 31.1181C34.0345 29.2313 44.4571 16.764 67.3169 15.7843Z" fill="#5C5C5C"/>
<path d="M27.4194 42.2388C31.17 28.648 40.3684 14.6772 63.4553 11.6505C82.2223 9.19038 94.7746 14.6706 102.319 25.0446C91.8034 18.0857 80.9482 14.2758 63.46 16.9424C49.8623 19.0142 37.2867 25.9698 27.4194 42.2388Z" fill="#8557A3"/>
<path d="M33.8135 28.2774C34.1448 37.9806 15.9223 47.5401 4 32.8407C17.5277 19.5804 25.6542 22.1859 33.8135 28.2774Z" fill="#6E3D97"/>
<g opacity="0.279999">
<g opacity="0.279999">
<path opacity="0.279999" d="M32.2501 28.5385C32.1319 26.3378 24.1718 25.7529 19.1021 30.3047C24.5249 35.8625 32.6095 35.1554 32.2501 28.5385Z" fill="#030505"/>
</g>
</g>
<path d="M31.6866 25.6367C41.8183 31.8009 57.1116 18.529 40.5443 -7.05719e-05C33.0244 14.055 28.3451 17.8962 31.6866 25.6367Z" fill="#6E3D97"/>
<g opacity="0.279999">
<g opacity="0.279999">
<path opacity="0.279999" d="M34.16 25.256C33.127 21.912 39.1535 19.3247 40.9611 13.8857C42.5463 17.3735 40.0558 28.5422 34.16 25.256Z" fill="#030505"/>
</g>
</g>
<path d="M36.6102 30.3501C35.0048 32.0138 32.3276 31.9527 30.632 30.2146C28.9348 28.4765 28.8648 25.719 30.4702 24.0569C32.0756 22.3949 34.7528 22.456 36.4484 24.1924C38.1441 25.9305 38.2172 28.6863 36.6102 30.3501Z" fill="#8557A3"/>
<path d="M60.6797 173.816C58.3587 176.093 54.2644 179.148 52.158 181.647C38.4608 168.068 26.4685 153.751 27.3304 141.838C30.7823 140.718 39.3397 142.735 42.2861 144.008C41.4694 149.87 44.3131 156.306 60.6797 173.816Z" fill="#FFCDB1"/>
<path d="M25.1937 141.527C30.3926 143.666 40.7499 146.308 44.9517 146.33C46.6551 137.492 53.2042 111.036 53.2571 110.542C44.7152 110.772 38.4538 112.419 36.6524 113.179C33.1803 116.989 29.0392 129.669 25.1937 141.527Z" fill="#DA1A5F"/>
<path d="M25.8014 135.714L47.0869 142.22L45.4955 148.089L24.2115 141.584L25.8014 135.714Z" fill="#EE5FA2"/>
<path d="M117.303 124.663C118.78 129.355 122.46 132.178 127.048 130.549C131.635 128.919 135.394 123.455 133.918 118.763C132.44 114.071 127.522 111.587 122.935 113.215C118.347 114.846 115.827 119.969 117.303 124.663Z" fill="#FFDBC7"/>
<g opacity="0.110001">
<g opacity="0.110001">
<path opacity="0.110001" d="M122.701 122.037C123.933 125.133 126.422 126.975 128.258 126.151C130.096 125.326 130.585 122.148 129.353 119.05C128.121 115.952 125.632 114.11 123.795 114.934C121.957 115.759 121.467 118.939 122.701 122.037Z" fill="#531810"/>
</g>
</g>
<path d="M143.472 104.842C137.76 101.291 130.405 102.889 126.592 109.342C124.674 112.589 123.881 115.518 123.842 118.147C123.753 123.944 126.82 130.338 130.088 133.409C130.248 133.558 130.816 128.669 130.816 128.669L145.078 113.976L143.472 104.842Z" fill="#35B5E8"/>
<path d="M145.078 113.977C139.364 110.427 132.002 112.449 128.657 118.518C125.312 124.586 127.232 132.384 132.946 135.937L145.078 113.977Z" fill="#12A4DD"/>
<path d="M116.087 122.362C115.351 126.286 119.285 127.469 121.303 125.597C125.056 122.114 121.693 117.191 122.934 116.581C126.354 114.901 128.102 112.862 127.477 111.251C127.047 110.144 123.753 111.671 119.867 113.457C118.621 114.028 116.278 120.53 116.087 122.362Z" fill="#FFDBC7"/>

</svg>
