<svg width="121" height="203" viewBox="0 0 121 203" fill="none" xmlns="http://www.w3.org/2000/svg">
<path d="M25.9846 121.143C24.97 121.36 24.5 120.5 23 120C16.6002 114.335 -0.214112 15.6456 5 -78.9999H2.00001C-3.2141 15.6456 11.6667 115.531 18.067 121.196C19.0712 122.085 20.0205 122.402 20.9235 122.238L25.9846 121.143Z" fill="#25B9F3"/>
<path d="M36 118.812C34.7431 119.135 33.5051 118.845 32.2975 117.791C25.8047 112.121 5.71017 15.712 11 -79H7.99999C2.71013 15.712 20.9378 113.211 27.4311 118.879C28.5754 119.878 29.7218 120.173 30.865 119.907L36 118.812Z" fill="#EB4799"/>
<path d="M31 119.838C29.8842 120.104 28.7659 119.809 27.6491 118.81C21.3137 113.144 2.83854 15.6787 7.99998 -79H4.97288C-0.188559 15.6787 16.5652 114.232 22.9006 119.899C23.9559 120.843 24.9853 121.151 25.9897 120.934L31 119.838Z" fill="#2D459C"/>
<path d="M35.9195 119.874C34.676 120.2 33.4511 119.907 32.2563 118.847C25.8325 113.148 5.76626 16.2207 11 -79H14C8.766 16.2207 30.6472 112.054 37.0716 117.753C38.3285 118.868 39.6435 119.152 41 118.773L35.9195 119.874Z" fill="#79CE4B"/>
<path d="M39.9684 117.842C38.625 118.219 37.3225 117.937 36.0778 116.827C29.7155 111.155 8.81659 15.7725 14 -79H17C11.8166 15.7725 35.4842 110.065 41.8468 115.738C43.153 116.902 44.5452 117.176 46 116.745L39.9684 117.842Z" fill="#E7BC04"/>
<path d="M49.8468 87.832C41.9767 88.6324 35.5271 120.365 25.7533 121.6L20.7002 122.266C30.0939 121.228 34.3987 88.4609 42.3156 87.6557L49.8468 87.832Z" fill="#25B9F3"/>
<path d="M79.9711 88.538C72.2887 89.3193 57.2593 116.912 45.9663 118.935L40.913 119.601C51.8261 117.775 64.7105 89.1475 72.4399 88.3614L79.9711 88.538Z" fill="#E7BC04"/>
<path d="M57.3778 88.0084C49.5548 88.804 40.957 119.476 30.8066 120.933L25.7532 121.599C35.5271 120.365 41.9769 88.6325 49.8468 87.8319L57.3778 88.0084Z" fill="#2D459C"/>
<path d="M64.9089 88.185C57.1327 88.976 46.3931 118.638 35.8598 120.267L30.8065 120.933C40.9569 119.476 49.5548 88.8042 57.3777 88.0084L64.9089 88.185Z" fill="#EB4799"/>
<path d="M72.44 88.3613C64.7106 89.1475 51.8263 117.775 40.9131 119.601L35.8598 120.267C46.3931 118.638 57.1327 88.9757 64.9088 88.185L72.44 88.3613Z" fill="#79CE4B"/>
<path d="M119 203C127.156 148.726 89.1797 87.6011 79.9712 88.5379L72.44 88.3613C81.6484 87.4248 113.757 153.183 98 203H119Z" fill="#E7BC04"/>
<path d="M49.8469 87.8319L42.7857 87.6665C51.7048 88.9288 56.3672 171.558 11 203H32C70.5578 166.552 59.0551 86.8953 49.8469 87.8319Z" fill="#25B9F3"/>
<path d="M57.3778 88.0083L50.3375 87.8434C59.4755 89.0996 69.8769 167.196 32 203H54C84.9575 162.096 66.5862 87.0717 57.3778 88.0083Z" fill="#2D459C"/>
<path d="M64.9089 88.185L57.892 88.0206C67.2628 89.2756 84.3921 162.843 54 203H76C99.3569 157.639 74.1174 87.2482 64.9089 88.185Z" fill="#EB4799"/>
<path d="M72.44 88.3613L65.45 88.1974C75.0706 89.4567 98.9143 158.498 76 203H98C113.757 153.182 81.6485 87.4247 72.44 88.3613Z" fill="#79CE4B"/>
</svg>
