<svg width="13" height="23" viewBox="0 0 13 23" fill="none" xmlns="http://www.w3.org/2000/svg">
<path d="M1.04208 22.5907C0.831283 22.3512 0.721094 22.0717 0.711512 21.7524C0.701931 21.433 0.81212 21.1536 1.04208 20.914L10.0967 11.4828L1.04208 2.05152C0.831283 1.83196 0.721094 1.55751 0.711512 1.22816C0.701931 0.898814 0.81212 0.614379 1.04208 0.374855C1.25288 0.135331 1.51637 0.010579 1.83257 0.000598809C2.14876 -0.00938136 2.42184 0.105391 2.6518 0.344915L12.7413 10.854C12.8371 10.9538 12.9042 11.0536 12.9425 11.1534C12.9808 11.2532 13 11.363 13 11.4828C13 11.6025 12.9808 11.7123 12.9425 11.8121C12.9042 11.9119 12.8371 12.0117 12.7413 12.1115L2.6518 22.6207C2.441 22.8402 2.17751 22.95 1.86131 22.95C1.54512 22.95 1.27204 22.8302 1.04208 22.5907V22.5907Z" fill="#98A2B3"/>
</svg>
