<svg width="16" height="15" viewBox="0 0 16 15" fill="none" xmlns="http://www.w3.org/2000/svg">
<path d="M7.98843 0C3.84053 0 0.474121 3.36 0.474121 7.5C0.474121 11.64 3.84053 15 7.98843 15C12.1363 15 15.5027 11.64 15.5027 7.5C15.5027 3.36 12.1363 0 7.98843 0ZM5.95205 10.7175L3.25442 8.025C2.96136 7.7325 2.96136 7.26 3.25442 6.9675C3.54747 6.675 4.02088 6.675 4.31393 6.9675L6.48557 9.1275L11.6554 3.9675C11.9485 3.675 12.4219 3.675 12.7149 3.9675C13.008 4.26 13.008 4.7325 12.7149 5.025L7.01157 10.7175C6.72603 11.01 6.24511 11.01 5.95205 10.7175Z" fill="white"/>
</svg>
