<svg width="13" height="14" viewBox="0 0 13 14" fill="none" xmlns="http://www.w3.org/2000/svg">
<path d="M5.70829 13.6668C5.48398 13.6668 5.29596 13.587 5.14422 13.4272C4.99249 13.2675 4.91662 13.0696 4.91662 12.8335V7.8335L0.186412 1.47933C0.00169007 1.24322 -0.0246989 0.993218 0.107246 0.729329C0.23919 0.46544 0.443704 0.333496 0.720787 0.333496H12.2791C12.5562 0.333496 12.7607 0.46544 12.8927 0.729329C13.0246 0.993218 12.9982 1.24322 12.8135 1.47933L8.08329 7.8335V12.8335C8.08329 13.0696 8.00742 13.2675 7.85568 13.4272C7.70395 13.587 7.51593 13.6668 7.29162 13.6668H5.70829Z" fill="#314196"/>
</svg>
