<svg width="8" height="11" viewBox="0 0 8 11" fill="none" xmlns="http://www.w3.org/2000/svg">
<path d="M3.99238 2.49985V3.39485C3.99238 3.61985 4.26187 3.72985 4.41657 3.56985L5.80891 2.17485C5.90872 2.07485 5.90872 1.91985 5.80891 1.81985L4.41657 0.424848C4.26187 0.269848 3.99238 0.379848 3.99238 0.604848V1.49985C1.78659 1.49985 0 3.28985 0 5.49985C0 6.01985 0.0998096 6.51985 0.284457 6.97485C0.4192 7.30985 0.848381 7.39985 1.1029 7.14485C1.23764 7.00985 1.29253 6.80485 1.21768 6.62485C1.07295 6.27985 0.998095 5.89485 0.998095 5.49985C0.998095 3.84485 2.34053 2.49985 3.99238 2.49985ZM6.88187 3.85485C6.74712 3.98985 6.69223 4.19985 6.76708 4.37485C6.90682 4.72485 6.98667 5.10485 6.98667 5.49985C6.98667 7.15485 5.64423 8.49985 3.99238 8.49985V7.60485C3.99238 7.37985 3.72289 7.26985 3.56819 7.42985L2.17585 8.82485C2.07604 8.92485 2.07604 9.07985 2.17585 9.17985L3.56819 10.5748C3.72289 10.7298 3.99238 10.6198 3.99238 10.3998V9.49985C6.19817 9.49985 7.98476 7.70985 7.98476 5.49985C7.98476 4.97985 7.88495 4.47985 7.7003 4.02485C7.56556 3.68985 7.13638 3.59985 6.88187 3.85485Z" fill="#FF8800"/>
</svg>
