<svg width="16" height="18" viewBox="0 0 16 18" fill="none" xmlns="http://www.w3.org/2000/svg">
<path d="M8.04167 5.0835C7.91667 5.2085 7.77083 5.271 7.60417 5.271C7.4375 5.271 7.29167 5.2085 7.16667 5.0835L5.125 3.04183L5.125 15.9377C5.125 16.1182 5.06597 16.2675 4.94792 16.3856C4.82986 16.5036 4.68056 16.5627 4.5 16.5627C4.31944 16.5627 4.17014 16.5036 4.05208 16.3856C3.93403 16.2675 3.875 16.1182 3.875 15.9377L3.875 3.04183L1.79167 5.12516C1.68056 5.23627 1.54167 5.29183 1.375 5.29183C1.20833 5.29183 1.0625 5.22933 0.9375 5.10433C0.8125 4.97933 0.749999 4.8335 0.749999 4.66683C0.749999 4.50016 0.8125 4.35433 0.9375 4.22933L4.0625 1.10433C4.13194 1.03488 4.20139 0.986274 4.27083 0.958496C4.34028 0.930718 4.41667 0.916828 4.5 0.916828C4.58333 0.916828 4.65972 0.930718 4.72917 0.958496C4.79861 0.986274 4.86806 1.03488 4.9375 1.10433L8.0625 4.22933C8.17361 4.34044 8.22917 4.47933 8.22917 4.646C8.22917 4.81266 8.16667 4.9585 8.04167 5.0835ZM15.0625 13.7918L11.9583 16.896C11.8889 16.9654 11.8194 17.0141 11.75 17.0418C11.6806 17.0696 11.6042 17.0835 11.5208 17.0835C11.4375 17.0835 11.3611 17.0696 11.2917 17.0418C11.2222 17.0141 11.1528 16.9654 11.0833 16.896L7.9375 13.7502C7.82639 13.6391 7.77083 13.5002 7.77083 13.3335C7.77083 13.1668 7.83333 13.021 7.95833 12.896C8.08333 12.771 8.22917 12.7085 8.39583 12.7085C8.5625 12.7085 8.70833 12.771 8.83333 12.896L10.8958 14.9585L10.8958 2.06266C10.8958 1.88211 10.9549 1.7328 11.0729 1.61475C11.191 1.49669 11.3403 1.43766 11.5208 1.43766C11.7014 1.43766 11.8507 1.49669 11.9688 1.61475C12.0868 1.7328 12.1458 1.88211 12.1458 2.06266L12.1458 14.9585L14.2083 12.896C14.3194 12.7849 14.4583 12.7293 14.625 12.7293C14.7917 12.7293 14.9375 12.7918 15.0625 12.9168C15.1875 13.0418 15.25 13.1877 15.25 13.3543C15.25 13.521 15.1875 13.6668 15.0625 13.7918V13.7918Z" fill="#314196"/>
</svg>
