<svg width="80" height="80" viewBox="0 0 80 80" fill="none" xmlns="http://www.w3.org/2000/svg">
<circle cx="40" cy="40" r="40" fill="#F2F4F7"/>
<mask id="mask0_10947_35781" style="mask-type:alpha" maskUnits="userSpaceOnUse" x="0" y="0" width="80" height="80">
<circle cx="40" cy="40" r="40" fill="#F2F4F7"/>
</mask>
<g mask="url(#mask0_10947_35781)">
<path d="M67.9163 102.354C66.1282 102.354 64.6813 103.801 64.6813 105.589V108.824H19.3912V105.589C19.3912 103.801 17.9443 102.354 16.1562 102.354C14.3681 102.354 12.9212 103.801 12.9212 105.589V112.059C12.9212 113.847 14.3681 115.294 16.1562 115.294H67.9163C69.7044 115.294 71.1513 113.847 71.1513 112.059V105.589C71.1513 103.801 69.7044 102.354 67.9163 102.354ZM40.4505 27.9438L35.5662 27.5172C35.5662 20.3805 29.7596 14.5771 22.6262 14.5771C15.4928 14.5771 9.68621 20.3805 9.68621 27.5172C9.68621 34.0277 14.5348 39.3752 20.7987 40.2724L-0.0187988 53.3325V71.1046C-0.0187988 76.4745 4.31589 80.8097 9.68621 80.8097H74.3863C79.7568 80.8097 84.0913 76.4745 84.0913 71.1046V40.5219L40.4505 27.9438Z" fill="#98A2B3"/>
<path d="M74.2915 -6H9.59137C4.22126 -6 -0.113647 -1.66509 -0.113647 3.70501V51.9952C33.3363 53.0302 50.4818 38.1494 83.9965 39.1848V3.70501C83.9965 -1.66509 79.662 -6 74.2915 -6ZM22.5314 35.8849C17.1798 35.8849 12.8264 31.5314 12.8264 26.1799C12.8264 20.8283 17.1798 16.4748 22.5314 16.4748C27.8829 16.4748 32.2364 20.8283 32.2364 26.1799C32.2364 31.5314 27.8829 35.8849 22.5314 35.8849Z" fill="#E4E7EC"/>
</g>
</svg>
