<svg width="12" height="13" viewBox="0 0 12 13" fill="none" xmlns="http://www.w3.org/2000/svg">
<path d="M6 9.5C6.14 9.5 6.2575 9.4525 6.3525 9.3575C6.4475 9.2625 6.495 9.145 6.495 9.005C6.495 8.865 6.4475 8.7475 6.3525 8.6525C6.2575 8.5575 6.14 8.51 6 8.51C5.86 8.51 5.7425 8.5575 5.6475 8.6525C5.5525 8.7475 5.505 8.865 5.505 9.005C5.505 9.145 5.5525 9.2625 5.6475 9.3575C5.7425 9.4525 5.86 9.5 6 9.5ZM6 12.5C5.18 12.5 4.405 12.3425 3.675 12.0275C2.945 11.7125 2.3075 11.2825 1.7625 10.7375C1.2175 10.1925 0.7875 9.555 0.4725 8.825C0.1575 8.095 0 7.315 0 6.485C0 5.665 0.1575 4.89 0.4725 4.16C0.7875 3.43 1.2175 2.795 1.7625 2.255C2.3075 1.715 2.945 1.2875 3.675 0.9725C4.405 0.6575 5.185 0.5 6.015 0.5C6.835 0.5 7.61 0.6575 8.34 0.9725C9.07 1.2875 9.705 1.715 10.245 2.255C10.785 2.795 11.2125 3.43 11.5275 4.16C11.8425 4.89 12 5.67 12 6.5C12 7.32 11.8425 8.095 11.5275 8.825C11.2125 9.555 10.785 10.1925 10.245 10.7375C9.705 11.2825 9.07 11.7125 8.34 12.0275C7.61 12.3425 6.83 12.5 6 12.5ZM6.045 7.205C6.175 7.205 6.2825 7.1625 6.3675 7.0775C6.4525 6.9925 6.495 6.885 6.495 6.755V3.86C6.495 3.73 6.4525 3.6225 6.3675 3.5375C6.2825 3.4525 6.175 3.41 6.045 3.41C5.915 3.41 5.8075 3.4525 5.7225 3.5375C5.6375 3.6225 5.595 3.73 5.595 3.86V6.755C5.595 6.885 5.6375 6.9925 5.7225 7.0775C5.8075 7.1625 5.915 7.205 6.045 7.205Z" fill="#EB4747"/>
</svg>
