<svg width="32" height="35" viewBox="0 0 32 35" fill="none" xmlns="http://www.w3.org/2000/svg">
<path fill-rule="evenodd" clip-rule="evenodd" d="M12.0438 0.117021C10.6475 0.433985 8.97518 1.23843 7.60773 2.25095C7.30838 2.47267 6.89449 2.74465 6.68797 2.85538C5.21727 3.64424 4.53494 5.38382 5.00813 7.13855C5.05446 7.31056 5.03869 7.32719 4.76054 7.40002C2.38357 8.02178 0.749355 10.7082 1.30802 13.0754L1.39674 13.4516L1.0318 13.9196C-0.133964 15.4149 -0.328388 17.4431 0.532772 19.1261L0.795946 19.6406L0.534612 20.1514C-0.567653 22.3056 0.190428 25.24 2.14492 26.3848L2.43008 26.5518L2.43533 27.2849C2.45118 29.4542 3.90008 31.5579 5.86482 32.2641C6.07256 32.3387 6.23178 32.4503 6.30333 32.5714C8.24092 35.8499 13.6377 35.7979 15.5005 32.4828C15.7255 32.0824 15.7118 32.0824 15.9368 32.4828C17.7996 35.7979 23.1964 35.8499 25.134 32.5714C25.2055 32.4503 25.3647 32.3387 25.5725 32.2641C27.5372 31.5579 28.9861 29.4542 29.002 27.2849L29.0072 26.5518L29.2924 26.3848C31.2469 25.24 32.0049 22.3056 30.9027 20.1514L30.6413 19.6406L30.9045 19.1261C31.7657 17.4431 31.5713 15.4149 30.4055 13.9196L30.0406 13.4516L30.1293 13.0754C30.6879 10.7082 29.0537 8.02178 26.6767 7.40002C26.3986 7.32719 26.3828 7.31056 26.4292 7.13855C26.9068 5.36719 26.2263 3.65685 24.716 2.83279C24.4902 2.70954 24.0219 2.40186 23.6753 2.14888C20.6556 -0.055073 17.6185 -0.595951 16.0779 0.795942L15.7186 1.12043L15.3594 0.795942C14.5708 0.0834949 13.32 -0.172632 12.0438 0.117021ZM14.0576 1.37148C14.4214 1.55723 14.7649 1.89783 14.9361 2.24272C15.0748 2.52204 15.1888 10.2572 15.0532 10.1891C13.6382 9.47783 12.7081 9.4984 12.7081 10.241C12.7081 10.579 12.9282 10.8033 13.3087 10.8531C14.0516 10.9503 14.6168 11.3085 14.9197 11.874L15.0686 12.1522L15.087 19.1546L15.1054 26.1571L14.599 25.6764C13.5591 24.689 12.123 24.1172 11.7129 24.5271C11.3493 24.8905 11.5349 25.3631 12.1286 25.5851C15.0256 26.6685 16.0246 29.9057 14.1816 32.2387C12.3704 34.5313 8.78627 34.3103 7.26801 31.8123C7.08584 31.5126 6.96709 31.3982 6.74026 31.3039C4.53231 30.3863 3.65048 29.1367 3.64479 26.9173C3.64208 25.8294 3.6356 25.8125 3.12598 25.5543C1.49754 24.7296 0.720804 22.4222 1.53835 20.8385L1.65816 20.6064L2.10288 20.9076C3.06441 21.5589 4.57409 21.9367 5.10937 21.66C5.75097 21.3284 5.37885 20.5296 4.58285 20.5296C1.65465 20.5296 0.138231 16.6435 2.2099 14.4486C2.73932 13.8877 2.77049 13.777 2.58001 13.1376C1.52793 9.60677 5.79747 6.93319 8.48036 9.44264C9.19605 10.1121 9.55267 10.8623 9.66705 11.9391C9.77486 12.9542 10.8626 12.9487 10.8596 11.933C10.8528 9.65815 9.00522 7.59767 6.69796 7.29174C6.37243 7.24858 6.34694 7.23029 6.23992 6.96365C5.13258 4.20455 9.04603 2.27108 10.5491 4.83463C10.8271 5.30872 11.2688 5.43407 11.5919 5.13067C12.1537 4.60319 11.0718 3.14669 9.74718 2.64713L9.42043 2.52397L9.64454 2.3861C11.2426 1.40335 13.2263 0.947202 14.0576 1.37148ZM18.866 1.2492C19.6353 1.37376 21.0235 1.91306 21.7927 2.3861L22.0169 2.52397L21.6901 2.64713C20.3745 3.14328 19.3108 4.56248 19.8358 5.12104C20.138 5.44256 20.6065 5.31502 20.8882 4.83463C22.3913 2.27108 26.3047 4.20455 25.1974 6.96365C25.0903 7.23029 25.0649 7.24858 24.7393 7.29174C22.4321 7.59767 20.5845 9.65815 20.5777 11.933C20.5747 12.9487 21.6624 12.9542 21.7702 11.9391C21.8846 10.8623 22.2412 10.1121 22.9569 9.44264C25.6398 6.93319 29.9094 9.60677 28.8573 13.1376C28.6668 13.777 28.698 13.8877 29.2274 14.4486C31.2991 16.6435 29.7826 20.5296 26.8544 20.5296C26.0584 20.5296 25.6863 21.3284 26.3279 21.66C26.8632 21.9367 28.3729 21.5589 29.3344 20.9076L29.7791 20.6064L29.8989 20.8385C30.7165 22.4222 29.9398 24.7296 28.3113 25.5543C27.8017 25.8125 27.7952 25.8294 27.7925 26.9173C27.7868 29.1367 26.905 30.3863 24.697 31.3039C24.4702 31.3982 24.3514 31.5126 24.1693 31.8123C22.4328 34.6693 18.182 34.4428 16.7416 31.4165C16.3149 30.52 16.3356 31.1012 16.3354 20.0219L16.3352 9.90605L16.4944 9.55837C16.7914 8.91008 17.1995 8.61185 17.9975 8.4598C18.5565 8.35336 18.7292 8.20551 18.7292 7.83314C18.7292 7.15544 17.6427 7.0595 16.6253 7.64739L16.3344 7.81537V5.25821C16.3344 2.56476 16.3444 2.4648 16.6594 1.98519C17.0942 1.32325 17.8227 1.08026 18.866 1.2492ZM26.1972 11.0472C26.085 11.1666 26.0302 11.345 25.9822 11.7481C25.6172 14.8081 22.3842 16.1089 19.9613 14.1705C19.3832 13.708 18.9004 13.751 18.7684 14.2767C18.6254 14.8461 20.0093 15.9248 21.1722 16.1504C21.7789 16.268 21.8532 16.3144 21.9077 16.609C22.1688 18.0219 23.7529 19.2986 25.2448 19.2986C26.2991 19.2986 26.2877 18.2232 25.2322 18.113C24.421 18.0282 23.6667 17.5383 23.2975 16.8564C22.9999 16.3068 23.0051 16.294 23.5817 16.1462C25.358 15.6914 26.7341 14.2459 27.1048 12.4457C27.2827 11.5817 27.2114 11.048 26.9023 10.9295C26.6586 10.836 26.3468 10.8881 26.1972 11.0472ZM5.60428 11.6608C5.30003 11.9845 5.47992 13.2873 5.96475 14.2722C6.55512 15.4714 7.77553 16.4401 9.09849 16.7595C9.62151 16.8857 9.63132 16.9074 9.38557 17.392C9.01503 18.1229 8.36283 18.5686 7.45875 18.709C6.40404 18.8727 6.3155 19.9141 7.35629 19.9141C8.87823 19.9141 10.5181 18.5984 10.757 17.1857C10.8057 16.8974 10.8264 16.8829 11.3055 16.8029C12.3948 16.621 13.8713 15.6071 13.8713 15.041C13.8713 14.4161 13.3051 14.2582 12.7411 14.7257C10.2626 16.7806 6.63639 15.2036 6.61984 12.0636C6.61721 11.5655 5.94461 11.2987 5.60428 11.6608ZM18.0108 19.9683C17.3141 20.1099 17.465 21.145 18.1823 21.145C19.9627 21.145 21.6887 22.7695 21.7427 24.496C21.7632 25.1475 21.7728 25.1283 21.3031 25.371C19.7074 26.1957 18.3345 28.6854 18.8265 29.8624C19.1231 30.5717 19.8672 30.2568 19.9655 29.3804C20.1741 27.5215 21.4755 26.214 23.3226 26.0075C24.4723 25.8789 24.5644 24.7868 23.4231 24.814L22.9902 24.8244L22.9481 24.3268C22.8048 22.6323 21.7538 21.1486 20.1648 20.3975C19.5662 20.1146 18.4174 19.8857 18.0108 19.9683ZM10.895 21.1843C10.8198 21.201 10.5888 21.2483 10.3819 21.2894C8.52756 21.6569 6.69288 23.7234 6.68613 25.452C6.68421 25.9579 6.6462 26.0005 6.1971 26.0005C5.06216 26.0005 5.16954 27.0975 6.31725 27.2283C8.15369 27.4376 9.41999 28.6887 9.63955 30.5106C9.77731 31.6543 10.8633 31.8274 10.8596 30.7051C10.8543 29.0854 9.79141 27.3545 8.33113 26.5875L7.85023 26.335L7.85128 25.9797C7.85654 24.1358 9.26647 22.6227 11.206 22.3797C11.8929 22.2936 12.0551 22.1753 12.0551 21.7606C12.0551 21.288 11.5516 21.038 10.895 21.1843Z" fill="white"/>
<path opacity="0.9" fill-rule="evenodd" clip-rule="evenodd" d="M26.197 11.0473C26.0848 11.1667 26.0301 11.3451 25.982 11.7483C25.6171 14.8083 22.384 16.1091 19.9612 14.1707C19.3831 13.7082 18.9002 13.7512 18.7683 14.2769C18.6252 14.8463 20.0092 15.925 21.172 16.1505C21.7788 16.2682 21.853 16.3146 21.9075 16.6092C22.1687 18.022 23.7528 19.2988 25.2447 19.2988C26.299 19.2988 26.2876 18.2234 25.2321 18.1132C24.4209 18.0283 23.6665 17.5385 23.2974 16.8566C22.9998 16.307 23.005 16.2942 23.5816 16.1464C25.3579 15.6916 26.734 14.246 27.1047 12.4459C27.2826 11.5819 27.2113 11.0482 26.9022 10.9297C26.6585 10.8362 26.3466 10.8883 26.197 11.0473ZM5.60414 11.661C5.2999 11.9847 5.47978 13.2875 5.96462 14.2724C6.55499 15.4716 7.77539 16.4403 9.09836 16.7597C9.62138 16.8859 9.63118 16.9075 9.38544 17.3922C9.01489 18.1231 8.3627 18.5688 7.45862 18.7092C6.40391 18.8729 6.31537 19.9143 7.35615 19.9143C8.8781 19.9143 10.518 18.5986 10.7568 17.1859C10.8055 16.8976 10.8263 16.8831 11.3053 16.8031C12.3946 16.6212 13.8711 15.6073 13.8711 15.0412C13.8711 14.4163 13.3049 14.2584 12.7409 14.7259C10.2625 16.7808 6.63626 15.2038 6.61971 12.0638C6.61708 11.5656 5.94447 11.2989 5.60414 11.661ZM18.0106 19.9685C17.3139 20.1101 17.4648 21.1452 18.1822 21.1452C19.9626 21.1452 21.6886 22.7697 21.7426 24.4962C21.763 25.1477 21.7727 25.1285 21.303 25.3712C19.7073 26.1959 18.3344 28.6856 18.8264 29.8626C19.123 30.5719 19.8671 30.257 19.9654 29.3806C20.174 27.5217 21.4753 26.2142 23.3224 26.0077C24.4722 25.8791 24.5642 24.787 23.423 24.8142L22.9901 24.8246L22.948 24.327C22.8047 22.6325 21.7536 21.1488 20.1646 20.3977C19.5661 20.1147 18.4172 19.8858 18.0106 19.9685ZM10.8949 21.1845C10.8196 21.2012 10.5887 21.2485 10.3817 21.2896C8.52743 21.6571 6.69275 23.7236 6.686 25.4522C6.68408 25.9581 6.64607 26.0007 6.19696 26.0007C5.06203 26.0007 5.1694 27.0977 6.31712 27.2284C8.15356 27.4378 9.41986 28.6889 9.63942 30.5108C9.77718 31.6545 10.8632 31.8276 10.8595 30.7053C10.8541 29.0856 9.79128 27.3547 8.33099 26.5877L7.8501 26.3352L7.85115 25.9798C7.8564 24.136 9.26633 22.6229 11.2058 22.3799C11.8927 22.2938 12.0549 22.1755 12.0549 21.7608C12.0549 21.2882 11.5514 21.0382 10.8949 21.1845Z" fill="white"/>
</svg>
