<svg width="60" height="65" viewBox="0 0 60 65" fill="none" xmlns="http://www.w3.org/2000/svg">
<defs>
<linearGradient id="paint0_linear_1753_112" x1="30" y1="0.115967" x2="30" y2="64.5112" gradientUnits="userSpaceOnUse">
<stop stop-color="#00B3B2"/>
<stop offset="1" stop-color="#008080"/>
</linearGradient>
<clipPath id="clip0_1753_112">
<rect width="60" height="64.5113" fill="white"/>
</clipPath>
</defs>
<g clip-path="url(#clip0_1753_112)">
<path fill-rule="evenodd" clip-rule="evenodd" d="M36.4039 0.115967H10.7885C7.26635 0.115967 4.38462 3.01375 4.38462 6.55549V28.7748H3.23077C1.44646 28.7748 0 30.2293 0 32.0235V51.052C0 52.8463 1.44646 54.3008 3.23077 54.3008H4.38462V58.0717C4.38462 61.6136 7.23432 64.5112 10.7564 64.5112H49.2115C52.7338 64.5112 55.6154 61.6136 55.6154 58.0717V54.3008H56.7692C58.5535 54.3008 60 52.8463 60 51.052V32.0235C60 30.2293 58.5535 28.7748 56.7692 28.7748H55.6154V19.4345L36.4039 0.115967ZM9.40385 59.464V54.3008H50.5962V59.464H9.40385ZM9.40385 28.7748H50.5962V21.262H34.5865V5.16316H9.40385V28.7748ZM51.2134 44.54C51.2961 44.7643 51.3374 45.0178 51.3374 45.3003C51.3374 45.6243 51.2589 45.9235 51.1019 46.1977C50.9449 46.4636 50.697 46.6796 50.3582 46.8458C50.0194 47.0037 49.5732 47.0826 49.0195 47.0826C48.5072 47.0826 48.0527 47.0369 47.6561 46.9455C47.2595 46.8458 46.9248 46.6879 46.6521 46.4719C46.3794 46.2475 46.1729 45.9526 46.0324 45.587C45.8919 45.2213 45.8217 44.7726 45.8217 44.2409H41.4587C41.4587 45.3127 41.6735 46.2392 42.1032 47.0203C42.5412 47.7931 43.1237 48.4287 43.8509 48.9273C44.5781 49.4175 45.3879 49.7831 46.2803 50.0241C47.181 50.2568 48.0941 50.3731 49.0195 50.3731C50.0276 50.3731 50.9407 50.2609 51.7588 50.0366C52.5769 49.8122 53.2792 49.484 53.8659 49.0519C54.4526 48.6115 54.903 48.0756 55.217 47.4441C55.531 46.8126 55.688 46.0897 55.688 45.2754C55.688 44.5109 55.5516 43.8254 55.2789 43.2188C55.0145 42.6122 54.622 42.0721 54.1014 41.5985C53.5891 41.1166 52.957 40.6886 52.205 40.3147C51.4613 39.9325 50.6102 39.5877 49.6517 39.2802C49.1394 39.114 48.6766 38.9437 48.2635 38.7692C47.8586 38.5947 47.5115 38.4119 47.2223 38.2208C46.9413 38.0297 46.7224 37.8261 46.5654 37.6101C46.4166 37.3857 46.3423 37.1364 46.3423 36.8622C46.3423 36.5299 46.4373 36.2266 46.6273 35.9524C46.8174 35.6699 47.0983 35.4455 47.4702 35.2793C47.842 35.1131 48.3006 35.03 48.846 35.03C49.4079 35.03 49.8748 35.1298 50.2466 35.3292C50.6185 35.5286 50.8953 35.8028 51.0771 36.1518C51.2671 36.5008 51.3622 36.9038 51.3622 37.3608H55.688C55.688 36.2141 55.3987 35.2212 54.8203 34.3819C54.2502 33.5344 53.4569 32.8821 52.4405 32.4251C51.4324 31.9598 50.2673 31.7271 48.9452 31.7271C47.9453 31.7271 47.024 31.8476 46.1811 32.0886C45.3383 32.3212 44.6028 32.6619 43.9748 33.1106C43.3551 33.551 42.8717 34.0869 42.5246 34.7184C42.1776 35.3416 42.0041 36.0438 42.0041 36.8248C42.0041 37.6391 42.1735 38.3537 42.5122 38.9686C42.851 39.5752 43.3097 40.107 43.8881 40.564C44.4665 41.0127 45.1234 41.4074 45.8589 41.7481C46.5943 42.0804 47.3586 42.3796 48.1519 42.6455C48.8295 42.8698 49.3749 43.0859 49.788 43.2936C50.2094 43.493 50.5317 43.6924 50.7548 43.8919C50.9779 44.0913 51.1308 44.3073 51.2134 44.54ZM16.2228 31.9764H15.0825H13.2233H12.1201L5.48888 50.1238H10.1617L11.2025 46.7336H17.1623L18.206 50.1238H22.8912L16.2228 31.9764ZM16.1225 43.3559H12.2394L14.1782 37.0402L16.1225 43.3559ZM39.2896 31.9764V50.1238H34.9514L28.5681 38.8315V50.1238H24.2175V31.9764H28.5681L34.9514 43.2687V31.9764H39.2896Z" fill="url(#paint0_linear_1753_112)"/>
</g>
</svg>
