<svg width="383" height="440" viewBox="0 0 383 440" fill="none" xmlns="http://www.w3.org/2000/svg">
<mask id="mask0_310_10140" style="mask-type:alpha" maskUnits="userSpaceOnUse" x="0" y="0" width="382" height="432">
<path d="M0 200C0 89.5431 89.5431 0 200 0H352C368.569 0 382 13.4315 382 30V402C382 418.569 368.569 432 352 432H30C13.4314 432 0 418.569 0 402V200Z" fill="white"/>
</mask>
<g mask="url(#mask0_310_10140)">
<g opacity="0.2">
<path d="M93.8946 49.5099C94.6667 49.8737 95.2933 50.5668 95.6127 51.4117C95.9186 52.2197 95.9065 53.0605 95.5795 53.7815C94.8656 55.3521 93.1001 56.013 91.5592 55.2874C90.1079 54.6027 88.7242 53.7403 87.4448 52.727C86.7789 52.1991 86.3307 51.3851 86.2175 50.4946C86.1083 49.635 86.3318 48.7955 86.8306 48.1931C87.1987 47.7493 87.6532 47.4364 88.1461 47.2579C89.1103 46.9095 90.2233 47.0771 91.1252 47.7921C92.0984 48.5637 92.7721 48.9817 93.8946 49.5099Z" fill="#FF7428"/>
<path d="M21.1869 233.4C21.5464 234.174 21.583 235.108 21.2865 235.961C21.0033 236.777 20.455 237.415 19.7418 237.759C18.1872 238.506 16.4084 237.882 15.691 236.337C15.0159 234.881 14.5067 233.332 14.1743 231.735C14.0017 230.903 14.1794 229.99 14.6634 229.234C15.1306 228.505 15.8403 228.004 16.6093 227.861C17.1763 227.756 17.7258 227.808 18.2185 227.987C19.1819 228.337 19.9286 229.179 20.1625 230.306C20.4149 231.522 20.6639 232.275 21.1869 233.4Z" fill="#FF7428"/>
<path d="M313.187 398.4C313.546 399.174 313.583 400.108 313.286 400.961C313.003 401.777 312.455 402.415 311.742 402.759C310.187 403.506 308.408 402.882 307.691 401.337C307.016 399.881 306.507 398.332 306.174 396.735C306.002 395.903 306.179 394.99 306.663 394.234C307.131 393.505 307.84 393.004 308.609 392.861C309.176 392.756 309.726 392.808 310.218 392.987C311.182 393.337 311.929 394.179 312.163 395.306C312.415 396.522 312.664 397.275 313.187 398.4Z" fill="#FF7428"/>
<path d="M351.187 67.3999C351.546 68.174 351.583 69.1077 351.286 69.9609C351.003 70.7772 350.455 71.4147 349.742 71.7585C348.187 72.5063 346.408 71.8818 345.691 70.3371C345.016 68.8813 344.507 67.3324 344.174 65.7346C344.002 64.9025 344.179 63.9904 344.663 63.2344C345.131 62.5046 345.84 62.0036 346.609 61.861C347.176 61.7563 347.726 61.8076 348.218 61.9865C349.182 62.3372 349.929 63.1793 350.163 64.3062C350.415 65.5222 350.664 66.2749 351.187 67.3999Z" fill="#FF7428"/>
<path d="M39.849 395.223C40.6617 395.483 41.3728 396.089 41.7988 396.886C42.2067 397.648 42.3035 398.483 42.0726 399.24C41.5679 400.89 39.9028 401.774 38.281 401.254C36.7532 400.763 35.2696 400.086 33.8698 399.247C33.1412 398.81 32.5914 398.061 32.3639 397.192C32.1443 396.354 32.2574 395.493 32.674 394.831C32.9816 394.343 33.3918 393.974 33.8574 393.733C34.7685 393.263 35.8938 393.285 36.8806 393.878C37.9455 394.517 38.6676 394.844 39.849 395.223Z" fill="#FF7428"/>
<path d="M42.187 103.4C42.5465 104.174 42.5831 105.108 42.2866 105.961C42.0034 106.777 41.4551 107.415 40.742 107.759C39.1873 108.506 37.4085 107.882 36.6911 106.337C36.016 104.881 35.5068 103.332 35.1744 101.735C35.0018 100.903 35.1796 99.9904 35.6635 99.2344C36.1307 98.5046 36.8405 98.0036 37.6094 97.861C38.1764 97.7563 38.7259 97.8076 39.2186 97.9865C40.182 98.3372 40.9288 99.1793 41.1626 100.306C41.415 101.522 41.6641 102.275 42.187 103.4Z" fill="#FF7428"/>
<path d="M212.187 313.4C212.546 314.174 212.583 315.108 212.287 315.961C212.003 316.777 211.455 317.415 210.742 317.759C209.187 318.506 207.409 317.882 206.691 316.337C206.016 314.881 205.507 313.332 205.174 311.735C205.002 310.903 205.18 309.99 205.664 309.234C206.131 308.505 206.84 308.004 207.609 307.861C208.176 307.756 208.726 307.808 209.219 307.987C210.182 308.337 210.929 309.179 211.163 310.306C211.415 311.522 211.664 312.275 212.187 313.4Z" fill="#FF7428"/>
<path d="M91.2495 263.558C92.0806 263.753 92.838 264.3 93.3266 265.06C93.7944 265.786 93.9579 266.611 93.7886 267.384C93.4181 269.069 91.8293 270.084 90.171 269.696C88.6087 269.329 87.0756 268.774 85.6129 268.05C84.8515 267.673 84.2433 266.97 83.9468 266.123C83.6607 265.305 83.7041 264.438 84.0663 263.744C84.3337 263.234 84.7129 262.833 85.1577 262.555C86.028 262.013 87.1515 261.945 88.1827 262.456C89.2954 263.008 90.0415 263.276 91.2495 263.558Z" fill="#FF7428"/>
<path d="M229.187 99.3999C229.546 100.174 229.583 101.108 229.286 101.961C229.003 102.777 228.455 103.415 227.742 103.759C226.187 104.506 224.408 103.882 223.691 102.337C223.016 100.881 222.507 99.3324 222.174 97.7346C222.002 96.9025 222.179 95.9904 222.663 95.2344C223.131 94.5046 223.84 94.0036 224.609 93.861C225.176 93.7563 225.726 93.8076 226.218 93.9865C227.182 94.3372 227.929 95.1793 228.163 96.3062C228.415 97.5222 228.664 98.2749 229.187 99.3999Z" fill="#FF7428"/>
<path d="M187.689 250.187C188.529 250.339 189.314 250.846 189.841 251.58C190.346 252.281 190.552 253.096 190.422 253.877C190.139 255.579 188.605 256.674 186.929 256.372C185.35 256.087 183.79 255.612 182.292 254.964C181.512 254.627 180.868 253.956 180.529 253.125C180.201 252.323 180.199 251.455 180.525 250.744C180.766 250.22 181.124 249.8 181.554 249.5C182.395 248.914 183.513 248.788 184.57 249.245C185.709 249.738 186.468 249.968 187.689 250.187Z" fill="#FF7428"/>
<path d="M163.688 73.8572C164.528 74.0087 165.312 74.5161 165.839 75.2495C166.344 75.9508 166.55 76.7661 166.421 77.5472C166.138 79.249 164.603 80.3444 162.927 80.0422C161.348 79.7566 159.788 79.2817 158.29 78.6341C157.51 78.2964 156.867 77.6262 156.527 76.7953C156.199 75.9933 156.198 75.1245 156.524 74.4136C156.764 73.8897 157.122 73.4698 157.552 73.1698C158.393 72.5837 159.512 72.4575 160.568 72.9147C161.708 73.4081 162.467 73.6376 163.688 73.8572Z" fill="#FF7428"/>
<path d="M181.688 149.857C182.528 150.009 183.312 150.516 183.839 151.25C184.344 151.951 184.55 152.766 184.421 153.547C184.138 155.249 182.603 156.344 180.927 156.042C179.348 155.757 177.788 155.282 176.29 154.634C175.51 154.296 174.867 153.626 174.527 152.795C174.199 151.993 174.198 151.125 174.524 150.414C174.764 149.89 175.122 149.47 175.552 149.17C176.393 148.584 177.512 148.458 178.568 148.915C179.708 149.408 180.467 149.638 181.688 149.857Z" fill="#FF7428"/>
<path d="M132.688 188.857C133.528 189.009 134.312 189.516 134.839 190.25C135.344 190.951 135.55 191.766 135.421 192.547C135.138 194.249 133.603 195.344 131.927 195.042C130.348 194.757 128.788 194.282 127.29 193.634C126.51 193.296 125.867 192.626 125.527 191.795C125.199 190.993 125.198 190.125 125.524 189.414C125.764 188.89 126.122 188.47 126.552 188.17C127.393 187.584 128.512 187.458 129.568 187.915C130.708 188.408 131.467 188.638 132.688 188.857Z" fill="#FF7428"/>
<path d="M273.871 362.688C273.719 363.528 273.212 364.312 272.479 364.84C271.777 365.344 270.962 365.55 270.181 365.421C268.479 365.138 267.384 363.603 267.686 361.927C267.972 360.348 268.446 358.788 269.094 357.29C269.432 356.511 270.102 355.867 270.933 355.527C271.735 355.199 272.604 355.198 273.315 355.524C273.838 355.764 274.258 356.122 274.558 356.552C275.144 357.393 275.271 358.512 274.813 359.568C274.32 360.708 274.091 361.467 273.871 362.688Z" fill="#FF7428"/>
<path d="M265.688 210.857C266.528 211.009 267.312 211.516 267.839 212.25C268.344 212.951 268.55 213.766 268.421 214.547C268.138 216.249 266.603 217.344 264.927 217.042C263.348 216.757 261.788 216.282 260.29 215.634C259.51 215.296 258.867 214.626 258.527 213.795C258.199 212.993 258.198 212.125 258.524 211.414C258.764 210.89 259.122 210.47 259.552 210.17C260.393 209.584 261.512 209.458 262.568 209.915C263.708 210.408 264.467 210.638 265.688 210.857Z" fill="#FF7428"/>
<path d="M93.6876 249.857C94.5276 250.009 95.3123 250.516 95.8394 251.25C96.344 251.951 96.5499 252.766 96.4207 253.547C96.1376 255.249 94.6033 256.344 92.9272 256.042C91.3481 255.757 89.7883 255.282 88.2903 254.634C87.5104 254.296 86.8668 253.626 86.527 252.795C86.199 251.993 86.1976 251.125 86.5235 250.414C86.7642 249.89 87.1223 249.47 87.5522 249.17C88.3934 248.584 89.5118 248.458 90.568 248.915C91.7078 249.408 92.4667 249.638 93.6876 249.857Z" fill="#FF7428"/>
<path d="M361.586 276.201C361.099 276.902 360.903 277.816 361.049 278.707C361.188 279.56 361.619 280.282 362.262 280.743C363.666 281.746 365.525 281.436 366.497 280.037C367.411 278.718 368.179 277.279 368.78 275.762C369.093 274.972 369.074 274.043 368.727 273.215C368.391 272.416 367.778 271.801 367.045 271.529C366.504 271.328 365.954 271.285 365.438 271.376C364.429 271.557 363.549 272.258 363.125 273.329C362.668 274.483 362.294 275.182 361.586 276.201Z" fill="#FF7428"/>
<path d="M64.7345 161.941C63.8839 161.87 62.9947 162.157 62.2956 162.729C61.6267 163.276 61.2168 164.01 61.1395 164.798C60.9724 166.515 62.171 167.97 63.8682 168.112C65.4674 168.245 67.0969 168.19 68.7116 167.952C69.5522 167.828 70.3474 167.347 70.8907 166.632C71.4151 165.943 71.6412 165.104 71.5104 164.333C71.4136 163.764 71.1764 163.266 70.8388 162.865C70.1779 162.081 69.1303 161.67 67.9917 161.838C66.7631 162.02 65.9707 162.045 64.7345 161.941Z" fill="#FF7428"/>
<path d="M292.584 140.87C292.097 141.572 291.901 142.485 292.047 143.376C292.186 144.229 292.617 144.951 293.261 145.412C294.664 146.415 296.524 146.105 297.495 144.706C298.41 143.388 299.177 141.949 299.778 140.432C300.091 139.641 300.072 138.712 299.725 137.885C299.39 137.086 298.777 136.47 298.043 136.198C297.503 135.998 296.953 135.954 296.437 136.046C295.427 136.226 294.547 136.928 294.124 137.998C293.667 139.153 293.292 139.852 292.584 140.87Z" fill="#FF7428"/>
<path d="M354.584 348.87C354.097 349.572 353.901 350.485 354.047 351.376C354.186 352.229 354.617 352.951 355.261 353.412C356.664 354.415 358.524 354.105 359.495 352.706C360.41 351.388 361.177 349.949 361.778 348.432C362.091 347.641 362.072 346.712 361.725 345.885C361.39 345.086 360.777 344.47 360.043 344.198C359.503 343.998 358.953 343.954 358.437 344.046C357.427 344.226 356.547 344.928 356.124 345.998C355.667 347.153 355.292 347.852 354.584 348.87Z" fill="#FF7428"/>
<path d="M94.5842 348.87C94.0974 349.572 93.9013 350.485 94.0472 351.376C94.1863 352.229 94.6172 352.951 95.2609 353.412C96.6644 354.415 98.5238 354.105 99.4954 352.706C100.41 351.388 101.177 349.949 101.778 348.432C102.091 347.641 102.072 346.712 101.725 345.885C101.39 345.086 100.777 344.47 100.043 344.198C99.5027 343.998 98.9526 343.954 98.4365 344.046C97.4273 344.226 96.5472 344.928 96.1237 345.998C95.6667 347.153 95.2922 347.852 94.5842 348.87Z" fill="#FF7428"/>
<path d="M293.598 80.3533C294.449 80.4243 295.338 80.1374 296.037 79.5653C296.706 79.0185 297.116 78.2843 297.193 77.4964C297.36 75.7793 296.162 74.3242 294.464 74.1822C292.865 74.0494 291.236 74.1044 289.621 74.3423C288.78 74.4665 287.985 74.9474 287.442 75.662C286.918 76.3518 286.691 77.1906 286.822 77.9616C286.919 78.53 287.156 79.0283 287.494 79.4293C288.155 80.2132 289.202 80.6245 290.341 80.4562C291.57 80.2746 292.362 80.2495 293.598 80.3533Z" fill="#FF7428"/>
<path d="M17.1976 330.173C17.4504 330.988 18.0495 331.705 18.8418 332.139C19.5994 332.554 20.4337 332.66 21.1932 332.436C22.8478 331.948 23.748 330.291 23.2439 328.664C22.7679 327.132 22.1065 325.642 21.2811 324.234C20.851 323.501 20.1073 322.944 19.2412 322.708C18.4052 322.48 17.5427 322.584 16.8768 322.995C16.3861 323.297 16.0129 323.704 15.7676 324.167C15.2884 325.073 15.2995 326.199 15.882 327.192C16.5106 328.263 16.8308 328.988 17.1976 330.173Z" fill="#FF7428"/>
</g>
</g>
</svg>
