<svg width="99" height="165" viewBox="0 0 99 165" fill="none" xmlns="http://www.w3.org/2000/svg">
<path d="M40.5538 164.66C19.5779 164.66 2.57356 162.28 2.57356 159.344C2.57356 156.408 19.5779 154.028 40.5538 154.028C61.53 154.028 78.5346 156.408 78.5346 159.344C78.5346 162.28 61.53 164.66 40.5538 164.66Z" fill="#EEEFF7"/>
<path d="M24.8083 128.661C24.7829 129.644 31.3275 130.543 31.5068 129.573C32.7648 122.759 33.9451 115.484 34.9458 114.265C35.7221 113.318 42.6414 110.336 50.1408 107.947L47.1981 96.5119C38.8356 99.7693 29.8022 104.817 27.998 106.366C25.5789 108.441 24.8349 127.63 24.8083 128.661Z" fill="#FFD4BD"/>
<path d="M50.6217 137.71C49.7821 138.223 45.123 132.492 45.8742 131.853C51.1557 127.368 57.1891 122.504 57.7485 121.029C58.1828 119.884 57.6269 113.119 55.9621 105.427L67.3429 102.282C68.685 111.155 68.8076 121.503 68.3644 123.838C67.7701 126.97 51.5027 137.175 50.6217 137.71Z" fill="#FFD4BD"/>
<path d="M41.2125 96.1578C41.2125 96.1578 34.9391 100.775 28.0531 105.679C30.4774 104.96 34.8437 109.7 39.2731 115.07C42.2317 113.649 48.8338 108.529 52.1109 110.03C54.9279 111.32 55.5916 113.871 56.0511 120.997C62.0926 122.605 69.7101 121.682 72.6652 119.157C72.2226 116.263 74.4706 97.8804 72.0083 93.0866L41.2125 96.1578Z" fill="#1B6168"/>
<path d="M34.8437 100.801C34.8486 100.796 34.9926 100.691 35.233 100.517C35.234 100.516 35.2347 100.516 35.2356 100.516C35.1063 100.61 34.9759 100.705 34.8439 100.801" fill="#C4C4C4"/>
<path d="M53.4898 108.484C47.067 108.484 40.4049 106.549 34.8437 100.801C34.9759 100.705 35.1063 100.61 35.2356 100.516C35.4104 100.505 35.5851 100.499 35.7603 100.499C38.3921 100.499 41.0907 101.757 44.3346 103.014C47.5788 104.272 51.3674 105.528 56.182 105.528C60.7726 105.528 66.2956 104.386 73.1643 101.009C73.179 101.794 73.1807 102.602 73.1724 103.422C68.4642 105.735 61.147 108.484 53.4898 108.484Z" fill="#154B50"/>
<path d="M32.8795 132.335C32.8461 132.582 24.3926 132.228 24.3512 131.928C24.0068 129.425 23.661 123.714 23.5119 122.605L33.7835 122.924C33.4988 125.53 33.0921 130.75 32.8795 132.335Z" fill="#9DCECC"/>
<path d="M20.6624 129.266C20.8323 128.728 21.1676 128.049 21.4309 127.425C21.6264 126.963 26.2102 127.214 26.1797 128.343C26.1719 128.631 26.1505 128.885 26.118 129.116C26.9025 129.153 27.7539 129.176 28.6541 129.179C30.6108 129.182 32.3687 129.091 33.6052 128.942C33.6164 130.727 33.3421 133.806 33.3384 135.791C33.3384 135.791 12.7277 138.836 9.61693 135.743C8.74007 134.872 14.0208 131.352 20.6624 129.266Z" fill="#2D8F91"/>
<path d="M33.368 134.547C33.3517 134.989 33.339 135.412 33.3384 135.791C33.3384 135.791 12.7277 138.836 9.61693 135.743C9.49347 135.62 9.49408 135.444 9.602 135.227C15.2009 136.67 28.2475 135.209 33.368 134.547Z" fill="#19555B"/>
<path d="M15.6229 130.935C15.6438 131.092 15.783 131.206 15.9448 131.182C16.9039 131.041 18.1408 131.556 18.9425 132.402C18.9992 132.461 19.0748 132.492 19.15 132.492C19.2213 132.492 19.2926 132.465 19.348 132.413C19.4627 132.304 19.4678 132.122 19.3588 132.008C18.4381 131.037 17.0056 130.461 15.8694 130.613C15.7125 130.635 15.6021 130.778 15.6229 130.935ZM20.4777 131.67C20.5342 131.734 20.6133 131.767 20.6927 131.768C20.7598 131.768 20.8277 131.743 20.8821 131.697C21.0012 131.593 21.0129 131.411 20.9089 131.292C20.0398 130.299 18.8206 129.781 17.5621 129.881C17.4042 129.893 17.2863 130.03 17.2983 130.189C17.3103 130.346 17.4491 130.475 17.6058 130.452C18.2395 130.403 19.4524 130.498 20.4777 131.67ZM21.9512 131.026C22.0068 131.106 22.0956 131.149 22.1861 131.149C22.2426 131.149 22.2999 131.132 22.3499 131.098C22.4798 131.008 22.512 130.829 22.4215 130.7C21.6673 129.614 20.3037 129.011 19.1053 129.223C18.9496 129.253 18.8459 129.402 18.8742 129.557C18.902 129.713 19.0498 129.813 19.2072 129.788C20.1926 129.607 21.3207 130.119 21.9512 131.026Z" fill="#D3DAE5"/>
<path d="M40.9266 134.731C40.7356 134.892 45.5765 141.831 45.8516 141.705C48.1483 140.651 53.1505 137.873 54.1655 137.404L48.3786 128.912C46.3327 130.552 42.1488 133.7 40.9266 134.731Z" fill="#9DCECC"/>
<path d="M50.0783 143.386C50.4424 142.954 50.8348 142.305 51.2187 141.748C51.503 141.336 48.8281 137.604 47.894 138.237C47.6546 138.398 47.4517 138.552 47.2754 138.703C46.8219 138.063 46.3447 137.356 45.8596 136.599C44.8048 134.95 43.9378 133.418 43.3985 132.296C41.8869 133.244 39.4369 135.132 37.7662 136.2C37.7662 136.2 46.2722 155.22 50.5512 156.182C51.7575 156.453 51.8879 150.109 50.0783 143.386Z" fill="#2D8F91"/>
<path d="M38.7984 135.507C38.4355 135.758 38.0841 135.997 37.7662 136.2C37.7662 136.2 46.2722 155.22 50.5512 156.182C50.7213 156.22 50.8694 156.123 50.9942 155.917C46.7696 151.97 40.9922 140.181 38.7984 135.507Z" fill="#19555B"/>
<path d="M51.5175 148.152C51.0358 147.112 49.7807 146.213 48.4673 145.959C48.3119 145.928 48.1615 146.029 48.1314 146.185C48.1167 146.26 48.1332 146.334 48.1714 146.394C48.2119 146.457 48.2779 146.505 48.3581 146.52C49.5024 146.744 50.6015 147.509 50.9981 148.394C51.0647 148.543 51.2355 148.6 51.379 148.533C51.5223 148.466 51.5846 148.295 51.5175 148.152ZM50.7213 146.601C50.786 146.745 50.9693 146.793 51.1091 146.719C51.2487 146.644 51.301 146.471 51.2262 146.331C50.634 145.217 49.5424 144.465 48.238 144.267C48.0818 144.242 47.9351 144.35 47.9112 144.507C47.9003 144.578 47.9169 144.647 47.9532 144.704C47.996 144.772 48.0667 144.819 48.1515 144.833C49.6903 145.069 50.4219 146.04 50.7213 146.601ZM50.4207 144.893C50.4839 145.04 50.6482 145.11 50.7944 145.05C50.941 144.99 51.0113 144.822 50.9514 144.676C50.4868 143.551 49.2451 142.726 47.9258 142.672C47.7673 142.666 47.6338 142.789 47.6275 142.947C47.625 143.007 47.6421 143.064 47.6723 143.112C47.7212 143.189 47.8051 143.24 47.9024 143.245C49.0059 143.289 50.0449 143.965 50.4207 144.893Z" fill="#D3DAE5"/>
<path d="M86.1877 47.7641C87.6885 49.0849 89.2055 50.3242 90.8256 51.4941C83.0817 60.8647 75.6407 69.8196 65.389 76.4807C63.7042 73.1093 61.8237 69.9951 59.9937 66.7007C69.8572 61.7837 78.0068 55.1318 86.1877 47.7641Z" fill="#FFD4BD"/>
<path d="M70.2751 60.329C74.638 62.8921 75.3513 71.7839 74.2707 72.9015C74.2707 72.9015 64.1823 79.244 56.9454 66.3959C63.0001 65.0689 70.2751 60.329 70.2751 60.329Z" fill="#EF5B1A"/>
<path d="M75.4097 99.8494C59.9744 108.184 51.0021 105.599 44.3346 103.014C40.8663 101.671 38.0214 100.325 35.215 100.517C35.2433 99.132 36.1043 99.7662 36.2683 99.3444C36.3833 99.0473 35.8928 98.3068 36.0226 97.8866C36.2818 97.046 38.2414 97.4555 37.8382 96.6319C36.4262 93.7486 38.2266 93.5808 38.5856 92.711C41.8081 84.8922 38.6426 72.1164 39.1832 67.2964C43.8369 67.3626 58.3738 66.5252 63.6419 63.979C67.2377 68.2216 74.7171 93.7994 75.4097 99.8494Z" fill="#EF5B1A"/>
<path d="M8.37954 60.8893C7.55733 62.712 6.68663 64.4654 5.694 66.2003C16.6135 71.5422 27.0863 76.6285 39.1727 78.4666C39.3171 74.7027 39.7448 71.0881 40.0531 67.3334C29.0392 66.9239 18.8714 64.2252 8.37954 60.8893Z" fill="#FFD4BD"/>
<path d="M31.026 65.0889C27.7772 69.7534 30.6863 79.3979 32.1469 79.9306C32.1469 79.9306 43.8857 82.6877 44.7736 67.9676C44.814 67.7152 35.0584 67.0363 31.026 65.0889Z" fill="#EF5B1A"/>
<path d="M59.7393 67.1979L59.3988 65.3306C54.8277 66.3712 48.6361 66.9409 44.0336 67.1718L44.5426 69.9658C44.9344 72.118 48.6541 73.2418 52.8505 72.4782C57.0471 71.7131 60.1311 69.3485 59.7393 67.1979Z" fill="#9E330D"/>
<path d="M56.4495 59.1251L57.8499 66.8115C58.151 68.4633 55.7815 70.2799 52.5573 70.8679C49.333 71.4545 46.4752 70.5908 46.1741 68.939L44.7736 61.2526L56.4495 59.1251Z" fill="#E0956C"/>
<path d="M85.6668 40.8166C83.621 44.5282 83.2971 46.2724 83.6221 48.6031C84.0596 51.7389 86.8759 53.7063 89.6553 53.8756C91.1758 53.968 93.6395 53.2029 97.6287 50.2487C95.7615 48.3598 93.805 41.768 90.4126 39.1448C89.5022 40.9844 86.9022 40.7104 85.6668 40.8166Z" fill="#FFD4BD"/>
<path d="M92.7431 41.7726C92.722 41.7403 92.7006 41.7094 92.6794 41.6771C92.6929 41.6586 92.7063 41.6386 92.7194 41.6202C92.751 41.6556 92.7821 41.6925 92.8132 41.7295C92.7899 41.7433 92.7665 41.7572 92.7431 41.7726Z" fill="#E2D4D2"/>
<path d="M92.4032 51.7374C90.5777 51.7374 88.7641 50.8661 87.6651 48.8879C88.844 47.5824 89.0677 46.023 88.6426 44.6529C88.8446 44.7545 89.0497 44.8407 89.2537 44.91C89.4379 44.9715 89.6153 45.0131 89.7858 45.0347C89.5743 45.6181 89.5879 46.1184 89.8764 46.4248C90.0663 46.6264 90.3548 46.7219 90.7077 46.7219C91.5771 46.7219 92.8382 46.1415 93.9837 45.1409C94.1318 45.0116 94.2725 44.8807 94.406 44.7468C95.3518 47.2007 95.9585 49.9455 96.3178 50.2996C95.2191 51.2217 93.8078 51.7374 92.4032 51.7374ZM92.5239 41.9096C92.5223 41.9066 92.5208 41.9035 92.5194 41.8988C92.5747 41.8249 92.6279 41.751 92.6794 41.6772C92.7006 41.7095 92.722 41.7403 92.7431 41.7726C92.6701 41.8157 92.597 41.8619 92.5239 41.9096Z" fill="#E2A285"/>
<path d="M91.6009 42.6131C89.9905 44.0202 89.2184 45.7259 89.8764 46.4248C90.5345 47.1237 92.3735 46.5479 93.9838 45.1409C95.594 43.7338 96.366 42.0266 95.7078 41.3292C95.0498 40.6303 93.211 41.2061 91.6009 42.6131Z" fill="#FFD4BD"/>
<path d="M89.289 40.3147C87.8785 41.9019 87.3603 43.6645 88.1313 44.2511C88.9019 44.8361 90.6703 44.0248 92.0806 42.4361C93.4908 40.8489 94.0089 39.0863 93.2379 38.4997C92.467 37.9148 90.6989 38.7276 89.289 40.3147Z" fill="#FFD4BD"/>
<path d="M93.9762 44.7761C92.2028 45.9937 91.2339 47.6579 91.8119 48.4907C92.3905 49.3236 94.2969 49.011 96.0705 47.7918C97.8442 46.5726 98.813 44.91 98.2346 44.0771C97.6562 43.2443 95.7498 43.5568 93.9762 44.7761Z" fill="#FFD4BD"/>
<path d="M95.0686 47.6779C93.2279 48.4122 91.9828 49.7484 92.2876 50.6629C92.5927 51.5773 94.3323 51.7235 96.1732 50.9892C98.014 50.2564 99.2593 48.9202 98.954 48.0058C98.6487 47.0914 96.9095 46.9451 95.0686 47.6779Z" fill="#FFD4BD"/>
<path d="M86.6519 40.775C87.1362 40.3455 87.9244 40.1023 88.8237 40.1023C89.0269 40.1023 89.236 40.1146 89.4484 40.1392C89.4252 40.1639 89.4022 40.1885 89.3793 40.2146C88.5624 40.6688 87.5167 40.7442 86.6519 40.775Z" fill="#DBCCC9"/>
<path d="M88.6427 44.6529C87.1947 43.9217 85.9008 42.4223 86.207 41.4416C86.2864 41.1861 86.4402 40.9629 86.6519 40.775C87.5167 40.7443 88.5625 40.6688 89.3793 40.2147C89.349 40.247 89.3188 40.2809 89.2889 40.3147C88.4478 41.2615 87.9241 42.2698 87.8017 43.0549C87.7895 43.0472 87.7772 43.0396 87.765 43.0303C87.7766 43.0442 87.7878 43.058 87.7992 43.0719C87.7212 43.5953 87.8234 44.0171 88.1313 44.2511C88.253 44.3435 88.3997 44.4004 88.566 44.4266C88.5934 44.5005 88.6191 44.5759 88.6427 44.6529Z" fill="#DB9C7D"/>
<path d="M89.7859 45.0347C89.6153 45.0131 89.438 44.9715 89.2537 44.9099C89.0497 44.8407 88.8446 44.7545 88.6427 44.6529C88.6191 44.5759 88.5934 44.5005 88.566 44.4266C88.6316 44.4358 88.7003 44.4404 88.7715 44.4404C89.2463 44.4404 89.8413 44.2234 90.4598 43.8339C90.1509 44.2496 89.9218 44.659 89.7859 45.0347ZM87.7992 43.0719C87.7878 43.058 87.7766 43.0442 87.765 43.0303C87.7772 43.0395 87.7895 43.0472 87.8017 43.0549C87.8009 43.0611 87.8 43.0657 87.7992 43.0719ZM92.4988 41.9265C92.5057 41.9173 92.5125 41.9081 92.5194 41.8988C92.5208 41.9034 92.5224 41.9065 92.5239 41.9096C92.5156 41.9158 92.5071 41.9219 92.4988 41.9265Z" fill="#C48369"/>
<path d="M90.0926 45.0546C89.9929 45.0546 89.8907 45.0485 89.7858 45.0346C89.9218 44.659 90.1508 44.2495 90.4598 43.8339C91.0038 43.4921 91.566 43.0164 92.0805 42.4361C92.2302 42.2683 92.3698 42.0974 92.4988 41.9265C92.5071 41.9219 92.5156 41.9157 92.5239 41.9096C92.6613 42.2498 92.6778 42.6115 92.5644 42.9749C92.2728 43.9093 91.4164 45.0546 90.0926 45.0546Z" fill="#DB9C7D"/>
<path d="M88.7715 44.4405C88.7002 44.4405 88.6316 44.4359 88.566 44.4266C88.3997 44.4005 88.253 44.3435 88.1312 44.2511C87.8233 44.0171 87.7211 43.5953 87.7992 43.0719C87.7999 43.0658 87.8009 43.0611 87.8016 43.055C87.924 42.2699 88.4477 41.2615 89.2889 40.3148C89.3188 40.2809 89.3489 40.247 89.3793 40.2147C89.4022 40.1885 89.4251 40.1639 89.4484 40.1393C89.6905 40.1685 89.9368 40.2147 90.1848 40.2794C91.4256 40.5996 92.2301 41.2 92.5194 41.8989C92.5125 41.9081 92.5057 41.9173 92.4988 41.9266C92.3698 42.0975 92.2301 42.2683 92.0805 42.4361C91.566 43.0165 91.0038 43.4922 90.4598 43.8339C89.8412 44.2234 89.2462 44.4405 88.7715 44.4405Z" fill="#DB9C7D"/>
<path d="M92.5644 42.9749C92.232 44.0387 90.3813 44.4928 88.4298 43.9894C86.4784 43.486 85.1658 42.216 85.4977 41.1507C85.8298 40.087 87.6808 39.6328 89.6324 40.1362C91.5834 40.6396 92.8963 41.9112 92.5644 42.9749Z" fill="#FFD4BD"/>
<path d="M11.6874 56.1217C14.5606 59.2375 15.2924 60.854 15.5335 63.1939C15.8582 66.3436 13.5939 68.9283 10.9355 69.7565C9.48165 70.2106 6.90602 70.0552 2.32635 68.1401C3.68799 65.8602 4.01204 58.9912 6.67926 55.6337C8.00318 57.2024 10.4624 56.3142 11.6874 56.1217Z" fill="#FFD4BD"/>
<path d="M6.333 68.5064C5.40026 68.5064 4.46074 68.294 3.61143 67.8768C3.87576 67.4473 3.80863 64.6363 4.14054 62.0269C4.30202 62.1255 4.47013 62.2194 4.64486 62.3102C5.69475 62.8521 6.75142 63.1307 7.56655 63.1307C8.22682 63.1307 8.72867 62.9475 8.94004 62.5734C9.14694 62.2071 9.04072 61.7191 8.69573 61.2033C8.85598 61.1402 9.0184 61.0587 9.18235 60.954C9.36416 60.8385 9.54258 60.7061 9.71438 60.5583C9.6294 61.9915 10.219 63.4509 11.6756 64.4362C10.9264 67.1933 8.65047 68.5064 6.333 68.5064Z" fill="#E2A285"/>
<path d="M5.04404 58.7418C5.01802 58.7325 4.992 58.7248 4.96614 58.7171C4.98723 58.674 5.00894 58.6294 5.0308 58.5878C5.04835 58.6032 5.06589 58.6186 5.0836 58.634C5.07036 58.6694 5.05712 58.7064 5.04404 58.7418Z" fill="#E2D4D2"/>
<path d="M5.29021 58.8235C5.20769 58.7942 5.12564 58.7665 5.04405 58.7419C5.05714 58.7064 5.07037 58.6695 5.08361 58.6341C5.15104 58.6941 5.22062 58.7526 5.29205 58.8111C5.29144 58.8157 5.29082 58.8188 5.29021 58.8235Z" fill="#E2A285"/>
<path d="M6.35474 59.2852C8.25471 60.2658 9.41206 61.739 8.94007 62.5734C8.46792 63.4093 6.54501 63.2908 4.64489 62.3102C2.74492 61.328 1.58757 59.8548 2.05956 59.0204C2.53155 58.1845 4.45462 58.303 6.35474 59.2852Z" fill="#FFD4BD"/>
<path d="M8.05023 56.5004C9.79887 57.7058 10.7233 59.2929 10.1149 60.0457C9.50638 60.7985 7.59517 60.4337 5.84668 59.2283C4.09788 58.0245 3.17329 56.4357 3.78199 55.683C4.39022 54.9302 6.30143 55.2966 8.05023 56.5004Z" fill="#FFD4BD"/>
<path d="M4.56464 61.9531C6.57807 62.712 7.91645 64.096 7.55407 65.0427C7.19169 65.9895 5.2657 66.1419 3.25242 65.3814C1.23884 64.6225 -0.0995425 63.2385 0.262995 62.2918C0.62507 61.345 2.55137 61.1926 4.56464 61.9531Z" fill="#FFD4BD"/>
<path d="M4.19799 65.0335C6.16077 65.3044 7.68928 66.305 7.61139 67.2656C7.5338 68.2262 5.87968 68.7835 3.9169 68.511C1.95411 68.2386 0.425912 67.2395 0.5035 66.2789C0.581087 65.3183 2.23521 64.761 4.19799 65.0335Z" fill="#FFD4BD"/>
<path d="M8.92987 56.5465C8.59227 56.5465 8.25729 56.5127 7.93863 56.4249C7.9103 56.4064 7.88213 56.388 7.85365 56.3695C8.41893 56.1555 8.98206 56.0509 9.4913 56.0509C9.96052 56.0509 10.3839 56.1401 10.7205 56.3172C10.1728 56.4311 9.54734 56.5465 8.92987 56.5465Z" fill="#DBCCC9"/>
<path d="M9.7144 60.5583C9.71902 60.4783 9.72594 60.3998 9.73472 60.3197C9.89005 60.2551 10.0189 60.1643 10.115 60.0457C10.3579 59.7455 10.3565 59.3114 10.1558 58.8219C10.1633 58.8065 10.171 58.7895 10.1788 58.7726C10.1691 58.7849 10.1593 58.7957 10.1491 58.8065C9.84294 58.0737 9.09324 57.2193 8.05027 56.5004C8.01317 56.4742 7.97591 56.4496 7.93866 56.425C8.25732 56.5127 8.5923 56.5466 8.9299 56.5466C9.54737 56.5466 10.1728 56.4311 10.7206 56.3172C10.9709 56.4496 11.1736 56.6297 11.3116 56.8576C11.8437 57.7381 10.9459 59.5023 9.7144 60.5583Z" fill="#DB9C7D"/>
<path d="M8.69571 61.2034C8.47403 60.8709 8.15399 60.5276 7.75512 60.1982C8.22819 60.3552 8.67139 60.4368 9.05163 60.4368C9.31257 60.4368 9.54379 60.3983 9.73468 60.3198C9.72591 60.3998 9.71898 60.4783 9.71436 60.5584C9.54256 60.7062 9.36414 60.8386 9.18233 60.954C9.01838 61.0587 8.85597 61.1403 8.69571 61.2034ZM5.31835 58.8327C5.30895 58.8296 5.29972 58.8265 5.29018 58.8234C5.29079 58.8188 5.29141 58.8157 5.29202 58.8111C5.3008 58.8188 5.30942 58.8265 5.31835 58.8327ZM10.1557 58.8219C10.1536 58.8173 10.1514 58.8111 10.1491 58.8065C10.1593 58.7957 10.1691 58.7849 10.1788 58.7726C10.171 58.7896 10.1633 58.8065 10.1557 58.8219Z" fill="#C48369"/>
<path d="M7.87601 61.3604C6.82026 61.3604 5.94094 60.5876 5.50559 59.8671C5.30823 59.5408 5.23788 59.1851 5.29022 58.8234C5.29976 58.8265 5.309 58.8295 5.31839 58.8326C5.48465 58.9681 5.66107 59.1005 5.84672 59.2283C6.48497 59.6685 7.14478 59.9964 7.75516 60.1981C8.15403 60.5275 8.47408 60.8708 8.69576 61.2033C8.41419 61.3111 8.13971 61.3604 7.87601 61.3604Z" fill="#DB9C7D"/>
<path d="M9.05166 60.4367C8.67142 60.4367 8.22822 60.3551 7.75515 60.1981C7.14476 59.9964 6.48496 59.6685 5.84671 59.2282C5.66106 59.1005 5.48464 58.9681 5.31838 58.8326C5.30945 58.8264 5.30083 58.8187 5.29205 58.811C5.40566 58.0644 6.0433 57.2886 7.17124 56.6805C7.39677 56.5589 7.62538 56.4557 7.85368 56.3695C7.88216 56.388 7.91033 56.4064 7.93865 56.4249C7.97591 56.4495 8.01316 56.4742 8.05026 56.5004C9.09323 57.2193 9.84294 58.0737 10.1491 58.8064C10.1514 58.8111 10.1536 58.8172 10.1558 58.8218C10.3565 59.3114 10.3579 59.7455 10.115 60.0457C10.0189 60.1642 9.89004 60.255 9.73471 60.3197C9.54382 60.3982 9.3126 60.4367 9.05166 60.4367Z" fill="#DB9C7D"/>
<path d="M5.50541 59.8671C6.08223 60.82 7.98805 60.8185 9.76272 59.864C11.5369 58.908 12.5078 57.3609 11.9312 56.4064C11.3543 55.4535 9.44852 55.4535 7.67401 56.4095C5.8995 57.3655 4.92858 58.9126 5.50541 59.8671Z" fill="#FFD4BD"/>
<path d="M81.3026 38.2996C81.1804 44.9269 76.059 50.301 71.3532 50.7875C66.6479 51.274 64.5417 46.3678 63.8994 40.1654C63.2583 33.9645 66.5511 28.5257 71.2584 28.0547C77.6926 27.4112 81.4171 32.0726 81.3026 38.2996Z" fill="#FFD4BD"/>
<path d="M76.1441 40.969C76.4246 43.6877 74.7083 46.0938 72.3099 46.3432C69.9125 46.5895 67.7405 44.5867 67.4597 41.8665C67.1783 39.1479 68.8948 36.7433 71.2918 36.4954C73.6903 36.246 75.8621 38.2504 76.1441 40.969Z" fill="#E0956C"/>
<path d="M13.7948 54.9348C16.9811 60.7462 24.0141 63.1261 28.407 61.3712C32.7999 59.6147 32.3849 54.2913 30.0725 48.5015C27.7589 42.7117 22.3159 39.4265 17.9284 41.1969C11.9318 43.6153 10.7997 49.4729 13.7948 54.9348Z" fill="#FFD4BD"/>
<path d="M19.9378 54.8193C20.9521 57.3579 23.5895 58.691 25.828 57.7966C28.0666 56.9022 29.0594 54.1189 28.0448 51.5804C27.0304 49.0403 24.3935 47.7087 22.155 48.6031C19.9161 49.4975 18.9234 52.2808 19.9378 54.8193Z" fill="#E0956C"/>
<path d="M11.7491 29.8405C14.4769 50.6906 32.5756 60.4983 49.6531 56.291C66.7308 52.0822 77.1537 33.8337 70.554 14.5015C66.8894 3.76701 53.2652 -2.00895 36.9761 2.11673C19.9261 6.43485 9.80891 15.0111 11.7491 29.8405Z" fill="#444444"/>
<path d="M15.9529 24.4139C15.2513 28.2194 23.7168 58.1661 28.2433 61.5159C33.0447 65.0689 49.1321 65.6385 52.2919 64.8595C55.6767 64.0251 69.4602 56.5635 71.1128 50.9507C73.068 44.3096 67.9546 17.0739 66.0862 14.1428C59.7727 4.24114 50.287 6.19162 37.9967 9.22123C26.4993 12.0538 17.7733 14.5415 15.9529 24.4139Z" fill="#FFD4BD"/>
<path d="M26.0064 54.0327C26.2749 55.2673 28.2081 55.8954 30.3247 55.4351C32.4403 54.9748 33.9388 53.6001 33.6707 52.3655C33.402 51.1324 31.4683 50.5043 29.3524 50.9646C27.2357 51.4249 25.7379 52.7981 26.0064 54.0327Z" fill="#FF9797"/>
<path d="M62.5678 44.6621C63.0061 45.8475 65.008 46.1985 67.0394 45.4472C69.0703 44.6975 70.3623 43.1273 69.924 41.9419C69.4864 40.7566 67.4839 40.4056 65.4529 41.1568C63.4211 41.9081 62.1297 43.4767 62.5678 44.6621Z" fill="#FF9797"/>
<path d="M45.0463 43.0703C45.1819 43.038 45.277 42.9102 45.2663 42.7671C45.1873 41.7464 45.8058 40.9228 46.8423 40.6673C47.885 40.4102 48.837 40.8612 49.2114 41.788C49.2719 41.9358 49.442 42.0081 49.5896 41.9481C49.7385 41.8881 49.8099 41.7187 49.75 41.5709C49.2703 40.3825 48.0175 39.779 46.7033 40.1023C45.3968 40.4256 44.5863 41.514 44.6867 42.8117C44.6993 42.9718 44.8389 43.0919 44.9987 43.078L45.0463 43.0703Z" fill="#C67F75"/>
<path d="M23.3064 32.9578C23.4973 32.9131 23.6732 32.8023 23.7947 32.6314C25.3501 30.4454 28.9453 29.1199 32.1649 29.5525C32.6118 29.6141 33.0276 29.2985 33.0896 28.8459C33.1501 28.3964 32.8344 27.9823 32.3834 27.9207C28.5423 27.4081 24.3647 28.9875 22.4537 31.6785C22.1909 32.0495 22.2774 32.5621 22.6483 32.8254C22.8462 32.967 23.0859 33.007 23.3064 32.9578Z" fill="#8C2F22"/>
<path d="M62.7816 22.9315C63.0007 22.876 63.1961 22.7329 63.3083 22.5158C63.5192 22.114 63.3637 21.6168 62.9616 21.4059C60.0359 19.8757 55.5971 20.3621 52.4075 22.5605C52.0333 22.8191 51.9396 23.3317 52.1974 23.7058C52.4566 24.0799 52.9699 24.1738 53.3421 23.9152C56.0141 22.0694 59.8218 21.6168 62.1985 22.8622C62.3845 22.9607 62.5915 22.9792 62.7816 22.9315Z" fill="#8C2F22"/>
<path d="M60.8539 43.9324C63.0376 48.9279 56.7249 57.8197 49.511 58.9927C42.3364 60.1565 36.2141 54.9794 35.1631 49.6376C35.0214 46.6172 39.8301 46.4186 46.7882 44.7298C53.7378 43.0426 59.5255 40.8936 60.8539 43.9324Z" fill="#701608"/>
<path d="M49.2552 54.0142C45.9841 54.7854 43.6585 56.1879 42.3875 58.1399C44.5167 59.0004 47.2814 59.6424 50.0099 58.9881C53.0818 58.2507 55.6695 57.1054 57.1933 54.5222C56.0494 53.1906 52.1813 53.323 49.2552 54.0142Z" fill="#DD6B5B"/>
<path d="M56.8315 42.4515C54.2481 42.2345 50.6214 43.6831 47.1607 44.5436C43.2553 45.515 40.2679 45.6751 37.9587 46.8666C39.4083 48.9603 43.289 48.62 47.7962 47.5594C53.0006 46.3371 56.6901 45.1101 56.8315 42.4515Z" fill="white"/>
<path d="M37.9904 39.7051C36.036 38.2073 33.4767 37.9363 31.2492 38.9708C30.1775 39.4604 29.2528 40.167 28.6302 41.0737C27.9941 42.0004 27.4901 43.3644 27.3826 44.1603C27.3671 44.2742 27.3208 44.3804 27.3138 44.4959C27.2846 44.9839 27.6588 45.4026 28.1476 45.4303C28.2747 45.438 28.3965 45.418 28.5098 45.3764C28.8274 45.2563 29.0626 44.9577 29.0825 44.5959C29.1812 42.8964 30.2933 41.3569 31.9862 40.5826C33.6699 39.7836 35.4685 40.0053 36.9105 41.1122C37.2998 41.4108 37.854 41.3354 38.1544 40.949C38.452 40.5595 38.3784 40.0053 37.9904 39.7051Z" fill="#6B1A11"/>
<path d="M65.5579 34.291C63.9793 32.4021 61.5422 31.5754 59.142 32.0958C57.9886 32.339 56.9318 32.8254 56.1254 33.5736C55.3015 34.3372 54.5103 35.5595 54.2307 36.3122C54.191 36.42 54.1223 36.5124 54.0904 36.6232C53.955 37.0928 54.2275 37.5838 54.6988 37.7178C54.8208 37.7532 54.9444 37.7609 55.0641 37.7439C55.4002 37.6977 55.6952 37.4576 55.7938 37.1097C56.2635 35.4717 57.6856 34.2155 59.5073 33.8307C61.3253 33.4212 63.0316 34.0308 64.1956 35.4286C64.5101 35.8043 65.0672 35.852 65.4452 35.541C65.8208 35.2269 65.8708 34.6697 65.5579 34.291Z" fill="#6B1A11"/>
<path d="M8.41835 41.7572C11.7809 39.6267 13.5233 36.7741 12.3704 30.8827C10.1556 30.9365 9.01027 30.5686 6.81888 30.3854C14.2704 26.563 10.5289 15.7746 19.7757 8.7194C35.2387 -1.53632 51.7456 -0.558781 56.7827 0.929855C66.0642 3.67005 68.5404 9.72619 70.776 16.6413C73.3969 22.7652 75.2918 24.3139 79.0404 24.9651C75.6158 26.8693 73.2285 26.446 71.6969 25.4977C72.998 29.434 75.2028 30.2592 77.7275 31.5431C72.0694 33.1764 69.7322 31.714 68.4137 27.3558C67.0361 22.8006 65.5425 15.887 64.4093 14.2968C63.7537 13.3762 57.3285 8.33453 55.7371 8.66089C52.2693 9.37365 51.2202 21.9924 38.9797 24.6726C43.2972 20.9179 45.127 16.6121 46.6158 10.7376C45.7896 11.5212 44.9887 12.4248 44.2306 13.4732C36.2469 24.5155 27.522 28.866 18.7507 30.1653C20.4147 38.8646 23.8413 42.7779 13.7342 48.6077C14.4422 47.1807 15.0446 43.2505 14.5938 40.3625C13.5936 41.3416 11.605 42.4623 8.41835 41.7572Z" fill="#444444"/>
<path d="M37.8517 96.6612C37.8516 96.6597 37.8514 96.6597 37.8513 96.6597C37.8514 96.6597 37.8516 96.6597 37.8517 96.6612ZM37.8497 96.6566C37.8496 96.6566 37.8493 96.655 37.8491 96.655C37.8493 96.655 37.8496 96.6566 37.8497 96.6566ZM37.8479 96.652C37.8476 96.652 37.8473 96.6504 37.847 96.6504C37.8473 96.6504 37.8476 96.652 37.8479 96.652ZM37.8457 96.6473C37.8454 96.6473 37.8451 96.6458 37.8448 96.6458C37.8451 96.6458 37.8454 96.6473 37.8457 96.6473ZM37.8437 96.6427C37.8434 96.6427 37.8429 96.6412 37.8426 96.6412C37.8429 96.6412 37.8434 96.6427 37.8437 96.6427ZM37.8413 96.6381C37.841 96.6366 37.8408 96.6366 37.8405 96.6366C37.8408 96.6366 37.841 96.6381 37.8413 96.6381ZM37.83 96.615C37.8282 96.6119 37.8265 96.6073 37.8248 96.6042C37.8265 96.6073 37.8282 96.6104 37.83 96.615ZM37.8212 96.5965C37.8202 96.595 37.8189 96.5919 37.8179 96.5904C37.8191 96.5919 37.82 96.595 37.8212 96.5965ZM37.8117 96.5765C37.8114 96.5765 37.8112 96.5765 37.8109 96.575C37.8112 96.5765 37.8115 96.5765 37.8117 96.5765Z" fill="white"/>
<path d="M55.3597 101.644C54.4969 101.644 53.6621 101.624 52.8577 101.59C44.3871 101.233 39.1105 99.2213 36.1152 97.7434C36.5491 97.1184 38.165 97.3909 37.8534 96.6643C37.8528 96.6627 37.8524 96.6627 37.8517 96.6612C37.8516 96.6597 37.8514 96.6597 37.8513 96.6597C37.8508 96.6581 37.8502 96.6581 37.8497 96.6566C37.8496 96.6566 37.8493 96.655 37.8491 96.655C37.8487 96.6535 37.8482 96.6535 37.8479 96.652C37.8476 96.652 37.8473 96.6504 37.847 96.6504C37.8467 96.6489 37.8462 96.6489 37.8457 96.6473C37.8454 96.6473 37.8451 96.6458 37.8448 96.6458C37.8445 96.6443 37.844 96.6443 37.8437 96.6427C37.8434 96.6427 37.843 96.6412 37.8427 96.6412C37.8422 96.6396 37.8417 96.6381 37.8413 96.6381C37.841 96.6381 37.8408 96.6366 37.8405 96.6366C37.8397 96.635 37.839 96.6335 37.8382 96.6319C37.8354 96.6258 37.8326 96.6212 37.83 96.615C37.8282 96.6104 37.8265 96.6073 37.8248 96.6042C37.8236 96.6011 37.8223 96.5996 37.8213 96.5965C37.82 96.595 37.8191 96.5919 37.8179 96.5904C37.8159 96.5858 37.8137 96.5812 37.8117 96.5765C37.8116 96.5765 37.8112 96.5765 37.8109 96.575C37.4444 95.813 37.3185 95.2557 37.3188 94.8123C40.3011 96.3102 45.9426 98.4947 55.607 98.4947C55.6228 98.4947 55.639 98.4947 55.6549 98.4947C66.0377 98.47 70.9404 95.8499 74.1467 93.7424C74.4417 94.934 74.6995 96.0362 74.9024 96.9953C71.3568 99.1874 65.9783 101.623 55.6622 101.643C55.5611 101.644 55.4603 101.644 55.3597 101.644Z" fill="#F59C74"/>
<path d="M38.5691 92.748C38.5698 92.7464 38.5704 92.7449 38.571 92.7434C38.5704 92.7449 38.5698 92.7464 38.5691 92.748ZM38.5721 92.7418C38.5731 92.7387 38.5742 92.7372 38.5751 92.7341C38.5741 92.7372 38.5731 92.7387 38.5721 92.7418ZM38.5756 92.7341C38.5767 92.731 38.5778 92.728 38.5788 92.7264C38.5778 92.728 38.5767 92.731 38.5756 92.7341ZM38.5788 92.7264C38.5799 92.7233 38.581 92.7218 38.5821 92.7187C38.581 92.7218 38.5799 92.7233 38.5788 92.7264ZM38.5825 92.7172C38.5836 92.7156 38.5845 92.7126 38.5856 92.711C38.5845 92.7126 38.5836 92.7156 38.5825 92.7172ZM38.5856 92.711C38.6375 92.5833 38.6741 92.4462 38.7229 92.3169C38.728 92.32 38.7331 92.3215 38.7382 92.3246C38.6891 92.4539 38.6381 92.5833 38.5856 92.711Z" fill="white"/>
<path d="M55.8276 96.9121C54.8726 96.9121 53.9521 96.8936 53.0681 96.8567C45.7118 96.5473 40.8473 94.9786 37.7834 93.6193C38.0751 93.3006 38.4185 93.0681 38.5691 92.7479C38.5697 92.7464 38.5703 92.7449 38.5709 92.7433C38.5714 92.7433 38.5717 92.7418 38.572 92.7418C38.5731 92.7387 38.574 92.7372 38.5751 92.7341C38.5752 92.7341 38.5754 92.7341 38.5755 92.7341C38.5766 92.731 38.5777 92.7279 38.5788 92.7264C38.5799 92.7233 38.5809 92.7218 38.582 92.7187C38.5822 92.7187 38.5823 92.7187 38.5825 92.7171C38.5836 92.7156 38.5845 92.7126 38.5856 92.711C38.6381 92.5832 38.689 92.4539 38.7381 92.3246C42.041 93.7424 47.3853 95.3358 55.5469 95.3358C55.6387 95.3358 55.731 95.3342 55.8235 95.3342C65.1853 95.3126 70.1854 93.2051 73.5018 91.2239C73.6448 91.7642 73.7835 92.2953 73.9139 92.808C70.4371 94.8246 65.2414 96.8906 55.8276 96.9121Z" fill="#F59C74"/>
</svg>
