<svg width="297" height="254" viewBox="0 0 297 254" fill="none" xmlns="http://www.w3.org/2000/svg">
<g opacity="0.2">
<path d="M53.4617 178.027C51.4861 179.586 49.5072 181.144 47.5283 182.702C45.6207 184.21 40.5158 183.809 37.8168 182.177C34.7035 180.293 34.4172 178.076 36.468 176.463C38.444 174.902 40.4196 173.343 42.3949 171.786C44.3091 170.28 49.4107 170.68 52.1065 172.311C55.2267 174.196 55.5093 176.414 53.4617 178.027Z" fill="#D3559F"/>
<g opacity="0.279999">
<g opacity="0.279999">
<path opacity="0.279999" d="M199.822 223.074C200.145 221.161 197.627 219.092 194.196 218.451C190.764 217.809 187.726 218.84 187.403 220.753C187.078 222.662 189.602 224.733 193.03 225.373C196.461 226.015 199.5 224.986 199.822 223.074Z" fill="#1685A0"/>
</g>
</g>
<g opacity="0.279999">
<g opacity="0.279999">
<path opacity="0.279999" d="M190.556 225.761C190.656 225.163 189.872 224.515 188.796 224.315C187.727 224.115 186.774 224.436 186.674 225.034C186.574 225.632 187.362 226.279 188.434 226.479C189.507 226.681 190.457 226.357 190.556 225.761Z" fill="#1685A0"/>
</g>
</g>
<g opacity="0.330002">
<g opacity="0.330002">
<path opacity="0.330002" d="M183.572 225.494C183.637 225.107 183.125 224.689 182.434 224.559C181.744 224.43 181.126 224.639 181.065 225.024C181 225.41 181.508 225.829 182.199 225.956C182.893 226.086 183.507 225.879 183.572 225.494Z" fill="#1685A0"/>
</g>
</g>
<path d="M212.47 174.871C208.416 176.157 204.72 176.123 199.226 175.72C194.791 175.399 190.457 175.137 186.185 172.446C185.177 171.81 184.273 170.381 184.85 168.405C185.908 166.955 188.462 164.723 190.468 163.914C191.537 163.485 194.994 162.846 194.994 162.846C198.45 163.987 191.486 166.069 194.077 167.4C196.717 166.904 198.278 166.598 199.088 165.87C199.665 165.342 201.613 162.723 205.143 163.869C204.305 166.395 203.246 168.101 199.808 169.601C204.726 168.608 206.171 164.528 210.012 166.544C209.017 168.34 207.644 170.337 203.814 171.702C204.933 171.627 207.725 170.588 208.022 170.411C209.494 169.526 209.983 167.965 213.205 169.21C212.168 171.301 210.05 172.752 208.213 173.412C210.512 173.602 212.866 170.975 216.2 172.642C214.863 173.377 213.949 174.403 212.47 174.871Z" fill="#FFDBC7"/>
<path d="M40.1882 174.751C39.9541 175.67 50.9014 178.718 51.3924 177.863C54.8389 171.867 58.8135 164.895 60.749 164.082C62.25 163.452 78.4188 165.816 89.8844 169.161L90.7261 158.695C79.6443 155.811 54.1296 152.586 50.7711 153.439C46.2615 154.581 40.434 173.79 40.1882 174.751Z" fill="#FFDBC7"/>
<path d="M60.3437 164.929C59.4226 165.576 57.7779 168.652 56.5284 171.224C54.2739 170.581 41.8119 167.274 40.3901 166.767C45.6829 157.779 47.3103 152.611 50.3251 151.963C55.4576 150.862 81.1901 154.596 92.3412 157.159L89.4683 169.871C78.0059 166.526 62.9027 163.124 60.3437 164.929Z" fill="#3D7FAB"/>
<path d="M196.238 174.314C196.578 171.142 194.591 168.466 191.734 167.732C170.358 162.241 146.507 157.535 134.582 167.641C131.996 171.051 142.683 182.618 150.988 175.456C162.621 165.417 195.894 177.486 196.238 174.314Z" fill="#FFDBC7"/>
<path d="M140.018 159.693C155.61 160.335 166.084 170.654 167.132 172.202C167.132 172.202 155.504 172.776 151.829 174.169C143.392 177.365 129.175 170.089 128.147 170.323C124.144 165.263 137.83 163.632 140.018 159.693Z" fill="#ED4A98"/>
<path d="M25.6988 160.625C25.5765 161.565 36.677 164.231 37.0611 163.348C39.7748 157.14 42.9001 149.925 44.7091 149.026C46.1106 148.329 62.272 150.103 73.9182 153.047L73.5719 142.413C62.3558 139.92 36.916 137.638 33.7043 138.629C29.4002 139.959 25.8297 159.641 25.6988 160.625Z" fill="#FFDBC7"/>
<path d="M44.4062 149.897C43.5721 150.589 42.2987 153.771 41.3643 156.424C39.074 155.859 26.4549 152.989 24.9994 152.533C29.1889 143.223 30.2111 137.923 33.1 137.152C38.0219 135.837 63.737 138.63 74.9798 140.795L73.5907 153.783C61.9448 150.836 46.7193 147.973 44.4062 149.897Z" fill="#3D7FAB"/>
<path d="M39.3718 163.016C39.6416 162.438 40.4344 159.743 40.634 159.28C40.634 159.28 32.4601 155.825 23.6412 155.95C24.1602 157.29 24.6721 159.661 24.4489 160.14C25.4338 161.539 37.5173 163.677 39.3718 163.016Z" fill="#FAFBFC"/>
<path d="M23.2128 158.096C27.4714 158.098 39.2367 159.701 40.5827 162.515C40.5427 164.5 40.77 165.186 40.3041 167.256C20.5745 165.035 7.66158 164.07 7.67485 163.775C7.71652 162.323 8.25048 158.09 23.2128 158.096Z" fill="#3D7FAB"/>
<path d="M157.791 175.319C162.747 167.862 148.409 151.109 122.59 147.156C103.813 144.281 96.2801 142.989 88.5722 141.738C82.4437 140.747 72.639 138.797 68.8863 138.351C68.4673 141.525 65.4839 144.001 66.8548 148.886C69.0869 156.798 74.6347 163.796 84.4548 170.187C109.312 169.5 152.835 182.777 157.791 175.319Z" fill="#E55E5E"/>
<path d="M173.964 154.131C176.327 152.334 176.984 148.119 174.123 147.386C152.748 141.894 128.897 137.187 116.974 147.294C114.385 150.705 124.897 162.188 133.377 155.11C144.883 145.51 170.191 153.386 173.964 154.131Z" fill="#FFDBC7"/>
<g opacity="0.320007">
<g opacity="0.320007">
<path opacity="0.320007" d="M110.929 145.555C125.571 141.721 142.647 152.685 143.692 154.234C143.692 154.234 134.342 158.522 132.626 160.935C129.646 165.118 116.425 159.502 115.398 159.734C111.757 155.241 109.607 149.982 110.929 145.555Z" fill="#030404"/>
</g>
</g>
<path d="M114.039 144.125C129.631 144.767 139.619 153.089 140.66 154.637C140.66 154.637 133.504 161.537 130.276 163.24C127.584 164.659 115.574 162.512 112.315 157.73C108.825 152.604 111.85 148.065 114.039 144.125Z" fill="#C72F31"/>
<g opacity="0.320007">
<g opacity="0.320007">
<path opacity="0.320007" d="M108.375 171.077C108.375 171.077 124.284 152.889 158.321 161.018C192.426 169.161 192.944 188.252 192.944 188.252L108.375 171.077Z" fill="#030404"/>
</g>
</g>
<path d="M197.051 153.554C194.628 153.425 190.757 154.56 188.078 154.256C188.078 154.256 187.902 154.218 187.79 154.179C192.186 153.514 194.923 151.948 198.004 150.984C196.43 147.866 191.566 150.495 185.243 151.856C188.646 150.67 190.523 149.6 192.959 148.862C193.995 147.381 192.212 146.578 189.567 147.144C187.532 147.58 184.352 148.754 180.725 149.603C180.32 149.583 186.932 146.477 186.701 145.232C185.896 144.66 183.784 144.457 181.757 145.406C180.661 145.919 179.705 146.658 176.94 147.561C173.974 147.68 170.698 146.979 169.344 146.838C166.399 146.921 165.521 150.329 166.145 151.064C167.76 152.973 176.607 156.016 180.699 156.352C187.559 156.914 191.038 157.297 199.222 154.972C200.315 154.178 198.232 153.618 197.051 153.554Z" fill="#FFDBC7"/>
<path d="M95.8414 170.631C94.0641 170.477 92.3283 170.355 90.6451 170.278C73.2647 158.584 73.4154 147.798 75.8485 139.484C77.1009 139.706 78.4114 139.945 79.7419 140.186C77.313 148.357 77.1464 159.103 95.8414 170.631Z" fill="#C72F31"/>
<path d="M102.165 171.297C101.189 171.178 100.218 171.068 99.2558 170.965C81.7872 159.618 81.3612 149.095 83.5576 140.875C84.2233 140.994 84.8692 141.109 85.5089 141.22C83.3014 149.41 83.8085 159.971 102.165 171.297Z" fill="#C72F31"/>
<path d="M199.89 191.138C199.763 185.172 194.74 179.974 190.131 179.2C185.521 178.426 183.464 182.689 182.843 188.223C182.219 193.752 185.45 198.876 190.062 199.637C196.369 200.673 200.007 196.748 199.89 191.138Z" fill="#FFC09E"/>
<path d="M194.299 187.185C193.27 184.685 190.497 182.872 188.112 183.143C185.723 183.413 184.623 185.658 185.655 188.159C186.687 190.662 189.457 192.47 191.842 192.199C194.23 191.933 195.327 189.687 194.299 187.185Z" fill="#E9B396"/>
<path d="M188.08 203.034C190.29 184.94 171.128 173.322 142.901 168.447C114.673 163.576 92.9726 168.142 90.7632 186.235C88.5534 204.329 108.742 212.106 136.973 216.979C165.201 221.85 185.874 221.129 188.08 203.034Z" fill="#5C5C5C"/>
<path d="M183.617 212.023C184.739 211.638 185.34 210.915 185.256 209.042C184.602 194.835 190.163 194.303 191.207 185.764C192.232 177.361 183.422 170.565 171.377 166.942C159.621 163.408 128.421 157.151 109.949 171.387C102.111 177.429 100.558 192.599 102.219 195.878C107.834 206.949 117.349 207.574 140.312 211.537C161.793 215.245 170.917 216.388 183.617 212.023Z" fill="#FFDBC7"/>
<path d="M113.669 187.152C116.016 182.033 117.191 177.662 110.817 173.458C103.384 168.555 94.4875 179.526 93.437 188.13C92.3865 196.733 102.474 204.983 122.098 207.606C132.211 208.955 107.365 200.893 113.669 187.152Z" fill="#5C5C5C"/>
<path d="M189.728 182.828C189.977 181.907 188.008 180.689 185.333 180.107C182.657 179.524 180.292 179.798 180.043 180.719C179.799 181.639 181.764 182.857 184.436 183.438C187.115 184.022 189.481 183.747 189.728 182.828Z" fill="#F59597"/>
<path d="M136.585 173.905C136.502 172.843 133.871 171.704 130.708 171.364C127.549 171.023 125.047 171.608 125.13 172.668C125.212 173.731 127.847 174.87 131.006 175.21C134.172 175.553 136.667 174.968 136.585 173.905Z" fill="#F59597"/>
<path d="M184.765 200.831C185.093 200.882 185.409 201.01 185.624 201.198C186.012 201.535 185.923 201.936 185.426 202.092C181.781 203.221 175.549 202.638 170.61 200.706C170.028 200.477 169.776 200.057 170.035 199.761C170.297 199.463 170.983 199.412 171.556 199.636C175.693 201.255 181.049 201.788 184.008 200.868C184.233 200.797 184.501 200.789 184.765 200.831Z" fill="#9C4734"/>
<path d="M129.894 191.359C130.178 191.404 130.455 191.509 130.667 191.66C133.287 193.541 138.542 194.845 142.9 194.691C143.525 194.669 144.148 194.954 144.331 195.325C144.511 195.695 144.162 196.014 143.555 196.035C138.366 196.222 132.247 194.672 129.024 192.356C128.575 192.037 128.587 191.623 129.041 191.431C129.275 191.331 129.586 191.311 129.894 191.359Z" fill="#9C4734"/>
<path d="M164.215 181.437C164.021 181.403 163.772 181.438 163.727 181.543C163.4 182.293 162.22 182.61 160.731 182.355C159.234 182.095 158.157 181.378 158.055 180.571C158.037 180.438 157.839 180.316 157.618 180.298C157.397 180.277 157.229 180.366 157.242 180.495C157.377 181.531 158.79 182.483 160.677 182.808C162.554 183.132 164.096 182.71 164.518 181.756C164.568 181.637 164.432 181.495 164.215 181.437Z" fill="#C68C75"/>
<path d="M89.5118 168.8C93.8359 163.687 104.942 162.346 112.369 164.596C119.8 166.846 119.925 171.861 117.021 177.068C114.121 182.276 105.738 184.689 98.3205 182.424C88.18 179.331 85.4492 173.604 89.5118 168.8Z" fill="#FFDBC7"/>
<path d="M102.12 169.6C104.501 167.419 109.834 167.402 111.885 168.525C114.186 169.785 113.855 171.287 112.367 173.596C110.627 176.29 107.928 177.433 104.464 176.069C100.86 174.651 99.3135 172.167 102.12 169.6Z" fill="#E9B396"/>
<path d="M167.518 176.074C167.257 173.621 162.124 171.149 156.048 170.55C149.979 169.951 145.267 171.452 145.527 173.905C145.788 176.359 150.9 176.408 156.988 177.168C163.073 177.929 167.778 178.528 167.518 176.074Z" fill="#6F1811"/>
<path d="M156.948 172.935C153.669 172.613 150.729 171.797 148.993 170.837C150.864 170.373 153.318 170.224 156.044 170.493C159.116 170.794 161.945 171.571 164.053 172.577C162.417 173.061 159.862 173.222 156.948 172.935Z" fill="#DD7868"/>
<path d="M164.648 177.893C162.722 177.941 160.029 177.602 157 177.224C153.575 176.794 150.468 176.588 148.315 176.069C149.078 175.167 152.286 174.756 156.213 175.143C160.426 175.557 163.986 176.745 164.648 177.893Z" fill="white"/>
<path d="M181.091 218.201C185.624 220.007 188.237 221.624 187.891 222.647C187.293 224.417 178.075 223.858 166.065 221.522C170.763 224.874 172.31 226.453 170.754 228.622C167.626 232.988 150.825 231.729 133.227 225.809C115.631 219.891 104.772 213.409 107.896 209.044C102.082 207.667 98.8875 204.887 98.0324 203.417C100.119 201.814 103.253 200.172 109.025 198.59C117.268 196.334 126.844 197.747 128.743 199.965C129.474 200.814 129.074 201.778 127.802 202.722C134.529 202.395 143.094 202.609 152.501 203.453C174.79 205.456 197.108 210.661 197.673 214.559C197.978 216.659 190.941 219.096 181.091 218.201Z" fill="#5C5C5C"/>
<path d="M170.386 184.126C170.386 184.126 181.348 183.523 185.171 187.974C189.826 193.399 181.886 195.849 176.971 194.351C172.421 192.961 168.441 189.631 170.386 184.126Z" fill="#FAFDFF"/>
<path d="M185.533 194.017C183.408 195.384 180.683 195.49 177.78 194.833C174.817 194.165 171.903 192.272 171.164 190.681C172.642 192.576 175.358 193.614 177.057 194.133C179.767 194.96 183.421 194.705 185.165 193.303C186.708 192.056 186.755 189.824 185.044 187.833C187.128 189.331 187.749 192.592 185.533 194.017Z" fill="#9C4734"/>
<path d="M173.435 188.857C172.214 187.059 173.162 185.229 175.553 184.769C177.945 184.31 180.868 185.391 182.088 187.19C183.309 188.987 182.362 190.815 179.973 191.278C177.584 191.739 174.656 190.654 173.435 188.857Z" fill="#621B10"/>
<path d="M173.901 189.421C173.562 188.921 173.824 188.415 174.487 188.287C175.15 188.159 175.961 188.46 176.3 188.958C176.639 189.456 176.376 189.965 175.713 190.093C175.05 190.221 174.236 189.92 173.901 189.421Z" fill="white"/>
<path d="M149.178 180.779C149.178 180.779 136.554 176.454 131.388 179.486C125.097 183.182 133.919 188.278 139.872 188.494C145.381 188.694 150.538 186.806 149.178 180.779Z" fill="#FAFDFF"/>
<path d="M129.982 185.248C132.224 187.303 135.377 188.338 138.848 188.689C142.399 189.048 146.088 188.199 147.208 186.899C145.182 188.243 141.859 188.325 139.803 188.251C136.521 188.136 132.323 186.639 130.53 184.679C128.937 182.936 129.246 180.746 131.557 179.391C128.897 180.14 127.64 183.103 129.982 185.248Z" fill="#9C4734"/>
<path d="M135.847 182.622C134.797 180.771 136.38 179.111 139.382 178.913C142.383 178.718 145.668 180.059 146.718 181.908C147.768 183.759 146.182 185.419 143.18 185.616C140.178 185.813 136.897 184.473 135.847 182.622Z" fill="#621B10"/>
<path d="M136.275 183.212C135.983 182.699 136.421 182.237 137.257 182.183C138.089 182.128 138.999 182.5 139.29 183.014C139.579 183.527 139.141 183.987 138.308 184.043C137.476 184.097 136.563 183.725 136.275 183.212Z" fill="white"/>
<path d="M164.354 181.427C164.158 181.396 163.916 181.434 163.874 181.542C163.579 182.3 162.425 182.639 160.937 182.403C159.435 182.166 158.331 181.462 158.193 180.651C158.171 180.52 157.969 180.401 157.748 180.384C157.526 180.367 157.365 180.459 157.384 180.588C157.566 181.629 159.01 182.563 160.898 182.862C162.781 183.157 164.297 182.71 164.67 181.744C164.714 181.622 164.574 181.483 164.354 181.427Z" fill="#C68C75"/>
<path d="M40.3482 166.862C39.5127 163.809 36.0235 162.574 23.2518 161.549C14.1263 160.817 7.39113 161.813 7.52054 163.524C7.64666 165.234 15.3499 167.329 24.505 168.328C33.6571 169.325 40.8205 168.598 40.3482 166.862Z" fill="#2B6883"/>
<path d="M53.6352 178.195C53.9099 177.575 54.7223 174.692 54.9246 174.197C54.9246 174.197 46.7681 170.601 37.9386 170.832C38.4445 172.257 38.94 174.782 38.7169 175.295C39.6894 176.775 51.7748 178.921 53.6352 178.195Z" fill="#FAFBFC"/>
<path d="M37.4712 173.319C41.7302 173.32 53.4952 174.924 54.8412 177.738C54.8011 179.722 55.0317 180.41 54.5592 182.478C34.8329 180.257 21.9204 179.291 21.9333 178.998C21.975 177.546 22.5089 173.313 37.4712 173.319Z" fill="#3D7FAB"/>
<path d="M54.6068 182.085C53.7746 179.032 50.2824 177.794 37.5103 176.772C28.3882 176.04 21.6497 177.036 21.7791 178.747C21.9052 180.457 29.6084 182.551 38.7639 183.549C47.9156 184.548 55.079 183.821 54.6068 182.085Z" fill="#2B6883"/>
<g opacity="0.5">
<path d="M234.142 191.058L156.939 170.373L157.136 168.48L222.06 123.148L283.67 133.639L283.493 135.435L234.142 191.058Z" fill="#12818D"/>
<path d="M233.772 189.125L157.138 168.48L222.162 121.329L283.378 133.646L233.772 189.125Z" fill="#1F9BAF"/>
<path d="M222.33 123.625C217.728 126.349 214.539 126.319 211.182 127.784C203.953 130.952 200.332 135.725 198.484 141.907L258.207 156.6C258.207 156.6 258.505 147.848 264.094 143.015C268.82 138.929 270.396 142.194 276.159 135.067L222.33 123.625Z" fill="#F9F9FA"/>
<path d="M224.657 125.933C220.781 128.226 218.094 128.199 215.269 129.434C209.181 132.101 206.243 133.089 204.687 138.289L254.965 150.663C254.965 150.663 255.109 146.32 259.811 142.255C263.787 138.814 265.119 141.567 269.968 135.562L224.657 125.933Z" fill="#C4DCE5"/>
<path d="M231.853 179.971L163.272 162.34L198.945 139.035L256.797 153.335L231.853 179.971Z" fill="#D6D6D6"/>
<path d="M199.645 139.783C194.213 137.991 185.943 139.145 180.327 145.147C175.736 150.057 170.31 156.696 164.136 158.499L228.865 174.624C230.241 174.36 238.644 174.27 240.75 167.324C245.023 153.201 256.764 153.635 256.764 153.635L199.645 139.783Z" fill="#F9F9FA"/>
<path d="M233.959 162.235C233.319 161.998 224.685 159.705 222.717 158.871C224.447 154.385 228.681 149.044 231.09 148.817C231.09 148.817 242.469 151.494 243.574 151.808C238.912 152.576 234.695 160.89 233.959 162.235Z" fill="#C4DCE5"/>
<path d="M192.814 150.98C195.769 146.227 198.711 143.45 201.1 141.761L199.942 141.481C199.785 141.43 199.604 141.404 199.44 141.357C197.121 143.183 194.424 145.973 191.73 150.313C188.005 156.297 179.842 160.176 178.945 160.346L178.992 160.58L180.702 161.004C183.677 159.639 189.728 155.94 192.814 150.98Z" fill="#C4DCE5"/>
<path d="M196.87 152.486C200.042 147.379 203.222 144.512 205.695 142.876L204.042 142.476C201.599 144.278 198.7 147.125 195.782 151.819C192.385 157.283 185.337 160.964 183.456 161.692L185.457 162.189C188.613 160.597 194.028 157.056 196.87 152.486Z" fill="#C4DCE5"/>
<path d="M223.598 147.218C220.914 148.867 217.363 151.924 213.812 157.632C211.148 161.918 206.235 165.099 203.313 166.635L205.147 167.092C208.307 165.253 212.51 162.145 214.897 158.3C218.883 151.891 222.872 148.99 225.452 147.669L223.598 147.218Z" fill="#C4DCE5"/>
<path d="M205.825 155.547C209.48 149.669 213.117 146.771 215.691 145.303L213.924 144.872C211.32 146.598 208.034 149.582 204.741 154.879C201.866 159.502 196.374 162.847 193.599 164.219L195.453 164.679C198.659 162.9 203.268 159.659 205.825 155.547Z" fill="#C4DCE5"/>
<path d="M201.772 154.04C205.112 148.666 208.469 145.746 210.985 144.16L209.322 143.756C206.809 145.532 203.756 148.429 200.684 153.373C197.538 158.423 191.276 161.948 188.85 163.033L190.774 163.513C193.974 161.834 199.041 158.43 201.772 154.04Z" fill="#C4DCE5"/>
<path d="M210.845 156.796C214.516 150.888 218.171 147.987 220.745 146.528L218.974 146.098C216.364 147.823 213.064 150.808 209.761 156.128C206.879 160.754 201.391 164.099 198.613 165.468L200.467 165.928C203.673 164.152 208.281 160.915 210.845 156.796Z" fill="#C4DCE5"/>
</g>
</g>
<path d="M67.8928 58.6048C66.2529 55.1767 64.6096 51.7487 62.9663 48.3206C61.3833 45.0061 56.2963 43.9547 53.3344 45.9007C49.9173 48.1504 49.2112 51.959 50.9147 55.5072C52.5546 58.9385 54.1945 62.3666 55.8344 65.7913C57.4241 69.1058 62.5078 70.1573 65.4664 68.2113C68.8901 65.9648 69.5929 62.153 67.8928 58.6048Z" fill="#D3559F"/>
<path d="M232.142 185.058L154.939 164.373L155.136 162.48L220.06 117.148L281.67 127.639L281.493 129.435L232.142 185.058Z" fill="#12818D"/>
<path d="M231.772 183.125L155.138 162.48L220.163 115.329L281.378 127.646L231.772 183.125Z" fill="#1F9BAF"/>
<path d="M220.118 116.533C215.579 120.264 202.346 131.396 196.349 135.889L256.068 150.583C256.068 150.583 271.798 134.901 277.561 127.771L220.118 116.533Z" fill="#D6D6D6"/>
<path d="M220.33 117.625C215.728 120.349 212.539 120.319 209.182 121.784C201.953 124.952 198.332 129.725 196.484 135.907L256.207 150.6C256.207 150.6 256.505 141.848 262.094 137.015C266.82 132.929 268.396 136.194 274.159 129.067L220.33 117.625Z" fill="#F9F9FA"/>
<path d="M222.657 119.933C218.781 122.226 216.094 122.199 213.269 123.434C207.181 126.101 204.243 127.089 202.687 132.289L252.965 144.663C252.965 144.663 253.109 140.32 257.811 136.255C261.787 132.814 263.119 135.567 267.968 129.562L222.657 119.933Z" fill="#C4DCE5"/>
<path d="M230.785 179.32L161.233 160.561L161.27 156.339L196.946 133.037C196.946 133.037 238.764 144.653 254.654 147.417C255.946 148.188 255.979 150.651 255.979 150.651L230.785 179.32Z" fill="#B5B5B6"/>
<path d="M229.854 173.971L161.272 156.34L196.945 133.035L254.797 147.335L229.854 173.971Z" fill="#D6D6D6"/>
<path d="M197.645 133.783C192.213 131.991 183.943 133.145 178.327 139.147C173.736 144.057 168.311 150.696 162.136 152.499L226.865 168.624C228.241 168.36 236.645 168.27 238.75 161.324C243.023 147.201 254.764 147.635 254.764 147.635L197.645 133.783Z" fill="#F9F9FA"/>
<path d="M231.959 156.235C231.319 155.998 222.685 153.705 220.717 152.871C222.447 148.385 226.681 143.044 229.091 142.817C229.091 142.817 240.469 145.494 241.574 145.808C236.912 146.576 232.695 154.89 231.959 156.235Z" fill="#C4DCE5"/>
<path d="M190.814 144.98C193.769 140.227 196.711 137.45 199.101 135.761L197.943 135.481C197.785 135.43 197.605 135.404 197.441 135.357C195.121 137.183 192.424 139.973 189.73 144.313C186.005 150.297 177.842 154.176 176.945 154.346L176.992 154.58L178.702 155.004C181.677 153.639 187.728 149.94 190.814 144.98Z" fill="#C4DCE5"/>
<path d="M194.87 146.486C198.042 141.379 201.222 138.512 203.695 136.876L202.042 136.476C199.599 138.278 196.7 141.125 193.782 145.819C190.385 151.283 183.337 154.964 181.456 155.692L183.457 156.189C186.613 154.597 192.028 151.056 194.87 146.486Z" fill="#C4DCE5"/>
<path d="M221.598 141.218C218.914 142.867 215.363 145.924 211.812 151.632C209.148 155.918 204.235 159.099 201.314 160.635L203.148 161.092C206.307 159.253 210.51 156.145 212.897 152.3C216.883 145.891 220.872 142.99 223.452 141.669L221.598 141.218Z" fill="#C4DCE5"/>
<path d="M203.825 149.547C207.48 143.669 211.118 140.771 213.691 139.303L211.924 138.872C209.32 140.598 206.034 143.582 202.741 148.879C199.866 153.502 194.374 156.847 191.599 158.219L193.453 158.679C196.66 156.9 201.268 153.659 203.825 149.547Z" fill="#C4DCE5"/>
<path d="M199.772 148.04C203.112 142.666 206.469 139.746 208.986 138.16L207.322 137.756C204.809 139.532 201.757 142.429 198.684 147.373C195.538 152.423 189.277 155.948 186.85 157.033L188.775 157.513C191.974 155.834 197.041 152.43 199.772 148.04Z" fill="#C4DCE5"/>
<path d="M208.845 150.796C212.517 144.888 216.171 141.987 218.745 140.528L216.974 140.098C214.364 141.823 211.064 144.808 207.761 150.128C204.879 154.754 199.391 158.099 196.613 159.468L198.467 159.928C201.673 158.152 206.282 154.915 208.845 150.796Z" fill="#C4DCE5"/>
<g opacity="0.279999">
<g opacity="0.279999">
<path opacity="0.279999" d="M220.176 29.6267C220.126 33.1081 217.258 35.8886 213.767 35.8352C210.276 35.7851 207.492 32.9212 207.542 29.4398C207.589 25.9617 210.464 23.1812 213.951 23.2346C217.442 23.2847 220.226 26.1453 220.176 29.6267Z" fill="#1685A0"/>
</g>
</g>
<g opacity="0.279999">
<g opacity="0.279999">
<path opacity="0.279999" d="M211.597 21.6997C211.58 22.7878 210.687 23.659 209.592 23.6423C208.505 23.6257 207.631 22.7311 207.648 21.6429C207.665 20.5548 208.562 19.6869 209.653 19.7036C210.744 19.7169 211.614 20.6148 211.597 21.6997Z" fill="#1685A0"/>
</g>
</g>
<g opacity="0.330002">
<g opacity="0.330002">
<path opacity="0.330002" d="M204.691 19.7628C204.681 20.4672 204.099 21.0279 203.396 21.0179C202.693 21.0079 202.128 20.4271 202.141 19.7261C202.151 19.0251 202.73 18.461 203.433 18.4744C204.139 18.4844 204.701 19.0618 204.691 19.7628Z" fill="#1685A0"/>
</g>
</g>
<path d="M223.343 118.936C219.612 115.274 215.977 114.059 210.508 112.878C206.094 111.916 201.79 110.885 197.081 114.156C195.97 114.93 194.809 117.137 194.996 120.819C195.756 123.739 197.834 128.552 199.648 130.669C200.615 131.794 203.885 134.11 203.885 134.11C207.496 133.289 201.061 127.221 203.858 125.769C206.355 127.551 207.828 128.629 208.484 130.191C208.949 131.32 210.358 136.607 214.043 135.802C213.705 131.063 212.992 127.691 209.906 123.863C214.541 127.307 215.177 134.995 219.334 132.765C218.701 129.257 217.737 125.265 214.24 121.54C215.324 122.057 217.865 124.851 218.122 125.265C219.397 127.331 219.578 130.251 222.978 129.167C222.363 125.124 220.562 121.837 218.885 120.041C221.178 120.498 222.985 125.939 226.576 124.15C225.405 122.394 224.705 120.271 223.343 118.936Z" fill="#FFDBC7"/>
<path d="M54.2375 59.8049C54.1839 58.1059 65.5127 56.5037 65.8306 58.1793C68.0629 69.9354 70.6265 83.5908 72.3702 85.6904C73.7223 87.3193 90.0444 88.7212 101.939 86.7752L100.757 105.511C89.3282 106.776 63.6686 103.672 60.5361 101.011C56.3292 97.4465 54.2944 61.584 54.2375 59.8049Z" fill="#FFDBC7"/>
<path d="M72.1346 84.06C71.3548 82.6014 70.3307 76.6132 69.5978 71.6497C67.2617 72.0069 54.3968 73.5423 52.9042 73.9462C56.3748 91.6104 56.9805 101.28 59.8152 103.46C64.6412 107.168 90.612 109.451 102.048 108.774L101.666 85.3819C89.7753 87.3278 74.3 88.1223 72.1346 84.06Z" fill="#3D7FAB"/>
<path d="M207.306 114.326C207.031 120.034 204.568 124.066 201.623 124.377C179.591 126.69 155.28 126.77 145.514 104.85C143.63 97.9506 156.338 81.2444 163.115 96.729C172.606 118.429 207.577 108.619 207.306 114.326Z" fill="#FFDBC7"/>
<path d="M149.326 120.732C164.751 124.971 177.01 110.391 178.335 108.024C178.335 108.024 167.033 103.008 163.693 99.2857C156.026 90.7473 140.678 98.6749 139.714 97.9072C134.814 105.448 147.933 113.035 149.326 120.732Z" fill="#ED4A98"/>
<path d="M37.3075 79.7117C37.3678 78.0127 48.7735 77.1382 48.981 78.8272C50.4536 90.7034 52.137 104.496 53.7401 106.702C54.9817 108.414 71.1834 110.854 83.1781 109.676L80.7986 128.298C69.3125 128.829 43.9073 124.089 40.9455 121.235C36.9762 117.41 37.2473 81.4908 37.3075 79.7117Z" fill="#FFDBC7"/>
<path d="M53.61 105.062C52.9239 103.557 52.2847 97.5085 51.8764 92.5117C49.5202 92.7186 36.585 93.4296 35.069 93.7334C37.395 111.584 37.3816 121.278 40.069 123.631C44.6474 127.643 70.4207 131.579 81.87 131.635L82.9978 108.267C71.0031 109.448 55.5109 109.251 53.61 105.062Z" fill="#3D7FAB"/>
<path d="M51.1852 80.2071C51.3392 81.3186 51.6002 86.3422 51.7073 87.2267C51.7073 87.2267 43.0225 90.5012 34.3912 87.2434C35.1576 85.0604 36.1148 81.0583 35.9876 80.137C37.2226 78.0108 49.4918 78.4047 51.1852 80.2071Z" fill="#FAFBFC"/>
<path d="M34.3824 83.3137C38.5625 84.7757 50.4167 86.004 52.2775 81.5079C52.6189 77.9964 52.9736 76.8648 52.9134 73.0563C33.124 70.1757 20.2658 67.4286 20.2223 67.9526C19.9847 70.5261 19.6969 78.1699 34.3824 83.3137Z" fill="#3D7FAB"/>
<path d="M169.766 99.3125C173.2 114.163 155.914 138.75 129.816 136.824C110.836 135.422 103.196 135.105 95.391 134.654C89.1861 134.29 79.1894 134.351 75.4209 133.843C75.6184 128.105 73.1652 122.715 75.4477 114.577C79.1559 101.402 85.9431 90.9778 96.8067 83.097C121.071 92.8704 166.332 84.4622 169.766 99.3125Z" fill="#E55E5E"/>
<path d="M181.574 142.226C183.549 146.208 183.385 153.862 180.436 154.169C158.405 156.485 134.094 156.565 124.331 134.645C122.444 127.743 134.964 111.127 141.929 126.521C151.38 147.403 177.729 142.239 181.574 142.226Z" fill="#FFDBC7"/>
<g opacity="0.320007">
<g opacity="0.320007">
<path opacity="0.320007" d="M118.065 135.631C131.699 147.43 150.562 133.989 151.884 131.619C151.884 131.619 143.53 120.841 142.309 115.997C140.187 107.599 126.134 112.943 125.17 112.179C120.735 118.845 117.616 127.373 118.065 135.631Z" fill="#030404"/>
</g>
</g>
<path d="M120.843 139.22C136.268 143.459 147.667 132.234 148.985 129.864C148.985 129.864 143.286 115.237 140.445 111.125C138.075 107.697 125.876 107.343 121.76 114.65C117.352 122.48 119.45 131.523 120.843 139.22Z" fill="#C72F31"/>
<g opacity="0.320007">
<g opacity="0.320007">
<path opacity="0.320007" d="M120.453 89.7685C120.453 89.7685 132.579 127.303 167.542 124.7C202.576 122.096 206.746 88.627 206.746 88.627L120.453 89.7685Z" fill="#030404"/>
</g>
</g>
<path d="M204.122 151.196C201.719 150.589 198.138 147.254 195.451 146.867C195.451 146.867 195.27 146.873 195.153 146.903C199.34 149.591 201.726 153.292 204.564 156.053C202.422 161.006 198.151 154.698 192.208 150.121C195.32 153.382 196.957 155.916 199.206 158.055C199.939 161.023 198.034 161.824 195.548 159.915C193.633 158.446 190.738 155.282 187.341 152.535C186.94 152.431 192.833 160.182 192.368 162.298C191.468 163.029 189.356 162.658 187.549 160.289C186.572 159.007 185.775 157.375 183.235 154.831C180.347 153.599 176.997 153.706 175.641 153.489C172.766 152.328 172.559 146.019 173.312 144.937C175.263 142.13 184.53 139.814 188.61 140.632C195.451 142.003 198.938 142.527 206.525 149.444C207.445 151.219 205.293 151.49 204.122 151.196Z" fill="#FFDBC7"/>
<path d="M108.067 86.2375C106.293 85.8971 104.566 85.5132 102.899 85.0693C83.5988 99.6926 81.6777 118.755 82.4709 134.247C83.7427 134.287 85.0747 134.317 86.4268 134.35C85.6102 119.113 87.5078 100.117 108.067 86.2375Z" fill="#C72F31"/>
<path d="M114.4 87.2413C113.42 87.1145 112.446 86.9743 111.482 86.8241C92.1613 100.807 89.7248 119.205 90.3038 134.449C90.9799 134.469 91.6358 134.489 92.2851 134.513C91.6894 119.319 94.2128 100.88 114.4 87.2413Z" fill="#C72F31"/>
<path d="M214.117 85.9342C212.848 96.4052 206.921 103.835 202.249 103.612C197.577 103.388 196.376 95.1669 196.827 85.1999C197.276 75.2395 201.429 67.322 206.101 67.569C212.49 67.9162 215.308 76.0874 214.117 85.9342Z" fill="#FFC09E"/>
<path d="M207.871 90.9741C206.382 95.0263 203.313 97.266 201.024 95.9676C198.731 94.6691 198.082 90.3332 199.575 86.281C201.067 82.2254 204.133 79.9923 206.422 81.2908C208.715 82.5825 209.361 86.9185 207.871 90.9741Z" fill="#E9B396"/>
<path d="M204.808 60.8996C203.507 93.551 182.472 107.427 153.834 106.295C125.196 105.157 104.774 89.6356 106.076 56.9876C107.378 24.3363 128.683 17.5837 157.325 18.7186C185.963 19.8568 206.114 28.2483 204.808 60.8996Z" fill="#5C5C5C"/>
<path d="M202.152 43.5197C203.179 44.5845 203.631 46.0665 203.189 49.3377C199.822 74.1516 205.177 77.0055 204.565 92.4133C203.959 107.577 194.009 116.52 181.492 118.756C169.277 120.936 137.456 121.216 122.057 89.763C115.524 76.4147 116.91 49.1441 119.169 43.9369C126.803 26.3595 136.261 28.5359 159.558 29.4605C181.352 30.325 190.525 31.4532 202.152 43.5197Z" fill="#FFDBC7"/>
<path d="M128.732 63.2605C130.054 73.0906 130.369 81.1984 123.307 86.4122C115.071 92.4938 108.444 70.0932 109.064 54.5686C109.683 39.044 121.165 27.9788 140.928 30.1151C151.112 31.2199 125.182 36.871 128.732 63.2605Z" fill="#5C5C5C"/>
<path d="M202.55 97.0789C202.617 98.7879 200.452 100.257 197.714 100.36C194.977 100.467 192.707 99.1684 192.641 97.4594C192.577 95.7538 194.739 94.2851 197.473 94.1816C200.214 94.0748 202.483 95.3732 202.55 97.0789Z" fill="#F59597"/>
<path d="M148.682 94.5007C148.397 96.3432 145.596 97.4447 142.427 96.9541C139.261 96.4667 136.918 94.5741 137.202 92.7349C137.487 90.8891 140.291 89.7909 143.458 90.2782C146.63 90.7656 148.966 92.6548 148.682 94.5007Z" fill="#F59597"/>
<path d="M201.132 63.6416C201.463 63.665 201.798 63.5481 202.046 63.2911C202.491 62.8305 202.481 62.0928 202.022 61.6455C198.662 58.401 192.434 57.2828 187.216 58.9852C186.601 59.1888 186.273 59.843 186.47 60.4539C186.671 61.068 187.333 61.3952 187.939 61.1982C192.31 59.7696 197.668 60.6742 200.396 63.3145C200.603 63.5181 200.864 63.6249 201.132 63.6416Z" fill="#9C4734"/>
<path d="M145.463 61.4343C145.751 61.4543 146.042 61.3642 146.28 61.1706C149.211 58.7572 154.62 58.2699 158.867 60.0424C159.476 60.296 160.142 60.009 160.393 59.4182C160.64 58.8273 160.359 58.1464 159.767 57.8994C154.71 55.7831 148.408 56.4073 144.8 59.3781C144.298 59.7853 144.231 60.5197 144.64 61.0137C144.85 61.2707 145.152 61.4142 145.463 61.4343Z" fill="#9C4734"/>
<path d="M177.244 90.7422C177.047 90.7355 176.809 90.5886 176.785 90.3884C176.608 88.953 175.51 87.9884 174.001 87.925C172.482 87.8682 171.287 88.7594 171.032 90.148C170.989 90.375 170.771 90.5219 170.55 90.4785C170.33 90.4384 170.182 90.2248 170.219 90.0012C170.55 88.222 172.12 87.0304 174.034 87.1072C175.939 87.1839 177.371 88.459 177.602 90.2849C177.629 90.5119 177.468 90.7155 177.244 90.7422Z" fill="#C68C75"/>
<path d="M101.504 87.2842C104.767 97.7852 115.409 103.974 123.13 102.565C130.855 101.16 131.939 92.3645 130.088 82.1872C128.241 72.0099 120.476 64.8702 112.762 66.3055C102.216 68.2648 98.438 77.4173 101.504 87.2842Z" fill="#FFDBC7"/>
<path d="M114.032 90.2176C115.949 94.8806 121.18 96.7465 123.409 95.4748C125.909 94.0461 125.872 91.2857 124.855 86.7027C123.663 81.3554 121.234 78.4113 117.572 79.623C113.764 80.8814 111.769 84.7267 114.032 90.2176Z" fill="#E9B396"/>
<path d="M179.456 101.333C178.73 105.566 173.218 108.156 167.14 107.118C161.069 106.083 156.732 101.814 157.458 97.5814C158.184 93.3456 163.211 95.0212 169.332 95.7789C175.45 96.5333 180.183 97.0974 179.456 101.333Z" fill="#6F1811"/>
<path d="M168.481 103.223C165.201 102.663 162.159 103.087 160.272 104.181C162.019 105.643 164.398 106.752 167.126 107.216C170.198 107.743 173.123 107.349 175.386 106.301C173.873 104.886 171.396 103.721 168.481 103.223Z" fill="#DD7868"/>
<path d="M176.989 97.1376C175.108 96.3899 172.4 96.0595 169.355 95.6823C165.911 95.2617 162.822 94.5541 160.61 94.7276C161.185 96.5802 164.254 98.4094 168.183 99.0803C172.397 99.8013 176.118 98.9334 176.989 97.1376Z" fill="white"/>
<path d="M200.857 31.7618C205.653 30.1395 208.528 28.1902 208.384 26.2676C208.137 22.943 198.983 20.7533 186.747 20.7333C192.002 16.4441 193.823 14.1944 192.711 9.83506C190.479 1.06305 173.749 -2.50517 155.342 1.86748C136.938 6.2368 125.037 13.9207 127.266 22.6893C121.295 23.1132 117.627 26.9118 116.506 29.2083C118.246 32.7531 121.007 36.7252 126.369 41.5018C134.026 48.3178 143.695 49.1255 145.984 45.8711C146.864 44.626 146.657 42.7902 145.589 40.6873C152.129 43.5813 160.576 46.1548 169.97 47.9072C192.229 52.0529 215.131 50.5675 216.433 43.8917C217.136 40.2968 210.697 33.5776 200.857 31.7618Z" fill="#5C5C5C"/>
<path d="M183.816 88.1279C183.816 88.1279 194.459 92.9678 199.064 86.4389C204.673 78.4814 197.351 71.4284 192.24 72.3764C187.508 73.2576 182.963 77.757 183.816 88.1279Z" fill="#FAFDFF"/>
<path d="M200.579 75.9137C198.755 72.7727 196.101 71.6479 193.126 71.8048C190.091 71.9616 186.868 74.2948 185.837 76.845C187.651 74.0144 190.516 73.1199 192.283 72.7894C195.101 72.2654 198.638 73.9744 200.081 77.0452C201.356 79.7756 200.974 83.7244 198.913 86.645C201.245 84.7224 202.48 79.1882 200.579 75.9137Z" fill="#9C4734"/>
<path d="M187.715 80.8425C186.173 83.5896 186.752 87.1412 189.011 88.7767C191.27 90.409 194.345 89.5111 195.888 86.7606C197.431 84.0135 196.852 80.4653 194.596 78.8264C192.341 77.1909 189.258 78.0954 187.715 80.8425Z" fill="#621B10"/>
<path d="M188.281 80.0085C187.852 80.7729 188.013 81.7542 188.639 82.2082C189.265 82.6621 190.118 82.4118 190.547 81.6507C190.975 80.8897 190.814 79.9017 190.188 79.4477C189.563 78.9938 188.706 79.2441 188.281 80.0085Z" fill="white"/>
<path d="M162.36 86.7238C162.36 86.7238 149.14 89.9983 144.652 82.8752C139.187 74.1933 148.822 68.2518 154.706 69.9207C160.151 71.4662 164.85 76.5699 162.36 86.7238Z" fill="#FAFDFF"/>
<path d="M144.378 72.2343C146.971 69.3837 150.265 68.646 153.739 69.2235C157.293 69.8143 160.75 72.5814 161.6 75.2584C159.87 72.1909 156.624 70.9025 154.592 70.325C151.349 69.3971 146.941 70.5887 144.806 73.4259C142.909 75.9494 142.791 79.9148 144.799 83.0991C142.333 80.8627 141.667 75.2083 144.378 72.2343Z" fill="#9C4734"/>
<path d="M149.63 78.8829C148.244 81.7835 149.479 85.255 152.387 86.6368C155.296 88.0154 158.776 86.7837 160.162 83.8864C161.548 80.9858 160.309 77.5144 157.401 76.1325C154.493 74.7506 151.015 75.9823 149.63 78.8829Z" fill="#621B10"/>
<path d="M150.163 77.9906C149.778 78.7951 150.119 79.7597 150.929 80.1436C151.736 80.5275 152.699 80.1837 153.084 79.3792C153.466 78.5748 153.124 77.6134 152.318 77.2262C151.511 76.8457 150.544 77.1862 150.163 77.9906Z" fill="white"/>
<path d="M177.378 90.8081C177.18 90.7948 176.949 90.6445 176.929 90.4409C176.785 89.0023 175.718 88.0076 174.212 87.9108C172.692 87.8106 171.474 88.6718 171.183 90.0537C171.136 90.2774 170.915 90.4176 170.694 90.3708C170.473 90.3241 170.333 90.1071 170.376 89.8868C170.755 88.1144 172.351 86.9661 174.262 87.0896C176.166 87.2165 177.569 88.5283 177.749 90.3575C177.769 90.5878 177.605 90.7847 177.378 90.8081Z" fill="#C68C75"/>
<path d="M52.8812 73.7657C51.4755 78.8593 47.8142 79.834 35.0831 77.2405C25.9867 75.3879 19.5676 71.3124 20.0228 68.3416C20.4746 65.3709 28.4365 64.3328 37.6133 65.7247C46.7867 67.12 53.6777 70.8684 52.8812 73.7657Z" fill="#2B6883"/>
<path d="M68.0953 58.3678C68.2459 59.5561 68.4903 64.9168 68.594 65.8581C68.594 65.8581 59.8991 69.3863 51.2779 65.9382C52.0476 63.6017 53.0182 59.3225 52.8977 58.3411C54.136 56.068 66.4086 56.4486 68.0953 58.3678Z" fill="#FAFBFC"/>
<path d="M51.2961 61.3954C55.4762 62.8607 67.3304 64.0857 69.1911 59.5895C69.5325 56.0781 69.8906 54.9465 69.8237 51.138C50.0377 48.2573 37.1795 45.5136 37.1359 46.0343C36.8983 48.6078 36.6105 56.2516 51.2961 61.3954Z" fill="#3D7FAB"/>
<path d="M69.7948 51.8482C68.3925 56.9418 64.7278 57.9198 51.9968 55.323C42.9036 53.4704 36.4812 49.3948 36.9364 46.4241C37.3882 43.4534 45.3501 42.4153 54.5269 43.8105C63.7004 45.2024 70.5913 48.9509 69.7948 51.8482Z" fill="#2B6883"/>
</svg>
