<svg width="333" height="304" viewBox="0 0 333 304" fill="none" xmlns="http://www.w3.org/2000/svg">
<defs>
<linearGradient id="paint0_linear_310_11349" x1="161" y1="178.86" x2="187" y2="304" gradientUnits="userSpaceOnUse">
<stop stop-color="white" stop-opacity="0"/>
<stop offset="0.331036" stop-color="white" stop-opacity="0.9"/>
<stop offset="1" stop-color="white"/>
</linearGradient>
</defs>
<g opacity="0.2">
<path d="M187.39 227.885C190.366 226.54 192.852 225.537 196.002 224.634C201.961 223.166 238.724 221.484 239.262 223.241C242.696 248.799 245.022 252.93 237.602 255.568C233.45 256.127 212.509 257.486 199.61 258.415C191.618 258.99 190.209 256.043 189.27 248.682C189.246 248.493 191.331 248.307 191.619 248.252C191.013 242.45 188.247 231.911 187.39 227.885Z" fill="#EF3F23"/>
<g opacity="0.369995">
<g opacity="0.369995">
<g opacity="0.369995">
<path opacity="0.369995" d="M198.705 253.337C198.705 253.337 239.398 250.037 242.434 249.766C242.813 245.44 241.223 237.843 239.261 223.241C238.726 221.484 201.96 223.166 196.003 224.634C195.435 224.797 194.91 224.967 194.377 225.137L198.705 253.337Z" fill="#6F0E10"/>
</g>
</g>
</g>
<path d="M192.574 253.616C192.731 254.296 193.589 257.434 197.07 257.186C200.827 256.919 200.59 253.764 200.543 252.677C200.296 247.25 198.079 235.55 195.728 225.021C193.005 225.896 190.297 226.966 187.649 228.27C189.597 237.999 191.427 248.655 192.574 253.616Z" fill="#5A190D"/>
<path d="M192.616 253.943C194.378 253.719 199.95 253.272 200.559 253.104C200.34 247.884 198.13 234.782 195.832 224.655C193.108 225.505 189.895 226.506 187.245 227.768C189.14 237.124 191.065 248.945 192.616 253.943Z" fill="#F36C29"/>
<g opacity="0.369995">
<g opacity="0.369995">
<g opacity="0.369995">
<path opacity="0.369995" d="M198.09 235.677C197.321 231.373 196.75 228.701 195.832 224.656C193.106 225.505 189.895 226.506 187.245 227.769C187.856 230.792 188.521 234.422 189.127 237.649C191.005 237.045 195.879 236.143 198.09 235.677Z" fill="#6F0E10"/>
</g>
</g>
</g>
<path d="M198.064 235.554C197.38 231.861 196.611 228.088 195.832 224.654C195.228 224.703 194.689 224.586 194.103 224.72C191.52 225.318 189.547 226.382 187.207 227.495C185.595 228.262 187.75 235.291 188.477 237.387C188.579 237.685 189.01 237.795 189.162 237.776C188.573 235.912 194.945 235.114 198.064 235.554Z" fill="#F36C29"/>
<path d="M197.375 235.33C197.636 235.346 197.808 235.36 198.04 235.391L198.087 235.643C195.69 235.323 191.347 235.776 189.803 236.726C189.323 237.024 189.053 237.424 189.163 237.778C189.163 237.778 188.909 237.808 188.776 237.705C188.844 237.14 188.94 236.913 189.527 236.552C191.046 235.613 194.809 235.161 197.375 235.33Z" fill="#F6895A"/>
<path d="M104.762 221.974C107.666 220.569 110.1 219.515 113.204 218.546C119.088 216.953 155.826 214.474 156.464 216.214C161.375 241.615 163.943 245.685 156.661 248.477C152.53 249.125 131.639 251.035 118.757 252.143C113.052 252.632 109.605 252.824 108.245 245.507C108.208 245.318 110.283 245.086 110.571 245.026C109.629 239.257 105.849 225.969 104.762 221.974Z" fill="#1470B3"/>
<path d="M111.433 247.513C111.629 248.186 112.67 251.296 116.141 250.972C119.891 250.624 119.474 247.485 119.363 246.402C118.802 240.998 115.91 229.382 112.951 218.937C110.273 219.87 107.62 220.995 105.046 222.353C107.555 232.008 109.999 242.592 111.433 247.513Z" fill="#3F1920"/>
<path d="M111.494 247.837C113.246 247.575 118.803 247.008 119.405 246.829C118.883 241.629 115.919 228.615 113.037 218.573C110.352 219.479 107.192 220.546 104.609 221.861C107.046 231.147 109.653 242.89 111.494 247.837Z" fill="#1E84C2"/>
<path d="M115.928 229.508C114.911 225.235 114.188 222.585 113.036 218.572C110.351 219.478 107.193 220.545 104.61 221.862C105.398 224.862 106.271 228.467 107.064 231.67C108.909 231.028 113.741 230.024 115.928 229.508Z" fill="#1470B3"/>
<path d="M111.509 236.584L113.95 236.241L114.262 237.44L111.822 237.783L111.509 236.584Z" fill="#D86227"/>
<path d="M109.741 235.534L115.076 234.786L115.157 235.095C115.271 235.525 114.785 235.955 114.077 236.055L111.308 236.444C110.597 236.543 109.933 236.275 109.82 235.843L109.741 235.534Z" fill="#D86227"/>
<path d="M108.666 233.442C108.756 233.793 108.501 234.134 108.076 234.361L108.327 235.335C108.435 235.751 109.081 236.012 109.77 235.915L115.207 235.151C115.894 235.055 116.365 234.637 116.257 234.22L116.004 233.248C115.493 233.152 115.087 232.905 114.997 232.554C114.906 232.201 115.161 231.862 115.586 231.634L114.095 225.885C113.987 225.467 113.343 225.207 112.652 225.303L107.217 226.066C106.53 226.164 106.059 226.581 106.167 226.999L107.658 232.748C108.168 232.844 108.575 233.091 108.666 233.442Z" fill="#FCB822"/>
<path d="M111.366 237.713L114.634 237.253C114.752 237.707 114.241 238.158 113.496 238.264L112.929 238.344C112.183 238.449 111.483 238.166 111.366 237.713Z" fill="#FCB822"/>
<path d="M109.502 236.355L115.67 235.49L115.993 236.744C115.998 236.761 115.979 236.776 115.953 236.781L109.883 237.633C109.855 237.638 109.83 237.626 109.827 237.61L109.502 236.355Z" fill="#FCB822"/>
<path d="M115.896 229.389C114.998 225.721 114.014 221.977 113.036 218.573C112.432 218.633 111.885 218.527 111.305 218.675C108.75 219.327 106.837 220.431 104.554 221.591C102.986 222.389 105.548 229.35 106.395 231.425C106.517 231.718 106.954 231.82 107.106 231.798C106.406 229.952 112.747 229.018 115.896 229.389Z" fill="#1E84C2"/>
<path d="M115.196 229.177C115.456 229.189 115.628 229.199 115.864 229.224L115.925 229.474C113.506 229.208 109.179 229.753 107.687 230.736C107.226 231.042 106.978 231.448 107.105 231.797C107.105 231.797 106.856 231.833 106.717 231.734C106.75 231.17 106.835 230.94 107.401 230.567C108.87 229.597 112.612 229.066 115.196 229.177Z" fill="#7EC8ED"/>
<path d="M178.543 218.718C174.374 222.774 169.018 231.088 166.245 234.556C162.648 233.921 155.458 231.344 159.264 227.435C162.847 223.755 166.516 220.597 172.384 216.04C173.235 215.379 179.256 218.024 178.543 218.718Z" fill="#FFDBC7"/>
<path d="M174.785 213.75C174.51 209.819 165.726 207.232 155.164 207.972C144.603 208.711 136.263 212.498 136.538 216.428C136.813 220.359 145.6 222.945 156.161 222.205C166.723 221.465 175.061 217.68 174.785 213.75Z" fill="#204A66"/>
<path d="M258.568 215.025C258.292 211.094 246.499 212.458 235.938 213.198C225.374 213.938 215.145 218.203 215.42 222.133C215.696 226.065 227.648 230.607 237.326 227.572C250.939 223.302 258.843 218.956 258.568 215.025Z" fill="#1B6168"/>
<path d="M17.7297 230.61C20.7106 238.416 27.429 244.021 32.6978 243.13C33.0553 243.068 33.4059 242.985 33.7315 242.869L71.3705 236.515L60.5732 208.235L21.8299 214.776L21.7749 214.848C16.6185 215.85 14.7792 222.88 17.7297 230.61Z" fill="#F58A79"/>
<path d="M68.1807 237.449L57.0959 207.991L41.1192 210.856L52.2068 240.316L68.1807 237.449Z" fill="#E9E9E9"/>
<path d="M312.663 177.275L270.702 173.068L204.143 184.158L211.204 213.071L281.499 201.347L314.735 184.599C314.066 182.215 313.163 179.757 312.663 177.275Z" fill="#F8E097"/>
<path d="M304.583 176.464L308.828 187.576C308.828 187.576 322.926 180.833 322.002 179.367C321.077 177.902 304.583 176.464 304.583 176.464Z" fill="#6A6A6A"/>
<path d="M67.7166 237.004L281.5 201.346L265.727 196.492L276.102 187.206L260.332 182.353L270.701 173.067L56.9214 208.723L67.7166 237.004Z" fill="#F4B41A"/>
<path d="M67.7164 237.004L281.5 201.346L265.727 196.492L65.0149 229.934L67.7164 237.004Z" fill="#FDCF06"/>
<path d="M260.33 182.353L270.702 173.067L56.921 208.724L59.6206 215.794L260.33 182.353Z" fill="#F2961F"/>
<path d="M171.358 230.457C168.171 229.82 163.067 228.677 158.115 228.726C158.764 231.53 161.42 244.131 161.487 244.493C163.976 243.525 168.233 236.198 171.358 230.457Z" fill="#EE2A5A"/>
<path d="M96.8868 257.25C97.6207 257.826 102.361 260.52 102.873 260.997C116.716 254.276 119.791 252.78 134.024 246.458C131.939 244.896 128.363 242.5 126.255 240.953C113.584 247.538 105.482 252.41 96.8868 257.25Z" fill="#FFDBC7"/>
<path d="M109.902 245.034C113.028 242.996 121.426 239.636 127.253 236.344C130.912 239.145 137.002 246.541 137.135 246.719C130.73 248.828 126.096 250.406 119.746 253.531C117.368 252.008 112.413 247.286 109.902 245.034Z" fill="#EE2A5A"/>
<path d="M115.903 226.238C130.182 222.104 141.743 220.226 149.32 220.086C157.167 219.941 157.164 221.939 162.537 221.349C162.826 222.249 159.215 222.331 160.031 222.731C161.795 223.602 159.953 223.49 159.977 224.283C160.162 230.923 161.718 240.423 161.813 244.349C161.114 245.06 137.616 249.033 124.657 247.48C121.809 243.189 118.227 232.936 115.903 226.238Z" fill="#EE2A5A"/>
<path d="M155.074 244.567C155.146 244.899 155.022 245.448 154.938 245.778C149.919 246.657 142.495 247.544 135.196 247.777C134.828 247.534 134.762 247.281 134.73 247.135C134.166 244.569 138.166 241.708 143.783 241.002C149.402 240.291 154.509 242.002 155.074 244.567Z" fill="#FFDBC7"/>
<path d="M153.13 252.42L152.597 244.812C152.501 243.167 149.057 242.055 144.851 242.331C140.644 242.608 137.27 244.168 137.366 245.814L137.903 253.487L153.13 252.42Z" fill="#FFDBC7"/>
<path d="M146.778 196.197C146.854 195.996 158.993 196.868 158.953 197.113C158.603 199.259 157.31 203.553 157.072 204.795L144.105 203.87C144.992 201.772 146.233 197.649 146.778 196.197Z" fill="#FFDBC7"/>
<path d="M144.736 196.015C144.745 195.889 158.964 194.704 159.016 194.849C159.447 196.12 159.774 199.245 159.981 199.984L144.658 200.757C144.749 199.333 144.674 196.917 144.736 196.015Z" fill="#FBF1AF"/>
<path d="M160.685 196.117C160.581 196.577 160.287 197.179 160.08 197.722C159.923 198.125 153.887 198.794 153.683 197.894C153.632 197.664 153.604 197.458 153.598 197.269C152.568 197.387 151.45 197.53 150.274 197.7C147.719 198.067 145.445 198.472 143.866 198.824C143.466 197.41 143.162 194.919 142.74 193.346C142.74 193.346 168.981 187.034 173.705 188.896C175.039 189.421 168.904 193.209 160.685 196.117Z" fill="#EE3A3A"/>
<path d="M142.968 194.337C142.895 193.984 142.819 193.647 142.741 193.346C142.741 193.346 168.981 187.034 173.705 188.896C173.895 188.968 173.929 189.11 173.837 189.3C166.22 189.217 149.507 192.844 142.968 194.337Z" fill="#992121"/>
<path d="M166.65 194.144C165.199 194.479 163.209 194.294 161.797 193.698C161.63 193.628 161.598 193.484 161.722 193.375C161.784 193.324 161.872 193.288 161.965 193.275C162.063 193.262 162.167 193.27 162.255 193.307C163.483 193.826 165.209 194 166.429 193.707C166.636 193.658 166.842 193.72 166.901 193.841C166.962 193.962 166.851 194.097 166.65 194.144ZM164.419 194.601C164.62 194.552 164.827 194.629 164.878 194.75C164.926 194.873 164.801 195.006 164.598 195.044C162.978 195.361 161.276 195.181 159.928 194.559C159.768 194.486 159.744 194.338 159.875 194.234C159.935 194.186 160.021 194.153 160.108 194.142C160.21 194.127 160.32 194.138 160.409 194.177C161.999 194.913 163.603 194.759 164.419 194.601ZM162.472 195.428C162.67 195.38 162.887 195.432 162.954 195.549C163.026 195.666 162.924 195.805 162.725 195.857C161.208 196.252 159.299 196.031 158.083 195.316C157.934 195.23 157.939 195.082 158.089 194.987C158.147 194.949 158.218 194.925 158.292 194.914C158.409 194.897 158.533 194.914 158.623 194.967C159.643 195.566 161.226 195.76 162.472 195.428Z" fill="#D3DAE7"/>
<g opacity="0.229996">
<g opacity="0.229996">
<g opacity="0.229996">
<path opacity="0.229996" d="M130.521 220.684C134.314 220.191 147.664 221.757 152.688 219.035C156.193 217.136 157.914 211.406 160.158 202.49C159.852 202.408 148.345 201.868 144.722 201.664C142.734 208.805 141.743 210.382 140.487 210.507C136.385 210.911 134.33 211.267 128.48 211.732C125.316 211.983 127.703 216.484 130.521 220.684Z" fill="#A21D21"/>
</g>
</g>
</g>
<path d="M117.873 226.028C121.289 225.262 125.845 224.041 127.886 223.697C140.934 221.508 146.648 220.868 151.693 218.163C155.21 216.276 156.645 211.041 159.252 202.446C158.824 202.445 146.736 201.826 143.581 201.741C141.303 208.629 141.384 210.067 140.147 210.209C136.115 210.672 133.749 210.612 128.001 211.166C124.892 211.465 120.827 211.741 117.955 213.657C113.597 216.558 115.243 221.73 117.873 226.028Z" fill="#204A66"/>
<path d="M153.659 256.512C149.689 256.556 146.321 257.35 145.819 258.364L145.791 258.425L161.214 258.255L161.194 258.195C160.863 257.192 157.626 256.47 153.659 256.512Z" fill="white"/>
<path d="M156.676 259.995C156.535 259.994 156.402 260.059 156.366 260.149C156.128 260.784 155.268 261.195 154.179 261.197C153.084 261.199 152.298 260.78 152.226 260.159C152.212 260.058 152.069 259.99 151.905 260.004C151.742 260.019 151.619 260.111 151.632 260.211C151.73 261.01 152.759 261.566 154.139 261.563C155.511 261.561 156.638 261.016 156.945 260.208C156.985 260.108 156.886 260.013 156.724 259.997L156.676 259.995Z" fill="#C5745C"/>
<path d="M113.793 219.74C114.402 218.963 115.41 217.227 120.875 217.473C124.824 217.651 131.258 222.803 145.317 220.55C140.991 227.16 120.196 226.874 116.209 227.153C115.565 225.391 114.618 222.056 113.793 219.74Z" fill="#EE2A5A"/>
<path d="M120.143 229.621C126.53 229.529 129.497 233.607 131.84 239.708L129.984 240.056C127.107 232.57 123.528 229.972 117.5 231.088L116.919 229.995C117.742 229.872 119.411 229.634 120.143 229.621Z" fill="#24407B"/>
<path d="M127.963 239.396L132.362 238.563L132.881 238.71C132.881 238.71 136.143 247.618 134.781 248.352C133.747 248.908 130.426 249.405 130.046 249.247C131.163 248.207 127.963 239.396 127.963 239.396Z" fill="#24407B"/>
<path d="M128.43 239.552L132.881 238.709C132.881 238.709 136.077 247.559 135.006 248.392C134.675 248.649 130.503 249.596 130.554 249.233C131.59 248.221 128.43 239.552 128.43 239.552Z" fill="#1E84C2"/>
<path d="M162.04 225.297C162.08 224.762 162.098 223.898 161.621 224.042C155.538 226.252 156.089 231.476 156.383 236.432L158.289 236.313C158.058 232.462 158.082 229.472 158.958 227.918C159.657 226.678 161.353 225.475 162.04 225.297Z" fill="#24407B"/>
<path d="M154.88 236.008L159.392 235.63L159.856 235.83C159.856 235.83 160.621 244.748 159.126 245.37C158.224 245.745 155.786 246.088 154.746 246.091C154.664 246.05 154.557 245.931 154.48 245.865C155.581 245.104 154.88 236.008 154.88 236.008Z" fill="#24407B"/>
<path d="M155.295 236.213L159.857 235.83C159.857 235.83 160.529 244.584 159.378 245.377C158.972 245.657 154.594 246.45 154.747 246.091C156.027 245.191 155.295 236.213 155.295 236.213Z" fill="#1E84C2"/>
<path d="M281.877 251.86C280.314 250.789 277.795 250.767 275.548 251.428C273.303 252.088 273.448 253.151 274.302 254.51C275.011 255.638 279.813 255.453 282.18 255.023C283.902 254.71 283.772 253.157 281.877 251.86Z" fill="#E0956C"/>
<path d="M278.312 252.289C277.109 252.274 276.097 252.5 276.055 252.798C276.01 253.094 276.949 253.349 278.151 253.365C279.352 253.381 280.364 253.153 280.409 252.856C280.454 252.558 279.516 252.305 278.312 252.289Z" fill="#C27E5C"/>
<path d="M287.644 259.407C284.717 259.009 271.981 256.1 265.63 254.815C264.848 254.654 266.816 251.787 268.083 251.451C270.138 249.866 274.167 249.513 280.737 249.538C280.981 249.54 284.505 250.102 286.073 250.58C284.741 252.874 280.514 251.305 278.417 252.513C276.864 253.404 278.023 254.186 279.103 254.658C284.113 256.844 289.095 257.011 287.644 259.407Z" fill="#FFDBC7"/>
<path d="M270.802 250.408C271.699 250.631 267.96 255.339 267.032 255.152C253.178 252.347 235.449 249.48 231.705 249.05L236.262 242.792C244.186 244.505 258.928 247.462 270.802 250.408Z" fill="#FFDBC7"/>
<path d="M249.542 251.892C250.858 249.723 252.683 245.263 253.818 242.976C246.406 241.557 240.25 240.654 239.678 240.756C233.74 241.823 230.519 249.108 230.113 249.549C233.981 249.881 242.241 250.647 249.542 251.892Z" fill="#12BAB1"/>
<path d="M198.813 233.821C211.162 232.06 214.896 222.261 227.613 224.413C232.746 225.281 234.191 228.242 239.789 227.139C240.822 228.228 238.081 228.449 239.016 228.861C240.531 229.528 239.291 229.552 239.365 229.857C241.009 236.601 240.946 244.095 241.699 248.607C237.805 250.074 215.449 252.477 207.393 251.984C202.537 246.603 201.081 241.202 198.813 233.821Z" fill="#12BAB1"/>
<path d="M216.178 251.882C215.957 251.646 215.848 251.377 215.829 251.255C215.441 248.668 219.62 245.906 225.262 245.339C230.906 244.772 235.879 246.617 236.269 249.202C236.293 249.357 236.103 249.942 236.068 250.125C230.999 250.981 222.988 251.475 216.178 251.882Z" fill="#1487A4"/>
<path d="M235.215 256.36L233.792 248.802C233.485 247.176 229.847 246.245 225.667 246.722C221.484 247.201 218.342 248.905 218.649 250.532L220.072 258.09L235.215 256.36Z" fill="#FFDBC7"/>
<path d="M240.297 231.373C239.159 232.989 238.983 235.834 239.922 239.435L238.04 239.699C236.7 234.573 237.496 231.014 240.167 229.517L240.297 231.373Z" fill="#BC3A26"/>
<path d="M243.13 250.032C242.08 250.207 236.029 251.233 234.373 251.372C234.968 248.088 234.686 242.5 234.621 241.2C234.553 239.747 236.584 238.483 238.959 238.392C241.325 238.302 242.988 239.427 243.214 240.867C243.627 243.471 243.737 246.85 243.13 250.032Z" fill="#BC3A26"/>
<path d="M241.858 250.253C241.091 250.396 237.077 251.092 235.746 251.203C236.25 248.332 236.056 242.503 236.015 241.602C235.97 240.546 237.358 239.629 238.98 239.566C240.6 239.505 241.735 240.326 241.887 241.373C242.16 243.233 242.356 247.16 241.858 250.253Z" fill="#F47827"/>
<g opacity="0.190002">
<g opacity="0.190002">
<g opacity="0.190002">
<path opacity="0.190002" d="M240.144 252.911C240.322 253.311 240.368 253.718 240.365 254.125C234.265 255.449 224.981 257.104 218.202 257.864C218.085 257.699 217.915 257.553 217.835 257.375C216.457 254.278 220.337 250.768 226.499 249.535C232.656 248.304 238.769 249.813 240.144 252.911Z" fill="#781213"/>
</g>
</g>
</g>
<path d="M209.243 199.865C209.135 199.669 220.754 196.429 220.937 196.653C222.513 198.595 225.14 202.678 226.021 203.815L213.609 207.283C212.551 205.203 210.031 201.282 209.243 199.865Z" fill="#FFDBC7"/>
<path d="M208.29 198.816C208.235 198.692 222.132 194.837 222.253 194.97C223.328 196.126 225.225 199.112 225.806 199.795L210.582 203.455C209.963 202.049 208.677 199.708 208.29 198.816Z" fill="white"/>
<path d="M224.59 195.89C224.711 196.359 224.714 197.001 224.774 197.571C224.816 197.993 219.001 199.789 218.346 198.952C218.177 198.736 218.049 198.541 217.946 198.358C216.954 198.67 215.888 199.022 214.776 199.407C212.355 200.25 210.243 201.077 208.806 201.721C207.695 200.42 206.137 198.048 204.923 196.594C204.923 196.594 228.499 185.459 234.243 186.38C235.863 186.637 231.507 191.495 224.59 195.89Z" fill="#F04F23"/>
<path d="M205.651 197.515C205.399 197.185 205.153 196.87 204.921 196.593C204.921 196.593 228.5 185.46 234.244 186.379C234.47 186.415 234.578 186.545 234.579 186.749C226.778 188.112 211.568 194.82 205.651 197.515Z" fill="#B12D24"/>
<path d="M229.679 192.834C228.371 193.437 226.247 193.634 224.514 193.322C224.307 193.284 224.201 193.149 224.275 193.019C224.313 192.958 224.384 192.908 224.474 192.877C224.566 192.844 224.679 192.833 224.784 192.853C226.293 193.125 228.139 192.969 229.237 192.45C229.42 192.364 229.665 192.386 229.786 192.492C229.908 192.598 229.859 192.75 229.679 192.834ZM227.635 193.702C227.813 193.618 228.064 193.652 228.177 193.762C228.288 193.873 228.228 194.025 228.04 194.101C226.547 194.718 224.723 194.867 223.039 194.514C222.836 194.472 222.739 194.335 222.822 194.207C222.862 194.149 222.931 194.103 223.015 194.073C223.111 194.04 223.229 194.029 223.338 194.053C225.327 194.466 226.882 194.011 227.635 193.702ZM226.065 194.881C226.245 194.794 226.487 194.804 226.62 194.905C226.75 195.007 226.712 195.162 226.538 195.249C225.19 195.922 223.135 196.07 221.535 195.603C221.345 195.547 221.273 195.403 221.379 195.28C221.419 195.233 221.478 195.195 221.551 195.171C221.66 195.133 221.798 195.126 221.917 195.16C223.252 195.552 224.963 195.439 226.065 194.881Z" fill="#D3DAE7"/>
<g opacity="0.229996">
<g opacity="0.229996">
<g opacity="0.229996">
<path opacity="0.229996" d="M216.864 225.939C219.88 224.355 229.959 220.609 232.266 216.796C233.875 214.134 231.929 208.664 226.681 200.572C225.855 200.433 216.365 203.655 212.019 205.125C216.048 211.667 216.451 212.752 215.421 213.244C212.055 214.848 210.494 215.78 205.602 217.974C202.955 219.162 210.898 223.325 216.864 225.939Z" fill="#A21D21"/>
</g>
</g>
</g>
<path d="M204.05 232.616C207.423 230.929 212.833 228.038 214.503 227.197C225.214 221.791 229.421 219.937 231.759 216.132C233.391 213.477 230.664 208.918 226.008 200.977C224.926 201.159 214.17 204.205 211.385 205.235C214.946 211.655 215.843 212.583 214.872 213.102C212.471 214.384 208.872 215.74 206.944 216.621C204.353 217.804 200.314 219.573 198.997 221.604C196.644 225.232 199.835 228.938 204.05 232.616Z" fill="#1B6168"/>
<path d="M196.749 227.666C197.357 226.891 198.366 225.153 203.83 225.4C207.78 225.578 211.833 228.929 219.644 226.196C215.318 232.806 203.152 234.801 199.166 235.08C198.521 233.318 197.574 229.983 196.749 227.666Z" fill="#12BAB1"/>
<g opacity="0.339996">
<g opacity="0.339996">
<g opacity="0.339996">
<path opacity="0.339996" d="M227.885 243.055L229.668 240.496C229.828 240.268 230.151 240.095 230.538 240.034L234.876 239.34C235.846 239.184 236.186 238.42 235.449 238.047L232.159 236.383C231.865 236.235 231.721 236.001 231.77 235.76L232.331 233.045C232.455 232.437 231.399 232.054 230.547 232.397L226.73 233.927C226.389 234.064 225.976 234.093 225.621 234.005L221.628 233.022C220.732 232.801 219.744 233.327 219.952 233.912L220.886 236.522C220.968 236.754 220.856 237.006 220.586 237.194L217.562 239.3C216.882 239.772 217.327 240.481 218.309 240.501L222.702 240.583C223.093 240.589 223.438 240.716 223.627 240.919L225.747 243.205C226.224 243.717 227.487 243.629 227.885 243.055Z" fill="white"/>
</g>
</g>
</g>
<path d="M201.779 232.347C200.55 232.532 198.906 232.62 198.102 232.798L198.629 233.9C200.978 233.383 205.923 232.569 209.159 233.908C212.039 235.099 213.537 237.905 213.612 242.245L215.519 242.149C215.439 237.422 213.68 234.318 210.297 232.917C207.596 231.799 204.359 231.958 201.779 232.347Z" fill="#BC3A26"/>
<path d="M217.195 252.085C216.183 252.108 214.732 252.105 213.438 252.143C211.764 252.19 210.114 252.251 208.456 252.297C209.52 249.039 209.943 244.02 210.071 242.714C210.212 241.253 212.405 240.098 214.769 240.137C217.125 240.177 218.606 241.398 218.623 242.853C218.653 245.484 218.256 248.93 217.195 252.085Z" fill="#BC3A26"/>
<path d="M215.937 252.145C214.993 252.149 211.283 252.218 209.949 252.257C210.862 249.406 211.3 244.097 211.392 243.194C211.5 242.131 213.006 241.29 214.621 241.318C216.231 241.344 217.235 242.229 217.234 243.287C217.234 245.167 216.88 249.072 215.937 252.145Z" fill="#F47827"/>
<g opacity="0.330002">
<g opacity="0.330002">
<g opacity="0.330002">
<path opacity="0.330002" d="M243.263 216.293C243.752 216.846 242.772 218.173 242.494 218.822C242.291 219.303 244.268 218.171 244.873 218.817C245.12 219.079 243.252 221.612 241.998 222.229C240.426 223.001 239.238 223.493 239.476 223.634C239.705 223.769 243.168 223.085 243.149 224.193C243.142 224.645 240.631 225.714 239.429 226.189C238.222 226.667 234.244 227.332 232.343 227.77C232.343 227.77 225.674 224.741 225.269 224.63C227.608 220.885 230.688 217.678 232.387 216.299C233.197 215.643 237.074 215.033 237.346 215.164C238.086 215.514 237.66 215.912 237.834 215.924C238.093 215.947 239.735 215.182 240.185 215.336C241.42 215.758 240.784 216.582 240.906 216.66C241.074 216.77 242.858 215.836 243.263 216.293Z" fill="#A21D21"/>
</g>
</g>
</g>
<path d="M232.937 226.172C228.027 229.917 221.093 237.837 217.676 241.098C214.263 240.188 207.704 237.065 212.23 233.437C216.488 230.026 220.73 227.142 227.414 223.025C228.384 222.428 233.775 225.532 232.937 226.172Z" fill="#FFDBC7"/>
<path d="M199.07 244.977C198.428 242.996 200.052 240.492 205.743 233.823C210.845 234.846 221.409 239.184 221.588 239.42C217.527 243.476 209.743 251.982 209.739 252.209C208.188 252.335 206.613 252.253 205.477 252.174C202.024 250.847 200.002 247.863 199.07 244.977Z" fill="#12BAB1"/>
<path d="M232.94 216.696C231.241 218.075 229.545 219.74 226.814 222.928C224.834 225.236 227 226.648 229.042 227.032C230.214 227.253 237.494 226.882 239.318 226.16C240.518 225.685 242.898 224.661 242.914 224.462C242.996 223.495 240.826 223.632 238.78 224.376C238.15 224.562 237.527 224.664 236.468 224.542C236.141 224.302 240.238 222.945 241.808 222.173C243.064 221.557 245.127 219.171 244.88 218.909C244.273 218.263 241.763 219.961 240.653 220.598C240.267 220.818 238.849 221.282 237.907 221.497C238.511 220.85 239.994 219.832 240.452 219.414C241.339 218.608 243.638 216.994 243.132 216.447C242.738 216.021 240.921 216.864 239.003 218.09C238.539 218.388 236.764 219.461 235.576 220.143C235.524 220.121 237.569 218.172 237.947 217.94C239.08 217.249 240.749 216.394 240.255 215.516C240.118 215.276 236.988 216.43 235.914 217.198C235.435 217.542 234.332 218.274 233.161 219.228C233.628 218.592 234.716 217.482 234.947 217.249C236.895 216.356 237.629 215.959 237.277 215.298C237.171 215.092 233.752 216.04 232.94 216.696Z" fill="#FFDBC7"/>
<path d="M237.041 254.919L236.935 254.92C234.954 254.932 232.866 255.29 230.888 255.944L230.768 255.985L230.86 256.038C232.356 256.908 234.441 257.381 236.736 257.373C239.024 257.362 241.211 256.868 242.892 255.984L242.997 255.93L242.883 255.891C241.036 255.252 239.016 254.915 237.041 254.919Z" fill="#DD6B5B"/>
</g>
<path d="M159.955 42.014C168.817 55.2891 167.425 60.9622 168.979 64.0932C171.53 69.2276 173.967 69.5473 175.681 74.4211C179.26 84.6134 171.024 94.2801 165.636 95.5675C166.475 92.2854 165.831 88.272 165.251 87.8451C164.914 91.298 164.347 95.7646 163.296 96.5659C156.842 101.497 149.094 104.288 136.271 105.707C126.082 106.835 111.502 106.393 100.741 101.311C98.8212 100.404 97.0544 96.5134 96.0999 91.703C94.3857 96.9425 97.2011 99.7386 96.4611 99.2634C91.0536 95.7974 85.7577 86.6365 90.8215 78.2878C96.7698 68.4853 89.6897 66.7075 97.7331 48.9942C116.187 45.3027 152.792 41.3506 159.955 42.014Z" fill="#4D4D4D"/>
<path d="M168.8 72.5884C168.682 78.9949 164.301 84.068 160.281 84.4271C156.264 84.784 154.475 79.9889 153.941 73.9765C153.405 67.9619 156.227 62.7815 160.246 62.4377C165.739 61.9714 168.909 66.5672 168.8 72.5884Z" fill="#F5B18C"/>
<path d="M165.385 54.9718C168.304 76.3021 155.853 87.6767 136.049 89.8903C116.24 92.1039 98.2003 85.5222 95.8096 64.1262C93.4167 42.7302 108.972 33.2124 127.997 31.3907C151.164 29.1727 162.767 35.831 165.385 54.9718Z" fill="#4C4C4C"/>
<path d="M164.094 83.6406C160.922 94.9429 152.423 101.273 143.3 101.783C123.509 102.897 110.52 92.3549 103.928 69.5992C96.9067 45.3612 113.867 42.4316 131.338 40.4786C143.002 39.1736 152.767 38.3197 158.454 45.5495C161.964 50.0095 165.648 78.1077 164.094 83.6406Z" fill="#FFDBC7"/>
<path d="M148.682 68.3565C147.259 71.7 147.966 75.0653 149.774 76.1272C152.496 77.7234 158.367 77.4606 160.13 74.3427C161.842 71.3256 160.13 66.5064 156.417 64.8533C153.168 63.4082 150.061 65.1182 148.682 68.3565Z" fill="#FAFDFF"/>
<path d="M159.348 65.9706C156.018 61.5653 149.855 64.0898 148.633 68.4711C150.056 65.1255 153.353 63.7023 156.359 65.0379C158.216 65.8655 159.696 67.5953 160.317 69.6644C160.817 71.3153 160.742 73.2552 160.031 74.5098C160.928 73.6296 161.797 69.2089 159.348 65.9706Z" fill="#853A24"/>
<path d="M158.243 57.174C157.967 57.2178 157.674 57.1631 157.42 56.9989C155.438 55.718 152.056 55.8165 149.543 57.231C148.982 57.5528 148.258 57.347 147.938 56.7799C147.616 56.215 147.82 55.4925 148.387 55.175C151.655 53.3314 155.994 53.2723 158.7 55.0173C159.248 55.3721 159.403 56.1012 159.051 56.6485C158.86 56.9441 158.563 57.1237 158.243 57.174Z" fill="#5D1F12"/>
<path d="M178.573 128.667C181.636 130.52 184.186 131.868 187.391 132.981C193.438 134.691 230.229 133.237 230.643 130.314C232.283 88.299 234.314 81.3056 226.728 77.8549C222.547 77.4192 201.563 77.5944 188.63 77.5528C180.618 77.5287 179.418 82.488 178.995 94.5829C178.984 94.8938 181.077 94.9595 181.368 95.0164C181.169 104.534 179.146 122.013 178.573 128.667Z" fill="#EF3F23"/>
<g opacity="0.369995">
<g opacity="0.369995">
<g opacity="0.369995">
<path opacity="0.369995" d="M188.082 85.9241C188.082 85.9241 228.906 86.6576 231.953 86.7517C232.634 93.7538 231.579 106.309 230.642 130.312C230.23 133.235 193.437 134.689 187.392 132.979C186.814 132.778 186.278 132.561 185.735 132.344L188.082 85.9241Z" fill="#6F0E10"/>
</g>
</g>
</g>
<path d="M181.946 86.1706C182.056 85.0452 182.693 79.8363 186.183 79.8429C189.948 79.8494 189.933 85.0145 189.961 86.7902C190.095 95.6578 188.7 114.965 187.091 132.38C184.313 131.266 181.537 129.832 178.805 128.01C180.068 111.943 181.149 94.3813 181.946 86.1706Z" fill="#5A190D"/>
<path d="M181.966 85.6335C183.739 85.7977 189.328 85.8896 189.948 86.0933C190.095 94.6193 188.805 116.21 187.22 132.964C184.444 131.891 181.169 130.628 178.437 128.874C179.673 113.421 180.768 93.9493 181.966 85.6335Z" fill="#F36C29"/>
<g opacity="0.369995">
<g opacity="0.369995">
<g opacity="0.369995">
<path opacity="0.369995" d="M188.702 114.758C188.236 121.854 187.853 126.271 187.22 132.964C184.442 131.891 181.169 130.628 178.437 128.874C178.835 123.88 179.244 117.893 179.623 112.568C181.539 113.337 186.465 114.25 188.702 114.758Z" fill="#6F0E10"/>
</g>
</g>
</g>
<path d="M188.685 114.959C188.261 121.053 187.757 127.284 187.221 132.966C186.614 132.955 186.084 133.207 185.491 133.056C182.873 132.377 180.83 130.868 178.418 129.322C176.756 128.258 178.415 116.564 178.993 113.067C179.074 112.57 179.497 112.343 179.65 112.356C179.193 115.458 185.605 116.032 188.685 114.959Z" fill="#F36C29"/>
<path d="M188.014 115.403C188.272 115.347 188.443 115.305 188.673 115.228L188.702 114.812C186.333 115.607 181.969 115.364 180.362 113.993C179.863 113.562 179.566 112.942 179.651 112.354C179.651 112.354 179.395 112.334 179.27 112.516C179.377 113.429 179.489 113.788 180.1 114.309C181.68 115.664 185.466 115.971 188.014 115.403Z" fill="#F6895A"/>
<path d="M119.987 62.8747C119.635 62.9272 119.263 62.8375 118.965 62.5922C118.415 62.1368 118.339 61.3179 118.794 60.7662C121.051 58.0446 125.614 56.6783 129.655 57.5279C130.356 57.6724 130.805 58.3599 130.658 59.0605C130.513 59.759 129.819 60.2079 129.123 60.0633C126.023 59.4087 122.444 60.4268 120.791 62.4215C120.581 62.6776 120.292 62.8287 119.987 62.8747Z" fill="#5D1F12"/>
<path d="M113.892 72.0052C114.814 78.0505 112.607 83.2637 108.15 83.7476C103.692 84.2337 98.611 71.1316 97.466 60.6197C96.1546 48.5839 103.802 39.2434 116.044 45.8776C106.044 53.3921 112.5 62.8727 113.892 72.0052Z" fill="#4C4C4C"/>
<path d="M108.842 55.5704C106.2 55.6317 103.496 55.6339 100.858 56.0039C100.587 53.2144 100.648 50.7315 101.34 49.1135C110.474 38.1921 141.483 33.5131 152.186 37.0952C160.171 39.7664 164.628 53.7772 164.628 53.7772C161.138 52.2576 154.257 51.384 147.153 51.7409C145.787 50.1973 144.25 45.1439 144.25 45.1439C144.25 45.1439 143.876 49.801 145.106 51.8766C141.726 52.3802 132.542 54.1034 128.389 54.85C126.976 53.1991 125.58 48.8245 125.58 48.8245C125.58 48.8245 125.409 53.2342 126.252 55.3076C125.308 55.5594 122.666 55.8397 121.497 55.993C116.752 54.2961 116.133 48.9799 112.203 49.1135C109.37 49.7441 108.825 52.2467 108.842 55.5704Z" fill="#4D4D4D"/>
<path d="M103.542 53.7935C105.151 42.7714 113.046 33.2908 127.916 30.578C139.479 28.4695 152.396 31.8939 158.747 38.7734C150.393 33.6477 138.507 33.8272 129.621 35.1103C120.584 36.4153 108.424 45.2281 103.542 53.7935Z" fill="#EE4479"/>
<path d="M107.019 46.5004C108.888 53.1105 97.1996 62.924 86.0342 54.9475C93.6793 43.4306 100.044 43.7722 107.019 46.5004Z" fill="#EE4479"/>
<g opacity="0.279999">
<g opacity="0.279999">
<g opacity="0.279999">
<path opacity="0.279999" d="M105.77 46.8205C105.313 45.3294 99.4081 46.3453 96.4745 50.3762C101.361 53.2292 107.143 51.3002 105.77 46.8205Z" fill="#6A0A1E"/>
</g>
</g>
</g>
<path d="M105.026 45.0675C113.453 47.4956 122.383 35.6525 107.187 25.8763C104.061 36.8743 101.289 40.3447 105.026 45.0675Z" fill="#EE4479"/>
<g opacity="0.279999">
<g opacity="0.279999">
<g opacity="0.279999">
<path opacity="0.279999" d="M106.613 44.2247C105.297 42.1118 109.26 39.2589 109.667 35.2017C111.407 37.3168 111.464 45.4333 106.613 44.2247Z" fill="#6A0A1E"/>
</g>
</g>
</g>
<path d="M109.409 47.4283C108.516 48.8559 106.552 49.2916 105.024 48.3983C103.496 47.5093 102.979 45.6286 103.872 44.1988C104.765 42.7691 106.727 42.3355 108.257 43.2267C109.785 44.1178 110.3 45.9986 109.409 47.4283Z" fill="#EE4479"/>
<path d="M253.939 56.8236C253.877 63.4294 249.405 68.7018 245.265 69.1068C241.125 69.5141 239.238 64.5855 238.631 58.3891C238.023 52.195 240.884 46.8285 245.026 46.4388C250.685 45.9045 253.996 50.6142 253.939 56.8236Z" fill="#F5B18C"/>
<path d="M251.439 38.788C254.101 60.8255 240.729 72.4979 220.329 74.9611C199.927 77.4265 183.768 69.3231 181.104 47.2877C178.442 25.248 192.786 18.3225 213.188 15.8571C233.59 13.3917 248.777 16.7505 251.439 38.788Z" fill="#5C5C5C"/>
<path d="M248.615 67.7689C247.926 77.3984 237.518 85.7602 228.706 86.7082C210.193 88.7007 189.732 80.2185 186.612 54.3931C183.492 28.5677 196.698 26.2819 214.817 24.0923C226.915 22.6297 237.04 21.651 243.004 29.045C246.686 33.608 249.04 61.8528 248.615 67.7689Z" fill="#FFDBC7"/>
<path d="M239.574 65.6671C239.832 66.972 241.855 67.6683 244.088 67.2238C246.321 66.7815 247.922 65.3649 247.663 64.0643C247.405 62.7594 245.384 62.0631 243.151 62.5076C240.916 62.9499 239.318 64.3643 239.574 65.6671Z" fill="#F59597"/>
<path d="M238.049 6.17788C238.993 9.13155 237.81 11.8531 235.453 14.3339C236.771 10.408 236.276 5.62174 231.558 0.207045C229.073 2.74689 226.433 5.42687 223.788 8.09371C223.867 6.50193 223.635 4.81161 222.98 3.02277C219.057 9.63951 214.197 9.9986 198.723 15.6125C188.133 19.453 186.806 26.8952 188.641 30.8013C195.82 28.2439 207.009 30.8429 215.022 29.8729C225.067 28.6599 232.506 25.9799 236.142 22.6694C240.556 18.6538 243.544 11.4262 238.049 6.17788Z" fill="#5C5C5C"/>
<path d="M231.828 52.4039C230.392 55.8655 231.151 59.3272 233.025 60.4022C235.845 62.0269 241.896 61.7006 243.687 58.4711C245.421 55.3444 243.613 50.3917 239.771 48.7211C236.406 47.2585 233.218 49.0517 231.828 52.4039Z" fill="#FAFDFF"/>
<path d="M242.804 49.8443C239.33 45.3339 232.998 47.992 231.779 52.5199C233.215 49.0605 236.602 47.5607 239.71 48.9116C241.635 49.7458 243.176 51.5171 243.837 53.6432C244.365 55.3422 244.308 57.3435 243.586 58.644C244.501 57.7288 245.357 53.1615 242.804 49.8443Z" fill="#723D28"/>
<path d="M232.847 54.4141C232.392 56.7328 233.694 59.0975 235.752 59.6952C237.815 60.2973 239.851 58.9048 240.306 56.5861C240.759 54.2718 239.459 51.9049 237.399 51.305C235.341 50.705 233.302 52.0954 232.847 54.4141Z" fill="#5C5C5C"/>
<path d="M233.097 53.9879C232.97 54.6316 233.332 55.2884 233.903 55.4548C234.474 55.6191 235.041 55.2337 235.166 54.59C235.293 53.9485 234.932 53.2938 234.361 53.1252C233.787 52.9588 233.224 53.3464 233.097 53.9879Z" fill="white"/>
<path d="M216.584 54.5893C219.2 57.4685 219.404 61.0111 217.672 62.6051C215.065 65.0092 208.326 66.5177 205.392 63.9669C202.548 61.4972 203.045 56.2139 206.763 53.4573C210.016 51.0466 214.051 51.802 216.584 54.5893Z" fill="#FAFDFF"/>
<path d="M203.771 55.4466C206.227 50.0845 213.973 50.7216 216.672 54.6868C214.056 51.8076 209.892 51.3938 206.884 53.6205C205.023 54.9999 203.863 57.1566 203.775 59.3943C203.707 61.1766 204.371 63.0727 205.551 64.0996C204.272 63.5019 201.963 59.3877 203.771 55.4466Z" fill="#723D28"/>
<path d="M206.646 58.0806C206.084 60.4125 207.518 62.7596 209.851 63.3223C212.181 63.8807 214.53 62.4465 215.09 60.1169C215.651 57.7828 214.217 55.4379 211.887 54.8752C209.554 54.3125 207.207 55.7488 206.646 58.0806Z" fill="#5C5C5C"/>
<path d="M206.939 57.6509C206.784 58.2968 207.18 58.9493 207.828 59.1048C208.474 59.258 209.127 58.8617 209.282 58.2158C209.44 57.5677 209.039 56.9174 208.393 56.762C207.745 56.6043 207.095 57.0028 206.939 57.6509Z" fill="white"/>
<path d="M241.37 39.3759C241.063 39.4635 240.728 39.446 240.417 39.2993C238.009 38.1454 234.222 38.7431 231.603 40.6962C231.017 41.1363 230.174 41.0115 229.734 40.4203C229.291 39.8291 229.416 38.9905 230.007 38.5505C233.414 36.0084 238.281 35.3165 241.573 36.8864C242.237 37.2061 242.517 38.0053 242.202 38.6709C242.031 39.0278 241.72 39.273 241.37 39.3759Z" fill="#5C5C5C"/>
<path d="M201.071 45.1362C200.705 45.1559 200.331 45.0268 200.051 44.7443C199.534 44.2232 199.534 43.3737 200.057 42.8547C202.645 40.2843 207.464 39.3362 211.525 40.6083C212.23 40.8273 212.622 41.5783 212.403 42.2811C212.182 42.9861 211.426 43.3759 210.728 43.1591C207.608 42.176 203.836 42.8679 201.94 44.7509C201.699 44.9939 201.388 45.1209 201.071 45.1362Z" fill="#5C5C5C"/>
<path d="M228.411 63.7555C228.265 63.7752 228.122 63.6854 228.081 63.5387C227.776 62.5031 226.859 61.9207 225.74 62.0564C224.615 62.19 223.844 62.9914 223.82 64.0467C223.816 64.2153 223.676 64.3488 223.51 64.3467C223.341 64.3423 223.205 64.2021 223.21 64.0336C223.24 62.6826 224.249 61.6163 225.666 61.4456C227.078 61.277 228.282 62.0477 228.668 63.3658C228.716 63.5278 228.624 63.7008 228.46 63.7467L228.411 63.7555Z" fill="#C5745C"/>
<path d="M196.316 47.8173C197.332 58.6686 194.151 66.032 189.558 66.575C184.965 67.1158 180.021 54.526 178.745 43.7032C177.282 31.304 183.233 25.5499 187.754 24.2581C192.198 22.986 195.162 35.4794 196.316 47.8173Z" fill="#5C5C5C"/>
<path d="M180.933 70.0758C183.908 76.7976 191.457 80.0884 196.477 78.5623C201.495 77.0341 197.466 56.2752 187.915 55.9774C179.965 55.7256 178.137 63.759 180.933 70.0758Z" fill="#FFDBC7"/>
<path d="M186.586 68.853C187.468 71.7541 191.199 73.7203 193.576 72.4941C194.502 72.0168 191.181 61.9406 189.62 62.1924C186.982 62.6172 185.704 65.954 186.586 68.853Z" fill="#E0956C"/>
<path d="M96.56 147.719C99.555 149.676 102.057 151.115 105.221 152.339C111.202 154.261 148.024 154.108 148.538 151.202C151.662 109.273 153.939 102.352 146.48 98.6361C142.314 98.0515 121.341 97.3246 108.413 96.9896C102.688 96.8429 99.2353 96.9239 98.3902 108.995C98.3662 109.308 100.453 109.448 100.744 109.514C100.207 119.016 97.3657 141.089 96.56 147.719Z" fill="#1470B3"/>
<path d="M101.43 105.365C101.579 104.246 102.4 99.0632 105.885 99.1946C109.651 99.3325 109.454 104.493 109.419 106.269C109.237 115.134 107.164 134.382 104.942 151.73C102.205 150.517 99.4793 148.987 96.8171 147.068C98.6451 131.059 100.344 113.543 101.43 105.365Z" fill="#3F1920"/>
<path d="M101.468 104.83C103.235 105.058 108.818 105.347 109.431 105.57C109.273 114.099 107.226 135.63 105.052 152.314C102.311 151.145 99.084 149.768 96.4153 147.92C98.1974 132.519 99.9773 113.098 101.468 104.83Z" fill="#1E84C2"/>
<path d="M107.173 134.175C106.457 141.249 105.92 145.648 105.051 152.315C102.31 151.146 99.0853 149.769 96.4165 147.918C96.9923 142.942 97.6119 136.971 98.1789 131.666C100.064 132.5 104.955 133.584 107.173 134.175Z" fill="#1470B3"/>
<path d="M102.27 123.155L104.729 123.435L104.956 121.447L102.498 121.167L102.27 123.155Z" fill="#D86227"/>
<path d="M100.579 125.066L105.954 125.677L106.013 125.165C106.096 124.451 105.582 123.805 104.868 123.724L102.079 123.407C101.363 123.326 100.719 123.838 100.636 124.554L100.579 125.066Z" fill="#D86227"/>
<path d="M99.6532 128.597C99.7188 128.014 99.4408 127.489 99.0007 127.167L99.1825 125.553C99.2613 124.864 99.8874 124.364 100.581 124.443L106.059 125.067C106.751 125.146 107.25 125.772 107.171 126.464L106.987 128.076C106.484 128.29 106.096 128.739 106.031 129.321C105.965 129.906 106.243 130.429 106.683 130.751L105.597 140.284C105.518 140.978 104.894 141.475 104.198 141.397L98.7227 140.775C98.0309 140.694 97.5317 140.068 97.6105 139.376L98.6964 129.842C99.1978 129.628 99.5875 129.179 99.6532 128.597Z" fill="#FCB822"/>
<path d="M102.048 121.333L105.341 121.709C105.426 120.956 104.885 120.28 104.134 120.192L103.563 120.126C102.812 120.041 102.133 120.582 102.048 121.333Z" fill="#FCB822"/>
<path d="M100.284 123.758L106.497 124.463L106.731 122.383C106.736 122.354 106.716 122.332 106.69 122.328L100.575 121.632C100.546 121.627 100.522 121.649 100.52 121.676L100.284 123.758Z" fill="#FCB822"/>
<path d="M107.149 134.374C106.51 140.45 105.789 146.659 105.052 152.315C104.445 152.286 103.907 152.521 103.318 152.346C100.723 151.575 98.7376 149.996 96.3798 148.367C94.7597 147.246 96.8286 135.618 97.5291 132.141C97.6298 131.65 98.0589 131.433 98.2122 131.453C97.643 134.538 104.034 135.337 107.149 134.374Z" fill="#1E84C2"/>
<path d="M106.465 134.798C106.723 134.749 106.894 134.712 107.128 134.644L107.172 134.23C104.777 134.94 100.423 134.546 98.866 133.116C98.3844 132.669 98.1085 132.037 98.2114 131.454C98.2114 131.454 97.9597 131.424 97.8283 131.601C97.9006 132.516 98.0013 132.88 98.5924 133.423C100.125 134.835 103.895 135.273 106.465 134.798Z" fill="#7EC8ED"/>
<path d="M170.388 144.605C165.946 138.475 160.022 125.545 157.014 120.214C153.47 121.659 146.477 126.675 150.547 132.609C154.378 138.192 158.26 142.917 164.431 149.67C165.327 150.648 171.148 145.654 170.388 144.605Z" fill="#FFDBC7"/>
<path d="M166.987 153.126C166.987 159.559 158.405 164.774 147.818 164.774C137.23 164.774 128.646 159.559 128.646 153.126C128.646 146.693 137.23 141.48 147.818 141.48C158.405 141.48 166.987 146.693 166.987 153.126Z" fill="#204A66"/>
<path d="M250.475 141.492C250.475 147.925 238.616 147.049 228.029 147.049C217.439 147.049 206.937 141.269 206.937 134.838C206.937 128.403 218.542 119.643 228.409 123.481C242.287 128.883 250.475 135.059 250.475 141.492Z" fill="#1B6168"/>
<path d="M8.30022 192.573C6.52689 179.416 9.4277 168.044 14.7455 167.19C15.1067 167.133 15.4745 167.113 15.838 167.152L53.8178 161.028L60.2456 208.696L21.1514 215L21.0594 214.912C15.781 215.552 10.0582 205.603 8.30022 192.573Z" fill="#F58A79"/>
<path d="M50.3715 160.944L57.2153 210.53L40.997 212.873L34.1555 163.285L50.3715 160.944Z" fill="#E9E9E9"/>
<path d="M307.945 149.992L272.101 174.04L205.024 185.092L194.824 138.029L265.674 126.374L305.619 137.952C306.381 141.869 306.972 145.996 307.945 149.992Z" fill="#F8E097"/>
<path d="M301.044 154.624L298.519 135.892C298.519 135.892 315.257 140.254 315.257 142.877C315.257 145.5 301.044 154.624 301.044 154.624Z" fill="#6A6A6A"/>
<path d="M50.2046 161.818L265.675 126.374L254.085 140.405L268.889 150.207L257.301 164.236L272.101 174.04L56.6345 209.486L50.2046 161.818Z" fill="#F4B41A"/>
<path d="M50.2046 161.819L265.675 126.375L254.085 140.405L51.8093 173.736L50.2046 161.819Z" fill="#FDCF06"/>
<path d="M257.3 164.237L272.102 174.041L56.6339 209.485L55.0269 197.568L257.3 164.237Z" fill="#F2961F"/>
<path d="M162.401 126.306C159.266 127.708 154.254 130.151 149.311 130.637C149.762 125.995 151.531 105.171 151.573 104.573C154.123 105.867 158.883 117.314 162.401 126.306Z" fill="#EE2A5A"/>
<path d="M94.7875 84.2417C95.2363 77.8548 95.1925 74.9362 95.3261 71.0017C95.3589 70.0339 93.3382 70.2419 92.1319 72.1621C91.254 73.5656 91.532 76.1186 90.9935 77.1717C90.3476 78.4394 89.4303 78.1548 88.3597 77.2987C85.437 73.1759 83.4951 70.1718 82.2297 68.7027C81.2467 67.5619 79.3464 68.6545 79.7821 69.7274C80.5067 71.5184 82.4705 75.5121 83.9921 78.8336C80.903 76.5368 76.3734 73.4342 74.7182 72.4336C73.1989 71.5162 71.5547 73.386 72.9865 74.656C74.7314 76.2018 78.0854 79.6853 81.0431 82.2514C78.0482 81.5332 73.3062 79.8429 71.454 79.451C69.5209 79.0416 69.4574 80.8873 70.7644 81.669C75.6575 84.6007 78.8057 85.9451 79.7361 86.4531C78.8713 86.6282 73.8863 85.7765 72.3538 85.9473C71.3752 86.0546 71.2198 87.6354 72.8311 88.2113C75.0357 89.0017 82.9982 91.0095 85.9778 91.6138C90.4505 92.0867 94.4876 88.4981 94.7875 84.2417Z" fill="#FFDBC7"/>
<path d="M86.2394 91.1675C86.9312 90.145 91.4718 85.2163 91.9491 84.3821C106.228 93.7489 109.4 95.8333 124.04 104.506C122.069 107.289 118.669 111.598 116.675 114.359C103.574 105.08 95.152 98.0688 86.2394 91.1675Z" fill="#FFDBC7"/>
<path d="M100.077 109.577C103.337 112.54 111.949 117.054 117.992 121.751C121.446 116.772 127.005 104.031 127.125 103.727C120.588 101.023 115.855 98.9822 109.302 94.6163C107.036 97.3685 102.424 105.623 100.077 109.577Z" fill="#EE2A5A"/>
<path d="M107.376 139.503C121.908 144.607 133.573 146.348 141.141 145.711C148.979 145.052 148.837 141.798 154.238 142.146C154.463 140.648 150.855 140.927 151.641 140.182C153.34 138.562 151.51 138.954 151.479 137.66C151.199 126.826 152.088 111.175 151.908 104.771C151.162 103.694 127.443 99.9038 114.625 103.911C112.083 111.224 109.226 128.33 107.376 139.503Z" fill="#EE2A5A"/>
<path d="M145.171 105.186C145.219 104.636 145.057 103.756 144.95 103.228C139.882 102.37 132.414 101.772 125.117 102.225C124.767 102.663 124.719 103.081 124.697 103.324C124.314 107.568 128.504 111.769 134.157 112.28C139.812 112.796 144.786 109.427 145.171 105.186Z" fill="#FFDBC7"/>
<path d="M142.682 92.6173V105.069C142.702 107.758 139.344 109.963 135.129 109.993C130.913 110.022 127.438 107.865 127.419 105.174V92.6173H142.682Z" fill="#FFDBC7"/>
<g opacity="0.190002">
<g opacity="0.190002">
<g opacity="0.190002">
<path opacity="0.190002" d="M155.903 93.7201C156.022 92.8334 155.945 91.9597 155.803 91.0971C146.702 89.6936 132.968 88.3186 123.099 88.2617C122.99 88.6404 122.795 88.9842 122.744 89.3827C121.845 96.2512 128.54 102.793 137.697 103.989C146.853 105.187 155.006 100.591 155.903 93.7201Z" fill="#781213"/>
</g>
</g>
</g>
<path d="M140.275 184.906C140.364 185.225 152.412 182.421 152.355 182.027C151.856 178.572 150.267 171.725 149.943 169.73L137.072 172.715C138.103 176.032 139.629 182.605 140.275 184.906Z" fill="#FFDBC7"/>
<path d="M138.25 185.436C138.267 185.64 152.535 185.949 152.577 185.706C152.918 183.586 153.026 178.461 153.181 177.232L137.841 177.723C138.031 180.03 138.125 183.974 138.25 185.436Z" fill="#FBF1AF"/>
<path d="M154.153 183.45C154.017 182.713 153.682 181.767 153.437 180.906C153.253 180.267 147.184 179.866 147.044 181.355C147.009 181.736 146.996 182.073 147.003 182.382C145.967 182.307 144.842 182.202 143.657 182.06C141.083 181.754 138.786 181.353 137.186 180.961C136.886 183.308 136.757 187.4 136.446 190.01C136.446 190.01 163.063 197.297 167.646 193.726C168.939 192.719 162.555 187.249 154.153 183.45Z" fill="#EE3A3A"/>
<path d="M136.604 188.37C136.556 188.953 136.503 189.511 136.446 190.01C136.446 190.01 163.064 197.297 167.646 193.726C167.83 193.586 167.854 193.351 167.749 193.051C160.157 194.056 143.231 190.056 136.604 188.37Z" fill="#992121"/>
<path d="M160.242 185.984C158.77 185.603 156.798 186.131 155.432 187.263C155.27 187.396 155.248 187.635 155.379 187.797C155.445 187.874 155.535 187.922 155.629 187.933C155.727 187.944 155.83 187.917 155.915 187.847C157.104 186.862 158.814 186.382 160.051 186.72C160.261 186.777 160.463 186.652 160.513 186.448C160.566 186.245 160.445 186.037 160.242 185.984ZM157.984 185.494C158.188 185.55 158.389 185.402 158.431 185.198C158.47 184.992 158.337 184.791 158.131 184.751C156.493 184.421 154.808 184.907 153.507 186.074C153.352 186.212 153.339 186.455 153.477 186.61C153.54 186.68 153.628 186.724 153.715 186.733C153.818 186.746 153.928 186.715 154.013 186.641C155.548 185.261 157.159 185.329 157.984 185.494ZM155.983 184.368C156.185 184.425 156.397 184.316 156.456 184.116C156.52 183.917 156.408 183.702 156.207 183.641C154.665 183.17 152.776 183.748 151.614 185.051C151.471 185.209 151.487 185.45 151.642 185.588C151.703 185.642 151.776 185.673 151.85 185.682C151.968 185.697 152.091 185.656 152.176 185.559C153.153 184.467 154.718 183.97 155.983 184.368Z" fill="#D3DAE7"/>
<g opacity="0.229996">
<g opacity="0.229996">
<g opacity="0.229996">
<path opacity="0.229996" d="M122.346 146.882C126.164 147.252 139.372 143.179 144.574 147.039C148.204 149.732 150.321 158.867 153.182 173.132C152.882 173.3 141.441 175.492 137.842 176.239C135.359 164.836 134.26 162.379 132.999 162.32C128.879 162.13 126.804 161.784 120.936 161.694C117.762 161.646 119.828 154.044 122.346 146.882Z" fill="#A21D21"/>
</g>
</g>
</g>
<path d="M109.356 139.621C112.817 140.479 117.447 141.948 119.508 142.274C132.676 144.352 138.421 144.742 143.642 148.572C147.283 151.245 149.081 159.607 152.281 173.307C151.854 173.357 139.84 175.743 136.698 176.243C133.944 165.284 133.924 162.933 132.681 162.843C128.626 162.549 126.27 162.917 120.497 162.67C117.375 162.538 113.301 162.552 110.302 159.76C105.752 155.532 107.033 146.921 109.356 139.621Z" fill="#204A66"/>
<path d="M149.902 70.4309C149.44 72.673 150.682 74.9786 152.676 75.5807C154.668 76.1784 156.656 74.8472 157.116 72.6029C157.578 70.3609 156.334 68.0553 154.342 67.4554C152.35 66.8554 150.362 68.1889 149.902 70.4309Z" fill="#451E15"/>
<path d="M150.148 70.0206C150.019 70.6446 150.365 71.284 150.919 71.4504C151.471 71.6168 152.022 71.2468 152.149 70.6249C152.279 70.0009 151.933 69.3616 151.381 69.1952C150.829 69.0309 150.278 69.3988 150.148 70.0206Z" fill="white"/>
<path d="M133.878 70.3431C136.391 73.161 136.56 76.5964 134.865 78.1291C132.315 80.4347 125.767 81.8425 122.943 79.3421C120.208 76.9227 120.736 71.8035 124.363 69.163C127.538 66.8508 131.448 67.6193 133.878 70.3431Z" fill="#FAFDFF"/>
<path d="M121.443 71.0637C123.874 65.8877 131.381 66.5708 133.964 70.4397C131.451 67.6262 127.416 67.1861 124.48 69.323C122.665 70.6433 121.518 72.7255 121.415 74.8932C121.334 76.6229 121.962 78.4686 123.099 79.4736C121.862 78.8803 119.657 74.8713 121.443 71.0637Z" fill="#853A24"/>
<path d="M124.202 73.7625C123.637 76.0177 125.01 78.3058 127.265 78.8707C129.524 79.4378 131.812 78.0649 132.374 75.8097C132.939 73.5501 131.569 71.2621 129.311 70.6994C127.057 70.1345 124.769 71.5051 124.202 73.7625Z" fill="#451E15"/>
<path d="M124.49 73.3457C124.335 73.972 124.716 74.6069 125.342 74.7624C125.968 74.9222 126.601 74.5412 126.759 73.915C126.914 73.2888 126.535 72.6538 125.907 72.4962C125.281 72.3407 124.648 72.7195 124.49 73.3457Z" fill="white"/>
<path d="M153.229 83.6987C152.576 81.4807 149.163 82.4003 143.489 82.9104C143.191 82.9345 142.037 83.0462 141.742 83.0768C136.073 83.6593 132.547 83.4097 132.33 85.7108C131.916 90.1424 137.849 94.3682 143.607 93.8318L143.708 93.8208C149.463 93.2494 154.481 87.9682 153.229 83.6987Z" fill="#6F1811"/>
<path d="M143.745 93.9088L143.644 93.9197C141.777 94.0927 139.789 93.749 137.891 92.9323L137.775 92.8841L137.86 92.7921C139.228 91.3076 141.172 90.3727 143.335 90.1647C145.496 89.9567 147.583 90.5019 149.212 91.6996L149.312 91.7718L149.207 91.8419C147.497 93.0067 145.61 93.7227 143.745 93.9088Z" fill="#DD6B5B"/>
<path d="M142.924 85.892C138.961 86.273 135.546 85.3644 134.975 83.7704L134.942 83.674L150.339 82.1917L150.324 82.2924C150.063 83.9631 146.884 85.5089 142.924 85.892Z" fill="white"/>
<path d="M145.691 79.8758C145.55 79.8933 145.413 79.8035 145.371 79.6612C145.089 78.654 144.202 78.0826 143.116 78.203C142.024 78.3256 141.268 79.0963 141.24 80.1166C141.233 80.283 141.095 80.41 140.931 80.4057C140.767 80.3991 140.638 80.2633 140.644 80.0991C140.686 78.7876 141.673 77.7651 143.05 77.6118C144.419 77.4586 145.581 78.2183 145.945 79.4992C145.991 79.6568 145.899 79.8232 145.739 79.867L145.691 79.8758Z" fill="#C5745C"/>
<path d="M99.8368 84.6226C102.663 91.1671 109.956 94.4251 114.836 92.9866C119.718 91.548 115.989 71.3825 106.731 71.0081C99.0202 70.6972 97.179 78.4722 99.8368 84.6226Z" fill="#FFDBC7"/>
<path d="M105.902 84.3249C106.734 87.145 110.336 89.0828 112.652 87.9158C113.554 87.4603 110.419 77.6601 108.904 77.89C106.34 78.2797 105.073 81.5027 105.902 84.3249Z" fill="#E0956C"/>
<path d="M118.944 85.3618C119.063 86.739 121.07 87.6893 123.43 87.4922C125.788 87.2908 127.607 86.0143 127.491 84.6371C127.375 83.2599 125.368 82.3052 123.005 82.5045C120.648 82.7059 118.828 83.9846 118.944 85.3618Z" fill="#F59597"/>
<path d="M155.472 80.5899C155.697 81.7985 157.346 82.5057 159.159 82.1708C160.967 81.8314 162.254 80.5812 162.029 79.3726C161.805 78.1661 160.157 77.4589 158.344 77.7961C156.534 78.1311 155.246 79.3835 155.472 80.5899Z" fill="#F59597"/>
<path d="M105.725 150.327C106.386 151.522 107.514 154.235 112.948 153.21C116.875 152.47 122.933 143.347 137.115 145.411C132.338 135.14 111.614 137.978 107.617 137.978C107.098 140.921 106.386 146.46 105.725 150.327Z" fill="#EE2A5A"/>
<path d="M111.369 133.51C117.747 132.932 120.422 125.952 122.333 115.749L120.457 115.394C118.11 127.914 114.721 132.553 108.63 131.424L108.127 133.269C108.957 133.377 110.638 133.574 111.369 133.51Z" fill="#24407B"/>
<path d="M118.487 116.699L122.933 117.553L123.441 117.255C123.441 117.255 126.073 102.375 124.663 101.335C123.592 100.547 120.245 100.118 119.877 100.418C121.063 101.984 118.487 116.699 118.487 116.699Z" fill="#24407B"/>
<path d="M118.942 116.391L123.441 117.256C123.441 117.256 126.011 102.479 124.884 101.244C124.536 100.863 120.308 99.7972 120.385 100.382C121.488 101.912 118.942 116.391 118.942 116.391Z" fill="#1E84C2"/>
<path d="M153.466 135.773C153.543 136.64 153.622 138.045 153.136 137.866C146.914 134.96 147.097 126.388 147.045 118.285L148.954 118.261C148.993 124.558 149.225 129.425 150.208 131.855C150.992 133.795 152.768 135.562 153.466 135.773Z" fill="#24407B"/>
<path d="M145.575 119.145L150.102 119.246L150.551 118.867C150.551 118.867 150.691 104.257 149.157 103.414C148.231 102.906 145.774 102.625 144.736 102.739C144.658 102.816 144.559 103.022 144.487 103.138C145.638 104.252 145.575 119.145 145.575 119.145Z" fill="#24407B"/>
<path d="M145.974 118.765L150.552 118.868C150.552 118.868 150.611 104.536 149.407 103.375C148.983 102.966 144.56 102.173 144.738 102.74C146.077 104.06 145.974 118.765 145.974 118.765Z" fill="#1E84C2"/>
<path d="M271.154 78.8429C269.67 80.7653 267.158 81.0894 264.871 80.2683C262.585 79.4494 262.655 77.7022 263.413 75.3923C264.041 73.4743 268.844 73.2269 271.235 73.6582C272.975 73.9713 272.954 76.5155 271.154 78.8429Z" fill="#E0956C"/>
<path d="M267.568 78.5517C266.368 78.7138 265.344 78.4598 265.28 77.9803C265.215 77.503 266.134 76.9797 267.332 76.8176C268.529 76.6534 269.554 76.9096 269.62 77.3891C269.685 77.8686 268.768 78.3875 267.568 78.5517Z" fill="#C27E5C"/>
<path d="M276.379 65.8932C273.487 66.8763 260.986 73.0661 254.74 75.884C253.972 76.2344 256.135 80.6791 257.422 81.082C259.583 83.4292 263.627 83.5452 270.179 82.7548C270.422 82.7241 273.899 81.406 275.429 80.4492C273.94 76.865 269.833 79.9018 267.657 78.1743C266.046 76.9 267.147 75.4943 268.191 74.6032C273.036 70.4715 277.995 69.6308 276.379 65.8932Z" fill="#FFDBC7"/>
<path d="M260.207 82.4709C261.087 82.0045 257.028 74.7638 256.115 75.1754C242.491 81.3236 225.005 88.0148 221.301 89.1424L226.284 98.8135C234.069 95.1198 248.569 88.6235 260.207 82.4709Z" fill="#FFDBC7"/>
<path d="M238.896 82.4795C240.36 85.8624 242.493 92.917 243.784 96.5122C236.49 99.6695 230.412 101.841 229.834 101.741C223.836 100.681 220.114 89.1839 219.678 88.5117C223.514 87.5308 231.7 85.3412 238.896 82.4795Z" fill="#12BAB1"/>
<path d="M189.553 117.696C201.995 119.156 206.404 134.689 218.94 129.734C224 127.735 225.235 122.747 230.896 123.905C231.851 122.014 229.101 121.965 230.005 121.188C231.47 119.929 230.231 120.032 230.283 119.526C231.452 108.355 230.865 96.1575 231.301 88.7241C227.314 86.7798 204.846 85.4157 196.844 87.1367C192.375 96.4553 191.301 105.417 189.553 117.696Z" fill="#12BAB1"/>
<path d="M205.614 86.301C205.41 86.7105 205.321 87.1615 205.31 87.3629C205.104 91.6194 209.465 95.6415 215.133 95.9218C220.803 96.1999 225.635 92.6287 225.843 88.3745C225.856 88.1183 225.626 87.1878 225.578 86.8944C220.462 86.0777 212.436 86.1872 205.614 86.301Z" fill="#1487A4"/>
<path d="M224.291 76.8373L223.4 89.3088C223.208 91.9909 219.643 93.9221 215.44 93.6221C211.234 93.32 207.981 90.9027 208.174 88.2184L209.065 75.7469L224.291 76.8373Z" fill="#FFDBC7"/>
<path d="M231.107 116.952C229.859 114.449 229.485 109.836 230.17 103.865L228.274 103.648C227.296 112.15 228.338 117.856 231.107 119.989V116.952Z" fill="#BC3A26"/>
<path d="M232.629 86.2409C231.57 86.0745 225.462 85.0936 223.8 85.0564C224.623 90.3375 224.733 99.47 224.759 101.594C224.792 103.969 226.907 105.795 229.282 105.673C231.649 105.55 233.229 103.527 233.354 101.156C233.584 96.8688 233.457 91.3534 232.629 86.2409Z" fill="#BC3A26"/>
<path d="M231.345 86.0247C230.57 85.8802 226.517 85.2036 225.182 85.1751C225.885 89.7928 226.099 99.3085 226.121 100.78C226.15 102.505 227.599 103.841 229.221 103.758C230.841 103.672 231.916 102.205 231.995 100.484C232.137 97.4233 232.058 91.0058 231.345 86.0247Z" fill="#F47827"/>
<g opacity="0.190002">
<g opacity="0.190002">
<g opacity="0.190002">
<path opacity="0.190002" d="M229.45 81.8915C229.599 81.2194 229.616 80.5516 229.586 79.8881C223.408 78.4277 214.031 76.7921 207.216 76.328C207.111 76.6104 206.951 76.8666 206.883 77.1666C205.725 82.3667 209.841 87.6412 216.074 88.9462C222.302 90.249 228.294 87.0939 229.45 81.8915Z" fill="#781213"/>
</g>
</g>
</g>
<path d="M202.33 171.807C202.236 172.138 214.054 176.09 214.22 175.705C215.656 172.361 217.992 165.412 218.791 163.461L206.168 159.228C205.257 162.736 203.017 169.41 202.33 171.807Z" fill="#FFDBC7"/>
<path d="M201.453 173.625C201.407 173.833 215.539 178.525 215.651 178.296C216.643 176.29 218.326 171.21 218.858 170.032L203.415 165.809C202.896 168.169 201.777 172.128 201.453 173.625Z" fill="white"/>
<path d="M217.918 176.531C218.005 175.753 217.964 174.707 217.983 173.772C217.997 173.08 212.07 170.818 211.475 172.257C211.321 172.627 211.208 172.959 211.118 173.268C210.106 172.874 209.018 172.423 207.882 171.922C205.408 170.825 203.243 169.719 201.765 168.834C200.747 171.081 199.359 175.121 198.249 177.628C198.249 177.628 222.546 193.072 228.212 190.918C229.81 190.314 225.125 182.9 217.918 176.531Z" fill="#F04F23"/>
<path d="M198.911 176.043C198.684 176.61 198.46 177.151 198.248 177.628C198.248 177.628 222.547 193.071 228.213 190.919C228.436 190.833 228.535 190.61 228.521 190.277C220.644 188.948 205.002 179.759 198.911 176.043Z" fill="#B12D24"/>
<path d="M223.208 180.927C221.861 180.095 219.729 180.016 218.021 180.721C217.817 180.806 217.721 181.038 217.804 181.242C217.846 181.336 217.92 181.41 218.012 181.45C218.106 181.494 218.22 181.498 218.323 181.454C219.81 180.839 221.662 180.883 222.794 181.603C222.982 181.721 223.225 181.658 223.339 181.472C223.453 181.286 223.394 181.043 223.208 180.927ZM221.108 179.746C221.292 179.862 221.539 179.779 221.644 179.587C221.747 179.394 221.677 179.153 221.485 179.05C219.952 178.216 218.122 178.181 216.467 178.947C216.267 179.039 216.18 179.274 216.272 179.473C216.316 179.563 216.388 179.63 216.473 179.67C216.572 179.711 216.69 179.716 216.797 179.665C218.752 178.766 220.335 179.328 221.108 179.746ZM219.459 178.006C219.646 178.126 219.886 178.082 220.011 177.903C220.134 177.721 220.086 177.474 219.906 177.351C218.514 176.41 216.454 176.403 214.89 177.347C214.704 177.458 214.643 177.701 214.757 177.89C214.801 177.962 214.862 178.017 214.936 178.047C215.048 178.098 215.186 178.093 215.302 178.023C216.607 177.233 218.321 177.222 219.459 178.006Z" fill="#D3DAE7"/>
<g opacity="0.229996">
<g opacity="0.229996">
<g opacity="0.229996">
<path opacity="0.229996" d="M208.111 128.475C211.23 130.71 221.546 135.661 224.114 141.607C225.905 145.759 224.346 154.889 219.677 168.668C218.862 168.987 209.17 164.823 204.733 162.925C208.295 151.811 208.621 149.998 207.559 149.314C204.089 147.086 202.467 145.746 197.433 142.731C194.71 141.097 202.342 133.412 208.111 128.475Z" fill="#A21D21"/>
</g>
</g>
</g>
<path d="M194.862 119.062C198.345 121.425 203.943 125.515 205.668 126.695C216.73 134.277 221.056 136.817 223.655 142.746C225.468 146.885 223.066 154.62 218.977 168.083C217.884 167.911 206.942 164.177 204.092 162.818C207.196 151.955 208.026 150.342 207.021 149.608C204.536 147.793 200.852 145.996 198.866 144.78C196.199 143.149 192.046 140.73 190.59 137.573C187.989 131.932 190.914 125.532 194.862 119.062Z" fill="#1B6168"/>
<path d="M187.924 127.955C188.585 129.148 189.713 131.863 195.147 130.838C199.074 130.098 202.884 124.178 210.866 127.738C206.089 117.467 193.814 115.606 189.818 115.606C189.297 118.549 188.585 124.088 187.924 127.955Z" fill="#12BAB1"/>
<g opacity="0.339996">
<g opacity="0.339996">
<g opacity="0.339996">
<path opacity="0.339996" d="M217.91 99.3429L219.867 103.308C220.042 103.661 220.377 103.906 220.767 103.961L225.143 104.596C226.122 104.74 226.514 105.944 225.804 106.636L222.639 109.721C222.356 109.997 222.229 110.393 222.295 110.781L223.044 115.138C223.21 116.115 222.183 116.859 221.31 116.397L217.395 114.341C217.045 114.157 216.631 114.157 216.283 114.341L212.369 116.397C211.491 116.859 210.468 116.115 210.635 115.138L211.384 110.781C211.449 110.393 211.32 109.997 211.038 109.721L207.874 106.636C207.163 105.944 207.557 104.74 208.535 104.596L212.912 103.961C213.301 103.906 213.636 103.661 213.811 103.308L215.767 99.3429C216.207 98.454 217.472 98.454 217.91 99.3429Z" fill="white"/>
</g>
</g>
</g>
<path d="M192.615 119.759C191.376 119.597 189.73 119.641 188.915 119.444L189.364 117.589C191.744 118.163 196.733 118.925 199.868 116.374C202.658 114.106 203.956 109.365 203.728 102.289L205.637 102.228C205.887 109.935 204.35 115.192 201.073 117.859C198.456 119.987 195.216 120.098 192.615 119.759Z" fill="#BC3A26"/>
<path d="M206.615 85.8539C205.603 85.9327 204.156 86.1035 202.862 86.1889C201.19 86.3027 199.539 86.3925 197.882 86.5064C199.171 91.6911 199.944 99.8165 200.163 101.929C200.406 104.292 202.674 105.923 205.03 105.59C207.377 105.255 208.769 103.099 208.684 100.727C208.53 96.438 207.893 90.8723 206.615 85.8539Z" fill="#BC3A26"/>
<path d="M205.355 85.9008C204.414 86.0016 200.707 86.3125 199.374 86.4022C200.484 90.9411 201.292 99.5372 201.447 100.998C201.629 102.716 203.19 103.914 204.799 103.684C206.404 103.459 207.343 101.902 207.269 100.179C207.137 97.1178 206.511 90.7988 205.355 85.9008Z" fill="#F47827"/>
<g opacity="0.330002">
<g opacity="0.330002">
<g opacity="0.330002">
<path opacity="0.330002" d="M235.12 141.172C235.569 140.215 234.498 138.166 234.176 137.141C233.94 136.381 235.991 137.999 236.549 136.878C236.777 136.423 234.737 132.51 233.443 131.65C231.821 130.57 230.601 129.905 230.829 129.649C231.048 129.403 234.551 130.122 234.454 128.32C234.415 127.584 231.836 126.13 230.603 125.493C229.366 124.851 225.351 124.223 223.425 123.726C223.425 123.726 216.984 129.421 216.588 129.646C219.182 135.479 222.479 140.351 224.27 142.403C225.124 143.379 229.034 143.931 229.296 143.686C230.01 143.031 229.557 142.431 229.73 142.392C229.986 142.326 231.678 143.383 232.116 143.081C233.318 142.254 232.626 140.984 232.742 140.844C232.902 140.644 234.748 141.962 235.12 141.172Z" fill="#A21D21"/>
</g>
</g>
</g>
<path d="M224.129 126.261C218.968 120.722 211.499 108.614 207.862 103.694C204.521 105.564 198.196 111.399 202.965 116.792C207.451 121.861 211.884 126.073 218.839 132.016C219.849 132.878 225.009 127.207 224.129 126.261Z" fill="#FFDBC7"/>
<path d="M189.03 99.4978C188.528 102.797 190.324 106.69 196.467 116.902C201.485 114.654 211.72 106.384 211.882 105.979C207.547 99.8372 199.188 86.8731 199.168 86.503C197.612 86.4746 196.046 86.7877 194.919 87.046C191.567 89.6012 189.759 94.6918 189.03 99.4978Z" fill="#12BAB1"/>
<path d="M224.794 141.693C223.003 139.642 221.194 137.124 218.248 132.243C216.111 128.71 218.173 126.163 220.183 125.305C221.337 124.812 228.625 124.584 230.495 125.552C231.725 126.189 234.17 127.586 234.201 127.908C234.35 129.474 232.176 129.498 230.083 128.519C229.441 128.289 228.813 128.193 227.764 128.512C227.456 128.942 231.637 130.684 233.257 131.762C234.553 132.622 236.778 136.272 236.55 136.728C235.99 137.849 233.367 135.37 232.215 134.459C231.815 134.144 230.368 133.551 229.413 133.308C230.061 134.293 231.611 135.782 232.097 136.41C233.038 137.621 235.445 139.988 234.978 140.936C234.615 141.676 232.743 140.509 230.744 138.731C230.26 138.3 228.415 136.754 227.182 135.779C227.132 135.821 229.308 138.762 229.702 139.097C230.88 140.093 232.605 141.295 232.174 142.782C232.053 143.187 228.85 141.665 227.725 140.537C227.224 140.032 226.072 138.965 224.837 137.544C225.347 138.527 226.51 140.211 226.757 140.564C228.763 141.796 229.522 142.359 229.218 143.476C229.126 143.824 225.65 142.67 224.794 141.693Z" fill="#FFDBC7"/>
<path d="M199.873 70.2855C199.957 71.7831 202.229 72.8713 204.948 72.718C207.667 72.5648 209.804 71.2313 209.721 69.7359C209.638 68.2383 207.363 67.1501 204.646 67.3033C201.925 67.4544 199.79 68.79 199.873 70.2855Z" fill="#F59597"/>
<path d="M236.17 68.0552C235.456 65.7146 231.85 66.7284 225.847 67.3283C225.536 67.3612 224.315 67.4903 223.999 67.5276C218.009 68.2085 214.27 67.983 214.069 70.4199C213.679 75.1186 220.006 79.5239 226.097 78.889L226.204 78.878C232.292 78.2102 237.544 72.5635 236.17 68.0552Z" fill="#6F1811"/>
<path d="M226.214 78.9753L226.108 78.9863C224.131 79.1921 222.023 78.8483 220.005 78.0076L219.882 77.955L219.97 77.8587C221.401 76.2713 223.448 75.2619 225.738 75.0145C228.022 74.7715 230.237 75.3254 231.976 76.5734L232.085 76.6501L231.974 76.7267C230.176 77.9769 228.184 78.7564 226.214 78.9753Z" fill="#DD6B5B"/>
<path d="M225.253 70.4976C221.063 70.9464 217.438 70.0203 216.816 68.3431L216.779 68.2402L233.06 66.4974L233.047 66.6068C232.789 68.376 229.442 70.0487 225.253 70.4976Z" fill="white"/>
<rect y="174" width="322" height="130" fill="url(#paint0_linear_310_11349)"/>
</svg>
