<svg width="164" height="164" viewBox="0 0 164 164" fill="none" xmlns="http://www.w3.org/2000/svg">
<defs>
<filter id="filter0_d_720_251" x="49.9614" y="42.6113" width="82" height="86.7007" filterUnits="userSpaceOnUse" color-interpolation-filters="sRGB">
<feFlood flood-opacity="0" result="BackgroundImageFix"/>
<feColorMatrix in="SourceAlpha" type="matrix" values="0 0 0 0 0 0 0 0 0 0 0 0 0 0 0 0 0 0 127 0" result="hardAlpha"/>
<feOffset dx="4" dy="4"/>
<feGaussianBlur stdDeviation="3"/>
<feComposite in2="hardAlpha" operator="out"/>
<feColorMatrix type="matrix" values="0 0 0 0 0.933333 0 0 0 0 0.415686 0 0 0 0 0.415686 0 0 0 0.3 0"/>
<feBlend mode="normal" in2="BackgroundImageFix" result="effect1_dropShadow_720_251"/>
<feBlend mode="normal" in="SourceGraphic" in2="effect1_dropShadow_720_251" result="shape"/>
</filter>
<linearGradient id="paint0_linear_720_251" x1="51.9613" y1="30" x2="111.961" y2="133.923" gradientUnits="userSpaceOnUse">
<stop stop-color="#F07575"/>
<stop offset="0.0001" stop-color="#F07575"/>
<stop offset="1" stop-color="#EB4747"/>
</linearGradient>
</defs>
<g filter="url(#filter0_d_720_251)">
<path d="M51.9613 64.641C51.9613 49.245 68.628 39.6225 81.9613 47.3205L111.961 64.641C125.295 72.339 125.295 91.584 111.961 99.282L81.9613 116.603C68.628 124.301 51.9613 114.678 51.9613 99.282L51.9613 64.641Z" fill="url(#paint0_linear_720_251)"/>
</g>
<path fill-rule="evenodd" clip-rule="evenodd" d="M78.0436 64.117C76.6473 64.434 74.975 65.2384 73.6075 66.2509C73.3082 66.4727 72.8943 66.7446 72.6878 66.8554C71.2171 67.6442 70.5348 69.3838 71.0079 71.1385C71.0543 71.3106 71.0385 71.3272 70.7604 71.4C68.3834 72.0218 66.7492 74.7082 67.3078 77.0754L67.3966 77.4516L67.0316 77.9196C65.8659 79.4149 65.6714 81.4431 66.5326 83.1261L66.7958 83.6406L66.5344 84.1514C65.4322 86.3056 66.1902 89.24 68.1447 90.3848L68.4299 90.5518L68.4351 91.2849C68.451 93.4542 69.8999 95.5579 71.8646 96.2641C72.0724 96.3387 72.2316 96.4503 72.3031 96.5714C74.2407 99.8499 79.6375 99.7979 81.5003 96.4828C81.7253 96.0824 81.7116 96.0824 81.9366 96.4828C83.7994 99.7979 89.1962 99.8499 91.1338 96.5714C91.2053 96.4503 91.3645 96.3387 91.5723 96.2641C93.537 95.5579 94.9859 93.4542 95.0018 91.2849L95.007 90.5518L95.2922 90.3848C97.2467 89.24 98.0048 86.3056 96.9025 84.1514L96.6412 83.6406L96.9043 83.1261C97.7655 81.4431 97.5711 79.4149 96.4053 77.9196L96.0404 77.4516L96.1291 77.0754C96.6878 74.7082 95.0535 72.0218 92.6766 71.4C92.3984 71.3272 92.3826 71.3106 92.429 71.1385C92.9066 69.3672 92.2261 67.6568 90.7158 66.8328C90.49 66.7095 90.0217 66.4019 89.6752 66.1489C86.6554 63.9449 83.6183 63.404 82.0777 64.7959L81.7185 65.1204L81.3592 64.7959C80.5707 64.0835 79.3199 63.8274 78.0436 64.117ZM80.0574 65.3715C80.4212 65.5572 80.7647 65.8978 80.9359 66.2427C81.0746 66.522 81.1886 74.2572 81.053 74.1891C79.638 73.4778 78.7079 73.4984 78.7079 74.241C78.7079 74.579 78.928 74.8033 79.3086 74.8531C80.0514 74.9503 80.6166 75.3085 80.9195 75.874L81.0685 76.1522L81.0868 83.1546L81.1052 90.1571L80.5989 89.6764C79.5589 88.689 78.1228 88.1172 77.7127 88.5271C77.3491 88.8905 77.5347 89.3631 78.1284 89.5851C81.0255 90.6685 82.0244 93.9057 80.1814 96.2387C78.3702 98.5313 74.7861 98.3103 73.2678 95.8123C73.0857 95.5126 72.9669 95.3982 72.7401 95.3039C70.5321 94.3863 69.6503 93.1367 69.6446 90.9173C69.6419 89.8294 69.6354 89.8125 69.1258 89.5543C67.4974 88.7296 66.7206 86.4222 67.5382 84.8385L67.658 84.6064L68.1027 84.9076C69.0642 85.5589 70.5739 85.9367 71.1092 85.66C71.7508 85.3284 71.3787 84.5296 70.5827 84.5296C67.6545 84.5296 66.138 80.6435 68.2097 78.4486C68.7391 77.8877 68.7703 77.777 68.5798 77.1376C67.5277 73.6068 71.7973 70.9332 74.4802 73.4426C75.1959 74.1121 75.5525 74.8623 75.6669 75.9391C75.7747 76.9542 76.8624 76.9487 76.8594 75.933C76.8526 73.6582 75.005 71.5977 72.6978 71.2917C72.3722 71.2486 72.3468 71.2303 72.2397 70.9637C71.1324 68.2046 75.0458 66.2711 76.549 68.8346C76.8269 69.3087 77.2686 69.4341 77.5917 69.1307C78.1535 68.6032 77.0716 67.1467 75.747 66.6471L75.4202 66.524L75.6444 66.3861C77.2424 65.4033 79.2262 64.9472 80.0574 65.3715ZM84.8659 65.2492C85.6351 65.3738 87.0233 65.9131 87.7926 66.3861L88.0167 66.524L87.6899 66.6471C86.3743 67.1433 85.3106 68.5625 85.8356 69.121C86.1378 69.4426 86.6063 69.315 86.888 68.8346C88.3911 66.2711 92.3045 68.2046 91.1972 70.9637C91.0902 71.2303 91.0647 71.2486 90.7391 71.2917C88.4319 71.5977 86.5843 73.6582 86.5775 75.933C86.5745 76.9487 87.6623 76.9542 87.7701 75.9391C87.8844 74.8623 88.2411 74.1121 88.9567 73.4426C91.6396 70.9332 95.9092 73.6068 94.8571 77.1376C94.6666 77.777 94.6978 77.8877 95.2272 78.4486C97.2989 80.6435 95.7825 84.5296 92.8543 84.5296C92.0583 84.5296 91.6861 85.3284 92.3277 85.66C92.863 85.9367 94.3727 85.5589 95.3342 84.9076L95.7789 84.6064L95.8988 84.8385C96.7163 86.4222 95.9396 88.7296 94.3111 89.5543C93.8015 89.8125 93.795 89.8294 93.7923 90.9173C93.7866 93.1367 92.9048 94.3863 90.6968 95.3039C90.47 95.3982 90.3513 95.5126 90.1691 95.8123C88.4326 98.6693 84.1818 98.4428 82.7414 95.4165C82.3147 94.52 82.3355 95.1012 82.3352 84.0219L82.335 73.9061L82.4942 73.5584C82.7912 72.9101 83.1993 72.6118 83.9973 72.4598C84.5564 72.3534 84.729 72.2055 84.729 71.8331C84.729 71.1554 83.6426 71.0595 82.6251 71.6474L82.3342 71.8154V69.2582C82.3342 66.5648 82.3442 66.4648 82.6592 65.9852C83.0941 65.3233 83.8225 65.0803 84.8659 65.2492ZM92.197 75.0472C92.0848 75.1666 92.0301 75.345 91.982 75.7481C91.617 78.8081 88.384 80.1089 85.9611 78.1705C85.383 77.708 84.9002 77.751 84.7682 78.2767C84.6252 78.8461 86.0091 79.9248 87.172 80.1504C87.7787 80.268 87.853 80.3144 87.9075 80.609C88.1686 82.0219 89.7528 83.2986 91.2447 83.2986C92.2989 83.2986 92.2875 82.2232 91.232 82.113C90.4208 82.0282 89.6665 81.5383 89.2973 80.8564C88.9997 80.3068 89.0049 80.294 89.5815 80.1462C91.3578 79.6914 92.7339 78.2459 93.1046 76.4457C93.2825 75.5817 93.2112 75.048 92.9022 74.9295C92.6584 74.836 92.3466 74.8881 92.197 75.0472ZM71.6041 75.6608C71.2998 75.9845 71.4797 77.2873 71.9646 78.2722C72.5549 79.4714 73.7753 80.4401 75.0983 80.7595C75.6213 80.8857 75.6311 80.9074 75.3854 81.392C75.0148 82.1229 74.3626 82.5686 73.4586 82.709C72.4039 82.8727 72.3153 83.9141 73.3561 83.9141C74.878 83.9141 76.518 82.5984 76.7568 81.1857C76.8055 80.8974 76.8262 80.8829 77.3053 80.8029C78.3946 80.621 79.8711 79.6071 79.8711 79.041C79.8711 78.4161 79.3049 78.2582 78.7409 78.7257C76.2624 80.7806 72.6362 79.2036 72.6197 76.0636C72.617 75.5655 71.9444 75.2987 71.6041 75.6608ZM84.0106 83.9683C83.3139 84.1099 83.4648 85.145 84.1821 85.145C85.9625 85.145 87.6885 86.7695 87.7426 88.496C87.763 89.1475 87.7726 89.1283 87.3029 89.371C85.7072 90.1957 84.3343 92.6854 84.8264 93.8624C85.1229 94.5717 85.8671 94.2568 85.9653 93.3804C86.1739 91.5215 87.4753 90.214 89.3224 90.0075C90.4721 89.8789 90.5642 88.7868 89.4229 88.814L88.99 88.8244L88.9479 88.3268C88.8046 86.6323 87.7536 85.1486 86.1646 84.3975C85.5661 84.1146 84.4172 83.8857 84.0106 83.9683ZM76.8948 85.1843C76.8196 85.201 76.5886 85.2483 76.3817 85.2894C74.5274 85.6569 72.6927 87.7234 72.686 89.452C72.684 89.9579 72.646 90.0005 72.1969 90.0005C71.062 90.0005 71.1694 91.0975 72.3171 91.2283C74.1535 91.4376 75.4198 92.6887 75.6394 94.5106C75.7771 95.6543 76.8631 95.8274 76.8594 94.7051C76.8541 93.0854 75.7912 91.3545 74.3309 90.5875L73.85 90.335L73.8511 89.9797C73.8564 88.1358 75.2663 86.6227 77.2058 86.3797C77.8927 86.2936 78.0549 86.1753 78.0549 85.7606C78.0549 85.288 77.5514 85.038 76.8948 85.1843Z" fill="white"/>
<path opacity="0.9" fill-rule="evenodd" clip-rule="evenodd" d="M92.1969 75.0473C92.0847 75.1667 92.03 75.3451 91.9819 75.7483C91.617 78.8083 88.3839 80.1091 85.9611 78.1707C85.3829 77.7082 84.9001 77.7512 84.7681 78.2769C84.6251 78.8463 86.009 79.925 87.1719 80.1505C87.7787 80.2682 87.8529 80.3146 87.9074 80.6092C88.1686 82.022 89.7527 83.2988 91.2446 83.2988C92.2989 83.2988 92.2875 82.2234 91.232 82.1132C90.4207 82.0283 89.6664 81.5385 89.2973 80.8566C88.9997 80.307 89.0048 80.2942 89.5815 80.1464C91.3577 79.6916 92.7339 78.246 93.1046 76.4459C93.2824 75.5819 93.2112 75.0482 92.9021 74.9297C92.6584 74.8362 92.3465 74.8883 92.1969 75.0473ZM71.604 75.661C71.2998 75.9847 71.4797 77.2875 71.9645 78.2724C72.5549 79.4716 73.7753 80.4403 75.0982 80.7597C75.6213 80.8859 75.6311 80.9075 75.3853 81.3922C75.0148 82.1231 74.3626 82.5688 73.4585 82.7092C72.4038 82.8729 72.3152 83.9143 73.356 83.9143C74.878 83.9143 76.5179 82.5986 76.7567 81.1859C76.8054 80.8976 76.8262 80.8831 77.3052 80.8031C78.3945 80.6212 79.871 79.6073 79.871 79.0412C79.871 78.4163 79.3048 78.2584 78.7408 78.7259C76.2623 80.7808 72.6361 79.2038 72.6196 76.0638C72.617 75.5656 71.9444 75.2989 71.604 75.661ZM84.0105 83.9685C83.3138 84.1101 83.4647 85.1452 84.1821 85.1452C85.9625 85.1452 87.6885 86.7697 87.7425 88.4962C87.7629 89.1477 87.7725 89.1285 87.3028 89.3712C85.7072 90.1959 84.3343 92.6856 84.8263 93.8626C85.1228 94.5719 85.867 94.257 85.9653 93.3806C86.1739 91.5217 87.4752 90.2142 89.3223 90.0077C90.4721 89.8791 90.5641 88.787 89.4229 88.8142L88.99 88.8246L88.9478 88.327C88.8046 86.6325 87.7535 85.1488 86.1645 84.3977C85.566 84.1147 84.4171 83.8858 84.0105 83.9685ZM76.8947 85.1845C76.8195 85.2012 76.5886 85.2485 76.3816 85.2896C74.5273 85.6571 72.6926 87.7236 72.6859 89.4522C72.684 89.9581 72.6459 90.0007 72.1968 90.0007C71.0619 90.0007 71.1693 91.0977 72.317 91.2284C74.1534 91.4378 75.4197 92.6889 75.6393 94.5108C75.7771 95.6545 76.863 95.8276 76.8594 94.7053C76.854 93.0856 75.7912 91.3547 74.3309 90.5877L73.85 90.3352L73.851 89.9798C73.8563 88.136 75.2662 86.6229 77.2057 86.3799C77.8926 86.2938 78.0548 86.1755 78.0548 85.7608C78.0548 85.2882 77.5513 85.0382 76.8947 85.1845Z" fill="white"/>
</svg>
