<svg width="18" height="18" viewBox="0 0 18 18" fill="none" xmlns="http://www.w3.org/2000/svg">
<defs>
<clipPath id="clip0_702_310">
<rect width="18" height="18" fill="white" transform="translate(-0.000244141)"/>
</clipPath>
</defs>
<g clip-path="url(#clip0_702_310)">
<path fill-rule="evenodd" clip-rule="evenodd" d="M8.84155 1.74697C8.07668 1.81542 6.36304 2.19715 6.36304 2.29908C6.36304 2.30484 6.48823 2.43665 6.64127 2.59194C7.47593 3.43902 7.49123 4.80131 6.66494 4.69803C6.36758 4.66086 6.22255 4.46867 6.18556 4.06272C6.11023 3.23634 5.25383 2.71016 4.37615 2.95095C2.77541 3.39011 1.33567 4.79294 1.33567 5.91357C1.33572 6.99879 2.43525 8.11241 3.51539 8.12123C4.03959 8.1255 4.33794 8.63418 4.0391 9.01412C3.87462 9.22319 3.5522 9.27003 3.03506 9.16001C1.97688 8.93487 1.09596 8.25663 0.578818 7.26893L0.390177 6.90861L0.299142 7.1144C-0.236943 8.32656 -0.0523982 9.6879 0.800848 10.8155C0.934633 10.9924 1.11747 11.2474 1.20715 11.3822C2.06373 12.6708 3.96444 12.8837 5.02118 11.8096C5.47325 11.35 5.80184 10.2418 5.66058 9.65298C5.47991 8.89986 6.46375 8.60385 6.71048 9.33713C7.01378 10.2386 6.52544 11.8482 5.68578 12.7143L5.40786 13.001L5.6244 13.1481C6.26048 13.58 7.2593 13.7394 8.20786 13.5602L8.48825 13.5073L8.66704 13.6706C8.97803 13.9546 9.47587 14.1475 10.0014 14.1879C10.4904 14.2253 10.3887 14.148 11.3377 15.2032C12.3831 16.3656 12.2328 16.2773 13.1634 16.2773C14.2631 16.2773 14.4479 16.1331 14.2902 15.3988C14.1858 14.9128 14.1692 14.948 14.5545 14.8381C16.9521 14.1542 18.3493 12.0402 17.4218 10.4999L17.3008 10.299L17.4893 10.0173C18.3213 8.7744 18.1492 7.30263 17.0249 6.04398C16.894 5.89742 16.6473 5.60838 16.4767 5.40161C15.9452 4.75752 15.409 4.22279 15.3787 4.30653C14.8767 5.6933 13.6543 6.62615 13.1069 6.0402C12.8332 5.74721 12.9765 5.228 13.3531 5.14785C13.9505 5.02068 14.5181 3.98577 14.2772 3.46278C14.0465 2.96202 13.1049 2.51805 12.6479 2.69459C11.5103 3.13406 10.8608 4.18989 10.8453 5.6249C10.8381 6.29229 10.7398 6.47985 10.3716 6.52926C9.91597 6.59037 9.71055 6.22227 9.7492 5.41398C9.80842 4.17482 10.2834 3.09459 11.118 2.30106C11.3359 2.09392 11.4495 1.9627 11.4201 1.95231C10.9627 1.7913 9.57824 1.681 8.84155 1.74697ZM8.18126 5.05533C8.5499 5.31786 8.54347 5.91686 8.16403 6.65148C8.14468 6.68892 8.43817 6.99465 8.54797 7.05144C8.66213 7.11048 8.82598 7.11516 9.008 7.06463C9.40549 6.9542 9.80541 7.38575 9.65007 7.75749C9.3698 8.42831 8.27878 8.35959 7.5545 7.62551L7.28702 7.35438L7.13263 7.42427C6.25436 7.82193 5.18444 7.64675 4.78214 7.03938C4.38857 6.4452 5.09349 5.90286 5.63268 6.38495C5.93711 6.65715 6.62714 6.56297 7.10581 6.18384C7.30813 6.02364 7.34867 5.92199 7.3385 5.60051C7.32176 5.06924 7.78234 4.77129 8.18126 5.05533ZM11.8744 6.78959C12.7149 7.19648 13.1096 8.42412 12.7593 9.54147C12.6653 9.84104 12.6682 9.85125 12.8848 10.0004C13.8609 10.6727 14.3806 12.0658 13.8342 12.5455C13.4288 12.9016 12.9377 12.6023 12.9369 11.9987C12.9362 11.4083 12.4339 10.8555 11.6018 10.5294C10.7758 10.2057 10.1659 10.2914 9.80347 10.7819C9.35221 11.3928 8.51305 10.9031 8.8694 10.2369C9.2771 9.4746 10.2684 9.09732 11.3009 9.31139C11.4934 9.3513 11.6566 9.37826 11.6635 9.37133C11.7139 9.32093 11.7761 8.92808 11.7751 8.66591C11.7734 8.18787 11.663 7.9482 11.3482 7.73994C10.7205 7.32455 11.198 6.46212 11.8744 6.78959ZM15.5768 7.81419C15.9314 8.05319 15.9444 8.47362 15.6051 8.72697C15.5494 8.76855 15.3059 8.83245 14.9369 8.90238L14.3563 9.01236L14.193 8.9333C13.8106 8.74821 13.7632 8.2592 14.1031 8.00589C14.348 7.82337 15.3893 7.68792 15.5768 7.81419Z" fill="#FF941A"/>
</g>
</svg>
