<svg width="87" height="87" viewBox="0 0 87 87" fill="none" xmlns="http://www.w3.org/2000/svg">
<rect width="87" height="87" rx="10" fill="#F2F4F7"/>
<path fill-rule="evenodd" clip-rule="evenodd" d="M22.8771 15.6706C22.8601 15.7151 22.8538 22.8521 22.863 31.5304L22.8796 47.3092L26.1763 47.3261C29.408 47.3424 29.4751 47.3403 29.5859 47.2127C29.6479 47.1411 29.7443 47.0824 29.7999 47.0824C29.8556 47.0824 29.9397 47.046 29.9867 47.0014C30.0338 46.9569 30.1482 46.8814 30.2407 46.8337C30.3333 46.7861 30.491 46.6768 30.5911 46.5907C30.691 46.5047 30.7931 46.4344 30.8177 46.4344C30.8424 46.4344 30.929 46.3767 31.0103 46.3061C31.0917 46.2356 31.1783 46.1903 31.203 46.2055C31.2274 46.2207 31.2885 46.1763 31.3384 46.107C31.3885 46.0375 31.4667 45.9808 31.5122 45.9808C31.5579 45.9808 31.5952 45.9516 31.5952 45.916C31.5952 45.8804 31.6389 45.8512 31.6924 45.8512C31.7458 45.8512 31.7896 45.822 31.7896 45.7864C31.7896 45.7508 31.8414 45.7216 31.9049 45.7216C31.9682 45.7216 32.0622 45.6633 32.1136 45.592C32.1649 45.5207 32.2524 45.4624 32.308 45.4624C32.3635 45.4624 32.451 45.4041 32.5024 45.3328C32.5537 45.2615 32.637 45.2032 32.6872 45.2032C32.7376 45.2032 32.8259 45.152 32.8835 45.0893C32.9412 45.0268 33.0686 44.9343 33.1666 44.8841C33.2646 44.8337 33.3448 44.7682 33.3448 44.7386C33.3448 44.7091 33.382 44.6848 33.4277 44.6848C33.4732 44.6848 33.5526 44.6265 33.604 44.5552C33.6553 44.4839 33.7472 44.4256 33.8081 44.4256C33.8688 44.4256 33.9584 44.3892 34.0069 44.3446C34.0553 44.3001 34.1595 44.2272 34.2382 44.1826C34.3171 44.1381 34.4457 44.0652 34.5241 44.0206C34.6024 43.9761 34.7245 43.8886 34.7955 43.8262C34.8664 43.7638 34.9562 43.7128 34.9951 43.7128C35.0339 43.7128 35.1078 43.6545 35.1592 43.5832C35.2105 43.5119 35.298 43.4536 35.3536 43.4536C35.4091 43.4536 35.4966 43.3953 35.548 43.324C35.5993 43.2527 35.6949 43.1944 35.7605 43.1944C35.826 43.1944 35.8616 43.1652 35.8396 43.1296C35.8046 43.0729 35.836 43.0582 35.9714 43.0671C35.9905 43.0684 36.0497 43.0259 36.103 42.9726C36.2 42.8758 36.3904 42.8984 36.3904 43.007C36.3904 43.0387 36.4341 43.0648 36.4876 43.0648C36.541 43.0648 36.5848 43.094 36.5848 43.1296C36.5848 43.1652 36.6212 43.1944 36.6658 43.1944C36.7103 43.1946 36.8305 43.2667 36.9329 43.3546C37.0353 43.4428 37.1738 43.532 37.2407 43.5534C37.3076 43.5746 37.3624 43.6156 37.3624 43.6444C37.3624 43.6734 37.4498 43.7334 37.5568 43.7776C37.6637 43.8218 37.7512 43.8855 37.7512 43.9189C37.7512 43.9522 37.7803 43.9616 37.816 43.9396C37.8516 43.9176 37.8808 43.927 37.8808 43.9603C37.8808 43.9937 37.9682 44.0574 38.0752 44.1016C38.1821 44.1458 38.2696 44.2095 38.2696 44.2429C38.2696 44.2762 38.2987 44.2856 38.3344 44.2636C38.37 44.2416 38.3992 44.2539 38.3992 44.291C38.3992 44.3281 38.4781 44.3781 38.5744 44.4023C38.6708 44.4266 38.8131 44.5073 38.8903 44.5818C39.1534 44.8353 39.3077 44.944 39.4044 44.944C39.4573 44.944 39.5008 44.9732 39.5008 45.0088C39.5008 45.0444 39.5494 45.0736 39.6088 45.0736C39.6681 45.0736 39.6978 45.0926 39.6746 45.1159C39.6513 45.1391 39.6974 45.1922 39.7771 45.234C40.0634 45.384 40.2416 45.4968 40.3683 45.6082C40.4392 45.6706 40.5355 45.7216 40.5821 45.7216C40.6289 45.7216 40.6672 45.7459 40.6672 45.7754C40.6672 45.805 40.7474 45.8706 40.8454 45.9212C40.9434 45.9719 41.0801 46.0642 41.1491 46.1266C41.2183 46.189 41.3024 46.24 41.3361 46.24C41.3696 46.24 41.4495 46.3003 41.5133 46.3738C41.5771 46.4475 41.6534 46.5102 41.6829 46.5133C41.7487 46.5201 42.2232 46.8255 42.3405 46.9364C42.3874 46.9812 42.4509 47.0176 42.4816 47.0176C42.5122 47.0176 42.5763 47.0568 42.6243 47.1049C42.769 47.2494 43.1662 47.2958 43.2805 47.1814C43.335 47.127 43.4218 47.0824 43.4733 47.0824C43.525 47.0824 43.6016 47.0411 43.6436 46.9906C43.6855 46.9398 43.9297 46.774 44.186 46.6217C44.4422 46.4694 44.7087 46.292 44.7779 46.2275C44.8469 46.1631 44.9284 46.1104 44.9589 46.1104C44.9893 46.1104 45.0726 46.056 45.1439 45.9896C45.2153 45.923 45.4036 45.8018 45.5625 45.7201C45.7212 45.6385 45.8512 45.5471 45.8512 45.517C45.8512 45.487 45.8894 45.4624 45.9362 45.4624C45.9829 45.4624 46.0838 45.4041 46.1603 45.3328C46.2367 45.2615 46.3252 45.2032 46.3568 45.2032C46.3884 45.2032 46.4671 45.1449 46.5316 45.0736C46.596 45.0023 46.6881 44.944 46.736 44.944C46.784 44.944 46.8232 44.9148 46.8232 44.8792C46.8232 44.8436 46.8669 44.8144 46.9204 44.8144C46.9738 44.8144 47.0176 44.7852 47.0176 44.7496C47.0176 44.714 47.0548 44.6848 47.1005 44.6848C47.146 44.6848 47.2254 44.6265 47.2768 44.5552C47.3281 44.4839 47.4209 44.4256 47.483 44.4256C47.545 44.4256 47.6479 44.3709 47.7116 44.3041C47.7754 44.2372 47.8932 44.1624 47.9734 44.1377C48.0536 44.1131 48.1192 44.0656 48.1192 44.0324C48.1192 43.9992 48.1556 43.972 48.2002 43.972C48.2447 43.9718 48.3659 43.8989 48.4694 43.81C48.5729 43.7209 48.6777 43.648 48.7024 43.648C48.727 43.648 48.8318 43.5751 48.9353 43.486C49.0388 43.3971 49.16 43.3242 49.2046 43.324C49.2491 43.324 49.2856 43.2948 49.2856 43.2592C49.2856 43.2236 49.3238 43.1944 49.3706 43.1944C49.4173 43.1944 49.5182 43.1361 49.5947 43.0648C49.6711 42.9935 49.7641 42.9352 49.8012 42.9352C49.8383 42.9352 49.8688 42.8996 49.8688 42.856C49.8688 42.8124 49.9141 42.8416 49.9697 42.9208C50.0251 43 50.1126 43.0648 50.1641 43.0648C50.2154 43.0648 50.2576 43.094 50.2576 43.1296C50.2576 43.1652 50.2951 43.1944 50.341 43.1944C50.3868 43.1944 50.5253 43.2808 50.6488 43.3862C50.7722 43.4917 50.9096 43.5792 50.9542 43.5806C50.9987 43.5821 51.0352 43.6078 51.0352 43.6378C51.0352 43.6679 51.1664 43.7599 51.3268 43.8424C51.4871 43.9249 51.6184 44.0169 51.6184 44.047C51.6184 44.077 51.6621 44.1016 51.7156 44.1016C51.769 44.1016 51.8128 44.1235 51.8129 44.1502C51.8129 44.1769 51.9696 44.2806 52.1609 44.3806C52.3522 44.4805 52.5696 44.619 52.644 44.6884C52.7185 44.7577 52.8097 44.8144 52.8468 44.8144C52.8839 44.8144 52.9144 44.8387 52.9144 44.8682C52.9144 44.8978 52.9946 44.9634 53.0926 45.014C53.1906 45.0647 53.3273 45.157 53.3963 45.2194C53.4655 45.2818 53.5603 45.3328 53.6069 45.3328C53.6537 45.3328 53.692 45.3571 53.692 45.3866C53.692 45.4162 53.7722 45.4818 53.8702 45.5324C53.9682 45.5831 54.1049 45.6754 54.1739 45.7378C54.2431 45.8002 54.3379 45.8512 54.3845 45.8512C54.4313 45.8512 54.4696 45.8804 54.4696 45.916C54.4696 45.9516 54.5078 45.9808 54.5546 45.9808C54.6013 45.9808 54.7022 46.0391 54.7787 46.1104C54.8551 46.1817 54.9356 46.24 54.9577 46.24C54.9795 46.24 55.2214 46.3947 55.495 46.5838C55.7685 46.773 56.1236 46.999 56.284 47.086C56.4443 47.1731 56.5921 47.2666 56.6122 47.2937C56.6323 47.3207 58.1194 47.3353 59.917 47.3261L63.1852 47.3092V38.8998V30.4904L55.7482 30.4928L48.3115 30.4952L48.3286 23.0424L48.346 15.5896H35.6269C25.5113 15.5896 22.9016 15.6061 22.8771 15.6706ZM52.8773 20.1737C52.9816 20.2891 53.0812 20.3692 53.0987 20.3518C53.1161 20.3343 53.1182 20.3127 53.1034 20.3038C53.0885 20.2949 52.9889 20.2149 52.882 20.1258L52.6876 19.9641L52.8773 20.1737ZM36.0016 51.222C36.0016 51.2536 35.9505 51.2955 35.8882 51.3153C35.7409 51.362 35.426 51.5556 35.2632 51.6994C35.1925 51.7618 35.0965 51.8128 35.0498 51.8128C35.003 51.8128 34.9648 51.842 34.9648 51.8776C34.9648 51.9132 34.9265 51.9424 34.8797 51.9424C34.8331 51.9424 34.7321 52.0007 34.6557 52.072C34.5792 52.1433 34.4862 52.2016 34.4491 52.2016C34.412 52.2016 34.3816 52.2308 34.3816 52.2664C34.3816 52.3021 34.3232 52.3312 34.252 52.3312C34.1807 52.3312 34.1224 52.3604 34.1224 52.396C34.1224 52.4316 34.0919 52.4608 34.0548 52.4608C34.0177 52.4608 33.9259 52.5182 33.8507 52.5881C33.7755 52.6583 33.6892 52.7002 33.6589 52.6816C33.6288 52.6628 33.604 52.6784 33.604 52.7161C33.604 52.7539 33.5638 52.7848 33.5147 52.7848C33.4656 52.7848 33.3887 52.829 33.3438 52.8831C33.2989 52.9372 33.1641 53.0281 33.0443 53.085C32.9244 53.1419 32.8264 53.2159 32.8264 53.2496C32.8264 53.2833 32.8004 53.2949 32.7689 53.2753C32.7373 53.2557 32.6754 53.2833 32.6313 53.3363C32.5873 53.3894 32.5184 53.4328 32.4782 53.4328C32.4381 53.433 32.3212 53.5052 32.2185 53.5935C32.1158 53.6818 32.0019 53.7356 31.9655 53.7131C31.9274 53.6894 31.9188 53.7038 31.9454 53.7468C31.9728 53.7912 31.9504 53.8216 31.8907 53.8216C31.8351 53.8216 31.7896 53.8508 31.7896 53.8864C31.7896 53.9221 31.7504 53.9512 31.7024 53.9512C31.6545 53.9512 31.5624 54.0095 31.498 54.0808C31.4335 54.1521 31.3269 54.2104 31.2611 54.2104C31.1953 54.2104 31.1416 54.2396 31.1416 54.2752C31.1416 54.3109 31.1043 54.34 31.0586 54.34C31.0131 54.34 30.9337 54.3983 30.8824 54.4696C30.831 54.5409 30.7371 54.5992 30.6737 54.5992C30.6102 54.5992 30.5584 54.6284 30.5584 54.664C30.5584 54.6996 30.5219 54.7291 30.4774 54.7296C30.4328 54.7301 30.3235 54.7892 30.2344 54.8608C30.1453 54.9326 29.9019 55.092 29.6938 55.2153L29.3152 55.4393L26.0808 55.4427L22.8467 55.4461L22.863 62.9121L22.8796 70.378H43.0324H63.1852V62.926V55.474L60.01 55.4573C56.7534 55.4402 56.53 55.4231 56.38 55.1806C56.3586 55.146 56.2909 55.1176 56.2297 55.1176C56.1683 55.1176 56.0761 55.0593 56.0248 54.988C55.9734 54.9167 55.8794 54.8584 55.8161 54.8584C55.7526 54.8584 55.7008 54.8341 55.7008 54.8046C55.7008 54.775 55.6206 54.7094 55.5226 54.6588C55.4245 54.6081 55.2878 54.5158 55.2188 54.4534C55.1498 54.391 55.0113 54.3037 54.911 54.2595C54.8107 54.2151 54.7288 54.1602 54.7288 54.1377C54.7288 54.115 54.6413 54.0602 54.5344 54.016C54.4274 53.9718 54.34 53.9099 54.34 53.8785C54.34 53.8472 54.2962 53.8216 54.2428 53.8216C54.1893 53.8216 54.1456 53.7996 54.1456 53.7727C54.1456 53.7456 54.0508 53.6823 53.935 53.6317C53.8191 53.5812 53.6806 53.4939 53.6272 53.4377C53.5737 53.3816 53.4916 53.3277 53.4447 53.318C53.3979 53.3084 53.2977 53.2428 53.222 53.1721C53.1462 53.1017 53.0461 53.044 52.9994 53.044C52.9526 53.044 52.9144 53.0149 52.9144 52.9792C52.9144 52.9436 52.8831 52.9144 52.845 52.9144C52.807 52.9144 52.6503 52.8281 52.4969 52.7226C52.3435 52.617 52.1998 52.5489 52.1774 52.5713C52.1551 52.5937 52.1368 52.5779 52.1368 52.5365C52.1368 52.4948 52.093 52.4608 52.0396 52.4608C51.9861 52.4608 51.9424 52.4352 51.9424 52.4039C51.9424 52.3725 51.8549 52.3106 51.748 52.2664C51.641 52.2222 51.5536 52.1603 51.5536 52.1289C51.5536 52.0976 51.5098 52.072 51.4564 52.072C51.4029 52.072 51.3592 52.05 51.3592 52.0231C51.3592 51.996 51.2644 51.9327 51.1486 51.8821C51.0327 51.8316 50.8908 51.737 50.8331 51.6719C50.7755 51.6069 50.6807 51.5536 50.6225 51.5536C50.5644 51.5536 50.5168 51.5244 50.5168 51.4888C50.5168 51.4532 50.473 51.424 50.4196 51.424C50.3661 51.424 50.3222 51.4021 50.3219 51.3754C50.3212 51.3103 50.0013 51.1648 49.8589 51.1648C49.7092 51.1648 49.4152 51.3006 49.4152 51.3696C49.4152 51.3995 49.3696 51.424 49.3141 51.424C49.2585 51.424 49.2311 51.4532 49.2532 51.4888C49.2752 51.5244 49.2332 51.5536 49.1599 51.5536C49.0865 51.5536 49.0264 51.5828 49.0264 51.6184C49.0264 51.654 48.9745 51.6832 48.911 51.6832C48.8477 51.6832 48.7537 51.7415 48.7024 51.8128C48.651 51.8841 48.5571 51.9424 48.4937 51.9424C48.4302 51.9424 48.3784 51.9716 48.3784 52.0072C48.3784 52.0429 48.3346 52.072 48.2812 52.072C48.2277 52.072 48.184 52.1012 48.184 52.1368C48.184 52.1724 48.1402 52.2016 48.0868 52.2016C48.0333 52.2016 47.9896 52.2259 47.9896 52.2556C47.9896 52.2854 47.8292 52.3936 47.6332 52.4961C47.4371 52.5987 47.2768 52.702 47.2768 52.7258C47.2768 52.7497 47.1893 52.8054 47.0824 52.8496C46.9754 52.8938 46.888 52.9575 46.888 52.9909C46.888 53.0242 46.8625 53.0359 46.8316 53.0168C46.8005 52.9975 46.7085 53.0396 46.6271 53.1101C46.5458 53.1807 46.4567 53.2384 46.429 53.2384C46.4015 53.2384 46.3394 53.2749 46.2912 53.3194C46.1709 53.4305 45.8429 53.6275 45.7054 53.6711C45.643 53.6909 45.592 53.7328 45.592 53.7644C45.592 53.7958 45.5615 53.8216 45.5244 53.8216C45.4873 53.8216 45.3943 53.8799 45.3179 53.9512C45.2414 54.0225 45.1405 54.0808 45.0938 54.0808C45.047 54.0808 45.0088 54.1062 45.0088 54.1373C45.0088 54.1684 44.8633 54.266 44.6854 54.3539C44.5075 54.4419 44.3812 54.5331 44.4045 54.5566C44.428 54.5801 44.3985 54.5992 44.3392 54.5992C44.2798 54.5992 44.2312 54.6284 44.2312 54.664C44.2312 54.6996 44.1835 54.7288 44.1254 54.7288C44.0672 54.7288 43.9725 54.7802 43.9148 54.843C43.7811 54.9887 43.1775 55.312 43.0393 55.312C42.9075 55.312 42.2872 54.9809 42.2872 54.9104C42.2872 54.8819 42.2353 54.8584 42.1718 54.8584C42.1085 54.8584 42.0145 54.8001 41.9632 54.7288C41.9118 54.6575 41.8243 54.5992 41.7688 54.5992C41.7132 54.5992 41.6257 54.5409 41.5744 54.4696C41.523 54.3983 41.4436 54.34 41.3981 54.34C41.3524 54.34 41.3152 54.3109 41.3152 54.2752C41.3152 54.2396 41.2769 54.2104 41.2301 54.2104C41.1835 54.2104 41.0825 54.1521 41.0061 54.0808C40.9296 54.0095 40.822 53.9512 40.7671 53.9512C40.7122 53.9512 40.6672 53.9221 40.6672 53.8864C40.6672 53.8508 40.6216 53.8216 40.5661 53.8216C40.5105 53.8216 40.4831 53.7924 40.5052 53.7568C40.5272 53.7212 40.4896 53.692 40.4219 53.692C40.354 53.692 40.2456 53.6337 40.1812 53.5624C40.1167 53.4911 40.0247 53.4328 39.9767 53.4328C39.9288 53.4328 39.8896 53.4036 39.8896 53.368C39.8896 53.3324 39.8513 53.3032 39.8045 53.3032C39.7579 53.3032 39.6569 53.2449 39.5805 53.1736C39.504 53.1023 39.4019 53.044 39.3537 53.044C39.3054 53.044 39.2072 52.9893 39.1353 52.9222C38.9347 52.7354 38.4782 52.4608 38.3681 52.4608C38.314 52.4608 38.2696 52.4316 38.2696 52.396C38.2696 52.3604 38.224 52.3312 38.1685 52.3312C38.1129 52.3312 38.0855 52.3021 38.1076 52.2664C38.1296 52.2308 38.094 52.2016 38.0285 52.2016C37.9629 52.2016 37.8673 52.1433 37.816 52.072C37.7646 52.0007 37.6707 51.9424 37.6073 51.9424C37.5438 51.9424 37.492 51.9132 37.492 51.8776C37.492 51.842 37.4482 51.8128 37.3948 51.8128C37.3413 51.8128 37.2976 51.7836 37.2976 51.748C37.2976 51.7124 37.2538 51.6832 37.2004 51.6832C37.1469 51.6832 37.1032 51.654 37.1032 51.6184C37.1032 51.5828 37.0448 51.5536 36.9736 51.5536C36.9023 51.5536 36.844 51.528 36.844 51.4967C36.844 51.4653 36.7565 51.4034 36.6496 51.3592C36.5426 51.315 36.4552 51.2531 36.4552 51.2217C36.4552 51.1904 36.3531 51.1648 36.2284 51.1648C36.1036 51.1648 36.0016 51.1906 36.0016 51.222Z" fill="#C9D4DE"/>
<path fill-rule="evenodd" clip-rule="evenodd" d="M48.3533 15.739C48.3324 15.8172 48.3147 19.1693 48.3142 23.1882L48.3134 30.4952L55.7654 30.4928C60.7814 30.4912 63.2174 30.4688 63.2174 30.4244C63.2174 30.3361 62.5195 29.6578 62.4748 29.7025C62.4555 29.7218 62.4398 29.7025 62.4398 29.6598C62.4398 29.5626 62.0157 29.1328 61.9198 29.1328C61.8807 29.1328 61.8611 29.1109 61.876 29.0842C61.9118 29.02 61.4918 28.612 61.4417 28.662C61.4205 28.6834 61.403 28.6572 61.403 28.6037C61.403 28.5504 61.3311 28.4683 61.2433 28.4211C61.1553 28.3741 61.0975 28.3131 61.1145 28.2854C61.1317 28.2577 61.089 28.217 61.0197 28.195C60.9504 28.1729 60.7386 27.9764 60.5489 27.7582C59.9382 27.0553 58.8667 26.0203 58.7955 26.0643C58.7574 26.088 58.7447 26.0773 58.7673 26.0407C58.8042 25.9809 58.4622 25.5558 58.411 25.5978C58.3994 25.6073 58.21 25.4298 57.9903 25.2032C57.7706 24.9765 57.6009 24.7912 57.613 24.7912C57.6707 24.7912 56.293 23.4479 56.1981 23.4113C56.1383 23.3884 56.0894 23.3249 56.0894 23.2705C56.0894 23.2159 56.0476 23.1712 55.9966 23.1712C55.9455 23.1712 55.8853 23.1129 55.8626 23.0416C55.8247 22.9222 55.7515 22.8822 55.6147 22.906C55.5854 22.911 55.5799 22.8851 55.6028 22.8483C55.6254 22.8114 55.5767 22.7542 55.4942 22.7212C55.4118 22.6881 55.3692 22.6591 55.3996 22.6568C55.4302 22.6546 55.3656 22.5692 55.2561 22.467C55.1467 22.3648 55.0756 22.2627 55.0981 22.2402C55.1206 22.2177 55.0855 22.1992 55.0202 22.1992C54.9549 22.1992 54.9199 22.1807 54.9426 22.158C54.9651 22.1354 54.8785 22.0333 54.75 21.9312C54.6215 21.8292 54.5355 21.7456 54.5588 21.7456C54.5823 21.7456 54.4119 21.556 54.1802 21.3244C53.9486 21.0927 53.7276 20.9032 53.6892 20.9032C53.6508 20.9032 53.6315 20.8813 53.6464 20.8546C53.6613 20.8279 53.5463 20.6848 53.391 20.5366C53.2358 20.3885 53.1086 20.2993 53.1086 20.3381C53.1086 20.3772 53.0221 20.3261 52.9165 20.2251C52.8108 20.1238 52.7397 20.0162 52.7584 19.9861C52.777 19.9558 52.7475 19.9312 52.6929 19.9312C52.6383 19.9312 52.5497 19.851 52.4959 19.753C52.3715 19.5255 52.1641 19.2832 52.0938 19.283C52.0639 19.2829 51.9811 19.1955 51.9098 19.0888C51.8385 18.982 51.7562 18.8947 51.7269 18.8945C51.6493 18.8942 51.4888 18.7214 51.5289 18.6812C51.5477 18.6624 51.5074 18.6294 51.439 18.6076C51.3708 18.5859 51.2762 18.4959 51.2288 18.4073C51.1815 18.3188 51.1022 18.2464 51.0527 18.2464C51.0031 18.2464 50.9806 18.2172 51.0026 18.1816C51.0394 18.1221 50.9508 18.088 50.8195 18.1108C50.7902 18.1158 50.7847 18.0901 50.8072 18.0536C50.8298 18.017 50.8029 17.9872 50.7473 17.9872C50.6917 17.9872 50.6496 17.9653 50.6538 17.9386C50.6804 17.7709 50.6435 17.6967 50.5814 17.7928C50.5416 17.8545 50.5182 17.8612 50.5176 17.8109C50.5171 17.7674 50.3344 17.5446 50.1116 17.3155C49.8889 17.0866 49.512 16.6928 49.2741 16.4404C49.0186 16.1695 48.8284 16.014 48.8094 16.061C48.7916 16.1046 48.7749 16.0748 48.7722 15.9946C48.7685 15.8885 48.7273 15.8485 48.6212 15.8478C48.5282 15.8472 48.5038 15.8287 48.5538 15.7969C48.6108 15.7608 48.5993 15.7266 48.5119 15.6719C48.41 15.6084 48.3855 15.6187 48.3533 15.739ZM22.8141 31.498C22.8141 40.1229 22.8216 43.6608 22.8308 39.3602C22.84 35.0596 22.84 28.0028 22.8308 23.6786C22.8216 19.3543 22.8141 22.8731 22.8141 31.498ZM22.8135 62.926C22.8135 66.9177 22.8213 68.5411 22.8308 66.5336C22.8404 64.5261 22.8404 61.2601 22.8308 59.276C22.8213 57.2918 22.8135 58.9343 22.8135 62.926Z" fill="#96ABBF"/>
</svg>
