<svg width="40" height="40" viewBox="0 0 40 40" fill="none" xmlns="http://www.w3.org/2000/svg">
<path d="M20.0001 25.3333C22.9456 25.3333 25.3334 22.9455 25.3334 20C25.3334 17.0545 22.9456 14.6667 20.0001 14.6667C17.0546 14.6667 14.6667 17.0545 14.6667 20C14.6667 22.9455 17.0546 25.3333 20.0001 25.3333Z" fill="#0C9FDA"/>
<path d="M14.9999 3.33334L11.9499 6.66668H6.66659C4.83325 6.66668 3.33325 8.16668 3.33325 10V30C3.33325 31.8333 4.83325 33.3333 6.66659 33.3333H33.3333C35.1666 33.3333 36.6666 31.8333 36.6666 30V10C36.6666 8.16668 35.1666 6.66668 33.3333 6.66668H28.0499L24.9999 3.33334H14.9999ZM19.9999 28.3333C15.3999 28.3333 11.6666 24.6 11.6666 20C11.6666 15.4 15.3999 11.6667 19.9999 11.6667C24.5999 11.6667 28.3333 15.4 28.3333 20C28.3333 24.6 24.5999 28.3333 19.9999 28.3333Z" fill="#0C9FDA"/>
</svg>
