<svg width="342" height="133" viewBox="0 0 342 133" fill="none" xmlns="http://www.w3.org/2000/svg">
<path d="M230.779 107.675C229.652 107.648 228.93 97.3161 230.046 97.1378C244.475 94.8185 269.506 91.5977 273.82 90.8545L274.288 106.867C264.551 107.067 245.656 108.028 230.779 107.675Z" fill="#CC4EEA"/>
<path d="M266.862 116.082C268.041 116.365 270.226 107.849 269.062 107.495C251.654 102.204 230.064 93.2781 225.761 91.3589L222.693 103.822C232.784 106.688 251.275 112.357 266.862 116.082Z" fill="#FFC19F"/>
<path d="M148.068 99.3597C146.942 99.3924 146.996 90.4901 148.122 90.3905C164.946 88.9098 185.889 85.8916 190.168 84.981L190.534 96.637C180.818 97.3166 162.936 98.9345 148.068 99.3597Z" fill="#FFC19F"/>
<path d="M174.162 86.6206C174.028 90.7763 174.716 99.0601 174.85 103.369C183.829 103.654 191.121 102.137 191.684 101.791C197.551 98.1913 196.688 84.5867 196.866 83.7012C192.426 84.2645 181.817 85.6196 174.162 86.6206Z" fill="#F95006"/>
<path d="M249.546 99.4818C246.531 103.686 240.237 111.498 238.073 112.529C235.275 110.634 224.652 103.719 223.554 102.822C220.855 95.1236 221.577 84.2794 221.581 83.8735C226.317 84.4485 230.14 85.4538 231.646 86.2681C235.608 89.4086 244.75 95.3931 249.546 99.4818Z" fill="#F95006"/>
<path d="M186.957 121.78C212.199 121.482 204.709 121.482 230.91 121.482C230.91 121.482 230.304 94.524 228.405 85.0777C218.149 82.2528 198.494 83.1769 189.103 84.7713C187.741 96.8241 188.551 103.98 186.957 121.78Z" fill="#F95006"/>
<path d="M204.867 119.383C204.185 119.383 203.583 118.77 203.713 118.014L204.444 113.748C204.508 113.368 204.383 112.981 204.106 112.711L201 109.692C200.305 109.015 200.687 107.837 201.649 107.696L205.94 107.073C206.322 107.017 206.651 106.778 206.822 106.432L208.74 102.55C208.954 102.115 209.372 101.897 209.79 101.897C210.209 101.897 210.626 102.115 210.841 102.549L212.762 106.43C212.933 106.775 213.262 107.015 213.644 107.069L217.936 107.689C218.897 107.829 219.281 109.008 218.585 109.685L215.482 112.707C215.206 112.976 215.08 113.363 215.146 113.743L215.88 118.008C216.011 118.765 215.408 119.379 214.725 119.379C214.545 119.379 214.359 119.336 214.181 119.243L210.341 117.23C210.172 117.141 209.984 117.096 209.797 117.096C209.609 117.096 209.421 117.141 209.251 117.23L205.414 119.246C205.234 119.34 205.048 119.383 204.867 119.383Z" fill="#FB7C44"/>
<path d="M220.664 85.4947C220.692 84.8845 220.59 84.2978 220.442 83.7186C214.167 83.2951 204.739 83.1595 198.017 83.6952C197.965 83.9571 197.853 84.2041 197.841 84.4769C197.629 89.1959 202.567 93.2486 208.871 93.5299C215.173 93.8111 220.453 90.2145 220.664 85.4947Z" fill="#A02E07"/>
<path d="M217.791 72.4093L217.401 86.2742C217.316 89.2564 213.453 91.5673 208.769 91.4359C204.086 91.3045 200.358 88.7801 200.443 85.7987L200.833 71.9331L217.791 72.4093Z" fill="#FFC19F"/>
<path d="M217.491 83.0205L217.699 75.6223C218.613 75.6675 219.486 75.7177 220.305 75.7729C220.452 76.3513 220.555 76.9397 220.528 77.5499C220.432 79.6892 219.294 81.5984 217.491 83.0205ZM200.533 82.5175C198.685 80.9037 197.603 78.7945 197.704 76.5321C197.716 76.2584 197.828 76.0123 197.879 75.7487C198.785 75.6775 199.74 75.6173 200.729 75.5679L200.533 82.5175Z" fill="#E1D4D0"/>
<path d="M209.424 85.5998C209.195 85.5998 208.965 85.5939 208.733 85.5839C205.453 85.4374 202.542 84.2689 200.533 82.5163L200.73 75.5667C203.112 75.4495 205.694 75.3984 208.28 75.3984C211.552 75.3984 214.828 75.4821 217.7 75.6211L217.492 83.0193C215.464 84.6171 212.596 85.5998 209.424 85.5998Z" fill="#E1A182"/>
<path d="M252.209 58.6117C250.019 66.6167 242.138 71.5659 236.267 70.7104C230.395 69.855 229.345 63.2528 230.472 55.529C231.603 47.8052 237.28 42.2168 243.149 43.0911C251.17 44.2875 254.265 51.0879 252.209 58.6117Z" fill="#FFC19F"/>
<path d="M245.114 60.2656C244.618 63.6521 241.791 66.0443 238.798 65.609C235.807 65.1729 233.782 62.0735 234.278 58.687C234.773 55.3006 237.601 52.9084 240.591 53.3436C243.585 53.7789 245.608 56.8783 245.114 60.2656Z" fill="#E0956C"/>
<path d="M165.006 58.0583C167.091 66.0901 174.911 71.1389 180.791 70.3588C186.674 69.5779 187.808 62.989 186.778 55.2518C185.748 47.5138 180.141 41.8539 174.261 42.654C166.225 43.7483 163.046 50.5094 165.006 58.0583Z" fill="#FFC19F"/>
<path d="M172.51 59.8057C172.962 63.1989 175.758 65.6262 178.755 65.2295C181.753 64.8311 183.816 61.7576 183.365 58.3653C182.912 54.9729 180.116 52.5456 177.12 52.9424C174.121 53.3399 172.057 56.4134 172.51 59.8057Z" fill="#E0956C"/>
<path d="M169.433 28.1905C166.186 56.3114 186.032 75.092 209.092 75.2384C232.154 75.3841 251.277 55.0049 249.115 27.5867C247.915 12.3633 232.457 0.324208 210.424 0.330569C198.912 0.333582 191.023 1.75288 183.895 5.73932C182.252 6.65918 170.206 8.16745 170.565 2.94342C166.036 10.5472 171.416 14.4499 173.759 15.0945C171.16 18.8817 170.078 22.5978 169.433 28.1905Z" fill="#870404"/>
<path d="M241.978 24.559C242.508 39.4809 241.254 64.3915 236.688 69.6219C231.846 75.1703 222.846 81.8496 208.518 81.9308C195.361 82.0053 184.788 75.6499 181.034 69.5616C176.591 62.3551 175.262 38.6058 175.995 26.5815C176.859 12.3995 193.149 9.12078 209.247 9.10454C224.308 9.0894 241.553 12.63 241.978 24.559Z" fill="#FFC19F"/>
<path d="M180.851 60.5357C180.701 62.1578 182.837 63.682 185.622 63.9406C188.407 64.1984 190.789 63.0928 190.94 61.4715C191.091 59.8494 188.955 58.3252 186.17 58.0666C183.384 57.8088 181.002 58.9145 180.851 60.5357Z" fill="#FF9797"/>
<path d="M225.455 62.2701C225.536 63.8972 227.866 65.105 230.66 64.9677C233.454 64.8313 235.655 63.4009 235.575 61.7737C235.496 60.1475 233.165 58.9388 230.371 59.0761C227.575 59.2134 225.377 60.6429 225.455 62.2701Z" fill="#FF9797"/>
<path d="M222.01 62.5738C221.462 59.7205 217.067 60.4596 209.89 60.4119C209.515 60.4094 208.055 60.4094 207.678 60.4119C200.502 60.4596 196.106 59.7205 195.558 62.5738C194.502 68.0712 201.431 74.0759 208.721 74.0976H208.847C216.137 74.0759 223.066 68.0712 222.01 62.5738Z" fill="#701608"/>
<path d="M208.846 74.2107H208.719C206.355 74.2015 203.904 73.5335 201.622 72.2814L201.484 72.2077L201.601 72.1031C203.494 70.4082 206.046 69.4741 208.784 69.4741C211.519 69.4741 214.07 70.4082 215.968 72.1031L216.086 72.2077L215.946 72.2814C213.661 73.5335 211.205 74.2015 208.846 74.2107Z" fill="#DD6B5B"/>
<path d="M208.785 64.077C203.77 64.077 199.595 62.5252 199.071 60.4654L199.041 60.3398H218.53L218.5 60.4654C217.972 62.5252 213.798 64.077 208.785 64.077Z" fill="white"/>
<path d="M206.008 57.037C206.184 57.0378 206.339 56.9131 206.37 56.7348C206.588 55.4726 207.594 54.6624 208.933 54.6708C210.28 54.6792 211.299 55.5187 211.468 56.7591C211.495 56.9575 211.68 57.0972 211.878 57.0705C212.078 57.0428 212.217 56.8595 212.19 56.6603C211.972 55.0717 210.635 53.9543 208.938 53.9434C207.249 53.9326 205.929 55.0048 205.652 56.611C205.618 56.8093 205.75 56.9968 205.948 57.032L206.008 57.037Z" fill="#C4735B"/>
<path d="M183.496 34.724C183.741 34.713 183.983 34.615 184.171 34.4311C186.579 32.0852 191.312 31.2529 195.189 32.5027C195.727 32.6786 196.31 32.382 196.488 31.8382C196.663 31.2978 196.367 30.7176 195.823 30.5416C191.197 29.0536 185.688 30.0696 182.729 32.9592C182.321 33.3571 182.314 34.0086 182.713 34.415C182.926 34.6337 183.213 34.7367 183.496 34.724Z" fill="#8C2F22"/>
<path d="M233.508 35.2951C233.791 35.3053 234.077 35.2002 234.288 34.9793C234.683 34.5695 234.67 33.918 234.259 33.524C231.273 30.6593 225.756 29.6921 221.145 31.218C220.604 31.3985 220.311 31.9813 220.49 32.5204C220.672 33.0624 221.257 33.3541 221.795 33.1735C225.661 31.8893 230.404 32.6775 232.829 35.0077C233.02 35.1904 233.262 35.2862 233.508 35.2951Z" fill="#8C2F22"/>
<path d="M216.864 55.2612C216.864 55.2612 227.809 59.0587 232.161 53.3646C237.463 46.4267 229.763 40.6461 224.651 41.6073C219.92 42.4964 215.542 46.4594 216.864 55.2612Z" fill="#F9FEFF"/>
<path d="M233.22 44.3654C231.241 41.7462 228.512 40.8688 225.523 41.0905C222.467 41.3173 219.325 43.3973 218.396 45.6012C220.099 43.135 222.948 42.2891 224.717 41.9572C227.533 41.4245 231.175 42.7735 232.764 45.3427C234.176 47.6284 233.964 50.9982 232.017 53.5443C234.284 51.8377 235.283 47.0944 233.22 44.3654Z" fill="#773220"/>
<path d="M219.849 47.9609C218.771 50.4752 219.939 53.3854 222.458 54.461C224.977 55.5374 227.893 54.3706 228.97 51.8562C230.049 49.3419 228.879 46.4317 226.361 45.3553C223.841 44.2799 220.926 45.4465 219.849 47.9609Z" fill="#63190D"/>
<path d="M220.267 47.1845C219.969 47.8817 220.293 48.6894 220.992 48.9874C221.69 49.2862 222.5 48.9622 222.799 48.265C223.097 47.5678 222.774 46.7601 222.075 46.4613C221.377 46.1625 220.567 46.4864 220.267 47.1845Z" fill="#FEFFFE"/>
<path d="M200.197 54.8845C200.197 54.8845 189.072 58.1211 185.017 52.2144C180.075 45.0161 188.059 39.6334 193.116 40.8532C197.796 41.9814 201.965 46.1613 200.197 54.8845Z" fill="#F9FEFF"/>
<path d="M184.419 43.1727C186.529 40.6579 189.298 39.92 192.272 40.2932C195.313 40.6747 198.344 42.9116 199.16 45.1601C197.585 42.6104 194.783 41.6212 193.033 41.1997C190.247 40.5247 186.542 41.6874 184.825 44.1721C183.297 46.3834 183.337 49.7599 185.15 52.4014C182.975 50.5818 182.22 45.7934 184.419 43.1727Z" fill="#773220"/>
<path d="M187.911 46.9932C186.834 49.5084 188.002 52.4186 190.52 53.4942C193.039 54.5697 195.955 53.4038 197.033 50.8886C198.111 48.3751 196.943 45.464 194.424 44.3888C191.903 43.313 188.989 44.479 187.911 46.9932Z" fill="#63190D"/>
<path d="M188.333 46.2172C188.033 46.9153 188.357 47.7222 189.056 48.021C189.756 48.3198 190.564 47.9959 190.863 47.2978C191.162 46.6006 190.838 45.7929 190.139 45.4949C189.441 45.1964 188.631 45.52 188.333 46.2172Z" fill="#FEFFFE"/>
<path d="M235.008 9.95308C229.132 6.72779 218.108 4.94181 208.203 4.73532C197.434 4.51126 186.311 5.77755 180.342 9.48813C176.393 11.9421 171.428 30.7561 173.335 29.2396C175.519 27.5045 178.977 25.9852 183.131 24.7565C183.669 22.6826 186.616 17.5409 187.189 16.8622C186.964 17.9588 186.57 21.826 186.382 23.8867C191.563 22.6377 197.486 21.8092 203.259 21.5201C203.163 19.3243 204.283 16.4855 204.292 16.3358C204.952 17.002 206.26 20.0931 206.821 21.4086C207.69 21.3993 208.551 21.4035 209.4 21.4214C217.186 21.5832 222.94 22.1884 227.519 23.1616C227.338 16.3779 227.328 14.2583 227.279 14.7198C228.096 16.1697 229.113 20.3301 229.155 23.5362C230.868 23.9591 232.41 24.4389 233.836 24.9714C234.003 23.0004 234.482 19.8159 234.55 19.2759C235.153 19.6511 236.25 24.0291 236.627 26.1414C239.001 27.2502 241.109 28.525 243.279 29.9401C245.649 31.4863 239.745 12.5524 235.008 9.95308Z" fill="#870404"/>
<path d="M63.2828 113.072C62.5994 112.905 63.5109 104.006 64.2102 104.066C75.1076 105.012 98.2163 106.015 101.482 106.184C101.482 106.184 94.7583 112.918 89.6199 115.722C85.5287 117.953 72.2961 115.288 63.2828 113.072Z" fill="#FFC19F"/>
<path d="M116.248 100.148C117.37 100.236 117.858 90.955 116.74 90.7968C100.016 88.4297 79.2727 84.2582 75.0516 83.1006L73.9766 95.2295C83.6431 96.413 101.415 98.9742 116.248 100.148Z" fill="#FFD5C7"/>
<path d="M86.4878 84.6442C86.0552 89.2326 84.9668 97.4059 83.958 101.598C76.652 100.736 67.0677 99.6432 66.5864 99.1903C61.5738 94.4764 66.5663 81.7507 66.5697 80.8467C72.1349 81.7867 77.9165 82.8865 86.4878 84.6442Z" fill="#0F7DA8"/>
<path d="M25.1465 121.526C48.2664 121.526 56.2935 121.526 73.6468 121.526C72.1059 108.547 69.5332 87.5886 68.2573 81.2186C57.9007 79.9891 39.008 80.3373 29.6151 81.9242C28.5239 91.5079 26.6699 106.739 25.1465 121.526Z" fill="#1AA7D3"/>
<path d="M21.3666 125.642C21.7844 126.207 28.6478 121.571 28.2819 120.972C22.8123 112.022 16.4412 96.3331 15.3136 93.561C15.3136 93.561 9.00194 99.5388 8.3868 105.352C7.89719 109.98 15.8498 118.189 21.3666 125.642Z" fill="#FFD5C7"/>
<path d="M9.95898 97.4172C13.0597 100.201 19.6672 106.534 23.059 108.722C25.7313 106.815 30.2604 103.425 30.731 103.043C34.0775 95.5139 38.7078 81.3017 38.7489 80.8916C31.2039 81.1694 25.6897 82.6024 24.1051 83.2511C21.073 86.4517 15.1963 91.8194 9.95898 97.4172Z" fill="#0F7DA8"/>
<path d="M60.4846 82.036C60.4913 81.4258 60.3705 80.8408 60.2054 80.2674C53.919 80.0439 44.4924 80.2071 37.7901 80.9546C37.7473 81.2191 37.6425 81.4693 37.6392 81.743C37.5788 86.467 42.6426 90.3608 48.9516 90.4419C55.2598 90.5223 60.4234 86.7592 60.4846 82.036Z" fill="#0F7DA8"/>
<path d="M57.4454 69.2539V83.0702C57.4647 86.0524 53.7274 88.4965 49.0435 88.5266C44.3587 88.5567 40.4998 86.1629 40.4805 83.1799V69.2539H57.4454Z" fill="#FFD5C7"/>
<path d="M58.6812 80.2211C58.2779 80.2127 57.8654 80.2035 57.4453 80.1968V70.147C59.8644 70.1863 62.1502 70.2625 64.1551 70.3688C64.3329 71.0292 64.4603 71.7004 64.4394 72.3993C64.3396 75.6971 62.0722 78.5487 58.6812 80.2211Z" fill="#E1D4D0"/>
<path d="M57.4453 80.7607V80.1982C57.8654 80.2049 58.2779 80.2141 58.6812 80.2225C58.2838 80.4192 57.8712 80.5992 57.4453 80.7607Z" fill="#1E6A89"/>
<path d="M40.481 77.2906C39.043 75.6577 38.2296 73.6974 38.2925 71.6108C38.3026 71.2977 38.4267 71.014 38.4803 70.7118C39.1268 70.6516 39.7951 70.5955 40.481 70.5444V77.2906Z" fill="#E1D4D0"/>
<path d="M51.6052 81.802C51.4274 81.802 51.2488 81.8003 51.0693 81.7945C46.6361 81.6606 42.768 79.8903 40.4805 77.2914V70.5452C44.5281 70.2456 49.1994 70.1167 53.6797 70.1167C54.9567 70.1167 56.2187 70.1276 57.4454 70.1477V80.1975V80.7599C55.6921 81.4287 53.7073 81.802 51.6052 81.802Z" fill="#E1B1A2"/>
<path d="M85.4739 46.2282C85.6877 53.1242 82.0603 58.6149 78.5209 59.0242C74.9832 59.4335 73.1636 54.2792 72.3905 47.8084C71.6182 41.3367 73.8596 35.7424 77.4006 35.3494C82.2406 34.8137 85.2727 39.744 85.4739 46.2282Z" fill="#F4B18C"/>
<path d="M67.6055 10.9385C68.2663 17.0865 72.6794 31.2579 72.8094 33.3087C72.9536 35.5745 74.203 43.6716 84.9159 37.9774C75.1941 37.4295 82.179 12.9687 67.6055 10.9385Z" fill="#FCBE42"/>
<path d="M78.6834 26.0176C84.6285 51.6021 72.0004 66.653 50.5695 71.6147C29.1405 76.5756 6.43953 69.9633 2.1542 44.0552C-1.97081 19.1187 9.04096 6.88589 31.9535 2.93585C53.6351 -0.801427 72.7383 0.43247 78.6834 26.0176Z" fill="#FCBE42"/>
<path d="M65.4011 8.78347C66.4324 9.41541 73.7326 13.8091 74.6541 18.6131C77.7399 34.7155 78.2539 38.6947 80.8198 51.3561C83.0561 62.3869 76.5316 74.7452 63.8263 77.8555C52.0074 80.7481 37.0264 77.1649 31.4209 72.7875C24.1245 67.09 6.82961 33.9699 7.43544 29.3074C9.48789 13.5608 19.3465 13.8053 37.5882 9.58231C54.6504 5.63193 60.3096 5.66039 65.4011 8.78347Z" fill="#FFD5C7"/>
<path d="M22.0953 41.1738C23.8267 48.9583 28.9444 57.2538 22.6307 62.3034C16.2066 67.44 6.28343 50.7746 3.45694 38.6106C-0.0498358 23.5195 4.31248 10.0458 30.8179 5.72363C22.5458 16.7201 18.9596 27.0736 22.0953 41.1738Z" fill="#FCBE42"/>
<path d="M47.6148 61.4842C47.4891 65.9664 55.33 70.6301 61.4093 69.1704C67.4559 67.7182 70.6364 61.819 69.7559 57.4441C68.899 55.1172 65.0342 56.5301 58.991 57.5152C52.9554 58.4987 47.6903 58.7581 47.6148 61.4842Z" fill="#93251C"/>
<path d="M60.0159 65.3265C62.8493 64.8461 65.1376 65.1499 66.7677 66.2104C65.3598 67.5521 63.3801 68.9356 61.0129 69.3282C58.3481 69.7701 55.9349 69.7458 53.9023 68.2903C54.3803 66.9135 57.4811 65.7559 60.0159 65.3265Z" fill="#F77D61"/>
<path d="M50.3203 59.0555C52.3 58.0812 55.6214 57.9548 58.6292 57.4644C62.0235 56.9103 64.4409 56.075 66.6387 56.1846C66.1373 58.1281 63.4926 59.7703 59.5943 60.4516C55.0914 61.24 51.2535 60.8935 50.3203 59.0555Z" fill="white"/>
<path d="M62.0667 52.8931C61.9116 52.9207 61.7548 52.8328 61.7003 52.6796C61.3146 51.5907 60.2958 51.0241 59.1076 51.235C57.9127 51.4476 57.1354 52.349 57.174 53.4773C57.1798 53.6573 57.0373 53.8104 56.8562 53.8154C56.6751 53.8221 56.5233 53.6799 56.5174 53.4991C56.4679 52.0536 57.4859 50.8575 58.9927 50.5897C60.4903 50.3235 61.8277 51.0751 62.3199 52.4604C62.3803 52.6311 62.2906 52.8186 62.1195 52.8789L62.0667 52.8931Z" fill="#C4735B"/>
<path d="M9.98555 64.304C14.4972 71.1975 22.6064 74.009 27.0987 71.914C31.5927 69.8198 30.2522 63.421 27.3063 56.2705C24.0262 48.309 19.5834 45.116 14.0666 46.7078C7.55686 48.5852 5.74507 57.8248 9.98555 64.304Z" fill="#FFD5C7"/>
<path d="M18.1829 64.1768C20.0512 67.457 23.9502 68.2204 25.1725 67.1423C26.1589 66.2727 25.8923 64.2781 24.612 61.008C23.1154 57.1879 21.1584 55.1883 18.9858 56.2773C16.7269 57.4097 15.984 60.3175 18.1829 64.1768Z" fill="#E0956C"/>
<path d="M64.2059 41.593C62.8618 45.2901 63.8277 48.8817 65.8452 49.9212C68.8848 51.4864 75.2215 50.857 76.948 47.3877C78.6192 44.0274 76.4852 38.9229 72.3697 37.3564C68.7675 35.9854 65.5065 38.0151 64.2059 41.593Z" fill="#F9FEFF"/>
<path d="M75.6095 38.3887C71.7465 33.8289 65.2253 36.916 64.1621 41.7191C65.5045 38.0241 68.9886 36.2926 72.3175 37.5585C74.3769 38.3425 76.0808 40.1234 76.8774 42.3226C77.5121 44.076 77.5457 46.1763 76.8514 47.5724C77.7695 46.5689 78.4487 41.7419 75.6095 38.3887Z" fill="#C1796B"/>
<path d="M65.4969 43.2921C65.1313 45.7421 66.6104 48.1577 68.8014 48.6883C70.9925 49.219 73.067 47.6639 73.4326 45.2136C73.799 42.7636 72.3199 40.3473 70.1288 39.8167C67.9369 39.286 65.8633 40.8419 65.4969 43.2921Z" fill="#007FB7"/>
<path d="M65.7402 42.8344C65.6379 43.5142 66.0488 44.1847 66.6575 44.3316C67.2646 44.4787 67.8398 44.0473 67.9421 43.3674C68.0436 42.6876 67.6336 42.0177 67.0248 41.8701C66.4169 41.723 65.8408 42.1545 65.7402 42.8344Z" fill="#FEFFFE"/>
<path d="M47.8171 44.1587C50.8878 47.2373 51.2953 51.1762 49.4422 53.0419C46.6491 55.8534 39.1988 57.8789 35.7903 55.1838C32.489 52.574 32.7758 46.6565 36.7873 43.3962C40.299 40.5423 44.8463 41.1788 47.8171 44.1587Z" fill="#F9FEFF"/>
<path d="M33.5474 45.7637C36.0211 39.6615 44.7064 39.9781 47.9213 44.263C44.854 41.1854 40.1793 40.9355 36.9317 43.572C34.9259 45.2037 33.7378 47.6687 33.7545 50.1663C33.7679 52.1575 34.6081 54.24 35.9791 55.3239C34.5184 54.7196 31.7278 50.2509 33.5474 45.7637Z" fill="#C1796B"/>
<path d="M37.0325 48.7105C36.5235 51.3395 38.2458 53.8823 40.8804 54.3903C43.5134 54.8984 46.0608 53.1792 46.5706 50.5502C47.0796 47.9212 45.3573 45.3784 42.7235 44.8703C40.0897 44.3621 37.5414 46.0815 37.0325 48.7105Z" fill="#007FB7"/>
<path d="M37.3373 48.2151C37.1956 48.945 37.6744 49.6505 38.4047 49.7912C39.1351 49.9318 39.8419 49.4555 39.9837 48.7257C40.1245 47.9967 39.6466 47.2911 38.9162 47.1496C38.1859 47.009 37.479 47.4861 37.3373 48.2151Z" fill="#FEFFFE"/>
<path d="M31.1363 61.7457C31.3333 63.3142 33.6761 64.3119 36.3695 63.9746C39.062 63.6373 41.0861 62.0931 40.8891 60.5245C40.692 58.9569 38.3484 57.9592 35.6559 58.2965C32.9626 58.6338 30.9392 60.178 31.1363 61.7457Z" fill="#FFA4A4"/>
<path d="M72.7465 54.6123C73.0584 55.9824 74.9795 56.714 77.0372 56.2469C79.0958 55.7799 80.5112 54.2892 80.1984 52.919C79.8865 51.5497 77.9646 50.8173 75.9069 51.2844C73.8475 51.7523 72.4337 53.2421 72.7465 54.6123Z" fill="#FFA4A4"/>
<path d="M72.7123 8.38459C62.1 -1.59308 29.2135 3.94801 16.5032 16.8521C10.6129 22.8324 23.5609 49.3339 13.6797 52.2232C25.5327 54.8288 24.5522 46.6948 24.0801 44.4743C23.811 43.2076 23.0866 40.526 22.3312 37.1922C25.1986 28.4149 33.047 26.1839 36.059 20.4822C36.7566 21.5968 34.1648 28.4983 32.7041 29.5383C35.0637 29.0074 40.2021 24.8208 41.1815 23.2844C42.3579 23.1776 40.9341 26.4491 39.5288 27.7956C41.3718 27.7133 51.2479 22.3025 56.4602 11.7713C57.6911 11.6065 54.3882 22.7457 47.3798 27.6761C50.4924 27.7265 61.3202 25.3879 68.3202 19.4476C73.4125 15.1246 76.3079 11.7654 72.7123 8.38459Z" fill="#FCBE42"/>
<path d="M74.9314 29.4703C74.5985 29.5067 74.2505 29.4224 73.9554 29.2045C71.6503 27.5004 67.596 27.4114 64.5145 28.9998C63.8252 29.3597 62.9699 29.0635 62.6152 28.3437C62.2631 27.6241 62.5423 26.7481 63.2366 26.3896C67.2447 24.32 72.4402 24.5158 75.5913 26.8379C76.2269 27.3088 76.3762 28.2204 75.9267 28.873C75.6835 29.224 75.3171 29.4284 74.9314 29.4703Z" fill="#F48D2F"/>
<path d="M29.2053 37.424C28.8133 37.5091 28.3883 37.4346 28.0371 37.1807C27.3849 36.709 27.2381 35.7965 27.7106 35.1438C30.0489 31.9227 36.3498 29.1167 40.9557 29.7728C41.754 29.8867 42.31 30.6243 42.1959 31.4222C42.0836 32.2182 41.3364 32.7713 40.544 32.6603C37.0072 32.1516 31.7882 34.4949 30.0777 36.8553C29.8574 37.1574 29.5436 37.3502 29.2053 37.424Z" fill="#F48D2F"/>
<path d="M327.242 63.6723C327.242 77.6594 311.405 88.999 291.868 88.999C272.332 88.999 256.494 77.6594 256.494 63.6723C256.494 49.6853 272.332 38.3457 291.868 38.3457C311.405 38.3457 327.242 49.6853 327.242 63.6723Z" fill="#933D18"/>
<path d="M323.029 121.914C323.767 122.763 336.205 119.737 335.632 118.765C328.229 106.185 322.069 96.5412 318.65 93.8117C316.995 92.4893 311.76 91.1099 311.76 91.1099L304.932 101.925C310.982 109.544 313.277 110.694 323.029 121.914Z" fill="#CC4EEA"/>
<path d="M270.984 121.585C286.003 121.585 300.65 121.319 315.509 121.585C313.792 104.315 316.396 104.122 311.76 91.1095C302.064 90.0206 281.606 89.6674 273.038 91.6862C273.345 106.856 272.922 104.104 270.984 121.585Z" fill="#CC4EEA"/>
<path d="M304.2 92.9069C304.2 92.0364 303.902 91.2119 303.405 90.4478C296.824 90.1397 289.015 90.0912 282.638 90.2812C282.071 91.0881 281.758 91.9753 281.758 92.9069C281.758 96.639 286.781 99.6631 292.978 99.6631C299.176 99.6631 304.2 96.639 304.2 92.9069Z" fill="#FFC19F"/>
<path d="M301.376 78.2964L301.543 92.1663C301.578 95.1485 297.81 97.6126 293.125 97.6679C288.441 97.7239 284.615 95.3502 284.579 92.368L284.412 78.4989L301.376 78.2964Z" fill="#FFC19F"/>
<path d="M312.261 121.544C305.976 121.544 290.85 121.544 276.203 121.544C276.203 121.544 276.544 110.435 277.688 101.413C283.775 101.863 303.205 101.731 309.29 101.558C309.74 108.335 311.124 105.213 312.261 121.544Z" fill="#224966"/>
<path d="M302.445 110.383H286.334V121.544H302.445V110.383Z" fill="#1B3A50"/>
<path d="M301.119 111.301H287.66V120.626H301.119V111.301Z" fill="#2B5F7F"/>
<path d="M303.309 101.655C304.577 101.641 305.797 101.599 307.006 101.599C307.14 101.599 307.274 101.599 307.408 101.601C306.239 101.624 304.847 101.645 303.309 101.662V101.655Z" fill="#853398"/>
<path d="M303.152 105.876C303.19 105.06 303.246 102.849 303.308 101.663C304.846 101.645 306.238 101.624 307.407 101.601C307.695 101.602 307.982 101.608 308.269 101.617C308.257 102.833 308.197 105.117 308.134 105.76L303.152 105.876Z" fill="#163042"/>
<path d="M307.94 105.32C308.021 95.7781 307.961 93.519 307.128 90.4598L303.664 90.3945C304.297 93.1533 304.656 94.7252 304.214 105.357L307.94 105.32Z" fill="#224966"/>
<path d="M305.148 103.403C305.242 103.991 305.795 104.391 306.383 104.297C306.97 104.203 307.37 103.651 307.276 103.064C307.182 102.476 306.628 102.076 306.041 102.169C305.454 102.263 305.054 102.816 305.148 103.403Z" fill="#6D9BB2"/>
<path d="M282.677 101.614C280.946 101.575 279.441 101.521 278.289 101.449C279.444 101.518 280.933 101.573 282.677 101.614Z" fill="#853398"/>
<path d="M278.377 106.129C278.35 105.683 278.29 102.82 278.289 101.454C279.441 101.522 280.946 101.576 282.677 101.615C282.8 102.95 283.085 105.614 283.113 106.081L278.377 106.129Z" fill="#163042"/>
<path d="M278.695 105.317C278.669 104.878 279.455 95.7128 276.963 88.8276L280.656 88.3589C283.358 95.2792 282.415 104.929 282.443 105.395L278.695 105.317Z" fill="#224966"/>
<path d="M279.555 103.48C279.649 104.068 280.202 104.468 280.789 104.376C281.378 104.282 281.778 103.729 281.684 103.141C281.589 102.553 281.037 102.153 280.449 102.247C279.86 102.341 279.461 102.892 279.555 103.48Z" fill="#6D9BB2"/>
<path d="M301.514 89.813L301.493 88.0503C302.261 87.8946 303.016 87.7221 303.762 87.5312C303.19 88.39 302.426 89.1602 301.514 89.813ZM284.535 88.6596C284.452 88.5793 284.372 88.4989 284.293 88.4161C284.372 88.4286 284.452 88.4403 284.532 88.4529L284.535 88.6596Z" fill="#E1D4D0"/>
<path d="M284.533 88.4535C284.453 88.441 284.372 88.4293 284.294 88.4167C282.84 86.8976 282.016 85.0285 282.104 83.0423C282.117 82.7686 282.228 82.5234 282.279 82.2598C282.979 82.2037 283.707 82.156 284.456 82.1149L284.533 88.4535ZM301.493 88.0509L301.423 82.1016C302.583 82.1535 303.687 82.2154 304.706 82.2832C304.852 82.8624 304.956 83.4508 304.928 84.061C304.872 85.314 304.458 86.4883 303.762 87.532C303.017 87.7228 302.261 87.8953 301.493 88.0509Z" fill="#893614"/>
<path d="M293.822 92.111C293.594 92.111 293.364 92.1052 293.132 92.0951C289.627 91.9386 286.544 90.6153 284.534 88.6593L284.532 88.4525L284.455 82.1139C287.02 81.9716 289.849 81.9097 292.681 81.9097C295.697 81.9097 298.717 81.98 301.422 82.1006L301.492 88.0499L301.513 89.8126C299.515 91.2439 296.803 92.111 293.822 92.111Z" fill="#E1A182"/>
<path d="M255.19 54.0047C255.208 45.4974 262.155 38.5904 270.679 38.6082C279.202 38.6254 286.12 45.5611 286.103 54.0683C286.085 62.5764 279.136 69.4833 270.614 69.4657C262.091 69.4473 255.171 62.5119 255.19 54.0047ZM296.319 54.0892C296.338 45.5828 303.286 38.6755 311.808 38.6929C320.331 38.7107 327.251 45.6464 327.233 54.1528C327.215 62.6609 320.267 69.5678 311.744 69.5502C303.221 69.5335 296.302 62.5973 296.319 54.0892ZM253.744 54.0013C253.725 63.3046 261.292 70.8895 270.61 70.9087C277.909 70.9238 284.133 66.286 286.508 59.8093C286.535 59.7758 286.582 59.7708 286.603 59.7306C287.612 57.8415 289.96 57.3251 291.784 57.4766C293.746 57.6339 295.326 58.5061 295.716 59.6452C295.756 59.7649 295.841 59.8503 295.929 59.9298C298.303 66.3638 304.481 70.9782 311.741 70.9941C321.061 71.0125 328.659 63.4594 328.679 54.1562C328.698 44.8532 321.131 37.2688 311.811 37.2498C302.493 37.2307 294.893 44.7833 294.874 54.0867C294.872 55.0802 294.974 56.0495 295.138 56.997C294.25 56.4814 293.14 56.1374 291.901 56.0378C290.415 55.9189 288.675 56.1742 287.265 57.0346C287.439 56.0704 287.547 55.0836 287.548 54.0717C287.568 44.7683 280 37.184 270.681 37.1646C261.361 37.1455 253.763 44.698 253.744 54.0013Z" fill="white"/>
<path d="M272.285 94.8919C267.69 93.8523 264.739 89.6012 265.693 85.3961C266.647 81.1911 271.147 78.6257 275.742 79.6652C280.337 80.7048 283.289 84.9567 282.334 89.1601C281.379 93.3652 276.881 95.9314 272.285 94.8919Z" fill="#933D18"/>
<path d="M277.773 98.2452C277.773 101.648 275.238 104.409 272.112 104.409C268.986 104.409 266.451 101.648 266.451 98.2452C266.451 94.8411 268.986 92.0815 272.112 92.0815C275.238 92.0815 277.773 94.8411 277.773 98.2452Z" fill="#933D18"/>
<path d="M277.023 107.558C277.023 110.185 275.076 112.331 272.662 112.331C270.25 112.331 268.285 110.185 268.285 107.558C268.285 104.931 270.242 102.8 272.654 102.8C275.067 102.8 277.023 104.931 277.023 107.558Z" fill="#933D18"/>
<path d="M277.023 115.558C277.023 118.185 275.076 120.331 272.662 120.331C270.25 120.331 268.285 118.185 268.285 115.558C268.285 112.931 270.242 110.8 272.654 110.8C275.067 110.8 277.023 112.931 277.023 115.558Z" fill="#933D18"/>
<path d="M280.814 108.057L272.662 112.332L264.527 108.057V117.142L272.67 112.687L280.814 117.142V108.057Z" fill="#EF1B71"/>
<path d="M250.163 64.9306C252.222 72.6159 259.754 77.3985 265.387 76.6084C271.021 75.8174 272.059 69.4922 271.016 62.0806C269.971 54.6699 264.555 49.2846 258.923 50.0948C251.228 51.2013 248.228 57.7073 250.163 64.9306Z" fill="#FFC19F"/>
<path d="M257.219 66.7625C257.677 70.0117 260.377 72.3184 263.248 71.9159C266.118 71.5124 268.074 68.5511 267.615 65.3019C267.158 62.0518 264.459 59.7451 261.589 60.1477C258.717 60.5511 256.761 63.5124 257.219 66.7625Z" fill="#E0956C"/>
<path d="M334.035 65.0369C331.996 72.7273 324.476 77.5299 318.839 76.7524C313.204 75.9756 312.149 69.653 313.174 62.2397C314.2 54.8256 319.603 49.4269 325.237 50.2229C332.936 51.311 335.952 57.8086 334.035 65.0369Z" fill="#FFC19F"/>
<path d="M326.832 66.6746C326.382 69.9255 323.689 72.2398 320.818 71.8439C317.946 71.4472 315.982 68.4909 316.431 65.2408C316.881 61.9899 319.574 59.6765 322.445 60.0724C325.318 60.4674 327.281 63.4246 326.832 66.6746Z" fill="#E0956C"/>
<path d="M330.748 42.1752C330.611 67.4269 314.863 78.7013 292.894 78.5841C270.925 78.4661 253.478 67.026 253.614 41.7738C253.749 16.5221 272.465 9.39493 291.802 9.13387C311.671 8.86603 330.883 16.9233 330.748 42.1752Z" fill="#933D18"/>
<path d="M322.671 34.2866C326.579 46.2485 323.181 71.7158 318.864 76.5813C314.286 81.7413 301.572 87.9318 292.228 88.0314C282.51 88.1352 269.792 82.1891 266.241 76.5252C262.041 69.8233 258.416 47.0788 261.478 36.5461C265.172 23.8374 277.698 20.3039 292.919 20.2886C307.159 20.2742 319.217 23.7145 322.671 34.2866Z" fill="#FFC19F"/>
<path d="M266.953 67.1793C266.854 68.6457 268.815 69.9715 271.334 70.1406C273.852 70.3105 275.974 69.2584 276.073 67.7928C276.172 66.3264 274.21 65.0006 271.692 64.8315C269.173 64.6616 267.052 65.7128 266.953 67.1793Z" fill="#FF9797"/>
<path d="M308.936 67.926C309.043 69.3915 311.171 70.4311 313.689 70.2486C316.205 70.0653 318.16 68.7286 318.052 67.263C317.945 65.7975 315.817 64.7571 313.3 64.9404C310.782 65.1237 308.829 66.4595 308.936 67.926Z" fill="#FF9797"/>
<path d="M303.01 70.2689C302.526 67.7504 298.65 68.4032 292.317 68.3605C291.987 68.3589 290.699 68.3589 290.367 68.3605C284.034 68.4032 280.158 67.7504 279.675 70.2689C278.742 75.1184 284.856 80.415 291.287 80.435H291.397C297.828 80.415 303.942 75.1184 303.01 70.2689Z" fill="#701608"/>
<path d="M291.399 80.5356H291.287C289.201 80.528 287.038 79.938 285.026 78.834L284.902 78.7695L285.006 78.6766C286.677 77.1809 288.929 76.3564 291.344 76.3564C293.756 76.3564 296.007 77.1809 297.682 78.6766L297.786 78.7695L297.663 78.834C295.646 79.938 293.481 80.528 291.399 80.5356Z" fill="#DD6B5B"/>
<path d="M291.344 71.5966C286.918 71.5966 283.235 70.2273 282.775 68.4101L282.748 68.2988H299.94L299.913 68.4101C299.449 70.2273 295.765 71.5966 291.344 71.5966Z" fill="white"/>
<path d="M294.132 65.1268C293.964 65.1276 293.817 65.0062 293.788 64.8355C293.587 63.6235 292.628 62.8409 291.343 62.8418C290.052 62.8418 289.07 63.6411 288.9 64.8296C288.872 65.0196 288.694 65.1527 288.506 65.1251C288.315 65.0975 288.181 64.9209 288.209 64.7309C288.426 63.2084 289.715 62.1445 291.343 62.1445C292.961 62.1437 294.221 63.1791 294.478 64.7208C294.51 64.9108 294.38 65.0908 294.191 65.1226L294.132 65.1268Z" fill="#C4735B"/>
<path d="M315.765 21.5949C315.254 25.3291 312.924 28.9803 308.877 32.0301C301.189 37.8238 290.073 38.7211 287.095 38.2641C294.464 34.4561 299.1 24.2074 297.898 24.2038C291.512 33.6191 281.329 37.512 279.55 37.3492C281.075 36.2422 282.872 33.2914 281.73 33.2397C280.588 34.5845 275.109 37.9247 272.776 38.1244C274.314 37.3186 277.708 31.0405 277.187 29.8797C272.447 36.4859 260.591 36.3218 259.564 53.5734C255.647 46.1551 255.243 26.0093 260.81 21.1766C269.502 13.6299 317.02 12.428 315.765 21.5949Z" fill="#933D18"/>
<path d="M315.044 41.2995C314.81 41.2697 314.587 41.1567 314.421 40.9655C312.311 38.5323 307.856 37.3589 304.05 38.2428C303.522 38.3682 302.989 38.0378 302.862 37.5041C302.738 36.9739 303.069 36.4433 303.603 36.3187C308.141 35.2667 313.324 36.6776 315.919 39.6748C316.276 40.0878 316.231 40.7104 315.816 41.0672C315.597 41.2592 315.313 41.3343 315.044 41.2995Z" fill="#773220"/>
<path d="M267.939 41.8457C267.668 41.8707 267.389 41.7851 267.175 41.5851C266.775 41.2138 266.752 40.5896 267.125 40.1904C269.831 37.2892 275.058 36.0695 279.555 37.2846C280.084 37.4287 280.394 37.9712 280.252 38.4968C280.107 39.0248 279.562 39.3355 279.037 39.1915C275.268 38.1678 270.77 39.1748 268.573 41.5347C268.4 41.7195 268.174 41.8242 267.939 41.8457Z" fill="#773220"/>
<path d="M300.124 53.2531C297.685 56.7802 297.981 60.6756 300.108 62.1621C303.314 64.4028 310.902 65.0648 313.738 61.8516C316.485 58.7396 315.167 53.0447 310.699 50.5822C306.789 48.4253 302.485 49.8407 300.124 53.2531Z" fill="#F9FEFF"/>
<path d="M314.262 52.3127C310.788 46.8212 302.411 48.6492 300.043 53.3723C302.48 49.8477 306.974 48.7864 310.59 50.7777C312.826 52.0106 314.412 54.196 314.835 56.6232C315.172 58.5592 314.721 60.7279 313.581 62.0202C314.892 61.1782 316.817 56.3512 314.262 52.3127Z" fill="#7C3929"/>
<path d="M301.016 55.3284C300.014 57.7742 301.189 60.5664 303.639 61.5657C306.088 62.5651 308.886 61.3933 309.888 58.9476C310.888 56.5019 309.714 53.7097 307.265 52.7103C304.814 51.7109 302.017 52.8827 301.016 55.3284Z" fill="#701608"/>
<path d="M301.408 54.9075C301.13 55.5855 301.457 56.3605 302.136 56.6384C302.816 56.9155 303.592 56.5899 303.869 55.9111C304.148 55.2331 303.821 54.458 303.141 54.181C302.461 53.9039 301.686 54.2287 301.408 54.9075Z" fill="#FEFFFE"/>
<path d="M283.385 53.0964C285.759 56.6662 285.391 60.5566 283.237 62.0046C279.991 64.1858 272.391 64.7098 269.615 61.4455C266.926 58.2833 268.348 52.6143 272.86 50.233C276.811 48.1481 281.086 49.6413 283.385 53.0964Z" fill="#F9FEFF"/>
<path d="M269.267 51.8983C272.84 46.4712 281.182 48.4515 283.464 53.2174C281.091 49.6484 276.617 48.5051 272.964 50.4302C270.709 51.622 269.082 53.7781 268.616 56.1979C268.244 58.1272 268.653 60.3034 269.77 61.6166C268.473 60.7512 266.639 55.8891 269.267 51.8983Z" fill="#7C3929"/>
<path d="M273.547 55.0733C272.546 57.5182 273.72 60.3112 276.171 61.3106C278.62 62.31 281.417 61.1374 282.419 58.6916C283.42 56.2468 282.246 53.4537 279.796 52.4543C277.346 51.455 274.548 52.6276 273.547 55.0733Z" fill="#701608"/>
<path d="M273.939 54.655C273.661 55.3329 273.987 56.108 274.666 56.385C275.346 56.6621 276.123 56.3373 276.4 55.6585C276.678 54.9806 276.352 54.2055 275.672 53.9285C274.993 53.6514 274.216 53.9762 273.939 54.655Z" fill="#FEFFFE"/>
<path d="M312.113 25.8239C321.312 23.9069 318.084 34.0609 321.514 41.874C323.846 47.1873 327.556 48.3951 330.039 45.2912C332.12 30.0151 323.03 17.9035 312.113 25.8239Z" fill="#933D18"/>
<path d="M264.008 22.2925C258.467 17.7055 256.711 13.516 260.839 7.93555C260.825 11.9753 266.323 12.1551 274.254 11.3291C289.13 9.77995 274.238 24.9885 264.008 22.2925Z" fill="#933D18"/>
<path d="M85.5137 104.928C87.1614 107.221 93.7304 116.545 95.3546 118.615C96.8027 117.742 105.245 112.308 108.017 110.238C113.893 101.317 114.588 90.4915 114.584 89.9775C109.901 90.2738 105.58 90.6706 104.074 91.4858C100.274 94.6312 91.5335 100.715 85.5137 104.928Z" fill="#DB1D5D"/>
<path d="M143.224 111.299C142.071 104.103 147.863 90.9956 147.93 90.6533C148.792 90.8642 151.028 92.1775 152.019 93.5694C154.991 97.7477 156.507 100.067 163.144 109.687C162.309 110.782 152.68 117.065 148.877 120.582C146.851 117.585 143.984 113.074 143.224 111.299Z" fill="#DB1D5D"/>
<path d="M164.786 110.295L148.498 121.445L145.623 117.263L161.911 106.112L164.786 110.295Z" fill="#FF5FA8"/>
<path d="M146.931 90.7094C139.096 89.6707 116.948 89.7728 107.745 91.1212C107.157 100.084 103.426 121.541 103.426 121.541C127.157 121.536 133.539 121.536 151.533 121.536C150.704 117.639 148.252 100.475 146.931 90.7094Z" fill="#26B2AE"/>
<path d="M116.617 92.7821C116.617 91.9125 116.913 91.0872 117.411 90.3222C123.993 90.0158 131.801 89.9665 138.18 90.1565C138.747 90.9642 139.059 91.8514 139.059 92.7821C139.059 96.5143 134.036 99.5392 127.839 99.5392C121.642 99.5392 116.617 96.5143 116.617 92.7821Z" fill="#FFC19F"/>
<path d="M83.7695 104.54L93.6305 120.728L97.9715 118.093L88.1122 101.905L83.7695 104.54Z" fill="#FF5FA8"/>
<path d="M130.352 112.785C122.603 112.785 114.759 112.408 107.088 111.706C107.154 111.358 107.221 111.012 107.287 110.667C114.783 111.353 122.432 111.71 129.996 111.71C132.729 111.71 135.453 111.663 138.151 111.569C138.17 111.93 138.19 112.293 138.208 112.652C135.607 112.741 132.986 112.785 130.352 112.785ZM130.499 102.471C123.359 102.471 116.138 102.153 109.05 101.552C109.118 101.206 109.185 100.865 109.251 100.527C116.177 101.112 123.217 101.415 130.187 101.415C132.67 101.415 135.147 101.376 137.603 101.299C137.623 101.649 137.643 102.003 137.661 102.362C135.288 102.435 132.898 102.471 130.499 102.471Z" fill="#B5E5E3"/>
<path d="M118.903 91.3002C118.903 91.3002 118.322 115.617 117.591 121.576C111.444 121.576 110.32 121.576 103.4 121.576C104.263 115.02 105.27 100.309 106.62 90.8918C109.661 90.3452 114.069 89.9326 119.056 89.7158C118.959 90.2113 118.903 90.7369 118.903 91.3002Z" fill="#DB1D5D"/>
<path d="M136.934 89.8179C142.422 90.023 146.324 90.264 147.931 90.6524C149.107 102.402 150.232 106.851 152.345 121.552C147.986 121.552 141.173 121.552 139.04 121.552C138.791 115.07 137.048 90.3712 136.934 89.8179Z" fill="#DB1D5D"/>
<path d="M119.441 78.1709L119.274 92.0408C119.238 95.0238 123.006 97.4863 127.692 97.5424C132.375 97.5993 136.202 95.2255 136.238 92.2433L136.403 78.3743L119.441 78.1709Z" fill="#FFC19F"/>
<path d="M136.96 90.0909C136.729 90.085 136.498 90.08 136.264 90.0741L136.271 89.4824C137.575 89.2974 139.014 89.007 140.509 88.6211C140.099 89.0806 139.631 89.5108 139.116 89.9059C138.42 89.8758 137.692 89.8465 136.934 89.8188C136.94 89.8431 136.947 89.9369 136.96 90.0909Z" fill="#E1D4D0"/>
<path d="M136.961 90.124C136.73 90.1181 136.498 90.1131 136.264 90.1072V90.0737C136.498 90.0796 136.729 90.0846 136.96 90.0905C136.961 90.1013 136.961 90.1131 136.961 90.124Z" fill="#31958E"/>
<path d="M136.246 91.5206L136.263 90.1069C136.497 90.1127 136.729 90.1178 136.961 90.1236C136.979 90.3555 137.003 90.712 137.031 91.1757C136.775 91.2979 136.514 91.4126 136.246 91.5206Z" fill="#E1A182"/>
<path d="M137.032 91.1755C137.003 90.7118 136.98 90.3553 136.961 90.1234C136.961 90.1125 136.961 90.1008 136.96 90.0899C136.947 89.9359 136.94 89.8422 136.934 89.8179C137.692 89.8455 138.42 89.8748 139.116 89.905C138.489 90.3846 137.79 90.8106 137.032 91.1755Z" fill="#C41C4C"/>
<path d="M130.755 92.5547C126.001 92.5547 121.931 90.35 120.35 87.1694C124.443 88.7279 128.861 89.7273 132.912 89.7273C133.302 89.7273 133.686 89.7181 134.069 89.6989C134.743 89.6654 135.482 89.5934 136.27 89.4812L136.263 90.073V90.1065L136.246 91.5202C134.801 92.101 133.174 92.4626 131.446 92.5396C131.214 92.5497 130.983 92.5547 130.755 92.5547Z" fill="#E1A182"/>
<path d="M154.309 96.0559C154.714 89.0001 154.61 83.8366 153.418 79.6458C153.538 78.6531 158.561 75.8759 159.564 75.2959C162.794 78.2187 171.681 80.7305 174.105 80.6753C174.105 80.6753 175.013 84.4501 173.63 87.768C170.393 86.6029 167.494 85.3767 167.494 85.3767C167.494 85.3767 170.079 87.2106 173.06 88.9398C171.843 91.1394 169.649 93.4763 165.744 95.3838C165.094 95.7019 163.993 95.8902 162.712 95.9957C161.388 93.4613 160.17 91.4508 160.17 91.4508C160.17 91.4508 160.904 93.4864 161.73 96.0576C161.206 96.0836 160.664 96.0961 160.12 96.1011C159.04 92.5389 157.679 89.2034 157.679 89.2034C157.679 89.2034 158.318 92.5339 158.809 96.1028C156.02 96.071 154.309 96.0559 154.309 96.0559Z" fill="#A50202"/>
<path d="M149.97 75.0186C151.617 73.9105 153.69 73.9565 155.273 74.9408C155.223 74.4696 155.168 73.9967 155.263 73.5079C155.78 70.8671 158.341 69.1446 160.986 69.6593C163.632 70.1741 165.359 72.732 164.842 75.3719C164.327 78.0117 161.764 79.736 159.12 79.2204C158.517 79.1032 157.979 78.8538 157.487 78.5474C157.668 80.2808 156.973 82.0553 155.423 83.0973C153.188 84.6006 150.155 84.0105 148.65 81.7799C147.144 79.5485 147.736 76.5211 149.97 75.0186Z" fill="#45CECE"/>
<path d="M164.849 67.3933C162.798 74.1872 156.193 78.1127 151.421 77.1309C146.649 76.1474 146.006 70.4241 147.18 63.8269C148.357 57.2296 153.181 52.6613 157.949 53.6607C164.468 55.0267 166.776 61.007 164.849 67.3933Z" fill="#F4B18C"/>
<path d="M90.327 34.9834C86.1805 61.0244 108.326 78.2623 129.46 79.3362C150.593 80.4109 166.91 62.9218 166.068 37.3157C165.6 23.0982 153.997 10.5628 133.799 9.67244C112.302 8.72504 93.541 14.7971 90.327 34.9834Z" fill="#A50202"/>
<path d="M82.0898 77.0295C89.9602 75.63 95.6151 74.167 99.9167 71.7656C101.041 71.6376 106.65 76.6654 107.551 77.6129C105.178 81.9184 103.493 92.0762 104.188 94.7203C104.188 94.7203 100.27 96.7006 96.2574 96.0503C96.6935 92.1967 97.2855 88.6981 97.2855 88.6981C97.2855 88.6981 95.9438 92.0117 94.8185 95.733C92.0799 94.9722 88.9338 93.1768 85.8145 89.3919C85.2946 88.7617 84.8007 87.6041 84.3513 86.2273C86.7939 84.1147 88.6873 82.2532 88.6873 82.2532C88.6873 82.2532 86.6388 83.5899 84.0251 85.1668C83.8608 84.5993 83.7065 84.0084 83.5572 83.4141C87.1955 81.299 90.5102 78.9345 90.5102 78.9345C90.5102 78.9345 87.0136 80.5047 83.2134 81.9753C82.5191 78.9086 82.0898 77.0295 82.0898 77.0295Z" fill="#A50202"/>
<path d="M100.326 68.4877C101.825 69.4352 102.53 71.1426 102.292 72.7873C102.66 72.5781 103.027 72.3638 103.462 72.2659C105.809 71.7394 108.14 73.2125 108.667 75.5553C109.194 77.8989 107.719 80.2249 105.371 80.7514C103.024 81.277 100.694 79.8055 100.166 77.462C100.045 76.9271 100.058 76.399 100.132 75.8867C98.7765 76.6568 97.0735 76.7262 95.6648 75.8357C93.6322 74.5509 93.0276 71.865 94.3156 69.8361C95.6027 67.8064 98.2935 67.2037 100.326 68.4877Z" fill="#45CECE"/>
<path d="M103.66 30.5676C101.52 34.7236 102.508 72.6573 106.584 78.107C110.907 83.889 123.894 90.1999 134.068 89.6994C140.399 89.3881 152.528 85.5345 156.402 79.6203C160.983 72.6188 164.148 40.3469 163.007 36.3062C159.145 22.6573 147.475 21.611 132.179 20.8336C117.871 20.1068 109.214 19.7846 103.66 30.5676Z" fill="#FFC19F"/>
<path d="M90.6473 65.148C92.2136 72.5169 99.1012 77.4109 104.466 76.9405C109.832 76.4701 110.178 54.8027 100.648 52.4834C92.7092 50.5525 89.174 58.2219 90.6473 65.148Z" fill="#FFC19F"/>
<path d="M96.5834 65.1147C96.8567 68.2099 100.191 70.9695 102.837 70.243C103.87 69.9601 102.664 59.1536 101.043 59.0758C98.3007 58.9452 96.3117 62.0195 96.5834 65.1147Z" fill="#E0956C"/>
<path d="M107.766 69.9716C107.63 71.5 109.646 72.927 112.27 73.1606C114.893 73.3941 117.131 72.3436 117.268 70.8161C117.404 69.2886 115.386 67.8615 112.763 67.628C110.14 67.3953 107.903 68.4441 107.766 69.9716Z" fill="#FF9797"/>
<path d="M148.699 71.7459C148.714 73.1102 150.386 74.1983 152.433 74.1773C154.482 74.1564 156.131 73.034 156.116 71.6705C156.103 70.3071 154.431 69.2181 152.383 69.2391C150.335 69.26 148.686 70.3824 148.699 71.7459Z" fill="#FF9797"/>
<path d="M121.07 71.0811C119.904 76.0436 127.566 83.0275 134.672 82.7898C141.737 82.5529 146.631 76.7107 146.653 71.6368C146.232 68.8496 141.603 69.5402 134.649 69.2581C127.702 68.976 121.78 68.0629 121.07 71.0811Z" fill="#701608"/>
<path d="M134.022 78.0438C137.288 78.1551 139.767 79.0164 141.339 80.5698C139.464 81.7433 136.943 82.8314 134.216 82.7276C131.147 82.6104 128.466 82.0329 126.535 79.9471C127.382 78.5234 131.101 77.9433 134.022 78.0438Z" fill="#DD6B5B"/>
<path d="M124.637 68.9941C127.065 68.3613 130.794 68.9782 134.256 69.1188C138.163 69.277 141.047 68.8987 143.468 69.5222C142.464 71.5721 139.142 72.7966 134.645 72.666C129.452 72.5154 125.256 71.254 124.637 68.9941Z" fill="white"/>
<path d="M133.19 66.3929C133.358 66.4013 133.512 66.2866 133.55 66.1167C133.814 64.9097 134.819 64.1724 136.11 64.2376C137.408 64.3038 138.351 65.1558 138.461 66.3586C138.48 66.5511 138.653 66.6942 138.845 66.6758C139.038 66.6582 139.179 66.4875 139.162 66.295C139.02 64.7541 137.779 63.6199 136.144 63.5371C134.519 63.4542 133.2 64.431 132.864 65.9669C132.823 66.156 132.943 66.3435 133.132 66.3845L133.19 66.3929Z" fill="#C4735B"/>
<path d="M110.004 44.1816C110.26 44.1756 110.512 44.0791 110.713 43.8919C113.265 41.5047 118.203 40.7406 122.206 42.1223C122.762 42.3168 123.375 42.0205 123.571 41.4594C123.764 40.9013 123.467 40.2922 122.907 40.0977C118.13 38.4523 112.383 39.3907 109.245 42.3312C108.813 42.736 108.792 43.4129 109.197 43.8439C109.413 44.0761 109.71 44.189 110.004 44.1816Z" fill="#A50202"/>
<path d="M160.219 46.3269C160.482 46.3478 160.753 46.2616 160.957 46.0657C161.341 45.7016 161.356 45.0964 160.991 44.7132C158.337 41.9309 153.256 40.8047 148.91 42.0313C148.401 42.1766 148.105 42.7053 148.25 43.2132C148.396 43.7241 148.926 44.019 149.434 43.8736C153.075 42.8409 157.448 43.7686 159.602 46.0323C159.77 46.2097 159.992 46.3085 160.219 46.3269Z" fill="#A50202"/>
<path d="M97.9211 36.7566C95.4198 35.9861 96.151 35.2576 93.7637 34.2216C103.517 32.6134 101.443 17.9757 114.395 13.3095C135.489 7.28693 150.636 12.7305 155.73 16.3419C165.121 22.9963 168.625 33.4588 168.586 42.2811C169.271 50.3338 168.124 52.9184 172.084 55.0804C167.547 55.9893 167.48 55.1005 166.362 52.8498C165.387 59.2963 165.862 62.2626 168.884 64.6606C163.302 65.6474 161.447 61.7512 161.555 56.556C161.681 50.3664 163.686 38.7829 163.002 36.521C162.605 35.2122 156.576 27.636 154.674 27.4151C150.527 26.9342 144.711 41.1046 130.014 39.595C136.231 36.8846 139.864 32.6023 143.692 26.3811C142.478 26.9752 141.249 27.7173 140.013 28.6425C127.009 38.3845 115.636 40.1264 105.332 38.3272C106.066 49.4892 106.388 63.6052 94.6291 63.0996C95.9464 61.7177 99.583 54.5422 96.9258 48.5342C95.4458 49.2875 97.0465 43.99 97.9211 36.7566Z" fill="#A50202"/>
<path d="M144.269 55.3509C142.03 58.7407 142.134 62.5784 143.909 64.1059C146.583 66.4076 153.097 67.2965 155.666 64.2281C158.154 61.2551 157.241 55.6179 153.486 53.0575C150.201 50.816 146.437 52.0715 144.269 55.3509Z" fill="#F9FEFF"/>
<path d="M156.488 54.8697C153.708 49.3647 146.417 50.8989 144.193 55.4656C146.431 52.0783 150.345 51.176 153.384 53.2467C155.261 54.5273 156.543 56.7244 156.813 59.1233C157.028 61.0366 156.556 63.1534 155.523 64.388C156.686 63.6012 158.531 58.9182 156.488 54.8697Z" fill="#8E381E"/>
<path d="M145.104 57.7622C144.145 60.1343 145.049 62.9156 147.12 63.9744C149.192 65.0332 151.65 63.9686 152.608 61.5974C153.565 59.2253 152.663 56.444 150.59 55.3852C148.518 54.3264 146.062 55.391 145.104 57.7622Z" fill="#752912"/>
<path d="M145.457 57.3615C145.192 58.0194 145.443 58.7911 146.017 59.0849C146.593 59.3787 147.274 59.0832 147.539 58.4254C147.805 57.7667 147.555 56.9958 146.98 56.702C146.406 56.4082 145.724 56.7037 145.457 57.3615Z" fill="#FEFFFE"/>
<path d="M127.579 54.5636C129.779 58.1618 129.272 61.971 127.1 63.3127C123.829 65.3357 116.34 65.5659 113.734 62.2547C111.21 59.0465 112.82 53.5274 117.343 51.3562C121.304 49.4554 125.45 51.0825 127.579 54.5636Z" fill="#F9FEFF"/>
<path d="M113.748 52.8588C117.464 47.6586 125.589 49.9168 127.652 54.6851C125.454 51.0894 121.1 49.7988 117.438 51.5548C115.175 52.6412 113.497 54.6994 112.947 57.0597C112.509 58.9421 112.83 61.0957 113.879 62.4282C112.636 61.5284 111.016 56.6822 113.748 52.8588Z" fill="#8E381E"/>
<path d="M116.432 56.3154C115.357 58.6816 116.406 61.4696 118.777 62.5435C121.147 63.6174 123.94 62.5695 125.015 60.2041C126.09 57.8379 125.042 55.0499 122.672 53.976C120.301 52.903 117.507 53.9501 116.432 56.3154Z" fill="#752912"/>
<path d="M116.832 55.9165C116.534 56.5727 116.825 57.3461 117.482 57.644C118.14 57.942 118.915 57.6516 119.213 56.9954C119.511 56.3383 119.22 55.5649 118.563 55.267C117.906 54.969 117.131 55.2594 116.832 55.9165Z" fill="#FEFFFE"/>
<path d="M142.224 88.0641C141.557 86.0971 141.723 82.4495 142.367 82.1063C143.259 81.6301 145.342 82.4729 144.783 80.8333C144.242 79.2396 144.614 77.7129 145.551 77.7129C145.863 77.7129 146.238 77.8812 146.663 78.2721C146.976 78.5608 147.469 78.9726 148.387 80.516C147.066 77.317 148.076 75.6514 149.092 75.6514C149.451 75.6514 149.81 75.8573 150.068 76.2758C151.058 77.8695 151.682 78.6512 152.121 78.6512C152.402 78.6512 152.607 78.3315 152.783 77.6995C153.041 76.768 153.369 76.1486 153.959 76.1486C154.302 76.1486 154.734 76.3578 155.293 76.8391C155.703 77.1907 156.179 77.6502 156.647 78.1741C152.394 83.8557 147.392 86.6211 142.224 88.0641Z" fill="#E1A182"/>
<path d="M155.652 93.3613C155.421 92.6992 147.491 95.1022 147.663 95.7819C150.239 105.946 150.986 117.949 151.243 120.929C151.381 121.145 151.6 121.351 151.885 121.54C154.443 121.54 156.686 121.54 160.237 121.54C161.363 120.89 162.308 119.897 162.854 118.459C164.506 114.108 158.716 102.109 155.652 93.3613Z" fill="#FFC19F"/>
<path d="M153.076 77.7937C152.984 79.4534 154.527 82.5788 154.225 84.3565C154.225 84.3565 154.181 84.4662 154.134 84.5306C153.169 81.2027 151.114 78.7244 149.808 76.2168C145.921 76.2234 149.378 80.575 151.278 85.5041C149.685 82.6909 148.28 80.991 147.279 79.0165C145.378 77.766 144.419 78.7378 145.209 80.796C145.82 82.3846 147.394 85.0362 148.568 87.887C148.557 88.1657 144.446 82.4172 142.883 82.1385C142.185 82.5051 141.99 83.9196 143.245 85.6807C143.925 86.6332 144.885 87.5664 146.103 89.8305C146.341 91.9623 145.552 94.0205 145.414 94.9219C145.303 98.2264 149.928 98.8433 150.836 98.6658C153.197 98.203 156.778 93.0529 157.083 90.2908C157.591 85.6606 157.972 83.3455 154.803 76.7683C153.769 75.7154 153.122 76.9868 153.076 77.7937Z" fill="#FFC19F"/>
<path d="M71.2041 90.459V99.8836C71.2041 99.8836 59.6661 81.7835 60.0484 80.271C63.4293 80.3706 68.3355 81.0905 68.3355 81.0905L71.2041 90.459Z" fill="#0F7DA8"/>
<path d="M29.4899 120.566C29.8903 123.174 29.2598 125.397 28.0818 125.532C26.9037 125.668 25.6244 123.663 25.224 121.056C24.8236 118.448 25.4541 116.225 26.632 116.09C27.8103 115.954 29.09 117.959 29.4899 120.566Z" fill="#FFD5C7"/>
<path d="M33.5056 120.239C33.5727 122.857 32.6587 124.932 31.463 124.872C30.268 124.81 29.2448 122.639 29.1773 120.019C29.1102 117.401 30.0244 115.327 31.2198 115.387C32.4147 115.447 33.4377 117.62 33.5056 120.239Z" fill="#FFD5C7"/>
<path d="M25.5232 120.717C26.2281 123.278 25.8184 125.616 24.6082 125.941C23.3982 126.268 21.8462 124.456 21.1415 121.896C20.4371 119.337 20.8468 116.998 22.0569 116.672C23.2669 116.346 24.8189 118.157 25.5232 120.717Z" fill="#FFD5C7"/>
<path d="M22.284 123.001C23.0258 125.331 22.7256 127.563 21.6128 127.987C20.5003 128.412 18.9969 126.868 18.2547 124.538C17.5128 122.208 17.8132 119.975 18.9259 119.552C20.0384 119.127 21.5417 120.671 22.284 123.001Z" fill="#FFD5C7"/>
<path d="M330.412 126.148C329.704 127.529 327.854 130.524 329.486 131.683C330.16 132.159 331.81 129.436 333.422 126.861C333.96 126 333.803 125.56 334.716 122.786C334.993 122.814 334.968 124.34 334.367 126.114C334.04 127.082 331.325 129.306 333.17 131.023C333.487 131.317 336.268 128.068 336.91 127.299C337.932 126.074 336.927 117.866 336.712 117.376C335.396 114.368 329.244 111.878 323.534 116.157C322.074 118.884 321.85 121.331 321.101 123.399C320.263 129.387 319.598 132.181 320.782 132.226C323.613 132.333 324.196 127.498 324.783 125.068C325.415 123.18 326.475 121.229 327.052 120.306C327.559 120.302 326.075 123.462 325.465 125.301C325.06 126.842 324.03 132.32 325.09 132.432C327.94 132.735 327.524 130.113 328.98 126.205C329.658 124.698 331.208 122.003 331.5 121.912C331.773 122.353 331.402 123.22 330.412 126.148Z" fill="#FFC19F"/>
</svg>
