<svg width="10" height="10" viewBox="0 0 10 10" fill="none" xmlns="http://www.w3.org/2000/svg">
<defs>
<clipPath id="clip0_173_1094">
<rect width="10" height="10" fill="white" transform="matrix(1 0 0 -1 0 10)"/>
</clipPath>
</defs>
<g clip-path="url(#clip0_173_1094)">
<path fill-rule="evenodd" clip-rule="evenodd" d="M0.998914 9.96203C0.750214 9.8701 0.194139 9.34548 0.073739 9.0892C-0.041886 8.8431 -0.026536 8.5103 0.111889 8.26173C0.142914 8.206 0.740839 7.5929 1.74526 6.58693L3.32969 5L1.74526 3.41308C0.120189 1.78548 0.091314 1.75387 0.028614 1.5354C-0.083586 1.14445 0.0135139 0.8997 0.456564 0.456625C0.871089 0.0421247 0.931364 0.00977421 1.28901 0.00977421C1.70584 0.00977421 1.53636 -0.128551 3.40331 1.73542L5.00006 3.32965L6.58691 1.74525C7.59286 0.740874 8.20594 0.142974 8.26166 0.111949C8.42694 0.0198994 8.54024 -0.00497532 8.75656 0.00324917C9.07074 0.0151997 9.15081 0.061224 9.54311 0.455349C9.95806 0.872199 9.99016 0.932075 9.99016 1.28865C9.99016 1.70597 10.1287 1.53625 8.26456 3.40333L6.67041 5L8.26456 6.59668C10.1287 8.46375 9.99016 8.29403 9.99016 8.71135C9.99016 9.06838 9.95801 9.12825 9.54311 9.54338C9.10031 9.98643 8.85554 10.0836 8.46454 9.97133C8.24606 9.90863 8.21446 9.87975 6.58691 8.25475L5.00006 6.67035L3.40331 8.26458C1.55579 10.1092 1.70649 9.9841 1.31829 9.99475C1.14229 9.9996 1.08456 9.99368 0.998914 9.96203Z" fill="white"/>
</g>
</svg>
