<svg width="18" height="18" viewBox="0 0 18 18" fill="none" xmlns="http://www.w3.org/2000/svg">
<g clip-path="url(#clip0_19_29959)">
<path d="M9 1.5C4.8525 1.5 1.5 4.8525 1.5 9C1.5 13.1475 4.8525 16.5 9 16.5C13.1475 16.5 16.5 13.1475 16.5 9C16.5 4.8525 13.1475 1.5 9 1.5ZM12.225 12.225C11.9325 12.5175 11.46 12.5175 11.1675 12.225L9 10.0575L6.8325 12.225C6.54 12.5175 6.0675 12.5175 5.775 12.225C5.4825 11.9325 5.4825 11.46 5.775 11.1675L7.9425 9L5.775 6.8325C5.4825 6.54 5.4825 6.0675 5.775 5.775C6.0675 5.4825 6.54 5.4825 6.8325 5.775L9 7.9425L11.1675 5.775C11.46 5.4825 11.9325 5.4825 12.225 5.775C12.5175 6.0675 12.5175 6.54 12.225 6.8325L10.0575 9L12.225 11.1675C12.51 11.4525 12.51 11.9325 12.225 12.225Z" fill="#314197"/>
</g>
<defs>
<clipPath id="clip0_19_29959">
<rect width="18" height="18" fill="white"/>
</clipPath>
</defs>
</svg>
