<svg width="20" height="20" viewBox="0 0 20 20" fill="none" xmlns="http://www.w3.org/2000/svg">
<defs>
<clipPath id="clip0_134_168">
<rect width="20" height="20" fill="white" transform="translate(20) rotate(90)"/>
</clipPath>
</defs>
<g clip-path="url(#clip0_134_168)">
<path fill-rule="evenodd" clip-rule="evenodd" d="M19.9474 9.51167C19.6961 8.75167 19.1243 8.33982 18.3203 8.33982C17.5278 8.33982 17.9345 7.99767 13.6817 12.2422L10 15.9166L6.31835 12.2422C2.0655 7.99766 2.4722 8.33982 1.6797 8.33982C0.420446 8.33982 -0.384057 9.59147 0.148195 10.7226C0.348396 11.1481 8.8519 19.6516 9.27736 19.8518C9.68611 20.0441 10.3139 20.0441 10.7227 19.8518C11.1498 19.6508 19.6528 11.1469 19.8508 10.7226C19.999 10.4051 20.0464 9.81112 19.9474 9.51167ZM19.1271 1.23041C18.7731 0.160663 17.5391 -0.320087 16.5 0.206963C16.2652 0.326113 16.2487 0.341263 13.0503 3.37726C11.6235 4.73166 10.443 5.83981 10.4269 5.83981C10.4109 5.83981 9.11916 4.62691 7.55635 3.14451C4.0415 -0.189537 4.28945 0.00141263 3.4739 0.000362599C1.96275 -0.00153747 1.09795 1.67721 2.0476 2.76921C2.1517 2.88896 8.84736 9.24907 9.13756 9.50392C9.95691 10.2234 10.9795 10.1863 11.8226 9.40647C13.079 8.24452 18.8261 2.75366 18.8946 2.64986C19.1523 2.25906 19.2567 1.62201 19.1271 1.23041Z" fill="#2D459C"/>
</g>

</svg>
