<svg width="24" height="20" viewBox="0 0 24 20" fill="none" xmlns="http://www.w3.org/2000/svg">
<path d="M14.4528 6.82878C14.4528 7.52642 13.882 8.09722 13.1844 8.09722H1.76844C1.0708 8.09722 0.5 7.52642 0.5 6.82878C0.5 6.13114 1.0708 5.56034 1.76844 5.56034H13.1844C13.882 5.56034 14.4528 6.13114 14.4528 6.82878ZM0.5 1.75501C0.5 2.45266 1.0708 3.02345 1.76844 3.02345H13.1844C13.882 3.02345 14.4528 2.45266 14.4528 1.75501C14.4528 1.05737 13.882 0.486572 13.1844 0.486572H1.76844C1.0708 0.486572 0.5 1.05737 0.5 1.75501ZM9.37908 11.9025C9.37908 11.2049 8.80829 10.6341 8.11064 10.6341H1.76844C1.0708 10.6341 0.5 11.2049 0.5 11.9025C0.5 12.6002 1.0708 13.171 1.76844 13.171H8.11064C8.80829 13.171 9.37908 12.6002 9.37908 11.9025ZM19.5393 9.20076L20.4399 8.30017C20.9346 7.80548 21.7337 7.80548 22.2284 8.30017L23.129 9.20076C23.6237 9.69545 23.6237 10.4946 23.129 10.9893L22.2284 11.8899L19.5393 9.20076ZM18.6387 10.1014L12.0935 16.6465C11.9794 16.7607 11.916 16.9129 11.916 17.0905V18.879C11.916 19.2341 12.195 19.5132 12.5502 19.5132H14.3387C14.5036 19.5132 14.6685 19.4498 14.7826 19.3229L21.3278 12.7778L18.6387 10.1014Z" fill="#79CE4B"/>
</svg>
