<svg width="414" height="797" viewBox="0 0 414 797" fill="none" xmlns="http://www.w3.org/2000/svg">
<defs>
<clipPath id="clip0_616_740">
<rect width="414" height="797" rx="20" fill="white"/>
</clipPath>
</defs>
<g clip-path="url(#clip0_616_740)">
<rect width="414" height="797" rx="20" fill="#FAF9FB"/>
<path d="M303.022 767.853C303.022 769.811 307.464 771.398 312.943 771.398C318.423 771.398 322.865 769.811 322.865 767.853C322.865 765.896 318.423 764.309 312.943 764.309C307.464 764.309 303.022 765.896 303.022 767.853Z" fill="#91BB3F"/>
<path d="M281.809 739.953C258.017 740.424 195.216 755.246 161.421 747.437C109.487 735.438 20.8148 741.026 -0.438477 742.395V798.641H414V750.398C364.585 739.158 340.559 738.791 281.809 739.953Z" fill="#A2CC47"/>
<path d="M281.809 739.954C258.017 740.424 197.251 740.582 163.049 736.771C98.4496 729.574 20.8148 738.02 -0.438477 739.389V771.309C36.2248 782.863 73.79 781.972 114.15 784.942C133.452 786.362 152.943 785.786 172.365 785.682C213.112 785.464 254.067 764.937 293.745 771.038C315.29 774.352 336.419 778.898 358.243 781.29C375.621 783.196 396.345 784.222 414 780.988V750.399C364.585 739.159 340.559 738.792 281.809 739.954Z" fill="#A9D160"/>
<path d="M64.9103 774.204C64.9103 774.204 66.8536 773.84 69.0925 778.715C69.2804 779.125 68.8806 776.508 69.1212 776.332C69.2349 776.249 69.3809 776.354 69.5082 776.456C70.0753 776.913 70.6425 777.37 71.21 777.827C71.3365 776.862 69.7542 772.05 69.4636 771.061C70.3873 771.804 72.8 776.253 73.7232 776.996C73.4858 774.59 73.2493 772.184 73.0124 769.779C74.6801 772.323 75.9239 774.518 76.6007 777.997C76.8394 777.344 81.7821 774.521 81.4196 775.01C79.2689 777.911 78.6313 781.582 78.4412 781.546C76.8108 781.238 69.8789 781.046 68.2575 781.171C68.2202 780.245 65.9936 776.263 64.9103 774.204Z" fill="#84B73E"/>
<path d="M13.8429 729.112C13.8429 729.112 16.7944 733.613 16.9518 738.023C16.9767 738.716 18.7589 731.929 19.0078 732.027C20.1148 732.463 21.8262 735.458 22.9332 735.895C23.2278 734.427 20.2985 728.033 19.7633 726.705C21.567 727.412 26.1648 732.933 27.9685 733.64C27.6045 730.215 27.2406 726.79 26.8767 723.364C30.0799 726.401 32.4547 729.103 33.6449 733.921C34.1495 732.865 44.1022 726.693 43.3598 727.559C38.9546 732.695 37.8005 739.812 37.6112 740.17C36.9264 741.475 34.5883 739.887 33.4113 740.088C30.7959 740.535 28.0884 739.866 25.358 740.472C22.1118 741.195 12.6451 739.818 9.41557 740.668C9.38368 739.328 14.0536 735.296 13.8429 729.112Z" fill="#A9D160"/>
<path d="M206.509 734.29C206.509 734.29 204.862 739.295 203.234 740.215C202.997 740.349 203.826 734.328 203.78 735.185C203.767 735.424 202.37 737.255 202.217 737.326C201.534 737.638 201.296 738.601 200.613 738.915C200.431 737.968 200.747 732.993 201.077 732.115C199.964 732.623 198.62 737.074 197.507 737.582C197.732 735.343 194.503 730.944 194.503 730.944C194.307 734.051 194.546 736.723 194.004 737.917C193.693 737.242 188.345 735.736 188.803 736.281C191.52 739.506 188.893 740.787 190.642 742.245C191.261 742.761 193.422 741.826 194.148 741.925C195.762 742.146 197.432 741.637 199.117 741.961C201.12 742.344 204.009 742.389 206.002 742.856C206.021 741.983 207.163 741.26 206.509 734.29Z" fill="#A9D160"/>
<g opacity="0.169998">
<g opacity="0.169998">
<path opacity="0.169998" d="M112.089 738.981C112.089 740.168 113.716 741.13 115.723 741.13C117.73 741.13 119.358 740.168 119.358 738.981C119.358 737.795 117.73 736.832 115.723 736.832C113.716 736.832 112.089 737.795 112.089 738.981Z" fill="#030505"/>
</g>
</g>
<path d="M114.806 736.288C115.758 736.204 116.729 736.122 117.652 736.431C118.574 736.741 119.458 737.517 119.785 738.677C119.897 739.076 119.917 739.591 119.664 739.861C119.536 739.995 119.367 740.037 119.205 740.07C117.598 740.403 115.94 740.306 114.363 739.788C113.978 739.662 113.548 739.456 113.399 738.978C113.211 738.374 113.588 737.71 114.018 737.37C114.093 737.312 114.478 737.088 114.439 737.076C114.496 736.951 114.515 736.807 114.569 736.68C114.6 736.608 114.638 736.543 114.676 736.478C114.714 736.413 114.751 736.347 114.806 736.288Z" fill="#D1C5B2"/>
<path d="M397.703 740.728C397.703 740.728 395.695 743.382 395.422 746.124C395.379 746.555 394.544 742.23 394.386 742.279C393.682 742.493 392.502 744.272 391.799 744.486C391.674 743.555 393.744 739.72 394.129 738.92C392.982 739.268 389.913 742.472 388.767 742.819C389.128 740.702 389.489 738.585 389.851 736.468C387.745 738.196 386.166 739.757 385.236 742.7C384.966 742.015 379.041 737.651 379.466 738.229C381.994 741.66 382.427 746.158 382.53 746.392C382.903 747.24 398.021 747.467 399.989 748.164C400.062 747.33 397.327 744.573 397.703 740.728Z" fill="#A9D160"/>
<path d="M39.2639 763.735C38.9537 763.583 38.5585 763.494 38.3962 763.868C38.2111 764.293 38.5626 765.513 38.8955 765.87C38.1196 765.308 37.1587 765.559 36.2941 765.824C36.0667 765.895 35.7888 766.04 35.7838 766.343C35.7775 766.679 36.1072 766.825 36.3655 766.857C37.1355 766.955 37.9141 766.946 38.6831 766.83C38.0755 767.179 37.2847 768.233 37.2196 769.089C37.2142 769.159 37.4138 769.636 37.9964 769.459C38.6163 769.269 39.2266 767.606 39.5154 766.87C39.6869 767.373 39.3812 768.655 39.4276 769.168C39.4549 769.468 39.6637 769.767 39.8847 769.865C40.0661 769.944 40.2663 769.811 40.3959 769.629C40.8584 768.978 40.4131 768.11 40.163 767.287C40.7151 767.733 41.1254 767.839 41.7739 767.914C41.9735 767.937 42.1882 767.937 42.3587 767.799C42.5293 767.662 42.6252 767.343 42.5075 767.132C42.4461 767.023 42.3437 766.966 42.2464 766.919C41.7029 766.654 41.1304 766.489 40.5514 766.431C41.0917 765.702 41.8517 765.466 41.9999 764.582C42.1313 763.794 41.3209 763.37 40.7033 764.282C40.551 764.507 40.2117 765.607 40.0007 765.57C39.5886 765.497 39.8033 763.999 39.2639 763.735Z" fill="#F4F5F6"/>
<path d="M46.3989 770.64C46.0569 770.473 45.6208 770.373 45.4416 770.786C45.237 771.255 45.6253 772.601 45.9919 772.995C45.1364 772.374 44.0768 772.651 43.1226 772.944C42.8716 773.022 42.5655 773.182 42.5596 773.516C42.5528 773.887 42.9166 774.047 43.2013 774.083C44.0513 774.192 44.91 774.181 45.7577 774.053C45.0873 774.438 44.2155 775.6 44.1436 776.545C44.1377 776.622 44.3578 777.149 45 776.953C45.6845 776.745 46.3571 774.909 46.6759 774.098C46.8646 774.652 46.5281 776.066 46.579 776.632C46.6095 776.964 46.8396 777.293 47.0834 777.401C47.283 777.49 47.5045 777.343 47.6469 777.141C48.1572 776.422 47.6664 775.465 47.3904 774.558C47.9998 775.049 48.4519 775.167 49.1668 775.249C49.3874 775.274 49.6239 775.274 49.8121 775.123C50 774.972 50.1059 774.619 49.9763 774.387C49.909 774.266 49.7962 774.204 49.688 774.151C49.089 773.859 48.4573 773.677 47.8188 773.613C48.415 772.809 49.2532 772.549 49.4165 771.573C49.5611 770.705 48.6679 770.237 47.9862 771.243C47.8183 771.491 47.444 772.705 47.2112 772.664C46.7569 772.583 46.9933 770.931 46.3989 770.64Z" fill="#F4F5F6"/>
<path d="M278.994 751.092C278.668 750.932 278.173 751.019 278.145 751.469C278.134 751.636 278.2 751.794 278.268 751.936C278.507 752.435 278.808 752.883 279.158 753.257C278.343 752.668 277.335 752.931 276.426 753.211C276.188 753.284 275.896 753.436 275.891 753.755C275.884 754.107 276.23 754.26 276.502 754.295C277.31 754.397 278.128 754.387 278.935 754.265C278.297 754.632 277.833 755.462 277.764 756.362C277.759 756.434 277.757 756.513 277.787 756.575C277.828 756.66 277.915 756.683 277.993 756.686C278.661 756.708 279.103 755.822 279.407 755.05C279.331 755.583 279.318 756.13 279.366 756.668C279.395 756.984 279.478 757.349 279.711 757.451C279.901 757.536 280.111 757.396 280.247 757.204C280.733 756.52 280.516 755.432 280.253 754.567C280.832 755.036 281.499 755.325 282.179 755.404C282.389 755.428 282.615 755.428 282.793 755.284C282.973 755.14 283.073 754.804 282.95 754.583C282.886 754.468 282.778 754.409 282.676 754.359C282.105 754.081 281.504 753.907 280.896 753.847C281.623 753.712 282.305 753.21 282.766 752.47C282.813 752.393 282.861 752.308 282.869 752.209C282.891 751.91 282.63 751.617 282.399 751.639C282.058 751.672 281.685 751.817 281.354 752.129C281.159 752.313 280.539 752.982 280.318 752.943C279.885 752.866 279.56 751.368 278.994 751.092Z" fill="#F4F5F6"/>
<path d="M384.524 770.452C384.108 770.248 383.474 770.359 383.438 770.934C383.425 771.147 383.509 771.35 383.596 771.531C383.901 772.169 384.287 772.743 384.733 773.222C383.692 772.467 382.402 772.804 381.241 773.161C380.936 773.255 380.563 773.45 380.556 773.856C380.548 774.307 380.99 774.503 381.337 774.547C382.371 774.678 383.416 774.666 384.448 774.509C383.633 774.978 383.04 776.041 382.952 777.19C382.945 777.283 382.942 777.384 382.981 777.463C383.034 777.571 383.145 777.601 383.244 777.604C384.098 777.633 384.664 776.501 385.052 775.514C384.955 776.195 384.938 776.895 385 777.583C385.037 777.985 385.144 778.453 385.441 778.584C385.684 778.691 385.953 778.512 386.127 778.267C386.748 777.393 386.469 776.002 386.133 774.896C386.875 775.496 387.726 775.865 388.597 775.965C388.865 775.996 389.153 775.996 389.382 775.812C389.611 775.628 389.74 775.199 389.582 774.916C389.5 774.769 389.363 774.693 389.231 774.63C388.502 774.273 387.734 774.052 386.956 773.975C387.886 773.803 388.758 773.16 389.346 772.214C389.408 772.115 389.468 772.007 389.478 771.88C389.507 771.499 389.173 771.123 388.877 771.152C388.441 771.194 387.965 771.38 387.542 771.778C387.292 772.014 386.5 772.87 386.217 772.82C385.664 772.721 385.247 770.806 384.524 770.452Z" fill="#F4F5F6"/>
<g opacity="0.119995">
<g opacity="0.119995">
<path opacity="0.119995" d="M102 770.007L178.697 766.692L185.286 767.459L179.518 773.803L102 770.007Z" fill="black"/>
</g>
</g>
<path d="M102 770.007H114.279V756.726L102 770.007Z" fill="#E249D0"/>
<path d="M122.504 753.354L118.989 756.741V770.056L122.504 766.647V753.354Z" fill="#E8546D"/>
<path d="M142.161 753.354L138.65 756.743V770.056L142.161 766.647V753.354Z" fill="#BA1E1E"/>
<path d="M117.799 766.702V753.425H122.476C122.476 757.939 125.854 761.623 130.024 761.623C134.193 761.623 137.574 757.951 137.574 753.436H142.142V766.702H117.799Z" fill="#2A2A9E"/>
<path d="M114.314 770.019V756.74H118.989C118.989 761.255 122.372 764.937 126.541 764.937C130.711 764.937 134.091 761.258 134.091 756.743H138.65V770.019H114.314Z" fill="#4040C1"/>
<path d="M122.504 753.354L118.989 756.74V743.427L122.504 740.06V753.354Z" fill="#D63664"/>
<path d="M117.819 740.084L114.314 743.45H138.65L142.161 740.084H117.819Z" fill="#FF7795"/>
<path d="M142.161 753.354L138.65 756.743V743.45L142.161 740.084V753.354Z" fill="#6E2CA8"/>
<path d="M114.314 743.449V756.74H118.989C118.989 752.225 122.372 748.546 126.541 748.546C130.711 748.546 134.091 752.228 134.091 756.743H138.65V743.449H114.314Z" fill="#F4517C"/>
<path d="M146.853 753.355L143.338 756.743V770.056L146.853 766.648V753.355Z" fill="#E8546D"/>
<path d="M142.142 766.702V753.436H146.824C146.824 757.951 150.203 761.623 154.372 761.623C158.542 761.623 161.922 757.952 161.922 753.437H166.486V766.702H142.142Z" fill="#7229B2"/>
<path d="M166.507 753.355L163.003 756.742V770.056L166.507 766.648V753.355Z" fill="#7229B2"/>
<path d="M138.65 770.019V756.743H143.338C143.338 761.258 146.72 764.937 150.889 764.937C155.059 764.937 158.439 761.257 158.439 756.742H163.003V770.019H138.65Z" fill="#9A47D6"/>
<path d="M146.853 753.355L143.338 756.743V743.428L146.853 740.062V753.355Z" fill="#0486BF"/>
<path d="M142.161 740.084L138.65 743.45H163.003L166.507 740.084H142.161Z" fill="#30B6EC"/>
<path d="M166.507 753.355L163.003 756.742V743.45L166.507 740.084V753.355Z" fill="#0486BF"/>
<path d="M138.65 743.449V756.743H143.338C143.338 752.228 146.72 748.546 150.889 748.546C155.059 748.546 158.439 752.227 158.439 756.742H163.003V743.449H138.65Z" fill="#00A6E0"/>
<path d="M126.412 730.183L130.112 726.858H142.358L138.65 730.183H126.412Z" fill="#FFE744"/>
<path d="M138.65 743.45L142.358 740.1V726.858L138.65 730.183V743.45Z" fill="#FFC926"/>
<path d="M138.65 743.45H126.412V730.183H138.65V743.45Z" fill="#FFD400"/>
<path d="M138.65 730.183L142.358 726.858H154.601L150.887 730.183H138.65Z" fill="#FF9053"/>
<path d="M150.887 743.45L154.602 740.128V726.858L150.887 730.183V743.45Z" fill="#ED5E0F"/>
<path d="M150.887 743.45H138.65V730.183H150.887V743.45Z" fill="#FF7610"/>
<path d="M163.003 756.87L166.643 753.568L178.697 766.692L175.046 770.019L163.003 756.87Z" fill="#5252DD"/>
<path d="M175.046 770.019H163.003V756.87L175.046 770.019Z" fill="#4040C1"/>
<path d="M132.717 716.942L136.416 713.618H148.664L144.949 716.942H132.717Z" fill="#FF5AF3"/>
<path d="M144.949 730.188L148.664 726.864V713.618L144.949 716.942V730.188Z" fill="#BA35A1"/>
<path d="M144.949 730.188H132.717V716.942H144.949V730.188Z" fill="#E249D0"/>
</g>
</svg>
