<svg width="411" height="773" viewBox="0 0 411 773" fill="none" xmlns="http://www.w3.org/2000/svg">
<g clip-path="url(#clip0_616_740)">
<rect width="411" height="773" fill="#FAF9FB"/>
<path d="M300.826 744.731C300.826 746.63 305.236 748.169 310.676 748.169C316.115 748.169 320.525 746.63 320.525 744.731C320.525 742.832 316.115 741.293 310.676 741.293C305.236 741.293 300.826 742.832 300.826 744.731Z" fill="#91BB3F"/>
<path d="M279.767 717.671C256.147 718.127 193.801 732.503 160.251 724.93C108.694 713.292 20.6639 718.712 -0.435303 720.04V774.591H411V727.802C361.943 716.9 338.091 716.544 279.767 717.671Z" fill="#A2CC47"/>
<path d="M279.767 717.671C256.147 718.128 195.822 718.28 161.868 714.584C97.7362 707.604 20.6639 715.796 -0.435303 717.123V748.082C35.9624 759.289 73.2553 758.424 113.323 761.305C132.485 762.682 151.835 762.124 171.116 762.023C211.567 761.811 252.226 741.902 291.616 747.82C313.005 751.033 333.981 755.443 355.647 757.763C372.899 759.612 393.473 760.606 411 757.47V727.802C361.943 716.9 338.091 716.544 279.767 717.671Z" fill="#A9D160"/>
<path d="M64.4399 750.891C64.4399 750.891 66.3692 750.537 68.5919 755.265C68.7784 755.663 68.3815 753.125 68.6203 752.954C68.7332 752.874 68.8781 752.975 69.0046 753.074C69.5676 753.518 70.1306 753.961 70.6941 754.405C70.8196 753.468 69.2488 748.801 68.9603 747.842C69.8773 748.563 72.2725 752.878 73.189 753.599C72.9533 751.265 72.7186 748.931 72.4833 746.599C74.139 749.066 75.3738 751.195 76.0456 754.57C76.2827 753.936 81.1895 751.198 80.8297 751.672C78.6945 754.486 78.0615 758.046 77.8728 758.011C76.2542 757.713 69.3725 757.527 67.7629 757.648C67.7259 756.75 65.5154 752.887 64.4399 750.891Z" fill="#84B73E"/>
<path d="M13.7426 707.156C13.7426 707.156 16.6728 711.522 16.829 715.798C16.8538 716.471 18.623 709.889 18.87 709.984C19.969 710.406 21.6681 713.311 22.7671 713.734C23.0595 712.311 20.1514 706.11 19.6201 704.821C21.4107 705.507 25.9752 710.862 27.7658 711.548C27.4045 708.226 27.0433 704.904 26.682 701.581C29.8619 704.527 32.2196 707.148 33.4011 711.82C33.9021 710.796 43.7826 704.81 43.0456 705.649C38.6724 710.631 37.5266 717.534 37.3387 717.881C36.6588 719.146 34.3377 717.606 33.1692 717.802C30.5728 718.235 27.8849 717.586 25.1742 718.174C21.9516 718.875 12.5535 717.539 9.34736 718.364C9.3157 717.065 13.9518 713.154 13.7426 707.156Z" fill="#A9D160"/>
<path d="M205.013 712.179C205.013 712.179 203.377 717.033 201.761 717.925C201.526 718.055 202.349 712.215 202.303 713.047C202.29 713.278 200.903 715.054 200.751 715.123C200.073 715.426 199.838 716.36 199.159 716.664C198.979 715.745 199.292 710.92 199.62 710.068C198.515 710.561 197.18 714.878 196.075 715.371C196.299 713.199 193.094 708.933 193.094 708.933C192.899 711.946 193.136 714.538 192.598 715.696C192.29 715.042 186.98 713.581 187.435 714.109C190.132 717.237 187.524 718.479 189.261 719.893C189.875 720.394 192.021 719.488 192.741 719.584C194.344 719.798 196.001 719.304 197.674 719.618C199.663 719.989 202.531 720.034 204.509 720.486C204.528 719.64 205.661 718.938 205.013 712.179Z" fill="#A9D160"/>
<g opacity="0.169998">
<g opacity="0.169998">
<path opacity="0.169998" d="M111.276 716.728C111.276 717.879 112.892 718.812 114.885 718.812C116.877 718.812 118.493 717.879 118.493 716.728C118.493 715.577 116.877 714.644 114.885 714.644C112.892 714.644 111.276 715.577 111.276 716.728Z" fill="#030505"/>
</g>
</g>
<path d="M113.974 714.116C114.919 714.034 115.883 713.954 116.799 714.254C117.715 714.555 118.592 715.308 118.917 716.433C119.028 716.82 119.048 717.319 118.796 717.581C118.67 717.711 118.502 717.752 118.341 717.784C116.746 718.106 115.1 718.012 113.535 717.51C113.152 717.388 112.726 717.189 112.578 716.725C112.39 716.139 112.764 715.494 113.192 715.166C113.266 715.108 113.648 714.892 113.609 714.88C113.667 714.759 113.686 714.619 113.739 714.496C113.77 714.426 113.807 714.363 113.845 714.3C113.882 714.237 113.92 714.173 113.974 714.116Z" fill="#D1C5B2"/>
<path d="M394.821 718.422C394.821 718.422 392.827 720.996 392.557 723.655C392.514 724.073 391.685 719.879 391.528 719.926C390.829 720.134 389.658 721.859 388.96 722.067C388.836 721.164 390.891 717.445 391.273 716.669C390.134 717.006 387.087 720.113 385.95 720.45C386.308 718.397 386.667 716.344 387.026 714.291C384.935 715.966 383.368 717.481 382.445 720.335C382.176 719.67 376.294 715.438 376.717 715.998C379.226 719.326 379.656 723.688 379.758 723.915C380.128 724.738 395.136 724.958 397.09 725.634C397.163 724.825 394.448 722.152 394.821 718.422Z" fill="#A9D160"/>
<path d="M38.9793 740.737C38.6714 740.59 38.2791 740.503 38.1179 740.866C37.9341 741.278 38.2831 742.461 38.6136 742.807C37.8434 742.262 36.8894 742.506 36.0311 742.763C35.8053 742.832 35.5295 742.973 35.5245 743.266C35.5182 743.592 35.8455 743.733 36.102 743.765C36.8663 743.86 37.6393 743.851 38.4028 743.738C37.7996 744.077 37.0144 745.099 36.9499 745.929C36.9445 745.997 37.1427 746.46 37.721 746.288C38.3364 746.104 38.9423 744.491 39.229 743.778C39.3992 744.266 39.0958 745.509 39.1419 746.006C39.169 746.297 39.3762 746.587 39.5956 746.682C39.7758 746.759 39.9744 746.63 40.1031 746.453C40.5623 745.821 40.1203 744.98 39.8719 744.182C40.4201 744.614 40.8273 744.717 41.4711 744.79C41.6693 744.812 41.8824 744.812 42.0518 744.678C42.2211 744.546 42.3163 744.236 42.1994 744.032C42.1384 743.926 42.0369 743.871 41.9402 743.825C41.4007 743.568 40.8323 743.407 40.2575 743.352C40.7939 742.645 41.5483 742.416 41.6955 741.558C41.826 740.794 41.0214 740.383 40.4083 741.268C40.2571 741.485 39.9203 742.553 39.7108 742.517C39.3017 742.445 39.5148 740.993 38.9793 740.737Z" fill="#F4F5F6"/>
<path d="M46.0627 747.433C45.7232 747.271 45.2902 747.175 45.1123 747.575C44.9091 748.03 45.2947 749.336 45.6586 749.717C44.8094 749.116 43.7574 749.384 42.8101 749.669C42.5609 749.744 42.2571 749.899 42.2512 750.223C42.2444 750.583 42.6056 750.738 42.8883 750.773C43.7321 750.879 44.5845 750.868 45.4261 750.744C44.7606 751.117 43.8951 752.245 43.8237 753.161C43.8179 753.236 44.0364 753.747 44.6739 753.557C45.3534 753.354 46.0212 751.574 46.3377 750.787C46.525 751.325 46.1909 752.697 46.2415 753.245C46.2717 753.567 46.5002 753.886 46.7422 753.991C46.9404 754.077 47.1603 753.935 47.3016 753.739C47.8082 753.041 47.321 752.114 47.047 751.233C47.652 751.71 48.1008 751.824 48.8105 751.904C49.0295 751.929 49.2643 751.929 49.4512 751.782C49.6376 751.635 49.7428 751.293 49.6142 751.068C49.5473 750.95 49.4354 750.89 49.3279 750.839C48.7333 750.556 48.1062 750.379 47.4723 750.317C48.0642 749.537 48.8963 749.286 49.0584 748.339C49.2019 747.496 48.3152 747.043 47.6384 748.019C47.4718 748.259 47.1002 749.436 46.8691 749.397C46.418 749.319 46.6528 747.716 46.0627 747.433Z" fill="#F4F5F6"/>
<path d="M276.972 728.474C276.649 728.319 276.157 728.404 276.129 728.84C276.119 729.002 276.184 729.155 276.251 729.293C276.489 729.777 276.788 730.212 277.135 730.574C276.326 730.003 275.325 730.258 274.423 730.529C274.187 730.6 273.897 730.748 273.892 731.057C273.885 731.398 274.229 731.546 274.498 731.58C275.301 731.679 276.112 731.67 276.914 731.552C276.281 731.907 275.82 732.713 275.751 733.585C275.746 733.655 275.744 733.732 275.774 733.793C275.815 733.874 275.901 733.897 275.978 733.899C276.642 733.922 277.081 733.062 277.382 732.313C277.307 732.83 277.294 733.361 277.342 733.883C277.371 734.189 277.453 734.543 277.684 734.642C277.873 734.724 278.082 734.588 278.217 734.402C278.699 733.738 278.483 732.684 278.222 731.845C278.797 732.3 279.459 732.58 280.135 732.656C280.343 732.679 280.567 732.679 280.744 732.54C280.922 732.4 281.022 732.074 280.899 731.86C280.836 731.749 280.729 731.691 280.627 731.643C280.061 731.373 279.465 731.205 278.861 731.146C279.582 731.016 280.259 730.529 280.717 729.811C280.764 729.736 280.811 729.653 280.819 729.558C280.841 729.268 280.582 728.983 280.352 729.005C280.014 729.037 279.644 729.178 279.316 729.48C279.121 729.658 278.506 730.308 278.287 730.27C277.857 730.195 277.534 728.742 276.972 728.474Z" fill="#F4F5F6"/>
<path d="M381.737 747.252C381.324 747.054 380.695 747.161 380.66 747.719C380.647 747.926 380.73 748.122 380.816 748.298C381.119 748.917 381.502 749.473 381.946 749.938C380.912 749.206 379.631 749.533 378.479 749.879C378.176 749.97 377.806 750.16 377.798 750.553C377.791 750.991 378.229 751.18 378.574 751.224C379.601 751.351 380.638 751.338 381.663 751.187C380.853 751.642 380.264 752.672 380.177 753.786C380.17 753.877 380.167 753.975 380.206 754.051C380.259 754.156 380.369 754.185 380.467 754.188C381.315 754.217 381.877 753.118 382.262 752.161C382.166 752.822 382.149 753.501 382.211 754.168C382.247 754.558 382.353 755.012 382.648 755.139C382.89 755.243 383.157 755.069 383.329 754.831C383.945 753.983 383.669 752.635 383.335 751.562C384.072 752.144 384.917 752.501 385.781 752.598C386.047 752.628 386.333 752.628 386.561 752.45C386.788 752.272 386.916 751.855 386.759 751.581C386.677 751.438 386.541 751.365 386.411 751.304C385.687 750.957 384.924 750.743 384.153 750.669C385.075 750.502 385.941 749.878 386.525 748.961C386.586 748.865 386.646 748.759 386.656 748.637C386.685 748.267 386.353 747.902 386.059 747.931C385.627 747.972 385.154 748.151 384.734 748.538C384.485 748.767 383.7 749.596 383.419 749.548C382.869 749.453 382.456 747.595 381.737 747.252Z" fill="#F4F5F6"/>
<g opacity="0.119995">
<g opacity="0.119995">
<path opacity="0.119995" d="M101.261 746.82L177.402 743.605L183.943 744.348L178.217 750.501L101.261 746.82Z" fill="black"/>
</g>
</g>
<path d="M101.261 746.82H113.45V733.938L101.261 746.82Z" fill="#E249D0"/>
<path d="M121.617 730.668L118.127 733.953V746.867L121.617 743.561V730.668Z" fill="#E8546D"/>
<path d="M141.13 730.668L137.645 733.955V746.867L141.13 743.561V730.668Z" fill="#BA1E1E"/>
<path d="M116.945 743.614V730.737H121.588C121.588 735.116 124.943 738.688 129.082 738.688C133.221 738.688 136.577 735.127 136.577 730.748H141.112V743.614H116.945Z" fill="#2A2A9E"/>
<path d="M113.485 746.832V733.953H118.127C118.127 738.331 121.485 741.902 125.624 741.902C129.763 741.902 133.119 738.334 133.119 733.955H137.645V746.832H113.485Z" fill="#4040C1"/>
<path d="M121.617 730.668L118.127 733.953V721.04L121.617 717.775V730.668Z" fill="#D63664"/>
<path d="M116.965 717.797L113.485 721.062H137.645L141.13 717.797H116.965Z" fill="#FF7795"/>
<path d="M141.13 730.668L137.645 733.955V721.062L141.13 717.797V730.668Z" fill="#6E2CA8"/>
<path d="M113.485 721.062V733.953H118.127C118.127 729.574 121.485 726.005 125.624 726.005C129.763 726.005 133.119 729.576 133.119 733.955H137.645V721.062H113.485Z" fill="#F4517C"/>
<path d="M145.789 730.669L142.299 733.955V746.868L145.789 743.562V730.669Z" fill="#E8546D"/>
<path d="M141.112 743.614V730.748H145.76C145.76 735.127 149.115 738.689 153.254 738.689C157.393 738.689 160.749 735.128 160.749 730.749H165.279V743.614H141.112Z" fill="#7229B2"/>
<path d="M165.301 730.669L161.821 733.954V746.868L165.301 743.562V730.669Z" fill="#7229B2"/>
<path d="M137.645 746.832V733.955H142.299C142.299 738.334 145.657 741.903 149.796 741.903C153.936 741.903 157.291 738.333 157.291 733.954H161.821V746.832H137.645Z" fill="#9A47D6"/>
<path d="M145.789 730.669L142.299 733.955V721.041L145.789 717.776V730.669Z" fill="#0486BF"/>
<path d="M141.13 717.797L137.645 721.062H161.822L165.301 717.797H141.13Z" fill="#30B6EC"/>
<path d="M165.301 730.669L161.821 733.954V721.062L165.301 717.797V730.669Z" fill="#0486BF"/>
<path d="M137.645 721.062V733.955H142.299C142.299 729.576 145.657 726.006 149.796 726.006C153.936 726.006 157.291 729.575 157.291 733.954H161.821V721.062H137.645Z" fill="#00A6E0"/>
<path d="M125.496 708.195L129.169 704.97H141.326L137.645 708.195H125.496Z" fill="#FFE744"/>
<path d="M137.645 721.062L141.326 717.814V704.97L137.645 708.195V721.062Z" fill="#FFC926"/>
<path d="M137.645 721.062H125.496V708.195H137.645V721.062Z" fill="#FFD400"/>
<path d="M137.645 708.195L141.326 704.97H153.481L149.794 708.195H137.645Z" fill="#FF9053"/>
<path d="M149.794 721.062L153.481 717.841V704.97L149.794 708.195V721.062Z" fill="#ED5E0F"/>
<path d="M149.794 721.062H137.645V708.195H149.794V721.062Z" fill="#FF7610"/>
<path d="M161.821 734.078L165.436 730.876L177.402 743.605L173.778 746.832L161.821 734.078Z" fill="#5252DD"/>
<path d="M173.778 746.832H161.822V734.078L173.778 746.832Z" fill="#4040C1"/>
<path d="M131.755 695.353L135.427 692.129H147.587L143.899 695.353H131.755Z" fill="#FF5AF3"/>
<path d="M143.899 708.2L147.587 704.976V692.129L143.899 695.352V708.2Z" fill="#BA35A1"/>
<path d="M143.899 708.2H131.755V695.353H143.899V708.2Z" fill="#E249D0"/>
</g>
<defs>
<clipPath id="clip0_616_740">
<rect width="411" height="773" fill="white"/>
</clipPath>
</defs>
</svg>
