<svg width="31" height="30" viewBox="0 0 31 30" fill="none" xmlns="http://www.w3.org/2000/svg">
<defs>
<linearGradient id="paint0_linear_1_183" x1="0.980591" y1="30" x2="30.7648" y2="30" gradientUnits="userSpaceOnUse">
<stop stop-color="white" stop-opacity="0"/>
<stop offset="0.160024" stop-color="white"/>
<stop offset="0.791214" stop-color="white"/>
<stop offset="1" stop-color="white" stop-opacity="0"/>
</linearGradient>
<clipPath id="clip0_1_183">
<rect width="18" height="18" fill="white" transform="translate(6.98059 6)"/>
</clipPath>
</defs>
<rect x="1.48059" y="0.5" width="29" height="29" rx="9.5" fill="url(#paint0_linear_1_183)" fill-opacity="0.6"/>
<rect x="1.48059" y="0.5" width="29" height="29" rx="9.5" fill="white"/>
<g clip-path="url(#clip0_1_183)">
<path fill-rule="evenodd" clip-rule="evenodd" d="M9.85745 6.59612C6.95468 7.1278 6.71595 11.2295 9.53822 12.0822L9.7931 12.1592V15.001V17.8427L9.59096 17.9002C6.72572 18.7149 6.92246 22.8503 9.85281 23.4047C12.2049 23.8497 14.0682 21.1436 12.781 19.1521L12.6423 18.9375H14.0399C16.1152 18.9375 16.8245 18.81 18.0478 18.217C20.3737 17.0897 21.8081 15.0285 22.1509 12.3213L22.1718 12.1563L22.3721 12.0993C25.2281 11.2874 25.0308 7.11218 22.1121 6.59725C18.7062 5.99627 17.4361 10.9196 20.7051 12.0516C20.862 12.1059 20.99 12.1627 20.9895 12.1777C20.9343 14.0707 19.487 16.1934 17.6154 17.1266C16.3996 17.7328 15.8502 17.8112 12.8077 17.812L10.9181 17.8125V14.9866V12.1606L11.2081 12.0689C13.8446 11.235 13.809 7.42376 11.1577 6.66632C10.8696 6.58406 10.1388 6.54455 9.85745 6.59612Z" fill="#314197"/>
</g>
<rect x="1.48059" y="0.5" width="29" height="29" rx="9.5" stroke="#F4EFF6"/>
</svg>
