<svg width="40" height="37" viewBox="0 0 40 37" fill="none" xmlns="http://www.w3.org/2000/svg">
<path fill-rule="evenodd" clip-rule="evenodd" d="M9.92186 0.4036C8.39266 0.7348 7.11696 1.9811 6.76085 3.4916C6.61125 4.1262 6.57855 23.0192 6.72585 23.7344C6.95166 24.8315 7.81696 25.9932 8.78906 26.5043C9.80216 27.037 8.71756 27 23.3402 27H36.574L37.1652 26.8015C38.5229 26.3458 39.5297 25.2805 39.894 23.9141C40.0608 23.2885 40.0479 4.0136 39.8802 3.3699C39.4999 1.9098 38.1124 0.636 36.6067 0.3648C35.8341 0.2256 10.5742 0.2624 9.92186 0.4036ZM36.3195 3.9188C36.6565 4.2023 36.6484 4.0294 36.6238 10.3953L36.6016 16.1734L33.8898 13.0125C32.3983 11.274 31.0573 9.7705 30.9099 9.6715C29.7633 8.9012 28.2125 8.984 27.2162 9.8686C27.0815 9.9881 25.574 11.7664 23.8661 13.8204L20.7609 17.5549L19.6084 16.4182C18.0087 14.8407 17.2419 14.5112 15.9438 14.8438C15.1688 15.0424 15.0427 15.1464 12.4414 17.7331L9.99996 20.1607L10.0004 12.389C10.0009 4.1996 10.0024 4.1636 10.3648 3.8786C10.5676 3.719 10.5917 3.7188 23.3249 3.7187H36.0818L36.3195 3.9188ZM14.2969 5.367C12.4775 5.7223 11.237 7.7591 11.7549 9.5408C12.883 13.421 18.5905 12.4608 18.3392 8.433C18.2122 6.3975 16.3301 4.97 14.2969 5.367ZM4.12345 11.9219C3.72575 12.7512 0.0507448 25.4951 0.0187447 26.1559C-0.0587554 27.7573 0.756346 29.1444 2.14835 29.7802C2.36325 29.8783 8.39256 31.5323 15.5469 33.4556L28.5547 36.9527L29.5371 36.9568L30.5196 36.9609L31.1893 36.6291C31.9298 36.2621 32.5208 35.701 32.8464 35.0555C33.014 34.7232 34.6094 29.7711 34.6094 29.5831C34.6094 29.5247 31.0451 29.4994 22.6367 29.498C15.8556 29.4968 10.3402 29.4644 9.91716 29.4233C7.64556 29.2022 5.75635 27.8677 4.80995 25.8156C4.23805 24.5757 4.26945 24.9906 4.22225 18.0547C4.19885 14.6172 4.15435 11.8574 4.12345 11.9219Z" fill="#0C9FDA"/>
</svg>
