<svg width="98" height="200" viewBox="0 0 98 200" fill="none" xmlns="http://www.w3.org/2000/svg">
<path d="M45.0171 105.764C45.0171 105.764 52.0699 100.803 54.5191 99.0195C55.9857 101.162 58.1428 106.106 59.2911 108.707C55.9949 110.772 54.719 111.327 55.3741 112.806C55.8542 113.888 57.5851 113.715 60.4631 114.288C61.3838 117.024 61.7982 122.152 61.6127 124.361C59.3148 124.185 54.4901 124.387 52.2317 124.653C52.2317 124.653 51.8792 120.4 49.5537 114.572C47.9227 110.484 45.0171 105.764 45.0171 105.764Z" fill="#466E7C"/>
<path d="M75.5087 157.454C75.8875 156.328 78.3683 156.145 81.0489 157.045C83.7296 157.946 85.5961 159.589 85.2186 160.715C84.841 161.841 82.3603 162.024 79.6797 161.123C76.9977 160.222 75.1312 158.579 75.5087 157.454Z" fill="#D39329"/>
<path d="M75.8529 138.903C83.3806 139.059 91.9171 142.707 93.852 145.62C91.6896 148.273 88.1842 155.959 86.6242 160.01C83.8318 159.182 77.4668 156.718 74.894 156.139C75.4281 143.875 75.8529 138.903 75.8529 138.903Z" fill="#E55C2E"/>
<path d="M81.7207 162.801L83.0794 158.793C83.3727 157.931 82.4296 156.831 80.9749 156.337C79.5201 155.843 78.1035 156.142 77.8102 157.005L76.4514 161.014L81.7207 162.801Z" fill="#E0956C"/>
<path d="M55.0786 157.601C54.7787 156.618 54.3025 155.331 53.9053 154.378C57.116 153.137 66.5088 148.812 74.9375 151.076C74.7218 152.977 74.6666 153.717 74.539 155.626C68.1701 154.914 60.2044 155.316 55.0786 157.601Z" fill="#FBC1A0"/>
<path d="M58.6919 156.714L57.3305 157.134C57.0359 157.225 56.2651 155.953 55.8968 154.951C55.5285 153.95 55.4667 153.068 55.76 152.977L57.6817 152.394L58.6919 156.714Z" fill="#C98D2B"/>
<path d="M58.2024 156.556C57.2291 155.895 56.824 154.211 56.9936 153.09C57.333 150.864 67.5032 148.035 74.9375 151.076C74.7217 152.977 76.9644 154.57 76.8355 156.48C67.2427 155.095 60.6148 158.198 58.2024 156.556Z" fill="#FBCF0C"/>
<path d="M76.4193 137.696C78.0898 137.438 80.7928 137.884 82.5607 138.824C83.1328 139.909 80.6061 151.865 77.6387 156.877C77.3401 156.79 75.8722 156.227 74.591 155.725C74.6713 147.82 72.6259 138.737 76.4193 137.696Z" fill="#FBCF0C"/>
<g opacity="0.229996">
<g opacity="0.229996">
<g opacity="0.229996">
<path opacity="0.229996" d="M74.2305 154.85C74.879 154.428 76.6639 154.628 77.6123 155.442C75.4538 156.964 75.9484 157.856 75.6695 157.775C74.9224 157.372 73.0757 155.6 74.2305 154.85Z" fill="#030404"/>
</g>
</g>
</g>
<path d="M74.7984 155.457C75.5324 155.094 76.8898 154.984 78.0867 155.742C77.6579 158.203 74.5748 157.062 76.3373 158.997C76.0887 158.948 75.4258 158.966 75.122 158.858C74.317 158.388 73.4962 156.104 74.7984 155.457Z" fill="#FBBC1B"/>
<path d="M82.8123 137.68C81.009 136.662 78.5361 136.266 76.8078 136.534L76.137 137.781C77.6878 137.542 80.8827 137.919 82.5835 138.824L82.8123 137.68Z" fill="#C98D2B"/>
<path d="M80.0172 145.129C79.4372 144.21 78.3533 143.163 77.547 142.796L77.209 143.161C77.9995 143.589 79.0439 144.502 79.5713 145.366L80.0172 145.129Z" fill="#C98D2B"/>
<path d="M99.8887 173.146C100.669 172.536 102.042 171.692 102.876 171.158C101.245 168.41 96.5793 159.911 89.1398 157.047C88.2111 158.667 87.827 159.28 86.8274 160.856C91.8783 163.806 97.4566 168.516 99.8887 173.146Z" fill="#FBC1A0"/>
<path d="M98.3551 170.884C99.4429 170.898 100.702 169.795 101.217 168.819C102.245 166.876 95.3811 157.799 88.223 156.097C87.2931 157.715 85.6647 158.686 84.665 160.261C92.4518 164.459 95.656 170.848 98.3551 170.884Z" fill="#FBCF0C"/>
<path d="M95.0166 143.674C93.8407 142.458 91.2797 141.415 89.3041 141.098C87.9624 140.981 86.8707 144.802 86.2275 147.087C85.3041 150.367 83.2667 156.322 83.4324 158.65C83.7231 158.761 85.1239 159.269 86.4485 159.642C91.1547 153.293 97.4118 146.793 95.0166 143.674Z" fill="#FBCF0C"/>
<g opacity="0.229996">
<g opacity="0.229996">
<g opacity="0.229996">
<path opacity="0.229996" d="M87.4908 158.718C87.0712 158.04 85.2968 157.39 84.0327 157.676C85.377 160.036 84.5036 160.602 84.8035 160.659C85.6914 160.647 88.2379 159.925 87.4908 158.718Z" fill="#030404"/>
</g>
</g>
</g>
<path d="M86.6788 158.996C86.154 158.331 84.9229 157.603 83.4497 157.722C82.7342 160.118 86.1593 160.53 83.6181 161.437C83.8732 161.51 84.4928 161.833 84.8282 161.878C85.8015 161.832 87.6127 160.178 86.6788 158.996Z" fill="#FBBC1B"/>
<path d="M89.6292 140.036C91.6838 140.312 93.9843 141.345 95.1983 142.602L95.001 143.893C93.9093 142.765 91.0958 141.407 89.1938 141.103L89.6292 140.036Z" fill="#C98D2B"/>
<path d="M88.5168 147.921C89.5349 147.539 91.0291 147.359 91.8946 147.552L91.942 148.048C91.0554 147.913 89.6704 148.01 88.7286 148.38L88.5168 147.921Z" fill="#C98D2B"/>
<path d="M86.8932 149.48C86.9221 149.495 86.9484 149.519 86.9629 149.55C87.3391 150.333 87.0431 151.168 86.7459 151.809C86.5381 152.251 86.3066 152.689 86.0803 153.114C85.8133 153.616 85.5371 154.137 85.3043 154.666C84.7992 155.816 84.5993 156.835 84.6874 157.78C84.6953 157.849 84.6414 157.907 84.569 157.906C84.4967 157.907 84.4322 157.845 84.427 157.777C84.3336 156.789 84.5414 155.733 85.0596 154.545C85.2964 154.006 85.5752 153.482 85.8449 152.974C86.0685 152.555 86.3 152.118 86.5039 151.68C86.7801 151.091 87.055 150.325 86.7275 149.642C86.6959 149.574 86.7222 149.5 86.7867 149.474C86.8209 149.461 86.859 149.463 86.8932 149.48Z" fill="#925E25"/>
<path d="M95.6474 174.568C95.8828 170.91 93.3034 167.713 90.7319 167.231C88.1605 166.748 86.7754 169.356 86.1388 172.746C85.5022 176.136 87.07 179.286 89.6455 179.759C93.1614 180.406 95.4277 178.007 95.6474 174.568Z" fill="#FBC1A0"/>
<path d="M92.9254 172.862C93.2042 171.374 92.3677 169.971 91.0563 169.723C89.7462 169.479 88.4585 170.484 88.1796 171.97C87.9008 173.457 88.736 174.862 90.0474 175.108C91.3588 175.355 92.6465 174.347 92.9254 172.862Z" fill="#E0956C"/>
<path d="M59.1902 162.322C61.2106 159.263 65.1961 158.272 67.5387 159.441C69.88 160.608 69.4091 163.524 67.8701 166.612C66.3312 169.696 63.181 171.262 60.8423 170.084C57.6473 168.478 57.2896 165.197 59.1902 162.322Z" fill="#FBC1A0"/>
<path d="M62.5712 162.666C63.246 161.312 64.7599 160.698 65.9529 161.293C67.1472 161.887 67.5681 163.467 66.8921 164.822C66.2173 166.174 64.7033 166.789 63.5103 166.194C62.3173 165.598 61.8951 164.018 62.5712 162.666Z" fill="#E0956C"/>
<path d="M56.8794 173.57C60.5834 162.537 69.2357 159.922 79.0153 163.206C88.7961 166.491 94.3008 173.863 90.5968 184.895C86.8902 195.929 78.8587 196.081 69.0779 192.795C59.2984 189.511 53.1741 184.604 56.8794 173.57Z" fill="#C77457"/>
<path d="M58.9899 179.247C58.7755 177.119 64.8064 160.992 67.4555 159.353C70.2624 157.613 78.4319 157.924 80.1379 158.499C81.9663 159.112 89.9517 163.96 90.6067 167.129C91.3814 170.881 87.3223 185.664 86.1582 187.194C82.228 192.366 77.0877 190.857 70.4505 188.629C64.2408 186.543 59.5437 184.773 58.9899 179.247Z" fill="#FBC1A0"/>
<path d="M89.208 170.366C89.4829 169.724 88.8121 168.819 87.7085 168.349C86.6049 167.877 85.4895 168.018 85.2146 168.66C84.9397 169.303 85.6118 170.208 86.7141 170.678C87.8163 171.15 88.9344 171.009 89.208 170.366Z" fill="#F59597"/>
<path d="M71.2324 163.805C71.414 163.129 70.6221 162.329 69.462 162.02C68.3045 161.709 67.2181 162.005 67.0379 162.681C66.8563 163.356 67.6482 164.157 68.807 164.467C69.9658 164.776 71.0509 164.482 71.2324 163.805Z" fill="#F59597"/>
<path d="M71.9288 172.376C73.5506 171.14 73.9912 169.332 73.2494 168.346C72.1313 166.861 68.8009 165.443 67.0449 166.481C65.3455 167.484 65.1022 170.257 66.7569 172.029C68.2064 173.581 70.3596 173.574 71.9288 172.376Z" fill="#FAFDFF"/>
<path d="M65.402 170.722C66.1623 173.719 70.2175 174.124 71.984 172.335C70.3622 173.571 68.1747 173.39 66.8357 171.956C66.0071 171.071 65.6125 169.847 65.7795 168.686C65.9137 167.76 66.4346 166.844 67.1409 166.426C66.424 166.615 64.843 168.516 65.402 170.722Z" fill="#9C4734"/>
<path d="M71.8748 171.177C72.6877 170.218 72.568 168.781 71.6091 167.968C70.6489 167.154 69.2126 167.272 68.3997 168.234C67.5868 169.192 67.7052 170.63 68.6654 171.442C69.6243 172.255 71.0619 172.136 71.8748 171.177Z" fill="#169A97"/>
<path d="M71.6354 171.311C71.8602 171.044 71.8274 170.645 71.5605 170.419C71.2949 170.194 70.8965 170.227 70.6717 170.494C70.4468 170.76 70.4784 171.158 70.7453 171.384C71.0109 171.609 71.4093 171.576 71.6354 171.311Z" fill="white"/>
<path d="M79.6755 174.978C79.1284 173.013 79.8676 171.305 81.0553 170.967C82.8429 170.457 86.3535 171.339 87.1269 173.226C87.8754 175.053 86.3969 177.41 84.0083 177.823C81.9156 178.185 80.203 176.88 79.6755 174.978Z" fill="#FAFDFF"/>
<path d="M85.8772 177.599C83.4623 179.53 79.9858 177.405 79.657 174.912C80.2042 176.876 82.0562 178.054 83.9897 177.718C85.1854 177.512 86.2376 176.775 86.8059 175.748C87.2583 174.929 87.3938 173.884 87.0834 173.126C87.5411 173.707 87.6543 176.179 85.8772 177.599Z" fill="#9C4734"/>
<path d="M84.4539 175.402C85.2668 174.443 85.1471 173.006 84.1882 172.193C83.228 171.379 81.7917 171.498 80.9775 172.459C80.1659 173.418 80.2843 174.855 81.2445 175.668C82.2034 176.481 83.641 176.362 84.4539 175.402Z" fill="#169A97"/>
<path d="M84.2145 175.536C84.4394 175.269 84.4065 174.87 84.1409 174.644C83.874 174.419 83.4756 174.452 83.2508 174.719C83.0259 174.985 83.0575 175.384 83.3244 175.609C83.59 175.835 83.9884 175.801 84.2145 175.536Z" fill="white"/>
<path d="M76.3668 167.965C76.4405 167.99 76.4878 168.064 76.4747 168.143C76.3852 168.702 76.6878 169.184 77.2481 169.371C77.8111 169.561 78.3569 169.357 78.6042 168.862C78.645 168.783 78.7423 168.752 78.8212 168.791C78.9002 168.831 78.9317 168.927 78.8923 169.007C78.5739 169.64 77.8558 169.915 77.1455 169.678C76.4405 169.44 76.0432 168.803 76.1577 168.093C76.1721 168.003 76.2537 167.944 76.3405 167.958L76.3668 167.965Z" fill="#C68C75"/>
<path d="M73.0835 164.219C73.6807 162.175 76.4258 161.176 79.2143 161.992C82.0015 162.806 83.7785 165.124 83.1813 167.169C82.5842 169.214 80.327 168.138 77.4978 167.459C74.6737 166.781 72.4863 166.264 73.0835 164.219Z" fill="#61120B"/>
<path d="M78.3488 163.84C79.8562 164.281 81.307 164.226 82.2619 163.781C81.5293 162.976 80.4796 162.312 79.2274 161.946C77.8187 161.534 76.4205 161.578 75.2959 161.982C75.9194 162.754 77.0111 163.45 78.3488 163.84Z" fill="#D56654"/>
<path d="M73.9866 166.406C74.8271 166.867 76.0753 167.166 77.4827 167.504C79.0717 167.886 80.4804 168.388 81.5287 168.413C81.3695 167.474 80.0424 166.42 78.2377 165.893C76.3055 165.328 74.5061 165.566 73.9866 166.406Z" fill="white"/>
<path d="M55.5847 169.69C57.3538 170.983 58.2035 172.683 57.3459 176.141C56.1292 176.085 55.4847 176.29 54.272 176.373C58.2272 178.708 55.7583 185.024 60.579 189.284C68.6999 195.5 77.8205 195.107 80.6498 194.287C85.8624 192.776 87.454 189.234 88.9469 185.185C90.6226 181.607 91.7249 180.715 93.811 180.373C91.9998 179.212 90.67 179.435 89.7913 179.977C90.6568 177.673 91.9011 177.211 93.3388 176.482C90.2872 175.457 87.1475 177.486 85.919 179.705C84.5497 182.169 85.3297 185.584 84.6457 186.509C84.2498 187.043 81.2311 189.93 80.3683 189.72C78.486 189.261 78.3887 181.814 71.7541 180.098C73.9876 182.36 74.8307 184.916 75.4265 188.395C75.0017 187.923 74.5953 187.381 74.2178 186.756C70.2441 180.16 65.6076 177.5 60.8289 176.636C62.0772 171.528 64.1107 169.263 58.7704 165.715C59.1058 166.563 59.2874 168.885 58.9296 170.582C58.4153 169.993 57.3656 169.31 55.5847 169.69Z" fill="#C77457"/>
<path d="M63.3264 176.294C63.4342 176.313 63.5329 176.37 63.6052 176.461C64.522 177.627 66.5424 178.267 68.3102 177.943C68.5561 177.897 68.7929 178.062 68.8389 178.31C68.8863 178.558 68.7219 178.793 68.4733 178.84C66.3648 179.223 64.0143 178.459 62.8884 177.022C62.7345 176.824 62.7687 176.54 62.9673 176.383C63.0725 176.3 63.204 176.271 63.3264 176.294Z" fill="#9C4734"/>
<path d="M84.1777 183.217C84.2908 183.269 84.3803 183.369 84.4184 183.499C84.4881 183.739 84.3513 183.993 84.1093 184.064C82.356 184.577 80.0015 183.832 78.5086 182.294C78.335 182.113 78.3402 181.825 78.5191 181.651C78.7006 181.475 78.99 181.48 79.1623 181.66C80.4132 182.952 82.4296 183.61 83.8541 183.19C83.9646 183.157 84.0791 183.169 84.1777 183.217Z" fill="#9C4734"/>
<path d="M105.414 174.427C105.624 174.29 105.989 174.395 106.568 174.539C107.068 174.665 107.81 174.877 108.182 174.733C108.576 174.582 108.42 174.182 107.925 173.847C107.109 173.289 105.218 172.098 104.236 171.576C102.621 170.578 100.337 170.987 99.3941 172.544C97.9814 174.882 97.575 175.87 96.7595 177.337C96.5582 177.697 97.4724 177.768 97.9144 177.409C98.8601 176.641 98.8838 176.199 99.4007 175.841C99.9031 175.495 100.256 175.833 100.499 176.353C100.928 179.219 100.863 180.921 101.705 181.178C102.435 181.279 102.409 179.256 102.275 176.979C103.347 179.191 104.394 180.871 104.94 180.491C105.584 180.041 105.063 178.075 104.049 176.287C105.677 177.233 107.04 178.414 107.604 177.819C108.111 177.288 104.825 174.815 105.414 174.427Z" fill="#FBC1A0"/>
<path d="M49.7697 154.656C49.6947 154.435 49.3317 154.277 48.7726 154.017C48.2899 153.789 47.552 153.47 47.3521 153.145C47.139 152.799 47.5323 152.63 48.1531 152.712C49.1817 152.85 51.4928 153.231 52.6305 153.493C54.5917 153.833 56.1425 155.52 55.8465 157.14C55.4033 159.567 55.0639 160.476 54.7298 161.956C54.6469 162.32 53.8696 161.8 53.7578 161.287C53.5197 160.19 53.7985 159.882 53.6249 159.326C53.4566 158.783 52.9462 158.789 52.4043 158.984C50.1327 160.62 49.0383 161.793 48.1939 161.44C47.5428 161.053 48.9226 159.726 50.5628 158.299C48.2176 159.102 46.2511 159.569 46.0709 158.979C45.8579 158.279 47.5967 157.296 49.6105 156.738C47.673 156.356 45.7895 156.296 45.7382 155.552C45.6921 154.884 49.9801 155.281 49.7697 154.656Z" fill="#FBC1A0"/>
<path d="M45.9817 148.332C45.9041 147.309 45.6226 145.789 45.495 142.87C45.4805 142.536 46.7959 141.915 46.7617 142.253C46.5644 144.215 47.3957 147.974 45.9817 148.332Z" fill="#E0956C"/>
<path d="M44.6534 149.094C44.5758 148.07 43.901 145.655 44.5455 142.915C44.6258 142.577 45.9451 142.123 45.9122 142.461C45.7149 144.421 45.8122 148.771 44.6534 149.094Z" fill="#E0956C"/>
<path d="M42.8486 149.235C42.771 148.212 43.2182 142.564 43.8627 139.824C43.9429 139.485 46.3868 139.753 46.6512 140.24C47.7666 140.928 47.5351 143.071 49.0333 145.331C49.2924 145.721 48.5716 145.806 48.3625 145.743C47.8245 145.581 47.7679 145.365 46.6433 144.557C45.9567 144.065 45.1715 144.607 44.886 145.094C44.0048 147.354 43.8154 149.047 42.8486 149.235Z" fill="#FBC1A0"/>
<path d="M15.8419 148.347C26.2989 148.922 35.1458 149.735 39.5759 150.079C45.8185 128.999 33.916 111.36 29.8989 108.028C24.6021 107.756 16.4733 108.006 7.64868 113.272C12.8311 123.949 12.0616 143.295 15.8419 148.347Z" fill="#8F6456"/>
<path d="M44.1076 141.545C45.0678 141.437 46.0136 141.366 46.9816 141.352C46.5068 135.489 46.0372 129.873 43.8169 124.389C42.2162 125.258 40.6062 125.973 38.9673 126.772C41.5164 131.457 42.9054 136.356 44.1076 141.545Z" fill="#FBC1A0"/>
<path d="M40.2616 131.083C43.0053 131.283 46.3003 127.697 46.1608 126.956C46.1608 126.956 44.639 121.212 38.2951 124.478C38.2175 124.644 40.2616 131.083 40.2616 131.083Z" fill="white"/>
<path d="M39.2084 127.708C40.8552 126.556 42.4915 125.405 44.1159 124.258C43.5872 124.349 43.0571 124.442 42.5349 124.534C41.359 125.363 40.1818 126.193 38.9993 127.022C39.0677 127.247 39.1374 127.477 39.2084 127.708Z" fill="#2F4397"/>
<path d="M45.9148 126.304C43.9668 127.681 42.0267 129.059 40.0576 130.437C40.1826 130.832 40.2615 131.083 40.2615 131.083C40.2839 131.086 40.3049 131.082 40.3273 131.083C42.2871 129.71 46.1608 126.957 46.1608 126.957C46.1608 126.957 46.0858 126.683 45.9148 126.304Z" fill="#2F4397"/>
<path d="M22.7681 103.903C23.3021 103.098 23.798 102.289 24.2531 101.435C29.2527 104.535 34.0313 107.518 37.8958 111.998C36.3897 113.027 35.0191 114.132 33.5591 115.224C30.5575 110.817 26.8351 107.344 22.7681 103.903Z" fill="#FBC1A0"/>
<path d="M30.3171 112.104C31.3918 109.57 36.0888 108.278 36.6821 108.74C36.6821 108.74 41.0963 112.718 35.2931 116.87C35.1102 116.862 30.3171 112.104 30.3171 112.104Z" fill="white"/>
<path d="M32.8374 114.582C34.6157 113.644 36.3862 112.714 38.1487 111.792C37.8265 112.221 37.5016 112.649 37.1806 113.073C35.9061 113.739 34.6302 114.409 33.353 115.083C33.1833 114.919 33.011 114.752 32.8374 114.582Z" fill="#2F4397"/>
<path d="M37.1492 109.257C35.0342 110.362 32.9231 111.459 30.7988 112.58C30.5028 112.288 30.3174 112.104 30.3174 112.104C30.3253 112.083 30.3371 112.065 30.3463 112.044C32.4627 110.929 36.6823 108.74 36.6823 108.74C36.6823 108.74 36.8914 108.932 37.1492 109.257Z" fill="#2F4397"/>
<path d="M54.2666 123.619C54.6572 121.682 55.5543 119.022 53.3103 113.652C51.0493 108.238 48.3699 106.108 47.2664 105.257C47.2664 105.257 36.474 113.132 33.9644 115.131C34.8759 116.891 38.0682 122.976 38.7798 124.927C41.7038 125.098 54.2666 123.619 54.2666 123.619Z" fill="white"/>
<path d="M40.4186 125.126C40.1832 125.143 39.9556 125.159 39.7386 125.172C39.2361 123.359 38.6258 121.44 37.8997 119.435C37.1724 117.427 36.4121 115.561 35.6387 113.843C35.8123 113.71 35.9951 113.575 36.1832 113.431C37.0316 115.289 37.8287 117.238 38.5403 119.204C39.2493 121.163 39.8819 123.163 40.4186 125.126Z" fill="#2F4397"/>
<path d="M44.0316 124.805C43.7949 124.829 43.562 124.851 43.3306 124.875C42.6808 122.709 41.9508 120.498 41.1418 118.262C40.3184 115.987 39.4464 113.783 38.5427 111.671C38.7334 111.531 38.9229 111.39 39.1149 111.246C40.0356 113.408 40.9301 115.674 41.7811 118.03C42.6163 120.336 43.3674 122.602 44.0316 124.805Z" fill="#2F4397"/>
<path d="M51.3459 123.983C51.1249 124.01 50.896 124.037 50.658 124.066C49.7451 121.203 48.7612 118.309 47.709 115.402C46.7041 112.621 45.6557 109.893 44.5771 107.226C44.7731 107.08 44.9625 106.942 45.1441 106.809C46.2489 109.538 47.3209 112.328 48.3509 115.169C49.4202 118.126 50.4199 121.07 51.3459 123.983Z" fill="#2F4397"/>
<path d="M47.8801 124.391C47.6499 124.418 47.4171 124.443 47.183 124.47C46.3688 121.859 45.4836 119.214 44.5194 116.556C43.6276 114.088 42.6937 111.672 41.7283 109.319C41.9203 109.177 42.1097 109.037 42.2978 108.899C43.2791 111.293 44.2366 113.771 45.1613 116.323C46.1517 119.058 47.0567 121.754 47.8801 124.391Z" fill="#2F4397"/>
<path d="M48.5428 108.404L47.8838 107.212C45.8871 108.315 38.4029 113.191 34.0623 116.28L34.8528 117.39C39.367 114.176 46.7934 109.37 48.5428 108.404Z" fill="#2F4397"/>
<path d="M53.3022 117.693C50.928 118.583 42.9939 121.506 37.8298 123.234L38.2626 124.526C43.4437 122.793 51.4015 119.859 53.7796 118.969L53.3022 117.693Z" fill="#2F4397"/>
<path d="M32.3389 119.559L35.91 117.826C36.6782 117.453 37.8094 118.201 38.4394 119.498C39.0668 120.793 38.955 122.146 38.1869 122.52L34.617 124.252L32.3389 119.559Z" fill="#E0956C"/>
<path d="M17.048 106.157C20.6375 105.46 24.1271 107.606 24.9321 110.088C25.7358 112.571 23.33 114.274 20.0588 115.334C16.7862 116.394 13.4729 115.243 12.6771 112.758C11.5893 109.36 13.6755 106.812 17.048 106.157Z" fill="#FBC1A0"/>
<path d="M19.0828 108.634C20.5178 108.168 22.0134 108.819 22.4238 110.084C22.8342 111.348 22.0029 112.753 20.5665 113.216C19.1328 113.682 17.6373 113.033 17.2269 111.767C16.8165 110.502 17.6478 109.1 19.0828 108.634Z" fill="#E0956C"/>
<path d="M35.5669 144.316C38.3343 141.927 38.8105 137.86 37.357 135.689C35.9036 133.523 33.0782 134.359 30.2226 136.275C27.3644 138.189 26.2174 141.504 27.6775 143.669C29.6741 146.625 32.9638 146.562 35.5669 144.316Z" fill="#FBC1A0"/>
<path d="M34.7974 141.016C36.0496 140.174 36.4666 138.598 35.7261 137.493C34.9855 136.387 33.3677 136.172 32.1155 137.013C30.8633 137.854 30.4463 139.429 31.1881 140.534C31.9274 141.639 33.5439 141.855 34.7974 141.016Z" fill="#E0956C"/>
<path d="M23.8676 146.69C33.8589 141.839 34.9927 132.737 30.2891 123.042C25.5854 113.35 17.6408 108.422 7.6495 113.272C-2.34312 118.122 -1.21193 126.358 3.49172 136.051C8.19668 145.743 13.875 151.54 23.8676 146.69Z" fill="#8F6456"/>
<path d="M19.1238 144.353C21.273 144.373 35.7575 137.81 36.9453 134.839C38.204 131.684 36.3428 122.538 35.4892 120.78C34.5763 118.898 28.631 111.386 25.3769 111.001C21.5256 110.543 9.35081 116.536 8.02627 117.92C3.55017 122.603 4.0842 127.681 7.40148 134.515C10.503 140.908 13.5507 144.306 19.1238 144.353Z" fill="#FBC1A0"/>
<path d="M32.4097 136.264C33.0647 136.015 33.2502 134.905 32.8253 133.783C32.4005 132.662 31.5258 131.953 30.8721 132.201C30.217 132.449 30.0316 133.559 30.4564 134.682C30.8813 135.802 31.756 136.511 32.4097 136.264Z" fill="#F59597"/>
<path d="M24.2887 117.63C24.903 117.292 24.9293 116.167 24.3506 115.116C23.7718 114.065 22.805 113.488 22.1921 113.826C21.5791 114.163 21.5528 115.29 22.1316 116.34C22.7116 117.39 23.6771 117.968 24.2887 117.63Z" fill="#F59597"/>
<path d="M25.9742 129.304C27.3579 130.217 30.0386 135.465 28.0866 137.073C27.1527 137.844 24.9061 136.907 24.0985 134.863C23.3738 133.021 23.9486 130.676 25.9742 129.304Z" fill="#FAFDFF"/>
<path d="M26.7359 137.746C25.7809 137.552 24.509 136.41 23.9645 134.917C23.3028 133.103 24.0408 131.796 24.0408 131.796C23.7224 132.767 23.8711 133.888 24.2354 134.81C24.776 136.185 25.9085 136.916 26.7122 137.123C27.2449 137.262 27.7 137.204 27.9947 136.961C28.3117 136.699 28.6839 136.105 28.7628 135.606C28.7036 136.965 27.7487 137.952 26.7359 137.746Z" fill="#602220"/>
<path d="M25.2086 132.028C26.0899 131.484 27.246 131.756 27.7906 132.639C28.3351 133.52 28.0615 134.676 27.1803 135.221C26.299 135.766 25.1428 135.492 24.5983 134.611C24.0537 133.729 24.3273 132.573 25.2086 132.028Z" fill="#451E15"/>
<path d="M24.9412 132.231C25.1858 132.079 25.5066 132.154 25.6565 132.399C25.8077 132.644 25.7327 132.964 25.4882 133.116C25.2423 133.267 24.9215 133.191 24.7716 132.946C24.6204 132.701 24.6954 132.381 24.9412 132.231Z" fill="white"/>
<path d="M22.9067 122.983C23.0448 121.331 20.5799 115.979 18.111 116.517C16.9272 116.773 16.2722 119.119 17.3797 121.017C18.378 122.727 20.5773 123.725 22.9067 122.983Z" fill="#FAFDFF"/>
<path d="M16.7462 117.161C16.3082 118.032 16.4174 119.737 17.2553 121.089C18.2694 122.731 19.7518 122.96 19.7518 122.96C18.7929 122.61 18.0037 121.797 17.5052 120.943C16.7594 119.667 16.8857 118.326 17.2198 117.565C17.4407 117.061 17.7683 116.739 18.1418 116.658C18.543 116.571 19.2401 116.644 19.6794 116.893C18.5785 116.097 17.2106 116.238 16.7462 117.161Z" fill="#602220"/>
<path d="M18.6833 118.5C19.5659 117.955 20.7208 118.228 21.2653 119.11C21.8112 119.992 21.5376 121.148 20.6563 121.693C19.7751 122.237 18.6176 121.964 18.073 121.082C17.5298 120.201 17.8021 119.045 18.6833 118.5Z" fill="#451E15"/>
<path d="M18.4159 118.702C18.6605 118.551 18.9813 118.626 19.1325 118.87C19.2824 119.115 19.2074 119.436 18.9629 119.587C18.7183 119.738 18.3975 119.662 18.2463 119.417C18.0964 119.173 18.1714 118.852 18.4159 118.702Z" fill="white"/>
<path d="M26.181 126.505C26.1494 126.437 26.0731 126.403 25.9995 126.424C25.4826 126.578 24.988 126.349 24.742 125.842C24.4947 125.331 24.6223 124.79 25.059 124.496C25.1301 124.448 25.1485 124.351 25.1011 124.283C25.0538 124.212 24.9577 124.193 24.8893 124.241C24.3277 124.619 24.1541 125.332 24.4658 125.976C24.7775 126.615 25.4286 126.914 26.0876 126.719C26.1679 126.695 26.2139 126.608 26.1915 126.528L26.181 126.505Z" fill="#C68C75"/>
<path d="M31.1531 129.877C33.0012 128.69 33.5891 125.487 32.1988 122.623C30.8085 119.761 27.7859 118.112 25.801 118.848C22.8652 119.937 26.414 121.893 27.6728 124.82C28.9302 127.744 28.2291 131.754 31.1531 129.877Z" fill="#6F1811"/>
<path d="M30.4777 123.839C29.7267 122.291 29.4952 120.726 29.7596 119.635C30.7303 120.294 31.6195 121.316 32.2442 122.602C32.9466 124.048 33.1794 125.554 32.99 126.824C32.0759 126.275 31.1446 125.214 30.4777 123.839Z" fill="#D56F5F"/>
<path d="M28.7178 128.917C28.0785 128.088 28.0325 126.407 27.4064 124.95C26.7001 123.305 25.3939 122.259 25.1611 121.141C26.1542 121.164 27.4972 122.425 28.3969 124.277C29.361 126.262 29.4741 128.232 28.7178 128.917Z" fill="white"/>
<path d="M20.0935 139.224C20.0343 139.138 19.9462 139.074 19.8383 139.048C18.4625 138.712 17.1103 137.206 16.696 135.542C16.6407 135.31 16.4014 135.168 16.1685 135.228C15.9357 135.285 15.7937 135.521 15.8515 135.754C16.3474 137.737 17.9377 139.478 19.6318 139.892C19.8659 139.949 20.1014 139.805 20.1566 139.573C20.1869 139.448 20.1619 139.321 20.0935 139.224Z" fill="#8F6456"/>
<path d="M10.881 120.292C10.8389 120.18 10.7521 120.087 10.6324 120.041C10.4088 119.953 10.1563 120.063 10.0708 120.287C9.43676 121.911 9.95369 124.212 11.2927 125.758C11.4519 125.938 11.7254 125.958 11.9056 125.8C12.0872 125.642 12.1082 125.367 11.9491 125.188C10.8244 123.894 10.3628 121.922 10.8784 120.602C10.9191 120.499 10.9165 120.389 10.881 120.292Z" fill="#8F6456"/>
<path d="M1.91269 123.844C1.88507 126.888 3.54371 131.679 5.59432 135.683C7.8225 140.036 10.7241 144.208 13.4955 145.794C15.3278 146.843 23.9288 144.769 22.9107 144.334C21.7467 143.835 20.3932 142.782 19.0081 141.386C18.0611 141.619 15.3673 141.549 14.974 141.466C15.4607 141.32 17.0943 140.644 17.9585 140.274C16.3446 138.472 14.7372 136.285 13.3785 134.039C12.5196 134.552 11.1424 134.715 11.0806 134.745C11.2042 134.338 12.1618 133.146 12.5669 132.639C12.3762 132.295 12.1921 131.949 12.0171 131.605C10.4058 128.459 9.4088 126.028 8.81295 123.987C6.13624 125.523 5.28916 125.986 5.48515 125.904C5.88896 125.266 7.33583 123.962 8.6117 123.253C8.41046 122.479 8.27235 121.758 8.17764 121.074C7.35293 121.431 5.97445 121.926 5.74295 122.016C5.764 121.695 7.28058 120.311 8.04611 119.706C7.97771 118.516 8.03427 117.4 8.13424 116.227C8.24209 114.946 1.93374 121.391 1.91269 123.844Z" fill="#8F6456"/>
<path d="M4.86069 116.453C-4.81755 126.351 4.66076 148.092 18.5941 146.853C9.64063 143.723 -0.0494586 131.092 4.86069 116.453Z" fill="#BD2D81"/>
<path d="M18.2222 98.7384C19.0495 99.3619 20.1741 100.429 22.5904 102.124C22.8666 102.319 24.1885 101.526 23.8794 101.372C22.0866 100.476 19.3823 97.7202 18.2222 98.7384Z" fill="#E0956C"/>
<path d="M16.7708 99.4642C17.5994 100.088 19.2528 101.979 21.9795 102.915C22.3162 103.03 23.4987 102.142 23.1909 101.989C21.3994 101.091 17.7441 98.6446 16.7708 99.4642Z" fill="#E0956C"/>
<path d="M15.562 100.936C16.3894 101.559 21.4784 104.245 24.2051 105.18C24.5418 105.295 25.7861 103.052 25.5296 102.561C25.6191 101.231 23.6487 100.264 22.6241 97.7503C22.4465 97.3162 21.9414 97.8897 21.8691 98.1028C21.6823 98.6527 21.8322 98.8185 21.8414 100.222C21.848 101.077 20.9115 101.457 20.3248 101.438C17.8639 100.965 16.3052 100.208 15.562 100.936Z" fill="#FBC1A0"/>
<path d="M46.8321 85.5464C60.0986 79.2966 59.3225 70.5605 58.4781 68.7136C55.2187 68.3597 48.5696 65.8709 44.8315 64.1068C43.1268 66.622 41.6128 68.7096 38.3311 72.3627C39.2991 75.9776 45.7272 83.9731 46.8321 85.5464Z" fill="#42A4CB"/>
<path d="M48.6459 48.6462C49.7586 48.6672 50.8477 48.6488 51.9566 48.5646C52.0342 55.3262 52.0934 61.8049 50.1335 68.3191C48.2066 67.493 46.3717 66.6524 44.4092 65.9105C46.832 60.2763 47.8185 54.7158 48.6459 48.6462Z" fill="#FBC1A0"/>
<path d="M47.9778 52.1185C49.1392 52.1895 51.4279 52.3842 52.5749 52.5329C52.98 58.2749 52.0053 64.3011 50.3914 69.3999C48.3408 68.6067 46.2376 66.6585 44.1567 65.9363C45.8811 61.5491 47.2938 56.6003 47.9778 52.1185Z" fill="#42A4CB"/>
<path d="M24.5303 89.2886C24.6671 89.5214 24.529 89.9581 24.3343 90.6435C24.166 91.2381 23.8871 92.1234 24.0174 92.5457C24.1581 92.9929 24.6027 92.7772 25.0012 92.1708C25.6615 91.1723 27.0795 88.865 27.7121 87.6719C28.9038 85.7026 28.6066 83.0703 26.969 82.1008C24.5132 80.6485 23.4623 80.2565 21.9181 79.4265C21.5379 79.2226 21.4025 80.2947 21.7642 80.7801C22.5415 81.8206 23.023 81.8114 23.3768 82.3837C23.7227 82.9427 23.3307 83.3834 22.7494 83.7096C19.5991 84.4503 17.7471 84.5173 17.4144 85.5237C17.2578 86.384 19.4623 86.1854 21.9523 85.8368C19.4729 87.2746 17.5748 88.6374 17.955 89.2412C18.4035 89.9568 20.5777 89.1846 22.5915 87.8494C21.4577 89.8305 20.0819 91.5196 20.6935 92.13C21.2407 92.6759 24.1449 88.6321 24.5303 89.2886Z" fill="#FBC1A0"/>
<path d="M24.9043 82.9025C25.3726 83.9115 25.7974 84.9152 26.1683 85.9636C32.3846 83.2998 38.3313 80.732 43.4953 76.3015C41.9603 74.8742 40.4476 73.5377 38.9758 72.0433C34.8048 76.5383 30.1196 79.6915 24.9043 82.9025Z" fill="#FBC1A0"/>
<path d="M27.8086 80.8882C28.3439 81.9208 29.4475 83.9348 30.0499 84.9241C35.4625 82.9706 40.5779 79.6411 44.5884 76.1012C43.0336 74.5476 40.399 73.4111 38.8982 71.8009C35.5849 75.1554 31.631 78.4493 27.8086 80.8882Z" fill="#42A4CB"/>
<path d="M39.0492 64.1379L42.7124 66.8596C43.5003 67.4463 43.3371 68.9973 42.3493 70.3272C41.3615 71.6572 39.9212 72.261 39.1333 71.6756L35.4714 68.9526L39.0492 64.1379Z" fill="#E4A78E"/>
<path d="M18.3351 72.5084C21.1815 74.9565 24.5185 75.4919 25.6891 74.3119C26.8598 73.1345 25.2011 70.6864 22.6915 68.1752C20.1805 65.6653 17.192 64.58 16.0266 65.7639C14.4364 67.3833 15.6584 70.2063 18.3351 72.5084Z" fill="#F5B18C"/>
<path d="M21.183 72.3377C22.5457 73.0454 23.8874 72.8994 24.1754 72.0101C24.4648 71.1209 23.594 69.8251 22.23 69.1174C20.866 68.4097 19.5257 68.5557 19.2376 69.4449C18.9483 70.3355 19.819 71.63 21.183 72.3377Z" fill="#E0956C"/>
<path d="M14.7642 63.701C22.9443 71.9701 31.7886 70.5796 39.0217 63.4234C46.256 56.2673 47.8818 47.2984 39.7017 39.0293C31.5216 30.7602 23.0522 34.3857 15.8191 41.5419C8.58478 48.6994 6.58415 55.4319 14.7642 63.701Z" fill="#915E5D"/>
<path d="M11.7185 58.9104C11.7054 59.4353 11.9434 59.9339 12.8445 60.6876C19.6842 66.4021 18.966 68.4358 22.8252 72.3388C26.6252 76.1787 31.3789 76.1471 35.196 73.7371C38.9237 71.3838 47.3287 63.8382 43.8128 51.8845C42.3212 46.812 35.4104 39.9755 33.5676 39.1494C27.3487 36.3566 25.3928 39.1941 19.508 45.0151C14.0033 50.4611 11.8698 52.9553 11.7185 58.9104Z" fill="#FBC1A0"/>
<path d="M48.1745 45.8972C49.841 49.4372 48.5362 53.6125 46.1739 55.0924C43.8128 56.571 41.4176 54.5202 39.4578 51.4025C37.4992 48.2835 37.8215 44.5502 40.1878 43.0782C43.4222 41.0681 46.6092 42.5691 48.1745 45.8972Z" fill="#FBC1A0"/>
<path d="M45.595 49.6677C46.2119 51.3529 45.2898 53.0959 44.4007 53.2958C43.401 53.5181 42.7473 52.7841 41.9147 51.3371C40.9426 49.6454 40.8729 48.2891 42.1238 47.73C43.4247 47.1499 44.8702 47.6827 45.595 49.6677Z" fill="#E0956C"/>
<path d="M24.6113 72.9877C25.0269 73.4731 25.9411 73.3719 26.6527 72.7615C27.3643 72.1524 27.6024 71.2645 27.1867 70.7791C26.7724 70.2937 25.8569 70.395 25.1466 71.0054C24.435 71.6157 24.1957 72.5037 24.6113 72.9877Z" fill="#F59597"/>
<path d="M38.5211 59.8535C39.0472 60.3166 40.1153 59.9588 40.9058 59.0577C41.6963 58.1565 41.912 57.0515 41.3872 56.5898C40.8598 56.1281 39.793 56.4846 39.0012 57.3857C38.2107 58.2881 37.9963 59.3918 38.5211 59.8535Z" fill="#F59597"/>
<path d="M27.5772 65.8797C27.5772 65.8797 25.8515 69.6564 23.0945 68.9723C19.7338 68.137 20.0535 64.5366 21.6463 63.6026C23.1195 62.737 25.3872 62.8909 27.5772 65.8797Z" fill="#FAFDFF"/>
<path d="M20.2337 66.4938C19.989 65.2244 20.4389 64.3035 21.2728 63.655C22.1238 62.9907 23.5325 62.8683 24.4046 63.3143C23.2576 62.9736 22.2803 63.4011 21.7305 63.7247C20.8519 64.2377 20.3021 65.5203 20.6322 66.6819C20.9255 67.7132 21.9489 68.6854 23.1827 68.9905C22.108 69.0169 20.4862 67.8171 20.2337 66.4938Z" fill="#874945"/>
<path d="M24.8439 64.0517C25.8449 64.5569 26.3802 65.7211 26.0409 66.6511C25.7015 67.5825 24.6164 67.9258 23.6154 67.422C22.6157 66.9169 22.0778 65.754 22.4171 64.8226C22.7565 63.8926 23.8429 63.5479 24.8439 64.0517Z" fill="#1F5385"/>
<path d="M24.5107 63.9187C24.7881 64.058 24.9367 64.3815 24.8433 64.6392C24.75 64.8969 24.4476 64.9916 24.1702 64.8522C23.8927 64.7129 23.7442 64.3894 23.8388 64.1317C23.9335 63.874 24.2333 63.778 24.5107 63.9187Z" fill="white"/>
<path d="M33.0043 60.51C33.0043 60.51 37.3133 58.3158 36.8569 55.356C36.2979 51.7503 32.3269 52.3922 31.1391 54.2115C30.0382 55.8927 29.9671 58.3579 33.0043 60.51Z" fill="#FAFDFF"/>
<path d="M34.4481 52.4308C33.0867 52.2677 32.0331 52.8347 31.236 53.7976C30.4192 54.7842 30.139 56.3325 30.5336 57.2507C30.2837 56.0234 30.8532 54.921 31.2636 54.2922C31.9174 53.2898 33.3774 52.5847 34.6112 52.8505C35.7081 53.0873 36.6644 54.1278 36.8696 55.4512C37.009 54.2738 35.8686 52.6005 34.4481 52.4308Z" fill="#874945"/>
<path d="M34.3582 54.562C35.4066 55.0211 35.884 56.2405 35.4263 57.289C34.9686 58.3361 33.7479 58.8149 32.6996 58.3571C31.6526 57.8994 31.1738 56.6786 31.6329 55.6302C32.0893 54.583 33.3112 54.1042 34.3582 54.562Z" fill="#1F5385"/>
<path d="M34.0072 54.4457C34.2991 54.5745 34.4305 54.9112 34.3043 55.2031C34.1768 55.4937 33.8389 55.6252 33.547 55.4989C33.2577 55.3714 33.1236 55.0335 33.2512 54.7428C33.3774 54.4522 33.7166 54.3194 34.0072 54.4457Z" fill="white"/>
<path d="M16.1978 63.2757C16.1017 63.3573 15.9715 63.3994 15.836 63.381C15.5835 63.3468 15.4072 63.1139 15.4441 62.8614C15.6756 61.1999 17.1803 59.5095 19.0284 58.8399C19.2691 58.7531 19.5335 58.8781 19.6203 59.1175C19.7058 59.3569 19.5782 59.62 19.3427 59.7068C17.8222 60.2554 16.5398 61.6656 16.3556 62.9876C16.3385 63.1034 16.2793 63.2047 16.1978 63.2757Z" fill="#874945"/>
<path d="M30.3145 49.2052C30.2448 49.2894 30.1448 49.3499 30.029 49.3683C28.7124 49.5748 27.326 50.8863 26.8052 52.4175C26.7223 52.657 26.4619 52.7872 26.2198 52.7056C25.9791 52.6241 25.8502 52.361 25.9331 52.1216C26.5644 50.2615 28.2257 48.7211 29.8857 48.4593C30.1356 48.4185 30.3737 48.5895 30.4118 48.8421C30.4342 48.9763 30.3947 49.1078 30.3145 49.2052Z" fill="#874945"/>
<path d="M29.6541 65.7501C29.7041 65.7015 29.712 65.6212 29.6712 65.5621C29.3741 65.1413 29.428 64.6271 29.8093 64.2484C30.1932 63.8697 30.7217 63.8184 31.1214 64.1222C31.1859 64.1709 31.2779 64.1577 31.3252 64.0946C31.3752 64.0288 31.362 63.9381 31.2976 63.8895C30.7848 63.5002 30.088 63.5633 29.6042 64.0407C29.1243 64.518 29.0546 65.1965 29.4319 65.7304C29.4779 65.7961 29.5713 65.8119 29.6357 65.7659L29.6541 65.7501Z" fill="#C68C75"/>
<path d="M43.3189 43.3496C41.2709 44.177 39.3597 43.9994 36.8422 41.4158C37.5354 40.4042 37.7011 39.7412 38.2706 38.656C34.1707 40.8028 30.0498 35.3147 23.8348 37.1761C14.1947 40.8239 9.70415 48.8575 8.91232 51.7226C7.4523 57.0016 9.65154 60.2561 12.3414 63.6986C14.5301 67.0465 14.7143 68.4686 13.9027 70.4431C15.8586 69.5065 16.3729 68.2476 16.3716 67.2044C17.6896 68.2344 17.8145 69.5196 17.6804 71.1416C19.2364 69.4446 19.8993 69.2894 18.6445 67.0492C17.2502 64.5603 13.3305 61.3637 12.8452 60.6875C12.4506 60.1416 9.46608 57.5514 12.9859 53.9194C14.3447 52.5184 20.828 56.4412 25.8144 51.6647C22.6905 52.375 20.0453 51.7331 16.7412 50.3874C17.3699 50.2756 18.0513 50.215 18.7892 50.2256C26.5615 50.3374 31.302 47.7801 34.5745 44.1428C38.3035 47.938 39.1743 50.8925 45.0499 48.205C44.1436 48.0392 42.0509 46.9566 40.7829 45.7437C41.5603 45.6175 42.7033 45.0794 43.3189 43.3496Z" fill="#915E5D"/>
<path d="M30.0282 69.4884C31.629 70.6763 34.4872 70.037 36.1195 67.8388C37.7532 65.6406 37.5243 62.7321 35.9249 61.5429C34.3254 60.355 33.4928 62.6084 31.7539 64.7264C30.0151 66.843 28.4288 68.2992 30.0282 69.4884Z" fill="#580C0D"/>
<path d="M29.739 67.2786C30.1415 66.5025 30.8978 65.6606 31.6949 64.6871C32.5894 63.5992 33.1405 62.4561 33.8481 61.801C34.2598 63.1033 34.2796 64.57 33.4575 65.6764C32.5986 66.8327 31.1727 67.3549 29.739 67.2786Z" fill="white"/>
<path d="M34.0202 67.889C34.7305 66.4551 36.0721 64.7963 37.2836 64.3188C37.3217 65.4567 37.01 66.759 36.1774 67.8811C35.4118 68.9111 34.3385 69.5846 33.3796 69.8398C33.5112 69.1782 33.6809 68.5717 34.0202 67.889Z" fill="#CF6C5C"/>
<g opacity="0.270004">
<g opacity="0.270004">
<g opacity="0.270004">
<path opacity="0.270004" d="M52.3875 45.1288C52.6387 45.1117 52.9031 44.7762 53.328 44.2658C53.6963 43.8238 54.2303 43.1437 54.6249 43.024C55.0458 42.8977 55.1155 43.3529 54.863 43.9803C54.4421 45.013 53.4187 47.319 52.8374 48.4332C51.9548 50.3867 49.3004 52.0797 47.6799 51.3246C45.2492 50.1933 44.8519 49.0462 43.3867 48.2872C43.0262 48.1017 43.7826 47.4335 44.3508 47.4585C45.5662 47.5124 45.8161 47.8886 46.4461 47.861C47.0617 47.836 47.1932 47.3019 47.134 46.6823C46.0252 43.862 45.09 42.3965 45.6872 41.6125C46.2686 41.0403 47.2906 42.8477 48.3494 44.9498C48.1363 42.2821 48.1745 40.1023 48.844 40.0773C49.6345 40.0497 50.1988 42.1334 50.2435 44.3881C51.1656 42.4728 51.7351 40.5246 52.5309 40.6759C53.2438 40.8127 51.6759 45.1761 52.3875 45.1288Z" fill="#030404"/>
</g>
</g>
</g>
<path d="M52.8254 45.2856C53.095 45.2658 53.3765 44.9054 53.8329 44.3568C54.2262 43.8819 54.7997 43.1519 55.2206 43.0216C55.6705 42.8835 55.7428 43.3729 55.4692 44.0451C55.0181 45.1527 53.9171 47.6284 53.291 48.8242C52.3427 50.921 50.0027 52.1642 48.277 51.3617C45.6897 50.1594 44.7729 49.5135 43.2142 48.7097C42.8301 48.5098 43.6404 47.7915 44.2454 47.8165C45.5424 47.8691 45.8068 48.2704 46.4802 48.2388C47.1352 48.2085 47.276 47.6363 47.2168 46.972C46.0475 43.9543 45.0557 42.3889 45.6949 41.5457C46.3171 40.9287 47.3996 42.8625 48.5203 45.1106C48.3033 42.2534 48.3546 39.9171 49.0675 39.8869C49.9119 39.854 50.5038 42.085 50.5433 44.5002C51.535 42.4454 52.1493 40.3538 52.9977 40.513C53.758 40.6564 52.0664 45.3395 52.8254 45.2856Z" fill="#FBC1A0"/>
<path d="M46.0641 76.4614L48.5829 73.5555L47.6333 72.732C47.0124 72.194 46.072 72.2611 45.5327 72.882L44.9645 73.5358C44.4265 74.158 44.4936 75.0999 45.1144 75.6379L46.0641 76.4614Z" fill="#DE3E3F"/>
<path d="M46.1062 76.0195L48.1516 73.6596L47.5741 73.1597C46.9625 72.6296 46.0352 72.6953 45.5051 73.3057L45.3815 73.4504C45.2499 73.603 45.1539 73.7753 45.0947 73.9569C44.9185 74.5015 45.0711 75.1211 45.5301 75.5197L46.1062 76.0195Z" fill="#9AD4F0"/>
<path d="M46.534 77.796L51.1666 72.4526L50.7944 72.129C50.0867 71.5159 49.0173 71.5922 48.4044 72.2987L45.1752 76.0241C44.9477 76.2858 44.9753 76.6805 45.2384 76.9067L46.2841 77.8144C46.3564 77.8776 46.4695 77.871 46.534 77.796Z" fill="#DE3E3F"/>
<path d="M49.3328 74.5291C48.8332 74.0965 48.7793 73.3404 49.2118 72.8408C49.6457 72.3398 50.4017 72.2859 50.9014 72.7198L50.9198 72.7369L49.3525 74.5449L49.3328 74.5291Z" fill="#A62237"/>
<path d="M49.5065 74.3302C49.8956 74.6682 50.4847 74.6261 50.8226 74.2369C51.1605 73.8463 51.1197 73.2586 50.7292 72.9206C50.34 72.5814 49.751 72.6235 49.4131 73.0127C49.0752 73.4032 49.116 73.9923 49.5065 74.3302Z" fill="#ECBA26"/>
<path d="M49.8839 73.8935C50.0325 74.0237 50.2573 74.0066 50.3875 73.858C50.515 73.7094 50.4993 73.4832 50.3507 73.3557C50.2021 73.2268 49.9773 73.2426 49.8484 73.3912C49.7196 73.5398 49.7367 73.7646 49.8839 73.8935Z" fill="#7C6427"/>
<path d="M46.6275 77.6497C46.1279 77.2171 46.074 76.4597 46.5079 75.96C46.9404 75.4604 47.6964 75.4064 48.1961 75.8404L48.2145 75.8575L46.6472 77.6655L46.6275 77.6497Z" fill="#A62237"/>
<path d="M46.8011 77.4506C47.1903 77.7885 47.7793 77.7464 48.1186 77.3572C48.4565 76.9667 48.4144 76.3776 48.0252 76.0397C47.6347 75.7017 47.0457 75.7425 46.7078 76.133C46.3699 76.5222 46.4106 77.1126 46.8011 77.4506Z" fill="#ECBA26"/>
<path d="M47.1801 77.0139C47.3273 77.1428 47.5522 77.127 47.6823 76.9784C47.8099 76.8285 47.7954 76.6036 47.6455 76.4761C47.497 76.3459 47.2721 76.363 47.1446 76.5102C47.0144 76.6588 47.0315 76.885 47.1801 77.0139Z" fill="#7C6427"/>
<path d="M50.3232 71.6158L50.9018 72.1182C50.9806 72.0261 50.9149 71.842 50.7558 71.7026C50.5954 71.5646 50.4021 71.5251 50.3232 71.6158Z" fill="#CAA42D"/>
<path d="M50.3374 71.5428L50.9724 72.0937C50.8212 72.2699 50.5556 72.287 50.3794 72.1358C50.2032 71.9833 50.1862 71.7176 50.3374 71.5428Z" fill="#DE3E3F"/>
<path d="M101.434 51.5652C92.4502 57.9505 86.6838 55.2946 83.5085 53.2411C83.5848 50.5549 84.4766 40.3626 84.8726 36.4057C88.3266 36.1399 94.7428 36.1557 98.0088 36.528C99.4531 44.7747 100.711 48.5896 101.434 51.5652Z" fill="#F069A4"/>
<path d="M96.0415 54.093C98.0106 53.9667 99.7416 52.5381 102.188 50.5478C100.929 46.6908 99.4588 40.0135 98.1632 36.2868C97.0122 36.1644 95.7272 36.1671 95.0537 36.1184C95.297 42.6497 95.2392 49.6257 96.0415 54.093Z" fill="#FBCF0C"/>
<path d="M88.9651 54.2422C84.9705 54.3079 84.2786 52.1874 82.7173 51.5928C83.296 48.0423 83.7893 40.2508 84.5075 36.3636C85.5992 36.3044 87.7945 36.1939 88.5626 36.1504C88.4087 42.7923 88.6876 48.9776 88.9651 54.2422Z" fill="#FBCF0C"/>
<path d="M88.9072 33.1741L89.0348 37.1008C89.0624 37.9466 90.3107 38.5912 91.8246 38.5412C93.3373 38.4926 94.5408 37.7677 94.5145 36.9245L94.3869 32.9965L88.9072 33.1741Z" fill="#E0956C"/>
<path d="M103.722 35.868C103.739 40.7878 99.9794 43.036 99.3164 42.9531C99.3164 42.9531 96.5398 36.7099 96.6923 36.1797C97.5565 36.2205 103.722 35.868 103.722 35.868Z" fill="#FBCF0C"/>
<path d="M65.2879 35.7587C65.0156 36.7808 64.7117 37.774 64.3408 38.7671C70.586 40.6035 76.5721 42.3479 83.1225 42.2531C82.8634 40.2734 82.8016 38.6632 82.6319 36.6742C76.7747 37.4214 71.128 36.5848 65.2879 35.7587Z" fill="#FBC1A0"/>
<path d="M79.7644 36.7211C79.9578 39.1205 80.7562 42.9051 84.6233 43.9575C84.6233 43.9575 84.9271 36.9566 84.7259 36.3633C84.2129 36.3817 79.7644 36.7211 79.7644 36.7211Z" fill="#FBCF0C"/>
<path d="M74.0828 38.1712C74.1065 36.4966 74.213 34.968 74.213 34.968C74.213 34.968 73.7697 36.4374 73.4396 38.0739C72.2098 37.8226 70.7563 37.1359 69.2292 35.5902C68.9727 35.3324 68.707 34.8483 68.4518 34.2656C69.4278 33.2842 70.1736 32.4292 70.1736 32.4292C70.1736 32.4292 69.3371 33.0632 68.2624 33.817C68.1651 33.5763 68.073 33.325 67.9809 33.0737C69.4804 32.0595 70.826 30.9453 70.826 30.9453C70.826 30.9453 69.366 31.7214 67.7679 32.462C67.3312 31.1584 67.0208 29.9679 67.0208 29.9679C70.0802 29.8863 73.2489 28.9142 73.2489 28.9142C73.7342 28.8261 75.3271 29.5838 75.7625 29.9679C75.5428 31.3334 76.6214 36.5098 77.0397 37.6319C77.0397 37.6319 75.8638 38.3383 74.0828 38.1712Z" fill="#F89522"/>
<path d="M75.7451 29.1159C76.7263 29.1593 77.4853 29.9907 77.4419 30.9707C77.3984 31.952 76.5672 32.7111 75.5872 32.6677C74.606 32.6229 73.847 31.7929 73.8904 30.8115C73.9339 29.8315 74.7651 29.0725 75.7451 29.1159Z" fill="#53C4C7"/>
<path d="M72.4054 27.1772C73.1302 26.5142 74.2535 26.5642 74.9164 27.2891C75.578 28.0139 75.5294 29.1373 74.8033 29.8003C74.0799 30.4633 72.9553 30.4133 72.2936 29.6885C71.6307 28.9637 71.6807 27.8389 72.4054 27.1772Z" fill="#53C4C7"/>
<path d="M72.3797 25.718C73.3267 29.2527 76.7848 31.4508 79.3694 31.0864C81.9554 30.7207 82.4328 27.8122 81.9514 24.4038C81.47 20.9954 78.984 18.5184 76.3981 18.8933C72.8651 19.4037 71.4892 22.3964 72.3797 25.718Z" fill="#FBC1A0"/>
<path d="M75.4971 26.4617C75.7089 27.9574 76.9492 29.0164 78.2659 28.8322C79.5825 28.6454 80.4809 27.2826 80.2705 25.7882C80.06 24.2952 78.8196 23.2336 77.5017 23.419C76.1837 23.6058 75.288 24.9674 75.4971 26.4617Z" fill="#E0956C"/>
<path d="M109.352 14.2809C109.371 25.8952 102.028 31.1321 91.7315 31.1479C81.4363 31.1663 73.8771 25.9544 73.8587 14.3414C73.8376 2.7271 81.3837 0.0159078 91.6802 0.00012216C101.977 -0.0182945 109.332 2.66658 109.352 14.2809Z" fill="#F89522"/>
<path d="M105.544 9.58798C106.426 11.5336 105.872 28.7031 103.892 31.1012C101.793 33.6427 93.2498 36.0882 91.4531 36.0908C89.5288 36.0934 81.1527 33.9295 79.5204 31.142C77.5894 27.8428 76.7069 12.5702 77.3185 10.7509C79.3849 4.60628 84.7265 4.39054 91.7122 4.37739C98.2494 4.36686 103.257 4.53919 105.544 9.58798Z" fill="#FBC1A0"/>
<path d="M80.0663 27.2713C80.0176 27.9685 80.9476 28.6025 82.1432 28.6867C83.3401 28.7722 84.3503 28.275 84.399 27.5751C84.4477 26.8779 83.5177 26.2452 82.3221 26.1597C81.1251 26.0755 80.1149 26.5741 80.0663 27.2713Z" fill="#F59597"/>
<path d="M92.7147 25.1182C92.6384 25.1182 92.57 25.0629 92.5568 24.984C92.4648 24.4275 92.0228 24.0671 91.4322 24.0684C90.8403 24.0697 90.3905 24.4367 90.3129 24.984C90.2997 25.0721 90.2195 25.1339 90.1313 25.1208C90.0445 25.1076 89.984 25.0274 89.9959 24.9393C90.0945 24.2394 90.6864 23.75 91.4322 23.7474C92.1754 23.7474 92.7541 24.2223 92.8725 24.93C92.8883 25.0182 92.8291 25.1011 92.7423 25.1155L92.7147 25.1182Z" fill="#C68C75"/>
<path d="M97.0472 28.4428C97.0748 30.5673 94.7493 32.3234 91.8516 32.3616C88.9526 32.4024 86.5784 30.7107 86.5508 28.5849C86.5219 26.4591 88.9907 26.8261 91.8871 26.6445C94.7795 26.463 97.0196 26.317 97.0472 28.4428Z" fill="#61120B"/>
<path d="M92.1354 30.3454C90.5688 30.3677 89.2009 30.8452 88.4209 31.5477C89.3548 32.1028 90.5504 32.4291 91.8513 32.4106C93.3166 32.3922 94.6372 31.9397 95.5921 31.2254C94.7713 30.6716 93.527 30.327 92.1354 30.3454Z" fill="#D56654"/>
<path d="M95.5458 26.6211C94.6106 26.4278 93.3294 26.5067 91.8891 26.5961C90.2608 26.6987 88.7705 26.6316 87.7629 26.9158C88.1891 27.7643 89.7649 28.3812 91.6405 28.3549C93.6504 28.3286 95.2985 27.5748 95.5458 26.6211Z" fill="white"/>
<path d="M102.387 13.7656C102.279 13.7814 102.167 13.7591 102.07 13.6959C100.83 12.8856 98.7159 12.9263 97.148 13.7959C96.931 13.9182 96.6535 13.8406 96.5298 13.6196C96.4088 13.4012 96.4877 13.125 96.7074 13.0026C98.5778 11.966 101.044 11.9371 102.569 12.9369C102.778 13.075 102.836 13.3552 102.697 13.5657C102.625 13.6788 102.511 13.7472 102.387 13.7656Z" fill="#B74E26"/>
<path d="M80.4629 13.8787C80.338 13.8642 80.2209 13.7985 80.1446 13.688C79.9999 13.4827 80.0512 13.1999 80.2564 13.0565C81.7493 12.0107 84.2143 11.9634 86.1149 12.9408C86.3385 13.0565 86.4267 13.3301 86.3109 13.5525C86.1952 13.7761 85.9216 13.8629 85.6993 13.7485C84.1064 12.9263 81.99 12.9487 80.7773 13.7998C80.6826 13.8669 80.5695 13.8919 80.4629 13.8787Z" fill="#B74E26"/>
<path d="M82.5155 23.4377C82.4287 22.6116 82.6668 21.8013 83.189 21.1554C83.7099 20.5095 84.4544 20.1056 85.2791 20.0175C86.1051 19.9294 86.914 20.1701 87.5612 20.6923C88.2057 21.2146 88.6108 21.9565 88.6976 22.7813L87.7953 22.8774C87.7335 22.2933 87.4468 21.7671 86.989 21.3988C86.5339 21.0291 85.9552 20.8594 85.3751 20.9212C84.7898 20.9844 84.2649 21.2698 83.8953 21.7263C83.527 22.1841 83.3574 22.7563 83.4192 23.3417L82.5155 23.4377Z" fill="#53120D"/>
<path d="M100.894 23.0356L99.9908 22.9436C100.05 22.3582 99.8803 21.7859 99.5081 21.3295C99.1371 20.873 98.611 20.5902 98.0257 20.5297C96.8182 20.3968 95.737 21.2874 95.612 22.4937L94.7097 22.4016C94.886 20.6967 96.4052 19.4602 98.1204 19.6259C98.9451 19.7114 99.6883 20.1113 100.212 20.7572C100.738 21.4005 100.977 22.2095 100.894 23.0356Z" fill="#53120D"/>
<path d="M99.9928 14.4376C96.5282 14.4428 93.716 17.2658 93.72 20.7308C93.7265 24.1957 96.5506 27.0108 100.015 27.0056C103.478 26.999 106.292 24.1747 106.287 20.711C106.28 17.2461 103.459 14.431 99.9928 14.4376ZM100.016 27.5923C96.227 27.5989 93.1399 24.5206 93.1333 20.7321C93.1267 16.9435 96.2033 13.8561 99.9915 13.8495C103.781 13.843 106.868 16.9212 106.873 20.7097C106.88 24.497 103.803 27.5857 100.016 27.5923Z" fill="#138F9C"/>
<path d="M89.5343 23.2002C89.5041 23.2002 89.4712 23.1949 89.4396 23.1844C89.2871 23.1318 89.2042 22.9647 89.2568 22.8121C89.4936 22.1189 90.3209 21.6164 91.364 21.5322C92.3005 21.4585 93.4922 21.7413 94.0354 22.7608C94.1104 22.9042 94.0565 23.0831 93.9131 23.1594C93.771 23.2344 93.5935 23.1805 93.5159 23.0384C93.1068 22.2675 92.1519 22.057 91.4113 22.1189C90.6129 22.1833 89.971 22.5372 89.8119 23.0016C89.7711 23.1226 89.658 23.2002 89.5343 23.2002Z" fill="#138F9C"/>
<path d="M83.2749 14.4646C79.809 14.4711 76.9968 17.2941 77.0007 20.7591C77.0073 24.224 79.8313 27.0392 83.2959 27.0339C86.7592 27.0273 89.5727 24.203 89.5674 20.7394C89.5609 17.2744 86.7382 14.4593 83.2749 14.4646ZM83.2972 27.6206C79.5091 27.6272 76.4206 24.549 76.4141 20.7604C76.4075 16.9719 79.4841 13.8844 83.2736 13.8779C87.0617 13.8713 90.1501 16.9495 90.1541 20.738C90.1607 24.5266 87.0841 27.614 83.2972 27.6206Z" fill="#138F9C"/>
<path d="M92.4417 41.3177C92.4311 41.7358 92.0853 42.0672 91.6659 42.0566C91.2478 42.0474 90.9165 41.7003 90.927 41.2821C90.9362 40.8627 91.2833 40.5313 91.7027 40.5418C92.1208 40.5524 92.4522 40.8995 92.4417 41.3177Z" fill="#E03B78"/>
<path d="M92.5549 43.9756C92.5457 44.3938 92.1986 44.7251 91.7791 44.7146C91.3624 44.7054 91.031 44.3583 91.0402 43.9401C91.0494 43.5207 91.3979 43.1893 91.816 43.1998C92.2354 43.2103 92.5654 43.5575 92.5549 43.9756Z" fill="#E03B78"/>
<path d="M63.0927 39.8799C63.0756 40.1272 62.7441 40.389 62.2417 40.8099C61.805 41.1743 61.1342 41.7057 61.0171 42.0938C60.8908 42.5082 61.342 42.574 61.9589 42.3188C62.9783 41.8991 65.2538 40.877 66.3521 40.2956C68.2778 39.4142 69.4142 37.2555 68.6684 35.6703C67.5517 33.292 66.9558 32.4501 66.2074 31.0188C66.0246 30.665 65.3656 31.4122 65.3893 31.9699C65.4432 33.1644 65.8128 33.4064 65.7878 34.026C65.7615 34.6298 65.2354 34.7614 64.6237 34.7101C61.8418 33.6445 60.3963 32.7355 59.6228 33.3288C59.0586 33.9037 60.8408 34.8929 62.9151 35.9163C60.2844 35.7282 58.1326 35.7822 58.1102 36.4399C58.0799 37.2173 60.1371 37.7554 62.3601 37.7804C60.4725 38.7012 58.5495 39.2761 58.6995 40.0561C58.8349 40.756 63.1387 39.1813 63.0927 39.8799Z" fill="#FBC1A0"/>
<path d="M45.6361 92.5038C41.919 120.46 61.9134 146.048 90.2958 149.655C118.677 153.263 144.698 133.524 148.415 105.568C152.132 77.6127 132.138 52.0254 103.756 48.4158C75.3733 44.8087 49.3533 64.5474 45.6361 92.5038Z" fill="#1BB4CC"/>
<path d="M100.46 48.5102C100.586 48.3537 100.781 48.2392 101.005 48.1419C101.919 48.2103 102.836 48.2997 103.755 48.4168C106.091 48.7141 108.364 49.1745 110.578 49.7573C111.32 50.1295 111.863 50.5137 112.047 50.8649C112.659 52.0317 115.121 51.9738 115.765 53.6353C116.028 54.3127 112.339 53.4393 111.821 53.8326C110.426 54.6482 111.196 56.1386 109.702 57.4133C108.226 58.9629 110.955 58.9735 111.096 60.3205C109.552 64.3511 105.034 68.8132 104.464 65.6534C104.319 64.8471 103.52 62.2792 102.809 61.2532C100.581 58.0276 95.5684 58.4499 94.9989 56.0031C94.699 54.7179 96.3168 54.7876 96.1261 53.8418C95.6276 51.3556 98.2241 52.1264 98.1149 50.2519C98.0846 49.7428 97.6611 48.4484 98.1386 48.009C98.3556 48.0143 98.5739 48.0208 98.7936 48.0274C99.3816 48.301 100.134 48.9088 100.46 48.5102Z" fill="#A9D160"/>
<path d="M96.5501 116.333C97.1512 115.124 107.083 117.948 103.975 113.968C103.562 113.44 105.476 111.958 106.819 111.518C108.37 111.01 109.819 111.731 110.608 111.226C114.195 108.935 114.696 108.839 117.878 109.49C120.454 110.017 122.277 107.252 125.119 111.81C125.703 111.126 126.479 110.472 126.732 110.795C127.138 111.316 127.386 112.615 129.627 110.914C130.965 109.9 130.317 107.173 130.344 106.994C130.387 106.71 133.512 107.382 133.568 106.963C133.81 105.151 132.827 103.21 133.305 102.624C133.573 102.294 135.258 102.67 135.289 102.986C135.434 104.386 135.656 106.376 137.241 105.441C140.494 103.52 139.977 96.368 138.63 96.7152C137.612 96.9783 136.586 97.0586 135.581 96.931C135.36 96.902 134.584 94.3684 133.644 95.0143C132.372 95.8878 131.891 100.201 129.894 99.2317C129.462 99.0239 131.214 92.974 130.824 92.7149C129.143 91.6046 127.641 90.547 127.186 90.1195C125.786 88.8 127.934 86.8755 124.963 84.1078C121.933 81.2834 120.298 81.8083 118.752 79.4536C117.795 77.9974 123.232 78.4052 122.173 77.2949C121.102 76.1755 113.2 74.7205 112.918 73.6379C112.481 71.9567 116.266 72.0435 118.102 67.3868C118.393 66.6488 119.121 69.6494 120.101 69.2955C120.771 69.0548 120.391 67.9432 121.068 67.3591C122.373 66.2331 124.64 65.403 124.828 66.5883C125.565 71.2648 128.686 77.3686 129.662 76.2531C130.291 75.5348 129.748 74.5022 129.778 73.5748C129.828 71.9291 134.686 73.2906 133.939 69.8599C133.186 66.4054 124.263 63.2522 123.501 59.5176C123.395 58.9954 120.9 59.9307 120.881 61.1133C120.875 61.6158 122.281 65.5346 121.81 65.7411C118.237 67.3118 116.385 63.2194 115.478 61.9723C114.522 60.6555 118.716 61.0488 117.515 59.6926C116.363 58.3929 120.736 56.1382 119.513 54.9832C117.605 53.1849 115.618 51.7892 114.093 50.8052C132.355 57.0208 145.513 72.8473 148.297 91.4968C145.191 101.897 140.33 110.19 137.174 107.63C136.19 106.83 135.623 109.289 134.475 109.141C134.174 109.103 132.014 109.178 130.919 111.521C130.682 112.027 126.813 113.526 126.805 112.982C126.786 111.704 125.643 112.469 124.946 112.852C124.572 113.794 123.872 115.012 124.109 115.37C125.351 117.26 125.042 120.561 124.233 121.175C119.75 124.576 118.491 127.724 113.926 128.373C112.883 128.523 108.818 136.475 108.58 138.264C108.463 139.151 102.04 144.092 98.5191 144.043C97.4155 144.03 103.742 140.848 102.562 139.319C101.853 138.403 100.212 136.215 99.5924 135.138C98.5441 133.314 98.8716 131.09 98.477 130.319C97.2932 128.006 94.1325 128.934 94.3206 126.865C94.8256 121.296 91.2834 119.932 91.6004 118.185C91.7806 117.198 96.0344 117.371 96.5501 116.333Z" fill="#A9D160"/>
<path d="M88.3576 59.4451C88.2695 60.1133 90.0833 61.1933 90.4082 61.2341C91.7249 61.4012 94.2069 60.1686 94.2963 59.499C94.3858 58.8307 92.0576 58.7321 90.7397 58.5637C89.423 58.3966 88.4457 58.7768 88.3576 59.4451Z" fill="#A9D160"/>
<path d="M81.0269 63.9334C80.9835 63.7887 79.1854 63.6848 79.4235 63.9913C79.9773 64.7004 79.7576 64.7425 79.555 64.7122C79.2578 64.6635 78.7935 64.3347 78.5475 64.5083C78.3883 64.6228 78.3502 64.799 78.316 64.9792C78.2779 65.2002 78.2936 65.4489 78.2042 65.6567C78.0727 65.9619 76.097 67.3471 75.9747 67.4997C75.8445 67.6654 75.7471 67.9075 75.5288 67.9904C75.3552 68.0535 75.1737 68.0206 75.0053 68.1074C74.8448 68.189 74.6159 68.3811 74.5226 68.5389C74.3844 68.7731 74.4884 69.0138 74.4292 69.2453C74.3752 69.4545 74.1648 69.3571 74.074 69.5282C73.8767 69.8939 74.4436 70.2688 74.7264 70.3424C75.3354 70.499 76.0168 70.4082 76.6166 70.5911C76.8625 70.6647 77.8175 71.2027 77.8175 71.2027C78.0845 71.2277 78.1384 70.7081 77.8056 69.982C77.6399 69.6163 77.8846 69.1256 78.0424 68.7652C78.149 68.5218 78.1989 68.4429 78.0187 68.2364C77.9069 68.1088 77.8333 67.9864 77.8859 67.8023C78.045 67.2458 78.7487 67.2813 79.1604 67.0288C79.4485 66.8525 80.3074 65.9409 80.5245 65.7475C80.6876 65.6041 81.9687 64.9779 82.1397 64.8332C82.3054 64.6912 81.048 63.9992 81.0269 63.9334Z" fill="#A9D160"/>
<path d="M79.8645 69.8519C80.2735 70.2281 81.5507 70.3597 81.5323 70.1952C81.3613 68.689 82.6411 68.2957 82.2334 67.9182C81.9769 67.684 81.3902 66.4738 80.5274 66.8474C80.3617 66.9197 79.2239 67.2723 79.4409 67.5498C79.9263 68.172 79.0424 68.8903 78.924 69.0139C78.4597 69.502 79.4554 69.473 79.8645 69.8519Z" fill="#A9D160"/>
<path d="M56.7227 71.7415C57.3225 72.0309 57.9631 72.1519 58.5813 72.1125C57.9763 73.3845 58.4182 76.6088 56.1216 76.0155C55.9585 75.8629 55.7244 75.7813 55.5797 75.5945C55.4469 75.4262 54.9089 75.4775 54.1697 75.9405C54.05 74.9434 55.6652 73.0425 56.7227 71.7415ZM50.8195 75.9958C48.2204 81.0353 46.4237 86.5827 45.6358 92.5036C45.4621 93.8086 45.3569 95.107 45.2859 96.4001C45.4503 96.5619 45.641 96.6697 45.866 96.7105C47.0787 96.9355 48.348 90.5199 50.6183 85.0015C51.1825 85.6776 52.2545 86.3683 51.9415 87.2273C50.8235 90.2884 48.7334 98.8758 49.0228 103.288C49.3227 107.891 52.3703 110.647 52.9346 113.973C54.0368 120.478 64.6358 127.316 67.7847 126.793C67.7847 126.793 65.5013 125.922 64.3991 119.416C64.157 117.983 61.9565 116.485 61.9894 114.806C62.0578 111.387 60.9621 106.958 63.1008 106.628C63.5007 106.248 65.0962 105.637 65.4487 105.896C68.9343 108.467 72.0464 106.106 72.9711 108.429C73.7748 110.455 79.0466 103.909 79.8556 101.695C80.3054 100.462 79.5228 100.589 79.4084 99.1547C79.1782 96.258 80.362 97.1775 80.3225 96.0712C80.2199 93.1443 77.8497 91.1987 76.4712 88.7335C75.3729 86.7721 75.8701 85.7724 73.5314 84.4582C71.1915 83.1414 68.4095 81.2524 64.3741 80.867C62.9785 80.7354 64.5187 82.2824 63.1732 83.5821C62.0683 83.4348 59.5757 85.3764 58.4643 85.7408C57.4738 85.6145 59.5547 83.0125 57.5461 83.1704C54.6866 85.3172 52.4716 83.7426 51.2167 83.6295C51.8494 82.2548 52.5531 80.9827 53.3476 79.9448C54.3959 79.5199 55.6047 80.9985 56.269 79.9343C56.5544 79.4778 57.5159 78.7701 57.2883 77.8572C57.3528 77.3704 58.017 76.6667 58.3735 76.7416C59.0325 78.3149 57.6185 80.5762 57.8789 80.4552C59.7625 79.979 60.8187 76.1063 61.1515 75.9379C63.1679 74.9171 65.0896 73.6924 65.1843 73.378C65.2382 73.4227 65.9262 73.7805 65.9827 73.8213C63.0969 77.01 62.163 75.9155 61.771 77.5046C61.8197 77.5322 61.6237 79.2568 61.675 79.2831C62.4971 77.5138 65.6815 76.5114 67.1455 74.6921C67.5006 74.8237 67.7479 75.8918 68.1438 75.9418C68.5529 75.9931 70.6298 75.2946 70.8508 78.4425C70.8718 78.7346 72.1293 78.9266 70.91 80.1803C70.5233 80.5762 73.6617 82.9809 74.389 82.4297C75.0625 81.9167 75.9319 82.3429 76.9776 81.5484C77.8194 80.9104 76.508 79.2937 78.3679 76.8837C78.4087 76.7627 76.4936 75.6011 73.5354 76.3154C72.8843 76.4706 74.0365 74.3106 73.805 73.9331C76.6869 73.5266 77.1789 72.1427 76.7238 72.0849C75.5229 71.9336 73.5433 72.3282 73.0461 69.1369C73.1513 67.4807 70.9047 67.1637 71.273 66.8848C72.0083 66.3244 73.3736 65.3865 72.2043 64.7143C71.056 65.9745 69.8485 66.2981 69.4105 66.4204C67.89 66.8387 67.7729 65.5851 67.5019 65.5509C67.1652 65.5088 67.0942 66.1021 66.2905 65.518C66.2589 64.1539 68.0583 62.9226 67.9518 62.3819C67.9399 61.9084 65.8025 62.0123 67.1599 60.927C67.7229 60.4758 68.6292 61.0283 69.225 60.9823C70.4286 60.8862 71.3888 57.6252 71.6163 57.1227C71.6913 56.9595 72.8435 56.0453 73.2 56.8714C73.3184 57.1424 72.8817 57.9488 72.7633 58.1474C72.3884 58.7762 72.4792 60.7494 71.7715 60.8731C70.4351 61.1059 68.9738 63.2949 68.9488 64.1526C68.9199 65.0352 70.1234 65.6667 70.3878 65.1089C70.9258 63.9658 73 62.7305 73.3526 62.6016C73.7813 62.4398 74.6495 63.4383 74.8836 63.6935C75.2664 64.1105 78.293 61.7268 77.0368 59.7036C76.1332 58.2461 76.8211 56.5912 77.3157 55.8059C77.7668 55.0916 78.1588 54.0234 77.8497 53.4841C77.5945 53.0421 75.9122 52.6685 75.3821 53.3723C74.9428 53.955 74.0221 53.6551 73.2776 53.7235C72.366 54.1878 71.4716 54.6811 70.5917 55.1981C70.5312 55.256 70.4628 55.3007 70.4049 55.3626C69.9379 55.8664 70.5825 57.1924 68.1767 57.6041C68.1951 57.2266 68.6831 56.8398 68.9251 56.5899C69.079 56.432 69.2434 56.2781 69.375 56.1005C69.4276 56.0321 69.4197 55.9716 69.3842 55.9164C63.7032 59.4589 58.7378 64.0736 54.805 69.5092C54.9812 70.1156 55.3206 70.6891 55.8244 71.1469C54.4683 72.0954 52.5992 73.8463 50.8195 75.9958Z" fill="#A9D160"/>
<path d="M77.7425 66.0778C72.1195 63.8901 65.21 64.757 61.3179 68.1391C60.9996 68.4166 60.8076 68.8008 60.7773 69.223C60.7471 69.6453 60.8839 70.0518 61.1601 70.3701C61.4047 70.6543 61.7415 70.8397 62.1071 70.8963C62.1821 70.9081 62.2571 70.9147 62.3307 70.916C62.7214 70.9226 63.0976 70.7845 63.3922 70.528C66.4056 67.9141 72.0813 67.2682 76.5916 69.027C76.9823 69.1796 77.4097 69.1744 77.7965 69.006C78.1871 68.8363 78.487 68.5232 78.6435 68.1272C78.9592 67.3143 78.5541 66.3948 77.7425 66.0778Z" fill="#3D4196"/>
<path d="M106.512 109.06C106.758 117.936 94.0304 128.253 84.118 126.181C74.2583 124.12 69.0219 112.848 70.4175 104.046C71.7907 99.3128 78.0977 101.591 87.9483 102.728C97.7857 103.862 106.362 103.662 106.512 109.06Z" fill="#6F1811"/>
<path d="M86.3511 118.368C81.7317 117.798 78.0066 118.714 75.3628 121.038C77.6659 123.51 80.9043 125.986 84.7635 126.443C89.1081 126.958 93.037 126.583 96.3332 123.419C95.5427 120.751 90.4826 118.878 86.3511 118.368Z" fill="#DD6B5B"/>
<path d="M102.084 104.612C98.8495 102.945 93.4395 103.145 88.5359 102.58C83.0036 101.942 79.0589 100.611 75.4812 101.128C76.3164 104.915 81.5054 106.452 87.8611 107.277C95.1994 108.229 100.58 108.384 102.084 104.612Z" fill="white"/>
<path d="M77.93 92.4229C77.5801 92.3755 77.2684 92.1374 77.1448 91.7809C76.1753 88.9618 73.9327 87.1057 70.9942 86.69C67.9624 86.1954 65.1265 87.2951 63.4889 89.4854C63.1693 89.9129 62.5656 89.9998 62.1354 89.6801C61.708 89.3604 61.6211 88.7553 61.9408 88.3291C64.0072 85.5613 67.5559 84.1893 71.2783 84.7773C74.9481 85.2996 77.7564 87.6227 78.9718 91.1508C79.1467 91.6559 78.8784 92.2058 78.3733 92.3795C78.2273 92.4308 78.0747 92.4426 77.93 92.4229Z" fill="#3D4196"/>
</svg>
