<svg width="414" height="558" viewBox="0 0 414 558" fill="none" xmlns="http://www.w3.org/2000/svg">
<path d="M301.682 -138.052C307.3 -205.059 250.622 -272.907 219.12 -306.461L627.916 -70.4428L295.208 505.825L-346.339 135.428C-285.096 88.0966 -114.507 62.9171 96.1092 54.9936C233.995 49.8063 292.383 -27.1351 301.682 -138.052Z" fill="white" fill-opacity="0.1"/>
<path d="M344.014 -82.4795C350.149 -149.187 294.97 -216.169 264.265 -249.264L664.533 -18.1694L331.824 558.099L-296.34 195.428C-235.627 147.79 -67.48 121.201 139.913 111.417C275.688 105.011 333.858 27.9433 344.014 -82.4795Z" fill="white" fill-opacity="0.1"/>
<path d="M397.58 -73.3248C397.679 -176.651 340.646 -214.074 316.654 -243.659L608.739 -75.0234L268.124 514.939L-128.282 286.074C-89.355 218.649 32.5424 167.663 214.72 140.243C333.988 122.291 397.475 35.315 397.58 -73.3248Z" fill="white" fill-opacity="0.1"/>
<path d="M436.005 -28.7424C440.885 -86.0791 392.949 -152.719 336.404 -194.935L641.111 -19.0127L332.682 515.201L19.0862 329.521C54.3352 268.468 187.935 203.7 279.425 173.082C392.113 135.371 427.503 71.1364 436.005 -28.7424Z" fill="white" fill-opacity="0.1"/>
</svg>
