<?xml version="1.0" encoding="UTF-8" standalone="no"?>
<svg
   xmlns:dc="http://purl.org/dc/elements/1.1/"
   xmlns:cc="http://creativecommons.org/ns#"
   xmlns:rdf="http://www.w3.org/1999/02/22-rdf-syntax-ns#"
   xmlns:svg="http://www.w3.org/2000/svg"
   xmlns="http://www.w3.org/2000/svg"
   xmlns:sodipodi="http://sodipodi.sourceforge.net/DTD/sodipodi-0.dtd"
   xmlns:inkscape="http://www.inkscape.org/namespaces/inkscape"
   width="29"
   height="28"
   viewBox="0 0 29 28"
   fill="none"
   version="1.1"
   id="svg19"
   sodipodi:docname="home.svg">
  <metadata
     id="metadata23">
    <rdf:RDF>
      <cc:Work
         rdf:about="">
        <dc:format>image/svg+xml</dc:format>
        <dc:type
           rdf:resource="http://purl.org/dc/dcmitype/StillImage" />
      </cc:Work>
    </rdf:RDF>
  </metadata>
  <sodipodi:namedview
     pagecolor="#ffffff"
     bordercolor="#666666"
     borderopacity="1"
     objecttolerance="10"
     gridtolerance="10"
     guidetolerance="10"
     inkscape:pageopacity="0"
     inkscape:pageshadow="2"
     inkscape:window-width="640"
     inkscape:window-height="480"
     id="namedview21" />
  <path
     fill-rule="evenodd"
     clip-rule="evenodd"
     d="M14.3225 1.02523C14.3225 1.03911 14.2601 1.05047 14.1838 1.05047C14.1075 1.05047 14.045 1.06182 14.045 1.0757C14.045 1.08958 13.9996 1.10094 13.9441 1.10094C13.8886 1.10094 13.8432 1.11229 13.8432 1.12617C13.8432 1.14005 13.8092 1.15141 13.7676 1.15141C13.7259 1.15141 13.6919 1.16276 13.6919 1.17664C13.6919 1.19052 13.6692 1.20188 13.6414 1.20188C13.6137 1.20188 13.591 1.21323 13.591 1.22711C13.591 1.24099 13.5683 1.25235 13.5405 1.25235C13.5128 1.25235 13.4901 1.2637 13.4901 1.27758C13.4901 1.29146 13.4674 1.30281 13.4396 1.30281C13.4119 1.30281 13.3892 1.31417 13.3892 1.32805C13.3892 1.34193 13.369 1.35328 13.3443 1.35328C13.3196 1.35328 13.2831 1.376 13.2631 1.40375C13.2431 1.43151 13.213 1.45422 13.1962 1.45422C13.1794 1.45422 13.1236 1.49397 13.0722 1.54254C13.0206 1.59112 12.9708 1.63086 12.9613 1.63086C12.9518 1.63086 12.8833 1.68764 12.809 1.75704C12.7347 1.82643 12.6637 1.88321 12.6512 1.88321C12.6387 1.88321 12.5849 1.92863 12.5315 1.98415C12.4782 2.03966 12.4224 2.08509 12.4074 2.08509C12.3924 2.08509 12.3802 2.09644 12.3802 2.11032C12.3802 2.1242 12.3679 2.13556 12.353 2.13556C12.338 2.13556 12.2822 2.18098 12.2288 2.23649C12.1755 2.29201 12.1244 2.33743 12.1153 2.33743C12.1062 2.33743 12.0569 2.38102 12.0056 2.43433C11.9544 2.4877 11.8851 2.546 11.8516 2.56398C11.7806 2.60195 11.7506 2.62542 11.641 2.72901C11.5966 2.77084 11.5206 2.83285 11.4721 2.86679C11.4235 2.90073 11.3554 2.95776 11.3207 2.99353C11.286 3.0293 11.2184 3.08614 11.1704 3.11989C11.0839 3.18058 10.9879 3.26493 10.7828 3.46037C10.7245 3.51589 10.6466 3.57702 10.6095 3.5962C10.5725 3.61537 10.5045 3.6666 10.4585 3.70994C10.4124 3.75334 10.3355 3.81675 10.2875 3.85088C10.198 3.91453 10.0905 4.0096 9.89455 4.19848C9.83338 4.25747 9.77284 4.30573 9.75997 4.30573C9.74717 4.30573 9.67868 4.36251 9.60786 4.4319C9.53698 4.5013 9.47058 4.55807 9.46023 4.55807C9.44989 4.55814 9.40739 4.58747 9.36577 4.62331C9.32414 4.6592 9.25105 4.71882 9.20338 4.75579C9.1557 4.79276 9.07624 4.85818 9.0268 4.90108C8.97736 4.94397 8.90988 5.00075 8.87678 5.02725C8.84367 5.05374 8.7673 5.12364 8.70714 5.18263C8.64697 5.24162 8.58725 5.28988 8.57439 5.28988C8.56159 5.28988 8.4931 5.34665 8.42228 5.41605C8.3514 5.48545 8.28386 5.54222 8.27206 5.54222C8.26033 5.54222 8.21745 5.57345 8.17684 5.61162C8.13623 5.64979 8.04655 5.72562 7.97762 5.78012C7.90863 5.83463 7.81536 5.91696 7.77033 5.96307C7.72524 6.00919 7.67732 6.04691 7.66376 6.04691C7.65026 6.04691 7.58808 6.09801 7.52565 6.16047C7.46322 6.22293 7.40167 6.27403 7.3888 6.27403C7.376 6.27403 7.30751 6.3308 7.23669 6.4002C7.16581 6.46959 7.09657 6.52637 7.08276 6.52637C7.06895 6.52637 7.05766 6.53773 7.05766 6.55161C7.05766 6.56548 7.04542 6.57684 7.03048 6.57684C7.01547 6.57684 6.95966 6.62226 6.90631 6.67778C6.85296 6.73329 6.80232 6.77872 6.79368 6.77872C6.77526 6.77872 6.73894 6.80843 6.60077 6.93643C6.54458 6.98848 6.48921 7.03106 6.47767 7.03106C6.46619 7.03106 6.39184 7.09352 6.31238 7.16985C6.23298 7.24619 6.15731 7.30864 6.14419 7.30864C6.13107 7.30864 6.07677 7.35406 6.02342 7.40958C5.97007 7.4651 5.91426 7.51052 5.89925 7.51052C5.88431 7.51052 5.87207 7.51998 5.87207 7.53146C5.87207 7.54301 5.84628 7.56629 5.81468 7.58319C5.78315 7.60004 5.73491 7.64735 5.70748 7.6883C5.68011 7.72924 5.64353 7.76274 5.62632 7.7628C5.59554 7.76287 5.53632 7.80816 5.38705 7.94582C5.34562 7.98398 5.30192 8.01521 5.28987 8.01521C5.27783 8.01521 5.21691 8.06631 5.15448 8.12877C5.09205 8.19122 5.0293 8.24232 5.01511 8.24232C5.00086 8.24232 4.98919 8.25368 4.98919 8.26756C4.98919 8.28144 4.97695 8.29279 4.96201 8.29279C4.947 8.29279 4.89119 8.33821 4.83784 8.39373C4.78449 8.44924 4.73359 8.49467 4.72464 8.49467C4.71575 8.49467 4.65313 8.55145 4.58559 8.62084C4.51804 8.69024 4.45013 8.74701 4.43474 8.74701C4.41935 8.74701 4.3805 8.77256 4.34853 8.80379C4.26258 8.88763 4.16943 8.96454 4.12106 8.9916C4.08045 9.01431 3.93906 9.1355 3.67754 9.37157C3.61221 9.43056 3.55066 9.47882 3.54082 9.47882C3.53092 9.47882 3.46754 9.53559 3.4 9.60499C3.33246 9.67438 3.26416 9.73116 3.24833 9.73116C3.23244 9.73116 3.17777 9.774 3.12687 9.82642C3.07592 9.87878 2.99848 9.94408 2.95477 9.97152C2.86314 10.0291 2.66084 10.2007 2.50211 10.3557C2.44176 10.4147 2.38216 10.463 2.3698 10.463C2.3307 10.463 2.06306 10.7344 2.06306 10.7741C2.06306 10.795 2.04887 10.8168 2.03153 10.8226C2.00807 10.8304 2 10.9354 2 11.2326C2 11.5298 2.00807 11.6349 2.03153 11.6427C2.04887 11.6485 2.06306 11.667 2.06306 11.684C2.06306 11.9462 2.86043 12.1489 3.19069 11.9707C3.30238 11.9104 3.46243 11.7808 3.64223 11.6048C3.70251 11.5458 3.7623 11.4976 3.77516 11.4976C3.78796 11.4976 3.85645 11.4408 3.92727 11.3714C3.99815 11.302 4.06557 11.2452 4.07717 11.2452C4.1164 11.2452 4.32753 11.0289 4.33693 10.9791C4.34405 10.9412 5.66623 9.81135 6.32266 9.28224C6.36932 9.24464 6.43176 9.19285 6.4614 9.16717C6.49104 9.14156 6.55921 9.08478 6.61287 9.041C6.66654 8.99728 6.7233 8.94965 6.739 8.9352C6.7547 8.92075 6.97189 8.73913 7.22162 8.53157C7.47135 8.32402 7.70405 8.1299 7.73874 8.10019C7.77342 8.07047 8.08559 7.81062 8.43243 7.52276C8.77928 7.23483 9.09144 6.97517 9.12613 6.94571C9.16081 6.91625 9.39351 6.72181 9.64324 6.51375C9.89297 6.30563 10.103 6.12949 10.1099 6.12237C10.1168 6.11517 10.1848 6.05833 10.261 5.99613C10.3372 5.93386 10.428 5.85841 10.4628 5.82851C10.5153 5.7834 11.0788 5.31549 11.2583 5.16787C11.389 5.06043 11.7635 4.74601 11.7748 4.73434C11.7817 4.72715 11.8839 4.64261 12.0018 4.54653C12.1197 4.45039 12.2219 4.36528 12.2288 4.35733C12.2358 4.34938 12.3039 4.2921 12.3802 4.23002C12.4565 4.16795 12.5246 4.11117 12.5315 4.10385C12.5385 4.09653 12.6065 4.03957 12.6826 3.97736C12.7588 3.9151 12.8496 3.83965 12.8844 3.80968C14.0777 2.78358 14.2878 2.64025 14.5981 2.64025C14.895 2.64025 15.0035 2.69917 15.5067 3.13409C15.556 3.17673 15.8121 3.39098 16.0757 3.61026C16.3393 3.82955 16.5835 4.03313 16.6183 4.06272C16.6531 4.09231 16.7439 4.16744 16.8201 4.22971C16.8963 4.29191 16.9642 4.34932 16.9712 4.35721C16.9781 4.36503 17.0576 4.43196 17.1477 4.50584C17.2379 4.57978 17.3628 4.68286 17.4252 4.73491C17.4877 4.78702 17.8623 5.09891 18.2577 5.42797C18.6531 5.75709 19.0277 6.06931 19.0901 6.1218C19.1525 6.17435 19.5555 6.50978 19.9856 6.86729C20.4157 7.22486 20.8017 7.54705 20.8433 7.58332C20.885 7.6196 20.9815 7.70028 21.0577 7.76255C21.134 7.82475 21.2021 7.88172 21.209 7.88904C21.2159 7.89636 21.2841 7.95313 21.3604 8.01521C21.4367 8.07729 21.5048 8.13407 21.5117 8.14138C21.5186 8.1487 21.5866 8.20567 21.6627 8.26787C21.7387 8.33014 21.8239 8.40023 21.8519 8.42351C21.8798 8.44685 22.2659 8.76859 22.7099 9.13853C23.1539 9.5084 23.5456 9.8357 23.5804 9.86573C23.6152 9.89582 23.7059 9.97152 23.782 10.034C23.858 10.0964 23.9516 10.175 23.9898 10.2085L24.0595 10.2694V17.1522C24.0595 24.8746 24.0779 24.1286 23.8814 24.3524C23.6133 24.6579 23.7039 24.6476 21.3477 24.6393L19.3297 24.6322L19.3157 20.1278C19.306 16.9898 19.2934 15.5928 19.2742 15.5225C19.259 15.467 19.2381 15.3818 19.2277 15.3332C19.0396 14.4546 18.1697 13.7328 17.1604 13.618C16.8017 13.5772 12.3379 13.5852 11.9892 13.6273C10.9919 13.7475 10.1776 14.4532 9.96234 15.3837C9.9479 15.4462 9.92753 15.5313 9.91713 15.573C9.90666 15.6146 9.8919 17.67 9.88421 20.1404L9.87027 24.6322L7.83964 24.6395C5.49426 24.6479 5.60803 24.6604 5.325 24.3633C5.12295 24.1512 5.14054 24.6452 5.14041 19.1857C5.14029 15.8554 5.1319 14.3049 5.11355 14.2355C5.02551 13.9028 4.81179 13.6962 4.47207 13.6156C4.28654 13.5717 4.03063 13.5567 4.03063 13.5899C4.03063 13.605 4.00793 13.6173 3.98018 13.6173C3.95243 13.6173 3.92973 13.6286 3.92973 13.6425C3.92973 13.6564 3.91491 13.6678 3.89681 13.6678C3.83797 13.6678 3.68618 13.8289 3.61769 13.9641L3.55085 14.096L3.55741 19.2631L3.56396 24.4303L3.62696 24.6069C3.66165 24.7041 3.69854 24.7874 3.70895 24.792C3.71941 24.7966 3.72793 24.8162 3.72793 24.8355C3.72793 24.8847 3.83457 25.099 3.8591 25.099C3.8702 25.099 3.87928 25.1192 3.87928 25.1439C3.87928 25.1686 3.90198 25.2052 3.92973 25.2252C3.95748 25.2452 3.98018 25.2752 3.98018 25.2919C3.98018 25.3086 4.0592 25.3998 4.15581 25.4945C4.40586 25.7398 4.45341 25.7803 4.4908 25.7803C4.50909 25.7803 4.54037 25.8031 4.56036 25.8308C4.58035 25.8586 4.61125 25.8813 4.62897 25.8813C4.64676 25.8813 4.66126 25.8926 4.66126 25.9065C4.66126 25.9204 4.67829 25.9318 4.6991 25.9318C4.71991 25.9318 4.73694 25.9431 4.73694 25.957C4.73694 25.9709 4.75895 25.9822 4.78587 25.9822C4.8128 25.9822 4.84187 25.9936 4.85045 26.0075C4.85903 26.0213 4.8881 26.0327 4.91503 26.0327C4.94195 26.0327 4.96396 26.0441 4.96396 26.0579C4.96396 26.0718 4.98667 26.0832 5.01441 26.0832C5.04216 26.0832 5.06486 26.0945 5.06486 26.1084C5.06486 26.1223 5.09797 26.1336 5.13846 26.1336C5.17888 26.1336 5.21672 26.1478 5.22252 26.1652C5.23797 26.2116 23.962 26.2116 23.9775 26.1652C23.9833 26.1478 24.0211 26.1336 24.0615 26.1336C24.102 26.1336 24.1351 26.1223 24.1351 26.1084C24.1351 26.0945 24.1578 26.0832 24.1856 26.0832C24.2133 26.0832 24.236 26.0718 24.236 26.0579C24.236 26.0441 24.2644 26.0327 24.2991 26.0327C24.3338 26.0327 24.3622 26.0213 24.3622 26.0075C24.3622 25.9936 24.3849 25.9822 24.4126 25.9822C24.4404 25.9822 24.4631 25.9709 24.4631 25.957C24.4631 25.9431 24.4801 25.9318 24.5009 25.9318C24.5217 25.9318 24.5387 25.9204 24.5387 25.9065C24.5387 25.8926 24.5532 25.8813 24.571 25.8813C24.5887 25.8813 24.6196 25.8586 24.6396 25.8308C24.6596 25.8031 24.6909 25.7803 24.7092 25.7803C24.7466 25.7803 24.7941 25.7398 25.0442 25.4945C25.1408 25.3998 25.2198 25.3086 25.2198 25.2919C25.2198 25.2752 25.2425 25.2452 25.2703 25.2252C25.298 25.2052 25.3207 25.1686 25.3207 25.1439C25.3207 25.1192 25.3301 25.099 25.3415 25.099C25.3529 25.099 25.3992 25.0167 25.4444 24.9161C25.4896 24.8154 25.537 24.7134 25.5498 24.6893C25.5625 24.6652 25.573 24.6249 25.573 24.5997C25.573 24.5745 25.5872 24.5398 25.6045 24.5224C25.6295 24.4974 25.6386 23.164 25.6486 18.0927L25.6613 11.6945L25.7379 11.7678C26.1084 12.122 26.7477 12.1399 27.0546 11.8047C27.0999 11.7553 27.1369 11.701 27.1369 11.684C27.1369 11.667 27.1511 11.6485 27.1685 11.6427C27.1919 11.6349 27.2 11.5298 27.2 11.2326C27.2 10.9354 27.1919 10.8304 27.1685 10.8226C27.1511 10.8168 27.1369 10.7957 27.1369 10.7757C27.1369 10.7343 26.8743 10.463 26.8341 10.463C26.8196 10.463 26.7582 10.4147 26.6979 10.3557C26.5392 10.2007 26.3369 10.0291 26.2452 9.97152C26.2015 9.94408 26.1241 9.87878 26.0731 9.82642C26.0222 9.774 25.9676 9.73116 25.9517 9.73116C25.9358 9.73116 25.8675 9.67438 25.8 9.60499C25.7325 9.53559 25.6702 9.47882 25.6618 9.47882C25.6533 9.47882 25.6202 9.45327 25.5883 9.42204C25.4924 9.32829 25.3725 9.22647 25.3579 9.22647C25.3504 9.22647 25.3046 9.18679 25.2561 9.13821C25.2076 9.0897 25.137 9.03008 25.0992 9.00573C25.0205 8.95495 24.9351 8.88536 24.8515 8.80379C24.8195 8.77256 24.7806 8.74701 24.7653 8.74701C24.7499 8.74701 24.682 8.69024 24.6144 8.62084C24.5469 8.55145 24.4852 8.49467 24.4774 8.49467C24.4697 8.49467 24.4054 8.43789 24.3345 8.36849C24.2637 8.2991 24.1952 8.24232 24.1824 8.24232C24.1695 8.24232 24.108 8.19122 24.0455 8.12877C23.9831 8.06631 23.9222 8.01521 23.9101 8.01521C23.8981 8.01521 23.8544 7.98398 23.8129 7.94582C23.6589 7.80368 23.604 7.76287 23.5674 7.76287C23.5467 7.76287 23.5297 7.75201 23.5297 7.73877C23.5297 7.7059 23.3245 7.51052 23.2899 7.51052C23.2832 7.51052 23.2198 7.45374 23.1489 7.38435C23.0781 7.31495 23.0091 7.25817 22.9956 7.25817C22.9004 7.25817 22.8991 7.23628 22.8991 5.69546C22.8991 4.7185 22.8904 4.20479 22.8739 4.20479C22.86 4.20479 22.8486 4.18208 22.8486 4.15432C22.8486 4.12656 22.8373 4.10385 22.8234 4.10385C22.8095 4.10385 22.7982 4.08568 22.7982 4.06348C22.7982 4.01578 22.5782 3.80104 22.5293 3.80104C22.5107 3.80104 22.4955 3.78968 22.4955 3.7758C22.4955 3.76192 22.4735 3.75057 22.4466 3.75057C22.4196 3.75057 22.3906 3.73921 22.382 3.72533C22.3495 3.67278 21.8494 3.69524 21.7225 3.75492C21.5841 3.82003 21.3856 4.00026 21.3856 4.06089C21.3856 4.08455 21.3742 4.10385 21.3604 4.10385C21.3465 4.10385 21.3351 4.12656 21.3351 4.15432C21.3351 4.18208 21.3238 4.20479 21.3099 4.20479C21.2936 4.20479 21.2847 4.49177 21.2847 5.01526V5.8258L21.1901 5.75375C21.1381 5.71413 21.0626 5.65029 21.0224 5.61193C20.9822 5.57358 20.9388 5.54222 20.9262 5.54222C20.9134 5.54222 20.8477 5.48545 20.7802 5.41605C20.7126 5.34665 20.645 5.28988 20.6298 5.28988C20.6146 5.28988 20.5528 5.24162 20.4925 5.18263C20.3652 5.05829 20.1476 4.86928 20.0667 4.81275C19.9964 4.76361 19.9069 4.68822 19.8316 4.61485C19.7997 4.58362 19.7608 4.55807 19.7454 4.55807C19.7301 4.55807 19.6621 4.5013 19.5946 4.4319C19.5271 4.36251 19.46 4.30573 19.4455 4.30573C19.4311 4.30573 19.369 4.25747 19.3074 4.19848C19.1118 4.01105 19.0022 3.91472 18.9125 3.85125C18.8645 3.81731 18.8013 3.76653 18.7722 3.73852C18.6669 3.63726 18.5847 3.57393 18.5585 3.57393C18.5438 3.57393 18.4765 3.51715 18.409 3.44775C18.3415 3.37836 18.2794 3.32158 18.2711 3.32158C18.2628 3.32158 18.2181 3.28467 18.1719 3.23957C18.0706 3.14084 17.9843 3.06923 17.9666 3.06923C17.9595 3.06923 17.9025 3.01813 17.8401 2.95568C17.7777 2.89322 17.7165 2.84212 17.7041 2.84212C17.6917 2.84212 17.6356 2.79954 17.5794 2.74749C17.4407 2.61899 17.4189 2.6017 17.3484 2.56398C17.3149 2.546 17.2456 2.4877 17.1944 2.43433C17.1431 2.38102 17.0948 2.33743 17.0868 2.33743C17.0788 2.33743 17.0144 2.28065 16.9435 2.21126C16.8727 2.14186 16.8042 2.08509 16.7914 2.08509C16.7785 2.08509 16.717 2.03399 16.6545 1.97153C16.5921 1.90908 16.5304 1.85798 16.5173 1.85798C16.5043 1.85798 16.4563 1.82101 16.4107 1.77577C16.2999 1.66575 16.0282 1.45422 15.9977 1.45422C15.9843 1.45422 15.9569 1.43151 15.9369 1.40375C15.9169 1.376 15.8804 1.35328 15.8557 1.35328C15.831 1.35328 15.8108 1.34193 15.8108 1.32805C15.8108 1.31417 15.7881 1.30281 15.7604 1.30281C15.7326 1.30281 15.7099 1.29146 15.7099 1.27758C15.7099 1.2637 15.6872 1.25235 15.6595 1.25235C15.6317 1.25235 15.609 1.24099 15.609 1.22711C15.609 1.21323 15.5863 1.20188 15.5586 1.20188C15.5308 1.20188 15.5081 1.19052 15.5081 1.17664C15.5081 1.16276 15.4741 1.15141 15.4324 1.15141C15.3908 1.15141 15.3568 1.14005 15.3568 1.12617C15.3568 1.11229 15.3114 1.10094 15.2559 1.10094C15.2004 1.10094 15.155 1.08958 15.155 1.0757C15.155 1.06182 15.0925 1.05047 15.0162 1.05047C14.9399 1.05047 14.8775 1.03911 14.8775 1.02523C14.8775 1.00997 14.7682 1 14.6 1C14.4318 1 14.3225 1.00997 14.3225 1.02523ZM17.2931 15.2422C17.4784 15.3278 17.6082 15.4611 17.6929 15.6527L17.7533 15.7892L17.7469 20.2107L17.7405 24.6322L14.5937 24.6386L11.4468 24.645V20.2169V15.7889L11.5071 15.6525C11.6106 15.4187 11.7752 15.2742 12.0396 15.1855C12.0888 15.169 12.9962 15.1617 14.6252 15.1647L17.1351 15.1692L17.2931 15.2422Z"
     fill="#3C3C3C"
     id="path2" />
     <defs
     id="defs17">
    <linearGradient
       id="paint0_linear_217_720"
       x1="14.5998"
       y1="15.1833"
       x2="14.5998"
       y2="24.6195"
       gradientUnits="userSpaceOnUse">
      <stop
         stop-color="#9EE0FA"
         id="stop12" />
      <stop
         offset="1"
         stop-color="#55C8F6"
         id="stop14" />
    </linearGradient>
  </defs>
  <path
     fill-rule="evenodd"
     clip-rule="evenodd"
     d="M12.0648 15.2131C11.8009 15.3036 11.6392 15.4404 11.5385 15.6581L11.4846 15.7748L11.4781 20.1971L11.4714 24.6195H14.5998H17.7281L17.7205 20.2476C17.7164 17.8431 17.7039 15.8417 17.6929 15.8C17.6405 15.6025 17.3913 15.2827 17.2897 15.2827C17.2671 15.2827 17.2486 15.2713 17.2486 15.2575C17.2486 15.2436 17.2039 15.2322 17.1492 15.2322C17.0945 15.2322 17.0427 15.2209 17.0342 15.207C17.0124 15.1717 12.168 15.1777 12.0648 15.2131ZM14.1014 19.1685C14.6158 19.3611 14.7604 20.0544 14.3693 20.4535C13.954 20.8772 13.2457 20.7018 13.0618 20.1296C12.8627 19.5102 13.4828 18.937 14.1014 19.1685Z"
     fill="url(#paint0_linear_217_720)"
     id="path4" />
  <path
     fill-rule="evenodd"
     clip-rule="evenodd"
     d="M14.3982 2.69014C14.3774 2.70207 14.3183 2.73008 14.267 2.75241C14.2156 2.77468 14.1588 2.80742 14.1409 2.82515C14.1228 2.84281 13.9946 2.94703 13.8559 3.05661C13.6406 3.22676 13.3749 3.44566 13.274 3.53613C13.2585 3.55001 13.2082 3.58975 13.1622 3.62445C13.1161 3.65915 13.0661 3.6994 13.051 3.71385C13.0358 3.72829 12.8191 3.90985 12.5694 4.11728C12.3197 4.32471 12.1097 4.50041 12.1027 4.50766C12.0958 4.51498 12.0277 4.57176 11.9514 4.63383C11.8751 4.69591 11.807 4.75256 11.8 4.75969C11.7894 4.77067 11.4929 5.01973 11.2739 5.20161C11.2405 5.22937 11.2005 5.26363 11.185 5.27769C11.1694 5.29176 11.1057 5.34255 11.0433 5.39049C10.9808 5.4385 10.9127 5.49534 10.8919 5.51679C10.8711 5.53824 10.7918 5.60669 10.7156 5.66889C10.6394 5.7311 10.5486 5.80629 10.5138 5.83601C10.479 5.86572 10.3029 6.01189 10.1225 6.16078C9.94218 6.30966 9.76611 6.45571 9.7313 6.48529C9.69649 6.51482 9.60567 6.59002 9.52949 6.65228C9.45331 6.71449 9.38533 6.77164 9.3784 6.77921C9.37146 6.78678 9.16146 6.96229 8.91173 7.16928C8.662 7.3762 8.37702 7.61429 8.27845 7.69838C8.17988 7.78248 8.07772 7.86827 8.05142 7.88916C7.95235 7.96776 7.72564 8.15456 7.71353 8.16762C7.7066 8.17506 7.5647 8.29417 7.39822 8.43227C7.23173 8.57043 7.08032 8.69792 7.06178 8.71559C7.04324 8.73331 6.98698 8.77886 6.93672 8.81684C6.88646 8.85482 6.80517 8.92163 6.75605 8.96528C6.66114 9.04963 6.11943 9.5007 5.74559 9.8066C5.66947 9.86881 5.60155 9.92577 5.59462 9.93309C5.58768 9.94041 5.51957 9.99719 5.44326 10.0593C5.36696 10.1213 5.29885 10.1781 5.29191 10.1854C5.28498 10.1927 5.07498 10.3682 4.82525 10.5754C4.57552 10.7825 4.36287 10.964 4.35265 10.9788C4.34244 10.9935 4.33392 11.5807 4.33373 12.2835C4.33329 13.6952 4.32062 13.5921 4.49442 13.5921C4.69143 13.5921 4.98631 13.8239 5.09869 14.0671L5.15317 14.1851L5.16579 19.1185L5.1784 24.0518L5.23598 24.1654C5.33921 24.3691 5.47732 24.4893 5.70277 24.5718C5.82707 24.6172 5.93364 24.6196 7.8454 24.6196H9.8573L9.86562 20.0963C9.87022 17.6085 9.88246 15.5333 9.89274 15.4847C9.90308 15.4361 9.92055 15.3737 9.93158 15.3459C9.94256 15.3181 9.96551 15.25 9.98254 15.1945C10.1269 14.7239 10.7775 13.9202 11.0142 13.9202C11.0279 13.9202 11.0428 13.9111 11.0475 13.9C11.0659 13.8558 11.416 13.7104 11.6423 13.653L11.8822 13.5921L14.6095 13.5922L17.3369 13.5922L17.5662 13.6537C18.3354 13.8598 18.9276 14.4036 19.2167 15.1693C19.237 15.2231 19.2696 15.3472 19.3145 15.5419C19.3342 15.627 19.3424 16.9698 19.3424 20.1411V24.6202L21.3541 24.6112C23.2654 24.6026 23.555 24.5934 23.555 24.5411C23.555 24.5288 23.5719 24.5187 23.5925 24.5187C23.7209 24.5187 23.9441 24.2404 24.0072 24.0014C24.051 23.8359 24.0445 10.3253 24.0006 10.2819C23.9821 10.2635 23.9062 10.1974 23.8321 10.135C23.7579 10.0725 23.6738 9.99839 23.645 9.97019C23.6163 9.94205 23.569 9.90231 23.54 9.88187C23.5109 9.86149 23.4322 9.79935 23.365 9.74383C23.2978 9.68832 23.1399 9.55804 23.0142 9.45427C22.8884 9.35055 22.7686 9.24823 22.7478 9.2269C22.7269 9.20558 22.6671 9.15625 22.6148 9.11726C22.5624 9.07833 22.4942 9.02168 22.4632 8.9914C22.4322 8.96112 22.3672 8.90636 22.3187 8.86977C22.2703 8.83318 22.2023 8.7783 22.1676 8.74776C22.1329 8.71723 21.9979 8.60525 21.8676 8.49889C21.7373 8.39252 21.6067 8.28275 21.5774 8.25499C21.5481 8.22724 21.4618 8.15355 21.3855 8.09128C21.3092 8.02908 21.2412 7.97211 21.2342 7.9648C21.2199 7.94972 20.9704 7.74488 20.8962 7.68722C20.8693 7.6664 20.8011 7.6093 20.7444 7.56029C20.6878 7.51127 20.5878 7.42844 20.5223 7.37614C20.4567 7.3239 20.3886 7.26738 20.3709 7.25066C20.3532 7.23388 20.2763 7.16928 20.2 7.10714C20.1237 7.045 20.0442 6.9763 20.0234 6.95447C20.0026 6.93264 19.9617 6.89832 19.9324 6.87832C19.8853 6.84596 19.7467 6.73102 19.5745 6.58137C19.5426 6.55368 19.4695 6.49305 19.412 6.44668C19.3545 6.40032 19.2047 6.27679 19.079 6.17207C18.9533 6.06741 18.8235 5.95953 18.7905 5.93234C18.7576 5.90521 18.7065 5.86023 18.677 5.83241C18.6475 5.80459 18.5724 5.74233 18.5099 5.694C18.4475 5.64561 18.382 5.59224 18.3642 5.57534C18.3466 5.55843 18.2785 5.50152 18.213 5.44885C18.1474 5.39611 18.0812 5.34166 18.066 5.32778C18.0506 5.31391 17.9882 5.26104 17.9272 5.21032C17.8662 5.1596 17.7922 5.09714 17.7628 5.07153C17.7335 5.04591 17.6718 4.99658 17.6258 4.96188C17.5799 4.92719 17.5074 4.86454 17.4648 4.82265C17.4223 4.78083 17.3477 4.71862 17.2991 4.68443C17.2506 4.6503 17.1869 4.59933 17.1577 4.57132C17.1284 4.54324 16.9931 4.42943 16.857 4.3184C16.7208 4.20737 16.5972 4.10511 16.5822 4.09116C16.5672 4.07722 16.4925 4.01496 16.4162 3.95282C16.3399 3.89068 16.2605 3.82198 16.2396 3.80015C16.2188 3.77832 16.1767 3.74324 16.1459 3.72217C16.1152 3.70116 16.0357 3.63751 15.9694 3.5808C15.903 3.52402 15.7351 3.38378 15.5964 3.26915C15.4577 3.15452 15.3385 3.05384 15.3315 3.04544C15.3246 3.03705 15.2678 2.99081 15.2054 2.94268C15.143 2.89461 15.0699 2.8353 15.043 2.81089C15.0161 2.78648 14.9792 2.76648 14.961 2.76648C14.9428 2.76648 14.9279 2.75512 14.9279 2.74124C14.9279 2.72736 14.9003 2.71601 14.8664 2.71601C14.8325 2.71601 14.7978 2.70465 14.7892 2.69077C14.7703 2.66024 14.4514 2.65973 14.3982 2.69014ZM13.4996 19.1802C12.7345 19.5282 12.9622 20.683 13.7959 20.683C14.5373 20.683 14.8759 19.8192 14.3302 19.3202C14.1035 19.1129 13.7707 19.0568 13.4996 19.1802Z"
     fill="#F8F8F8"
     id="path6" />
  <path
     fill-rule="evenodd"
     clip-rule="evenodd"
     d="M14.3099 2.69221C14.2406 2.71934 14.0873 2.82198 13.9694 2.92027C13.8515 3.01856 13.7096 3.13622 13.6541 3.18177C13.432 3.3639 12.8935 3.81036 12.8343 3.86152C12.7996 3.89142 12.5669 4.08586 12.3171 4.29347C12.0674 4.50115 11.8574 4.67704 11.8505 4.68429C11.8435 4.69161 11.7754 4.74839 11.6991 4.81047C11.6228 4.87254 11.5547 4.92932 11.5478 4.93664C11.5408 4.94396 11.4729 5.00093 11.3967 5.06313C11.3205 5.1254 11.2297 5.20085 11.1949 5.23081C11.1601 5.26078 10.7059 5.63955 10.1856 6.07258C9.66534 6.50554 9.21116 6.88418 9.17635 6.9139C9.14154 6.94367 9.05073 7.019 8.97455 7.08126C8.89837 7.14347 8.83039 7.20056 8.82345 7.208C8.81651 7.21545 8.6803 7.32957 8.52075 7.46155C8.3612 7.59359 7.9185 7.9622 7.53697 8.2806C7.15543 8.59906 6.53111 9.11921 6.14958 9.43653C5.76805 9.7538 5.42738 10.0379 5.39257 10.0679C5.35776 10.0979 5.26695 10.1733 5.19077 10.2356C5.11459 10.2978 5.04661 10.3548 5.03967 10.3621C5.03273 10.3694 4.96462 10.4262 4.88832 10.4882C4.81201 10.5503 4.7439 10.6073 4.73697 10.6149C4.73003 10.6224 4.63638 10.7008 4.52886 10.7889C4.42133 10.8771 4.33355 10.9619 4.33374 10.9774C4.33399 10.9969 4.33986 10.9973 4.35266 10.9788C4.36288 10.964 4.57552 10.7825 4.82525 10.5754C5.07498 10.3682 5.28498 10.1927 5.29192 10.1854C5.29886 10.1781 5.36697 10.1213 5.44327 10.0593C5.51958 9.99718 5.58769 9.9404 5.59462 9.93309C5.60156 9.92577 5.66948 9.8688 5.7456 9.8066C6.11943 9.50069 6.66115 9.04962 6.75606 8.96528C6.80518 8.92162 6.88647 8.85481 6.93673 8.81684C6.98699 8.77886 7.04324 8.73331 7.06178 8.71558C7.08033 8.69792 7.23174 8.57042 7.39823 8.43226C7.56471 8.29416 7.7066 8.17506 7.71354 8.16761C7.72565 8.15455 7.95236 7.96775 8.05143 7.88915C8.07773 7.86827 8.17989 7.78247 8.27846 7.69838C8.37703 7.61428 8.66201 7.37619 8.91174 7.16927C9.16147 6.96228 9.37147 6.78678 9.37841 6.77921C9.38534 6.77164 9.45333 6.71448 9.52951 6.65228C9.60569 6.59001 9.6965 6.51481 9.73131 6.48529C9.76612 6.4557 9.94219 6.30965 10.1226 6.16077C10.3029 6.01189 10.479 5.86571 10.5138 5.836C10.5486 5.80629 10.6394 5.73109 10.7156 5.66888C10.7918 5.60668 10.8711 5.53823 10.8919 5.51678C10.9127 5.49533 10.9808 5.43849 11.0433 5.39048C11.1057 5.34254 11.1695 5.29175 11.185 5.27769C11.2005 5.26362 11.2405 5.22936 11.2739 5.2016C11.4929 5.01973 11.7894 4.77066 11.8 4.75968C11.807 4.75255 11.8751 4.6959 11.9514 4.63383C12.0277 4.57175 12.0958 4.51497 12.1027 4.50765C12.1097 4.5004 12.3197 4.3247 12.5694 4.11727C12.8191 3.90985 13.0358 3.72828 13.051 3.71384C13.0661 3.69939 13.1162 3.65914 13.1622 3.62444C13.2082 3.58975 13.2586 3.55 13.274 3.53612C13.3749 3.44566 13.6406 3.22675 13.8559 3.0566C13.9946 2.94702 14.1228 2.8428 14.1409 2.82514C14.1588 2.80741 14.2156 2.77467 14.267 2.75234C14.3183 2.73 14.3801 2.70136 14.4042 2.68862C14.4633 2.65745 14.7697 2.65916 14.7892 2.69076C14.7978 2.70464 14.8325 2.716 14.8664 2.716C14.9003 2.716 14.928 2.72735 14.928 2.74123C14.928 2.75511 14.9428 2.76647 14.9611 2.76647C14.9792 2.76647 15.0161 2.78647 15.043 2.81088C15.0699 2.83529 15.143 2.8946 15.2054 2.94267C15.2679 2.9908 15.3246 3.03704 15.3316 3.04544C15.3385 3.05383 15.4577 3.15451 15.5964 3.26914C15.7352 3.38377 15.903 3.52401 15.9694 3.58079C16.0357 3.6375 16.1152 3.70116 16.146 3.72216C16.1767 3.74323 16.2189 3.77831 16.2397 3.80014C16.2605 3.82197 16.3399 3.89067 16.4162 3.95281C16.4925 4.01495 16.5672 4.07721 16.5822 4.09116C16.5972 4.1051 16.7208 4.20736 16.857 4.31839C16.9931 4.42943 17.1284 4.54323 17.1577 4.57131C17.1869 4.59932 17.2506 4.65029 17.2991 4.68442C17.3477 4.71861 17.4223 4.78082 17.4649 4.82264C17.5074 4.86453 17.5799 4.92718 17.6259 4.96188C17.6718 4.99657 17.7335 5.04591 17.7628 5.07152C17.7922 5.09713 17.8662 5.15959 17.9272 5.21031C17.9882 5.26103 18.0506 5.3139 18.066 5.32778C18.0812 5.34166 18.1474 5.3961 18.213 5.44884C18.2785 5.50152 18.3466 5.55842 18.3643 5.57533C18.382 5.59224 18.4475 5.64561 18.5099 5.69399C18.5724 5.74232 18.6475 5.80458 18.6771 5.83241C18.7065 5.86023 18.7576 5.90521 18.7906 5.93233C18.8235 5.95952 18.9533 6.0674 19.079 6.17206C19.2047 6.27679 19.3545 6.40031 19.412 6.44668C19.4695 6.49305 19.5426 6.55367 19.5745 6.58137C19.7467 6.73101 19.8853 6.84595 19.9325 6.87832C19.9617 6.89831 20.0026 6.93263 20.0235 6.95446C20.0443 6.97629 20.1237 7.04499 20.2 7.10713C20.2763 7.16927 20.3532 7.23387 20.3709 7.25065C20.3886 7.26737 20.4567 7.32389 20.5223 7.37613C20.5878 7.42843 20.6878 7.51126 20.7445 7.56028C20.8011 7.6093 20.8693 7.66639 20.8962 7.68721C20.9705 7.74487 21.2199 7.94971 21.2343 7.96479C21.2412 7.97211 21.3092 8.02908 21.3855 8.09128C21.4618 8.15354 21.5481 8.22723 21.5774 8.25499C21.6067 8.28275 21.7373 8.39252 21.8676 8.49888C21.9979 8.60524 22.1329 8.71722 22.1676 8.74776C22.2023 8.77829 22.2703 8.83317 22.3188 8.86976C22.3673 8.90635 22.4323 8.96111 22.4632 8.9914C22.4943 9.02168 22.5624 9.07833 22.6148 9.11725C22.6671 9.15624 22.727 9.20557 22.7478 9.2269C22.7686 9.24822 22.8885 9.35055 23.0142 9.45426C23.14 9.55804 23.2978 9.68831 23.365 9.74383C23.4323 9.79934 23.511 9.86148 23.54 9.88186C23.569 9.9023 23.6163 9.94204 23.645 9.97018C23.6738 9.99838 23.7579 10.0725 23.8321 10.135C23.9062 10.1974 23.9821 10.2635 24.0006 10.2819C24.0445 10.3253 24.051 23.8359 24.0073 24.0014C23.9441 24.2404 23.721 24.5187 23.5925 24.5187C23.5719 24.5187 23.555 24.53 23.555 24.5439C23.555 24.5578 23.5238 24.5693 23.4856 24.5695C23.4475 24.5697 23.3992 24.5809 23.3784 24.5944C23.2972 24.6469 23.468 24.6185 23.5982 24.5579C23.7812 24.4726 23.9401 24.306 24.0058 24.1306L24.0595 23.9869V17.1253C24.0595 11.3207 24.0541 10.2605 24.0247 10.2435C24.0056 10.2324 23.9346 10.1762 23.867 10.1186C23.7995 10.061 23.4599 9.77707 23.1124 9.4877C22.4675 8.95058 20.9901 7.72052 20.6036 7.3989C20.4857 7.30074 20.3835 7.21463 20.3766 7.20744C20.3697 7.20031 20.3016 7.14366 20.2253 7.08158C20.1489 7.0195 20.0808 6.96266 20.0739 6.95522C20.067 6.94784 19.8968 6.8057 19.6956 6.63947C19.4945 6.47317 19.3015 6.31262 19.2668 6.28259C19.2321 6.25262 18.8801 5.95933 18.4847 5.63084C18.0893 5.30235 17.7374 5.00887 17.7027 4.97872C17.6404 4.92459 17.4145 4.73647 16.3784 3.87628C16.0871 3.63441 15.843 3.43033 15.8361 3.42288C15.8291 3.41537 15.761 3.35847 15.6847 3.29639C15.6084 3.23432 15.5403 3.17773 15.5334 3.17054C15.5067 3.14316 15.2129 2.89971 15.1101 2.81971C14.8804 2.64118 14.5679 2.5914 14.3099 2.69221ZM4.56039 13.6267C4.83799 13.7189 5.01381 13.8948 5.10595 14.1725C5.12581 14.2322 5.13615 14.244 5.13792 14.209C5.14877 13.9967 4.73728 13.5864 4.52255 13.5953C4.49058 13.5966 4.50445 13.6081 4.56039 13.6267ZM11.633 13.6541C11.4138 13.7108 11.0653 13.8571 11.0475 13.9C11.0428 13.9111 11.0279 13.9201 11.0142 13.9201C10.9154 13.9201 10.463 14.3356 10.2935 14.582C10.1374 14.8087 9.95638 15.1871 9.9606 15.2777C9.96168 15.3013 9.97442 15.2866 9.98886 15.245C10.2217 14.5747 10.694 14.0598 11.3207 13.793C11.5179 13.709 11.6031 13.6846 11.9262 13.6202C12.034 13.5987 12.0353 13.5975 11.9514 13.5961C11.9028 13.5953 11.7595 13.6214 11.633 13.6541ZM17.2361 13.6173C17.3458 13.6453 17.5124 13.6453 17.4253 13.6173C17.3906 13.6062 17.3168 13.5973 17.2613 13.5976C17.1653 13.598 17.164 13.599 17.2361 13.6173ZM17.5388 13.6669C17.5665 13.6783 17.6403 13.7023 17.7027 13.7202C17.7652 13.738 17.8276 13.76 17.8415 13.7691C17.8553 13.7781 17.9064 13.8009 17.955 13.8196C18.3722 13.9806 18.8843 14.4956 19.1133 14.9842C19.1544 15.0721 19.1887 15.1295 19.1896 15.1118C19.1904 15.094 19.1555 15.0088 19.1121 14.9225C18.812 14.3254 18.2731 13.8597 17.6772 13.6827C17.5358 13.6407 17.4523 13.6311 17.5388 13.6669ZM5.14669 19.1367L5.14057 24.0125L5.20004 24.1471C5.3046 24.3836 5.51554 24.5671 5.72636 24.6049C5.80286 24.6186 5.80437 24.6177 5.74597 24.5924C5.45708 24.4672 5.33417 24.3647 5.23548 24.1665L5.17841 24.0518L5.16561 19.1563L5.1528 14.2608L5.14669 19.1367ZM19.1917 15.1614C19.192 15.1657 19.2149 15.2488 19.2424 15.3459C19.2882 15.5076 19.2933 15.4653 19.2524 15.2636C19.2398 15.2019 19.1877 15.1141 19.1917 15.1614ZM9.92321 15.3612C9.91697 15.3805 9.90334 15.4361 9.89294 15.4847C9.88253 15.5333 9.87024 17.6084 9.86563 20.0962L9.85731 24.6193L7.83948 24.626L5.82165 24.6327L7.84597 24.6325L9.8703 24.6322L9.88373 20.1026C9.8942 16.5858 9.90429 15.5483 9.92876 15.4624C9.95676 15.3643 9.95178 15.2727 9.92321 15.3612ZM19.3109 20.0594C19.3144 22.5467 19.3226 24.596 19.3291 24.6133C19.3383 24.6382 19.7593 24.6436 21.3406 24.6387L23.3406 24.6325L21.3415 24.6259L19.3424 24.6193L19.3406 20.1214C19.3396 17.6475 19.3311 15.6041 19.3217 15.5803C19.3122 15.5565 19.3074 17.5721 19.3109 20.0594Z"
     fill="#AEA5BF"
     id="path8" />
  <path
     fill-rule="evenodd"
     clip-rule="evenodd"
     d="M12.0715 13.6099C12.1029 13.6159 12.1483 13.6157 12.1724 13.6094C12.1965 13.6031 12.1709 13.5981 12.1154 13.5984C12.0599 13.5987 12.0401 13.6038 12.0715 13.6099ZM17.0532 13.6094C17.0775 13.6158 17.1172 13.6158 17.1415 13.6094C17.1658 13.6031 17.1459 13.5979 17.0973 13.5979C17.0488 13.5979 17.0289 13.6031 17.0532 13.6094ZM12.0397 15.1855C11.7753 15.2742 11.6106 15.4186 11.5072 15.6525L11.4469 15.7889V20.2169V24.645L14.5937 24.6386L17.7406 24.6322L17.747 20.2107L17.7533 15.7892L17.693 15.6527C17.6083 15.4611 17.4784 15.3278 17.2932 15.2422L17.1352 15.1692L14.6253 15.1647C12.9963 15.1617 12.0888 15.169 12.0397 15.1855ZM17.0343 15.207C17.0429 15.2209 17.0946 15.2323 17.1493 15.2323C17.204 15.2323 17.2487 15.2436 17.2487 15.2575C17.2487 15.2714 17.2672 15.2827 17.2898 15.2827C17.3914 15.2827 17.6406 15.6025 17.693 15.8001C17.704 15.8417 17.7165 17.8431 17.7207 20.2477L17.7282 24.6195H14.5999H11.4716L11.4782 20.1972L11.4847 15.7748L11.5387 15.6582C11.6393 15.4404 11.801 15.3037 12.0649 15.2132C12.1682 15.1777 17.0125 15.1718 17.0343 15.207Z"
     fill="#BC6880"
     id="path10" />
  
</svg>
