<svg width="24" height="28" viewBox="0 0 24 28" fill="none" xmlns="http://www.w3.org/2000/svg">
<path d="M13.8439 0.776465C14.4669 0.921832 14.7161 1.08277 15.5104 1.86152L16.2425 2.58316L16.6266 2.4949C17.1822 2.35992 18.3451 2.33396 18.9006 2.4378C19.8507 2.61431 20.6813 2.97773 21.3926 3.51766C21.6054 3.6786 22.1973 4.22892 22.7061 4.7377L23.625 5.66182L22.9812 6.30558L22.3375 6.94935L22.6022 7.25566C23.6406 8.42897 23.843 9.85149 23.1733 11.2429C22.9553 11.6997 22.8826 11.788 22.2284 12.4421C21.5795 13.0911 21.4808 13.169 21.0292 13.387C20.0012 13.8906 18.9785 13.9114 17.9817 13.4493C17.6079 13.278 17.1199 12.9353 16.8758 12.6757L16.7512 12.5356L16.0971 13.1897L15.4429 13.8439L14.4306 12.8159C13.2105 11.5803 12.8419 11.0663 12.4785 10.1059C12.1774 9.30117 12.058 8.06556 12.2085 7.21931C12.2397 7.02722 12.2553 6.86628 12.2449 6.8559C12.2345 6.84552 11.0716 7.98768 9.65944 9.39981L7.08957 11.9697L7.16225 12.1358C7.53605 13.0651 7.53086 14.1606 7.14149 14.9964C7.07399 15.147 6.97016 15.3495 6.90786 15.4533L6.79364 15.635L9.51926 19.3211L12.2397 23.002L13.8699 23.0331C15.4481 23.0643 15.5156 23.0695 15.9206 23.1992C16.4501 23.3758 16.8707 23.6457 17.2756 24.0818C17.6131 24.4452 17.9038 24.9748 18.0128 25.4368C18.1167 25.8626 18.1011 26.4025 17.9765 26.6413C17.8363 26.9113 17.556 27.1605 17.3068 27.228C17.0316 27.3058 5.09078 27.3058 4.81562 27.228C4.7066 27.202 4.53527 27.1034 4.43144 27.0099C4.16667 26.7763 4.05245 26.5011 4.05245 26.0702C4.04726 24.8087 4.95061 23.6094 6.20699 23.2044C6.58598 23.0798 6.72615 23.0643 7.72295 23.0435C8.33038 23.0279 8.82877 23.0072 8.82877 22.9968C8.82877 22.9864 7.85274 21.6573 6.65866 20.0375L4.48336 17.099L3.86555 17.0835C3.39311 17.0783 3.15948 17.0471 2.88433 16.9589C1.43066 16.4916 0.465013 15.2456 0.381946 13.7348C0.345605 13.0911 0.449438 12.6031 0.750554 11.9956C1.22819 11.0352 2.07443 10.3603 3.11276 10.1215C3.54367 10.0176 4.34837 10.0228 4.72736 10.1266L5.01291 10.2045L7.85793 7.35949L10.703 4.51446L10.6147 4.28603C10.4745 3.9278 10.4901 3.00369 10.6407 2.59874C11.1183 1.28006 12.5304 0.475349 13.8439 0.776465ZM19.5236 9.76842L17.8882 11.4038L18.1218 11.6115C18.7656 12.1877 19.5807 12.3071 20.3075 11.9385C20.6709 11.7568 21.538 10.895 21.7197 10.542C21.9896 9.99685 22 9.33751 21.7456 8.83392C21.6366 8.61587 21.2524 8.12786 21.1953 8.12786C21.1745 8.12786 20.4217 8.86507 19.5236 9.76842ZM3.16468 12.2137C2.84279 12.3902 2.5261 12.7744 2.43265 13.0859C2.13154 14.1138 2.86875 15.1106 3.92266 15.1054C4.55085 15.1003 5.01291 14.8095 5.29845 14.2436C5.59956 13.631 5.48535 12.9821 4.99214 12.4837C4.62353 12.115 4.36914 12.0164 3.83959 12.0372C3.51252 12.0527 3.39311 12.0839 3.16468 12.2137Z" fill="#9848EA"/>
</svg>
