<svg width="17" height="19" viewBox="0 0 17 19" fill="none" xmlns="http://www.w3.org/2000/svg">
<path d="M9.41224 0.0439053C9.84761 0.145491 10.0218 0.257961 10.5769 0.802176L11.0884 1.30648L11.3569 1.2448C11.7451 1.15047 12.5578 1.13233 12.946 1.20489C13.6099 1.32825 14.1904 1.58221 14.6875 1.95954C14.8362 2.07201 15.2498 2.45658 15.6054 2.81214L16.2476 3.45793L15.7977 3.90782L15.3478 4.3577L15.5328 4.57176C16.2584 5.39171 16.3999 6.3858 15.9319 7.35813C15.7795 7.6774 15.7287 7.73908 15.2716 8.19622C14.8181 8.64973 14.7492 8.70415 14.4335 8.85653C13.7152 9.20845 13.0004 9.22297 12.3038 8.90007C12.0426 8.78034 11.7016 8.54088 11.531 8.35948L11.444 8.26152L10.9868 8.71866L10.5297 9.1758L9.82222 8.45744C8.96962 7.59395 8.71202 7.23477 8.45806 6.56358C8.24763 6.00122 8.16418 5.13774 8.2694 4.54636C8.29117 4.41212 8.30205 4.29965 8.29479 4.29239C8.28754 4.28514 7.47485 5.08332 6.48801 6.07016L4.6921 7.86606L4.7429 7.98216C5.00412 8.63159 5.00049 9.39711 4.72838 9.98124C4.68122 10.0864 4.60866 10.2279 4.56512 10.3005L4.4853 10.4275L6.39005 13.0034L8.29117 15.5757L9.43039 15.5975C10.5333 15.6193 10.5805 15.6229 10.8635 15.7136C11.2335 15.837 11.5274 16.0256 11.8104 16.3304C12.0462 16.5844 12.2494 16.9544 12.3256 17.2773C12.3982 17.5748 12.3873 17.9521 12.3002 18.119C12.2022 18.3077 12.0063 18.4818 11.8322 18.529C11.6399 18.5834 3.29529 18.5834 3.103 18.529C3.02681 18.5109 2.90709 18.4419 2.83452 18.3766C2.64949 18.2134 2.56967 18.0211 2.56967 17.7199C2.56605 16.8383 3.19733 16.0002 4.07533 15.7172C4.34018 15.6302 4.43814 15.6193 5.13473 15.6048C5.55922 15.5939 5.90751 15.5794 5.90751 15.5721C5.90751 15.5649 5.22543 14.6361 4.39097 13.5041L2.87081 11.4506L2.43906 11.4397C2.10891 11.4361 1.94564 11.4143 1.75336 11.3527C0.737491 11.0261 0.0626659 10.1554 0.00461769 9.09961C-0.0207787 8.64973 0.0517826 8.30869 0.262212 7.8842C0.595995 7.21301 1.18737 6.74135 1.91299 6.57446C2.21412 6.5019 2.77647 6.50553 3.04133 6.57809L3.24087 6.63251L5.22906 4.64432L7.21725 2.65613L7.15557 2.49649C7.05762 2.24615 7.0685 1.60036 7.17372 1.31736C7.5075 0.39583 8.49434 -0.166525 9.41224 0.0439053ZM13.3814 6.32775L12.2385 7.4706L12.4018 7.61572C12.8517 8.01844 13.4213 8.10189 13.9292 7.84429C14.1832 7.71731 14.7891 7.11505 14.9161 6.86834C15.1047 6.48739 15.112 6.02662 14.9342 5.6747C14.858 5.52232 14.5895 5.18128 14.5496 5.18128C14.5351 5.18128 14.009 5.69646 13.3814 6.32775ZM1.94927 8.03658C1.72433 8.15994 1.50302 8.42841 1.43771 8.6461C1.22728 9.36446 1.74247 10.0611 2.47897 10.0574C2.91797 10.0538 3.24087 9.85062 3.44041 9.45516C3.65084 9.02705 3.57103 8.57354 3.22636 8.22524C2.96876 7.96765 2.79099 7.89871 2.42092 7.91323C2.19235 7.92411 2.10891 7.94588 1.94927 8.03658Z" fill="#AC48EA"/>
</svg>
