<svg width="382" height="200" viewBox="0 0 382 200" fill="none" xmlns="http://www.w3.org/2000/svg">
<mask id="mask0_138_3375" style="mask-type:alpha" maskUnits="userSpaceOnUse" x="0" y="0" width="382" height="200">
<rect width="382" height="200" fill="white"/>
</mask>
<g mask="url(#mask0_138_3375)">
<g opacity="0.2">
<path d="M246.417 60.2007C246.904 60.9018 247.1 61.8154 246.954 62.7068C246.815 63.5595 246.384 64.2816 245.741 64.7425C244.337 65.7457 242.478 65.4353 241.506 64.0365C240.591 62.7179 239.824 61.2792 239.223 59.762C238.91 58.9718 238.929 58.0427 239.276 57.2149C239.612 56.4159 240.225 55.8006 240.958 55.5284C241.499 55.3281 242.049 55.2844 242.565 55.3762C243.574 55.5566 244.454 56.2582 244.878 57.3284C245.335 58.4832 245.709 59.1821 246.417 60.2007Z" fill="#8497DC"/>
<path d="M272.417 -2.79925C272.904 -2.09818 273.1 -1.18462 272.954 -0.293197C272.815 0.559494 272.384 1.2816 271.741 1.74253C270.337 2.74572 268.478 2.4353 267.506 1.03647C266.591 -0.28213 265.824 -1.7208 265.223 -3.23805C264.91 -4.02821 264.929 -4.95726 265.276 -5.78505C265.612 -6.58407 266.225 -7.19938 266.958 -7.47162C267.499 -7.67193 268.049 -7.71564 268.565 -7.62379C269.574 -7.4434 270.454 -6.74177 270.878 -5.67162C271.335 -4.51681 271.709 -3.81795 272.417 -2.79925Z" fill="#8497DC"/>
<path d="M306.187 113.4C306.546 114.174 306.583 115.107 306.286 115.961C306.003 116.777 305.455 117.414 304.742 117.758C303.187 118.506 301.408 117.882 300.691 116.337C300.016 114.881 299.507 113.332 299.174 111.734C299.002 110.902 299.179 109.99 299.663 109.234C300.131 108.504 300.84 108.003 301.609 107.861C302.176 107.756 302.726 107.807 303.218 107.986C304.182 108.337 304.929 109.179 305.163 110.306C305.415 111.522 305.664 112.275 306.187 113.4Z" fill="#8497DC"/>
<path d="M37.1869 75.3997C37.5464 76.1738 37.583 77.1075 37.2865 77.9607C37.0033 78.7769 36.455 79.4145 35.7418 79.7583C34.1872 80.5061 32.4084 79.8815 31.691 78.3369C31.0159 76.881 30.5067 75.3322 30.1743 73.7343C30.0017 72.9023 30.1794 71.9902 30.6634 71.2341C31.1306 70.5044 31.8403 70.0033 32.6093 69.8608C33.1763 69.7561 33.7258 69.8073 34.2185 69.9863C35.1819 70.337 35.9286 71.179 36.1625 72.3059C36.4149 73.522 36.6639 74.2747 37.1869 75.3997Z" fill="#8497DC"/>
<path d="M128.187 145.4C128.546 146.174 128.583 147.107 128.286 147.961C128.003 148.777 127.455 149.414 126.742 149.758C125.187 150.506 123.408 149.882 122.691 148.337C122.016 146.881 121.507 145.332 121.174 143.734C121.002 142.902 121.179 141.99 121.663 141.234C122.131 140.504 122.84 140.003 123.609 139.861C124.176 139.756 124.726 139.807 125.218 139.986C126.182 140.337 126.929 141.179 127.163 142.306C127.415 143.522 127.664 144.275 128.187 145.4Z" fill="#8497DC"/>
<path d="M243.851 137.553C244.663 137.814 245.374 138.42 245.8 139.216C246.208 139.978 246.305 140.813 246.074 141.57C245.57 143.22 243.904 144.104 242.283 143.584C240.755 143.093 239.271 142.417 237.871 141.578C237.143 141.14 236.593 140.391 236.365 139.523C236.146 138.685 236.259 137.823 236.676 137.161C236.983 136.674 237.393 136.304 237.859 136.064C238.77 135.593 239.895 135.616 240.882 136.208C241.947 136.847 242.669 137.174 243.851 137.553Z" fill="#8497DC"/>
<path d="M178.187 17.3997C178.546 18.1738 178.583 19.1075 178.286 19.9607C178.003 20.7769 177.455 21.4145 176.742 21.7583C175.187 22.5061 173.408 21.8815 172.691 20.3369C172.016 18.881 171.507 17.3322 171.174 15.7343C171.002 14.9023 171.179 13.9902 171.663 13.2341C172.131 12.5044 172.84 12.0033 173.609 11.8608C174.176 11.7561 174.726 11.8073 175.218 11.9863C176.182 12.337 176.929 13.179 177.163 14.3059C177.415 15.522 177.664 16.2747 178.187 17.3997Z" fill="#8497DC"/>
<path d="M63.1869 133.4C63.5464 134.174 63.583 135.107 63.2865 135.961C63.0033 136.777 62.455 137.414 61.7418 137.758C60.1872 138.506 58.4084 137.882 57.691 136.337C57.0159 134.881 56.5067 133.332 56.1743 131.734C56.0017 130.902 56.1794 129.99 56.6634 129.234C57.1306 128.504 57.8403 128.003 58.6093 127.861C59.1763 127.756 59.7258 127.807 60.2185 127.986C61.1819 128.337 61.9286 129.179 62.1625 130.306C62.4149 131.522 62.6639 132.275 63.1869 133.4Z" fill="#8497DC"/>
<path d="M186.187 153.4C186.546 154.174 186.583 155.107 186.286 155.961C186.003 156.777 185.455 157.414 184.742 157.758C183.187 158.506 181.408 157.882 180.691 156.337C180.016 154.881 179.507 153.332 179.174 151.734C179.002 150.902 179.179 149.99 179.663 149.234C180.131 148.504 180.84 148.003 181.609 147.861C182.176 147.756 182.726 147.807 183.218 147.986C184.182 148.337 184.929 149.179 185.163 150.306C185.415 151.522 185.664 152.275 186.187 153.4Z" fill="#8497DC"/>
<path d="M359.187 177.4C359.546 178.174 359.583 179.107 359.286 179.961C359.003 180.777 358.455 181.414 357.742 181.758C356.187 182.506 354.408 181.882 353.691 180.337C353.016 178.881 352.507 177.332 352.174 175.734C352.002 174.902 352.179 173.99 352.663 173.234C353.131 172.504 353.84 172.003 354.609 171.861C355.176 171.756 355.726 171.807 356.218 171.986C357.182 172.337 357.929 173.179 358.163 174.306C358.415 175.522 358.664 176.275 359.187 177.4Z" fill="#8497DC"/>
<path d="M88.1233 185.435C88.9633 185.587 89.7479 186.094 90.2751 186.827C90.7797 187.529 90.9856 188.344 90.8564 189.125C90.5733 190.827 89.039 191.922 87.3628 191.62C85.7837 191.334 84.224 190.86 82.7259 190.212C81.9461 189.874 81.3025 189.204 80.9626 188.373C80.6347 187.571 80.6333 186.702 80.9592 185.992C81.1999 185.468 81.558 185.048 81.9879 184.748C82.829 184.162 83.9475 184.035 85.0037 184.493C86.1434 184.986 86.9023 185.215 88.1233 185.435Z" fill="#8497DC"/>
<path d="M223.689 72.1873C224.529 72.3388 225.314 72.8461 225.841 73.5796C226.346 74.2809 226.552 75.0962 226.422 75.8773C226.139 77.5791 224.605 78.6744 222.929 78.3723C221.35 78.0866 219.79 77.6118 218.292 76.9641C217.512 76.6265 216.868 75.9563 216.529 75.1254C216.201 74.3234 216.199 73.4546 216.525 72.7437C216.766 72.2197 217.124 71.7998 217.554 71.4998C218.395 70.9138 219.513 70.7876 220.57 71.2448C221.709 71.7382 222.468 71.9676 223.689 72.1873Z" fill="#8497DC"/>
<path d="M173.689 48.1873C174.529 48.3388 175.314 48.8461 175.841 49.5796C176.346 50.2809 176.552 51.0962 176.422 51.8773C176.139 53.5791 174.605 54.6744 172.929 54.3723C171.35 54.0866 169.79 53.6118 168.292 52.9641C167.512 52.6265 166.868 51.9563 166.529 51.1254C166.201 50.3234 166.199 49.4546 166.525 48.7437C166.766 48.2197 167.124 47.7998 167.554 47.4998C168.395 46.9138 169.513 46.7876 170.57 47.2448C171.709 47.7382 172.468 47.9676 173.689 48.1873Z" fill="#8497DC"/>
<path d="M349.689 118.187C350.529 118.339 351.314 118.846 351.841 119.58C352.346 120.281 352.552 121.096 352.422 121.877C352.139 123.579 350.605 124.674 348.929 124.372C347.35 124.087 345.79 123.612 344.292 122.964C343.512 122.627 342.868 121.956 342.529 121.125C342.201 120.323 342.199 119.455 342.525 118.744C342.766 118.22 343.124 117.8 343.554 117.5C344.395 116.914 345.513 116.788 346.57 117.245C347.709 117.738 348.468 117.968 349.689 118.187Z" fill="#8497DC"/>
<path d="M334.689 17.1873C335.529 17.3388 336.314 17.8461 336.841 18.5796C337.346 19.2809 337.552 20.0962 337.422 20.8773C337.139 22.5791 335.605 23.6744 333.929 23.3723C332.35 23.0866 330.79 22.6118 329.292 21.9641C328.512 21.6265 327.868 20.9563 327.529 20.1254C327.201 19.3234 327.199 18.4546 327.525 17.7437C327.766 17.2197 328.124 16.7998 328.554 16.4998C329.395 15.9138 330.513 15.7876 331.57 16.2448C332.709 16.7382 333.468 16.9676 334.689 17.1873Z" fill="#8497DC"/>
<path d="M181.689 203.187C182.529 203.339 183.314 203.846 183.841 204.58C184.346 205.281 184.552 206.096 184.422 206.877C184.139 208.579 182.605 209.674 180.929 209.372C179.35 209.087 177.79 208.612 176.292 207.964C175.512 207.627 174.868 206.956 174.529 206.125C174.201 205.323 174.199 204.455 174.525 203.744C174.766 203.22 175.124 202.8 175.554 202.5C176.395 201.914 177.513 201.788 178.57 202.245C179.709 202.738 180.468 202.968 181.689 203.187Z" fill="#8497DC"/>
<path d="M140.689 105.187C141.529 105.339 142.314 105.846 142.841 106.58C143.346 107.281 143.552 108.096 143.422 108.877C143.139 110.579 141.605 111.674 139.929 111.372C138.35 111.087 136.79 110.612 135.292 109.964C134.512 109.627 133.868 108.956 133.529 108.125C133.201 107.323 133.199 106.455 133.525 105.744C133.766 105.22 134.124 104.8 134.554 104.5C135.395 103.914 136.513 103.788 137.57 104.245C138.709 104.738 139.468 104.968 140.689 105.187Z" fill="#8497DC"/>
<path d="M119.689 16.1873C120.529 16.3388 121.314 16.8461 121.841 17.5796C122.346 18.2809 122.552 19.0962 122.422 19.8773C122.139 21.5791 120.605 22.6744 118.929 22.3723C117.35 22.0866 115.79 21.6118 114.292 20.9641C113.512 20.6265 112.868 19.9563 112.529 19.1254C112.201 18.3234 112.199 17.4546 112.525 16.7437C112.766 16.2197 113.124 15.7998 113.554 15.4998C114.395 14.9138 115.513 14.7876 116.57 15.2448C117.709 15.7382 118.468 15.9676 119.689 16.1873Z" fill="#8497DC"/>
<path d="M84.6892 73.1873C85.5292 73.3388 86.3138 73.8461 86.841 74.5796C87.3456 75.2809 87.5515 76.0962 87.4223 76.8773C87.1392 78.5791 85.6049 79.6744 83.9287 79.3723C82.3497 79.0866 80.7899 78.6118 79.2919 77.9641C78.512 77.6265 77.8684 76.9563 77.5286 76.1254C77.2006 75.3234 77.1992 74.4546 77.5251 73.7437C77.7658 73.2197 78.1239 72.7998 78.5538 72.4998C79.395 71.9138 80.5134 71.7876 81.5696 72.2448C82.7093 72.7382 83.4683 72.9676 84.6892 73.1873Z" fill="#8497DC"/>
<path d="M377.586 118.201C377.099 118.902 376.903 119.815 377.049 120.707C377.188 121.56 377.619 122.282 378.262 122.743C379.666 123.746 381.525 123.435 382.497 122.036C383.411 120.718 384.179 119.279 384.78 117.762C385.093 116.972 385.074 116.043 384.727 115.215C384.391 114.416 383.778 113.801 383.045 113.528C382.504 113.328 381.954 113.284 381.438 113.376C380.429 113.557 379.549 114.258 379.125 115.328C378.668 116.483 378.294 117.182 377.586 118.201Z" fill="#8497DC"/>
<path d="M46.4058 23.3074C45.5552 23.2364 44.666 23.5233 43.967 24.0954C43.2981 24.6422 42.8881 25.3764 42.8108 26.1643C42.6438 27.8814 43.8423 29.3365 45.5395 29.4785C47.1388 29.6113 48.7683 29.5563 50.3829 29.3184C51.2236 29.1942 52.0187 28.7133 52.562 27.9987C53.0864 27.3089 53.3126 26.4701 53.1818 25.6991C53.0849 25.1307 52.8477 24.6324 52.5101 24.2314C51.8493 23.4475 50.8016 23.0362 49.663 23.2045C48.4344 23.3861 47.642 23.4113 46.4058 23.3074Z" fill="#8497DC"/>
<path d="M229.586 27.2007C229.099 27.9018 228.903 28.8154 229.049 29.7068C229.188 30.5595 229.619 31.2816 230.262 31.7425C231.666 32.7457 233.525 32.4353 234.497 31.0365C235.411 29.7179 236.179 28.2792 236.78 26.762C237.093 25.9718 237.074 25.0427 236.727 24.2149C236.391 23.4159 235.778 22.8006 235.045 22.5284C234.504 22.3281 233.954 22.2844 233.438 22.3762C232.429 22.5566 231.549 23.2582 231.125 24.3284C230.668 25.4832 230.294 26.1821 229.586 27.2007Z" fill="#8497DC"/>
<path d="M130.586 194.201C130.099 194.902 129.903 195.815 130.049 196.707C130.188 197.559 130.619 198.282 131.262 198.743C132.666 199.746 134.525 199.435 135.497 198.036C136.411 196.718 137.179 195.279 137.78 193.762C138.093 192.972 138.074 192.043 137.727 191.215C137.391 190.416 136.778 189.801 136.045 189.528C135.504 189.328 134.954 189.284 134.438 189.376C133.429 189.557 132.549 190.258 132.125 191.328C131.668 192.483 131.294 193.182 130.586 194.201Z" fill="#8497DC"/>
<path d="M282.707 156.864C282.931 157.688 283.505 158.425 284.281 158.886C285.024 159.328 285.854 159.462 286.621 159.265C288.292 158.835 289.249 157.211 288.802 155.567C288.38 154.019 287.771 152.507 286.995 151.071C286.591 150.323 285.867 149.741 285.01 149.474C284.182 149.218 283.316 149.292 282.637 149.679C282.136 149.964 281.749 150.357 281.487 150.812C280.977 151.701 280.948 152.826 281.496 153.838C282.087 154.931 282.382 155.667 282.707 156.864Z" fill="#8497DC"/>
<path d="M122.199 78.1728C122.452 78.9881 123.051 79.705 123.843 80.1389C124.601 80.5542 125.435 80.6593 126.194 80.4358C127.849 79.9475 128.749 78.2911 128.245 76.6642C127.769 75.1317 127.108 73.6415 126.282 72.2335C125.852 71.5006 125.108 70.9435 124.242 70.7075C123.406 70.4797 122.544 70.5842 121.878 70.9943C121.387 71.297 121.014 71.7036 120.769 72.1669C120.29 73.0732 120.301 74.1987 120.883 75.1913C121.512 76.2624 121.832 76.9877 122.199 78.1728Z" fill="#8497DC"/>
<path d="M3.19765 142.173C3.45038 142.988 4.04955 143.705 4.84182 144.139C5.59938 144.554 6.43368 144.659 7.19321 144.436C8.84782 143.947 9.74801 142.291 9.24388 140.664C8.76787 139.132 8.10647 137.642 7.28109 136.234C6.85095 135.501 6.10726 134.944 5.24118 134.707C4.40519 134.48 3.54269 134.584 2.8768 134.994C2.38607 135.297 2.01295 135.704 1.76758 136.167C1.28839 137.073 1.29946 138.199 1.88198 139.191C2.51061 140.262 2.83081 140.988 3.19765 142.173Z" fill="#8497DC"/>
</g>
</g>
</svg>
