<svg width="16" height="16" viewBox="0 0 16 16" fill="none" xmlns="http://www.w3.org/2000/svg">
<path d="M7.98828 0.5C3.84828 0.5 0.488281 3.86 0.488281 8C0.488281 12.14 3.84828 15.5 7.98828 15.5C12.1283 15.5 15.4883 12.14 15.4883 8C15.4883 3.86 12.1283 0.5 7.98828 0.5ZM7.98828 11.75C7.57578 11.75 7.23828 11.4125 7.23828 11V8C7.23828 7.5875 7.57578 7.25 7.98828 7.25C8.40078 7.25 8.73828 7.5875 8.73828 8V11C8.73828 11.4125 8.40078 11.75 7.98828 11.75ZM8.73828 5.75H7.23828V4.25H8.73828V5.75Z" fill="#314196"/>
</svg>
