<svg width="567" height="647" viewBox="0 0 567 647" fill="none" xmlns="http://www.w3.org/2000/svg">
<path d="M281.647 7.64475C280.627 7.20583 279.455 7.69259 279.012 8.69982L271.906 25.3541C271.474 26.373 271.946 27.5513 272.969 27.9855C273.673 28.286 274.454 28.1529 275.009 27.7064C275.259 27.5053 275.466 27.2414 275.604 26.9308L282.71 10.2761C283.142 9.25763 282.666 8.07932 281.647 7.64475ZM233.545 30.938C232.5 30.5386 231.338 31.0684 230.957 32.0953C230.565 33.1326 231.084 34.292 232.122 34.686L249.064 41.1321C249.753 41.3934 250.497 41.2491 251.034 40.8207C251.306 40.6025 251.521 40.3173 251.655 39.9722C252.047 38.9349 251.528 37.7755 250.49 37.3797L233.545 30.938ZM253.607 11.9564C253.03 11.0133 251.8 10.7139 250.853 11.2833C249.931 11.8701 249.597 13.0898 250.178 14.0408L259.577 29.5266C260.151 30.4686 261.381 30.7694 262.332 30.2L262.55 30.0449C263.323 29.4255 263.533 28.3131 263.007 27.4415L253.607 11.9564Z" fill="#B5B5B5"/>
<path d="M323.513 597.166H200.344C198.348 594.241 195.869 592.4 192.777 592.4C192.349 592.4 191.91 592.436 191.456 592.509C187.511 593.14 183.323 594.829 179.324 597.166H3.79688L27.3048 568.725H301.454L323.513 597.166Z" fill="#36B160"/>
<path d="M275.328 572.647C279.494 572.647 282.87 569.215 282.87 564.992V502.507C282.87 498.277 279.494 494.852 275.328 494.852C271.162 494.852 267.787 498.277 267.787 502.507V564.992C267.787 569.215 271.162 572.647 275.328 572.647Z" fill="#AFAEAE"/>
<path d="M300.413 597.616C304.587 597.616 307.959 594.191 307.959 589.961V507.835C307.959 503.608 304.587 500.18 300.413 500.18C296.251 500.18 292.875 503.608 292.875 507.835V589.961C292.875 594.191 296.251 597.616 300.413 597.616Z" fill="#C4C2C2"/>
<path d="M51.3599 572.647C47.1924 572.647 43.8184 569.215 43.8184 564.992V502.507C43.8184 498.277 47.1924 494.852 51.3599 494.852C55.5266 494.852 58.9021 498.277 58.9021 502.507V564.992C58.9021 569.215 55.5266 572.647 51.3599 572.647Z" fill="#AFAEAE"/>
<path d="M26.272 597.616C22.1042 597.616 18.7297 594.191 18.7297 589.961V507.835C18.7297 503.608 22.1042 500.18 26.272 500.18C30.439 500.18 33.8135 503.608 33.8135 507.835V589.961C33.8135 594.191 30.439 597.616 26.272 597.616Z" fill="#C4C2C2"/>
<path d="M9.13545 537.83H317.555C322.27 537.83 326.091 533.952 326.091 529.167V516.851C326.091 512.064 322.27 508.182 317.555 508.182H9.13545C4.42291 508.182 0.602051 512.064 0.602051 516.851V529.167C0.602051 533.952 4.42291 537.83 9.13545 537.83Z" fill="#A38989"/>
<path d="M323.513 510.314H3.79688L27.3048 481.876H301.454L323.513 510.314Z" fill="#D3B6B6"/>
<path d="M537.69 202.634C537.69 202.634 543.867 213.689 546.669 224.287C561.73 200.38 569.743 173.795 527.322 71.1289L319.614 111.34C333.957 193.548 317.585 255.522 372.728 270.506C372.76 269.505 373.341 264.699 374.658 264.656C376.448 264.591 379.206 269.625 380.146 270.68C407.862 270.063 500.004 255.7 521.148 244.504C528.494 240.615 534.605 236.251 539.476 230.887C538.343 218.415 537.69 202.634 537.69 202.634Z" fill="#AF4935"/>
<path d="M521.751 544C517.969 545.326 508.069 545.312 499.366 545.297C494.484 545.294 489.981 545.283 487.135 545.515C483.84 529.306 472.651 478.984 470.865 466.966C469.2 455.741 472.128 433.171 472.589 412.164C472.727 405.727 463.886 406.046 459.165 413.523C451.119 426.278 428.465 459.728 427.086 465.86C425.388 473.428 430.596 523.532 432.12 540.825C420.612 543.673 409.259 542.115 398.219 540.839C394.739 524.504 384.809 474.041 383.289 457.524C381.935 442.776 422.811 380.138 426.789 360.965C448.146 356.985 500.288 353.317 523.616 354.622C529.989 375.032 531.76 385.76 529.829 399.29C527.888 412.911 522.197 429.373 513.679 461.398C512.38 466.284 516.612 505.436 521.751 544Z" fill="#FFC19F"/>
<path d="M413.457 391.211C411.781 390.475 410.274 389.703 408.953 388.91C409.153 388.46 409.363 387.993 409.607 387.518C410.873 388.167 412.485 388.804 414.386 389.417C414.081 390.011 413.773 390.613 413.457 391.211ZM530.565 390.345C530.59 388.699 530.55 387.047 530.449 385.372C533.232 384.162 535.846 382.821 538.259 381.353C538.382 383.205 538.502 385.053 538.615 386.88C536.009 388.134 533.32 389.287 530.565 390.345Z" fill="#A1A1A1"/>
<path d="M470.043 400.355C446.841 400.355 425.65 396.578 413.46 391.211C413.775 390.613 414.084 390.011 414.389 389.417C425.211 392.911 445.567 395.651 467.531 395.651C489.564 395.651 513.205 392.892 530.451 385.372C530.553 387.046 530.593 388.699 530.567 390.344C511.949 397.499 490.232 400.355 470.043 400.355Z" fill="#A17A64"/>
<path d="M373.111 374.194C371.369 374.941 359.338 353.97 360.978 353.028C385.534 338.961 434.053 295.015 440.327 289.948C442.069 304.688 445.837 322.43 440.222 330.074C433.134 339.715 409.653 358.606 373.111 374.194Z" fill="#FFC19F"/>
<path d="M393.215 317.66C400.307 323.169 421.574 322.444 427.548 321.505C428.201 316.623 424.271 283.854 421.008 269.846C418.213 257.849 405.631 251.709 403.007 254.119C399.879 262.401 394.921 304.275 393.215 317.66Z" fill="#FFAA00"/>
<path d="M336.727 390.533C341.75 389.989 344.976 389.091 350.057 387.909C355.298 386.702 364.577 381.052 370.754 376.333C377.425 371.229 380.397 358.33 373.128 352.81C365.833 347.268 354.691 343.002 348.449 341.291C344.043 340.077 336.175 338.656 335.624 339.599C333.511 343.205 336.821 346.257 343.466 348.732C345.6 349.526 348.605 350.729 350.358 352.679C348.551 353.676 337.823 354.869 331.229 355.159C329.534 355.238 327.759 354.919 325.984 354.593C323.665 354.18 321.346 353.759 319.227 354.223C317.383 354.629 315.51 356.079 315.532 358.156C315.547 360.012 326.296 362.871 330.049 363.408C330.978 363.538 333.598 363.448 336.237 363.361C338.411 363.288 340.592 363.216 341.859 363.263C337.772 363.98 329.109 365.126 326.453 365.086C323.85 365.046 317.238 363.603 313.638 364.51C311.591 365.024 309.617 366.739 310.6 368.663C311.123 369.693 319.336 372.324 326.391 373.292C328.532 373.585 337.137 372.335 342.563 371.976C342.595 372.193 329.781 375.046 328.046 375.06C326.238 375.075 324.402 374.959 322.638 374.839C320.515 374.698 318.501 374.557 316.788 374.651C314.799 374.756 312.255 377.398 313.609 379.178C314.462 380.305 327.313 382.733 330.093 382.748C332.39 382.759 337.264 382.048 343.731 381.218C340.32 382.646 335.515 383.639 334.121 384.006C330.753 383.788 326.83 383.458 324.899 383.755C322.856 384.067 321.194 385.644 321.996 387.025C322.479 387.851 333.464 390.892 336.727 390.533Z" fill="#FFC19F"/>
<path d="M361.208 364.205C358.78 364.205 356.66 363.567 355.303 362.393C352.625 360.069 351.801 356.84 352.465 354.897C353.51 356.528 354.476 358.33 356.388 359.899C359.063 362.11 361.716 363.143 364.325 363.879C363.255 364.1 362.206 364.205 361.208 364.205Z" fill="#EB9F83"/>
<path d="M387.846 313.836L386.798 325.83L439.381 330.436L440.434 318.436L387.846 313.836Z" fill="#EF7E03"/>
<path d="M539.913 380.304C505.813 402.819 426.762 396.302 409.606 387.517C408.964 388.8 408.5 390.036 408.039 390.975C398.127 383.566 409.654 381.776 409.821 375.973C410.115 365.603 412.201 290.857 403.005 254.119C417.736 245.058 434.39 235.229 449.829 231.858C470.966 227.244 509.965 229.14 513.899 230.191C530.358 268.146 531.922 328.67 539.913 380.304Z" fill="#FFC200"/>
<path d="M447.073 265.228C434.556 268.367 420.344 257.689 419.81 241.593C433.935 234.873 459.851 227.947 477.366 229.564C479.964 230.716 480.182 233.134 477.605 236.182C471.501 243.413 466.932 260.245 447.073 265.228Z" fill="#DD4E07"/>
<path d="M413.338 378.5C424.367 379.964 494.052 379.555 507.335 377.326C507.335 377.326 495.057 306.283 491.051 273.3C474.356 274.743 425.173 280.353 410.583 282.909C411.367 302.647 411.596 330.925 413.338 378.5Z" fill="#ED3B61"/>
<path d="M481.409 271.76C481.359 271.256 481.685 270.792 482.132 270.741L485.151 270.397L484.705 265.87L474.035 267.088L474.485 271.615L476.88 271.339C477.327 271.289 477.737 271.669 477.787 272.173L478.746 281.93L482.368 281.517L481.409 271.76ZM477.21 283.043L476.252 273.289L473.853 273.561C473.407 273.612 472.997 273.231 472.946 272.728L472.318 266.345C472.271 265.838 472.598 265.374 473.044 265.323L485.34 263.92C485.779 263.87 486.193 264.25 486.244 264.757L486.868 271.14C486.922 271.644 486.592 272.108 486.149 272.159L483.13 272.503L484.088 282.256C484.135 282.764 483.805 283.228 483.362 283.278L478.114 283.876C477.671 283.927 477.258 283.55 477.21 283.043Z" fill="#BAEBF4"/>
<path d="M484.194 282.489C484.096 284.877 482.318 286.697 480.227 286.559C478.13 286.418 476.515 284.37 476.613 281.981C476.714 279.596 478.489 277.773 480.583 277.915C482.681 278.056 484.296 280.104 484.194 282.489Z" fill="#F0FCFF"/>
<path d="M419.067 277.037C419.017 276.53 419.347 276.066 419.786 276.015L422.813 275.671L422.366 271.144L411.696 272.362L412.143 276.888L414.538 276.617C414.981 276.566 415.395 276.943 415.442 277.45L416.4 287.204L420.025 286.79L419.067 277.037ZM414.865 288.32L413.907 278.563L411.508 278.838C411.069 278.889 410.655 278.509 410.604 278.001L409.98 271.619C409.929 271.115 410.256 270.651 410.698 270.6L422.994 269.197C423.441 269.147 423.851 269.524 423.902 270.031L424.529 276.414C424.577 276.917 424.25 277.381 423.804 277.432L420.784 277.776L421.742 287.533C421.789 288.041 421.466 288.505 421.02 288.556L415.772 289.154C415.326 289.204 414.916 288.824 414.865 288.32Z" fill="#BAEBF4"/>
<path d="M421.726 271.724C421.693 270.683 419.534 251.612 421.875 240.825L412.439 243.058C410.399 254.566 412.148 271.709 412.185 272.811L421.726 271.724Z" fill="#ED3B61"/>
<path d="M484.184 267.015C484.14 265.87 482.797 240.049 486.648 228.299L476.149 228.034C471.786 242.644 474.599 266.885 474.643 268.099L484.184 267.015Z" fill="#ED3B61"/>
<path d="M421.857 287.761C421.755 290.15 419.977 291.973 417.883 291.832C415.789 291.69 414.17 289.642 414.272 287.258C414.37 284.869 416.144 283.046 418.242 283.187C420.336 283.329 421.951 285.377 421.857 287.761Z" fill="#F0FCFF"/>
<path d="M446.337 334.988C446.337 334.988 430.144 323.553 429.694 313.571C429.421 307.584 432.673 304.104 437.068 303.807C437.163 303.803 437.257 303.8 437.351 303.8C440.367 303.8 443.169 306.996 444.679 310.36C445.506 307.562 447.147 304.76 449.277 303.51C449.524 303.876 449.763 304.22 450.006 304.539C450.25 304.847 452.935 304.985 456.699 304.985C456.873 304.985 457.051 304.981 457.232 304.981C458.691 306.445 459.689 308.645 459.961 311.534C460.763 320.197 446.337 334.988 446.337 334.988Z" fill="#F4879E"/>
<path d="M415.69 209.568L424.331 245.744C426.563 254.044 435.622 260.923 447.732 257.983C461.473 254.649 467.642 240.082 472.161 232.899L464.176 197.183L415.69 209.568Z" fill="#FFC19F"/>
<path d="M423.308 253.949C422.43 253.772 421.588 253.532 420.796 253.232C420.804 251.64 420.847 250.046 420.942 248.491C421.53 250.444 422.328 252.267 423.308 253.949Z" fill="#EBA002"/>
<path d="M427.535 254.356C426.05 254.356 424.635 254.222 423.307 253.95C422.327 252.268 421.528 250.445 420.94 248.491C421.02 246.991 421.147 245.527 421.322 244.138C422.16 243.928 422.976 243.714 423.793 243.497L424.33 245.744C424.904 247.857 425.912 249.883 427.302 251.674C428.003 252.627 428.801 253.497 429.716 254.261C428.976 254.323 428.246 254.356 427.535 254.356Z" fill="#D04208"/>
<path d="M420.793 253.232C418.536 252.38 416.649 251.039 415.277 249.198C414.526 248.19 413.963 247.081 413.582 245.888C416.228 245.356 418.812 244.772 421.32 244.138C421.145 245.526 421.018 246.99 420.938 248.491C420.844 250.046 420.801 251.64 420.793 253.232Z" fill="#DD3251"/>
<path d="M427.304 251.673C425.914 249.883 424.905 247.857 424.332 245.744L423.795 243.496C423.824 243.486 423.86 243.478 423.889 243.471C424.491 246.479 425.591 249.328 427.304 251.673ZM460.675 236.197C460.943 233.199 461.219 230.086 461.459 227.179C463.382 225.943 465.219 224.686 466.968 223.403C466.137 227.516 463.97 231.953 460.675 236.197Z" fill="#EB9F83"/>
<path d="M532.606 88.4839C547.236 159.052 512.442 192.728 453.834 211.032C396.961 228.788 325.538 181.112 318.99 111.057C315.35 72.159 345.019 35.6804 401.127 25.9267C460.846 15.5426 520.615 30.6548 532.606 88.4839Z" fill="#AF4935"/>
<path d="M493.343 75.1721C497.593 84.0136 501.614 177.91 490.664 197.755C481.047 215.174 456.267 237.327 413.507 245.902C381.904 252.245 348.907 232.024 341.431 209.948C335.105 191.286 337.112 183.675 334.583 170.622C331.171 153 329.574 144.862 327.687 136.804C325.288 126.545 319.151 109.869 323.187 95.709C330.405 70.3697 363.199 49.5904 405.628 41.9269C445.317 34.757 477.962 43.1617 493.343 75.1721Z" fill="#FFC19F"/>
<path d="M495.05 143.379C503.223 118.963 507.625 84.8571 501.72 52.804C495.779 20.5442 369.486 32.5397 349.024 59.2457C345.95 63.2594 447.536 59.154 451.804 61.8727C479.176 79.3085 483.531 132.453 495.05 143.379Z" fill="#AF4935"/>
<path d="M525.333 160.362C520.877 181.119 501.446 194.87 486.334 193.511C471.222 192.152 470.38 131.085 497.243 124.608C519.614 119.215 529.522 140.851 525.333 160.362Z" fill="#FFC19F"/>
<path d="M507.567 160.425C506.78 169.146 497.373 176.903 489.922 174.839C487.019 174.034 490.477 143.585 495.047 143.378C502.773 143.026 508.358 151.703 507.567 160.425Z" fill="#E0956C"/>
<path d="M429.965 189.217C426.837 182.124 415.84 185.926 400.144 188.778C399.32 188.927 396.133 189.532 395.313 189.695C379.664 192.797 370.119 192.652 370.838 200.373C372.137 214.323 386.654 226.661 402.717 224.515C418.729 222.373 436.127 203.149 429.965 189.217Z" fill="#701608"/>
<path d="M387.906 222.305C392.428 224.255 397.458 225.215 402.713 224.515C408.386 223.758 414.182 220.793 419.096 216.745C413.957 213.153 406.93 211.982 400.768 213.283C395.146 214.472 390.25 217.734 387.906 222.305Z" fill="#DD6B5B"/>
<path d="M398.155 199.144C386.563 201.347 376.652 199.851 374.402 194.66L374.267 194.341C377.465 192.406 387.514 191.025 393.488 189.843C399.998 188.557 418.791 185.185 418.791 185.185L418.783 185.53C418.609 191.181 409.736 196.947 398.155 199.144Z" fill="white"/>
<path d="M466.804 179.581C468.049 183.722 463.302 188.807 456.193 190.938C449.09 193.069 442.314 191.442 441.07 187.303C439.828 183.164 444.579 178.079 451.681 175.948C458.791 173.814 465.56 175.443 466.804 179.581Z" fill="#FF8A8A"/>
<path d="M357.579 200.315C358.033 204.135 354.73 207.662 350.205 208.198C345.679 208.735 341.64 206.071 341.19 202.258C340.736 198.438 344.039 194.911 348.564 194.375C353.093 193.838 357.129 196.502 357.579 200.315Z" fill="#FF8A8A"/>
<path d="M398.512 182.088C398.04 182.172 397.572 181.91 397.402 181.448C396.233 178.169 393.159 176.466 389.577 177.113C385.977 177.764 383.64 180.487 383.767 183.889C383.785 184.434 383.357 184.895 382.812 184.914C382.268 184.934 381.807 184.507 381.789 183.962C381.629 179.604 384.685 175.987 389.225 175.167C393.74 174.352 397.775 176.609 399.271 180.781C399.456 181.297 399.183 181.861 398.672 182.046L398.512 182.088Z" fill="#C4735B"/>
<path d="M366.141 157.473C372.714 166.343 374.078 177.176 370.627 182.008C365.43 189.289 350.8 193.74 343.607 185.871C336.639 178.248 336.392 162.106 343.963 153.775C350.594 146.481 359.783 148.889 366.141 157.473Z" fill="#F9FEFF"/>
<path d="M337.811 159.777C341.912 143.448 359.336 145.584 366.366 157.775C359.801 148.909 350.412 147.541 344.278 154.278C340.49 158.447 338.457 165.016 338.838 171.849C339.14 177.298 341.114 183.116 344.006 186.281C340.998 184.417 334.792 171.786 337.811 159.777Z" fill="#843923"/>
<path d="M357.752 165.986C360.946 172.376 360.031 180.474 355.702 184.076C351.368 187.677 345.271 185.415 342.074 179.025C338.88 172.636 339.798 164.537 344.132 160.936C348.458 157.336 354.558 159.596 357.752 165.986Z" fill="#461D14"/>
<path d="M356.767 164.965C357.652 166.737 357.402 168.985 356.201 169.983C354.996 170.983 353.308 170.354 352.419 168.582C351.534 166.809 351.788 164.563 352.989 163.564C354.19 162.564 355.881 163.192 356.767 164.965Z" fill="#FEFFFE"/>
<path d="M411.272 148.972C407.127 159.863 409.969 170.419 416.048 173.451C425.208 178.023 444.374 176.093 449.669 165.867C454.793 155.962 448.449 140.97 436.041 136.411C425.179 132.42 415.278 138.43 411.272 148.972Z" fill="#F9FEFF"/>
<path d="M445.806 139.408C434.225 126.04 414.45 135.199 411.129 149.342C415.266 138.456 425.835 133.321 435.877 137.006C442.083 139.287 447.2 144.507 449.559 150.966C451.439 156.117 451.497 162.296 449.37 166.409C452.165 163.45 454.32 149.239 445.806 139.408Z" fill="#843923"/>
<path d="M433.894 151.356C437.599 157.65 436.057 165.866 430.457 169.707C424.854 173.547 417.316 171.559 413.61 165.264C409.908 158.971 411.447 150.755 417.051 146.913C422.647 143.074 430.192 145.062 433.894 151.356Z" fill="#461D14"/>
<path d="M432.714 150.372C433.738 152.119 433.313 154.398 431.76 155.464C430.203 156.53 428.112 155.978 427.085 154.231C426.055 152.485 426.487 150.205 428.04 149.14C429.593 148.074 431.687 148.627 432.714 150.372Z" fill="#FEFFFE"/>
<path d="M316.858 77.0443C336.096 56.0128 359.541 45.8346 388.47 41.6198C421.027 36.8765 464.999 42.7002 492.182 67.7777C486.154 55.6844 474.849 44.3834 468.701 40.9616C472.628 40.2559 486.038 31.3093 516.541 36.1074C497.902 9.17375 476.224 15.6234 469.085 27.6606C470.073 6.99582 456.332 -7.29646 430.253 3.94911C453.781 12.4608 462.564 32.6417 465.453 39.0569C443.1 27.6526 419.576 22.848 391.144 29.5768C357.229 37.6057 334.249 51.6961 316.858 77.0443Z" fill="#FFAA00"/>
<path d="M306.794 76.3462C311.614 77.555 317.036 75.791 318.934 73.77C311.788 61.4215 314.278 43.7505 329.215 38.9354C333.832 72.0328 427.226 18.8462 461.551 57.7938C460.637 57.8938 466.353 63.993 460.317 71.0832C452.609 81.4085 431.367 99.2197 405.458 101.245C415.112 96.8842 433.904 83.3969 432.938 77.9892C419.757 86.619 399.637 98.9109 364.963 105.043C332.246 110.828 304.704 101.751 306.794 76.3462Z" fill="#AF4935"/>
<path d="M459.184 58.5185C459.852 82.9121 458.817 110.228 458.687 118.34C458.542 127.299 475.555 165.282 509.942 141.448C461.913 137.558 515.851 71.0641 459.184 58.5185Z" fill="#AF4935"/>
<path d="M449.502 114.763C448.788 114.837 448.044 114.658 447.419 114.205C439.428 108.452 425.357 108.089 414.669 113.39C413.188 114.134 411.367 113.526 410.619 112.028C409.879 110.537 410.488 108.727 411.984 107.982C424.737 101.666 441.133 102.225 450.961 109.316C452.311 110.294 452.616 112.177 451.636 113.528C451.114 114.254 450.326 114.677 449.502 114.763Z" fill="#72221A"/>
<path d="M330.309 137.116C329.656 137.279 328.937 137.148 328.328 136.685C327.188 135.826 326.854 134.152 327.584 132.945C332.897 124.172 345.116 119.038 356.621 120.719C357.971 120.921 358.973 122.27 358.857 123.737C358.741 125.212 357.55 126.241 356.207 126.039C346.557 124.615 336.029 128.92 331.71 136.053C331.376 136.613 330.868 136.975 330.309 137.116Z" fill="#72221A"/>
<path d="M529.164 293.34C528.874 291.245 528.569 289.164 528.257 287.095C528.456 286.576 528.66 286.062 528.852 285.551C529.429 288.367 529.89 290.668 530.014 291.024C529.792 291.658 529.505 292.441 529.164 293.34Z" fill="#EBD1D1"/>
<path d="M515.435 327.235C510.104 326.408 504.21 324.843 498.305 322.867C498.084 321.457 497.855 320.029 497.634 318.616L514.306 325.665L519.01 314.578L516.901 313.69C520.483 305.372 524.9 295.691 528.257 287.094C528.569 289.164 528.874 291.244 529.164 293.339C526.25 301.019 519.387 317.445 515.435 327.235Z" fill="#EBA002"/>
<path d="M498.306 322.868C485.463 318.562 472.579 312.317 465.368 307.54C465.546 306.834 465.756 306.062 465.981 305.228L497.635 318.617C497.856 320.03 498.085 321.458 498.306 322.868Z" fill="#DD3251"/>
<path d="M475.67 274.819C475.837 274.308 476.004 273.804 476.171 273.296L476.254 273.289L476.396 274.743C476.153 274.768 475.909 274.793 475.67 274.819ZM477.826 272.582L477.789 272.173C477.739 271.702 477.376 271.336 476.962 271.336C476.937 271.336 476.911 271.339 476.882 271.339L476.817 271.347C477.227 270.111 477.63 268.9 478.022 267.718L479.219 267.581C478.777 269.204 478.312 270.868 477.826 272.582Z" fill="#EBA002"/>
<path d="M474.831 283.035C474.479 282.195 474.131 281.346 473.782 280.498C474.41 278.592 475.042 276.689 475.666 274.819C475.906 274.793 476.149 274.768 476.392 274.743L476.602 276.892C476.043 278.86 475.452 280.901 474.831 283.035Z" fill="#DD3251"/>
<path d="M476.605 276.892L476.395 274.743L476.253 273.289L476.17 273.297C476.387 272.644 476.602 271.992 476.816 271.347L476.881 271.339C476.91 271.339 476.935 271.336 476.961 271.336C477.375 271.336 477.737 271.702 477.788 272.173L477.825 272.583C477.433 273.982 477.026 275.413 476.605 276.892Z" fill="#B3C1C8"/>
<path d="M478.02 267.718C479.37 263.622 480.575 259.918 481.49 256.979C481.657 256.968 481.842 256.964 482.063 256.964C481.163 260.422 480.23 263.909 479.218 267.58L478.02 267.718Z" fill="#DD3251"/>
<path d="M533.352 268.748C533.454 261.26 531.436 238.842 513.9 230.191C509.428 232.018 493.547 240.415 484.877 245.856C480.816 262.351 477.107 275.641 469.311 301.756C477.212 309.345 499.176 319.733 513.62 321.581C519.79 305.887 533.203 279.436 533.352 268.748Z" fill="#FFC200"/>
<path d="M470.404 294.025L465.704 305.112L514.306 325.666L519.01 314.579L470.404 294.025Z" fill="#FF8B00"/>
<path d="M439.979 278.889C438.581 273.84 437.333 268.875 436.299 264.736C438.349 265.417 440.472 265.776 442.603 265.776C444.098 265.776 445.597 265.598 447.074 265.229C454.564 263.351 459.881 259.785 463.924 255.682C466.029 261.115 468.747 268.099 471.64 275.25C461.848 276.305 450.467 277.61 439.979 278.889Z" fill="#EBA002"/>
<path d="M442.602 265.776C440.472 265.776 438.349 265.417 436.298 264.736C435.518 261.619 434.854 258.969 434.331 257.099C436.639 258.099 439.267 258.672 442.141 258.672C443.912 258.672 445.781 258.454 447.73 257.983C453.479 256.588 457.903 253.228 461.43 249.263C462.102 250.977 462.944 253.163 463.924 255.682C459.881 259.785 454.564 263.351 447.073 265.228C445.596 265.598 444.097 265.776 442.602 265.776ZM430.931 255.167C430.506 254.884 430.103 254.583 429.715 254.261C429.737 254.261 429.755 254.257 429.769 254.257C430.143 254.573 430.528 254.877 430.931 255.167Z" fill="#D04208"/>
<path d="M457.236 304.982C455.816 303.561 453.969 302.829 451.93 302.829C451.737 302.829 451.545 302.836 451.345 302.847C450.619 302.898 449.926 303.133 449.28 303.51C445.858 298.335 442.639 288.458 439.982 278.89C450.471 277.61 461.852 276.305 471.644 275.251C472.351 276.998 473.066 278.755 473.788 280.499C471.099 288.636 468.421 296.838 466.661 302.858L465.844 304.793C462.795 304.909 459.794 304.975 457.236 304.982Z" fill="#DD3251"/>
<path d="M456.7 304.986C452.937 304.986 450.251 304.848 450.008 304.54C449.765 304.221 449.525 303.877 449.278 303.511C449.924 303.134 450.618 302.898 451.343 302.847C451.543 302.837 451.735 302.829 451.928 302.829C453.967 302.829 455.814 303.561 457.233 304.982C457.052 304.982 456.874 304.986 456.7 304.986Z" fill="#E27083"/>
<path d="M442.142 258.672C439.267 258.672 436.64 258.099 434.331 257.099C434.302 256.99 434.273 256.885 434.244 256.78C433.021 256.37 431.922 255.827 430.931 255.167C430.528 254.877 430.143 254.573 429.77 254.257C436.389 253.696 444.069 250.702 451.135 245.454C454.916 242.641 458.132 239.477 460.672 236.197C460.375 239.542 460.084 242.743 459.863 245.367C460.07 245.798 460.622 247.179 461.431 249.263C457.903 253.228 453.479 256.588 447.731 257.983C445.782 258.454 443.913 258.672 442.142 258.672Z" fill="#EB9F83"/>
<path d="M429.717 254.261C428.802 253.497 428.004 252.627 427.304 251.674C428.03 252.605 428.853 253.471 429.771 254.258C429.757 254.258 429.739 254.261 429.717 254.261Z" fill="#C53809"/>
<path d="M429.771 254.257C428.853 253.471 428.029 252.604 427.304 251.673C425.591 249.328 424.491 246.479 423.888 243.471C438.884 239.426 451.358 233.667 461.458 227.179C461.219 230.086 460.943 233.199 460.674 236.196C458.134 239.477 454.918 242.641 451.137 245.453C444.071 250.701 436.391 253.695 429.771 254.257Z" fill="#DB836D"/>
<path d="M423.889 243.471C422.687 237.531 423.399 230.97 424.999 226.447C425.979 223.689 425.17 214.722 425.17 214.722C424.894 213.885 424.491 212.979 424.026 212.033C430.022 205.081 433.158 196.437 429.964 189.217C428.998 187.02 427.275 185.871 424.894 185.411C425.547 183.411 427.38 182.295 428.614 182.295C428.668 182.295 428.723 182.298 428.77 182.302C430.349 182.428 432.548 184.403 434.533 185.713C434.079 183.858 434.551 182.882 435.618 182.273C435.909 182.105 436.264 182.027 436.678 182.027C437.872 182.027 439.516 182.696 441.338 183.74C440.837 184.945 440.728 186.161 441.069 187.303C441.947 190.21 445.537 191.877 450.062 191.877C450.636 191.877 451.227 191.848 451.833 191.794C453.67 193.508 454.991 194.932 455.296 195.523C460.094 204.925 461.959 211.293 462.155 214.921C462.249 216.752 461.923 221.59 461.458 227.179C451.358 233.667 438.884 239.426 423.889 243.471Z" fill="#EB9F83"/>
<path d="M424.026 212.032C421.725 207.292 417.972 201.565 421.362 199.05C419.801 197.778 418.923 196.407 418.636 195.063C417.653 190.387 420.963 188.51 423.703 188.51C424.12 188.51 424.527 188.553 424.904 188.637C424.548 187.397 424.603 186.313 424.893 185.411C427.274 185.871 428.998 187.02 429.963 189.217C433.157 196.436 430.021 205.081 424.026 212.032Z" fill="#771409"/>
<path d="M450.063 191.877C445.537 191.877 441.948 190.21 441.07 187.303C440.729 186.161 440.838 184.945 441.338 183.74C444.822 185.741 448.96 189.119 451.834 191.794C451.228 191.848 450.636 191.877 450.063 191.877Z" fill="#EB7272"/>
<path d="M466.657 302.857C468.418 296.837 471.096 288.635 473.785 280.498C474.134 281.346 474.482 282.194 474.834 283.035C473.811 286.565 472.696 290.353 471.477 294.477L470.403 294.024L466.657 302.857Z" fill="#D02B44"/>
<path d="M481.797 298.845L471.476 294.478C472.695 290.353 473.809 286.566 474.833 283.036C477.228 288.777 479.631 294.29 481.797 298.845Z" fill="#EBA002"/>
<path d="M465.841 304.793L466.658 302.857L470.403 294.025L471.477 294.478L481.799 298.845C482.481 300.277 483.145 301.614 483.773 302.832C484.223 303.706 474.831 304.456 465.841 304.793Z" fill="#EB7302"/>
<path d="M460.066 214.508C459.852 210.572 457.046 204.164 453.065 196.361C452.357 194.983 447.277 190.409 442.852 186.738C440.806 185.038 437.416 181.925 436.458 183.014C435.514 184.086 434.556 186.759 437.184 189.061C433.162 185.728 429.265 183.231 428.408 184.096C426.129 186.39 426.532 191.884 430.713 193.954C426.869 191.13 423.599 189.344 422.253 190.58C420.562 192.138 420.043 195.781 423.088 198.901C419.255 202.388 422.209 205.686 426.706 211.094C428.386 213.116 428.815 223.584 428.292 226.545C425.875 240.383 428.263 247.791 434.908 252.539C442.954 258.288 458.484 251.818 458.248 248.755C457.729 241.92 460.324 219.31 460.066 214.508Z" fill="#FFC19F"/>
<path d="M423.086 198.901C423.047 199.024 423.134 199.151 423.25 199.249C427.692 202.761 432.385 206.462 432.845 207.306C433.862 209.191 435.72 214.595 436.936 218.495C436.994 218.691 437.197 218.817 437.422 218.785C437.665 218.734 437.796 218.535 437.741 218.372C436.489 214.396 434.646 208.944 433.604 207.027C432.972 205.849 426.854 201.145 423.812 198.734C423.642 198.6 423.38 198.6 423.224 198.745L423.086 198.901Z" fill="#F29D77"/>
<path d="M436.883 188.326C436.713 188.181 436.132 188.739 436.248 188.844C440.639 192.762 446.087 197.717 446.845 199.185C449.088 203.556 450.678 207.256 451.578 210.177C451.647 210.373 451.89 210.5 452.126 210.449C452.355 210.42 452.503 210.203 452.442 209.996C451.516 207.046 449.909 203.302 447.655 198.891C446.613 196.887 438.495 189.768 436.883 188.326ZM441.373 203.034C440.759 201.881 433.21 195.451 431.334 193.951C431.16 193.802 430.877 193.806 430.714 193.954L430.616 194.107C430.572 194.234 430.612 194.382 430.743 194.484C433.269 196.444 440.095 202.443 440.581 203.335C441.583 205.227 443.59 209.877 445.056 214.117C445.129 214.313 445.376 214.429 445.608 214.375C445.855 214.313 445.953 214.135 445.909 213.911C444.421 209.652 442.403 204.947 441.373 203.034Z" fill="#F29D77"/>
<path d="M435.609 252.388C435.348 250.365 457.149 244.12 457.755 246.074C467.514 277.694 488.24 309.339 492.381 316.994C492.007 319.77 474.086 332.651 460.444 322.39C449.818 314.398 439.021 278.462 435.609 252.388Z" fill="#FFC19F"/>
<path d="M567 440.087C527.507 469.133 422.84 470.981 380.092 442.116C380.092 442.116 398.611 394.085 407.895 367.797C430.178 373.611 494.717 377.554 542.024 367.17C550.531 394.361 556.606 411.04 567 440.087Z" fill="#ED3B61"/>
<path opacity="0.4" d="M419.693 591.574C374.481 591.574 340.206 588.095 340.112 583.104C339.999 577.464 383.579 572.031 437.448 570.969C443.65 570.85 449.707 570.784 455.594 570.784C500.803 570.784 535.081 574.271 535.182 579.258C535.295 584.898 491.715 590.335 437.847 591.397C431.644 591.516 425.576 591.574 419.693 591.574Z" fill="#238645"/>
<path d="M437.42 559.46C437.401 560.084 398.627 562.469 398.485 561.722C397.262 555.238 396.653 542.001 396.061 538.228L437.478 535.662C437.772 543.252 437.554 554.944 437.42 559.46Z" fill="#FCF6B4"/>
<path d="M386.613 551.306C387.175 549.066 388.384 546.217 389.309 543.615C389.999 541.687 408.769 541.621 408.914 546.224C408.954 547.406 408.925 548.45 408.849 549.392C412.057 549.363 415.541 549.251 419.214 549.048C427.202 548.598 434.359 547.805 439.371 546.906C439.843 554.184 439.454 566.804 439.908 574.894C439.908 574.894 356.49 592.197 343.058 580.331C339.27 576.985 359.989 561.386 386.613 551.306Z" fill="#F93D77"/>
<path d="M439.733 569.819C439.773 571.621 439.82 573.357 439.907 574.893C439.907 574.893 356.49 592.197 343.058 580.33C342.524 579.859 342.484 579.141 342.873 578.232C366.071 582.784 418.988 573.726 439.733 569.819Z" fill="#B22651"/>
<path d="M366.434 559.301C366.554 559.939 367.149 560.37 367.802 560.236C371.689 559.428 376.857 561.237 380.338 564.499C380.577 564.723 380.893 564.832 381.202 564.81C381.492 564.792 381.779 564.673 381.993 564.444C382.435 563.969 382.414 563.23 381.938 562.788C377.95 559.051 371.965 557.04 367.363 557.935C366.728 558.054 366.314 558.671 366.434 559.301ZM386.428 561.142C386.671 561.396 387.005 561.512 387.328 561.49C387.6 561.476 387.876 561.367 388.083 561.157C388.547 560.704 388.554 559.964 388.097 559.504C384.315 555.659 379.213 553.843 374.099 554.546C373.46 554.629 373.01 555.22 373.094 555.862C373.185 556.5 373.78 556.992 374.415 556.862C376.988 556.514 381.964 556.612 386.428 561.142ZM392.289 558.17C392.536 558.486 392.909 558.634 393.276 558.616C393.508 558.602 393.74 558.526 393.933 558.37C394.441 557.967 394.535 557.235 394.132 556.728C390.797 552.484 385.085 550.349 380.24 551.498C379.616 551.654 379.227 552.284 379.38 552.915C379.528 553.542 380.156 553.915 380.791 553.778C384.773 552.799 389.498 554.626 392.289 558.17Z" fill="#D3DAE5"/>
<path d="M527.426 564.082C527.408 564.767 486.797 567.333 486.648 566.517C485.327 559.395 484.605 544.869 483.962 540.726L526.471 537.968C526.297 545.789 527.542 559.124 527.426 564.082Z" fill="#FCF6B4"/>
<path d="M477.346 556.481C477.788 554.209 478.837 551.299 479.621 548.653C480.205 546.688 498.947 545.601 499.339 550.193C499.44 551.367 499.469 552.408 499.448 553.357C502.648 553.151 506.118 552.85 509.776 552.444C517.732 551.567 524.83 550.385 529.791 549.211C530.659 556.452 530.956 569.073 531.853 577.13C531.853 577.13 449.509 598.949 435.443 587.833C431.48 584.698 451.317 567.996 477.346 556.481Z" fill="#F93D77"/>
<path d="M531.404 572.07C531.538 573.864 531.683 575.593 531.854 577.13C531.854 577.13 449.51 598.949 435.443 587.833C434.884 587.391 434.808 586.673 435.146 585.745C458.561 589.029 510.902 577.104 531.404 572.07Z" fill="#B22651"/>
<path d="M457.638 565.565C457.791 566.195 458.412 566.587 459.061 566.416C462.894 565.405 468.152 566.928 471.8 569.994C472.057 570.204 472.377 570.291 472.685 570.258C472.976 570.226 473.251 570.088 473.451 569.849C473.872 569.356 473.803 568.617 473.309 568.2C469.121 564.68 463.039 563.006 458.488 564.151C457.863 564.303 457.482 564.938 457.638 565.565ZM477.701 566.315C477.962 566.547 478.3 566.648 478.619 566.609C478.895 566.58 479.156 566.456 479.359 566.239C479.795 565.76 479.755 565.021 479.283 564.586C475.291 560.951 470.101 559.414 465.031 560.396C464.396 560.516 463.982 561.128 464.102 561.763C464.222 562.401 464.846 562.861 465.47 562.691C468.022 562.201 472.997 562.027 477.701 566.315ZM483.395 563.024C483.656 563.325 484.037 563.459 484.4 563.415C484.633 563.39 484.861 563.299 485.046 563.136C485.533 562.705 485.583 561.969 485.152 561.484C481.591 557.428 475.774 555.605 470.998 557.022C470.377 557.207 470.025 557.859 470.214 558.475C470.399 559.095 471.045 559.439 471.676 559.265C475.596 558.069 480.415 559.635 483.395 563.024Z" fill="#D3DAE5"/>
<path d="M309.207 636.731C301.597 636.731 292.727 636.021 284.732 634.756C270.759 632.541 237.57 619.127 237.57 613.763C237.57 611.683 239.366 610.929 242.382 610.929C247.136 610.929 254.918 612.806 263.45 614.289C277.767 616.782 327.821 626.902 327.821 632.262C327.821 635.372 319.721 636.731 309.207 636.731Z" fill="#238645"/>
<path d="M183.439 646.038C169.798 646.038 155.835 642.83 159.79 620.044C161.141 612.269 169.676 602.806 179.32 597.166H200.34C205.054 604.063 207.076 616.981 208.139 625.832C209.471 636.915 197.081 646.038 183.439 646.038Z" fill="#238645"/>
<path d="M200.343 597.166H179.322C183.322 594.829 187.51 593.139 191.455 592.509C191.908 592.436 192.348 592.4 192.776 592.4C195.868 592.4 198.347 594.241 200.343 597.166Z" fill="#CACACA"/>
<path d="M114.198 480.267C113.308 482.025 94.3178 476.476 91.5171 474.961C100.109 446.639 107.891 396.687 109.093 388.34C109.093 388.34 129.828 392.845 133.473 408.641C137.044 424.132 127.335 454.204 114.198 480.267Z" fill="#FFC19F"/>
<path d="M118.532 499.368C118.578 504.917 116.722 515.134 113.619 519.744C111.934 522.245 108.716 519.139 108.106 516.7C107.383 513.804 109.71 504.047 106.346 503.971C103.131 503.891 98.4555 513.336 97.7539 515.08C97.301 516.21 96.7867 521.549 96.2296 524.26C95.6922 526.877 94.0583 530.299 90.841 528.882C90.1177 528.563 89.8244 525.688 89.5185 524.507C89.3606 528.892 88.6812 531.85 85.1652 532.1C83.3677 532.231 82.6132 526.696 82.2299 521.792C82.2427 524.514 80.1584 527.62 77.3457 526.892C76.0755 526.562 75.8088 520.763 75.8828 514.279C74.7037 516.979 71.5027 517.544 71.3187 515.279C71.0995 512.582 72.0877 504.467 73.3144 500.97C74.2743 498.233 78.0585 490.14 80.9699 485.921C83.7901 481.836 87.1185 476.936 94.6992 471.894C99.6995 468.571 106.636 470.673 110.909 474.497C117.399 480.303 118.503 495.809 118.532 499.368Z" fill="#FFC19F"/>
<path d="M89.596 525.341C89.4465 525.341 89.3303 525.228 89.3303 525.08C89.3187 523.094 89.2846 517.809 89.9981 514.185C90.2057 513.184 93.2121 506.367 96.1373 501.804C96.1946 501.68 96.3906 501.641 96.4944 501.724C96.6222 501.804 96.6559 501.963 96.5746 502.094C93.6259 506.711 90.6891 513.482 90.5287 514.293C89.8137 517.864 89.8486 523.101 89.8602 525.08C89.8602 525.218 89.7444 525.341 89.596 525.341Z" fill="#F29D77"/>
<path d="M82.2868 523.038C82.1489 523.038 82.0288 522.912 82.0288 522.767C82.039 522.411 82.039 521.937 82.039 521.371C82.039 519.07 82.039 515.597 82.5924 513.024C82.9956 511.168 86.8774 501.886 89.5032 498.084C89.5961 497.954 89.7561 497.932 89.8719 498.015C89.9982 498.102 90.0218 498.262 89.9405 498.381C87.4069 502.049 83.5026 511.357 83.1219 513.14C82.5688 515.655 82.5688 519.229 82.5688 521.371C82.5688 521.94 82.5688 522.426 82.5583 522.777C82.5583 522.922 82.4248 523.042 82.2868 523.038Z" fill="#F29D77"/>
<path d="M75.8588 514.54C75.7209 514.526 75.5997 514.388 75.6117 514.24C75.9227 511.713 76.3825 508.527 77.1896 506.407C78.2606 503.627 80.2759 499.782 82.5681 496.121C82.6494 495.998 82.7873 495.943 82.9368 496.034C83.0631 496.114 83.0983 496.277 83.0294 496.396C80.7375 500.043 78.744 503.848 77.6966 506.596C76.9022 508.662 76.4525 511.804 76.1412 514.308C76.1187 514.443 75.9851 514.54 75.8588 514.54Z" fill="#F29D77"/>
<path d="M255.855 455.707C242.06 455.707 147.377 452.648 130.804 452.648C128.877 463.493 126.082 484.04 127.476 490.256C130.245 502.608 148.647 514.663 150.359 514.833C156.425 515.424 178.919 514.877 198.731 514.039C203.866 510.292 202.476 501.926 205.249 502.289C217.686 503.905 231.35 510.197 239.059 514.05C241.955 515.982 276.015 515.148 285.778 508.015C294.978 501.296 292.735 480.818 285.415 474.428C281.013 470.586 261.636 459.644 255.855 455.707Z" fill="#0D606B"/>
<path d="M313.698 286.047C313.941 284.115 291.618 279.969 291.219 281.875C285.231 310.396 272.888 352.874 270.006 360.66C270.006 360.66 289.183 366.448 300.64 355.615C309.757 346.988 310.457 311.563 313.698 286.047Z" fill="#FFC19F"/>
<path d="M278.857 328.25C281.822 337.583 286.13 361.718 284.25 372.758C275.325 374.643 237.454 379.47 235.789 379.713C214.061 372.421 206.305 341.468 205.387 340.783C220.397 335.796 233.136 329.373 237.807 328.047C247.863 327.641 258.943 328.46 278.857 328.25Z" fill="#18B29C"/>
<path d="M95.2419 400.065C105.994 406.313 120.987 410.329 137.668 414.508C144.357 389.902 162.12 330.338 162.15 329.2C139.832 333.987 129.13 335.205 123.955 339.874C118.915 344.422 107.63 371.058 95.2419 400.065Z" fill="#18B29C"/>
<path d="M125.815 463.029L125.899 463.159C146.516 469.104 172 469.981 196.756 469.441C223.819 468.846 234.504 454.044 259.727 458.071C261.937 451.014 255.103 452.58 254.914 450.72C253.1 432.801 248.879 351.545 243.834 327.163C229.778 325.985 210.072 325.46 188.921 326.376C168.938 327.246 145.622 333.422 131.773 336.351C131.773 336.351 131.63 414.592 125.815 463.029Z" fill="#18B29C"/>
<path d="M222.027 330.533C222.002 328.765 221.428 328.105 220.906 326.463C202.458 325.535 175.191 327.503 155.88 330.164C155.776 330.939 155.979 330.613 155.99 331.403C156.17 345.064 171.099 355.941 189.335 355.702C207.572 355.462 222.205 344.194 222.027 330.533Z" fill="#118E82"/>
<path d="M210.482 294.192L213.443 332.626C214.079 340.893 204.073 348.399 191.098 349.4C178.124 350.396 167.09 344.499 166.454 336.236L163.495 297.798L210.482 294.192Z" fill="#FFC19F"/>
<path d="M286.505 476.026C285.021 476.323 270.794 479.168 256.749 480.111C242.751 481.042 213.133 483.79 213.133 479.585C213.133 475.384 225.636 456.943 251.752 457.436C254.728 457.494 258.938 458.701 262.204 459.872C271.469 465.537 283.489 472.778 286.505 476.026Z" fill="#0D606B"/>
<path d="M261.827 498.392C261.827 505.783 261.101 514.866 255.541 514.866C249.978 514.866 240.24 516.051 239.054 512.234C236.858 505.174 245.789 479.168 251.353 479.168C256.917 479.168 261.827 490.998 261.827 498.392Z" fill="#083B3F"/>
<path d="M268.887 471.267C254.196 471.133 245.904 481.339 244.651 491.419C243.24 502.767 244.245 549.065 245.04 582.958C253.786 584.451 277.514 584.607 279.666 583.595C283.796 547.322 288.714 515.528 289.244 493.448C289.491 483.129 281.517 471.383 268.887 471.267Z" fill="#FFC19F"/>
<path d="M200.259 495.855C200.259 508.61 187.201 518.947 171.092 518.947C154.985 518.947 129.763 482.271 132.38 469.788C143.941 469.089 157.43 466.291 177.223 471.365C192.826 475.359 200.259 483.101 200.259 495.855Z" fill="#0D606B"/>
<path d="M197.674 498.305C196.179 488.258 188.873 475.852 173.552 477.443C160.99 478.744 152.514 490.226 153.006 500.534C154.059 522.593 159.963 555.684 164.957 591.845C167.132 592.806 189.36 592.24 198.07 590.54C198.055 556.644 199.355 509.614 197.674 498.305Z" fill="#FFC19F"/>
<path d="M213.252 325.916C213.144 325.916 213.035 325.916 212.922 325.916L212.741 323.531C212.991 324.332 213.165 325.13 213.252 325.916Z" fill="#EBD1D1"/>
<path d="M213.285 326.242C213.172 326.242 213.06 326.242 212.947 326.242L212.922 325.916C213.034 325.916 213.143 325.916 213.252 325.916C213.266 326.025 213.277 326.133 213.285 326.242Z" fill="#309381"/>
<path d="M165.52 324.119C162.768 320.201 161.759 316.051 163.092 312.397C163.416 311.513 163.866 310.69 164.428 309.936L165.52 324.119Z" fill="#EBD1D1"/>
<path d="M213.163 328.957L212.952 326.243C213.065 326.243 213.177 326.243 213.29 326.243C213.366 327.163 213.326 328.073 213.163 328.957Z" fill="#2A766C"/>
<path d="M196.269 338.753C191.998 338.753 187.272 337.927 182.529 336.194C174.958 333.44 168.914 328.956 165.521 324.118L164.429 309.935C167.236 306.173 172.84 304.133 179.564 304.133C183.836 304.133 188.561 304.955 193.308 306.684C203.332 310.338 210.681 317.014 212.742 323.531L212.924 325.916L212.949 326.242L213.16 328.956C213.062 329.475 212.924 329.986 212.742 330.482C210.793 335.814 204.337 338.753 196.269 338.753Z" fill="#EB9F83"/>
<path d="M303.717 633.378C312.456 633.136 320.237 631.236 321.348 628.583C321.809 627.496 322.081 624.854 321.722 623.292C321.188 620.932 316.492 615.941 314.735 615.851C313.589 621.842 306.7 626.804 289.948 624.354C274.349 622.077 242.126 608.116 240.496 606.847C240.496 606.847 240.572 612.987 240.627 614.328C253.256 620.751 272.038 629.131 280.751 631.146C285.683 632.284 296.887 633.56 303.717 633.378Z" fill="#982121"/>
<path d="M241.791 596.793C241.802 597.402 280.417 600.374 280.566 599.656C281.869 593.397 283.059 578.141 283.698 574.495L242.038 573.752C242.151 580.657 241.711 592.422 241.791 596.793Z" fill="#F9E9A7"/>
<path d="M241.803 584.789C242.808 587.435 260.479 590.077 260.954 589.747C261.913 589.323 261.281 583.868 262.232 583.136C264.094 581.712 283.009 579.338 284.998 581.61C285.64 582.339 285.557 584.543 286.86 586.902C296.764 599.352 304.981 603.027 310.744 608.837C316.732 614.868 321.588 622.411 319.331 624.1C314.721 627.554 294.456 627.811 281.844 624.756C273.377 622.708 244.54 609.269 240.457 607.174C240.37 604.18 240.373 589.845 240.326 585.771C240.319 585.159 241.31 584.804 241.803 584.789Z" fill="#ED3A3A"/>
<path d="M294.805 593.408C295.117 592.937 294.979 592.342 294.5 592.089C291.909 590.718 287.409 590.715 282.76 592.063L282.302 592.205C277.722 593.618 274.082 596.054 272.282 598.924C271.988 599.41 272.137 599.997 272.62 600.24C272.87 600.356 273.153 600.374 273.411 600.294C273.668 600.215 273.901 600.041 274.046 599.809C275.57 597.431 278.796 595.278 282.807 594.035C282.945 593.995 283.083 593.952 283.217 593.923C287.282 592.73 291.27 592.697 293.379 593.814C293.861 594.053 294.511 593.864 294.805 593.408Z" fill="#D3DAE5"/>
<path d="M299.202 598.355C299.529 597.894 299.413 597.296 298.945 597.021C296.4 595.557 292.96 595.064 288.267 596.238L287.806 596.365C283.179 597.605 279.452 599.906 277.55 602.708C277.238 603.179 277.365 603.777 277.841 604.034C278.087 604.157 278.367 604.186 278.632 604.114C278.886 604.049 279.125 603.882 279.281 603.661C280.889 601.338 284.188 599.301 288.242 598.213C288.384 598.177 288.521 598.137 288.656 598.112C292.764 597.075 295.693 597.514 297.761 598.703C298.233 598.964 298.89 598.801 299.202 598.355Z" fill="#D3DAE5"/>
<path d="M304.446 602.748C304.783 602.295 304.678 601.693 304.214 601.41C301.699 599.903 298.469 599.297 293.754 600.385L293.293 600.501C288.644 601.657 284.877 603.893 282.925 606.659C282.605 607.122 282.725 607.721 283.19 607.985C283.436 608.116 283.716 608.152 283.981 608.083C284.238 608.021 284.482 607.862 284.641 607.637C286.289 605.346 289.624 603.371 293.7 602.356C293.838 602.324 293.976 602.287 294.114 602.269C298.236 601.302 300.951 601.838 302.998 603.07C303.47 603.339 304.127 603.186 304.446 602.748Z" fill="#D3DAE5"/>
<path d="M203.215 619.642L162.276 622.084C162.363 618.159 162.614 603.672 162.162 590.802C161.838 581.578 160.853 573.017 160.579 570.516L199.818 569.262C199.099 574.162 198.856 582.107 198.17 585.354C197.571 588.189 203.781 617.887 203.215 619.642Z" fill="#F9E9A7"/>
<path d="M161.802 634.328C173.211 647.927 196.916 645.633 202.672 635.285C204.094 632.73 204.276 627.511 204.385 625.021C197.58 619.25 165.221 620.49 160.521 625.702C160.476 627.047 160.972 633.092 161.802 634.328Z" fill="#982121"/>
<path d="M160.771 627.078C170.988 641.655 198.814 642.177 204.384 625.019C204.573 619.1 202.907 611.674 199.946 594.255C199.775 592.624 199.808 584.991 199.826 582.976C192.346 574.668 167.617 573.19 161.43 584.599C161.492 586.745 161.61 589.913 161.48 593.566C160.805 612.551 158.876 624.374 160.771 627.078Z" fill="#ED3A3A"/>
<path d="M169.204 612.828C169.401 613.023 169.686 613.129 169.976 613.129C170.231 613.132 170.483 613.056 170.697 612.911C176.013 609.167 189.223 609.809 193.168 613.1C193.563 613.444 194.231 613.437 194.663 613.089C195.088 612.755 195.106 612.201 194.703 611.867C190.065 607.971 175.646 607.141 169.341 611.606C168.892 611.914 168.829 612.473 169.204 612.828ZM193.879 606.318C194.315 605.992 194.344 605.427 193.945 605.082C189.535 601.186 175.73 600.356 169.665 604.832C169.222 605.155 169.173 605.709 169.556 606.065C169.945 606.42 170.626 606.441 171.05 606.112C176.132 602.375 188.642 603.005 192.38 606.296C192.58 606.463 192.845 606.557 193.121 606.561C193.389 606.561 193.665 606.478 193.879 606.318ZM193.273 600.24C193.716 599.91 193.763 599.359 193.382 599.004C191.306 597.094 186.98 595.836 182.106 595.713L181.623 595.706C176.792 595.662 172.552 596.764 169.948 598.761C169.518 599.095 169.484 599.649 169.874 599.994C170.078 600.168 170.343 600.258 170.619 600.258C170.887 600.265 171.163 600.178 171.375 600.019C173.563 598.373 177.319 597.402 181.551 597.442C181.696 597.442 181.841 597.442 181.975 597.456C186.247 597.554 190.09 598.631 191.778 600.193C192.166 600.534 192.849 600.555 193.273 600.24Z" fill="white"/>
<path d="M327.445 255.79C326.484 260.741 325.979 264.271 324.382 269.233C322.742 274.344 316.554 285.137 311.328 290.893C305.684 297.109 291.679 296.583 286.776 288.889C281.851 281.165 278.523 269.726 277.329 263.373C276.487 258.882 275.722 250.933 276.705 250.466C280.483 248.664 283.252 252.213 285.172 259.027C285.785 261.22 286.733 264.308 288.536 266.21C289.68 264.5 291.763 253.92 292.601 247.381C293.098 243.514 291.534 239.013 292.663 235.363C293.218 233.558 294.822 231.818 296.891 232.007C298.742 232.177 300.705 243.115 300.93 246.892C301.024 248.596 299.928 255.83 299.805 258.635C300.858 254.627 302.719 246.102 302.897 243.453C303.079 240.861 302.186 234.163 303.387 230.651C304.073 228.658 305.946 226.834 307.782 227.969C308.769 228.578 310.718 236.972 311.096 244.069C311.208 246.233 309.248 254.688 308.443 260.056C308.657 260.111 312.562 247.595 312.722 245.866C313.084 241.898 312.819 237.73 313.244 234.631C313.516 232.659 316.365 230.347 318.031 231.84C319.08 232.786 320.441 245.776 320.223 248.541C320.042 250.828 318.931 255.62 317.567 261.988C319.272 258.711 320.659 254.014 321.145 252.659C321.21 249.284 321.203 245.352 321.66 243.456C322.143 241.448 323.852 239.922 325.162 240.839C325.946 241.387 328.069 252.572 327.445 255.79Z" fill="#FFC19F"/>
<path d="M286.902 289.084C286.859 289.019 286.819 288.954 286.775 288.888C286.819 288.954 286.859 289.019 286.902 289.084ZM276.316 255.163C276.164 252.669 276.229 250.69 276.704 250.466C276.229 250.69 276.164 252.673 276.316 255.163ZM276.744 250.447C276.762 250.437 276.777 250.429 276.795 250.422C276.777 250.429 276.762 250.437 276.744 250.447ZM276.799 250.422C277.013 250.324 277.223 250.245 277.43 250.179C277.223 250.245 277.013 250.324 276.799 250.422ZM312.721 245.866C312.731 245.754 312.739 245.638 312.75 245.526C312.739 245.641 312.731 245.754 312.721 245.866ZM302.896 243.452C303.078 240.861 302.185 234.163 303.386 230.651C302.185 234.163 303.078 240.861 302.896 243.452ZM292.509 242.528C292.277 240.045 291.983 237.552 292.662 235.363C291.987 237.552 292.277 240.045 292.509 242.528ZM303.386 230.651C303.923 229.081 305.201 227.621 306.613 227.621C306.997 227.621 307.393 227.726 307.781 227.969C307.389 227.726 306.997 227.621 306.613 227.621C305.201 227.621 303.927 229.085 303.386 230.651Z" fill="#EBD1D1"/>
<path d="M288.971 291.396C288.205 290.737 287.519 289.99 286.902 289.084C286.859 289.019 286.819 288.954 286.775 288.888C281.898 281.241 278.588 269.947 277.365 263.561C277.354 263.495 277.339 263.434 277.328 263.372C276.897 261.056 276.479 257.82 276.316 255.163C276.164 252.673 276.229 250.69 276.704 250.466L276.744 250.447C276.762 250.437 276.777 250.429 276.799 250.422C277.013 250.324 277.223 250.244 277.488 250.161C277.862 250.056 278.225 250.002 278.577 250.002C281.4 250.002 283.531 253.412 285.171 259.027C285.763 261.227 286.732 264.307 288.535 266.21C289.679 264.499 291.762 253.92 292.6 247.381C292.8 245.834 292.669 244.184 292.509 242.528C292.277 240.045 291.987 237.552 292.662 235.363C293.188 233.648 294.662 231.992 296.585 231.992C296.683 231.992 296.788 231.999 296.89 232.006C298.741 232.177 300.704 243.115 300.929 246.892C301.024 248.588 299.935 255.775 299.804 258.635C300.857 254.626 302.718 246.102 302.896 243.452C303.078 240.861 302.185 234.163 303.386 230.651C303.927 229.085 305.201 227.621 306.613 227.621C306.997 227.621 307.389 227.726 307.781 227.969C308.768 228.578 310.717 236.972 311.095 244.068C311.095 244.13 311.098 244.192 311.098 244.261C311.098 246.693 309.226 254.837 308.442 260.056C308.67 260.056 312.561 247.591 312.721 245.866C312.731 245.754 312.739 245.641 312.75 245.525C313.054 241.836 312.877 238.045 313.218 235.087C315.09 239.657 316.263 244.706 316.524 250.063C317.478 269.766 305.059 287.573 288.971 291.396ZM291.591 268.378C291.232 268.378 290.891 268.417 290.579 268.497C292.114 269.668 293.83 270.784 295.242 272.814C297.224 275.659 298.033 278.385 298.552 281.045C299.612 277.446 299.318 273.985 297.819 271.94C296.052 269.527 293.533 268.378 291.591 268.378Z" fill="#EB9F83"/>
<path d="M298.553 281.046C298.034 278.385 297.225 275.66 295.243 272.815C293.832 270.785 292.115 269.669 290.58 268.498C290.892 268.418 291.233 268.378 291.592 268.378C293.534 268.378 296.053 269.527 297.82 271.941C299.319 273.985 299.613 277.447 298.553 281.046Z" fill="#DB836D"/>
<path d="M129.022 464.007C128.015 463.754 127.021 463.482 126.035 463.195C127.021 463.482 128.015 463.754 129.022 464.007ZM125.815 463.029C125.82 462.985 125.826 462.942 125.831 462.891C125.826 462.935 125.82 462.985 125.815 463.029ZM259.727 458.071C261.919 451.072 255.208 452.554 254.922 450.764C255.208 452.554 261.922 451.072 259.727 458.071Z" fill="white"/>
<path d="M184.947 469.575C178.345 469.575 171.755 469.437 165.273 469.082C171.753 469.437 178.348 469.575 184.954 469.575C188.892 469.575 192.83 469.527 196.756 469.441C197.011 469.437 197.265 469.426 197.519 469.415C197.265 469.426 197.011 469.437 196.756 469.441C192.83 469.527 188.888 469.575 184.947 469.575ZM155.856 468.408C146.425 467.556 137.365 466.164 129.022 464.007C137.366 466.164 146.429 467.556 155.862 468.411L155.856 468.408Z" fill="#61979F"/>
<path d="M184.954 469.574C178.348 469.574 171.753 469.437 165.273 469.082C161.947 468.672 158.822 468.469 155.862 468.411C146.429 467.556 137.365 466.164 129.022 464.007C128.015 463.754 127.021 463.482 126.035 463.195C125.99 463.181 125.944 463.174 125.899 463.159L125.815 463.029C125.82 462.985 125.826 462.934 125.831 462.891C128.008 444.74 129.793 426.27 131.304 408.481C146.949 410.626 162.722 411.609 178.098 411.609C204.515 411.609 229.753 408.72 251.1 403.896C252.788 424.599 254.149 443.145 254.922 450.764C255.208 452.554 261.919 451.072 259.727 458.07C256.715 457.585 253.913 457.375 251.263 457.375C249.848 457.375 248.476 457.436 247.141 457.549C242.608 457.86 238.536 458.755 234.925 460.017C223.801 463.406 213.545 468.904 197.518 469.415C197.264 469.426 197.01 469.437 196.756 469.44C192.829 469.527 188.892 469.574 184.954 469.574Z" fill="#69CDBF"/>
<path d="M234.925 460.017C238.536 458.756 242.608 457.861 247.141 457.549C242.778 457.915 238.797 458.84 234.925 460.017Z" fill="#61979F"/>
<path d="M165.282 469.083C162.109 468.916 158.962 468.691 155.864 468.412C158.824 468.47 161.949 468.673 165.282 469.083Z" fill="#61979F"/>
<path d="M64.7591 268.077C72.0026 289.099 93.5239 300.889 108.688 297.511C123.854 294.137 125.337 276.269 120.91 255.801C116.485 235.331 100.593 221.424 85.4398 224.852C64.7293 229.539 57.9503 248.317 64.7591 268.077Z" fill="#FFC19F"/>
<path d="M88.2605 274.373C93.1109 282.173 102.474 285.076 109.172 280.861C115.869 276.642 117.368 266.9 112.515 259.1C107.667 251.3 98.3036 248.397 91.6066 252.612C84.9064 256.831 83.4108 266.573 88.2605 274.373Z" fill="#E0956C"/>
<path d="M306.199 249.372C302.294 271.26 282.848 286.221 267.344 285.221C251.837 284.221 247.612 266.794 248.824 245.889C250.037 224.983 263.592 208.796 279.092 209.851C300.279 211.29 309.875 228.799 306.199 249.372Z" fill="#FFC19F"/>
<path d="M283.953 259.212C280.364 267.664 271.563 271.974 264.293 268.842C257.024 265.703 254.041 256.312 257.63 247.857C261.216 239.404 270.017 235.095 277.286 238.23C284.559 241.365 287.539 250.76 283.953 259.212Z" fill="#E0956C"/>
<path d="M69.1246 155.048C72.5466 141.013 89.1111 126.477 108.502 119.481C125.421 107.375 147.213 99.0479 175.743 97.8489C245.094 94.9323 283.912 123.228 289.262 192.12C294.615 261.013 250.991 295.569 188.228 300.429C133.124 304.699 90.0155 283.989 76.6897 232.246L76.4698 232.358C70.977 207.096 64.4142 174.37 69.1246 155.048Z" fill="#AD5C49"/>
<path d="M91.6246 176.998C87.0713 188.934 97.8367 280.777 111.232 293.977C125.439 307.979 148.566 329.461 189.935 326.402C230.273 323.419 253.5 299.555 262.305 282.274C272.721 261.821 271.745 180.498 267.103 170.041C251.41 134.721 218.206 136.063 174.892 139.418C134.377 142.557 103.43 146.034 91.6246 176.998Z" fill="#FFC19F"/>
<path d="M135.115 266.755C135.392 270.72 129.751 274.391 122.514 274.961C115.278 275.53 109.186 272.775 108.908 268.813C108.63 264.848 114.274 261.177 121.507 260.608C128.745 260.039 134.836 262.793 135.115 266.755Z" fill="#FF9797"/>
<path d="M262.595 257.509C262.871 261.474 257.231 265.145 249.994 265.714C242.757 266.28 236.664 263.529 236.388 259.567C236.109 255.602 241.752 251.931 248.985 251.362C256.225 250.796 262.315 253.547 262.595 257.509Z" fill="#FF9797"/>
<path d="M151.661 275.012C152.519 267.397 164.215 268.444 183.061 266.857C184.049 266.773 187.885 266.476 188.876 266.407C207.744 265.073 219.136 262.235 221.157 269.626C225.055 283.859 208.078 301.053 188.93 302.597L188.596 302.623C169.441 304.047 150.01 289.676 151.661 275.012Z" fill="#701608"/>
<path d="M169.572 299.295L169.19 299.132L169.478 298.831C174.119 293.989 180.633 291.013 187.815 290.459C195.012 289.9 201.903 291.84 207.227 295.906L207.558 296.156L207.206 296.381C201.468 300.136 195.164 302.394 188.954 302.898L188.624 302.923C182.422 303.38 175.833 302.122 169.572 299.295Z" fill="#DD6B5B"/>
<path d="M160.454 268.752L160.348 268.429L211.548 264.461L211.494 264.801C210.543 270.321 199.891 275.247 186.71 276.269C173.545 277.291 162.258 274.062 160.454 268.752Z" fill="white"/>
<path d="M193.018 256.103C192.546 256.139 192.107 255.834 191.991 255.363C191.163 252.011 188.307 250.024 184.71 250.303C181.092 250.582 178.518 253.033 178.298 256.4C178.262 256.936 177.793 257.349 177.255 257.313C176.715 257.277 176.306 256.813 176.341 256.269C176.621 251.96 180 248.701 184.558 248.35C189.091 247.998 192.844 250.626 193.896 254.892C194.027 255.418 193.704 255.947 193.177 256.077L193.018 256.103Z" fill="#C4735B"/>
<path d="M248.41 189.916C249.252 189.862 250.069 189.46 250.624 188.742C251.669 187.405 251.433 185.479 250.094 184.435C240.364 176.859 223.721 175.68 210.521 181.619C208.972 182.32 208.286 184.137 208.983 185.681C209.687 187.231 211.512 187.919 213.051 187.216C224.109 182.225 238.412 183.108 246.313 189.271C246.93 189.757 247.681 189.967 248.41 189.916Z" fill="#660303"/>
<path d="M112.472 200.448C111.63 200.521 110.763 200.252 110.101 199.629C108.862 198.469 108.801 196.527 109.961 195.291C118.406 186.306 134.668 182.579 148.624 186.414C150.263 186.867 151.224 188.556 150.772 190.191C150.317 191.829 148.622 192.79 146.99 192.333C135.292 189.104 121.3 192.181 114.444 199.488C113.908 200.06 113.201 200.383 112.472 200.448Z" fill="#660303"/>
<path d="M205.379 236.016C205.764 240.978 207.411 245.755 208.878 247.426C211.164 250.024 221.246 251.434 226.788 250.731C239.69 249.1 252.646 240.459 250.374 226.563C248.084 216.697 239.298 208.495 224.135 211.75C210.529 214.671 204.62 226.252 205.379 236.016Z" fill="white"/>
<path d="M248.091 238.68C251.208 232.195 249.561 224.588 246.991 220.619C243.336 214.976 235.236 211.431 225.706 212.406C213.566 213.645 204.983 225.472 205.379 236.016C203.575 224.363 212.717 212.928 224.751 210.51C236.927 208.067 246.436 213.845 249.347 220.351C252.148 226.614 251.107 234.019 248.091 238.68Z" fill="#773220"/>
<path d="M221.314 226.154C219.1 233.265 223.077 240.819 230.194 243.03C237.315 245.24 244.882 241.268 247.096 234.157C249.309 227.046 245.332 219.492 238.211 217.281C231.091 215.071 223.524 219.043 221.314 226.154Z" fill="#63190D"/>
<path d="M238.343 222.736C237.755 224.635 238.815 226.654 240.72 227.245C242.622 227.836 244.64 226.774 245.231 224.875C245.823 222.975 244.763 220.956 242.861 220.366C240.956 219.775 238.934 220.837 238.343 222.736Z" fill="#FEFFFE"/>
<path d="M162.08 239.372C162.466 244.33 161.575 249.307 160.381 251.184C158.525 254.102 148.783 257.049 143.199 257.208C130.199 257.581 116.064 251.039 116.161 236.962C116.903 226.861 124.316 217.404 139.801 218.285C153.695 219.075 161.322 229.608 162.08 239.372Z" fill="white"/>
<path d="M120.288 248.581C116.207 242.655 116.661 234.881 118.587 230.568C121.327 224.428 128.782 219.676 138.348 219.172C150.536 218.527 160.841 228.89 162.08 239.371C162.062 227.581 151.264 217.686 138.999 217.154C126.592 216.614 118.088 223.786 116.218 230.666C114.418 237.284 116.587 244.438 120.288 248.581Z" fill="#773220"/>
<path d="M157.278 231.728C160.562 238.411 157.8 246.49 151.107 249.77C144.413 253.05 136.324 250.288 133.04 243.605C129.756 236.922 132.518 228.843 139.211 225.563C145.905 222.282 153.994 225.041 157.278 231.728Z" fill="#63190D"/>
<path d="M155.898 229.734C156.776 231.521 156.037 233.677 154.25 234.554C152.461 235.431 150.3 234.692 149.423 232.909C148.545 231.122 149.283 228.965 151.071 228.088C152.859 227.211 155.021 227.947 155.898 229.734Z" fill="#FEFFFE"/>
<path d="M253.014 126.779C249.257 139.754 252.694 167.193 257.347 180.311C262.072 193.632 271.472 210.623 288.859 214.501C290.384 188.695 291.817 155.351 284.178 136.984C278.534 123.415 262.638 114.979 253.014 126.779Z" fill="#AD5C49"/>
<path d="M156.377 90.7509C192.515 87.0884 249.066 101.67 258.023 122.911C266.653 101.257 286.356 101.285 291.255 125.798C279.653 119.654 269.113 122.576 258.672 127.676C252.64 136.055 186.458 125.824 157.262 119.107C125.597 111.822 103.136 124.617 100.507 120.17C94.4561 109.939 116.779 94.765 156.377 90.7509Z" fill="#AD5C49"/>
<path d="M130.07 132.563C182.274 121.03 219.721 130.411 229.654 138.001C235.602 142.547 242.781 151.746 236.078 163.403C231.084 172.081 217.471 173.268 214.85 171.759C212.372 170.329 221.423 162.065 221.535 152.058C213.478 165.619 191.173 178.916 174.494 181.614C156.667 184.497 145.284 182.166 142.469 176.463C141.442 174.381 143.656 170.089 147.495 164.967C139.604 167.568 131.599 169.293 124.475 169.403C106.419 169.683 95.8954 163.348 94.4448 157.156C92.9154 150.637 110.49 136.888 130.07 132.563Z" fill="#AD5C49"/>
</svg>
