<svg width="14" height="15" viewBox="0 0 14 15" fill="none" xmlns="http://www.w3.org/2000/svg">
<path d="M7.06868 2.52374C7.30312 2.57844 7.3969 2.63901 7.69582 2.93207L7.9713 3.20364L8.11588 3.17042C8.32493 3.11963 8.76256 3.10986 8.97161 3.14893C9.32915 3.21536 9.64174 3.35212 9.90941 3.55531C9.98951 3.61588 10.2122 3.82297 10.4037 4.01444L10.7495 4.3622L10.5072 4.60447L10.265 4.84673L10.3646 4.962C10.7554 5.40354 10.8316 5.93887 10.5795 6.46247C10.4975 6.6344 10.4701 6.66761 10.224 6.91378C9.97974 7.158 9.94262 7.1873 9.77264 7.26936C9.3858 7.45887 9.00092 7.46669 8.6258 7.29281C8.48513 7.22833 8.30148 7.09939 8.20966 7.0017L8.16277 6.94895L7.9166 7.19512L7.67043 7.44129L7.28945 7.05445C6.83032 6.58946 6.6916 6.39604 6.55484 6.0346C6.44153 5.73177 6.39659 5.26678 6.45325 4.94832C6.46497 4.87604 6.47083 4.81547 6.46692 4.81156C6.46302 4.80765 6.02538 5.23748 5.49396 5.76889L4.52687 6.73599L4.55422 6.79851C4.69489 7.14823 4.69293 7.56047 4.5464 7.87502C4.521 7.93168 4.48193 8.00787 4.45849 8.04695L4.4155 8.11533L5.44121 9.50248L6.46497 10.8877L7.07844 10.8994C7.67238 10.9111 7.69778 10.9131 7.85017 10.9619C8.04945 11.0283 8.2077 11.1299 8.36009 11.2941C8.48709 11.4308 8.5965 11.6301 8.63752 11.804C8.6766 11.9642 8.67074 12.1674 8.62385 12.2572C8.5711 12.3588 8.4656 12.4526 8.37182 12.478C8.26827 12.5073 3.77468 12.5073 3.67113 12.478C3.6301 12.4683 3.56563 12.4311 3.52655 12.396C3.42691 12.308 3.38393 12.2045 3.38393 12.0423C3.38198 11.5676 3.72193 11.1163 4.19473 10.9639C4.33735 10.917 4.3901 10.9111 4.76522 10.9033C4.99381 10.8974 5.18137 10.8896 5.18137 10.8857C5.18137 10.8818 4.81406 10.3817 4.36471 9.7721L3.54609 8.66628L3.3136 8.66042C3.13581 8.65847 3.04789 8.64675 2.94434 8.61353C2.39729 8.4377 2.0339 7.9688 2.00264 7.40026C1.98896 7.158 2.02804 6.97435 2.14136 6.74576C2.3211 6.38432 2.63956 6.13033 3.0303 6.04046C3.19246 6.00139 3.49529 6.00334 3.63792 6.04242L3.74537 6.07172L4.81602 5.00107L5.88667 3.93043L5.85345 3.84446C5.8007 3.70966 5.80656 3.36189 5.86322 3.2095C6.04296 2.71325 6.57438 2.41042 7.06868 2.52374ZM9.20606 5.90761L8.59063 6.52303L8.67855 6.60118C8.92082 6.81805 9.22755 6.86298 9.50108 6.72427C9.63784 6.65589 9.96411 6.33157 10.0325 6.19871C10.1341 5.99357 10.138 5.74545 10.0423 5.55594C10.0012 5.47388 9.85665 5.29023 9.83516 5.29023C9.82735 5.29023 9.54406 5.56766 9.20606 5.90761ZM3.04984 6.82782C2.92871 6.89424 2.80953 7.03882 2.77437 7.15604C2.66105 7.54288 2.93848 7.918 3.33509 7.91605C3.57149 7.91409 3.74537 7.80469 3.85283 7.59173C3.96614 7.36119 3.92316 7.11697 3.73756 6.92941C3.59884 6.7907 3.50311 6.75358 3.30383 6.76139C3.18074 6.76725 3.13581 6.77897 3.04984 6.82782Z" fill="#79CE4B"/>
</svg>
