<svg width="414" height="736" viewBox="0 0 414 736" fill="none" xmlns="http://www.w3.org/2000/svg">
<defs>
<linearGradient id="paint0_linear_1238_1232" x1="-26.7297" y1="-37.1875" x2="86.0657" y2="192.169" gradientUnits="userSpaceOnUse">
<stop stop-color="#6100E0"/>
<stop offset="1" stop-color="#6100E0" stop-opacity="0"/>
</linearGradient>
<clipPath id="clip0_1238_1232">
<rect width="414" height="736" fill="white"/>
</clipPath>
</defs>
<g clip-path="url(#clip0_1238_1232)">
<rect width="414" height="736" fill="#FAF9FB"/>
<g opacity="0.3">
<path d="M316.3 -16.9476C314.514 -15.6036 313.52 -11.1584 313.144 -9.65834C312.662 -7.73054 312.875 -5.82875 312.462 -1.92402C312.422 -1.56274 313.728 0.674322 313.777 1.79285C313.858 3.66863 313.029 4.70045 312.881 5.29295C312.141 8.3046 314.503 10.0214 315.714 10.3162C318.63 11.0243 319.668 6.38836 320.139 5.3363C320.558 4.41142 319.399 3.20618 319.714 2.18881C320.665 -0.892197 322.309 -4.74202 322.413 -8.73346C322.462 -10.5948 322.858 -14.4619 321.39 -15.9967C319.835 -17.6239 317.78 -18.0574 316.3 -16.9476Z" fill="#FEC20D"/>
<path d="M345.192 11.4499C346.897 8.54511 350.79 4.86863 353.608 3.02462C354.648 2.3454 355.758 1.34246 357.897 2.43211C359.221 3.10555 359.461 4.19519 359.383 4.85129C359.308 5.5045 358.917 6.57681 358.565 7.13174C356.125 10.9672 350.669 15.3691 348.495 17.2247C347.391 18.1612 346.547 17.9531 344.527 19.4676C344.001 19.8664 342.024 22.5544 341.304 22.9966C340.287 23.6152 338.9 23.4244 337.905 22.5226C336.934 21.6353 337.061 17.3374 339.322 16.7276C340.556 16.3923 342.241 16.4906 345.192 11.4499Z" fill="#42B75C"/>
<path d="M344.858 -13.4123C344.112 -15.2881 341.632 -15.1812 340.083 -13.9413C338.525 -12.6869 336.71 -9.6174 336.046 -8.57979C335.488 -7.70404 334.806 -6.15774 334.401 -5.19527C333.649 -3.42064 332.635 -3.08826 331.704 -1.39455C330.742 0.365626 330.537 2.60559 330.603 3.04202C330.855 4.6548 331.621 5.22708 331.123 7.23293C330.904 8.12025 329.152 8.11736 328.204 8.74744C326.973 9.57117 326.73 10.5278 326.227 11.5886C325.577 12.9644 326.068 14.817 329.762 16.1986C331.554 16.8691 332.285 15.5454 333.138 14.3864C334.135 13.0279 333.011 9.92667 333.386 8.25031C333.551 7.51618 335.262 6.76181 336.363 6.0826C337.089 5.63461 337.748 5.03054 338.508 4.3571C341.569 1.63735 340.84 -0.013001 342.627 -2.88305C343.895 -4.92937 346.216 -9.9758 344.858 -13.4123Z" fill="#906DB0"/>
<path d="M349.656 28.7256C349.321 29.0175 346.578 29.6245 346.223 29.9251C345.182 30.798 344.237 31.9772 344.728 33.0755C345.847 35.5727 348.312 35.6507 349.616 34.9513C351.229 34.0842 350.679 32.1708 352.211 32.1651C354.457 32.1564 356.818 30.5609 358.188 29.8008C359.902 28.847 362.11 27.7805 363.743 26.2082C364.599 25.3845 365.723 24.4654 365.735 22.8266C365.755 20.5144 363.544 20.1473 362.602 20.1646C359.093 20.2195 356.792 23.0607 352.862 25.529C350.838 26.7978 351.122 27.451 349.656 28.7256Z" fill="#EE2F2C"/>
<path d="M338.301 31.7777C336.926 29.7545 335.501 27.8266 333.853 26.0231C331.29 23.2138 327.151 19.3379 324.327 17.517C320.977 15.3551 319.393 12.2538 314.876 14.251C313.243 14.9736 312.029 17.9217 312.411 20.5085C312.558 21.4883 315.471 24.1907 318.899 25.3468C320.405 25.8555 321.899 26.5405 323.076 27.607C324.593 28.9741 324.032 29.8701 325.278 31.9251C326.506 33.9598 328.871 35.0177 329.122 35.931C329.706 38.0611 328.327 40.3473 326.431 41.4861C324.535 42.622 322.246 42.8561 320.041 42.9746C319.336 43.0093 318.613 43.0353 317.951 42.7867C317.136 42.4804 315.159 40.7288 314.731 39.9658C313.353 37.5351 315.032 35.6131 315.151 32.8239C315.269 30.0319 314.989 26.8902 312.867 25.0722C312.035 24.3583 311.217 23.2889 310.124 23.2716C307.937 23.2311 306.561 24.8439 305.067 24.7485C302.292 24.578 300.28 22.6964 299.575 20.8437C298.566 18.1905 298.298 13.3117 297.656 11.6931C296.653 9.1728 294.835 7.10336 292.312 5.17265C290.771 3.99342 288.037 3.55699 287.156 3.7622C284.378 4.40095 284.219 7.28544 284.439 8.32594C285.375 12.7192 289.474 16.5979 292.254 21.7773C292.65 22.5172 293.02 23.286 293.349 24.0837C293.789 25.1416 296.066 29.2053 296.98 31.3846C298.881 35.9165 299.907 39.356 301.312 41.593C305.988 49.0355 309.191 50.8304 320.619 53.7235C322.272 53.3247 327.321 51.5269 329.009 50.1107C330.654 48.7291 331.969 47.9401 335.145 45.2666C340.223 40.9919 339.677 33.8009 338.301 31.7777Z" fill="#2094D1"/>
<path d="M325.636 41.7759C325.518 41.8308 325.391 41.8598 325.269 41.9089C325.388 41.8916 325.506 41.8713 325.636 41.7759Z" fill="#FEC20D"/>
<path d="M297.604 26.6939C298.046 26.1303 299.448 23.8672 300.5 22.3758C300.101 21.8845 299.775 21.37 299.575 20.8469C298.564 18.1936 298.298 13.3148 297.656 11.6934C296.653 9.17308 294.835 7.10654 292.312 5.17584C290.771 3.99661 288.034 3.56018 287.156 3.7625C284.378 4.40125 284.216 7.28574 284.439 8.32623C285.378 12.7223 289.477 16.5982 292.254 21.7775C292.65 22.5203 293.023 23.2863 293.349 24.084C293.624 24.7487 294.621 26.5985 295.552 28.4223C296.3 27.9367 297.087 27.3529 297.604 26.6939Z" fill="#F05322"/>
</g>
<g opacity="0.3">
<path d="M417.253 542.546C419.326 541.71 421.437 537.674 422.188 536.322C423.153 534.585 423.439 532.693 424.849 529.028C424.981 528.69 424.299 526.191 424.541 525.098C424.948 523.265 426.016 522.483 426.312 521.949C427.806 519.231 425.97 516.962 424.876 516.363C422.242 514.925 420.04 519.134 419.313 520.028C418.669 520.813 419.476 522.277 418.909 523.179C417.193 525.908 414.608 529.201 413.474 533.03C412.945 534.815 411.562 538.448 412.583 540.311C413.664 542.285 415.536 543.235 417.253 542.546Z" fill="#FEC20D"/>
<path d="M396.696 507.639C394.297 510.003 389.585 512.547 386.386 513.599C385.205 513.986 383.873 514.667 382.089 513.061C380.985 512.068 381.035 510.953 381.281 510.34C381.522 509.728 382.177 508.794 382.661 508.349C386.01 505.275 392.42 502.436 395 501.206C396.308 500.587 397.07 501.007 399.413 500.067C400.025 499.817 402.63 497.733 403.439 497.492C404.582 497.158 405.873 497.701 406.6 498.829C407.308 499.938 406.073 504.056 403.732 504.06C402.453 504.065 400.851 503.534 396.696 507.639Z" fill="#42B75C"/>
<path d="M390.584 531.741C390.818 533.745 393.241 534.284 395.059 533.487C396.888 532.679 399.436 530.184 400.346 529.354C401.112 528.652 402.171 527.335 402.811 526.51C403.996 524.99 405.062 524.932 406.399 523.537C407.785 522.086 408.562 519.975 408.611 519.536C408.786 517.913 408.194 517.162 409.193 515.354C409.635 514.553 411.326 515.009 412.405 514.646C413.808 514.169 414.29 513.308 415.05 512.414C416.034 511.253 416.039 509.336 412.829 507.046C411.271 505.934 410.223 507.024 409.099 507.922C407.784 508.977 408.068 512.263 407.271 513.785C406.922 514.452 405.074 514.737 403.834 515.108C403.018 515.353 402.225 515.766 401.316 516.22C397.656 518.055 397.932 519.838 395.464 522.148C393.709 523.796 390.161 528.07 390.584 531.741Z" fill="#906DB0"/>
<path d="M396.855 489.796C397.254 489.601 400.061 489.725 400.482 489.526C401.713 488.953 402.931 488.058 402.741 486.87C402.306 484.169 399.945 483.455 398.505 483.793C396.723 484.213 396.758 486.204 395.277 485.813C393.106 485.24 390.412 486.17 388.892 486.55C386.989 487.027 384.58 487.486 382.596 488.582C381.557 489.156 380.233 489.753 379.797 491.333C379.179 493.561 381.22 494.488 382.135 494.715C385.538 495.57 388.496 493.421 392.931 492.055C395.214 491.353 395.109 490.648 396.855 489.796Z" fill="#EE2F2C"/>
<path d="M408.613 489.787C409.418 492.097 410.295 494.328 411.42 496.497C413.169 499.874 416.164 504.689 418.42 507.178C421.096 510.134 421.823 513.539 426.704 512.779C428.468 512.504 430.404 509.971 430.705 507.373C430.816 506.389 428.701 503.024 425.689 501.02C424.367 500.139 423.1 499.091 422.24 497.756C421.128 496.043 421.902 495.323 421.231 493.015C420.571 490.732 418.561 489.098 418.554 488.151C418.542 485.942 420.465 484.091 422.591 483.482C424.717 482.875 426.988 483.241 429.149 483.698C429.839 483.847 430.544 484.009 431.119 484.42C431.827 484.927 433.283 487.13 433.499 487.978C434.201 490.683 432.082 492.105 431.246 494.768C430.408 497.434 429.866 500.542 431.445 502.847C432.064 503.752 432.577 504.996 433.628 505.296C435.731 505.901 437.477 504.7 438.896 505.178C441.532 506.061 442.988 508.399 443.19 510.371C443.477 513.195 442.474 517.977 442.675 519.707C442.991 522.401 444.212 524.87 446.149 527.388C447.332 528.926 449.86 530.055 450.765 530.085C453.613 530.187 454.513 527.442 454.57 526.38C454.803 521.894 451.848 517.087 450.503 511.364C450.312 510.547 450.153 509.709 450.042 508.853C449.891 507.718 448.743 503.203 448.425 500.861C447.761 495.992 447.66 492.404 446.882 489.88C444.291 481.48 441.663 478.918 431.373 473.165C429.673 473.123 424.33 473.552 422.333 474.484C420.387 475.392 418.913 475.814 415.153 477.574C409.141 480.389 407.807 487.477 408.613 489.787Z" fill="#2094D1"/>
</g>
<path d="M180.377 504.596C187.499 515.264 186.38 519.823 187.629 522.339C189.678 526.465 191.637 526.722 193.014 530.638C195.891 538.829 189.272 546.597 184.942 547.631C185.616 544.994 185.099 541.769 184.633 541.426C184.362 544.2 183.906 547.79 183.062 548.434C177.875 552.396 171.649 554.639 161.345 555.78C153.157 556.686 141.44 556.33 132.793 552.247C131.25 551.518 129.83 548.392 129.063 544.526C127.685 548.736 129.948 550.983 129.353 550.601C125.008 547.816 120.752 540.454 124.821 533.745C129.601 525.868 123.912 524.439 130.375 510.205C145.205 507.239 174.62 504.063 180.377 504.596Z" fill="#AE5C4A"/>
<path d="M187.485 529.166C187.39 534.314 183.869 538.391 180.639 538.679C177.411 538.966 175.973 535.113 175.544 530.281C175.113 525.448 177.381 521.285 180.611 521.009C185.025 520.634 187.572 524.327 187.485 529.166Z" fill="#F5B18C"/>
<path d="M184.741 515.009C187.086 532.15 177.081 541.29 161.166 543.069C145.248 544.848 130.751 539.559 128.83 522.365C126.907 505.171 139.407 497.523 154.695 496.059C173.312 494.277 182.637 499.627 184.741 515.009Z" fill="#AE5C4A"/>
<path d="M183.703 538.047C181.154 547.13 174.324 552.216 166.993 552.626C151.089 553.522 140.651 545.05 135.353 526.763C129.711 507.286 143.341 504.932 157.38 503.362C166.754 502.313 174.6 501.627 179.171 507.437C181.991 511.021 184.952 533.601 183.703 538.047Z" fill="#FBC1A0"/>
<path d="M171.318 525.765C170.174 528.452 170.742 531.156 172.196 532.01C174.382 533.292 179.101 533.081 180.517 530.576C181.893 528.151 180.517 524.278 177.533 522.95C174.923 521.789 172.426 523.163 171.318 525.765Z" fill="#FAFDFF"/>
<path d="M179.889 523.847C177.213 520.307 172.26 522.336 171.279 525.857C172.422 523.168 175.072 522.025 177.487 523.098C178.979 523.763 180.169 525.153 180.668 526.816C181.069 528.142 181.009 529.701 180.438 530.709C181.159 530.002 181.857 526.45 179.889 523.847Z" fill="#853A24"/>
<path d="M179.001 516.779C178.779 516.814 178.544 516.77 178.34 516.638C176.747 515.609 174.029 515.688 172.009 516.824C171.559 517.083 170.977 516.918 170.72 516.462C170.461 516.008 170.625 515.427 171.081 515.172C173.707 513.691 177.194 513.643 179.369 515.046C179.809 515.331 179.933 515.916 179.65 516.356C179.497 516.594 179.258 516.738 179.001 516.779Z" fill="#5D1F12"/>
<path d="M148.259 521.359C147.976 521.402 147.677 521.33 147.437 521.132C146.996 520.767 146.934 520.108 147.3 519.665C149.114 517.478 152.78 516.38 156.028 517.063C156.591 517.179 156.952 517.731 156.834 518.294C156.718 518.856 156.16 519.216 155.6 519.1C153.109 518.574 150.233 519.392 148.905 520.995C148.736 521.201 148.503 521.323 148.259 521.359Z" fill="#5D1F12"/>
<path d="M143.361 528.697C144.102 533.555 142.328 537.744 138.746 538.133C135.164 538.524 131.081 527.995 130.161 519.547C129.107 509.875 135.252 502.369 145.09 507.701C137.054 513.739 142.242 521.358 143.361 528.697Z" fill="#AE5C4A"/>
<path d="M139.303 515.49C137.179 515.539 135.007 515.541 132.887 515.838C132.669 513.597 132.718 511.602 133.274 510.301C140.614 501.525 165.533 497.765 174.134 500.643C180.55 502.79 184.132 514.049 184.132 514.049C181.328 512.828 175.798 512.126 170.089 512.413C168.991 511.172 167.756 507.111 167.756 507.111C167.756 507.111 167.455 510.854 168.444 512.522C165.728 512.926 158.347 514.311 155.01 514.911C153.875 513.584 152.753 510.069 152.753 510.069C152.753 510.069 152.616 513.613 153.293 515.279C152.535 515.481 150.411 515.706 149.472 515.83C145.659 514.466 145.161 510.194 142.003 510.301C139.727 510.808 139.289 512.819 139.303 515.49Z" fill="#AE5C4A"/>
<path d="M135.044 514.062C136.337 505.205 142.681 497.586 154.63 495.406C163.923 493.712 174.303 496.464 179.406 501.992C172.693 497.873 163.142 498.017 156.001 499.048C148.738 500.097 138.967 507.179 135.044 514.062Z" fill="#EE4479"/>
<path d="M137.837 508.201C139.34 513.513 129.947 521.399 120.974 514.989C127.118 505.734 132.232 506.009 137.837 508.201Z" fill="#EE4479"/>
<g opacity="0.279999">
<g opacity="0.279999">
<g opacity="0.279999">
<path opacity="0.279999" d="M136.834 508.459C136.466 507.261 131.721 508.077 129.364 511.316C133.291 513.609 137.937 512.059 136.834 508.459Z" fill="#6A0A1E"/>
</g>
</g>
</g>
<path d="M136.236 507.05C143.008 509.001 150.184 499.484 137.973 491.628C135.46 500.466 133.233 503.255 136.236 507.05Z" fill="#EE4479"/>
<g opacity="0.279999">
<g opacity="0.279999">
<g opacity="0.279999">
<path opacity="0.279999" d="M137.511 506.373C136.454 504.675 139.638 502.383 139.965 499.122C141.364 500.822 141.41 507.344 137.511 506.373Z" fill="#6A0A1E"/>
</g>
</g>
</g>
<path d="M139.758 508.947C139.04 510.094 137.462 510.444 136.234 509.726C135.006 509.012 134.591 507.5 135.309 506.352C136.027 505.203 137.603 504.854 138.833 505.57C140.061 506.286 140.474 507.798 139.758 508.947Z" fill="#EE4479"/>
<path d="M255.902 516.497C255.853 521.805 252.259 526.042 248.932 526.368C245.605 526.695 244.088 522.734 243.601 517.755C243.112 512.777 245.411 508.465 248.74 508.152C253.288 507.722 255.948 511.507 255.902 516.497Z" fill="#F5B18C"/>
<path d="M253.893 502.003C256.033 519.713 245.287 529.093 228.894 531.072C212.499 533.053 199.513 526.541 197.372 508.834C195.233 491.123 206.76 485.557 223.155 483.576C239.55 481.595 251.754 484.294 253.893 502.003Z" fill="#752A15"/>
<path d="M251.624 525.293C251.07 533.031 242.706 539.751 235.625 540.512C220.748 542.114 204.306 535.297 201.799 514.544C199.292 493.791 209.904 491.954 224.464 490.194C234.186 489.019 242.323 488.233 247.115 494.174C250.074 497.841 251.965 520.539 251.624 525.293Z" fill="#FBC1A0"/>
<path d="M244.358 523.604C244.566 524.652 246.192 525.212 247.986 524.855C249.781 524.499 251.067 523.361 250.859 522.316C250.651 521.267 249.028 520.708 247.233 521.065C245.437 521.42 244.153 522.557 244.358 523.604Z" fill="#F59597"/>
<path d="M243.133 475.798C243.891 478.172 242.941 480.359 241.047 482.352C242.106 479.197 241.708 475.351 237.917 471C235.92 473.041 233.798 475.195 231.673 477.338C231.736 476.059 231.55 474.7 231.024 473.263C227.871 478.58 223.965 478.868 211.531 483.38C203.021 486.466 201.955 492.447 203.429 495.585C209.198 493.53 218.19 495.619 224.629 494.839C232.7 493.865 238.679 491.711 241.601 489.051C245.148 485.824 247.549 480.016 243.133 475.798Z" fill="#752A15"/>
<path d="M238.134 512.945C236.98 515.727 237.59 518.509 239.096 519.373C241.362 520.678 246.225 520.416 247.664 517.821C249.057 515.308 247.604 511.329 244.517 509.986C241.813 508.811 239.251 510.252 238.134 512.945Z" fill="#FAFDFF"/>
<path d="M246.954 510.889C244.162 507.264 239.074 509.4 238.094 513.039C239.248 510.259 241.97 509.053 244.468 510.139C246.015 510.809 247.253 512.233 247.785 513.941C248.209 515.307 248.163 516.915 247.582 517.96C248.318 517.224 249.006 513.554 246.954 510.889Z" fill="#723D28"/>
<path d="M238.953 514.56C238.587 516.424 239.634 518.324 241.288 518.804C242.945 519.288 244.581 518.169 244.947 516.306C245.311 514.446 244.266 512.544 242.611 512.062C240.957 511.58 239.319 512.697 238.953 514.56Z" fill="#752A15"/>
<path d="M239.154 514.218C239.052 514.736 239.342 515.264 239.802 515.397C240.261 515.529 240.716 515.22 240.817 514.702C240.919 514.187 240.628 513.661 240.169 513.525C239.708 513.392 239.256 513.703 239.154 514.218Z" fill="white"/>
<path d="M225.884 514.701C227.986 517.015 228.15 519.862 226.758 521.143C224.663 523.075 219.248 524.287 216.89 522.237C214.605 520.253 215.004 516.007 217.992 513.792C220.606 511.855 223.848 512.462 225.884 514.701Z" fill="#FAFDFF"/>
<path d="M215.587 515.39C217.561 511.081 223.786 511.593 225.955 514.78C223.853 512.466 220.506 512.133 218.089 513.923C216.594 515.031 215.661 516.764 215.591 518.563C215.536 519.995 216.069 521.519 217.018 522.344C215.99 521.863 214.134 518.557 215.587 515.39Z" fill="#723D28"/>
<path d="M217.898 517.507C217.446 519.381 218.598 521.267 220.474 521.72C222.345 522.168 224.233 521.016 224.684 519.144C225.134 517.268 223.982 515.384 222.11 514.931C220.234 514.479 218.348 515.633 217.898 517.507Z" fill="#752A15"/>
<path d="M218.134 517.162C218.009 517.681 218.327 518.206 218.848 518.33C219.367 518.454 219.891 518.135 220.016 517.616C220.143 517.095 219.821 516.573 219.302 516.448C218.781 516.321 218.258 516.641 218.134 517.162Z" fill="white"/>
<path d="M245.802 502.476C245.555 502.546 245.286 502.532 245.036 502.414C243.101 501.487 240.057 501.967 237.953 503.537C237.482 503.891 236.805 503.79 236.451 503.315C236.096 502.84 236.196 502.166 236.671 501.813C239.408 499.77 243.319 499.214 245.965 500.475C246.498 500.732 246.723 501.375 246.47 501.909C246.333 502.196 246.083 502.393 245.802 502.476Z" fill="#752A15"/>
<path d="M213.418 507.105C213.124 507.121 212.823 507.017 212.598 506.79C212.183 506.371 212.183 505.688 212.603 505.271C214.683 503.206 218.555 502.444 221.818 503.466C222.385 503.642 222.7 504.246 222.524 504.81C222.346 505.377 221.739 505.69 221.178 505.516C218.671 504.726 215.64 505.282 214.116 506.795C213.922 506.991 213.673 507.093 213.418 507.105Z" fill="#752A15"/>
<path d="M235.388 522.067C235.27 522.083 235.156 522.011 235.123 521.893C234.878 521.061 234.141 520.593 233.242 520.702C232.338 520.809 231.718 521.453 231.699 522.301C231.695 522.437 231.583 522.544 231.449 522.542C231.314 522.539 231.205 522.426 231.208 522.291C231.233 521.205 232.044 520.348 233.182 520.211C234.317 520.076 235.284 520.695 235.594 521.754C235.633 521.884 235.559 522.023 235.427 522.06L235.388 522.067Z" fill="#C5745C"/>
<path d="M209.597 509.26C210.413 517.98 207.857 523.897 204.166 524.333C200.475 524.768 196.502 514.651 195.476 505.953C194.301 495.989 199.083 491.365 202.716 490.327C206.287 489.305 208.669 499.345 209.597 509.26Z" fill="#752A15"/>
<path d="M197.235 527.146C199.626 532.548 205.692 535.193 209.726 533.966C213.758 532.738 210.521 516.056 202.845 515.817C196.457 515.615 194.988 522.07 197.235 527.146Z" fill="#FBC1A0"/>
<path d="M201.777 526.164C202.486 528.495 205.484 530.075 207.395 529.09C208.139 528.706 205.47 520.609 204.216 520.812C202.096 521.153 201.068 523.834 201.777 526.164Z" fill="#E0956C"/>
<path d="M129.433 589.54C131.839 591.113 133.85 592.269 136.393 593.252C141.199 594.797 170.789 594.674 171.202 592.339C173.713 558.645 175.543 553.083 169.549 550.097C166.201 549.627 149.346 549.043 138.958 548.774C134.357 548.656 131.583 548.721 130.903 558.421C130.884 558.673 132.561 558.786 132.795 558.838C132.364 566.475 130.08 584.212 129.433 589.54Z" fill="#1470B3"/>
<path d="M133.346 555.505C133.466 554.605 134.126 550.441 136.926 550.546C139.952 550.657 139.794 554.804 139.766 556.231C139.62 563.355 137.954 578.823 136.168 592.764C133.969 591.789 131.779 590.559 129.639 589.018C131.108 576.152 132.474 562.076 133.346 555.505Z" fill="#3F1920"/>
<path d="M133.377 555.075C134.797 555.258 139.283 555.49 139.776 555.67C139.649 562.523 138.004 579.826 136.257 593.233C134.054 592.294 131.461 591.187 129.316 589.702C130.748 577.326 132.179 561.719 133.377 555.075Z" fill="#1E84C2"/>
<path d="M137.961 578.656C137.386 584.341 136.955 587.876 136.256 593.234C134.053 592.294 131.462 591.188 129.317 589.701C129.78 585.701 130.278 580.903 130.734 576.64C132.248 577.31 136.179 578.181 137.961 578.656Z" fill="#1470B3"/>
<path d="M134.021 569.801L135.997 570.026L136.18 568.428L134.204 568.203L134.021 569.801Z" fill="#D86227"/>
<path d="M132.663 571.337L136.982 571.828L137.029 571.416C137.096 570.842 136.683 570.323 136.109 570.258L133.868 570.003C133.292 569.938 132.775 570.35 132.708 570.925L132.663 571.337Z" fill="#D86227"/>
<path d="M131.918 574.174C131.971 573.706 131.748 573.283 131.394 573.025L131.54 571.728C131.603 571.174 132.107 570.773 132.664 570.836L137.066 571.337C137.622 571.401 138.023 571.904 137.96 572.46L137.812 573.755C137.407 573.927 137.096 574.288 137.043 574.756C136.99 575.226 137.214 575.646 137.568 575.905L136.695 583.566C136.632 584.124 136.13 584.523 135.571 584.46L131.171 583.96C130.615 583.895 130.214 583.392 130.277 582.836L131.15 575.175C131.552 575.002 131.866 574.642 131.918 574.174Z" fill="#FCB822"/>
<path d="M133.843 568.337L136.489 568.639C136.557 568.034 136.123 567.49 135.519 567.42L135.06 567.367C134.457 567.298 133.911 567.733 133.843 568.337Z" fill="#FCB822"/>
<path d="M132.425 570.285L137.418 570.852L137.606 569.18C137.61 569.157 137.594 569.14 137.573 569.136L132.659 568.577C132.636 568.573 132.617 568.591 132.615 568.612L132.425 570.285Z" fill="#FCB822"/>
<path d="M137.942 578.816C137.428 583.699 136.849 588.689 136.256 593.234C135.769 593.211 135.336 593.399 134.863 593.258C132.778 592.639 131.183 591.37 129.288 590.061C127.986 589.16 129.648 579.816 130.211 577.022C130.292 576.628 130.637 576.453 130.76 576.469C130.303 578.948 135.438 579.591 137.942 578.816Z" fill="#1E84C2"/>
<path d="M137.392 579.157C137.6 579.118 137.737 579.088 137.925 579.033L137.961 578.701C136.036 579.271 132.537 578.954 131.286 577.805C130.899 577.446 130.677 576.938 130.76 576.47C130.76 576.47 130.557 576.445 130.452 576.588C130.51 577.323 130.591 577.615 131.066 578.052C132.297 579.186 135.327 579.538 137.392 579.157Z" fill="#7EC8ED"/>
<path d="M188.761 587.038C185.191 582.112 180.431 571.722 178.013 567.437C175.165 568.599 169.546 572.63 172.816 577.398C175.895 581.885 179.015 585.682 183.974 591.108C184.694 591.894 189.372 587.881 188.761 587.038Z" fill="#FBC1A0"/>
<path d="M186.028 593.886C186.028 599.055 179.131 603.246 170.623 603.246C162.115 603.246 155.217 599.055 155.217 593.886C155.217 588.716 162.115 584.527 170.623 584.527C179.131 584.527 186.028 588.716 186.028 593.886Z" fill="#204A66"/>
<path d="M253.119 584.536C253.119 589.706 243.589 589.002 235.081 589.002C226.571 589.002 218.131 584.357 218.131 579.189C218.131 574.018 227.458 566.978 235.387 570.063C246.539 574.403 253.119 579.367 253.119 584.536Z" fill="#1B6168"/>
<path d="M83.4188 623.977C81.9938 613.405 84.3249 604.266 88.5982 603.58C88.8885 603.534 89.1841 603.518 89.4761 603.55L119.997 598.628L125.162 636.934L93.746 642L93.6721 641.93C89.4304 642.443 84.8315 634.448 83.4188 623.977Z" fill="#F58A79"/>
<path d="M117.227 598.561L122.727 638.408L109.694 640.291L104.196 600.442L117.227 598.561Z" fill="white"/>
<path d="M324.213 589.76L295.409 609.084L241.505 617.966L233.309 580.146L290.244 570.78L322.344 580.084C322.956 583.232 323.431 586.549 324.213 589.76Z" fill="#F8E097"/>
<path d="M318.667 593.482L316.639 578.429C316.639 578.429 329.505 580.184 330.089 584.042C330.68 587.957 318.667 593.482 318.667 593.482Z" fill="#030404"/>
<path d="M117.093 599.263L290.245 570.781L280.931 582.055L292.828 589.933L283.515 601.206L295.408 609.085L122.26 637.569L117.093 599.263Z" fill="#F4B41A"/>
<path d="M117.093 599.264L290.245 570.781L280.931 582.056L118.383 608.841L117.093 599.264Z" fill="#FDCF06"/>
<path d="M283.515 601.207L295.41 609.086L122.26 637.569L120.968 627.992L283.515 601.207Z" fill="#F2961F"/>
<path d="M182.342 572.333C179.823 573.459 175.796 575.423 171.823 575.813C172.186 572.083 173.607 555.349 173.641 554.868C175.69 555.908 179.515 565.107 182.342 572.333Z" fill="#EE2A5A"/>
<path d="M128.008 538.53C128.369 533.397 128.334 531.052 128.441 527.89C128.468 527.112 126.844 527.28 125.874 528.823C125.169 529.951 125.392 532.002 124.959 532.848C124.44 533.867 123.703 533.638 122.843 532.95C120.494 529.637 118.934 527.223 117.917 526.043C117.127 525.126 115.6 526.004 115.95 526.866C116.532 528.305 118.11 531.515 119.333 534.184C116.851 532.338 113.211 529.845 111.881 529.041C110.66 528.304 109.338 529.806 110.489 530.827C111.891 532.069 114.587 534.868 116.963 536.93C114.557 536.353 110.746 534.995 109.258 534.68C107.704 534.351 107.653 535.834 108.703 536.462C112.635 538.818 115.165 539.899 115.913 540.307C115.218 540.448 111.212 539.763 109.981 539.9C109.194 539.987 109.069 541.257 110.364 541.72C112.136 542.355 118.534 543.968 120.929 544.454C124.523 544.834 127.767 541.95 128.008 538.53Z" fill="#FBC1A0"/>
<path d="M121.139 544.095C121.695 543.274 125.344 539.313 125.727 538.643C137.202 546.17 139.751 547.845 151.515 554.814C149.932 557.051 147.2 560.513 145.597 562.732C135.069 555.275 128.301 549.641 121.139 544.095Z" fill="#FBC1A0"/>
<path d="M132.259 558.89C134.878 561.27 141.8 564.898 146.655 568.672C149.431 564.671 153.898 554.433 153.995 554.188C148.742 552.015 144.938 550.375 139.673 546.867C137.852 549.079 134.145 555.712 132.259 558.89Z" fill="#EE2A5A"/>
<path d="M138.124 582.939C149.803 587.04 159.176 588.439 165.258 587.927C171.557 587.397 171.442 584.783 175.782 585.062C175.964 583.859 173.064 584.082 173.696 583.484C175.061 582.182 173.59 582.497 173.566 581.457C173.341 572.751 174.055 560.174 173.911 555.028C173.311 554.162 154.25 551.116 143.949 554.336C141.907 560.213 139.611 573.96 138.124 582.939Z" fill="#EE2A5A"/>
<path d="M168.497 555.361C168.535 554.919 168.405 554.212 168.319 553.788C164.246 553.098 158.245 552.618 152.381 552.982C152.1 553.334 152.061 553.67 152.043 553.865C151.736 557.275 155.103 560.651 159.645 561.061C164.19 561.477 168.187 558.769 168.497 555.361Z" fill="#FBC1A0"/>
<path d="M166.497 545.26V555.267C166.512 557.427 163.814 559.199 160.427 559.224C157.039 559.247 154.246 557.514 154.231 555.351V545.26H166.497Z" fill="#FBC1A0"/>
<g opacity="0.190002">
<g opacity="0.190002">
<g opacity="0.190002">
<path opacity="0.190002" d="M177.121 546.147C177.216 545.435 177.155 544.733 177.04 544.039C169.727 542.912 158.691 541.807 150.76 541.761C150.672 542.065 150.515 542.341 150.475 542.662C149.751 548.181 155.131 553.439 162.491 554.399C169.848 555.362 176.4 551.669 177.121 546.147Z" fill="#781213"/>
</g>
</g>
</g>
<path d="M164.562 619.424C164.634 619.681 174.315 617.427 174.27 617.11C173.869 614.334 172.591 608.832 172.331 607.229L161.988 609.627C162.817 612.293 164.043 617.575 164.562 619.424Z" fill="#FBC1A0"/>
<path d="M162.935 619.85C162.949 620.014 174.414 620.262 174.448 620.066C174.722 618.363 174.808 614.244 174.933 613.257L162.606 613.651C162.759 615.506 162.834 618.675 162.935 619.85Z" fill="#FBF1AF"/>
<path d="M175.714 618.254C175.605 617.661 175.336 616.901 175.139 616.21C174.991 615.696 170.114 615.374 170.002 616.57C169.974 616.877 169.963 617.148 169.968 617.396C169.136 617.336 168.232 617.251 167.28 617.137C165.211 616.891 163.366 616.569 162.08 616.254C161.839 618.14 161.735 621.428 161.485 623.526C161.485 623.526 182.875 629.381 186.557 626.512C187.597 625.702 182.467 621.307 175.714 618.254Z" fill="#EE3A3A"/>
<path d="M161.612 622.208C161.573 622.676 161.531 623.125 161.485 623.526C161.485 623.526 182.875 629.381 186.557 626.512C186.705 626.399 186.725 626.211 186.64 625.97C180.539 626.777 166.938 623.563 161.612 622.208Z" fill="#992121"/>
<path d="M180.607 620.29C179.425 619.984 177.84 620.408 176.742 621.318C176.612 621.425 176.594 621.617 176.7 621.747C176.752 621.808 176.825 621.847 176.9 621.856C176.979 621.865 177.062 621.844 177.131 621.787C178.086 620.996 179.46 620.61 180.454 620.881C180.623 620.927 180.785 620.827 180.825 620.663C180.867 620.499 180.771 620.332 180.607 620.29ZM178.793 619.896C178.957 619.942 179.119 619.822 179.152 619.658C179.184 619.493 179.076 619.331 178.911 619.299C177.595 619.034 176.24 619.424 175.195 620.362C175.071 620.473 175.06 620.668 175.171 620.793C175.222 620.85 175.292 620.885 175.363 620.892C175.445 620.902 175.533 620.878 175.602 620.818C176.835 619.709 178.13 619.764 178.793 619.896ZM177.185 618.992C177.347 619.037 177.518 618.949 177.565 618.789C177.616 618.629 177.527 618.457 177.365 618.407C176.126 618.029 174.608 618.494 173.674 619.54C173.559 619.667 173.572 619.861 173.696 619.972C173.746 620.016 173.804 620.04 173.864 620.047C173.959 620.06 174.057 620.026 174.126 619.949C174.91 619.071 176.168 618.671 177.185 618.992Z" fill="#D3DAE7"/>
<g opacity="0.229996">
<g opacity="0.229996">
<g opacity="0.229996">
<path opacity="0.229996" d="M150.154 588.868C153.223 589.166 163.837 585.893 168.017 588.995C170.934 591.159 172.635 598.5 174.934 609.963C174.693 610.098 165.499 611.859 162.607 612.459C160.612 603.296 159.729 601.322 158.715 601.274C155.404 601.121 153.736 600.843 149.021 600.771C146.47 600.732 148.131 594.623 150.154 588.868Z" fill="#A21D21"/>
</g>
</g>
</g>
<path d="M139.715 583.033C142.497 583.723 146.218 584.903 147.873 585.166C158.456 586.835 163.072 587.149 167.268 590.226C170.194 592.374 171.638 599.094 174.21 610.103C173.867 610.143 164.212 612.061 161.687 612.462C159.474 603.656 159.458 601.766 158.459 601.694C155.201 601.459 153.308 601.754 148.669 601.555C146.16 601.45 142.886 601.46 140.475 599.217C136.82 595.819 137.849 588.899 139.715 583.033Z" fill="#204A66"/>
<path d="M172.298 527.432C171.927 529.234 172.925 531.086 174.527 531.57C176.128 532.051 177.726 530.981 178.095 529.177C178.467 527.376 177.467 525.523 175.866 525.041C174.265 524.559 172.668 525.63 172.298 527.432Z" fill="#451E15"/>
<path d="M172.496 527.102C172.392 527.604 172.67 528.117 173.116 528.251C173.559 528.385 174.002 528.088 174.104 527.588C174.208 527.086 173.93 526.573 173.487 526.439C173.043 526.307 172.6 526.603 172.496 527.102Z" fill="white"/>
<path d="M159.421 527.362C161.441 529.626 161.577 532.387 160.215 533.618C158.165 535.471 152.903 536.602 150.634 534.593C148.436 532.649 148.86 528.535 151.776 526.413C154.327 524.555 157.469 525.173 159.421 527.362Z" fill="#FAFDFF"/>
<path d="M149.429 527.941C151.382 523.781 157.415 524.33 159.491 527.439C157.471 525.178 154.228 524.824 151.869 526.542C150.411 527.603 149.489 529.276 149.406 531.018C149.341 532.408 149.846 533.891 150.759 534.699C149.765 534.222 147.993 531 149.429 527.941Z" fill="#853A24"/>
<path d="M151.645 530.109C151.192 531.921 152.295 533.76 154.107 534.214C155.922 534.669 157.761 533.566 158.213 531.754C158.667 529.938 157.566 528.099 155.752 527.647C153.94 527.193 152.101 528.295 151.645 530.109Z" fill="#451E15"/>
<path d="M151.878 529.774C151.753 530.277 152.059 530.788 152.562 530.913C153.065 531.041 153.574 530.735 153.7 530.232C153.825 529.728 153.521 529.218 153.016 529.092C152.513 528.967 152.004 529.271 151.878 529.774Z" fill="white"/>
<path d="M174.972 538.094C174.447 536.312 171.705 537.051 167.144 537.46C166.905 537.48 165.978 537.57 165.741 537.594C161.186 538.062 158.351 537.862 158.177 539.711C157.845 543.272 162.612 546.668 167.239 546.237L167.32 546.228C171.946 545.769 175.978 541.525 174.972 538.094Z" fill="#6F1811"/>
<path d="M167.35 546.298L167.269 546.307C165.769 546.446 164.171 546.17 162.646 545.514L162.553 545.475L162.621 545.401C163.721 544.208 165.283 543.457 167.021 543.29C168.758 543.123 170.434 543.561 171.743 544.523L171.824 544.581L171.74 544.637C170.366 545.574 168.849 546.149 167.35 546.298Z" fill="#DD6B5B"/>
<path d="M166.691 539.856C163.506 540.162 160.762 539.432 160.303 538.151L160.276 538.074L172.65 536.883L172.637 536.964C172.428 538.306 169.873 539.548 166.691 539.856Z" fill="white"/>
<path d="M168.914 535.021C168.801 535.035 168.691 534.963 168.657 534.849C168.43 534.04 167.718 533.58 166.845 533.677C165.967 533.776 165.36 534.395 165.337 535.215C165.332 535.349 165.221 535.451 165.089 535.447C164.957 535.442 164.854 535.333 164.859 535.201C164.892 534.147 165.686 533.325 166.792 533.202C167.892 533.079 168.826 533.689 169.118 534.719C169.155 534.845 169.081 534.979 168.953 535.014L168.914 535.021Z" fill="#C5745C"/>
<path d="M132.066 538.836C134.337 544.095 140.198 546.713 144.119 545.557C148.042 544.401 145.046 528.196 137.606 527.896C131.41 527.646 129.93 533.894 132.066 538.836Z" fill="#FBC1A0"/>
<path d="M136.94 538.597C137.609 540.863 140.503 542.42 142.364 541.483C143.089 541.117 140.57 533.241 139.352 533.426C137.292 533.739 136.273 536.329 136.94 538.597Z" fill="#E0956C"/>
<path d="M147.421 539.43C147.516 540.537 149.129 541.301 151.026 541.142C152.92 540.98 154.382 539.955 154.289 538.848C154.196 537.741 152.583 536.974 150.684 537.134C148.79 537.296 147.328 538.324 147.421 539.43Z" fill="#F59597"/>
<path d="M176.774 535.595C176.955 536.567 178.28 537.135 179.737 536.866C181.19 536.593 182.225 535.588 182.043 534.617C181.864 533.648 180.539 533.079 179.082 533.35C177.627 533.62 176.593 534.626 176.774 535.595Z" fill="#F59597"/>
<path d="M136.798 591.636C137.329 592.597 138.235 594.777 142.602 593.954C145.758 593.359 150.626 586.027 162.023 587.686C158.184 579.432 141.53 581.713 138.318 581.713C137.901 584.078 137.329 588.529 136.798 591.636Z" fill="#EE2A5A"/>
<path d="M141.333 578.122C146.458 577.658 148.608 572.049 150.144 563.849L148.636 563.564C146.75 573.625 144.027 577.354 139.133 576.446L138.728 577.929C139.395 578.015 140.746 578.173 141.333 578.122Z" fill="#24407B"/>
<path d="M147.053 564.613L150.626 565.299L151.034 565.06C151.034 565.06 153.149 553.103 152.016 552.267C151.156 551.633 148.466 551.288 148.17 551.53C149.124 552.788 147.053 564.613 147.053 564.613Z" fill="#24407B"/>
<path d="M147.419 564.366L151.034 565.061C151.034 565.061 153.1 553.186 152.194 552.194C151.914 551.888 148.517 551.031 148.578 551.501C149.465 552.731 147.419 564.366 147.419 564.366Z" fill="#1E84C2"/>
<path d="M175.162 579.94C175.224 580.637 175.287 581.766 174.897 581.622C169.897 579.287 170.045 572.399 170.002 565.887L171.536 565.868C171.568 570.928 171.755 574.839 172.545 576.792C173.174 578.351 174.601 579.771 175.162 579.94Z" fill="#24407B"/>
<path d="M168.821 566.579L172.459 566.66L172.82 566.355C172.82 566.355 172.933 554.614 171.699 553.937C170.955 553.529 168.981 553.303 168.147 553.395C168.084 553.456 168.005 553.622 167.947 553.715C168.872 554.611 168.821 566.579 168.821 566.579Z" fill="#24407B"/>
<path d="M169.142 566.273L172.821 566.356C172.821 566.356 172.868 554.838 171.901 553.906C171.559 553.577 168.006 552.94 168.148 553.396C169.225 554.457 169.142 566.273 169.142 566.273Z" fill="#1E84C2"/>
<path d="M195.338 574.231C197.799 575.719 199.849 576.803 202.425 577.697C207.284 579.071 236.849 577.903 237.182 575.554C238.499 541.791 240.132 536.171 234.036 533.398C230.676 533.048 213.813 533.189 203.42 533.155C196.981 533.136 196.017 537.121 195.678 546.841C195.669 547.09 197.351 547.143 197.585 547.189C197.425 554.837 195.799 568.884 195.338 574.231Z" fill="#EF3F23"/>
<g opacity="0.369995">
<g opacity="0.369995">
<g opacity="0.369995">
<path opacity="0.369995" d="M202.98 539.883C202.98 539.883 235.786 540.472 238.235 540.548C238.782 546.174 237.934 556.263 237.181 575.553C236.85 577.902 207.283 579.07 202.425 577.696C201.961 577.534 201.53 577.36 201.094 577.186L202.98 539.883Z" fill="#6F0E10"/>
</g>
</g>
</g>
<path d="M198.049 540.08C198.137 539.176 198.649 534.99 201.453 534.995C204.479 535.001 204.467 539.151 204.49 540.578C204.597 547.704 203.477 563.219 202.184 577.214C199.951 576.319 197.72 575.166 195.525 573.702C196.54 560.791 197.409 546.678 198.049 540.08Z" fill="#5A190D"/>
<path d="M198.065 539.649C199.49 539.781 203.981 539.854 204.479 540.018C204.597 546.87 203.561 564.22 202.287 577.684C200.056 576.821 197.424 575.806 195.229 574.397C196.223 561.978 197.102 546.331 198.065 539.649Z" fill="#F36C29"/>
<g opacity="0.369995">
<g opacity="0.369995">
<g opacity="0.369995">
<path opacity="0.369995" d="M203.478 563.053C203.103 568.755 202.795 572.304 202.287 577.683C200.054 576.821 197.424 575.806 195.229 574.396C195.549 570.383 195.878 565.572 196.182 561.293C197.722 561.911 201.68 562.645 203.478 563.053Z" fill="#6F0E10"/>
</g>
</g>
</g>
<path d="M203.465 563.215C203.123 568.111 202.719 573.119 202.288 577.685C201.8 577.676 201.375 577.878 200.898 577.757C198.794 577.212 197.152 575.999 195.213 574.757C193.878 573.902 195.212 564.504 195.676 561.695C195.741 561.295 196.081 561.112 196.204 561.123C195.836 563.616 200.989 564.077 203.465 563.215Z" fill="#F36C29"/>
<path d="M202.925 563.572C203.133 563.526 203.27 563.493 203.455 563.431L203.478 563.097C201.574 563.735 198.068 563.54 196.776 562.439C196.375 562.092 196.136 561.594 196.205 561.121C196.205 561.121 195.999 561.105 195.898 561.251C195.985 561.985 196.074 562.273 196.565 562.692C197.836 563.781 200.877 564.028 202.925 563.572Z" fill="#F6895A"/>
<path d="M269.736 534.192C268.543 535.737 266.525 535.997 264.687 535.337C262.85 534.679 262.907 533.275 263.515 531.419C264.02 529.877 267.88 529.679 269.801 530.025C271.2 530.277 271.182 532.321 269.736 534.192Z" fill="#E0956C"/>
<path d="M266.855 533.958C265.891 534.088 265.067 533.884 265.016 533.499C264.964 533.115 265.702 532.694 266.665 532.564C267.627 532.432 268.45 532.638 268.503 533.024C268.556 533.409 267.819 533.826 266.855 533.958Z" fill="#C27E5C"/>
<path d="M273.935 523.785C271.611 524.575 261.565 529.55 256.546 531.814C255.929 532.096 257.667 535.667 258.701 535.991C260.438 537.877 263.687 537.971 268.953 537.335C269.148 537.311 271.942 536.251 273.172 535.483C271.975 532.602 268.675 535.043 266.926 533.654C265.631 532.63 266.516 531.501 267.355 530.785C271.249 527.465 275.234 526.789 273.935 523.785Z" fill="#FBC1A0"/>
<path d="M260.939 537.107C261.647 536.733 258.385 530.914 257.651 531.245C246.703 536.185 232.651 541.562 229.675 542.469L233.679 550.24C239.935 547.272 251.587 542.052 260.939 537.107Z" fill="#FBC1A0"/>
<path d="M243.814 537.114C244.991 539.833 246.704 545.502 247.742 548.391C241.88 550.928 236.996 552.673 236.532 552.593C231.711 551.741 228.72 542.502 228.37 541.962C231.453 541.173 238.031 539.414 243.814 537.114Z" fill="#12BAB1"/>
<path d="M204.162 565.414C214.16 566.587 217.704 579.069 227.777 575.087C231.843 573.481 232.835 569.473 237.385 570.403C238.152 568.883 235.942 568.845 236.669 568.22C237.846 567.208 236.85 567.291 236.892 566.884C237.832 557.908 237.36 548.105 237.711 542.132C234.507 540.569 216.451 539.473 210.021 540.856C206.43 548.345 205.566 555.546 204.162 565.414Z" fill="#12BAB1"/>
<path d="M217.068 540.185C216.905 540.514 216.833 540.876 216.824 541.038C216.659 544.459 220.163 547.691 224.718 547.916C229.275 548.139 233.157 545.27 233.325 541.851C233.335 541.645 233.15 540.897 233.112 540.662C229 540.005 222.55 540.093 217.068 540.185Z" fill="#1487A4"/>
<path d="M232.077 532.58L231.361 542.602C231.207 544.757 228.342 546.309 224.964 546.068C221.585 545.825 218.97 543.883 219.125 541.726L219.841 531.704L232.077 532.58Z" fill="#FBC1A0"/>
<path d="M237.555 564.816C236.552 562.805 236.251 559.098 236.802 554.299L235.278 554.125C234.492 560.957 235.329 565.543 237.555 567.256V564.816Z" fill="#BC3A26"/>
<path d="M238.778 540.137C237.926 540.003 233.018 539.215 231.683 539.185C232.344 543.429 232.432 550.768 232.453 552.474C232.48 554.383 234.179 555.851 236.088 555.752C237.99 555.654 239.26 554.028 239.36 552.122C239.545 548.677 239.443 544.245 238.778 540.137Z" fill="#BC3A26"/>
<path d="M237.746 539.963C237.123 539.847 233.866 539.303 232.793 539.281C233.358 542.991 233.53 550.638 233.548 551.82C233.571 553.207 234.735 554.28 236.039 554.213C237.341 554.145 238.205 552.966 238.268 551.583C238.382 549.123 238.319 543.966 237.746 539.963Z" fill="#F47827"/>
<g opacity="0.190002">
<g opacity="0.190002">
<g opacity="0.190002">
<path opacity="0.190002" d="M236.223 536.642C236.343 536.102 236.357 535.565 236.332 535.032C231.367 533.858 223.832 532.544 218.355 532.171C218.271 532.398 218.143 532.604 218.088 532.845C217.157 537.024 220.465 541.262 225.474 542.311C230.479 543.358 235.294 540.822 236.223 536.642Z" fill="#781213"/>
</g>
</g>
</g>
<path d="M214.429 608.898C214.354 609.163 223.851 612.339 223.984 612.03C225.138 609.343 227.016 603.758 227.658 602.19L217.513 598.789C216.782 601.608 214.982 606.971 214.429 608.898Z" fill="#FBC1A0"/>
<path d="M213.725 610.359C213.688 610.526 225.044 614.296 225.134 614.112C225.931 612.5 227.284 608.418 227.711 607.471L215.301 604.077C214.884 605.974 213.985 609.155 213.725 610.359Z" fill="white"/>
<path d="M226.956 612.694C227.026 612.069 226.993 611.228 227.008 610.477C227.019 609.921 222.257 608.103 221.778 609.259C221.655 609.556 221.563 609.824 221.491 610.072C220.678 609.755 219.804 609.393 218.891 608.99C216.903 608.108 215.163 607.22 213.975 606.509C213.157 608.314 212.042 611.561 211.15 613.575C211.15 613.575 230.675 625.987 235.228 624.255C236.512 623.77 232.747 617.812 226.956 612.694Z" fill="#F04F23"/>
<path d="M211.682 612.302C211.499 612.758 211.32 613.192 211.149 613.576C211.149 613.576 230.676 625.986 235.229 624.256C235.408 624.187 235.487 624.008 235.477 623.741C229.147 622.672 216.576 615.288 211.682 612.302Z" fill="#B12D24"/>
<path d="M231.206 616.226C230.125 615.557 228.411 615.494 227.039 616.061C226.875 616.129 226.798 616.316 226.865 616.479C226.898 616.555 226.958 616.615 227.032 616.647C227.107 616.682 227.199 616.685 227.281 616.65C228.476 616.156 229.964 616.191 230.874 616.77C231.025 616.865 231.221 616.814 231.312 616.664C231.404 616.515 231.356 616.319 231.206 616.226ZM229.519 615.278C229.667 615.371 229.866 615.304 229.95 615.149C230.033 614.994 229.977 614.801 229.822 614.718C228.59 614.048 227.12 614.02 225.79 614.635C225.629 614.709 225.559 614.898 225.633 615.058C225.668 615.13 225.726 615.184 225.795 615.216C225.874 615.25 225.969 615.253 226.055 615.213C227.626 614.489 228.898 614.942 229.519 615.278ZM228.195 613.879C228.344 613.976 228.538 613.94 228.638 613.796C228.736 613.65 228.698 613.451 228.553 613.353C227.435 612.596 225.779 612.591 224.523 613.349C224.373 613.439 224.324 613.634 224.416 613.786C224.451 613.844 224.5 613.888 224.56 613.912C224.65 613.953 224.76 613.949 224.854 613.893C225.902 613.258 227.28 613.249 228.195 613.879Z" fill="#D3DAE7"/>
<g opacity="0.229996">
<g opacity="0.229996">
<g opacity="0.229996">
<path opacity="0.229996" d="M219.075 574.076C221.582 575.872 229.872 579.85 231.935 584.629C233.374 587.965 232.122 595.302 228.369 606.375C227.715 606.632 219.926 603.285 216.36 601.76C219.223 592.828 219.485 591.371 218.631 590.822C215.843 589.031 214.539 587.954 210.495 585.532C208.306 584.219 214.439 578.043 219.075 574.076Z" fill="#A21D21"/>
</g>
</g>
</g>
<path d="M208.428 566.512C211.227 568.41 215.725 571.697 217.112 572.646C226.002 578.739 229.478 580.78 231.566 585.544C233.023 588.87 231.093 595.086 227.807 605.905C226.929 605.766 218.136 602.766 215.845 601.674C218.34 592.945 219.007 591.648 218.199 591.059C216.202 589.6 213.241 588.155 211.646 587.179C209.503 585.868 206.165 583.924 204.995 581.387C202.905 576.854 205.256 571.711 208.428 566.512Z" fill="#1B6168"/>
<path d="M202.853 573.658C203.384 574.617 204.29 576.799 208.657 575.975C211.813 575.38 214.874 570.623 221.289 573.484C217.45 565.23 207.585 563.734 204.375 563.734C203.956 566.099 203.384 570.551 202.853 573.658Z" fill="#12BAB1"/>
<g opacity="0.339996">
<g opacity="0.339996">
<g opacity="0.339996">
<path opacity="0.339996" d="M226.949 550.666L228.522 553.853C228.663 554.136 228.932 554.333 229.245 554.377L232.762 554.887C233.548 555.003 233.863 555.971 233.293 556.527L230.749 559.006C230.522 559.228 230.42 559.546 230.473 559.858L231.075 563.359C231.208 564.144 230.383 564.742 229.681 564.371L226.536 562.719C226.254 562.571 225.922 562.571 225.642 562.719L222.496 564.371C221.791 564.742 220.969 564.144 221.103 563.359L221.705 559.858C221.757 559.546 221.654 559.228 221.427 559.006L218.884 556.527C218.313 555.971 218.629 555.003 219.416 554.887L222.933 554.377C223.246 554.333 223.515 554.136 223.656 553.853L225.227 550.666C225.58 549.952 226.597 549.952 226.949 550.666Z" fill="white"/>
</g>
</g>
</g>
<path d="M206.623 567.072C205.627 566.942 204.304 566.977 203.649 566.818L204.01 565.328C205.922 565.789 209.932 566.401 212.451 564.352C214.693 562.529 215.736 558.72 215.553 553.033L217.087 552.984C217.288 559.177 216.053 563.402 213.419 565.545C211.316 567.255 208.713 567.345 206.623 567.072Z" fill="#BC3A26"/>
<path d="M217.873 539.826C217.06 539.889 215.897 540.027 214.857 540.095C213.513 540.187 212.186 540.259 210.855 540.35C211.891 544.517 212.512 551.046 212.688 552.744C212.883 554.643 214.706 555.954 216.599 555.686C218.485 555.417 219.604 553.684 219.535 551.778C219.412 548.331 218.9 543.859 217.873 539.826Z" fill="#BC3A26"/>
<path d="M216.86 539.863C216.104 539.944 213.125 540.194 212.054 540.266C212.946 543.914 213.595 550.822 213.72 551.995C213.866 553.376 215.12 554.339 216.413 554.154C217.703 553.973 218.458 552.722 218.398 551.337C218.292 548.877 217.789 543.799 216.86 539.863Z" fill="#F47827"/>
<g opacity="0.330002">
<g opacity="0.330002">
<g opacity="0.330002">
<path opacity="0.330002" d="M240.779 584.279C241.14 583.51 240.28 581.863 240.021 581.039C239.831 580.429 241.48 581.729 241.928 580.828C242.111 580.462 240.471 577.318 239.432 576.627C238.128 575.759 237.148 575.224 237.331 575.018C237.507 574.821 240.322 575.398 240.245 573.95C240.213 573.359 238.14 572.191 237.15 571.679C236.156 571.163 232.929 570.658 231.381 570.259C231.381 570.259 226.205 574.835 225.887 575.017C227.972 579.704 230.621 583.619 232.06 585.268C232.746 586.052 235.888 586.496 236.1 586.299C236.673 585.772 236.309 585.29 236.448 585.259C236.654 585.206 238.014 586.056 238.366 585.813C239.331 585.148 238.776 584.127 238.869 584.015C238.997 583.855 240.48 584.914 240.779 584.279Z" fill="#A21D21"/>
</g>
</g>
</g>
<path d="M231.947 572.297C227.8 567.846 221.797 558.116 218.875 554.162C216.19 555.665 211.108 560.354 214.939 564.687C218.544 568.761 222.107 572.146 227.696 576.921C228.507 577.614 232.654 573.057 231.947 572.297Z" fill="#FBC1A0"/>
<path d="M203.741 550.79C203.338 553.442 204.781 556.57 209.718 564.776C213.75 562.969 221.975 556.324 222.105 555.998C218.622 551.063 211.905 540.645 211.889 540.348C210.638 540.325 209.38 540.576 208.474 540.784C205.78 542.837 204.327 546.928 203.741 550.79Z" fill="#12BAB1"/>
<path d="M232.481 584.698C231.042 583.049 229.589 581.026 227.221 577.104C225.504 574.264 227.161 572.218 228.776 571.528C229.703 571.132 235.56 570.949 237.062 571.727C238.051 572.239 240.016 573.362 240.041 573.62C240.161 574.878 238.414 574.898 236.732 574.111C236.216 573.926 235.711 573.849 234.869 574.106C234.62 574.451 237.981 575.851 239.283 576.717C240.324 577.408 242.112 580.341 241.929 580.707C241.478 581.608 239.371 579.617 238.445 578.885C238.123 578.631 236.96 578.154 236.193 577.959C236.714 578.751 237.96 579.947 238.35 580.452C239.107 581.425 241.04 583.327 240.665 584.089C240.373 584.684 238.869 583.746 237.263 582.317C236.874 581.971 235.391 580.729 234.401 579.946C234.36 579.979 236.109 582.342 236.426 582.611C237.372 583.412 238.758 584.378 238.412 585.572C238.315 585.898 235.741 584.675 234.837 583.769C234.434 583.362 233.509 582.506 232.516 581.364C232.926 582.154 233.86 583.507 234.059 583.79C235.671 584.781 236.281 585.233 236.037 586.13C235.963 586.41 233.169 585.483 232.481 584.698Z" fill="#FBC1A0"/>
<path d="M212.455 527.315C212.522 528.518 214.348 529.393 216.533 529.27C218.718 529.147 220.435 528.075 220.369 526.873C220.302 525.67 218.474 524.795 216.291 524.918C214.104 525.04 212.388 526.113 212.455 527.315Z" fill="#F59597"/>
<path d="M241.623 525.523C241.049 523.642 238.152 524.457 233.328 524.939C233.078 524.965 232.096 525.069 231.843 525.099C227.029 525.646 224.024 525.465 223.863 527.423C223.549 531.199 228.634 534.739 233.528 534.229L233.614 534.22C238.507 533.684 242.728 529.146 241.623 525.523Z" fill="#6F1811"/>
<path d="M233.622 534.298L233.538 534.307C231.949 534.472 230.255 534.196 228.633 533.52L228.534 533.478L228.605 533.401C229.755 532.125 231.4 531.314 233.24 531.115C235.075 530.92 236.856 531.365 238.253 532.368L238.341 532.429L238.251 532.491C236.806 533.496 235.205 534.122 233.622 534.298Z" fill="#DD6B5B"/>
<path d="M232.851 527.485C229.483 527.846 226.57 527.101 226.07 525.754L226.04 525.671L239.124 524.27L239.114 524.358C238.906 525.78 236.216 527.124 232.851 527.485Z" fill="white"/>
<circle opacity="0.05" cx="28" cy="80" r="125" fill="url(#paint0_linear_1238_1232)"/>
</g>
</svg>
