<svg width="561" height="561" viewBox="0 0 561 561" fill="none" xmlns="http://www.w3.org/2000/svg">
<defs>
<radialGradient id="paint0_radial_1_14" cx="0" cy="0" r="1" gradientUnits="userSpaceOnUse" gradientTransform="translate(280.401 288.424) rotate(89) scale(248.328 257.038)">
<stop offset="0.505208" stop-color="#FFA10B"/>
<stop offset="1" stop-color="#FF9700" stop-opacity="0"/>
</radialGradient>
<radialGradient id="paint1_radial_1_14" cx="0" cy="0" r="1" gradientUnits="userSpaceOnUse" gradientTransform="translate(280.401 288.424) rotate(89) scale(248.328 257.038)">
<stop offset="0.505208" stop-color="#FFA10B"/>
<stop offset="1" stop-color="#FF9700" stop-opacity="0"/>
</radialGradient>
<radialGradient id="paint2_radial_1_14" cx="0" cy="0" r="1" gradientUnits="userSpaceOnUse" gradientTransform="translate(280.401 288.424) rotate(89) scale(248.328 257.038)">
<stop offset="0.505208" stop-color="#FFA10B"/>
<stop offset="1" stop-color="#FF9700" stop-opacity="0"/>
</radialGradient>
<radialGradient id="paint3_radial_1_14" cx="0" cy="0" r="1" gradientUnits="userSpaceOnUse" gradientTransform="translate(280.401 288.424) rotate(89) scale(248.328 257.038)">
<stop offset="0.505208" stop-color="#FFA10B"/>
<stop offset="1" stop-color="#FF9700" stop-opacity="0"/>
</radialGradient>
<radialGradient id="paint4_radial_1_14" cx="0" cy="0" r="1" gradientUnits="userSpaceOnUse" gradientTransform="translate(280.401 288.424) rotate(89) scale(248.328 257.038)">
<stop offset="0.505208" stop-color="#FFA10B"/>
<stop offset="1" stop-color="#FF9700" stop-opacity="0"/>
</radialGradient>
<radialGradient id="paint5_radial_1_14" cx="0" cy="0" r="1" gradientUnits="userSpaceOnUse" gradientTransform="translate(280.401 288.424) rotate(89) scale(248.328 257.038)">
<stop offset="0.505208" stop-color="#FFA10B"/>
<stop offset="1" stop-color="#FF9700" stop-opacity="0"/>
</radialGradient>
<radialGradient id="paint6_radial_1_14" cx="0" cy="0" r="1" gradientUnits="userSpaceOnUse" gradientTransform="translate(280.401 288.424) rotate(89) scale(248.328 257.038)">
<stop offset="0.505208" stop-color="#FFA10B"/>
<stop offset="1" stop-color="#FF9700" stop-opacity="0"/>
</radialGradient>
<radialGradient id="paint7_radial_1_14" cx="0" cy="0" r="1" gradientUnits="userSpaceOnUse" gradientTransform="translate(280.401 288.424) rotate(89) scale(248.328 257.038)">
<stop offset="0.505208" stop-color="#FFA10B"/>
<stop offset="1" stop-color="#FF9700" stop-opacity="0"/>
</radialGradient>
<radialGradient id="paint8_radial_1_14" cx="0" cy="0" r="1" gradientUnits="userSpaceOnUse" gradientTransform="translate(280.401 288.424) rotate(89) scale(248.328 257.038)">
<stop offset="0.505208" stop-color="#FFA10B"/>
<stop offset="1" stop-color="#FF9700" stop-opacity="0"/>
</radialGradient>
<radialGradient id="paint9_radial_1_14" cx="0" cy="0" r="1" gradientUnits="userSpaceOnUse" gradientTransform="translate(280.401 288.424) rotate(89) scale(248.328 257.038)">
<stop offset="0.505208" stop-color="#FFA10B"/>
<stop offset="1" stop-color="#FF9700" stop-opacity="0"/>
</radialGradient>
<radialGradient id="paint10_radial_1_14" cx="0" cy="0" r="1" gradientUnits="userSpaceOnUse" gradientTransform="translate(280.401 288.424) rotate(89) scale(248.328 257.038)">
<stop offset="0.505208" stop-color="#FFA10B"/>
<stop offset="1" stop-color="#FF9700" stop-opacity="0"/>
</radialGradient>
<radialGradient id="paint11_radial_1_14" cx="0" cy="0" r="1" gradientUnits="userSpaceOnUse" gradientTransform="translate(280.401 288.424) rotate(89) scale(248.328 257.038)">
<stop offset="0.505208" stop-color="#FFA10B"/>
<stop offset="1" stop-color="#FF9700" stop-opacity="0"/>
</radialGradient>
<radialGradient id="paint12_radial_1_14" cx="0" cy="0" r="1" gradientUnits="userSpaceOnUse" gradientTransform="translate(280.401 288.424) rotate(89) scale(248.328 257.038)">
<stop offset="0.505208" stop-color="#FFA10B"/>
<stop offset="1" stop-color="#FF9700" stop-opacity="0"/>
</radialGradient>
<radialGradient id="paint13_radial_1_14" cx="0" cy="0" r="1" gradientUnits="userSpaceOnUse" gradientTransform="translate(280.401 288.424) rotate(89) scale(248.328 257.038)">
<stop offset="0.505208" stop-color="#FFA10B"/>
<stop offset="1" stop-color="#FF9700" stop-opacity="0"/>
</radialGradient>
<radialGradient id="paint14_radial_1_14" cx="0" cy="0" r="1" gradientUnits="userSpaceOnUse" gradientTransform="translate(280.401 288.424) rotate(89) scale(248.328 257.038)">
<stop offset="0.505208" stop-color="#FFA10B"/>
<stop offset="1" stop-color="#FF9700" stop-opacity="0"/>
</radialGradient>
<radialGradient id="paint15_radial_1_14" cx="0" cy="0" r="1" gradientUnits="userSpaceOnUse" gradientTransform="translate(280.401 288.424) rotate(89) scale(248.328 257.038)">
<stop offset="0.505208" stop-color="#FFA10B"/>
<stop offset="1" stop-color="#FF9700" stop-opacity="0"/>
</radialGradient>
<radialGradient id="paint16_radial_1_14" cx="0" cy="0" r="1" gradientUnits="userSpaceOnUse" gradientTransform="translate(280.401 288.424) rotate(89) scale(248.328 257.038)">
<stop offset="0.505208" stop-color="#FFA10B"/>
<stop offset="1" stop-color="#FF9700" stop-opacity="0"/>
</radialGradient>
<radialGradient id="paint17_radial_1_14" cx="0" cy="0" r="1" gradientUnits="userSpaceOnUse" gradientTransform="translate(280.401 288.424) rotate(89) scale(248.328 257.038)">
<stop offset="0.505208" stop-color="#FFA10B"/>
<stop offset="1" stop-color="#FF9700" stop-opacity="0"/>
</radialGradient>
<radialGradient id="paint18_radial_1_14" cx="0" cy="0" r="1" gradientUnits="userSpaceOnUse" gradientTransform="translate(280.401 288.424) rotate(89) scale(248.328 257.038)">
<stop offset="0.505208" stop-color="#FFA10B"/>
<stop offset="1" stop-color="#FF9700" stop-opacity="0"/>
</radialGradient>
<radialGradient id="paint19_radial_1_14" cx="0" cy="0" r="1" gradientUnits="userSpaceOnUse" gradientTransform="translate(280.401 288.424) rotate(89) scale(248.328 257.038)">
<stop offset="0.505208" stop-color="#FFA10B"/>
<stop offset="1" stop-color="#FF9700" stop-opacity="0"/>
</radialGradient>
<radialGradient id="paint20_radial_1_14" cx="0" cy="0" r="1" gradientUnits="userSpaceOnUse" gradientTransform="translate(280.401 288.424) rotate(89) scale(248.328 257.038)">
<stop offset="0.505208" stop-color="#FFA10B"/>
<stop offset="1" stop-color="#FF9700" stop-opacity="0"/>
</radialGradient>
<radialGradient id="paint21_radial_1_14" cx="0" cy="0" r="1" gradientUnits="userSpaceOnUse" gradientTransform="translate(280.401 288.424) rotate(89) scale(248.328 257.038)">
<stop offset="0.505208" stop-color="#FFA10B"/>
<stop offset="1" stop-color="#FF9700" stop-opacity="0"/>
</radialGradient>
<radialGradient id="paint22_radial_1_14" cx="0" cy="0" r="1" gradientUnits="userSpaceOnUse" gradientTransform="translate(280.401 288.424) rotate(89) scale(248.328 257.038)">
<stop offset="0.505208" stop-color="#FFA10B"/>
<stop offset="1" stop-color="#FF9700" stop-opacity="0"/>
</radialGradient>
<radialGradient id="paint23_radial_1_14" cx="0" cy="0" r="1" gradientUnits="userSpaceOnUse" gradientTransform="translate(280.401 288.424) rotate(89) scale(248.328 257.038)">
<stop offset="0.505208" stop-color="#FFA10B"/>
<stop offset="1" stop-color="#FF9700" stop-opacity="0"/>
</radialGradient>
</defs>
<path fill-rule="evenodd" clip-rule="evenodd" d="M4.44483 264.257L3.6581 219.185C83.6116 272.241 178.982 282.149 284.173 285.32C180.605 297.555 86.6063 299.374 4.44483 264.257Z" fill="url(#paint0_radial_1_14)" fill-opacity="0.5"/>
<path fill-rule="evenodd" clip-rule="evenodd" d="M5.70065 336.203L5.00022 296.075C93.1081 323.229 185.025 308.688 284.173 285.32C186.243 324.341 94.9472 350.228 5.70065 336.203Z" fill="url(#paint1_radial_1_14)" fill-opacity="0.5"/>
<path fill-rule="evenodd" clip-rule="evenodd" d="M6.9423 407.337L6.23164 366.623C102.563 374.062 190.869 335.454 284.173 285.32C193.032 353.291 105.285 404.215 6.9423 407.337Z" fill="url(#paint2_radial_1_14)" fill-opacity="0.5"/>
<path fill-rule="evenodd" clip-rule="evenodd" d="M8.26964 483.38L7.49719 439.127C116.537 429.688 199.316 365.12 284.173 285.32C204.2 386.607 122.613 465.362 8.26964 483.38Z" fill="url(#paint3_radial_1_14)" fill-opacity="0.5"/>
<path fill-rule="evenodd" clip-rule="evenodd" d="M35.5616 560.063L9.61606 560.516L8.8758 518.107C140.983 492.035 213.94 398.755 284.173 285.32C228.057 415.654 162.871 520.076 35.5616 560.063Z" fill="url(#paint4_radial_1_14)" fill-opacity="0.5"/>
<path fill-rule="evenodd" clip-rule="evenodd" d="M182.249 557.503L117.384 558.635C209.959 496.544 250.15 398.257 284.173 285.32C268.488 392.908 243.743 487.192 182.249 557.503Z" fill="url(#paint5_radial_1_14)" fill-opacity="0.5"/>
<path fill-rule="evenodd" clip-rule="evenodd" d="M264.658 556.065L220.688 556.832C270.714 479.491 281.041 387.066 284.173 285.32C295.956 385.414 297.359 476.504 264.658 556.065Z" fill="url(#paint6_radial_1_14)" fill-opacity="0.5"/>
<path fill-rule="evenodd" clip-rule="evenodd" d="M335.331 554.831L295.942 555.518C320.692 470.384 306.734 381.187 284.173 285.32C321.896 380.015 347.208 468.545 335.331 554.831Z" fill="url(#paint7_radial_1_14)" fill-opacity="0.5"/>
<path fill-rule="evenodd" clip-rule="evenodd" d="M405.783 553.601L365.441 554.305C370.641 461.382 332.725 375.653 284.174 285.32C350.104 373.668 400.452 458.69 405.783 553.601Z" fill="url(#paint8_radial_1_14)" fill-opacity="0.5"/>
<path fill-rule="evenodd" clip-rule="evenodd" d="M482.042 552.27L437.551 553.047C425.786 447.967 361.784 367.774 284.173 285.32C382.503 362.853 461.455 442.093 482.042 552.27Z" fill="url(#paint9_radial_1_14)" fill-opacity="0.5"/>
<path fill-rule="evenodd" clip-rule="evenodd" d="M560.516 550.9L516.933 551.661C488.37 423.92 395.179 353.929 284.173 285.32C412.55 340.451 518.621 403.352 560.124 528.428L560.516 550.9Z" fill="url(#paint10_radial_1_14)" fill-opacity="0.5"/>
<path fill-rule="evenodd" clip-rule="evenodd" d="M557.601 383.897L558.73 448.54C495.438 357.08 396.466 319.026 284.173 285.32C390.874 300.751 486.123 323.704 557.601 383.897Z" fill="url(#paint11_radial_1_14)" fill-opacity="0.5"/>
<path fill-rule="evenodd" clip-rule="evenodd" d="M556.161 301.361L556.931 345.51C478.533 296.721 385.718 288.33 284.173 285.32C383.762 273.481 475.517 270.128 556.161 301.361Z" fill="url(#paint12_radial_1_14)" fill-opacity="0.5"/>
<path fill-rule="evenodd" clip-rule="evenodd" d="M554.918 230.196L555.612 269.915C469.469 246.624 380.144 262.613 284.173 285.32C379.355 247.276 468.31 220.275 554.918 230.196Z" fill="url(#paint13_radial_1_14)" fill-opacity="0.5"/>
<path fill-rule="evenodd" clip-rule="evenodd" d="M553.673 158.839L554.387 199.753C460.4 196.247 374.889 236.441 284.173 285.32C373.299 218.669 458.589 166.22 553.673 158.839Z" fill="url(#paint14_radial_1_14)" fill-opacity="0.5"/>
<path fill-rule="evenodd" clip-rule="evenodd" d="M552.324 81.5689L553.113 126.751C446.669 140.443 367.212 207.014 284.173 285.32C363.058 185.099 441.733 103.993 552.324 81.5689Z" fill="url(#paint15_radial_1_14)" fill-opacity="0.5"/>
<path fill-rule="evenodd" clip-rule="evenodd" d="M535.909 0.261673L550.9 -2.35226e-06L551.709 46.3132C421.903 77.211 353.402 173.136 284.173 285.32C341.546 151.503 404.963 41.7186 535.909 0.261673Z" fill="url(#paint16_radial_1_14)" fill-opacity="0.5"/>
<path fill-rule="evenodd" clip-rule="evenodd" d="M386.135 2.87598L452.861 1.71128C356.497 67.038 318.884 169.481 284.173 285.32C300.199 174.214 323.433 76.0071 386.135 2.87598Z" fill="url(#paint17_radial_1_14)" fill-opacity="0.5"/>
<path fill-rule="evenodd" clip-rule="evenodd" d="M301.629 4.35105L346.925 3.5604C295.146 84.6213 287.252 180.344 284.173 285.32C271.911 182.295 268.04 87.6175 301.629 4.35105Z" fill="url(#paint18_radial_1_14)" fill-opacity="0.5"/>
<path fill-rule="evenodd" clip-rule="evenodd" d="M229.171 5.6158L269.655 4.90916C243.992 94.0695 260.685 186.061 284.173 285.32C244.915 187.104 216.718 95.8623 229.171 5.6158Z" fill="url(#paint19_radial_1_14)" fill-opacity="0.5"/>
<path fill-rule="evenodd" clip-rule="evenodd" d="M157.21 6.87189L198.443 6.15217C192.72 103.608 233.704 191.633 284.173 285.32C215.65 193.653 162.072 106.397 157.21 6.87189Z" fill="url(#paint20_radial_1_14)" fill-opacity="0.5"/>
<path fill-rule="evenodd" clip-rule="evenodd" d="M80.2232 8.2157L125.063 7.43302C136.454 117.926 203.657 199.894 284.173 285.32C181.864 204.73 100.183 124.304 80.2232 8.2157Z" fill="url(#paint21_radial_1_14)" fill-opacity="0.5"/>
<path fill-rule="evenodd" clip-rule="evenodd" d="M0.307185 27.2115L5.51675e-05 9.616L45.0402 8.82982C73.4656 143.121 169.539 214.511 284.173 285.32C149.502 227.494 40.5665 162.499 0.307185 27.2115Z" fill="url(#paint22_radial_1_14)" fill-opacity="0.5"/>
<path fill-rule="evenodd" clip-rule="evenodd" d="M2.97196 179.876L1.80354 112.938C65.8637 210.481 167.641 250.324 284.173 285.32C172.975 269.197 75.4705 244.674 2.97196 179.876Z" fill="url(#paint23_radial_1_14)" fill-opacity="0.5"/>

</svg>
