<svg width="324" height="374" viewBox="0 0 324 374" fill="none" xmlns="http://www.w3.org/2000/svg">
<path d="M30.6251 103.958L30.8575 111.86L37.5109 116.128L30.712 119.975L30.6031 112.003L23.8262 107.805L30.6251 103.958Z" fill="#FFAA00"/>
<path d="M18.7189 109.963L19.6395 117.815L26.6408 121.485L20.2026 125.911L19.399 117.979L12.2812 114.389L18.7189 109.963Z" fill="#1A98C4"/>
<path d="M6.59127 118.931L9.8993 126.111L17.6926 127.432L12.9435 133.635L9.72216 126.344L1.8418 125.134L6.59127 118.931Z" fill="#66CC54"/>
<path d="M42.8863 98.1982L44.518 105.932L51.8239 108.95L45.8165 113.944L44.2937 106.119L36.8789 103.192L42.8863 98.1982Z" fill="#F72828"/>
<path d="M137.707 56.0922C139.021 54.3272 145.07 61.2984 147.916 67.0426L143.063 70.0711C141.618 63.1186 139.547 59.0776 137.707 56.0922Z" fill="#FFAA00"/>
<path d="M137.398 55.6848C139.272 55.0477 140.213 65.6179 139.635 70.0473L134.799 69.1924C136.079 63.215 137.023 60.1508 137.398 55.6848Z" fill="#FFAA00"/>
<path d="M68.7061 10.9646C70.1354 9.6802 64.9869 3.16503 60.6509 0L58.084 4.88317C63.421 6.65112 66.4691 8.94855 68.7061 10.9646Z" fill="#FFAA00"/>
<path d="M69.3583 10.7775C69.7151 8.80495 60.6499 9.36962 56.9453 10.5821L58.1471 15.3139C63.095 13.1761 65.6042 11.7915 69.3583 10.7775Z" fill="#FFAA00"/>
<path d="M64.0879 90.835C64.0879 90.835 68.9163 21.1661 67.9639 9.70698C90.2937 11.1903 119.257 10.6376 134.176 7.65723C134.179 17.4461 137.424 47.0194 139.958 56.3504C125.755 68.5018 84.6105 85.9692 64.0879 90.835Z" fill="#F95006"/>
<path d="M73.8945 88.0656C73.9045 88.0623 73.9144 88.059 73.9243 88.0557C73.9144 88.059 73.9045 88.0623 73.8945 88.0656Z" fill="#F24605"/>
<path d="M73.9414 88.0496C73.958 88.0454 73.9745 88.0396 73.9911 88.0347C73.9737 88.0396 73.9596 88.0446 73.9414 88.0496Z" fill="#F24605"/>
<path d="M139.505 54.5074C137.126 43.9405 134.347 18.439 134.182 8.51953C134.347 18.439 137.126 43.9405 139.505 54.5074Z" fill="#F7E0E0"/>
<path d="M73.9961 88.0348C79.8963 86.1561 86.5416 83.7378 93.3364 80.9978C97.2352 79.4279 101.183 77.7539 105.066 76.0101C107.715 74.8262 110.337 73.6138 112.894 72.3852C110.159 64.2853 105.631 55.8831 102.431 52.5019C108.346 45.768 113.909 38.9667 118.812 32.3627C129.606 40.5325 135.896 49.1606 139.558 56.5486C139.575 56.5811 139.594 56.6112 139.618 56.638C139.332 56.8777 139.036 57.1183 138.731 57.3612C138.2 57.7838 137.638 58.2112 137.049 58.6435C123.254 68.7813 94.2433 81.5902 73.9961 88.0348ZM139.507 54.5074C135.696 47.4021 129.477 39.3218 119.339 31.6509C124.033 25.281 128.1 19.1062 131.261 13.3746C132.239 11.7806 133.211 10.1651 134.183 8.51953C134.348 18.439 137.127 43.9405 139.507 54.5074Z" fill="#F24605"/>
<path d="M64.0879 90.8352C64.0879 90.8352 65.7699 66.5632 66.9531 44.3145C77.2688 42.8258 97.4965 47.6819 102.098 52.1641C105.309 55.2926 110.064 64.0003 112.893 72.3854C96.0298 80.4877 76.375 87.9221 64.0879 90.8352Z" fill="#FFAA00"/>
<path d="M64.0879 90.8349C64.0879 90.8349 65.362 72.4461 66.472 53.0106C75.2048 51.4269 92.0838 54.8698 96.1183 59.0611C98.925 61.9742 102.827 69.0316 105.068 76.0182C90.2401 82.6408 74.5085 88.3647 64.0879 90.8349Z" fill="#F95006"/>
<path d="M64.0879 90.835C64.0879 90.835 64.8436 79.9154 65.6984 66.0234C72.0723 64.1642 84.3472 65.0629 87.5553 67.7705C89.3219 69.2616 93.0484 75.7273 93.3377 81.0018C82.3597 85.4199 71.7766 89.0132 64.0879 90.835Z" fill="#FFAA00"/>
<path d="M140.152 56.7452C140.033 56.6509 139.916 56.5632 139.802 56.4811C139.853 56.438 139.905 56.3933 139.956 56.3503C139.929 56.2495 139.901 56.1471 139.874 56.0423C139.752 55.5743 139.628 55.0615 139.504 54.5073C139.802 55.0615 140.083 55.6108 140.353 56.1528C140.46 56.3714 140.371 56.6371 140.152 56.7452Z" fill="white"/>
<path d="M139.955 56.7938C139.825 56.7938 139.7 56.7377 139.615 56.6378C139.677 56.5858 139.74 56.5338 139.802 56.481C139.916 56.563 140.033 56.6508 140.15 56.7475C140.089 56.78 140.02 56.7938 139.955 56.7938Z" fill="#FFD580"/>
<path d="M118.81 32.3627C118.759 32.3245 118.707 32.2855 118.656 32.2465C118.83 32.0076 119.004 31.7687 119.177 31.5298C119.23 31.5696 119.284 31.6102 119.337 31.6509C119.163 31.8873 118.986 32.1254 118.81 32.3627Z" fill="#FCA883"/>
<path d="M139.874 56.0423C139.752 55.5743 139.628 55.0615 139.504 54.5073C139.628 55.0615 139.752 55.5743 139.874 56.0423Z" fill="#FBF0F0"/>
<path d="M139.617 56.638C139.593 56.6112 139.574 56.5811 139.557 56.5486C135.895 49.1605 129.605 40.5325 118.811 32.3627C118.987 32.1254 119.164 31.8873 119.338 31.6509C129.476 39.3217 135.695 47.4021 139.505 54.5074C139.63 55.0615 139.753 55.5743 139.876 56.0423C139.903 56.1472 139.93 56.2495 139.957 56.3503C139.846 56.4454 139.732 56.5421 139.617 56.638Z" fill="#F9A382"/>
<path d="M70.4608 9.86306C69.9278 9.83194 69.3955 9.79944 68.8698 9.76612C68.843 9.66333 68.8105 9.55623 68.7715 9.44482C69.3379 9.58256 69.9026 9.7224 70.4608 9.86306Z" fill="white"/>
<path d="M68.8679 9.76617C68.5648 9.74683 68.2626 9.72733 67.9627 9.71555C67.8238 9.68548 67.6767 9.65859 67.5215 9.63453C67.5239 9.62397 67.5255 9.61324 67.528 9.60252C67.584 9.3971 67.7783 9.26416 67.9725 9.26416C68.0033 9.26416 68.035 9.26765 68.0651 9.27488C68.3016 9.33144 68.5356 9.38775 68.7696 9.44488C68.8086 9.55628 68.8411 9.66338 68.8679 9.76617Z" fill="#FFD580"/>
<path d="M67.9969 10.1707C67.9523 10.1599 67.9035 10.1483 67.8588 10.1377C67.6313 10.0839 67.4867 9.86196 67.5232 9.63428C67.6784 9.65833 67.8255 9.68523 67.9644 9.71529C67.9758 9.85831 67.9872 10.0099 67.9969 10.1707Z" fill="#FFD580"/>
<path d="M117.943 31.7152C106.692 23.4105 90.7079 15.6292 67.997 10.1707C67.9873 10.0099 67.9759 9.85834 67.9629 9.70703C68.2644 9.7271 68.5666 9.7466 68.8697 9.76594C69.3955 9.79926 69.9277 9.83176 70.4608 9.86288C92.0966 15.3155 107.5 22.9067 118.466 30.9985C118.293 31.2374 118.118 31.4771 117.943 31.7152Z" fill="#FCA883"/>
<path d="M63.928 90.6035C63.8858 90.4508 63.928 90.2809 64.0515 90.1639C64.08 90.1379 64.1092 90.1095 64.1377 90.0835C64.1328 90.1509 64.1287 90.2135 64.1247 90.272C64.0596 90.3825 63.9946 90.4938 63.928 90.6035Z" fill="white"/>
<path d="M64.3552 90.9318C64.2381 90.9318 64.1211 90.8838 64.0342 90.7928C63.9822 90.7368 63.9464 90.6718 63.9277 90.6035C63.9944 90.4938 64.0594 90.3825 64.1244 90.272C64.1049 90.5523 64.0927 90.7327 64.087 90.8075L64.0862 90.8245L64.0854 90.8351C64.0984 90.8318 64.1114 90.8286 64.1228 90.8253C64.1284 90.8245 64.1341 90.8237 64.139 90.8221C64.1455 90.8205 64.1512 90.8188 64.1569 90.818C64.3755 90.766 64.5965 90.7132 64.82 90.658C64.7663 90.7075 64.7111 90.7603 64.6583 90.8107C64.5762 90.8895 64.4632 90.9318 64.3552 90.9318Z" fill="#F1D3BE"/>
<path d="M102.387 52.4562C102.289 52.3538 102.192 52.2563 102.097 52.1636C101.988 52.0572 101.869 51.9499 101.742 51.8427C107.767 44.9885 113.054 38.4146 117.943 31.7148C118.184 31.892 118.42 32.0683 118.657 32.2463C113.746 38.9737 108.438 45.5735 102.387 52.4562Z" fill="#FCA883"/>
<path d="M64.0879 90.8351C64.0995 90.8318 64.1111 90.8302 64.126 90.8252C64.1144 90.8285 64.1011 90.8318 64.0879 90.8351Z" fill="#F9A382"/>
<path d="M64.144 90.8213L64.1594 90.8179C64.1535 90.8187 64.1475 90.8204 64.1406 90.8222L64.144 90.8213Z" fill="#F9A382"/>
<path d="M96.2751 59.2284C96.2223 59.1715 96.1694 59.1146 96.1158 59.061C95.972 58.9098 95.8119 58.7603 95.6348 58.6132C97.754 56.3185 99.7871 54.0652 101.741 51.8428C101.867 51.95 101.986 52.0573 102.096 52.1637C102.191 52.2564 102.287 52.3539 102.385 52.4563C100.431 54.6795 98.3967 56.9328 96.2751 59.2284Z" fill="#FFD580"/>
<path d="M64.0879 90.8349C64.0993 90.8316 64.1115 90.83 64.1236 90.8267H64.1212C64.1106 90.83 64.0993 90.8316 64.0879 90.8349ZM64.1448 90.8211C64.1496 90.8202 64.1529 90.8186 64.157 90.8178L64.1448 90.8211ZM87.8771 68.0743C87.7634 67.9572 87.6561 67.8565 87.5553 67.7703C87.4456 67.6785 87.3254 67.5875 87.1954 67.4998C90.1654 64.4509 92.972 61.4972 95.6373 58.6133C95.8144 58.7604 95.9745 58.9099 96.1184 59.061C96.172 59.1146 96.2248 59.1715 96.2776 59.2284C93.6245 62.1009 90.8317 65.04 87.8771 68.0743Z" fill="#FCA883"/>
<path d="M64.0879 90.8351L64.0895 90.8018C64.0952 90.7327 64.1074 90.5523 64.1269 90.272C64.131 90.2135 64.135 90.1509 64.1399 90.0835C72.8524 81.8471 80.4468 74.4273 87.1953 67.5C87.3254 67.5878 87.4456 67.6788 87.5553 67.7706C87.6561 67.8567 87.7633 67.9575 87.8771 68.0745C81.1262 75.0043 73.5334 82.4232 64.8225 90.658C64.599 90.7132 64.378 90.766 64.1594 90.8181H64.157C64.1529 90.8189 64.1496 90.8205 64.1415 90.8221C64.1366 90.8237 64.131 90.8246 64.1253 90.8254L64.1236 90.827C64.1115 90.8302 64.0993 90.8319 64.0879 90.8351Z" fill="#FFD580"/>
<path d="M1.30701 140.908C1.25061 140.908 1.1943 140.898 1.14238 140.876C0.912822 140.783 0.804423 140.525 0.895432 140.297C5.79012 128.229 16.2343 118.881 31.1094 113.262C51.8807 105.419 59.9074 99.8305 64.1337 90.2574C64.2336 90.0315 64.5067 89.9324 64.7188 90.0315C64.9438 90.1291 65.0495 90.3915 64.9495 90.6182C60.6046 100.446 52.4585 106.152 31.4215 114.094C16.7893 119.623 6.51429 128.799 1.71907 140.63C1.64975 140.805 1.48066 140.908 1.30701 140.908Z" fill="#E2A67D"/>
<path d="M134.182 8.51979C134.178 8.21758 134.175 7.92992 134.175 7.65746C133.984 7.69549 133.791 7.73336 133.596 7.77058C133.662 7.65876 133.729 7.54443 133.795 7.43229C133.879 7.29188 134.032 7.21533 134.185 7.21533C134.26 7.21533 134.335 7.23426 134.403 7.27384C134.614 7.40003 134.685 7.67079 134.558 7.88353C134.433 8.09594 134.308 8.30819 134.182 8.51979Z" fill="white"/>
<path d="M119.177 31.5298C118.94 31.3519 118.705 31.1756 118.465 30.9984C123.824 23.6047 128.714 16.0444 133.594 7.77034C133.789 7.73312 133.983 7.69526 134.174 7.65723C133.315 9.50546 132.341 11.4133 131.259 13.3746C127.374 19.7099 123.421 25.6743 119.177 31.5298Z" fill="#FCA883"/>
<path d="M134.181 8.51955C134.176 8.21734 134.174 7.92969 134.174 7.65723C134.174 7.92969 134.176 8.21734 134.181 8.51955Z" fill="#FBF0F0"/>
<path d="M131.258 13.3746C132.339 11.4132 133.314 9.50546 134.173 7.65723C134.173 7.92969 134.175 8.21734 134.18 8.51954C133.207 10.1651 132.235 11.7806 131.258 13.3746Z" fill="#F9A382"/>
<path d="M118.657 32.2462C118.42 32.0682 118.184 31.8919 117.943 31.7148C118.118 31.4767 118.293 31.2369 118.466 30.998C118.706 31.1752 118.941 31.3515 119.178 31.5295C119.005 31.7684 118.831 32.0073 118.657 32.2462Z" fill="#FED4C1"/>
<path d="M87.1256 68.5439C86.9574 68.5439 86.8103 68.4123 86.7965 68.2408C86.7786 68.0564 86.9135 67.8938 87.0955 67.8792C92.1027 67.4347 96.5427 67.0512 100.466 66.7091C108.565 66.0054 114.415 65.4984 118.608 65.0563C118.619 65.0563 118.628 65.0547 118.642 65.0547C118.811 65.0547 118.954 65.1823 118.972 65.3537C118.993 65.5357 118.859 65.6999 118.676 65.7194C114.48 66.1614 108.627 66.6701 100.523 67.3722C96.5995 67.7143 92.1636 68.0978 87.1573 68.5423C87.1427 68.5423 87.1346 68.5439 87.1256 68.5439Z" fill="#CCCCCC"/>
<path d="M118.643 65.7218H118.638C118.451 65.7177 118.304 65.5658 118.308 65.3813C118.352 62.9167 118.334 58.2362 118.313 52.8171C118.278 45.4372 118.243 37.0764 118.356 31.4793C118.36 31.2973 118.508 31.1519 118.69 31.1519H118.7C118.882 31.1559 119.029 31.3079 119.025 31.4923C118.911 37.0805 118.945 45.4396 118.977 52.8122C118.999 58.2362 119.019 62.9208 118.977 65.3943C118.973 65.5763 118.825 65.7218 118.643 65.7218Z" fill="#CCCCCC"/>
<path d="M176.653 159.37C176.57 159.37 176.489 159.341 176.423 159.279C147.916 132.375 135.534 104.385 121.197 71.9758C120.255 69.8436 119.302 67.6926 118.339 65.523C118.265 65.3556 118.339 65.159 118.508 65.085C118.677 65.007 118.869 65.0851 118.945 65.2541C119.913 67.4245 120.862 69.5746 121.808 71.7068C136.115 104.051 148.471 131.983 176.882 158.795C177.017 158.923 177.022 159.132 176.896 159.265C176.83 159.333 176.739 159.37 176.653 159.37Z" fill="#A6A6A6"/>
<path d="M307.626 259.463C304.032 261.932 298.06 266.843 294.2 269.256C291.689 266.914 286.239 261.835 285.803 261.375C283.357 253.101 284.309 238.015 284.322 237.584C289.935 238.909 294.291 240.086 295.71 241.239C298.417 244.976 303.352 252.548 307.626 259.463Z" fill="#02B2BF"/>
<path d="M318.189 366.58H226.309V373.624H318.189V366.58Z" fill="#E0E0E0"/>
<path d="M261.35 355.634C261.331 357.001 249.149 358.36 249.014 356.996C247.696 343.749 241.815 307.511 240.996 302.266L259.836 303.361C259.613 316.434 261.477 346.161 261.35 355.634Z" fill="#FFC19F"/>
<path d="M282.228 355.289C282.572 356.612 294.792 354.908 294.598 353.55C292.713 340.372 287.56 304.96 287.103 299.671L269.428 304.436C272.769 317.077 279.838 346.122 282.228 355.289Z" fill="#FFC19F"/>
<path d="M285.838 278.02C287.792 289.917 291.354 314.672 292.637 321.207C288.451 323.028 274.572 324.04 270.581 323.994C268.745 317.213 266.823 307.718 265.662 304.733C265.482 304.271 265.09 303.111 264.024 303.009C263.065 302.916 262.601 303.852 262.582 304.462C262.393 310.821 261.945 319.165 262.014 324.215C256.864 324.734 244.412 324.501 240.024 323.597C239.661 317.903 238.848 295.57 238.598 280.166L285.838 278.02Z" fill="#664A61"/>
<path d="M288.371 294.27C288.363 294.214 288.355 294.158 288.356 294.101C288.361 294.158 288.366 294.214 288.371 294.27Z" fill="#A1A1A1"/>
<path d="M267.362 296.975C257.349 296.975 247.536 295.653 238.937 293.547L238.842 290.708C247.26 294.191 258.023 295.879 268.986 295.879C275.519 295.879 282.123 295.28 288.345 294.103C288.354 294.158 288.362 294.214 288.37 294.27C288.388 294.474 288.405 294.663 288.417 294.831C281.533 296.323 274.398 296.975 267.362 296.975Z" fill="#402F3D"/>
<path d="M203.646 216.083C204.06 214.945 208.708 210.696 209.782 209.958C219.678 218.37 228.099 222.923 240.279 228.414C238.382 232.652 236.836 236.875 234.449 240.613C221.273 233.388 216.401 228.976 203.646 216.083Z" fill="#FFC19F"/>
<path d="M232.235 223.626C230.251 227.384 226.565 236.109 225.059 240.1C234.23 245.619 243.321 249.355 245.851 250.758C253.693 250.514 256.53 233.965 257.113 233.244C252.136 231.437 242.141 228.408 232.235 223.626Z" fill="#02B2BF"/>
<path d="M289.935 293.788C271.874 297.533 250.188 296.318 236.34 289.587C236.34 289.587 243.734 244.41 246.539 234.033C254.76 233.264 259.293 233.144 267.308 234.232C275.395 235.33 283.714 237.188 288.781 238.92C289.314 252.445 288.44 274.3 289.935 293.788Z" fill="#02B2BF"/>
<path d="M255.213 236.427C255.23 235.762 256.034 233.57 256.238 232.952C264.082 234.132 273.067 234.927 279.664 236.231C279.701 236.521 279.804 236.797 279.796 237.096C279.666 242.244 273.998 246.275 267.136 246.102C260.272 245.928 255.083 241.576 255.213 236.427Z" fill="#1390A1"/>
<path d="M260.032 222.434L258.594 236.893C258.285 240.001 261.985 242.916 266.86 243.4C271.734 243.886 275.937 241.757 276.246 238.648L277.683 224.189L260.032 222.434Z" fill="#FFC19F"/>
<path d="M276.725 233.87L277.489 226.18L276.725 233.87Z" fill="#E7D0D0"/>
<path d="M266.021 237.922C263.274 237.922 260.747 237.248 258.67 236.128L259.627 226.512C263.756 226.259 268.32 226.103 272.596 226.103C274.286 226.103 275.932 226.127 277.486 226.181L276.721 233.871C274.472 236.058 271.117 237.6 267.235 237.877C266.827 237.906 266.421 237.922 266.021 237.922Z" fill="#E79D82"/>
<path d="M263.137 362.966C263.123 363.352 247.967 363.955 247.931 363.49C247.633 359.731 247.089 354.538 246.91 352.166L263.079 351.755C262.942 356.044 263.235 360.496 263.137 362.966Z" fill="#F9E9A7"/>
<path d="M244.453 358.591C244.676 357.746 245.144 356.672 245.506 355.692C245.775 354.964 252.872 355.022 252.906 356.765C252.916 357.212 252.9 357.605 252.867 357.963C254.08 357.964 255.397 357.94 256.788 357.877C259.81 357.743 262.174 357.474 264.073 357.155C264.219 359.911 264.361 364.686 264.498 367.75C264.498 367.75 232.889 373.94 227.862 369.389C226.445 368.107 234.347 362.292 244.453 358.591Z" fill="#0089A0"/>
<path d="M264.453 365.83C264.459 366.511 264.471 367.168 264.497 367.751C264.497 367.751 232.887 373.94 227.86 369.389C227.661 369.208 227.649 368.936 227.8 368.593C236.55 370.417 256.593 367.22 264.453 365.83Z" fill="#045360"/>
<path d="M237.148 361.016C238.893 360.7 241.146 361.485 242.638 362.918C242.815 363.087 242.82 363.368 242.651 363.544C242.569 363.63 242.461 363.675 242.351 363.68C242.234 363.685 242.115 363.644 242.024 363.557C240.725 362.309 238.778 361.602 237.307 361.889C237.059 361.938 236.835 361.772 236.792 361.532C236.749 361.291 236.908 361.06 237.148 361.016ZM239.819 360.642C239.579 360.688 239.355 360.5 239.325 360.256C239.295 360.014 239.468 359.793 239.711 359.762C241.647 359.518 243.567 360.23 244.981 361.701C245.15 361.877 245.144 362.157 244.969 362.328C244.887 362.404 244.785 362.446 244.681 362.45C244.558 362.456 244.434 362.41 244.341 362.315C242.674 360.579 240.794 360.521 239.819 360.642ZM242.244 359.501C242.004 359.551 241.767 359.407 241.713 359.169C241.658 358.93 241.808 358.692 242.046 358.637C243.881 358.223 246.031 359.056 247.273 360.675C247.423 360.869 247.386 361.148 247.192 361.298C247.117 361.354 247.031 361.384 246.943 361.387C246.803 361.394 246.662 361.334 246.571 361.214C245.533 359.861 243.752 359.149 242.244 359.501Z" fill="#D2DAE5"/>
<path d="M281.996 363.194C282.078 363.571 296.497 361.608 296.48 361.141C296.345 357.453 296.07 351.693 296.06 349.698L280.074 352.148C280.966 356.346 281.464 360.781 281.996 363.194Z" fill="#F9E9A7"/>
<path d="M299.686 358.591C299.464 357.746 298.994 356.672 298.632 355.692C298.365 354.964 291.267 355.022 291.232 356.765C291.224 357.212 291.239 357.605 291.273 357.963C290.059 357.964 288.742 357.94 287.351 357.877C284.328 357.743 281.97 357.474 280.072 357.155C279.926 359.911 279.778 364.686 279.641 367.75C279.641 367.75 311.25 373.94 316.278 369.389C317.693 368.107 309.793 362.292 299.686 358.591Z" fill="#0089A0"/>
<path d="M279.684 365.83C279.677 366.511 279.667 367.168 279.641 367.751C279.641 367.751 311.25 373.94 316.278 369.389C316.477 369.208 316.489 368.936 316.338 368.593C307.587 370.417 287.545 367.22 279.684 365.83Z" fill="#045360"/>
<path d="M307.349 361.532C307.305 361.772 307.083 361.938 306.834 361.889C305.363 361.602 303.416 362.309 302.116 363.557C302.025 363.644 301.906 363.685 301.789 363.68C301.681 363.675 301.572 363.63 301.49 363.544C301.321 363.368 301.326 363.087 301.503 362.918C302.994 361.485 305.248 360.7 306.992 361.016C307.233 361.06 307.392 361.291 307.349 361.532ZM299.799 362.315C299.708 362.41 299.582 362.456 299.459 362.45C299.357 362.446 299.253 362.404 299.172 362.328C298.996 362.157 298.991 361.877 299.16 361.701C300.574 360.23 302.494 359.518 304.43 359.762C304.672 359.793 304.846 360.014 304.815 360.256C304.785 360.5 304.561 360.688 304.321 360.642C303.346 360.521 301.467 360.579 299.799 362.315ZM297.57 361.214C297.479 361.334 297.338 361.394 297.198 361.387C297.111 361.384 297.024 361.354 296.949 361.298C296.755 361.148 296.718 360.869 296.867 360.675C298.109 359.056 300.259 358.223 302.095 358.637C302.334 358.692 302.483 358.93 302.428 359.169C302.373 359.407 302.137 359.551 301.897 359.501C300.389 359.149 298.609 359.861 297.57 361.214Z" fill="#D2DAE5"/>
<path d="M289.435 285.471C289.401 284.745 289.371 284.018 289.343 283.289C289.349 283.287 289.356 283.286 289.362 283.286C289.391 284.015 289.411 284.745 289.435 285.471ZM237.756 281.073L238.155 278.708C238.016 279.53 237.883 280.321 237.756 281.073Z" fill="white"/>
<path d="M274.721 286.432C269.475 286.432 264.084 286.095 258.714 285.432C251.528 284.545 244.422 283.056 237.756 281.073C237.883 280.321 238.016 279.53 238.155 278.708C249.75 282.132 263.1 284.161 275.714 284.161C280.403 284.161 284.986 283.881 289.343 283.289C289.371 284.018 289.401 284.745 289.435 285.471C284.768 286.114 279.812 286.432 274.721 286.432Z" fill="#67D1D9"/>
<path d="M289.141 276.528C289.124 275.795 289.111 275.064 289.098 274.334C289.102 274.334 289.106 274.333 289.111 274.333C289.124 275.063 289.137 275.794 289.153 276.526C289.15 276.526 289.145 276.526 289.141 276.528Z" fill="white"/>
<path d="M275.49 277.343C273.939 277.343 272.374 277.313 270.802 277.254C270.973 276.969 271.119 276.663 271.238 276.337L271.732 274.975C273.335 275.037 274.931 275.069 276.516 275.069C280.828 275.069 285.053 274.833 289.098 274.334C289.111 275.064 289.125 275.795 289.141 276.528C284.783 277.072 280.194 277.343 275.49 277.343ZM266.955 277.053C266.386 277.016 265.814 276.974 265.244 276.928L264.682 276.724C263.646 276.348 262.992 275.378 262.97 274.336C264.961 274.547 266.958 274.715 268.948 274.835L268.732 275.428C268.431 276.259 267.748 276.842 266.955 277.053ZM260.795 276.496C260.385 276.449 259.974 276.4 259.563 276.35C252.614 275.492 245.742 274.07 239.266 272.187L239.674 269.824C246.168 271.7 253.188 273.138 260.31 274.03C260.269 274.889 260.442 275.734 260.795 276.496Z" fill="#67D1D9"/>
<path d="M289.015 267.483C289.01 266.745 289.005 266.009 289.005 265.277C289.01 266.005 289.018 266.748 289.015 267.483ZM240.822 263.219L241.001 262.208C240.942 262.545 240.882 262.883 240.824 263.22L240.822 263.219ZM241.221 260.966L241.242 260.854C241.235 260.891 241.228 260.928 241.221 260.966Z" fill="white"/>
<path d="M276.364 268.177C275.647 268.177 274.928 268.17 274.206 268.157L275.016 265.922C275.24 265.937 275.451 265.945 275.647 265.945C275.754 265.945 275.857 265.943 275.955 265.939C276.141 266.044 276.311 266.156 276.464 266.273C277.174 266.816 277.8 267.502 278.354 268.16C277.694 268.172 277.031 268.177 276.364 268.177ZM271.4 268.078C269.343 267.997 267.271 267.866 265.196 267.685L266.032 265.378C268.103 265.563 270.172 265.7 272.231 265.787L271.4 268.078ZM282.208 268.034C281.808 267.21 281.421 266.482 281.041 265.839C283.75 265.752 286.411 265.567 289.002 265.277C289.006 266.009 289.01 266.745 289.015 267.483C286.798 267.737 284.523 267.92 282.208 268.034ZM262.458 267.418C261.789 267.346 261.119 267.268 260.45 267.185C253.742 266.356 247.102 265.004 240.824 263.22C240.883 262.883 240.942 262.545 241.001 262.208L241.222 260.966C241.228 260.928 241.235 260.891 241.242 260.854C248.186 262.815 255.709 264.275 263.297 265.107L262.458 267.418Z" fill="#67D1D9"/>
<path d="M288.988 258.959C288.988 258.217 288.988 257.479 288.989 256.75V258.959" fill="#67D1D9"/>
<path d="M277.715 259.506C276.418 259.506 275.112 259.485 273.799 259.444C273.322 259.024 272.759 258.685 272.125 258.455L271.405 258.193C270.815 257.979 270.21 257.878 269.615 257.878C268.431 257.878 267.283 258.281 266.363 259C264.809 258.863 263.252 258.698 261.698 258.506C255.093 257.69 248.554 256.37 242.361 254.627L242.792 252.269C253.983 255.399 266.655 257.235 278.665 257.235C282.18 257.235 285.638 257.078 288.986 256.75C288.987 257.479 288.987 258.217 288.987 258.959C285.351 259.324 281.571 259.506 277.715 259.506ZM278.708 250.435C273.41 250.435 267.964 250.093 262.544 249.424C256.231 248.644 249.967 247.413 244.014 245.783C244.17 244.978 244.325 244.191 244.474 243.432C255.463 246.422 267.819 248.171 279.54 248.171C282.739 248.171 285.89 248.04 288.953 247.77C288.959 248.512 288.969 249.214 288.972 249.981C285.65 250.286 282.211 250.435 278.708 250.435Z" fill="#67D1D9"/>
<path d="M232.862 194.753C232.41 202.276 237.542 208.609 242.65 209.377C247.76 210.144 250.499 204.674 251.751 197.667C253.002 190.659 249.877 184.339 244.764 183.589C237.777 182.564 233.288 187.681 232.862 194.753Z" fill="#F4B18C"/>
<path d="M322.08 186.107C322.563 184.41 324.37 177.273 321.747 170.015C319.863 164.805 312.131 158.158 304.034 156.035C299.678 153.857 278.938 147.957 274.234 147.483C266.148 144.526 255.177 147.21 250.665 150.75C244.594 155.513 242.641 161.479 242.15 163.173C240.781 167.903 238.703 176.799 238.666 183.098L238.695 183.046C238.278 201.615 250.765 213.733 269.738 219.099C290.005 224.832 307.678 220.047 316.488 201.089C318.942 196.014 321.016 189.851 322.08 186.107Z" fill="#602220"/>
<path d="M310.052 185.135C310.825 189.895 299.04 222.455 293.556 226.939C286.566 232.656 274.011 236.344 259.007 232.019C247.286 228.638 238.905 218.712 238.249 208.123C237.883 202.226 242.567 178.381 248.175 167.786C253.407 157.907 266.478 160.433 282.196 164.944C296.899 169.163 308.048 172.784 310.052 185.135Z" fill="#FFC19F"/>
<path d="M302.907 193.522C299.565 205.738 300.72 214.483 304.659 215.64C308.601 216.795 315.811 203.071 319.379 190.918C323.465 177 321.619 170.588 313.258 165.797C309.653 163.732 306.706 179.637 302.907 193.522Z" fill="#602220"/>
<path d="M312.48 220.531C307.478 226.776 298.618 228.137 293.761 225.132C288.904 222.127 298.923 201.404 309.058 203.747C317.498 205.698 317.183 214.661 312.48 220.531Z" fill="#FFC19F"/>
<path d="M306.298 217.773C304.387 220.464 300.412 222.092 298.104 220.319C297.204 219.628 302.637 209.786 304.338 210.049C308.283 210.661 308.19 215.11 306.298 217.773Z" fill="#E0956C"/>
<path d="M249.869 175.413C249.624 175.34 249.412 175.156 249.305 174.885C249.111 174.397 249.331 173.812 249.794 173.581C253.171 171.897 258.024 172.689 261.339 175.465C261.728 175.791 261.781 176.405 261.46 176.838C261.14 177.271 260.563 177.355 260.178 177.033C257.405 174.709 253.242 173.983 250.499 175.352C250.29 175.455 250.069 175.472 249.869 175.413Z" fill="#660303"/>
<path d="M295.226 189.857C294.944 189.776 294.695 189.591 294.536 189.319C292.574 185.977 287.569 183.62 282.882 183.836C282.206 183.865 281.671 183.358 281.64 182.705C281.609 182.05 282.116 181.494 282.769 181.463C288.356 181.2 294.17 184.004 296.583 188.116C296.917 188.682 296.726 189.41 296.163 189.744C295.868 189.914 295.53 189.946 295.226 189.857Z" fill="#660303"/>
<path d="M271.781 221.841C271.943 221.864 272.118 221.842 272.281 221.766C272.717 221.562 272.902 221.043 272.699 220.61C271.079 217.157 266.933 214.299 262.801 213.808C259.441 213.366 256.536 214.374 254.604 216.653C254.296 217.02 254.34 217.571 254.707 217.878C255.071 218.207 255.616 218.143 255.939 217.777C257.47 215.969 259.822 215.174 262.576 215.537L262.723 215.558C266.319 216.086 269.755 218.451 271.118 221.348C271.249 221.625 271.506 221.8 271.781 221.841Z" fill="#934341"/>
<path d="M261.787 204.606C261.947 204.657 262.125 204.588 262.203 204.434C262.763 203.343 263.913 202.89 265.132 203.282C266.358 203.675 267.046 204.733 266.846 205.915C266.815 206.105 266.942 206.286 267.131 206.317C267.32 206.348 267.501 206.222 267.533 206.032C267.79 204.518 266.89 203.113 265.346 202.619C263.809 202.125 262.298 202.727 261.583 204.115C261.496 204.287 261.563 204.497 261.735 204.585L261.787 204.606Z" fill="#C4735B"/>
<path d="M292.976 217.075C292.583 218.77 289.766 219.566 286.682 218.851C283.6 218.137 281.419 216.184 281.811 214.489C282.205 212.793 285.023 211.998 288.104 212.712C291.187 213.426 293.368 215.38 292.976 217.075Z" fill="#FF8A8A"/>
<path d="M249.372 204.465C248.817 205.906 246.366 206.302 243.896 205.351C241.427 204.4 239.874 202.461 240.429 201.02C240.984 199.581 243.435 199.184 245.905 200.134C248.375 201.086 249.926 203.024 249.372 204.465Z" fill="#FF8A8A"/>
<path d="M248.8 169.793C247.418 171.936 246.423 174.303 243.453 178.634C244.204 176.305 248.867 160.478 249.951 156.956C251.44 157.097 256.688 157.284 257.589 157.531C251.292 159.394 251.338 165.86 248.8 169.793Z" fill="#602220"/>
<path d="M300.783 184.703C301.154 187.34 302.416 190.34 303.396 195.784C303.983 193.408 308.557 177.552 309.514 173.994C307.458 173.135 298.865 169.43 297.512 169.04C304.542 174.659 300.104 179.864 300.783 184.703Z" fill="#602220"/>
<path d="M290.391 140.951C305.165 147.556 306.945 158.388 306.605 164.411C304.086 163.689 301.266 162.857 299.991 162.36C301.961 156.032 300.082 148.773 290.391 140.951Z" fill="#602220"/>
<path d="M252.004 146.365C271.175 139.793 294.062 140.358 302.135 158.945C297.967 161.602 287.752 161.839 286.416 161.983C273.116 149.525 258.054 148.409 252.004 146.365Z" fill="#602220"/>
<path d="M249.902 162.048C264.943 176.207 298.323 170.464 298.59 165.926C298.857 161.39 285.884 155.22 272.057 154.407C258.231 153.594 250.804 160.346 249.902 162.048Z" fill="#602220"/>
<path d="M257.41 201.358C257.41 201.358 247.254 202.185 245.45 195.478C243.252 187.306 251.361 183.687 255.256 185.972C258.862 188.086 261.223 193.11 257.41 201.358Z" fill="#F9FEFF"/>
<path d="M247.374 186.409C249.809 184.373 252.319 184.234 254.702 185.237C257.139 186.263 259.072 189.123 259.15 191.519C258.518 188.663 256.443 187.087 255.095 186.296C252.95 185.035 249.544 185.393 247.445 187.485C245.577 189.345 244.705 192.69 245.512 195.69C244.183 193.426 244.835 188.531 247.374 186.409Z" fill="#773220"/>
<path d="M254.698 191.523C254.802 194.263 252.941 196.797 250.54 197.184C248.141 197.572 246.112 195.665 246.006 192.925C245.902 190.186 247.764 187.651 250.163 187.264C252.564 186.876 254.593 188.783 254.698 191.523Z" fill="#63190D"/>
<path d="M254.594 190.652C254.623 191.413 254.106 192.117 253.441 192.224C252.774 192.331 252.211 191.802 252.183 191.042C252.154 190.282 252.67 189.579 253.336 189.471C254.001 189.364 254.565 189.893 254.594 190.652Z" fill="#FEFFFE"/>
<path d="M273.729 206.16C273.729 206.16 283.561 212.78 289.353 208.274C296.412 202.784 290.308 195.046 285 194.663C280.089 194.311 274.722 197.095 273.729 206.16Z" fill="#F9FEFF"/>
<path d="M292.754 199.633C291.481 196.522 289.012 194.94 285.998 194.38C282.916 193.808 279.265 195.049 277.77 196.989C280.098 194.99 283.138 194.896 284.974 195.027C287.899 195.236 291.147 197.523 292.047 200.483C292.846 203.117 291.756 206.4 289.165 208.415C291.852 207.315 294.08 202.876 292.754 199.633Z" fill="#773220"/>
<path d="M286.413 201.46C286.68 204.25 284.635 206.728 281.845 206.994C279.055 207.262 276.577 205.216 276.31 202.427C276.044 199.636 278.089 197.159 280.878 196.892C283.668 196.625 286.146 198.67 286.413 201.46Z" fill="#63190D"/>
<path d="M286.241 200.571C286.315 201.345 285.747 202.032 284.973 202.106C284.199 202.181 283.512 201.613 283.438 200.839C283.363 200.065 283.931 199.378 284.706 199.304C285.479 199.229 286.168 199.797 286.241 200.571Z" fill="#FEFFFE"/>
<path d="M279.199 277.638C278.679 277.007 278.436 270.156 278.485 269.256C289.994 267.416 303.67 261.561 306.558 260.358C306.558 260.358 309.868 267.483 305.963 271.955C302.854 275.518 291.121 278.02 279.199 277.638Z" fill="#FFC19F"/>
<path d="M202.115 216.083C206.258 215.995 211.223 213.297 211.034 212.114C210.103 206.305 203.861 207.683 201.427 205.06C201.186 205.268 200.649 206.332 200.435 206.582C198.115 209.292 199.396 213.684 202.115 216.083Z" fill="#F29D77"/>
<path d="M196.324 211.285C195.668 210.998 195.896 206.523 194.893 205.386C193.604 203.924 192.603 202.954 191.957 201.735C191.242 200.387 191.283 197.916 193.38 199.042C194.452 199.617 196.753 201.095 197.956 202.318C198.963 203.342 199.546 204.414 201.109 206.444C200.258 209.231 197.609 211.847 196.324 211.285Z" fill="#F29D77"/>
<path d="M196.974 210.142C196.89 210.142 194.127 209.131 194.061 209.069C180.714 203.469 172.75 222.201 171.017 230.019C169.539 233.25 169.122 236.463 168.159 242.339C168.086 242.171 168.159 241.974 168.328 241.901C168.498 241.823 168.689 241.901 168.766 242.07C169.733 236.195 170.146 232.981 171.628 229.75C173.331 221.867 181.933 203.136 194.521 209.566C194.656 209.694 197.342 209.903 197.216 210.036C197.15 210.104 197.059 210.142 196.974 210.142Z" fill="#A6A6A6"/>
<path d="M187.986 204.886C187.933 204.312 189.031 197.976 189.614 197.729C191.126 197.088 192.108 199.467 191.541 204.356C193.827 207.626 198.602 209.388 197.279 211.014C195.955 212.64 193.834 213.491 192.108 212.349C191.662 212.055 188.099 206.098 187.986 204.886Z" fill="#F9AC85"/>
<path d="M199.549 198.9C200.284 199.307 200.156 200.345 199.497 201.073C200.554 200.428 201.246 200.095 201.486 200.256C202.195 200.727 202.145 201.741 201.552 202.286C202.823 202.113 202.974 203.124 202.577 203.869C202.316 204.359 201.903 205.068 201.237 206.26C200.947 206.779 201.162 207.268 201.68 210.303C202.433 210.723 206.183 207.268 209.381 208.434C211.565 209.228 212.098 210.811 212.211 212.874C212.316 214.777 210.862 216.971 208.799 217.916C207.496 218.513 195.745 213.907 194.224 213.09C191.926 211.856 191.716 204.029 192.567 202.96C193.875 201.315 198.469 198.843 199.549 198.9Z" fill="#FFC19F"/>
<path d="M194.933 205.648C194.893 206.383 194.818 207.754 194.86 209.074C194.863 209.162 194.936 209.233 195.024 209.228C195.111 209.225 195.18 209.152 195.178 209.065C195.136 207.757 195.21 206.396 195.249 205.664C195.263 205.417 195.273 205.235 195.274 205.144C195.251 204.8 197.414 202.587 199.658 201.117C199.699 201.044 199.736 200.967 199.771 200.889C198.045 201.69 194.963 204.487 194.957 205.139C194.955 205.229 194.946 205.405 194.933 205.648Z" fill="#F29D77"/>
<path d="M198.032 206.539C197.992 207.278 197.915 208.653 197.958 209.988C197.962 210.077 198.033 210.145 198.123 210.142C198.209 210.138 198.278 210.065 198.275 209.978C198.232 208.656 198.308 207.289 198.349 206.556C198.361 206.318 198.371 206.146 198.372 206.056C198.378 205.599 199.985 203.231 201.761 202.294C201.808 202.271 201.83 202.226 201.838 202.178C201.69 202.193 201.531 202.212 201.362 202.236L201.144 202.367C199.39 203.423 198.061 205.472 198.054 206.053C198.053 206.14 198.044 206.308 198.032 206.539Z" fill="#F29D77"/>
<path d="M236.638 287.247C235.849 287.247 235.06 287.203 234.267 287.109C226.597 286.198 220.531 280.998 218.042 273.2C215.567 265.45 214.158 255.715 212.796 246.298C210.542 230.739 208.418 216.043 201.927 210.293C201.788 210.171 201.775 209.961 201.901 209.822C202.018 209.683 202.226 209.67 202.369 209.794C209.042 215.708 211.183 230.52 213.456 246.203C214.812 255.59 216.221 265.3 218.675 272.996C221.082 280.54 226.939 285.569 234.344 286.447C243.328 287.493 252.211 282.267 258.172 272.433C258.268 272.275 258.467 272.227 258.632 272.322C258.789 272.418 258.841 272.622 258.746 272.779C253.166 281.983 245.036 287.247 236.638 287.247Z" fill="#A6A6A6"/>
<path d="M268.616 259.592C268.797 259.052 274.764 261.182 276.794 261.805C279.221 262.552 281.081 265.088 283.647 271.274C283.399 271.399 282.848 271.141 282.25 270.883C281.728 270.659 281.17 270.434 280.747 270.464C279.841 270.528 278.483 267.821 276.463 266.273C274.029 264.409 267.136 264.029 268.616 259.592Z" fill="#FFC19F"/>
<path d="M260.407 268.664L256.336 267.188C256.32 267.181 256.313 267.165 256.318 267.149L257.947 262.66C257.952 262.644 257.969 262.636 257.984 262.641L262.056 264.119C262.071 264.125 262.08 264.142 262.073 264.157L260.445 268.647C260.44 268.662 260.422 268.67 260.407 268.664Z" fill="#F95006"/>
<path d="M260.122 273.39C258.318 273.073 255.362 274.082 254.792 275.015C254.272 275.863 254.584 276.185 254.331 276.293C254.07 276.402 253.456 275.889 253.463 275.141C253.478 273.662 255.185 272.043 256.66 270.932C257.779 270.091 258.278 269.765 259.475 269.93C259.475 269.93 259.769 272.121 260.122 273.39Z" fill="#F95006"/>
<path d="M264.865 260.321C263.277 259.407 261.657 256.737 261.817 255.656C261.961 254.672 262.408 254.623 262.282 254.379C262.152 254.129 261.352 254.129 260.878 254.706C259.941 255.853 260.212 258.188 260.632 259.987C260.952 261.35 261.125 261.92 262.15 262.562C262.15 262.562 263.781 261.068 264.865 260.321Z" fill="#F95006"/>
<path d="M271.216 260.96C272.564 261.45 273.262 262.942 272.773 264.29L268.732 275.428C268.243 276.776 266.749 277.475 265.402 276.985L264.681 276.724C263.333 276.236 262.635 274.741 263.124 273.393L267.165 262.256C267.653 260.908 269.148 260.209 270.496 260.699L271.216 260.96ZM263.772 279.229L264.492 279.491C267.22 280.481 270.246 279.067 271.237 276.337L275.278 265.199C276.268 262.47 274.852 259.444 272.125 258.454L271.404 258.193C268.677 257.203 265.65 258.617 264.66 261.346L260.619 272.485C259.628 275.213 261.045 278.239 263.772 279.229Z" fill="#F95006"/>
<path d="M262.869 257.346C262.869 257.346 263.407 258.948 265.135 260.044C263.498 264.087 260.274 273.958 260.274 273.958C260.169 273.912 260.066 273.87 259.964 273.831C257.674 272.976 255.801 273.851 255.801 273.851L262.869 257.346Z" fill="#7F7F7F"/>
<path d="M256.454 274.348C256.595 274.397 256.752 274.316 256.795 274.176C258.602 268.445 260.89 262.026 262.765 257.43C262.818 257.293 262.752 257.138 262.618 257.083C262.501 257.027 262.327 257.092 262.269 257.228C260.39 261.838 258.1 268.272 256.285 274.017C256.243 274.152 256.32 274.302 256.454 274.348Z" fill="#9E9D9D"/>
<path d="M259.848 274.172C259.991 274.215 260.145 274.137 260.189 273.996C261.408 269.914 263.816 263.297 265.451 259.95C265.517 259.819 265.461 259.659 265.329 259.594C265.172 259.549 265.037 259.585 264.974 259.718C263.323 263.086 260.903 269.74 259.676 273.844C259.637 273.98 259.718 274.125 259.848 274.172Z" fill="#CCCCCC"/>
<path d="M259.317 274.103C259.457 274.144 259.613 274.065 259.656 273.925C260.994 269.33 262.98 263.157 264.525 259.601C264.581 259.467 264.519 259.309 264.385 259.253C264.274 259.184 264.094 259.251 264.033 259.39C262.481 262.966 260.489 269.166 259.143 273.775C259.104 273.91 259.186 274.056 259.317 274.103Z" fill="#9E9D9D"/>
<path d="M258.649 273.916C258.794 273.952 258.951 273.871 258.985 273.727C260.371 268.331 262.708 262.206 263.979 259.037C264.033 258.899 263.963 258.74 263.827 258.688C263.695 258.637 263.539 258.705 263.484 258.838C262.207 262.019 259.861 268.167 258.472 273.595C258.434 273.728 258.521 273.87 258.649 273.916Z" fill="#CCCCCC"/>
<path d="M257.803 273.939C257.942 273.987 258.101 273.905 258.144 273.766C259.726 268.663 262.033 262.792 263.693 258.767C263.75 258.63 263.685 258.474 263.546 258.418C263.41 258.365 263.254 258.427 263.199 258.561C261.538 262.599 259.22 268.487 257.633 273.607C257.59 273.744 257.669 273.894 257.803 273.939Z" fill="#E0E0E0"/>
<path d="M257.054 274.232C257.193 274.273 257.349 274.194 257.392 274.055C258.611 269.923 260.525 264.517 263.076 257.983C263.129 257.846 263.06 257.692 262.925 257.637C262.784 257.579 262.632 257.651 262.578 257.788C260.021 264.336 258.105 269.759 256.879 273.902C256.84 274.039 256.922 274.185 257.054 274.232Z" fill="#E0E0E0"/>
<path d="M255.905 274.489C256.046 274.537 256.201 274.455 256.245 274.313C257.855 268.962 260.182 262.793 262.454 256.926C262.507 256.791 262.436 256.631 262.299 256.581C262.163 256.53 262.007 256.598 261.955 256.735C259.679 262.611 257.349 268.788 255.733 274.16C255.694 274.296 255.769 274.443 255.905 274.489Z" fill="#CCCCCC"/>
<path d="M275.865 265.887C275.589 265.884 275.312 265.879 275.035 265.874L275.156 265.537C275.408 265.648 275.646 265.765 275.865 265.887Z" fill="#32908C"/>
<path d="M275.648 265.946C275.452 265.946 275.241 265.937 275.018 265.923L275.036 265.874C275.313 265.879 275.59 265.884 275.866 265.887C275.898 265.904 275.927 265.921 275.957 265.939C275.859 265.943 275.755 265.946 275.648 265.946Z" fill="#7BA69F"/>
<path d="M272.343 265.479C272.31 265.471 272.279 265.463 272.247 265.455C269.656 264.801 267.692 263.74 267.857 263.085C267.931 262.792 268.416 262.63 269.161 262.598C269.964 263.466 271.307 264.048 272.673 264.568L272.343 265.479Z" fill="#32908C"/>
<path d="M275.955 265.939C275.925 265.921 275.896 265.904 275.864 265.887C275.645 265.765 275.407 265.648 275.155 265.536L275.278 265.199C275.421 264.807 275.513 264.408 275.56 264.011C276.668 264.521 277.335 265.059 277.236 265.453C277.162 265.742 276.686 265.904 275.955 265.939ZM272.672 264.568C271.306 264.048 269.963 263.466 269.16 262.598C269.252 262.594 269.346 262.592 269.445 262.592C270.347 262.592 271.552 262.755 272.846 263.082C272.867 263.088 272.889 263.093 272.911 263.099C272.957 263.489 272.916 263.896 272.773 264.291L272.672 264.568Z" fill="#E99B75"/>
<path d="M275.017 265.922C274.242 265.868 273.32 265.721 272.344 265.479L272.674 264.568L272.774 264.291C272.917 263.896 272.959 263.489 272.913 263.099C273.923 263.358 274.837 263.678 275.562 264.011C275.514 264.409 275.423 264.808 275.28 265.199L275.157 265.536L275.036 265.874L275.017 265.922Z" fill="#E44907"/>
<path d="M278.897 264.48C276.241 264.356 273.172 263.602 269.394 262.898C268.255 262.686 264.965 262.784 265.898 265.543C265.508 265.608 265.027 266.121 265.027 267.53C265.029 268.516 265.722 269.06 265.474 269.551C264.433 271.602 266.136 272.085 265.993 272.785C265.712 274.169 266.271 275.129 266.899 275.616C268.664 276.984 275.652 278.553 279.734 277.653C281.482 277.267 284.772 272.583 284.495 271.521C283.352 267.146 280.645 264.561 278.897 264.48Z" fill="#FFC19F"/>
<path d="M271.388 274.527C271.388 274.527 267.324 273.328 266.012 272.971C265.913 272.944 265.854 272.843 265.882 272.743C265.907 272.643 266.011 272.584 266.11 272.612C267.424 272.971 270.802 273.965 271.478 274.169C271.578 274.199 271.632 274.302 271.601 274.4C271.578 274.486 271.474 274.537 271.388 274.527Z" fill="#F29D77"/>
<path d="M271.359 270.93L265.479 269.467C265.381 269.444 265.32 269.343 265.346 269.243C265.368 269.152 265.468 269.096 265.56 269.106C265.56 269.106 270.837 270.433 271.43 270.565C271.53 270.588 271.592 270.688 271.569 270.787C271.55 270.88 271.452 270.94 271.359 270.93Z" fill="#F29D77"/>
<path d="M272.054 267.323C272.054 267.323 266.613 265.89 265.882 265.709C265.782 265.685 265.721 265.583 265.746 265.483C265.769 265.383 265.864 265.322 265.97 265.349C266.702 265.53 271.722 266.868 272.126 266.957C272.226 266.98 272.288 267.08 272.265 267.179C272.246 267.273 272.148 267.333 272.054 267.323Z" fill="#F29D77"/>
</svg>
