<svg width="310" height="413" viewBox="0 0 310 413" fill="none" xmlns="http://www.w3.org/2000/svg">
<defs>
<linearGradient id="paint0_linear_2338_1627" x1="28.0244" y1="87.4215" x2="47.9757" y2="132.578" gradientUnits="userSpaceOnUse">
<stop stop-color="#F07575"/>
<stop offset="0.0001" stop-color="#F07575"/>
<stop offset="1" stop-color="#EB4747"/>
</linearGradient>
<linearGradient id="paint1_linear_2338_1627" x1="61.4424" y1="134.244" x2="72.4414" y2="183.123" gradientUnits="userSpaceOnUse">
<stop stop-color="#B0FAFF"/>
<stop offset="1" stop-color="white"/>
</linearGradient>
<linearGradient id="paint2_linear_2338_1627" x1="54.3167" y1="138.267" x2="56.5498" y2="148.191" gradientUnits="userSpaceOnUse">
<stop stop-color="#595959"/>
<stop offset="1"/>
</linearGradient>
</defs>
<path d="M189.493 413C122.943 413 69.0001 403.811 69.0001 392.5C69.0001 381.189 122.943 372 189.493 372C256.043 372 310 381.189 310 392.5C310 403.811 256.043 413 189.493 413Z" fill="#E3E3E3"/>
<path d="M208.544 383.946C208.693 384.491 227.096 380.761 227 380.079C226.211 374.156 212.566 296.419 212.039 293L187 305.408C188.725 311.114 207.464 379.99 208.544 383.946Z" fill="#FFC19F"/>
<path d="M169.458 389.445C169.436 390.009 150.783 390.279 150.718 389.59C150.182 383.618 146.251 304.47 146 301L173 307.828C172.589 313.791 169.631 385.333 169.458 389.445Z" fill="#FFC19F"/>
<path d="M139 272.287C140.184 289.511 141.14 315.685 141.867 332.304C146.717 333.583 168.434 332.935 174.714 331.69C175.149 324.089 175.914 311.649 177.081 301.961C177.555 298.037 180.375 297.916 181.576 301.688C182.325 304.035 186.266 319.219 189.471 330.355C197.141 330.152 215.268 326.846 222 324.461C222 324.461 215.15 287.688 211.678 266C211.277 266.048 163.085 271.397 139 272.287Z" fill="#3F8CB2"/>
<path d="M148.091 269C149.696 270.993 150.772 273.524 150.968 276.39C151.44 283.381 146.673 289.472 140.308 289.996C140.186 290.005 140.064 289.996 139.945 289.987C139.848 289.978 139.75 289.974 139.652 289.974C139.346 282.185 139.114 275.073 139 269.179C142.032 269.085 145.063 269.045 148.091 269Z" fill="#085B84"/>
<path d="M210.617 262C211.888 268.112 213.397 276.424 215 285.701C214.786 285.748 214.585 285.834 214.367 285.868C207.994 286.846 202.069 282.28 201.128 275.664C200.199 269.172 204.438 263.145 210.617 262Z" fill="#085B84"/>
<path d="M164.914 289C158.332 289 152.01 288.686 146.462 287.985C148.141 286.811 149.485 285.234 150.343 283.416C158.927 285.311 168.557 286.151 178.191 286.151C187.477 286.151 196.754 285.372 205.1 284.015C205.695 284.451 206.328 284.834 207 285.156C195.308 287.463 179.471 289.004 164.914 289ZM139.37 285.38C139.319 284.806 139.268 284.227 139.221 283.644C139.153 282.405 139.081 281.19 139 280C139.06 280.02 139.111 280.041 139.162 280.061C139.221 281.773 139.289 283.55 139.37 285.38Z" fill="#316D8B"/>
<path d="M146.181 287C143.735 286.723 141.434 286.377 139.335 285.956C139.289 285.538 139.243 285.12 139.205 284.699C139.126 283.082 139.059 281.512 139 280C142.371 281.203 146.077 282.186 150 282.963C149.155 284.569 147.834 285.963 146.181 287Z" fill="#064767"/>
<path d="M215 283C214.614 282.667 214.227 282.337 214 282C214.455 282.36 214.886 282.69 215 283Z" fill="#C7C7C7"/>
<path d="M214.724 283C214.474 282.671 214.25 282.342 214 282.016C214.105 282.01 214.211 282.007 214.316 282C214.553 282.326 214.776 282.651 215 282.98C214.921 282.987 214.816 282.993 214.724 283Z" fill="#316D8B"/>
<path d="M206.849 284C206.195 283.78 205.579 283.517 205 283.219C208.073 282.867 211.018 282.457 213.773 282C213.851 282.276 213.922 282.555 214 282.834C211.878 283.247 209.467 283.637 206.849 284Z" fill="#064767"/>
<path d="M207.617 389.948C207.702 390.383 230.985 387.949 230.998 387.385C231.058 383.227 229.681 373.408 229.647 371L205 373.615C205.842 378.023 207.074 387.148 207.617 389.948Z" fill="white"/>
<path d="M234.124 382.878C233.803 381.655 233.122 380.101 232.601 378.677C232.206 377.622 221.597 377.592 221.514 380.105C221.497 380.75 221.514 381.32 221.558 381.839C219.744 381.814 217.774 381.76 215.695 381.646C211.182 381.404 207.138 380.972 204.304 380.482C204.035 384.457 204.26 391.346 204 395.769C204 395.769 251.157 405.209 258.746 398.726C260.89 396.9 249.174 388.381 234.124 382.878Z" fill="#0984AF"/>
<path d="M204.1 393C204.083 393.98 204.052 394.93 204 395.771C204 395.771 251.158 405.207 258.748 398.727C259.052 398.467 259.074 398.078 258.852 397.58C245.738 400.071 215.83 395.131 204.1 393Z" fill="#00517E"/>
<path d="M245.458 385.958C242.823 385.436 239.402 386.616 237.118 388.809C236.85 389.075 236.837 389.507 237.087 389.782C237.21 389.922 237.377 389.994 237.54 389.998C237.715 390.012 237.895 389.949 238.036 389.814C240.021 387.904 242.981 386.841 245.199 387.309C245.572 387.386 245.919 387.134 245.989 386.76C246.055 386.391 245.818 386.03 245.458 385.958ZM241.422 385.332C241.786 385.404 242.124 385.116 242.177 384.738C242.225 384.364 241.966 384.017 241.602 383.967C238.677 383.553 235.761 384.625 233.591 386.881C233.337 387.152 233.341 387.589 233.605 387.854C233.723 387.976 233.881 388.039 234.039 388.052C234.219 388.057 234.413 387.994 234.553 387.85C237.105 385.184 239.951 385.129 241.422 385.332ZM237.772 383.517C238.137 383.598 238.493 383.382 238.58 383.008C238.668 382.643 238.449 382.269 238.089 382.179C235.313 381.508 232.054 382.76 230.144 385.256C229.916 385.548 229.964 385.981 230.254 386.215C230.368 386.305 230.5 386.355 230.631 386.364C230.842 386.377 231.057 386.287 231.198 386.102C232.792 384.017 235.497 382.941 237.772 383.517Z" fill="#D3DAE5"/>
<path d="M170.202 389.574C170.167 390.021 146.548 390.217 146.475 389.656C145.944 385.496 146.237 375.415 146 373H171C170.651 377.517 170.431 386.712 170.202 389.574Z" fill="white"/>
<path d="M142.873 382.875C143.194 381.652 143.875 380.094 144.401 378.678C144.791 377.623 155.402 377.589 155.485 380.107C155.502 380.748 155.489 381.317 155.441 381.832C157.26 381.816 159.225 381.761 161.304 381.648C165.818 381.401 169.862 380.974 172.696 380.479C172.965 384.459 172.744 391.349 173 395.768C173 395.768 125.843 405.21 118.253 398.726C116.114 396.899 127.822 388.379 142.873 382.875Z" fill="#0984AF"/>
<path d="M172.9 393C172.922 393.984 172.952 394.934 173 395.771C173 395.771 125.841 405.207 118.251 398.727C117.951 398.472 117.925 398.082 118.146 397.584C131.258 400.067 161.169 395.135 172.9 393Z" fill="#00517E"/>
<path d="M131.012 387.167C131.083 387.494 131.425 387.714 131.799 387.643C134.016 387.23 136.976 388.159 138.966 389.834C139.102 389.952 139.282 390.007 139.458 389.999C139.629 389.987 139.792 389.924 139.91 389.81C140.165 389.566 140.156 389.184 139.879 388.959C137.6 387.037 134.175 386.005 131.548 386.462C131.179 386.525 130.942 386.84 131.012 387.167ZM142.449 388.112C142.589 388.242 142.778 388.301 142.967 388.29C143.125 388.286 143.274 388.226 143.397 388.124C143.661 387.888 143.661 387.509 143.406 387.273C141.245 385.295 138.32 384.362 135.4 384.724C135.031 384.768 134.772 385.067 134.824 385.398C134.873 385.729 135.22 385.981 135.575 385.91C137.051 385.733 139.897 385.784 142.449 388.112ZM145.804 386.588C145.944 386.745 146.155 386.824 146.366 386.816C146.502 386.808 146.629 386.769 146.744 386.69C147.034 386.485 147.086 386.107 146.858 385.843C144.952 383.664 141.684 382.565 138.913 383.16C138.549 383.239 138.333 383.562 138.417 383.885C138.505 384.204 138.861 384.397 139.229 384.33C141.5 383.826 144.205 384.767 145.804 386.588Z" fill="#D3DAE5"/>
<path d="M87.3394 195.177C85.6683 194.646 90.6253 181.578 92.3308 182.011C117.837 188.481 150.225 194.805 157 195.666L151.154 213C136.525 209.006 109.391 202.194 87.3394 195.177Z" fill="#FFC19F"/>
<path d="M127.277 188C125.76 194.058 124.159 207.573 123 213.946C136.439 217.277 147.497 219.289 148.455 218.966C158.431 215.583 161.451 194.199 162 192.956C155.134 192.343 140.456 190.863 127.277 188Z" fill="#F72828"/>
<path d="M224.574 275.668C225.26 277.433 238.472 271.661 237.987 270.08C229.997 243.831 229.238 239.683 223.871 215.036C215.821 215.429 208.837 211.834 202 213.395C209.708 238.586 214.92 250.785 224.574 275.668Z" fill="#FFC19F"/>
<path d="M233 231.923C230.761 226.186 218.758 202.617 216.51 199.95C215.666 198.949 208.24 197.066 197 195C198.103 201.767 206.026 237.088 207.289 241C211.166 240.597 228.216 235.718 233 231.923Z" fill="#F72828"/>
<path d="M216 280.289C193.116 286.477 156.126 287.639 135 277.194C136.728 262.321 141.977 211.185 150.634 193.398C159.557 192.375 174.397 193.572 182.163 194.235C193.53 195.206 207.283 198.262 214.293 200.232C213.73 209.183 211.127 223.621 211.516 233.578C212.1 248.617 213.564 262.689 216 280.289Z" fill="#F72828"/>
<path d="M197 196.797C197 196.533 196.932 196.286 196.877 196.036C192.215 195.275 187.374 194.625 182.94 194.234C177.774 193.78 169.464 193.096 161.869 193C161.497 194.037 161.014 195.387 161.002 196.118C160.879 203.824 168.668 210.827 178.717 210.997C188.762 211.167 196.877 204.503 197 196.797Z" fill="#BA0C0C"/>
<path d="M167.833 175L166.019 196.459C165.63 201.074 171.17 205.312 178.395 205.926C185.616 206.539 191.793 203.295 192.182 198.681L194 177.221L167.833 175Z" fill="#FFC19F"/>
<path d="M190.285 198C184.613 198 173.209 195.012 167 187.671L167.801 178C175.928 179.244 185.618 181.317 194 183.422L192.723 197.719C192.138 197.904 191.303 198 190.285 198Z" fill="#E1A182"/>
<path d="M187.866 251C187.761 251 187.648 250.996 187.539 250.996C186.002 250.987 185.045 250.95 184.667 250.879C184.516 250.846 184.382 250.783 184.251 250.696C183.848 250.408 183.492 249.653 183.172 248.41C182.858 247.171 182.526 246.312 182.182 245.836C181.98 245.552 181.695 245.377 181.334 245.311L178.454 245.11C178.403 245.11 178.353 245.11 178.303 245.11C177.484 245.11 176.93 245.369 176.644 245.89C176.241 246.604 175.792 247.392 175.288 248.26C174.793 249.127 174.428 249.657 174.205 249.853C174.092 249.978 173.924 250.053 173.71 250.086C173.559 250.112 173.349 250.124 173.067 250.124C172.45 250.124 171.535 250.066 170.309 249.953C168.529 249.786 167.526 249.548 167.295 249.227C167.089 248.981 166.989 248.689 167.001 248.351C167.052 247.221 167.354 245.536 167.916 243.296C168.487 241.052 169.159 238.728 169.948 236.317C170.738 233.911 171.556 231.658 172.396 229.56C173.24 227.466 173.945 225.994 174.541 225.16C174.768 224.83 175.406 224.567 176.447 224.359C177.488 224.15 178.63 224.029 179.881 224.004C180.041 224 180.204 224 180.368 224C181.434 224 182.471 224.079 183.462 224.238C184.604 224.421 185.393 224.73 185.817 225.18C186.447 225.844 187.123 227.279 187.883 229.464C188.647 231.646 189.373 234.019 190.066 236.58C190.763 239.141 191.376 241.594 191.909 243.942C192.442 246.287 192.795 247.943 192.95 248.91C193.063 249.619 192.984 250.099 192.719 250.358C192.459 250.616 192.014 250.779 191.401 250.846C190.435 250.946 189.256 251 187.866 251ZM180.049 234.378C179.906 234.378 179.78 234.436 179.654 234.553C179.243 234.937 178.815 235.596 178.374 236.53C177.933 237.469 177.753 238.09 177.841 238.399C177.984 238.92 178.727 239.2 180.07 239.229C180.137 239.233 180.204 239.233 180.272 239.233C181.485 239.233 182.169 238.954 182.32 238.399C182.408 238.044 182.115 237.198 181.418 235.863C180.91 234.874 180.452 234.378 180.049 234.378Z" fill="#FB8989"/>
<path fill-rule="evenodd" clip-rule="evenodd" d="M24.9722 88.8422C24.9883 88.8787 24.7373 89.0181 24.3348 89.196C23.9323 89.3738 23.6812 89.5132 23.6974 89.5498C23.7129 89.5849 23.5229 89.699 23.2411 89.8235C22.9593 89.948 22.7693 90.0621 22.7848 90.0973C22.7999 90.1314 22.6405 90.2332 22.4191 90.331C22.1977 90.4288 22.0383 90.5306 22.0533 90.5647C22.0681 90.5983 21.9202 90.6957 21.7214 90.7836C21.5242 90.8707 21.3579 90.9766 21.3521 91.0189C21.3462 91.0612 21.1935 91.1611 21.0129 91.2409C20.8322 91.3207 20.6965 91.4132 20.7111 91.4464C20.7258 91.4796 20.602 91.5668 20.436 91.6401C20.27 91.7135 20.1461 91.8006 20.1608 91.8338C20.1755 91.867 20.0652 91.9482 19.9158 92.0142C19.7664 92.0803 19.6561 92.1614 19.6708 92.1946C19.6855 92.2278 19.5888 92.303 19.456 92.3617C19.3232 92.4204 19.2265 92.4956 19.2412 92.5288C19.2559 92.562 19.1592 92.6371 19.0264 92.6958C18.8936 92.7545 18.7954 92.8262 18.8081 92.855C18.8209 92.884 18.649 93.0106 18.426 93.1366C18.2031 93.2625 18.0043 93.4131 17.9839 93.4712C17.9638 93.5293 17.8688 93.5985 17.7732 93.6251C17.6776 93.6516 17.594 93.7111 17.5877 93.7575C17.5813 93.8039 17.496 93.8771 17.3984 93.9202C17.3007 93.9633 17.2329 94.0258 17.2476 94.059C17.2622 94.0922 17.2151 94.1455 17.1426 94.1775C17.0038 94.2389 16.6952 94.4942 16.5584 94.661C16.5136 94.7156 16.4239 94.7837 16.359 94.8123C16.2941 94.841 16.2362 94.8991 16.2304 94.9413C16.2245 94.9836 16.155 95.0468 16.0759 95.0817C15.9968 95.1167 15.9274 95.1798 15.9215 95.2221C15.9156 95.2644 15.8578 95.3224 15.7929 95.3511C15.728 95.3798 15.628 95.4614 15.5707 95.5326C15.3522 95.8043 15.2992 95.8578 15.2104 95.897C15.1602 95.9193 15.1311 95.9646 15.1458 95.9978C15.1605 96.031 15.091 96.0941 14.9914 96.1382C14.8917 96.1822 14.8222 96.2453 14.8369 96.2785C14.8516 96.3117 14.7821 96.3749 14.6825 96.4189C14.5829 96.4629 14.5134 96.5261 14.528 96.5593C14.5427 96.5925 14.5004 96.6437 14.434 96.673C14.3676 96.7024 14.3252 96.7535 14.3399 96.7868C14.3546 96.82 14.2851 96.8831 14.1855 96.9271C14.0859 96.9711 14.0164 97.0343 14.031 97.0675C14.0457 97.1007 14.0034 97.1519 13.937 97.1812C13.8706 97.2106 13.8282 97.2618 13.8429 97.295C13.8576 97.3282 13.8178 97.3782 13.7546 97.4061C13.6314 97.4606 13.235 97.9245 13.2349 98.0146C13.2347 98.0444 13.1554 98.1038 13.0587 98.1465C12.9618 98.1893 12.8946 98.2515 12.9092 98.2847C12.9239 98.3179 12.8816 98.3691 12.8152 98.3984C12.7488 98.4278 12.7064 98.4789 12.7211 98.5121C12.7358 98.5453 12.7105 98.589 12.6649 98.6091C12.528 98.6696 12.1305 99.1351 12.1595 99.2008C12.1744 99.2344 12.1564 99.2577 12.1194 99.2526C12.0488 99.2428 11.2667 100.162 11.2665 100.255C11.2663 100.285 11.2142 100.332 11.1507 100.36C11.087 100.389 11.0469 100.439 11.0616 100.472C11.0763 100.505 11.0362 100.555 10.9725 100.583C10.909 100.612 10.8568 100.659 10.8567 100.689C10.8565 100.757 10.6217 101.095 10.5002 101.202C10.4502 101.246 10.4199 101.306 10.4329 101.335C10.4459 101.365 10.4021 101.413 10.3357 101.442C10.2693 101.471 10.227 101.523 10.2417 101.556C10.2563 101.589 10.22 101.638 10.1609 101.664C10.1019 101.69 10.0383 101.783 10.0198 101.87C10.0013 101.958 9.9378 102.051 9.87878 102.077C9.81962 102.103 9.78333 102.152 9.798 102.185C9.81267 102.218 9.78905 102.261 9.74544 102.28C9.70197 102.299 9.63468 102.386 9.59591 102.472C9.55729 102.559 9.46213 102.707 9.38452 102.8C9.30691 102.894 9.22073 103.025 9.19296 103.092C9.16534 103.158 9.07809 103.273 8.999 103.347C8.92013 103.421 8.87197 103.518 8.89211 103.564C8.91218 103.609 8.88785 103.649 8.83794 103.651C8.78796 103.654 8.71249 103.737 8.67002 103.836C8.62762 103.935 8.56088 104.03 8.52194 104.047C8.48285 104.065 8.42816 104.146 8.40024 104.228C8.37225 104.31 8.29169 104.448 8.22106 104.536C8.15048 104.623 8.10272 104.717 8.11492 104.745C8.12706 104.772 8.10038 104.811 8.05541 104.831C8.01058 104.85 7.92464 104.986 7.86436 105.132C7.80408 105.277 7.73339 105.406 7.70728 105.417C7.68117 105.429 7.6445 105.51 7.626 105.598C7.6075 105.685 7.55483 105.773 7.5091 105.794C7.46337 105.814 7.38588 105.945 7.33677 106.086C7.28766 106.227 7.21561 106.356 7.17652 106.373C7.13743 106.391 7.04915 106.56 6.98015 106.749C6.91115 106.938 6.82363 107.107 6.78544 107.123C6.74726 107.14 6.69706 107.203 6.67375 107.263C6.65058 107.323 6.56199 107.5 6.47695 107.657C6.27993 108.02 5.95386 108.737 5.95374 108.808C5.95357 108.838 5.92771 108.873 5.89617 108.887C5.81271 108.924 5.62623 109.444 5.61168 109.681C5.60481 109.793 5.57662 109.894 5.549 109.907C5.52153 109.919 5.5229 109.983 5.55224 110.049C5.58158 110.116 5.57842 110.182 5.54522 110.197C5.51201 110.212 5.52085 110.305 5.56487 110.405C5.60888 110.504 5.61772 110.598 5.58451 110.612C5.54754 110.629 5.65304 110.931 5.85755 111.394C6.06207 111.857 6.21436 112.138 6.25134 112.122C6.28454 112.107 6.34771 112.177 6.39172 112.276C6.43573 112.376 6.49891 112.445 6.53211 112.431C6.56532 112.416 6.61649 112.458 6.64583 112.525C6.67517 112.591 6.72634 112.633 6.75954 112.619C6.79275 112.604 6.83178 112.619 6.84625 112.652C6.87379 112.714 7.11967 112.852 7.30619 112.909C7.36589 112.928 7.5071 112.975 7.61995 113.014C7.73279 113.054 7.85367 113.073 7.88839 113.058C7.9231 113.043 7.96348 113.057 7.97815 113.09C7.99282 113.124 8.04557 113.133 8.09538 113.111C8.14518 113.089 8.19793 113.098 8.2126 113.131C8.22727 113.164 8.30719 113.162 8.3902 113.125C8.47321 113.088 8.55313 113.085 8.5678 113.119C8.58247 113.152 8.70314 113.131 8.83595 113.072C8.96877 113.014 9.08944 112.993 9.10411 113.026C9.11951 113.061 9.32079 113.002 9.57993 112.888C9.827 112.779 10.034 112.655 10.0398 112.612C10.0457 112.57 10.144 112.494 10.2583 112.444C10.3725 112.393 10.4539 112.325 10.4393 112.292C10.4246 112.259 10.4669 112.207 10.5333 112.178C10.5998 112.149 10.6421 112.097 10.6274 112.064C10.6127 112.031 10.6551 111.98 10.7215 111.951C10.7879 111.921 10.8302 111.87 10.8155 111.837C10.8009 111.804 10.8227 111.761 10.864 111.742C10.9487 111.704 11.0929 111.445 11.3022 110.954C11.3806 110.771 11.4687 110.61 11.498 110.597C11.5274 110.584 11.6029 110.445 11.6657 110.289C11.7287 110.132 11.8596 109.856 11.9565 109.676C12.0536 109.496 12.1327 109.323 12.1322 109.292C12.1318 109.261 12.1589 109.223 12.1927 109.208C12.2263 109.193 12.294 109.066 12.3431 108.925C12.3922 108.784 12.4697 108.653 12.5155 108.633C12.5612 108.612 12.6138 108.524 12.6323 108.437C12.6509 108.349 12.7008 108.262 12.7432 108.243C12.7858 108.224 12.8085 108.182 12.7938 108.149C12.7791 108.116 12.8019 108.073 12.8444 108.054C12.8868 108.036 12.9368 107.949 12.9553 107.861C12.9738 107.773 13.035 107.681 13.0913 107.657C13.1476 107.632 13.1937 107.587 13.1939 107.557C13.194 107.487 13.7993 106.55 13.8623 106.522C13.8885 106.511 13.9252 106.429 13.9437 106.342C13.9622 106.254 14.0257 106.161 14.0847 106.135C14.1439 106.109 14.1817 106.064 14.1688 106.035C14.1559 106.006 14.2119 105.912 14.2933 105.827C14.3747 105.741 14.4307 105.648 14.4178 105.619C14.4049 105.589 14.4487 105.542 14.5151 105.512C14.5815 105.483 14.6239 105.432 14.6092 105.399C14.5945 105.365 14.6181 105.322 14.6618 105.303C14.7052 105.284 14.7752 105.188 14.8171 105.09C14.859 104.992 14.9352 104.894 14.9864 104.871C15.0376 104.848 15.0675 104.803 15.0529 104.77C15.0382 104.736 15.0805 104.685 15.1469 104.656C15.2133 104.627 15.2557 104.575 15.241 104.542C15.2263 104.509 15.2551 104.464 15.3049 104.442C15.3547 104.42 15.3834 104.375 15.3688 104.341C15.3541 104.308 15.3828 104.263 15.4326 104.241C15.4824 104.219 15.5112 104.174 15.4965 104.141C15.4818 104.107 15.5242 104.056 15.5906 104.027C15.657 103.998 15.6993 103.946 15.6847 103.913C15.67 103.88 15.6987 103.835 15.7485 103.813C15.7983 103.791 15.8271 103.746 15.8124 103.712C15.7977 103.679 15.8401 103.628 15.9065 103.599C15.9729 103.569 16.0152 103.518 16.0006 103.485C15.9859 103.452 16.0282 103.401 16.0946 103.371C16.161 103.342 16.2034 103.291 16.1887 103.258C16.174 103.224 16.2095 103.176 16.2675 103.15C16.3256 103.124 16.4768 102.976 16.6035 102.821C16.7302 102.666 16.8701 102.524 16.9143 102.504C16.9585 102.485 16.9826 102.441 16.9679 102.408C16.9532 102.375 16.9939 102.325 17.0583 102.296C17.1228 102.268 17.1804 102.21 17.1862 102.167C17.1921 102.125 17.2496 102.067 17.3141 102.039C17.3785 102.01 17.4192 101.96 17.4045 101.927C17.3899 101.893 17.4132 101.851 17.4563 101.832C17.5674 101.783 17.797 101.511 17.7737 101.457C17.763 101.432 17.8356 101.375 17.9352 101.331C18.0349 101.287 18.1044 101.224 18.0897 101.191C18.075 101.158 18.1173 101.107 18.1838 101.077C18.2502 101.048 18.2925 100.997 18.2778 100.964C18.2632 100.93 18.3174 100.874 18.3984 100.838C18.4795 100.802 18.5507 100.738 18.5565 100.696C18.5624 100.654 18.6199 100.596 18.6844 100.567C18.7488 100.539 18.7895 100.489 18.7748 100.455C18.7602 100.422 18.8297 100.359 18.9293 100.315C19.0289 100.271 19.0984 100.208 19.0837 100.175C19.069 100.141 19.1233 100.085 19.2043 100.049C19.2854 100.013 19.3565 99.9494 19.3624 99.9072C19.3683 99.8649 19.4258 99.807 19.4903 99.7785C19.5547 99.75 19.5954 99.6996 19.5807 99.6664C19.566 99.6332 19.6203 99.5768 19.7013 99.5409C19.7824 99.5051 19.8535 99.4412 19.8594 99.399C19.8653 99.3567 19.9348 99.2935 20.0138 99.2586C20.0929 99.2236 20.1624 99.1604 20.1683 99.1182C20.1741 99.0759 20.2725 99 20.3867 98.9495C20.501 98.899 20.5824 98.8306 20.5677 98.7974C20.553 98.7642 20.6225 98.701 20.7221 98.657C20.8218 98.613 20.8913 98.5498 20.8766 98.5166C20.8619 98.4834 20.9298 98.421 21.0274 98.3778C21.1251 98.3347 21.2098 98.2648 21.2156 98.2225C21.2215 98.1802 21.3046 98.111 21.4003 98.0688C21.496 98.0265 21.579 97.9573 21.5849 97.915C21.5907 97.8728 21.6891 97.7969 21.8033 97.7464C21.9176 97.6959 22.0009 97.6318 21.9887 97.6041C21.9691 97.5597 22.1354 97.4431 23.0498 96.8609C23.1661 96.7868 23.2657 96.6953 23.2708 96.6575C23.2761 96.6197 23.3956 96.5378 23.5364 96.4756C23.6772 96.4134 23.8073 96.3265 23.8256 96.2827C23.8574 96.2064 24.0662 96.0689 24.731 95.6862C24.8971 95.5906 25.0222 95.4878 25.0088 95.4576C24.9955 95.4274 25.1748 95.3188 25.4072 95.2161C25.6396 95.1134 25.8187 95.0042 25.805 94.9732C25.7812 94.9195 26.1403 94.7199 27.4851 94.0399C27.8257 93.8676 28.1189 93.6899 28.1367 93.6448C28.1818 93.5306 32.4648 91.6428 32.5484 91.7002C32.5851 91.7253 32.9078 91.6136 33.3032 91.4389C33.7234 91.2532 34.0043 91.1574 34.0205 91.1941C34.036 91.2293 34.2471 91.1661 34.5265 91.0427C34.7902 90.9262 35.0347 90.8506 35.0699 90.8747C35.1051 90.8989 35.3225 90.8353 35.553 90.7335C35.7835 90.6316 35.9828 90.5729 35.9962 90.6031C36.0095 90.6333 36.1697 90.6101 36.3523 90.5517C37.0829 90.3178 37.3251 90.2561 37.4029 90.284C37.4476 90.2999 37.5995 90.2622 37.7403 90.2C37.8811 90.1378 38.0221 90.1045 38.0536 90.1261C38.085 90.1478 38.2199 90.1362 38.3531 90.1006C38.4865 90.0648 38.8207 89.9757 39.0959 89.9025C39.3711 89.8292 39.6059 89.7911 39.6177 89.8177C39.6295 89.8444 39.7325 89.8249 39.8468 89.7744C39.961 89.7239 40.0833 89.7023 40.1185 89.7265C40.1537 89.7506 40.2761 89.729 40.3903 89.6786C40.5046 89.6281 40.61 89.614 40.6247 89.6472C40.6393 89.6804 40.7328 89.6715 40.8324 89.6275C40.932 89.5835 41.0255 89.5747 41.0402 89.6079C41.0549 89.6411 41.1484 89.6322 41.248 89.5882C41.3476 89.5442 41.4411 89.5354 41.4558 89.5686C41.4705 89.6018 41.5911 89.5809 41.7239 89.5223C41.8568 89.4636 41.9774 89.4427 41.9921 89.4759C42.0068 89.5091 42.1003 89.5003 42.1999 89.4563C42.2995 89.4123 42.393 89.4034 42.4077 89.4366C42.4223 89.4698 42.5022 89.467 42.5853 89.4303C42.6683 89.3936 42.7482 89.3908 42.7629 89.424C42.7775 89.4572 42.8422 89.4611 42.9066 89.4326C42.9711 89.4042 43.0527 89.4006 43.0879 89.4247C43.1231 89.4489 43.2182 89.4393 43.2993 89.4035C43.3803 89.3677 43.4586 89.3656 43.4733 89.3988C43.4879 89.432 43.5814 89.4231 43.681 89.3791C43.7806 89.3351 43.8742 89.3263 43.8888 89.3595C43.9035 89.3927 43.9682 89.3966 44.0326 89.3681C44.0971 89.3396 44.1786 89.336 44.2138 89.3602C44.249 89.3843 44.3442 89.3747 44.4252 89.3389C44.5063 89.3031 44.5845 89.301 44.5992 89.3342C44.6139 89.3674 44.6802 89.3706 44.7466 89.3412C44.813 89.3119 44.8794 89.3151 44.894 89.3483C44.9087 89.3815 45.0022 89.3726 45.1018 89.3286C45.2014 89.2846 45.2949 89.2758 45.3096 89.309C45.3243 89.3422 45.3906 89.3453 45.457 89.316C45.5234 89.2867 45.5868 89.2832 45.5979 89.3082C45.609 89.3334 45.7221 89.3504 45.8492 89.3464C45.9764 89.3421 46.1388 89.3432 46.2102 89.3487C46.2815 89.3543 46.381 89.3407 46.4313 89.3185C46.4816 89.2963 46.5346 89.3053 46.5493 89.3385C46.564 89.3717 46.612 89.3829 46.6562 89.3634C46.7005 89.3439 46.9002 89.3366 47.1001 89.3473C47.3 89.358 47.5113 89.3458 47.5695 89.3203C47.6276 89.2948 47.6872 89.3011 47.7019 89.3343C47.7166 89.3675 47.7829 89.3707 47.8493 89.3413C47.9157 89.312 47.9821 89.3152 47.9967 89.3484C48.0114 89.3816 48.0777 89.3847 48.1442 89.3554C48.2106 89.3261 48.2746 89.3241 48.2866 89.3511C48.2985 89.3781 48.4199 89.3956 48.5562 89.3898C48.6926 89.384 48.8139 89.4015 48.8258 89.4285C48.8378 89.4555 48.8883 89.4596 48.9381 89.4375C48.9879 89.4155 49.0406 89.4247 49.0553 89.4579C49.07 89.4911 49.1227 89.5003 49.1725 89.4783C49.2223 89.4563 49.2751 89.4654 49.2898 89.4986C49.3044 89.5318 49.3708 89.535 49.4372 89.5057C49.5036 89.4763 49.5699 89.4795 49.5846 89.5127C49.5993 89.5459 49.6656 89.549 49.732 89.5197C49.7984 89.4904 49.8647 89.4935 49.8794 89.5267C49.8941 89.5599 49.9417 89.5714 49.9853 89.5521C50.0288 89.5329 50.1468 89.5457 50.2474 89.5806C50.348 89.6155 50.4722 89.6256 50.5234 89.603C50.5745 89.5804 50.6285 89.589 50.6432 89.6222C50.6578 89.6554 50.7054 89.6669 50.7491 89.6476C50.7925 89.6284 50.9106 89.6412 51.0111 89.6761C51.1117 89.711 51.2299 89.7238 51.2738 89.7044C51.3177 89.6849 51.4167 89.7061 51.4939 89.7514C51.5711 89.7967 51.6567 89.8238 51.684 89.8117C51.7304 89.7913 52.661 89.94 52.8829 90.0032C52.9378 90.0189 53.0185 90.0158 53.0624 89.9964C53.1063 89.977 53.2054 89.9982 53.2825 90.0435C53.3597 90.0888 53.4536 90.1122 53.4912 90.0956C53.5288 90.079 53.6807 90.1093 53.829 90.1628C53.9773 90.2164 54.1286 90.2469 54.1654 90.2306C54.2023 90.2144 54.3444 90.249 54.4815 90.3075C54.6186 90.3659 54.7579 90.4018 54.7909 90.3872C54.8241 90.3725 54.983 90.4079 55.144 90.4657C55.5735 90.6201 56.3036 90.8333 56.3841 90.8279C56.4225 90.8253 56.5742 90.8628 56.7209 90.9111C57.2715 91.0924 57.4872 91.1439 57.5607 91.1117C57.6022 91.0933 57.6481 91.1055 57.6628 91.1387C57.6775 91.1719 57.7438 91.1751 57.8102 91.1457C57.8766 91.1164 57.9429 91.1195 57.9576 91.1527C57.9723 91.186 58.0386 91.1891 58.105 91.1598C58.1714 91.1304 58.2378 91.1336 58.2524 91.1668C58.2671 91.2 58.3725 91.1859 58.4868 91.1354C58.601 91.0849 58.7234 91.0634 58.7586 91.0875C58.7938 91.1116 59.0248 91.042 59.2718 90.9329C59.531 90.8184 59.7097 90.7089 59.6943 90.6741C59.6796 90.6409 59.7763 90.5657 59.9091 90.507C60.0419 90.4483 60.1386 90.3731 60.1239 90.3399C60.1092 90.3067 60.1652 90.2496 60.2482 90.2129C60.3312 90.1762 60.3871 90.119 60.3724 90.0858C60.3578 90.0526 60.3865 90.0075 60.4363 89.9855C60.4861 89.9635 60.5149 89.9183 60.5002 89.8851C60.4855 89.8519 60.5019 89.8122 60.5366 89.7968C60.5713 89.7815 60.6382 89.6789 60.685 89.5689C60.7318 89.4589 60.792 89.3227 60.8186 89.2662C60.9016 89.0895 60.9655 88.8151 60.9379 88.7528C60.9235 88.72 60.9388 88.6811 60.972 88.6665C61.0052 88.6518 61.0083 88.5855 60.979 88.5191C60.9496 88.4527 60.9528 88.3863 60.986 88.3716C61.0192 88.357 61.0104 88.2635 60.9663 88.1639C60.9223 88.0643 60.9135 87.9707 60.9467 87.9561C60.9837 87.9397 60.8782 87.6377 60.6737 87.1748C60.4691 86.7119 60.3169 86.4305 60.2799 86.4468C60.2467 86.4615 60.1835 86.392 60.1395 86.2924C60.0955 86.1928 60.0323 86.1233 59.9991 86.1379C59.9659 86.1526 59.9174 86.1163 59.8913 86.0572C59.8652 85.9982 59.7722 85.9346 59.6846 85.9161C59.5971 85.8976 59.5062 85.8413 59.4826 85.7911C59.4589 85.7408 59.2673 85.6459 59.0566 85.5803C58.8459 85.5146 58.554 85.4205 58.4076 85.3713C58.2613 85.3219 58.0156 85.2519 57.8614 85.2158C57.5399 85.1401 57.2341 85.0548 57.0727 84.9957C57.0114 84.9732 56.9321 84.9676 56.8966 84.9833C56.8611 84.999 56.672 84.9526 56.4764 84.8803C56.2809 84.808 56.0975 84.7591 56.069 84.7717C56.0403 84.7844 55.9118 84.7602 55.7833 84.7181C55.3396 84.5723 55.0537 84.4989 55.0079 84.519C54.9827 84.5301 54.8409 84.4953 54.6926 84.4418C54.5443 84.3883 54.3863 84.3607 54.3415 84.3805C54.2965 84.4003 54.2499 84.3939 54.2377 84.3664C54.2255 84.3388 54.1238 84.3107 54.0117 84.3039C53.8995 84.297 53.7341 84.2673 53.6442 84.2376C53.554 84.208 53.4573 84.1939 53.4289 84.2064C53.4005 84.219 53.294 84.2004 53.1921 84.1649C53.0903 84.1297 52.978 84.1295 52.9426 84.1648C52.9071 84.2 52.8628 84.1941 52.8441 84.1517C52.8254 84.1094 52.6802 84.0747 52.5215 84.0748C52.3628 84.075 52.2218 84.0498 52.2082 84.019C52.1946 83.9882 52.1427 83.981 52.0929 84.003C52.0431 84.025 51.9903 84.0158 51.9757 83.9826C51.961 83.9494 51.907 83.9408 51.8559 83.9634C51.8047 83.986 51.6805 83.976 51.5799 83.941C51.4793 83.9061 51.3613 83.8933 51.3178 83.9125C51.2742 83.9318 51.2266 83.9204 51.2119 83.8872C51.1973 83.8539 51.137 83.8481 51.0778 83.8743C51.0188 83.9003 50.9072 83.8847 50.8301 83.8394C50.7529 83.7941 50.6413 83.7785 50.5823 83.8046C50.5232 83.8307 50.4629 83.8249 50.4482 83.7917C50.4335 83.7585 50.3672 83.7553 50.3008 83.7846C50.2344 83.814 50.168 83.8108 50.1534 83.7776C50.1387 83.7444 50.0847 83.7358 50.0336 83.7584C49.9824 83.781 49.8582 83.7709 49.7576 83.736C49.657 83.7011 49.539 83.6883 49.4955 83.7075C49.4519 83.7268 49.4043 83.7153 49.3896 83.6821C49.375 83.6489 49.3109 83.6448 49.2472 83.6729C49.1837 83.701 49.1135 83.7074 49.0912 83.6873C49.0691 83.6671 48.819 83.6399 48.5353 83.6266C48.2517 83.6134 48.0015 83.5861 47.9794 83.5659C47.9572 83.5458 47.8887 83.5516 47.8269 83.5788C47.7654 83.6061 47.684 83.6073 47.6465 83.5815C47.6089 83.5557 47.5465 83.566 47.5081 83.6043C47.4695 83.6426 47.4268 83.649 47.4133 83.6184C47.386 83.5567 46.7686 83.5413 46.6379 83.5991C46.5924 83.6192 46.5431 83.6085 46.5284 83.5753C46.5137 83.5421 46.4491 83.5382 46.3846 83.5667C46.3202 83.5952 46.2386 83.5987 46.2034 83.5746C46.1682 83.5505 46.0866 83.5541 46.0222 83.5825C45.9577 83.611 45.8931 83.6071 45.8784 83.5739C45.8637 83.5407 45.799 83.5368 45.7346 83.5653C45.6701 83.5938 45.5886 83.5973 45.5534 83.5732C45.5182 83.5491 45.4366 83.5526 45.3721 83.5811C45.3077 83.6096 45.243 83.6057 45.2284 83.5725C45.2137 83.5393 45.1338 83.5421 45.0508 83.5788C44.9678 83.6155 44.8878 83.6183 44.8732 83.5851C44.8585 83.5519 44.7922 83.5487 44.7258 83.5781C44.6593 83.6074 44.593 83.6043 44.5783 83.5711C44.5637 83.5378 44.4702 83.5467 44.3706 83.5907C44.2709 83.6347 44.1774 83.6436 44.1628 83.6104C44.1481 83.5771 44.0818 83.574 44.0154 83.6033C43.9489 83.6327 43.8826 83.6295 43.8679 83.5963C43.8533 83.5631 43.7598 83.5719 43.6602 83.616C43.5605 83.66 43.467 83.6688 43.4524 83.6356C43.4377 83.6024 43.3594 83.6045 43.2784 83.6403C43.1974 83.6761 43.1022 83.6857 43.067 83.6616C43.0318 83.6374 42.9502 83.641 42.8858 83.6695C42.8213 83.6979 42.7567 83.6941 42.742 83.6608C42.7273 83.6276 42.6491 83.6297 42.568 83.6656C42.487 83.7014 42.3918 83.7109 42.3566 83.6868C42.3214 83.6627 42.2262 83.6722 42.1452 83.7081C42.0642 83.7439 41.9859 83.746 41.9712 83.7128C41.9565 83.6796 41.8647 83.6877 41.7671 83.7308C41.6694 83.774 41.5607 83.7895 41.5255 83.7654C41.4903 83.7413 41.4084 83.745 41.3435 83.7736C41.2786 83.8023 41.1678 83.8228 41.0973 83.8191C40.8819 83.808 40.4853 83.8642 40.3465 83.9255C40.274 83.9575 40.2029 83.9565 40.1882 83.9233C40.1735 83.8901 40.0817 83.8982 39.9841 83.9413C39.8864 83.9845 39.7749 83.9982 39.7365 83.9717C39.698 83.9454 39.6029 83.9678 39.525 84.0215C39.4473 84.0753 39.3328 84.0997 39.271 84.0758C39.209 84.0518 38.986 84.0856 38.7755 84.1508C38.5649 84.2161 38.3667 84.2517 38.3351 84.2299C38.3033 84.2081 38.1566 84.2437 38.0092 84.3088C37.8617 84.374 37.7291 84.4001 37.7145 84.3669C37.6998 84.3337 37.5791 84.3545 37.4463 84.4132C37.3135 84.4719 37.1928 84.4927 37.1782 84.4595C37.1635 84.4263 37.0292 84.4531 36.8798 84.5192C36.7304 84.5852 36.5961 84.612 36.5815 84.5788C36.5668 84.5456 36.419 84.5785 36.253 84.6518C36.0869 84.7252 35.9391 84.758 35.9244 84.7248C35.9096 84.6913 35.7367 84.7356 35.5355 84.8245C35.3344 84.9134 35.1614 84.9577 35.1466 84.9241C35.132 84.8909 34.9706 84.9298 34.7879 85.0105C34.6053 85.0912 34.4439 85.13 34.4292 85.0968C34.414 85.0622 34.2214 85.1165 33.98 85.2231C33.7385 85.3298 33.546 85.384 33.5307 85.3495C33.5152 85.3143 33.3028 85.378 33.0211 85.5025C32.7393 85.627 32.527 85.6907 32.5114 85.6555C32.4953 85.619 32.2232 85.7107 31.8207 85.8885C31.4182 86.0664 31.1461 86.1581 31.1299 86.1216C31.1125 86.0822 30.0367 86.5324 28.0244 87.4215C26.0121 88.3106 24.9548 88.8028 24.9722 88.8422ZM30.1216 96.7409C30.138 96.7781 29.8464 96.9347 29.3634 97.148C28.8805 97.3614 28.5889 97.518 28.6053 97.5552C28.6205 97.5896 28.4442 97.7001 28.1957 97.8122C27.5483 98.1041 26.8415 98.5237 26.8499 98.6112C26.8547 98.6621 26.7436 98.7231 26.5217 98.7916C26.3021 98.8592 26.1821 98.9249 26.1742 98.9812C26.1677 99.0286 26.0416 99.1208 25.8941 99.1859C25.7467 99.2511 25.6381 99.3315 25.6528 99.3647C25.6674 99.3979 25.5436 99.4851 25.3776 99.5585C25.2116 99.6318 25.0877 99.719 25.1024 99.7522C25.1171 99.7854 25.0085 99.8659 24.861 99.931C24.7136 99.9962 24.5881 100.084 24.5822 100.126C24.5764 100.169 24.4797 100.244 24.3674 100.293C24.2551 100.343 24.1585 100.418 24.1526 100.46C24.1468 100.503 24.0484 100.579 23.9342 100.629C23.8199 100.68 23.7385 100.748 23.7532 100.781C23.7679 100.814 23.6984 100.878 23.5987 100.922C23.4991 100.966 23.4296 101.029 23.4443 101.062C23.459 101.095 23.3623 101.17 23.2295 101.229C23.0967 101.288 23 101.363 23.0147 101.396C23.0294 101.429 22.9599 101.493 22.8603 101.537C22.7606 101.581 22.6911 101.644 22.7058 101.677C22.7205 101.71 22.651 101.773 22.5514 101.817C22.4518 101.861 22.3823 101.925 22.3969 101.958C22.4116 101.991 22.3421 102.054 22.2425 102.098C22.1429 102.142 22.0734 102.205 22.0881 102.238C22.1027 102.272 22.0332 102.335 21.9336 102.379C21.834 102.423 21.7645 102.486 21.7792 102.519C21.7939 102.552 21.7396 102.609 21.6586 102.645C21.5775 102.681 21.5064 102.744 21.5005 102.787C21.4946 102.829 21.4235 102.893 21.3424 102.929C21.2614 102.965 21.2071 103.021 21.2218 103.054C21.2365 103.087 21.1941 103.139 21.1277 103.168C21.0613 103.197 21.019 103.248 21.0337 103.282C21.0483 103.315 20.9788 103.378 20.8792 103.422C20.7796 103.466 20.7101 103.529 20.7248 103.562C20.7395 103.596 20.6836 103.653 20.6005 103.689C20.5175 103.726 20.4616 103.783 20.4763 103.816C20.491 103.85 20.4351 103.907 20.352 103.944C20.269 103.98 20.2131 104.037 20.2278 104.071C20.2425 104.104 20.2001 104.155 20.1337 104.184C20.0673 104.214 20.0237 104.262 20.0367 104.291C20.0497 104.321 19.9916 104.391 19.9076 104.448C19.6776 104.604 19.407 104.891 19.3903 104.997C19.3824 105.048 19.329 105.093 19.2717 105.096C19.2145 105.098 19.181 105.131 19.1972 105.168C19.2135 105.204 19.1724 105.258 19.106 105.288C19.0396 105.317 18.9973 105.368 19.0119 105.401C19.0266 105.435 18.9843 105.486 18.9179 105.515C18.8515 105.545 18.8091 105.596 18.8238 105.629C18.8385 105.662 18.7961 105.713 18.7297 105.743C18.6633 105.772 18.621 105.823 18.6357 105.856C18.6503 105.89 18.608 105.941 18.5416 105.97C18.4752 105.999 18.4329 106.051 18.4475 106.084C18.4622 106.117 18.4199 106.168 18.3535 106.197C18.2871 106.227 18.2447 106.278 18.2594 106.311C18.2741 106.344 18.2317 106.396 18.1653 106.425C18.0989 106.454 18.0566 106.505 18.0713 106.539C18.0859 106.572 18.0436 106.623 17.9772 106.652C17.9108 106.682 17.8685 106.733 17.8831 106.766C17.8978 106.799 17.8807 106.839 17.8452 106.855C17.8097 106.871 17.6981 107.017 17.5974 107.181C17.4967 107.344 17.3851 107.491 17.3496 107.507C17.3142 107.523 17.297 107.563 17.3117 107.596C17.3264 107.629 17.2901 107.677 17.2309 107.704C17.1719 107.73 17.1084 107.823 17.0899 107.91C17.0714 107.998 17.0078 108.091 16.9488 108.117C16.8897 108.143 16.8534 108.192 16.868 108.225C16.8827 108.258 16.8464 108.306 16.7872 108.333C16.7282 108.359 16.6647 108.452 16.6462 108.539C16.6277 108.627 16.5642 108.72 16.5052 108.746C16.446 108.772 16.4077 108.816 16.4198 108.843C16.432 108.871 16.3843 108.965 16.3138 109.053C16.1647 109.238 15.9028 109.627 15.8365 109.762C15.8112 109.813 15.7623 109.868 15.7277 109.883C15.6932 109.898 15.6742 109.932 15.6857 109.958C15.6972 109.984 15.6458 110.09 15.5716 110.194C15.4973 110.298 15.3997 110.478 15.3547 110.594C15.3097 110.71 15.2418 110.819 15.2039 110.836C15.1659 110.853 15.0947 110.982 15.0456 111.122C14.9965 111.263 14.9245 111.392 14.8854 111.41C14.8463 111.427 14.758 111.596 14.689 111.785C14.62 111.974 14.5387 112.14 14.5082 112.154C14.4777 112.167 14.3799 112.348 14.2907 112.556C14.2017 112.764 14.0985 113.001 14.0613 113.084C13.9234 113.388 13.8291 113.758 13.8674 113.845C13.8891 113.894 13.8798 113.946 13.8466 113.961C13.8134 113.976 13.8095 114.04 13.838 114.105C13.8664 114.169 13.87 114.251 13.8459 114.286C13.8217 114.321 13.8426 114.442 13.8922 114.554C13.9418 114.667 13.9626 114.787 13.9385 114.822C13.8809 114.906 14.246 115.733 14.3253 115.698C14.3585 115.683 14.4336 115.78 14.4923 115.913C14.551 116.045 14.6262 116.142 14.6594 116.127C14.6926 116.113 14.7475 116.164 14.7814 116.24C14.8153 116.317 14.9232 116.414 15.0211 116.456C15.119 116.498 15.2115 116.56 15.2266 116.595C15.2572 116.664 15.5838 116.834 15.8231 116.906C15.9081 116.931 16.0285 116.97 16.0906 116.992C16.1527 117.014 16.2326 117.02 16.2681 117.004C16.3037 116.988 16.3449 117.003 16.3595 117.036C16.3742 117.069 16.4405 117.072 16.5069 117.043C16.5733 117.013 16.6397 117.017 16.6544 117.05C16.669 117.083 16.7625 117.074 16.8621 117.03C16.9617 116.986 17.0553 116.977 17.0699 117.011C17.0863 117.048 17.3883 116.942 17.8512 116.738C18.3141 116.533 18.5955 116.381 18.5792 116.344C18.5645 116.311 18.634 116.247 18.7336 116.203C18.8332 116.159 18.9027 116.096 18.888 116.063C18.8734 116.03 18.9157 115.979 18.9821 115.949C19.0485 115.92 19.0917 115.871 19.078 115.84C19.0643 115.809 19.101 115.741 19.1595 115.689C19.2181 115.638 19.3177 115.461 19.3811 115.298C19.4443 115.134 19.521 114.99 19.5512 114.976C19.5815 114.963 19.6703 114.794 19.7485 114.6C19.8267 114.407 19.908 114.241 19.9293 114.232C19.9506 114.223 20.0098 114.099 20.061 113.957C20.1123 113.816 20.1824 113.687 20.2168 113.672C20.2512 113.657 20.3145 113.553 20.3576 113.442C20.4007 113.331 20.5055 113.167 20.5903 113.078C20.6753 112.989 20.7342 112.892 20.7212 112.863C20.7084 112.834 20.7334 112.794 20.7771 112.775C20.8205 112.756 20.8878 112.669 20.9266 112.583C20.9652 112.496 21.0546 112.354 21.125 112.266C21.1955 112.179 21.2432 112.085 21.231 112.057C21.2189 112.03 21.2445 111.991 21.2881 111.972C21.3316 111.953 21.4016 111.857 21.4435 111.759C21.4854 111.661 21.5616 111.563 21.6128 111.54C21.6639 111.517 21.6939 111.472 21.6792 111.438C21.6646 111.405 21.6933 111.36 21.7431 111.338C21.7929 111.316 21.8217 111.271 21.807 111.238C21.7923 111.205 21.8211 111.159 21.8709 111.137C21.9207 111.115 21.9494 111.07 21.9348 111.037C21.9201 111.004 21.9488 110.959 21.9986 110.937C22.0484 110.915 22.0772 110.869 22.0625 110.836C22.0478 110.803 22.0902 110.752 22.1566 110.722C22.223 110.693 22.2653 110.642 22.2507 110.609C22.236 110.576 22.2783 110.524 22.3447 110.495C22.4111 110.466 22.4535 110.415 22.4388 110.381C22.4241 110.348 22.4477 110.305 22.4914 110.286C22.5348 110.267 22.6048 110.171 22.6467 110.073C22.6886 109.975 22.7648 109.877 22.816 109.854C22.8672 109.831 22.8971 109.786 22.8825 109.752C22.8678 109.719 22.9101 109.668 22.9765 109.639C23.0429 109.609 23.0853 109.558 23.0706 109.525C23.0559 109.492 23.0982 109.441 23.1647 109.411C23.2311 109.382 23.2734 109.331 23.2587 109.298C23.2441 109.264 23.2864 109.213 23.3528 109.184C23.4192 109.154 23.4615 109.103 23.4469 109.07C23.4322 109.037 23.4637 108.991 23.5168 108.967C23.6067 108.927 23.8651 108.67 24.05 108.437C24.0943 108.381 24.1715 108.317 24.2218 108.295C24.2721 108.273 24.3011 108.227 24.2864 108.194C24.2718 108.161 24.3141 108.11 24.3805 108.08C24.4469 108.051 24.4892 108 24.4746 107.967C24.4599 107.933 24.5142 107.877 24.5952 107.841C24.6763 107.805 24.7474 107.741 24.7533 107.699C24.7591 107.657 24.8167 107.599 24.8811 107.571C24.9456 107.542 24.9863 107.492 24.9716 107.458C24.9569 107.425 25.0264 107.362 25.126 107.318C25.2256 107.274 25.2951 107.211 25.2805 107.178C25.2658 107.144 25.3217 107.087 25.4047 107.051C25.4877 107.014 25.5436 106.957 25.529 106.924C25.5143 106.89 25.5686 106.834 25.6496 106.798C25.7306 106.762 25.8018 106.698 25.8077 106.656C25.8135 106.614 25.883 106.551 25.9621 106.516C26.0412 106.481 26.1107 106.418 26.1165 106.375C26.1224 106.333 26.1919 106.27 26.271 106.235C26.3501 106.2 26.4195 106.137 26.4254 106.095C26.4313 106.052 26.516 105.982 26.6137 105.939C26.7113 105.896 26.7791 105.834 26.7645 105.8C26.7498 105.767 26.8193 105.704 26.9189 105.66C27.0185 105.616 27.088 105.553 27.0733 105.52C27.0587 105.486 27.1401 105.418 27.2543 105.368C27.3686 105.317 27.4669 105.241 27.4728 105.199C27.4786 105.157 27.577 105.081 27.6912 105.03C27.8055 104.98 27.8869 104.911 27.8722 104.878C27.8575 104.845 27.9542 104.77 28.087 104.711C28.2198 104.652 28.3165 104.577 28.3018 104.544C28.2872 104.511 28.3838 104.436 28.5166 104.377C28.6494 104.318 28.7461 104.243 28.7314 104.21C28.7168 104.177 28.8542 104.083 29.0368 104.003C29.2194 103.922 29.3568 103.829 29.3422 103.796C29.3275 103.762 29.4649 103.669 29.6475 103.589C29.8301 103.508 29.9676 103.415 29.9529 103.382C29.9378 103.347 30.0972 103.246 30.3186 103.148C30.54 103.05 30.6994 102.948 30.6844 102.914C30.6686 102.878 30.8791 102.756 31.201 102.614C31.5229 102.471 31.7335 102.349 31.7177 102.313C31.7003 102.274 32.535 101.88 34.1022 101.188C35.6446 100.506 36.5366 100.138 36.5775 100.166C36.6129 100.19 36.8965 100.097 37.2115 99.9581C37.5512 99.808 37.7922 99.7307 37.808 99.7667C37.8227 99.7999 37.9825 99.7617 38.1631 99.6819C38.3438 99.6021 38.5204 99.5565 38.5556 99.5807C38.5908 99.6048 38.7675 99.5592 38.9482 99.4794C39.1288 99.3996 39.2886 99.3615 39.3032 99.3947C39.3179 99.4279 39.4657 99.395 39.6318 99.3217C39.7978 99.2483 39.9456 99.2155 39.9603 99.2487C39.975 99.2819 40.1228 99.249 40.2888 99.1757C40.4548 99.1023 40.6027 99.0695 40.6173 99.1027C40.632 99.1359 40.7391 99.121 40.8553 99.0697C40.9715 99.0184 41.0786 99.0035 41.0933 99.0367C41.1079 99.0699 41.2286 99.0491 41.3614 98.9904C41.4942 98.9317 41.6149 98.9109 41.6296 98.9441C41.6442 98.9773 41.7377 98.9684 41.8374 98.9244C41.937 98.8804 42.0305 98.8716 42.0451 98.9048C42.0598 98.938 42.1805 98.9171 42.3133 98.8585C42.4461 98.7998 42.5668 98.7789 42.5814 98.8121C42.5961 98.8453 42.6896 98.8365 42.7892 98.7925C42.8888 98.7485 42.9823 98.7396 42.997 98.7728C43.0117 98.806 43.1052 98.7972 43.2048 98.7532C43.3044 98.7092 43.3979 98.7003 43.4126 98.7335C43.4273 98.7667 43.5055 98.7646 43.5866 98.7288C43.6676 98.693 43.7628 98.6835 43.798 98.7076C43.8332 98.7317 43.9283 98.7221 44.0094 98.6863C44.0904 98.6505 44.1687 98.6484 44.1833 98.6816C44.198 98.7148 44.2647 98.7179 44.3315 98.6883C44.3984 98.6588 44.519 98.6379 44.5997 98.642C44.6803 98.6461 44.8124 98.6526 44.893 98.6567C44.9736 98.6608 45.0943 98.6399 45.1611 98.6104C45.228 98.5808 45.2946 98.5839 45.3093 98.6171C45.324 98.6503 45.3903 98.6534 45.4567 98.6241C45.5231 98.5948 45.5873 98.5929 45.5993 98.6203C45.6113 98.6474 45.7733 98.6466 45.9593 98.6185C46.1454 98.5904 46.3073 98.5896 46.3193 98.6167C46.3314 98.6441 46.3891 98.6462 46.4477 98.6215C46.5063 98.5969 46.6245 98.5934 46.7105 98.6137C46.7966 98.6339 46.9161 98.6287 46.976 98.6022C47.0361 98.5757 47.0973 98.5811 47.112 98.6143C47.1266 98.6475 47.193 98.6507 47.2594 98.6214C47.3258 98.592 47.3921 98.5952 47.4068 98.6284C47.4215 98.6616 47.4878 98.6647 47.5542 98.6354C47.6206 98.6061 47.6869 98.6092 47.7016 98.6424C47.7163 98.6756 47.7826 98.6788 47.849 98.6495C47.9154 98.6201 47.9818 98.6233 47.9964 98.6565C48.0111 98.6897 48.0774 98.6928 48.1439 98.6635C48.2103 98.6342 48.2766 98.6373 48.2913 98.6705C48.3059 98.7037 48.3723 98.7069 48.4387 98.6775C48.5051 98.6482 48.5714 98.6514 48.5861 98.6846C48.6008 98.7178 48.6671 98.7209 48.7335 98.6916C48.7999 98.6623 48.8663 98.6654 48.8809 98.6986C48.8956 98.7318 48.9559 98.7377 49.0151 98.7115C49.0741 98.6854 49.1856 98.7011 49.2628 98.7464C49.34 98.7916 49.4515 98.8073 49.5105 98.7812C49.5697 98.7551 49.63 98.7609 49.6447 98.7941C49.6593 98.8273 49.7121 98.8365 49.7619 98.8145C49.8117 98.7925 49.8644 98.8016 49.8791 98.8348C49.8938 98.868 49.9465 98.8772 49.9963 98.8552C50.0461 98.8332 50.0989 98.8424 50.1136 98.8756C50.1282 98.9088 50.181 98.9179 50.2308 98.8959C50.2806 98.8739 50.3334 98.8831 50.348 98.9163C50.3627 98.9495 50.429 98.9526 50.4954 98.9233C50.5618 98.894 50.6262 98.8926 50.6383 98.9201C50.6505 98.9477 50.7522 98.9758 50.8643 98.9825C50.9765 98.9894 51.1419 99.0192 51.2319 99.0489C51.322 99.0785 51.4313 99.0871 51.4748 99.0679C51.5184 99.0486 51.5652 99.0582 51.5789 99.0891C51.5926 99.1201 51.6621 99.1391 51.7332 99.1314C51.8475 99.1189 51.9668 99.1429 52.353 99.2558C52.4081 99.2719 52.4889 99.2692 52.5328 99.2498C52.5768 99.2304 52.6758 99.2516 52.753 99.2968C52.8301 99.3421 52.9145 99.3698 52.9403 99.3584C52.9661 99.3469 53.1473 99.3968 53.3428 99.4691C53.5384 99.5415 53.7222 99.5901 53.7514 99.5773C53.7805 99.5644 53.9644 99.613 54.1599 99.6854C54.3555 99.7577 54.5469 99.803 54.5854 99.786C54.6238 99.769 54.7185 99.7921 54.7957 99.8374C54.8729 99.8827 54.9844 99.8983 55.0434 99.8723C55.1026 99.8461 55.1629 99.8519 55.1775 99.8852C55.1922 99.9184 55.2585 99.9215 55.325 99.8922C55.3914 99.8628 55.4577 99.866 55.4724 99.8992C55.487 99.9324 55.5653 99.9303 55.6463 99.8945C55.7274 99.8587 55.8226 99.8491 55.8577 99.8732C55.8945 99.8983 56.2171 99.7866 56.6125 99.6119C57.0327 99.4263 57.2927 99.2831 57.2765 99.2464C57.2618 99.2132 57.3313 99.15 57.4309 99.106C57.5305 99.062 57.6 98.9989 57.5853 98.9657C57.5707 98.9324 57.613 98.8813 57.6794 98.8519C57.7458 98.8226 57.7881 98.7714 57.7735 98.7382C57.7588 98.705 57.7842 98.6613 57.8301 98.641C57.9739 98.5775 58.3261 97.5463 58.2582 97.3876C58.2403 97.3459 58.2527 97.2998 58.2859 97.2852C58.3191 97.2705 58.323 97.2058 58.2946 97.1414C58.2661 97.0769 58.2625 96.9953 58.2867 96.9601C58.3108 96.925 58.2892 96.8026 58.2387 96.6884C58.1883 96.5741 58.1741 96.4687 58.2074 96.454C58.2428 96.4384 58.1744 96.2161 58.041 95.9142C57.9076 95.6124 57.7894 95.4121 57.7539 95.4277C57.7207 95.4424 57.6455 95.3457 57.5868 95.2129C57.5282 95.0801 57.453 94.9834 57.4198 94.9981C57.3866 95.0128 57.3354 94.9705 57.3061 94.904C57.2767 94.8376 57.2256 94.7953 57.1924 94.81C57.1592 94.8247 57.1106 94.7884 57.0845 94.7292C57.0584 94.6702 56.9654 94.6067 56.8779 94.5882C56.7903 94.5696 56.7088 94.5321 56.6967 94.5048C56.6711 94.4468 56.2656 94.2814 56.2098 94.3061C56.1891 94.3152 56.0197 94.2602 55.8334 94.1838C55.647 94.1074 55.4686 94.0563 55.4369 94.0703C55.405 94.0844 55.2191 94.0367 55.0235 93.9643C54.828 93.892 54.6449 93.843 54.6166 93.8555C54.5884 93.868 54.444 93.8343 54.2957 93.7808C54.1474 93.7273 53.9961 93.6967 53.9593 93.713C53.9225 93.7293 53.7804 93.6946 53.6432 93.6362C53.5061 93.5777 53.3684 93.5412 53.3371 93.555C53.3057 93.5688 53.2069 93.5476 53.1175 93.5077C53.0281 93.4678 52.9307 93.4459 52.9013 93.4589C52.8718 93.4719 52.7644 93.4537 52.6625 93.4183C52.5607 93.383 52.4503 93.3809 52.4171 93.414C52.384 93.4468 52.3263 93.4431 52.289 93.4056C52.2516 93.368 52.1041 93.3342 51.9611 93.3304C51.8182 93.3265 51.6905 93.2992 51.6775 93.2698C51.6645 93.2403 51.6056 93.2377 51.5464 93.2638C51.4874 93.2899 51.3759 93.2742 51.2987 93.229C51.2215 93.1837 51.1099 93.168 51.0509 93.1941C50.9918 93.2202 50.9315 93.2144 50.9168 93.1812C50.9021 93.148 50.8545 93.1366 50.8109 93.1559C50.7674 93.1751 50.6494 93.1623 50.5488 93.1273C50.4482 93.0924 50.324 93.0823 50.2729 93.1049C50.2217 93.1276 50.1677 93.1189 50.1531 93.0857C50.1384 93.0525 50.0856 93.0434 50.0358 93.0654C49.986 93.0874 49.9333 93.0782 49.9186 93.045C49.9039 93.0118 49.8512 93.0026 49.8014 93.0246C49.7516 93.0466 49.7011 93.0426 49.6892 93.0156C49.6772 92.9886 49.5559 92.9711 49.4195 92.9769C49.2832 92.9827 49.1618 92.9652 49.1499 92.9382C49.1379 92.9112 49.0739 92.9131 49.0075 92.9425C48.9411 92.9718 48.8747 92.9687 48.86 92.9355C48.8454 92.9023 48.779 92.8991 48.7126 92.9284C48.6462 92.9578 48.5799 92.9546 48.5652 92.9214C48.5506 92.8882 48.4842 92.885 48.4178 92.9144C48.3514 92.9437 48.2851 92.9406 48.2704 92.9074C48.2557 92.8742 48.1894 92.871 48.123 92.9003C48.0566 92.9297 47.9902 92.9265 47.9756 92.8933C47.9609 92.8601 47.8946 92.8569 47.8282 92.8863C47.7617 92.9156 47.6954 92.9125 47.6807 92.8793C47.6661 92.8461 47.5997 92.8429 47.5333 92.8722C47.4669 92.9016 47.4006 92.8984 47.3859 92.8652C47.3712 92.832 47.3049 92.8288 47.2385 92.8582C47.1721 92.8875 47.1045 92.8815 47.0882 92.8447C47.072 92.808 47.0267 92.8096 46.9876 92.8485C46.9486 92.8874 46.89 92.8924 46.8575 92.8597C46.825 92.827 46.6155 92.8183 46.3921 92.8405C46.1687 92.8628 45.9502 92.87 45.9066 92.8566C45.8629 92.8432 45.7784 92.8539 45.7186 92.8803C45.6588 92.9067 45.5979 92.9012 45.5833 92.868C45.5686 92.8348 45.5023 92.8316 45.4358 92.8609C45.3694 92.8903 45.3031 92.8871 45.2884 92.8539C45.2738 92.8207 45.1803 92.8296 45.0807 92.8736C44.981 92.9176 44.8875 92.9264 44.8729 92.8932C44.8582 92.86 44.7919 92.8568 44.7255 92.8862C44.659 92.9155 44.5927 92.9124 44.578 92.8792C44.5634 92.846 44.4699 92.8548 44.3703 92.8988C44.2706 92.9428 44.1771 92.9517 44.1625 92.9185C44.1478 92.8853 44.0695 92.8874 43.9885 92.9232C43.9074 92.959 43.8123 92.9686 43.7771 92.9444C43.7419 92.9203 43.6467 92.9299 43.5657 92.9657C43.4846 93.0015 43.4064 93.0036 43.3917 92.9704C43.377 92.9372 43.2835 92.946 43.1839 92.99C43.0843 93.034 42.9908 93.0429 42.9761 93.0097C42.9615 92.9765 42.8832 92.9786 42.8022 93.0144C42.7211 93.0502 42.626 93.0598 42.5908 93.0356C42.5556 93.0115 42.4468 93.0271 42.3492 93.0702C42.2515 93.1134 42.1597 93.1215 42.145 93.0883C42.1303 93.0551 42.0368 93.0639 41.9372 93.1079C41.8376 93.1519 41.7441 93.1608 41.7294 93.1276C41.7148 93.0944 41.6093 93.1085 41.4951 93.159C41.3808 93.2094 41.2585 93.231 41.2233 93.2069C41.1881 93.1827 41.0946 93.1916 41.0155 93.2265C40.9364 93.2615 40.8429 93.2703 40.8078 93.2462C40.7726 93.222 40.6519 93.2429 40.5396 93.2925C40.4273 93.3421 40.3066 93.3629 40.2714 93.3388C40.2363 93.3147 40.1156 93.3355 40.0033 93.3851C39.891 93.4347 39.7703 93.4556 39.7351 93.4315C39.6999 93.4073 39.5657 93.4342 39.4368 93.4911C39.3079 93.5481 39.1737 93.5749 39.1385 93.5508C39.1033 93.5266 38.9554 93.5595 38.8099 93.6238C38.6644 93.688 38.5166 93.7209 38.4814 93.6968C38.4462 93.6726 38.2984 93.7055 38.1529 93.7698C38.0074 93.834 37.856 93.8645 37.8166 93.8373C37.7696 93.8053 37.6402 93.8498 37.4424 93.9666C37.2336 94.0897 37.123 94.1261 37.0849 94.0843C37.0196 94.0124 36.3474 94.2155 35.6514 94.518C35.3608 94.6442 35.1408 94.7097 35.1253 94.6745C35.1089 94.6374 34.7967 94.7475 34.3138 94.9609C33.8308 95.1743 33.5187 95.2844 33.5023 95.2472C33.4852 95.2085 32.8719 95.4536 31.7853 95.9337C30.6986 96.4138 30.1044 96.7021 30.1216 96.7409ZM33.6981 105.405C33.6919 105.45 33.4435 105.591 33.1208 105.734C32.8084 105.872 32.5496 106.019 32.5438 106.061C32.5379 106.103 32.3581 106.215 32.1442 106.31C31.9252 106.406 31.7671 106.508 31.7821 106.542C31.7969 106.575 31.6478 106.673 31.4466 106.762C31.2454 106.851 31.0962 106.949 31.111 106.983C31.1257 107.016 31.0019 107.103 30.8358 107.176C30.6698 107.25 30.546 107.337 30.5607 107.37C30.5753 107.403 30.4787 107.479 30.3459 107.537C30.213 107.596 30.1164 107.671 30.131 107.704C30.1457 107.737 30.0355 107.819 29.8861 107.885C29.7366 107.951 29.6264 108.032 29.6411 108.065C29.6557 108.098 29.5862 108.161 29.4866 108.205C29.387 108.249 29.3175 108.313 29.3322 108.346C29.3469 108.379 29.2502 108.454 29.1174 108.513C28.9846 108.572 28.8879 108.647 28.9026 108.68C28.9172 108.713 28.8477 108.776 28.7481 108.82C28.6485 108.864 28.579 108.928 28.5937 108.961C28.6084 108.994 28.5389 109.057 28.4393 109.101C28.3396 109.145 28.2702 109.208 28.2848 109.242C28.2995 109.275 28.23 109.338 28.1304 109.382C28.0308 109.426 27.9613 109.489 27.9759 109.522C27.9906 109.556 27.9211 109.619 27.8215 109.663C27.7219 109.707 27.6524 109.77 27.6671 109.803C27.6817 109.836 27.6258 109.893 27.5428 109.93C27.4598 109.967 27.4039 110.024 27.4186 110.057C27.4332 110.09 27.4111 110.132 27.3693 110.15C27.1809 110.23 26.6977 110.709 26.7301 110.784C26.7518 110.834 26.722 110.868 26.6539 110.872C26.5925 110.875 26.4111 111.032 26.2508 111.223C26.0906 111.412 25.9251 111.583 25.8832 111.601C25.8412 111.62 25.8165 111.657 25.8285 111.684C25.8404 111.711 25.7716 111.813 25.6755 111.91C25.5794 112.007 25.5106 112.108 25.5226 112.135C25.5345 112.162 25.4899 112.208 25.4235 112.237C25.3571 112.267 25.3148 112.318 25.3294 112.351C25.3441 112.384 25.3018 112.436 25.2354 112.465C25.169 112.494 25.1266 112.545 25.1413 112.579C25.156 112.612 25.1136 112.663 25.0472 112.692C24.9808 112.722 24.9385 112.773 24.9532 112.806C24.9678 112.839 24.9255 112.89 24.8591 112.92C24.7927 112.949 24.7504 113 24.765 113.033C24.7797 113.067 24.7561 113.11 24.7125 113.129C24.669 113.148 24.599 113.244 24.5571 113.342C24.5152 113.44 24.439 113.538 24.3878 113.561C24.3366 113.583 24.3067 113.629 24.3214 113.662C24.336 113.696 24.2997 113.744 24.2406 113.77C24.1816 113.796 24.118 113.889 24.0995 113.977C24.081 114.064 24.0275 114.153 23.9807 114.174C23.9337 114.194 23.872 114.279 23.8435 114.361C23.7855 114.528 23.6894 114.68 23.4676 114.955C23.3843 115.059 23.3315 115.178 23.3504 115.221C23.3692 115.264 23.345 115.301 23.2965 115.303C23.248 115.306 23.1596 115.411 23.0999 115.537C23.0402 115.662 22.9712 115.774 22.9466 115.785C22.9222 115.796 22.8509 115.925 22.7882 116.072C22.7255 116.218 22.6516 116.348 22.6237 116.361C22.5229 116.405 22.1653 117.414 22.1509 117.695C22.0702 119.253 23.2048 120.791 24.4927 120.869C24.6049 120.875 24.7066 120.903 24.7188 120.931C24.7309 120.959 24.7936 120.958 24.858 120.929C24.9225 120.901 25.0041 120.897 25.0392 120.921C25.0744 120.946 25.1679 120.937 25.247 120.902C25.3261 120.867 25.4196 120.858 25.4548 120.882C25.4911 120.907 25.804 120.8 26.1794 120.634C26.5795 120.457 26.8293 120.319 26.8131 120.282C26.7985 120.249 26.868 120.186 26.9676 120.142C27.0672 120.098 27.1367 120.034 27.122 120.001C27.1073 119.968 27.1497 119.917 27.2161 119.888C27.2825 119.858 27.3248 119.807 27.3102 119.774C27.2955 119.741 27.3318 119.692 27.3909 119.666C27.45 119.64 27.5135 119.547 27.532 119.459C27.5505 119.372 27.6004 119.285 27.6428 119.266C27.6854 119.247 27.7081 119.205 27.6934 119.172C27.6788 119.138 27.6971 119.098 27.7342 119.081C27.7714 119.065 27.8567 118.938 27.924 118.799C28.1232 118.387 28.1896 118.272 28.3237 118.105C28.3938 118.018 28.441 117.924 28.4288 117.896C28.4167 117.869 28.4423 117.831 28.4859 117.811C28.5294 117.792 28.5994 117.696 28.6413 117.598C28.6832 117.5 28.7534 117.404 28.7973 117.385C28.8412 117.366 28.8922 117.278 28.9107 117.191C28.9292 117.103 28.9928 117.01 29.0518 116.984C29.1109 116.958 29.1472 116.909 29.1326 116.876C29.1179 116.843 29.1478 116.797 29.199 116.775C29.2502 116.752 29.3264 116.653 29.3683 116.556C29.4102 116.458 29.4802 116.362 29.5237 116.343C29.5673 116.323 29.5909 116.28 29.5762 116.247C29.5616 116.214 29.6039 116.163 29.6703 116.134C29.7367 116.104 29.7813 116.058 29.7694 116.031C29.7574 116.004 29.8262 115.903 29.9223 115.806C30.0184 115.709 30.0872 115.607 30.0753 115.58C30.0633 115.553 30.1079 115.507 30.1743 115.478C30.2407 115.449 30.2831 115.397 30.2684 115.364C30.2537 115.331 30.2961 115.28 30.3625 115.25C30.4289 115.221 30.4712 115.17 30.4565 115.137C30.4419 115.104 30.4842 115.052 30.5506 115.023C30.617 114.994 30.6593 114.943 30.6447 114.909C30.63 114.876 30.6886 114.818 30.775 114.78C30.8611 114.742 31.0117 114.623 31.1095 114.516C31.2072 114.409 31.3429 114.265 31.411 114.194C31.4791 114.124 31.5715 114.021 31.6162 113.966C31.6609 113.912 31.7505 113.843 31.8154 113.815C31.8803 113.786 31.9382 113.728 31.944 113.686C31.9499 113.644 32.0211 113.58 32.1021 113.544C32.1831 113.508 32.2374 113.452 32.2227 113.418C32.2081 113.385 32.2776 113.322 32.3772 113.278C32.4768 113.234 32.5463 113.171 32.5316 113.138C32.5169 113.104 32.5984 113.036 32.7126 112.985C32.8269 112.935 32.9252 112.859 32.931 112.817C32.9369 112.775 33.0216 112.705 33.1193 112.661C33.2169 112.618 33.2848 112.556 33.2701 112.523C33.2554 112.489 33.3504 112.415 33.4813 112.357C33.6121 112.299 33.724 112.218 33.7299 112.175C33.7358 112.133 33.8477 112.051 33.9785 111.993C34.1094 111.935 34.2044 111.861 34.1897 111.828C34.175 111.795 34.2972 111.708 34.4613 111.636C34.6253 111.563 34.7644 111.469 34.7702 111.427C34.7761 111.385 34.9543 111.274 35.1662 111.18C35.3781 111.086 35.5562 110.975 35.5621 110.933C35.568 110.89 35.8367 110.739 36.1693 110.592C36.5019 110.445 36.7705 110.295 36.7765 110.252C36.7829 110.205 37.202 109.992 37.8365 109.711C38.471 109.431 38.9112 109.265 38.9498 109.292C38.9861 109.317 39.299 109.21 39.6744 109.044C40.0745 108.867 40.3454 108.776 40.3615 108.812C40.3763 108.846 40.548 108.802 40.7468 108.714C40.944 108.627 41.1343 108.576 41.1695 108.6C41.2047 108.624 41.3813 108.578 41.562 108.498C41.7427 108.419 41.9024 108.38 41.9171 108.414C41.9318 108.447 42.0508 108.427 42.1816 108.369C42.3125 108.311 42.4484 108.284 42.4836 108.308C42.5188 108.332 42.6547 108.304 42.7855 108.246C42.9164 108.189 43.0354 108.168 43.0501 108.202C43.0647 108.235 43.1566 108.227 43.2542 108.184C43.3519 108.14 43.4606 108.125 43.4958 108.149C43.531 108.173 43.6533 108.152 43.7676 108.101C43.8818 108.051 43.9873 108.037 44.0019 108.07C44.0166 108.103 44.1101 108.094 44.2097 108.05C44.3093 108.006 44.4028 107.997 44.4175 108.03C44.4322 108.064 44.5104 108.062 44.5915 108.026C44.6725 107.99 44.7677 107.98 44.8029 108.004C44.8381 108.029 44.9145 108.027 44.9726 108.002C45.0309 107.976 45.215 107.959 45.3819 107.965C45.5485 107.971 45.7103 107.964 45.7414 107.951C45.7724 107.937 45.8935 107.932 46.0106 107.94C46.1275 107.947 46.2693 107.933 46.3256 107.909C46.3818 107.884 46.4566 107.884 46.4918 107.908C46.527 107.932 46.6222 107.922 46.7032 107.886C46.7843 107.851 46.8625 107.849 46.8772 107.882C46.8919 107.915 46.9582 107.918 47.0246 107.889C47.091 107.859 47.1574 107.863 47.172 107.896C47.1867 107.929 47.253 107.932 47.3194 107.903C47.3859 107.873 47.4499 107.871 47.4619 107.898C47.4738 107.926 47.5952 107.943 47.7315 107.937C47.8679 107.931 47.9892 107.949 48.0011 107.976C48.0131 108.003 48.0772 108.001 48.1436 107.972C48.21 107.942 48.2763 107.945 48.291 107.979C48.3056 108.012 48.3584 108.021 48.4082 107.999C48.458 107.977 48.5108 107.986 48.5254 108.019C48.5401 108.053 48.5928 108.062 48.6427 108.04C48.6925 108.018 48.7452 108.027 48.7599 108.06C48.7746 108.093 48.8409 108.096 48.9073 108.067C48.9737 108.038 49.04 108.041 49.0547 108.074C49.0694 108.107 49.1297 108.113 49.1888 108.087C49.2479 108.061 49.3594 108.077 49.4366 108.122C49.5138 108.167 49.6253 108.183 49.6843 108.157C49.7435 108.131 49.8018 108.132 49.8139 108.159C49.8261 108.187 49.9278 108.215 50.0398 108.222C50.1518 108.228 50.3085 108.262 50.388 108.296C50.4675 108.331 50.5708 108.342 50.6178 108.322C50.6646 108.301 50.7661 108.321 50.8433 108.366C50.9205 108.411 51.0136 108.435 51.0505 108.419C51.0871 108.403 51.2109 108.429 51.3256 108.478C51.4403 108.526 51.57 108.55 51.6141 108.531C51.658 108.511 51.7061 108.523 51.7208 108.556C51.7354 108.589 51.7822 108.601 51.8247 108.582C51.8671 108.563 51.9651 108.585 52.0423 108.63C52.1195 108.675 52.231 108.691 52.29 108.665C52.3492 108.639 52.4095 108.645 52.4241 108.678C52.4388 108.711 52.5051 108.714 52.5716 108.685C52.638 108.656 52.7043 108.659 52.719 108.692C52.7336 108.725 52.8271 108.716 52.9268 108.672C53.0264 108.628 53.1199 108.619 53.1345 108.653C53.1507 108.689 53.4216 108.598 53.8217 108.421C54.197 108.255 54.4869 108.096 54.4929 108.053C54.4987 108.01 54.5682 107.947 54.6473 107.912C54.7264 107.877 54.7959 107.814 54.8017 107.772C54.8076 107.729 54.8652 107.672 54.9296 107.643C54.9941 107.615 55.0367 107.569 55.0246 107.541C55.0124 107.514 55.0601 107.42 55.1306 107.332C56.1592 106.056 55.3338 103.731 53.6238 103.087C53.3395 102.98 53.0841 102.903 53.0563 102.915C53.0284 102.927 52.8825 102.894 52.7318 102.842C52.5811 102.789 52.4378 102.755 52.4133 102.766C52.3887 102.777 52.2596 102.753 52.1264 102.712C51.9933 102.671 51.856 102.666 51.8214 102.7C51.7869 102.734 51.7437 102.728 51.7255 102.687C51.7073 102.646 51.5747 102.603 51.4308 102.592C51.2869 102.581 51.1591 102.548 51.1468 102.521C51.1344 102.493 51.076 102.491 51.0168 102.517C50.9578 102.543 50.8463 102.528 50.7691 102.482C50.6919 102.437 50.5864 102.419 50.5346 102.442C50.4829 102.464 50.3774 102.446 50.3002 102.401C50.223 102.356 50.1115 102.34 50.0524 102.366C49.9933 102.392 49.933 102.386 49.9183 102.353C49.9036 102.32 49.8497 102.311 49.7985 102.334C49.7474 102.356 49.6231 102.346 49.5226 102.311C49.422 102.277 49.304 102.264 49.2605 102.283C49.2169 102.302 49.1692 102.291 49.1546 102.258C49.1399 102.224 49.0736 102.221 49.0072 102.251C48.9408 102.28 48.8744 102.277 48.8598 102.244C48.8451 102.21 48.7787 102.207 48.7123 102.237C48.6459 102.266 48.5796 102.263 48.5649 102.23C48.5503 102.196 48.4839 102.193 48.4175 102.222C48.3511 102.252 48.2876 102.256 48.2766 102.231C48.2655 102.206 48.077 102.184 47.858 102.181C47.639 102.179 47.4506 102.156 47.4395 102.131C47.4285 102.107 47.365 102.11 47.2986 102.14C47.2322 102.169 47.1658 102.166 47.1512 102.133C47.1365 102.099 47.0889 102.088 47.0453 102.107C47.0016 102.127 46.827 102.137 46.6568 102.132C46.4869 102.126 46.3299 102.147 46.308 102.179C46.2861 102.211 46.2303 102.211 46.184 102.179C46.1015 102.122 45.4435 102.166 45.2777 102.239C45.2316 102.259 45.1821 102.249 45.1674 102.215C45.1527 102.182 45.0728 102.185 44.9898 102.222C44.9068 102.258 44.8269 102.261 44.8122 102.228C44.7975 102.195 44.704 102.204 44.6044 102.248C44.5048 102.292 44.4113 102.3 44.3966 102.267C44.382 102.234 44.2885 102.243 44.1888 102.287C44.0892 102.331 43.9957 102.34 43.9811 102.307C43.9664 102.273 43.8729 102.282 43.7733 102.326C43.6737 102.37 43.5802 102.379 43.5655 102.346C43.5508 102.313 43.4573 102.322 43.3577 102.366C43.2581 102.41 43.1646 102.418 43.1499 102.385C43.1353 102.352 43.0298 102.366 42.9156 102.417C42.8013 102.467 42.679 102.489 42.6438 102.464C42.6086 102.44 42.4999 102.456 42.4022 102.499C42.3046 102.542 42.2127 102.55 42.1981 102.517C42.1834 102.484 42.0644 102.504 41.9335 102.562C41.8027 102.62 41.6668 102.647 41.6316 102.623C41.5964 102.599 41.4605 102.627 41.3296 102.684C41.1988 102.742 41.0797 102.762 41.0651 102.729C41.0504 102.696 40.9026 102.729 40.7365 102.802C40.5705 102.875 40.4227 102.908 40.408 102.875C40.3932 102.842 40.2203 102.886 40.0191 102.975C39.8179 103.064 39.645 103.108 39.6302 103.074C39.6153 103.041 39.4365 103.088 39.2232 103.182C39.014 103.274 38.8059 103.336 38.7607 103.319C38.5801 103.251 33.7191 105.254 33.6981 105.405ZM37.3611 114.106C37.3764 114.141 37.2067 114.247 36.9652 114.354C36.7237 114.46 36.554 114.566 36.5693 114.601C36.584 114.634 36.4601 114.721 36.2941 114.794C36.1281 114.868 36.0043 114.955 36.0189 114.988C36.0336 115.021 35.9234 115.102 35.7739 115.168C35.6245 115.235 35.5143 115.316 35.5289 115.349C35.5436 115.382 35.447 115.457 35.3141 115.516C35.1813 115.575 35.0822 115.644 35.0939 115.671C35.1056 115.697 34.9583 115.823 34.7666 115.951C34.5749 116.078 34.3307 116.279 34.2238 116.396C34.1171 116.514 34.0047 116.627 33.9743 116.648C33.7513 116.799 33.5716 116.961 33.5872 116.997C33.5973 117.019 33.4862 117.135 33.3401 117.254C33.1941 117.373 33.0844 117.492 33.0964 117.519C33.1085 117.546 33.064 117.592 32.9976 117.622C32.9312 117.651 32.8888 117.702 32.9035 117.736C32.9182 117.769 32.8758 117.82 32.8094 117.849C32.743 117.879 32.7007 117.93 32.7154 117.963C32.73 117.996 32.6877 118.047 32.6213 118.077C32.5549 118.106 32.5126 118.157 32.5272 118.19C32.5419 118.224 32.4996 118.275 32.4332 118.304C32.3668 118.333 32.3244 118.385 32.3391 118.418C32.3538 118.451 32.3114 118.502 32.245 118.532C32.1786 118.561 32.1363 118.612 32.151 118.645C32.1656 118.678 32.1233 118.73 32.0569 118.759C31.9905 118.788 31.9452 118.833 31.9563 118.858C31.9674 118.883 31.9052 118.981 31.8181 119.076C31.731 119.171 31.6377 119.317 31.6108 119.402C31.5838 119.486 31.5175 119.575 31.4633 119.598C31.4091 119.622 31.3767 119.669 31.3914 119.702C31.4061 119.736 31.3841 119.778 31.3427 119.796C31.3012 119.815 31.2081 119.953 31.1359 120.104C31.0636 120.255 30.9766 120.391 30.9423 120.406C30.9083 120.421 30.8651 120.505 30.8466 120.592C30.8281 120.68 30.7886 120.762 30.7589 120.776C30.6698 120.815 30.4462 121.482 30.4893 121.58C30.5113 121.63 30.5022 121.683 30.469 121.697C30.4357 121.712 30.4326 121.778 30.4619 121.845C30.4913 121.911 30.4881 121.977 30.4549 121.992C30.4217 122.007 30.4305 122.1 30.4745 122.2C30.5186 122.3 30.5274 122.393 30.4942 122.408C30.4577 122.424 30.5489 122.695 30.7256 123.095C30.8915 123.47 31.0507 123.76 31.0943 123.766C31.1366 123.772 31.2065 123.857 31.2497 123.954C31.2928 124.052 31.3552 124.12 31.3885 124.105C31.4217 124.09 31.4728 124.133 31.5022 124.199C31.5315 124.266 31.5782 124.31 31.6056 124.298C31.6332 124.286 31.7272 124.333 31.8145 124.403C32.0059 124.557 32.6848 124.831 32.775 124.791C32.8105 124.776 32.9219 124.791 33.0225 124.826C33.123 124.861 33.253 124.869 33.3112 124.843C33.3694 124.817 33.4458 124.816 33.481 124.84C33.5162 124.864 33.6249 124.849 33.7226 124.806C33.8202 124.762 33.9121 124.754 33.9268 124.788C33.9426 124.823 34.1736 124.751 34.4931 124.609C34.79 124.478 35.0377 124.336 35.0436 124.294C35.0495 124.252 35.1209 124.188 35.2024 124.152C35.3553 124.084 35.4192 124.021 35.6504 123.708C35.7249 123.607 35.8267 123.488 35.8767 123.444C35.9267 123.4 35.9569 123.34 35.9439 123.311C35.931 123.281 35.9611 123.239 36.0109 123.217C36.0608 123.195 36.0915 123.155 36.0794 123.127C36.0672 123.1 36.1149 123.006 36.1855 122.918C36.2561 122.831 36.3367 122.693 36.3647 122.611C36.3926 122.528 36.4598 122.442 36.514 122.418C36.5682 122.394 36.6006 122.347 36.5859 122.314C36.5712 122.281 36.6135 122.229 36.68 122.2C36.7464 122.171 36.7887 122.12 36.774 122.086C36.7594 122.053 36.8017 122.002 36.8681 121.973C36.9345 121.943 36.9768 121.892 36.9622 121.859C36.9475 121.826 36.9898 121.775 37.0562 121.745C37.1226 121.716 37.165 121.665 37.1503 121.632C37.1356 121.598 37.178 121.547 37.2444 121.518C37.3108 121.489 37.3531 121.437 37.3384 121.404C37.3238 121.371 37.3797 121.314 37.4627 121.277C37.5457 121.24 37.6016 121.183 37.5869 121.15C37.5723 121.117 37.6282 121.06 37.7112 121.023C37.7942 120.986 37.8501 120.929 37.8354 120.896C37.8208 120.863 37.875 120.806 37.9561 120.77C38.0371 120.735 38.1079 120.673 38.1134 120.634C38.1188 120.595 38.2641 120.478 38.436 120.375C38.6081 120.272 38.7383 120.163 38.7253 120.134C38.7123 120.104 38.7951 120.039 38.9094 119.989C39.0236 119.938 39.1219 119.862 39.1278 119.82C39.1337 119.778 39.2575 119.69 39.403 119.626C39.5485 119.562 39.6723 119.475 39.6782 119.432C39.684 119.39 39.8638 119.278 40.0777 119.184C40.2967 119.087 40.4548 118.986 40.4398 118.952C40.4229 118.913 40.876 118.687 41.6809 118.331C42.4858 117.975 42.9584 117.793 42.9753 117.831C42.9903 117.865 43.1691 117.818 43.3824 117.724C43.5915 117.631 43.7994 117.569 43.8441 117.585C43.8889 117.601 44.0542 117.574 44.2114 117.526C44.6354 117.396 44.9462 117.332 45.0402 117.356C45.086 117.368 45.2738 117.334 45.4576 117.28C45.6412 117.227 45.802 117.207 45.8148 117.236C45.8275 117.264 45.9059 117.258 45.9889 117.221C46.0719 117.185 46.1519 117.182 46.1665 117.215C46.1812 117.248 46.2611 117.245 46.3441 117.209C46.4271 117.172 46.507 117.169 46.5217 117.202C46.5364 117.236 46.6163 117.233 46.6993 117.196C46.7823 117.159 46.8622 117.157 46.8769 117.19C46.8916 117.223 46.9579 117.226 47.0243 117.197C47.0907 117.168 47.1571 117.171 47.1717 117.204C47.1864 117.237 47.2527 117.24 47.3192 117.211C47.3856 117.182 47.4519 117.185 47.4666 117.218C47.4812 117.251 47.5476 117.254 47.614 117.225C47.6804 117.196 47.7467 117.199 47.7614 117.232C47.7761 117.265 47.8424 117.268 47.9088 117.239C47.9752 117.21 48.0415 117.213 48.0562 117.246C48.0709 117.279 48.1312 117.285 48.1904 117.259C48.2494 117.233 48.3609 117.248 48.4381 117.294C48.5153 117.339 48.6208 117.357 48.6725 117.334C48.7243 117.312 48.8298 117.33 48.907 117.375C48.9842 117.42 49.0704 117.447 49.0986 117.435C49.1268 117.422 49.3044 117.441 49.4931 117.477C49.6819 117.513 49.8774 117.524 49.9275 117.502C49.9778 117.479 50.0476 117.481 50.0828 117.505C50.118 117.529 50.2251 117.514 50.3208 117.472C50.4164 117.43 50.5235 117.415 50.5587 117.439C50.5939 117.463 50.8657 117.376 51.1625 117.245C51.482 117.103 51.6914 116.981 51.6756 116.946C51.6609 116.912 51.7287 116.85 51.8264 116.807C51.924 116.764 52.0088 116.694 52.0146 116.652C52.0205 116.609 52.0729 116.554 52.131 116.528C52.1893 116.502 52.2712 116.401 52.3131 116.303C52.355 116.205 52.4184 116.112 52.4539 116.097C52.546 116.056 52.8267 115.305 52.785 115.211C52.7659 115.167 52.7872 115.069 52.8325 114.991C52.8778 114.914 52.8941 114.804 52.8689 114.747C52.8437 114.69 52.8428 114.615 52.8669 114.579C52.891 114.544 52.8822 114.451 52.8472 114.372C52.8123 114.293 52.8035 114.199 52.8276 114.164C52.8525 114.128 52.7455 113.815 52.5796 113.439C52.4029 113.039 52.264 112.789 52.2275 112.805C52.1943 112.82 52.1311 112.751 52.0871 112.651C52.0431 112.551 51.9799 112.482 51.9467 112.497C51.9135 112.511 51.8623 112.469 51.833 112.403C51.8036 112.336 51.7525 112.294 51.7192 112.308C51.686 112.323 51.6413 112.295 51.6198 112.247C51.5781 112.152 50.9506 111.854 50.8694 111.89C50.8428 111.902 50.6998 111.868 50.5515 111.814C50.4032 111.761 50.2578 111.728 50.228 111.741C50.1983 111.754 50.0918 111.736 49.9912 111.701C49.8906 111.666 49.7726 111.653 49.7291 111.673C49.6855 111.692 49.6379 111.68 49.6232 111.647C49.6085 111.614 49.5521 111.606 49.498 111.63C49.4438 111.654 49.3336 111.644 49.2531 111.607C49.1725 111.57 49.0014 111.54 48.8727 111.541C48.744 111.541 48.6296 111.521 48.6185 111.496C48.6074 111.471 48.544 111.475 48.4776 111.504C48.4112 111.533 48.3448 111.53 48.3302 111.497C48.3155 111.464 48.2492 111.461 48.1828 111.49C48.1163 111.519 48.05 111.516 48.0353 111.483C48.0207 111.45 47.9543 111.446 47.8879 111.476C47.8215 111.505 47.7552 111.502 47.7405 111.469C47.7258 111.436 47.6595 111.432 47.5931 111.462C47.5267 111.491 47.4604 111.488 47.4457 111.455C47.431 111.422 47.3647 111.418 47.2983 111.448C47.2319 111.477 47.1655 111.474 47.1509 111.441C47.1362 111.408 47.0699 111.404 47.0035 111.434C46.937 111.463 46.8729 111.465 46.8608 111.438C46.8488 111.41 46.6869 111.411 46.5008 111.439C46.3148 111.467 46.1543 111.472 46.1442 111.449C46.1278 111.411 45.7962 111.448 45.6285 111.506C45.594 111.518 45.5394 111.512 45.5071 111.494C45.4338 111.452 44.5104 111.597 44.3214 111.681C44.2445 111.715 44.1695 111.715 44.1549 111.682C44.1402 111.649 44.0195 111.67 43.8867 111.728C43.7539 111.787 43.6332 111.808 43.6185 111.775C43.6039 111.742 43.4696 111.768 43.3202 111.834C43.1708 111.9 43.0365 111.927 43.0219 111.894C43.0072 111.861 42.8594 111.894 42.6933 111.967C42.5273 112.04 42.3795 112.073 42.3648 112.04C42.3496 112.005 42.157 112.06 41.9156 112.166C41.6741 112.273 41.4816 112.327 41.4663 112.293C41.449 112.254 40.7152 112.552 39.387 113.139C38.0589 113.726 37.3438 114.067 37.3611 114.106ZM43.2588 123.046C43.2738 123.08 43.1145 123.181 42.893 123.279C42.6716 123.377 42.5122 123.479 42.5273 123.513C42.542 123.546 42.4725 123.609 42.3729 123.653C42.2733 123.697 42.2038 123.761 42.2184 123.794C42.2331 123.827 42.1636 123.89 42.064 123.934C41.9644 123.978 41.8949 124.041 41.9096 124.075C41.9242 124.108 41.8819 124.159 41.8155 124.188C41.7491 124.218 41.7068 124.269 41.7214 124.302C41.7361 124.335 41.6938 124.386 41.6274 124.416C41.561 124.445 41.5186 124.496 41.5333 124.529C41.548 124.563 41.5117 124.611 41.4525 124.637C41.3935 124.663 41.33 124.756 41.3115 124.844C41.293 124.931 41.2364 125.022 41.1859 125.045C41.0789 125.093 40.5599 126.409 40.6063 126.514C40.6234 126.553 40.6103 126.597 40.5771 126.611C40.5439 126.626 40.5348 126.679 40.5568 126.729C40.5788 126.778 40.5696 126.831 40.5364 126.846C40.5032 126.861 40.4974 126.921 40.5235 126.98C40.5496 127.039 40.5339 127.151 40.4887 127.228C40.4434 127.305 40.427 127.415 40.4523 127.472C40.4775 127.529 40.4784 127.605 40.4543 127.64C40.4301 127.675 40.4397 127.77 40.4755 127.851C40.5113 127.932 40.5134 128.011 40.4802 128.025C40.447 128.04 40.4559 128.133 40.4999 128.233C40.5439 128.333 40.5527 128.426 40.5195 128.441C40.4863 128.455 40.5132 128.59 40.5792 128.739C40.6452 128.889 40.672 129.023 40.6388 129.037C40.6016 129.054 40.7158 129.375 40.937 129.876C41.1472 130.351 41.3272 130.691 41.3723 130.698C41.4146 130.703 41.5025 130.829 41.5677 130.976C41.6328 131.124 41.7133 131.232 41.7465 131.218C41.7797 131.203 41.8429 131.273 41.8869 131.372C41.9309 131.472 41.9941 131.541 42.0273 131.527C42.0605 131.512 42.1116 131.554 42.141 131.621C42.1703 131.687 42.2215 131.729 42.2547 131.715C42.2879 131.7 42.3391 131.742 42.3684 131.809C42.3977 131.875 42.4489 131.918 42.4821 131.903C42.5153 131.888 42.5665 131.931 42.5958 131.997C42.6252 132.063 42.6763 132.106 42.7095 132.091C42.7428 132.076 42.7913 132.113 42.8174 132.172C42.8435 132.231 42.9365 132.294 43.024 132.313C43.1116 132.331 43.1983 132.381 43.2168 132.423C43.2615 132.524 44.4298 132.991 44.5289 132.947C44.5718 132.928 44.6718 132.941 44.7513 132.975C44.8308 133.01 44.9875 133.044 45.0995 133.05C45.2115 133.057 45.3132 133.085 45.3254 133.112C45.3375 133.14 45.4018 133.138 45.4683 133.109C45.5347 133.08 45.601 133.083 45.6157 133.116C45.6303 133.149 45.695 133.153 45.7595 133.125C45.8239 133.096 45.9055 133.093 45.9407 133.117C45.9759 133.141 46.071 133.131 46.1521 133.096C46.2331 133.06 46.3114 133.058 46.3261 133.091C46.3407 133.124 46.4614 133.103 46.5942 133.044C46.727 132.986 46.8477 132.965 46.8624 132.998C46.8792 133.036 47.2916 132.881 47.9757 132.578C48.6598 132.276 49.0525 132.076 49.0357 132.038C49.021 132.005 49.1177 131.93 49.2505 131.871C49.3833 131.812 49.48 131.737 49.4653 131.704C49.4506 131.671 49.5049 131.614 49.5859 131.578C49.667 131.543 49.7381 131.479 49.744 131.436C49.7499 131.394 49.8074 131.336 49.8719 131.308C49.9363 131.279 49.977 131.229 49.9623 131.196C49.9476 131.162 49.99 131.111 50.0564 131.082C50.1228 131.053 50.1671 131.006 50.155 130.978C50.1428 130.951 50.1906 130.857 50.2611 130.77C50.3318 130.682 50.4123 130.544 50.4403 130.462C50.4682 130.38 50.5258 130.297 50.5682 130.279C50.6704 130.233 51.113 129.064 51.0671 128.96C51.0474 128.916 51.0684 128.816 51.1136 128.739C51.1589 128.662 51.1746 128.55 51.1485 128.491C51.1223 128.432 51.1282 128.372 51.1614 128.357C51.1946 128.342 51.1977 128.276 51.1684 128.209C51.1391 128.143 51.1422 128.077 51.1754 128.062C51.2086 128.047 51.2118 127.981 51.1824 127.915C51.1531 127.848 51.1563 127.782 51.1895 127.767C51.2227 127.753 51.2258 127.686 51.1965 127.62C51.1672 127.553 51.1703 127.487 51.2035 127.472C51.2367 127.458 51.2279 127.364 51.1839 127.265C51.1399 127.165 51.131 127.072 51.1642 127.057C51.1974 127.042 51.1713 126.91 51.1062 126.762C51.041 126.615 51.0074 126.465 51.0316 126.43C51.0574 126.392 50.9272 126.03 50.7169 125.554C50.4957 125.054 50.3353 124.753 50.2981 124.77C50.2649 124.784 50.1837 124.674 50.1177 124.525C50.0517 124.375 49.9705 124.265 49.9373 124.28C49.9041 124.294 49.8409 124.225 49.7969 124.125C49.7529 124.026 49.6897 123.956 49.6565 123.971C49.6233 123.986 49.5733 123.946 49.5453 123.883C49.4848 123.746 49.0334 123.38 48.963 123.411C48.936 123.423 48.8898 123.379 48.8605 123.312C48.8311 123.246 48.78 123.204 48.7468 123.218C48.7136 123.233 48.6684 123.204 48.6464 123.155C48.5924 123.032 47.0982 122.432 46.9792 122.484C46.9275 122.507 46.822 122.489 46.7448 122.443C46.6676 122.398 46.556 122.382 46.497 122.408C46.4379 122.435 46.3776 122.429 46.3629 122.396C46.3482 122.362 46.2819 122.359 46.2155 122.389C46.1491 122.418 46.0827 122.415 46.0681 122.382C46.0534 122.348 45.9871 122.345 45.9207 122.375C45.8543 122.404 45.7879 122.401 45.7733 122.368C45.7586 122.334 45.6651 122.343 45.5655 122.387C45.4659 122.431 45.3724 122.44 45.3577 122.407C45.343 122.374 45.2495 122.382 45.1499 122.426C45.0503 122.47 44.9568 122.479 44.9421 122.446C44.927 122.412 44.7444 122.461 44.523 122.559C44.3016 122.657 44.119 122.706 44.104 122.672C44.0887 122.638 43.8962 122.692 43.6547 122.798C43.4132 122.905 43.2435 123.011 43.2588 123.046Z" fill="url(#paint0_linear_2338_1627)"/>
<path d="M69.8755 162C72.8136 165.806 77.8002 171.007 85.8395 182.102C86.7557 183.368 83.4871 189.19 82.7383 187.782C78.3861 179.606 65.5585 167.059 69.8755 162Z" fill="#E0956C"/>
<path d="M79.08 151C81.909 154.707 94.4311 177.338 98.9761 189.396C99.5368 190.883 90.1282 196.013 87.9661 194.822C82.2573 195.019 77.7293 186.272 66.7193 181.439C64.8163 180.604 67.1908 178.471 68.0913 178.185C70.419 177.446 71.1666 178.124 77.2025 178.365C80.8852 178.512 82.3337 174.47 82.1426 171.902C79.6449 161.073 76.0896 154.151 79.08 151Z" fill="#FFC19F"/>
<path d="M83.0231 179.446L61.2339 184.349C60.6747 184.475 60.0694 183.972 59.8403 183.188L49.3772 137.426C49.1156 136.537 49.4401 135.648 50.0771 135.505L72.1595 130.536C72.79 130.394 73.4597 131.047 73.6139 131.951L83.7843 177.781C83.921 178.593 83.5887 179.319 83.0231 179.446Z" fill="#00A4B2"/>
<path d="M49.7907 138.629L49.789 138.621L49.7868 138.614C49.6695 138.216 49.6879 137.827 49.798 137.53C49.9085 137.232 50.0989 137.052 50.3155 137.004L72.6774 131.972C72.8914 131.924 73.1381 132.002 73.365 132.221C73.5909 132.438 73.7754 132.777 73.8441 133.182L73.8438 133.182L73.8465 133.194L84.0138 179.018C84.073 179.378 84.0256 179.709 83.911 179.955C83.7957 180.203 83.6219 180.351 83.4295 180.394L61.3645 185.36C61.1747 185.402 60.957 185.345 60.7483 185.173C60.5411 185.003 60.3572 184.729 60.2542 184.383L49.7907 138.629Z" fill="url(#paint1_linear_2338_1627)" stroke="#00A4B2" stroke-width="0.5"/>
<path d="M59.1755 147.6L54.1939 148.721C54.0478 148.754 53.8984 148.657 53.8495 148.501L51.2969 139.464C51.216 139.204 51.3501 138.934 51.5898 138.88L57.044 137.653C57.2788 137.6 57.5161 137.782 57.5572 138.048L59.3897 147.249C59.4145 147.413 59.3215 147.567 59.1755 147.6Z" fill="url(#paint2_linear_2338_1627)"/>
<path d="M83.5153 174.861C83.0001 171.42 95.2926 178.634 99.9753 190.49C100.553 191.952 90.8594 196.996 88.6318 195.825C82.7499 196.019 78.0847 187.419 66.7411 182.666C64.7805 181.845 67.2269 179.749 68.1547 179.467C70.5529 178.74 71.3231 179.407 77.542 179.644C81.3363 179.789 84.0304 178.302 83.5153 174.861Z" fill="#FFC19F"/>
<path d="M241 301.972C239.572 297.735 238.062 291.192 233.648 279.259C233.145 277.895 227.371 277.491 228.057 278.793C232.033 286.356 235.295 302.773 241 301.972Z" fill="#E0956C"/>
<path d="M248 302.988C246.449 298.721 244.721 287.863 237.243 277.799C236.313 276.557 230.319 276.832 231.064 278.145C235.383 285.769 242.875 303.538 248 302.988Z" fill="#E0956C"/>
<path d="M255 300.937C253.501 296.757 242.001 275.051 234.811 265.191C233.922 263.975 225.191 268.863 225.047 271.21C222.041 275.681 226.639 283.82 224.929 295.132C224.637 297.087 227.495 296.283 228.172 295.71C229.908 294.228 229.752 293.281 232.58 288.322C234.308 285.298 238.207 286.219 240.121 287.701C247.379 295.284 251.028 301.707 255 300.937Z" fill="#FFC19F"/>
<path d="M241.413 65.9535C238.644 66.2186 236.257 65.3498 234.248 63.3523C232.237 61.3559 231.465 58.9543 231.938 56.1528C232.302 53.8526 233.416 51.9853 235.284 50.5562C237.148 49.1282 239.258 48.6125 241.61 49.0113C243.332 49.329 244.854 49.9883 246.17 50.9961C247.489 51.9986 248.347 53.4011 248.737 55.1984C249.311 57.7388 248.865 60.0958 247.404 62.2618C245.943 64.4341 243.945 65.6629 241.413 65.9535ZM235.498 21.1646C233.827 21.1078 231.929 20.7345 229.803 20.0312C227.673 19.3314 225.984 18.4377 224.73 17.3524C223.293 16.189 222.729 14.8444 223.122 13.3452C224.049 9.80857 226.122 6.82763 229.134 4.33984C232.152 1.85146 235.46 0.436237 239.064 0.0935721C243.371 -0.276298 247.293 0.450113 250.832 2.27689C254.368 4.10019 257.188 6.53647 259.293 9.57531C261.392 12.6194 262.605 16.02 262.935 19.7754C263.261 23.5314 262.365 27.1259 260.251 30.5641C258.084 34.1378 254.234 36.6661 248.698 38.1062C247.366 38.4524 246.765 39.5996 246.895 41.5572C246.975 42.3224 246.243 42.8995 244.704 43.2826C243.162 43.6681 241.46 43.8765 239.591 43.9159C237.727 43.9593 236.031 43.8204 234.5 43.4991C232.974 43.1819 232.276 42.6824 232.405 41.9919C231.856 38.6052 231.826 35.8308 232.306 33.6597C232.79 31.4937 233.673 29.6397 234.95 28.107C236.57 26.1743 238.682 24.8586 241.298 24.1559C243.906 23.4573 245.481 22.6238 245.994 21.6381C247.034 19.6376 246.041 18.2988 243.076 17.6522C240.114 17.0051 238.452 17.5909 238.083 19.4148C237.796 20.6865 236.934 21.2688 235.498 21.1646Z" fill="#D3D3D3"/>
<path d="M122.117 135.233C121.151 145.365 126.332 153.882 131.84 154.905C137.348 155.928 140.673 148.555 142.476 139.115C144.28 129.677 141.279 121.172 135.768 120.172C128.231 118.808 123.027 125.709 122.117 135.233Z" fill="#F4B18C"/>
<path d="M132.52 108.217C125.028 147.025 145.925 169.273 179.911 175.984C213.895 182.694 224.268 172.282 239.873 150.335C247.584 135.776 254.647 116.248 251.022 100.856C246.932 83.4913 224.259 72.4037 201.151 69.8359C175.729 67.0122 140.015 69.4072 132.52 108.217Z" fill="#313131"/>
<path d="M143.988 88.5372C142.495 89.5179 141.837 91.1945 141.164 95.1797C136.511 122.76 131.444 131.196 129.194 149.945C127.441 164.553 137.893 178.767 148.815 184.841C161.894 192.115 198.034 199.359 224.756 166.204C236.095 152.135 242.044 119.236 240.849 112.397C236.805 89.2992 225.152 89.2302 197.668 83.7709C171.96 78.6649 160.926 77.4282 143.988 88.5372Z" fill="#FFC19F"/>
<path d="M221.412 128.642C217.328 141.666 214.111 156.863 221.017 165.053C229.072 174.606 244.66 146.87 248.297 128.222C251.934 109.572 241.436 93.1771 217.405 90.1673C205.017 88.6163 231.154 97.5741 221.412 128.642Z" fill="#313131"/>
<path d="M171.963 172.997C172.153 173.012 172.34 172.972 172.512 172.876C172.96 172.626 173.166 172.049 172.841 171.666C170.123 168.45 166.548 165.955 162.27 166.001C159.628 165.994 157.263 167.853 156.144 169.443C155.856 169.852 156.019 170.403 156.465 170.656C156.911 170.907 157.447 170.752 157.753 170.35C158.529 169.33 160.291 167.779 162.263 167.767C166.469 167.74 169.3 170.323 171.229 172.567C171.429 172.799 171.669 172.977 171.963 172.997Z" fill="#934341"/>
<path d="M189.009 157.892C188.813 159.795 192.009 161.61 196.146 161.946C200.284 162.282 203.796 161.011 203.992 159.108C204.188 157.204 200.991 155.389 196.855 155.054C192.717 154.718 189.205 155.989 189.009 157.892Z" fill="#FF9797"/>
<path d="M130.05 146.365C129.663 148.193 131.565 150.184 134.299 150.81C137.033 151.436 139.563 150.462 139.95 148.635C140.337 146.806 138.435 144.816 135.701 144.19C132.967 143.563 130.437 144.537 130.05 146.365Z" fill="#FF9797"/>
<path d="M137.633 117C137.181 117.01 136.726 116.799 136.402 116.376C135.817 115.613 135.878 114.448 136.535 113.777C141.328 108.881 149.914 107.576 156.965 110.666C157.792 111.03 158.208 112.094 157.897 113.047C157.587 113.999 156.661 114.472 155.842 114.112C149.942 111.523 142.552 112.561 138.66 116.54C138.363 116.84 138 116.993 137.633 117Z" fill="#842F21"/>
<path d="M154.38 145.586C154.38 145.586 139.848 148.469 136.084 139.025C131.496 127.518 142.588 120.919 148.611 123.592C154.186 126.066 158.466 132.972 154.38 145.586Z" fill="#F9FEFF"/>
<path d="M137.598 126.158C140.677 123.027 144.18 122.452 147.697 123.443C151.292 124.454 154.487 128.024 155 131.254C153.633 127.487 150.453 125.674 148.426 124.813C145.2 123.438 140.476 124.449 137.878 127.601C135.566 130.406 134.904 135.067 136.541 139C134.294 136.143 134.387 129.42 137.598 126.158Z" fill="#9B4734"/>
<path d="M149.711 129.998C150.68 133.901 149.132 138.185 146.254 139.568C143.376 140.95 140.257 138.907 139.289 135.003C138.32 131.1 139.868 126.815 142.745 125.432C145.624 124.049 148.742 126.094 149.711 129.998Z" fill="#313131"/>
<path d="M149.922 129.332C150.185 130.373 149.763 131.516 148.978 131.885C148.193 132.253 147.343 131.709 147.079 130.667C146.815 129.627 147.237 128.484 148.022 128.116C148.806 127.746 149.657 128.292 149.922 129.332Z" fill="#FEFFFE"/>
<path d="M178.001 148.553C178.001 148.553 192.384 156.041 199.524 148.944C208.224 140.296 198.719 130.68 191.461 131.008C184.744 131.31 177.911 135.981 178.001 148.553Z" fill="#F9FEFF"/>
<path d="M203.055 137.223C200.802 133.109 197.148 131.313 192.907 131.025C188.573 130.731 183.746 133.047 182 135.985C184.884 132.831 189.053 132.206 191.603 132.092C195.662 131.905 200.504 134.552 202.219 138.517C203.743 142.044 202.772 146.78 199.53 150C203.053 148.035 205.404 141.509 203.055 137.223Z" fill="#9B4734"/>
<path d="M195.842 139.923C196.655 143.972 194.25 147.96 190.472 148.831C186.693 149.702 182.97 147.125 182.158 143.077C181.345 139.028 183.75 135.039 187.528 134.169C191.307 133.299 195.029 135.875 195.842 139.923Z" fill="#313131"/>
<path d="M194.966 139.184C195.14 139.994 194.625 140.791 193.816 140.966C193.006 141.14 192.208 140.625 192.034 139.815C191.86 139.006 192.375 138.208 193.185 138.034C193.995 137.86 194.792 138.375 194.966 139.184Z" fill="#FEFFFE"/>
<path d="M186.115 118.068C186.506 118.184 186.853 118.446 187.073 118.832C189.803 123.574 196.76 126.919 203.272 126.608C204.211 126.565 204.954 127.285 204.998 128.213C205.042 129.144 204.337 129.933 203.429 129.975C195.667 130.352 187.586 126.379 184.229 120.541C183.765 119.737 184.029 118.704 184.814 118.231C185.223 117.988 185.694 117.942 186.115 118.068Z" fill="#842F21"/>
<path d="M159.413 149.785C159.653 149.822 159.898 149.72 159.986 149.537C160.613 148.235 162.204 147.572 164.04 147.851C165.886 148.13 167.067 149.229 166.978 150.585C166.965 150.803 167.182 150.989 167.461 150.999C167.741 151.011 167.98 150.843 167.994 150.625C168.108 148.888 166.562 147.429 164.235 147.076C161.921 146.726 159.83 147.604 159.032 149.26C158.934 149.465 159.068 149.692 159.331 149.768L159.413 149.785Z" fill="#C4735B"/>
<path d="M241.218 166.586C233.814 177.27 221.358 180.573 215.75 178.338C209.217 175.733 210.027 164.978 214.53 153.721C219.033 142.463 228.303 136.906 235.93 139.725C245.203 143.152 248.067 156.705 241.218 166.586Z" fill="#FFC19F"/>
<path d="M230.618 165.24C227.376 170.209 221.377 171.01 219.364 168.924C217.102 166.58 217.86 163.345 220.129 158.235C222.78 152.268 226.11 149.457 229.653 151.855C233.338 154.348 234.433 159.395 230.618 165.24Z" fill="#E0956C"/>
<path d="M145.84 74.6717C140.841 71.4883 138.1 68.4588 138.77 66.2924C139.928 62.5486 150.868 62.5583 164.724 65.9102C159.91 59.5394 158.444 56.4585 160.853 51.7588C165.697 42.3106 185.581 42.8328 205.263 52.9196C224.943 63.0078 236.386 75.1054 231.544 84.5505C238.191 86.6822 241.339 92.05 242 94.9968C239.091 98.5792 234.921 102.378 227.584 106.379C217.117 112.086 205.958 110.349 204.225 105.984C203.562 104.31 204.283 102.265 206.042 100.145C197.877 101.662 187.633 102.288 176.539 101.707C150.244 100.33 124.715 92.3104 125.003 84.2928C125.156 79.9718 134.218 74.0409 145.84 74.6717Z" fill="#313131"/>
</svg>
