<svg width="313" height="390" viewBox="0 0 313 390" fill="none" xmlns="http://www.w3.org/2000/svg">
<path d="M297.872 261.707C294.554 263.988 289.039 268.524 285.476 270.754C283.157 268.59 278.126 263.899 277.723 263.474C275.465 255.83 276.344 241.894 276.356 241.497C281.539 242.72 285.56 243.808 286.869 244.873C289.369 248.325 293.926 255.32 297.872 261.707Z" fill="#7F7F7F"/>
<path d="M255.148 350.546C255.131 351.808 243.884 353.065 243.759 351.804C242.542 339.567 237.113 306.093 236.356 301.247L253.751 302.259C253.545 314.335 255.266 341.795 255.148 350.546Z" fill="#D0D0D0"/>
<path d="M274.421 350.228C274.739 351.45 286.02 349.876 285.841 348.622C284.102 336.447 279.343 303.735 278.922 298.849L262.604 303.251C265.688 314.928 272.214 341.759 274.421 350.228Z" fill="#D0D0D0"/>
<path d="M277.756 278.85C279.56 289.84 282.849 312.708 284.033 318.745C280.168 320.426 267.355 321.362 263.67 321.319C261.975 315.055 260.201 306.284 259.129 303.527C258.963 303.1 258.601 302.028 257.617 301.933C256.732 301.848 256.302 302.713 256.285 303.276C256.111 309.15 255.697 316.858 255.761 321.523C251.006 322.002 239.51 321.787 235.458 320.953C235.123 315.693 234.373 295.062 234.142 280.832L277.756 278.85Z" fill="#555555"/>
<path d="M280.094 293.86C280.087 293.81 280.079 293.758 280.071 293.707C280.074 293.707 280.077 293.706 280.08 293.705C280.085 293.758 280.09 293.81 280.094 293.86Z" fill="#A1A1A1"/>
<path d="M260.698 296.359C251.453 296.359 242.394 295.138 234.454 293.193L234.366 290.571C242.138 293.787 252.075 295.348 262.197 295.348C268.229 295.348 274.326 294.794 280.071 293.706C280.079 293.757 280.087 293.809 280.094 293.86C280.111 294.048 280.126 294.224 280.137 294.379C273.781 295.757 267.194 296.359 260.698 296.359Z" fill="#363636"/>
<path d="M201.874 221.634C202.256 220.582 206.547 216.657 207.538 215.976C216.675 223.746 224.449 227.952 235.695 233.024C233.943 236.939 232.517 240.84 230.312 244.294C218.147 237.619 213.649 233.543 201.874 221.634Z" fill="#D0D0D0"/>
<path d="M228.267 228.601C226.435 232.072 223.032 240.132 221.642 243.82C230.109 248.918 238.502 252.369 240.838 253.665C248.078 253.44 250.697 238.152 251.235 237.486C246.641 235.817 237.412 233.018 228.267 228.601Z" fill="#7F7F7F"/>
<path d="M281.539 293.415C264.864 296.875 244.842 295.753 232.057 289.535C232.057 289.535 238.884 247.802 241.473 238.216C249.063 237.505 253.248 237.395 260.649 238.4C268.115 239.414 275.795 241.13 280.473 242.73C280.966 255.224 280.158 275.413 281.539 293.415Z" fill="#7F7F7F"/>
<path d="M249.481 240.428C249.497 239.813 250.239 237.789 250.427 237.217C257.67 238.308 265.965 239.042 272.056 240.247C272.09 240.514 272.185 240.769 272.178 241.045C272.058 245.8 266.824 249.524 260.488 249.364C254.153 249.204 249.361 245.184 249.481 240.428Z" fill="#6C6C6C"/>
<path d="M253.93 227.501L252.603 240.858C252.318 243.729 255.734 246.422 260.234 246.869C264.735 247.317 268.615 245.352 268.9 242.479L270.228 229.123L253.93 227.501Z" fill="#D0D0D0"/>
<path d="M269.339 238.065L270.045 230.961L269.339 238.065Z" fill="#7F7F7F"/>
<path d="M259.46 241.808C256.924 241.808 254.591 241.185 252.673 240.151L253.557 231.267C257.369 231.034 261.583 230.889 265.53 230.889C267.091 230.889 268.61 230.912 270.046 230.961L269.339 238.065C267.263 240.086 264.165 241.51 260.581 241.767C260.204 241.794 259.829 241.808 259.46 241.808Z" fill="#B0B0B0"/>
<path d="M256.796 357.319C256.782 357.676 242.79 358.233 242.756 357.803C242.481 354.331 241.979 349.534 241.814 347.343L256.742 346.963C256.616 350.925 256.886 355.037 256.796 357.319Z" fill="#E7E7E7"/>
<path d="M239.546 353.278C239.752 352.497 240.184 351.505 240.519 350.6C240.767 349.928 247.32 349.981 247.351 351.591C247.36 352.004 247.346 352.367 247.315 352.697C248.435 352.699 249.651 352.676 250.935 352.618C253.724 352.494 255.908 352.246 257.66 351.952C257.796 354.498 257.927 358.909 258.054 361.739C258.054 361.739 228.87 367.457 224.229 363.252C222.921 362.068 230.216 356.697 239.546 353.278Z" fill="#6C6C6C"/>
<path d="M258.013 359.965C258.019 360.594 258.03 361.201 258.054 361.739C258.054 361.739 228.871 367.457 224.23 363.252C224.046 363.085 224.035 362.834 224.174 362.518C232.253 364.202 250.757 361.249 258.013 359.965Z" fill="#414141"/>
<path d="M232.801 355.519C234.412 355.226 236.493 355.951 237.87 357.275C238.033 357.432 238.038 357.691 237.882 357.854C237.806 357.933 237.706 357.974 237.605 357.979C237.497 357.984 237.387 357.946 237.303 357.865C236.103 356.712 234.306 356.059 232.948 356.325C232.718 356.37 232.512 356.217 232.472 355.994C232.432 355.772 232.579 355.559 232.801 355.519ZM235.267 355.173C235.045 355.216 234.838 355.042 234.811 354.816C234.783 354.592 234.943 354.388 235.167 354.36C236.955 354.135 238.727 354.792 240.033 356.151C240.189 356.314 240.184 356.573 240.022 356.73C239.947 356.801 239.852 356.839 239.756 356.843C239.642 356.848 239.527 356.806 239.442 356.718C237.903 355.115 236.166 355.061 235.267 355.173ZM237.506 354.119C237.284 354.165 237.066 354.032 237.016 353.812C236.965 353.591 237.103 353.371 237.323 353.321C239.017 352.938 241.002 353.707 242.149 355.204C242.287 355.383 242.253 355.64 242.074 355.778C242.005 355.83 241.925 355.858 241.844 355.861C241.715 355.867 241.585 355.812 241.501 355.701C240.542 354.451 238.898 353.794 237.506 354.119Z" fill="#D0D0D0"/>
<path d="M274.207 357.531C274.283 357.879 287.594 356.066 287.578 355.634C287.454 352.227 287.2 346.905 287.191 345.063L272.432 347.326C273.255 351.204 273.715 355.301 274.207 357.531Z" fill="#E7E7E7"/>
<path d="M290.541 353.278C290.335 352.497 289.902 351.505 289.568 350.6C289.321 349.928 282.768 349.981 282.736 351.591C282.728 352.004 282.742 352.367 282.773 352.697C281.652 352.699 280.436 352.676 279.153 352.618C276.362 352.494 274.184 352.246 272.432 351.952C272.297 354.498 272.161 358.909 272.034 361.739C272.034 361.739 301.217 367.457 305.858 363.252C307.166 362.068 299.872 356.697 290.541 353.278Z" fill="#6C6C6C"/>
<path d="M272.074 359.965C272.068 360.594 272.058 361.201 272.034 361.739C272.034 361.739 301.217 367.457 305.859 363.252C306.043 363.085 306.054 362.834 305.915 362.518C297.835 364.202 279.331 361.249 272.074 359.965Z" fill="#414141"/>
<path d="M297.615 355.994C297.575 356.217 297.369 356.37 297.14 356.325C295.782 356.059 293.984 356.712 292.784 357.865C292.7 357.946 292.591 357.984 292.483 357.979C292.382 357.974 292.282 357.933 292.206 357.854C292.05 357.691 292.055 357.432 292.218 357.275C293.595 355.951 295.676 355.226 297.285 355.519C297.508 355.559 297.655 355.772 297.615 355.994ZM290.644 356.718C290.56 356.806 290.445 356.848 290.331 356.843C290.236 356.839 290.14 356.801 290.066 356.73C289.903 356.573 289.899 356.314 290.055 356.151C291.361 354.792 293.133 354.135 294.921 354.36C295.145 354.388 295.305 354.592 295.277 354.816C295.249 355.042 295.042 355.216 294.821 355.173C293.92 355.061 292.185 355.115 290.644 356.718ZM288.587 355.701C288.503 355.812 288.373 355.867 288.244 355.861C288.163 355.858 288.083 355.83 288.014 355.778C287.835 355.64 287.801 355.383 287.938 355.204C289.085 353.707 291.07 352.938 292.765 353.321C292.985 353.371 293.123 353.591 293.072 353.812C293.021 354.032 292.804 354.165 292.582 354.119C291.19 353.794 289.546 354.451 288.587 355.701Z" fill="#D0D0D0"/>
<path d="M281.078 285.732C281.047 285.061 281.019 284.389 280.993 283.716C280.999 283.715 281.005 283.714 281.011 283.713C281.037 284.386 281.056 285.061 281.086 285.731C281.083 285.732 281.081 285.732 281.078 285.732ZM233.365 281.669L233.733 279.484C233.605 280.244 233.482 280.974 233.365 281.669Z" fill="white"/>
<path d="M267.493 286.619C262.649 286.619 257.672 286.308 252.714 285.695C246.08 284.877 239.52 283.501 233.365 281.669C233.482 280.974 233.605 280.244 233.733 279.484C244.438 282.647 256.764 284.521 268.41 284.521C272.738 284.521 276.969 284.263 280.993 283.716C281.019 284.389 281.047 285.061 281.078 285.732C276.768 286.326 272.193 286.619 267.493 286.619Z" fill="#B2B2B2"/>
<path d="M280.805 277.471C280.79 276.794 280.778 276.119 280.766 275.444C280.77 275.444 280.774 275.443 280.778 275.443C280.789 276.118 280.802 276.792 280.816 277.469C280.813 277.47 280.809 277.47 280.805 277.471Z" fill="white"/>
<path d="M268.202 278.224C266.77 278.224 265.325 278.197 263.874 278.142C264.032 277.878 264.167 277.595 264.276 277.295L264.733 276.036C266.213 276.094 267.686 276.123 269.149 276.123C273.131 276.123 277.032 275.905 280.766 275.444C280.778 276.119 280.791 276.794 280.806 277.471C276.783 277.973 272.545 278.224 268.202 278.224ZM260.323 277.956C259.797 277.921 259.27 277.882 258.742 277.84L258.223 277.652C257.267 277.305 256.664 276.408 256.643 275.446C258.481 275.641 260.325 275.795 262.162 275.907L261.963 276.455C261.685 277.222 261.055 277.761 260.323 277.956ZM254.635 277.441C254.256 277.398 253.877 277.353 253.498 277.306C247.082 276.513 240.737 275.2 234.758 273.46L235.134 271.278C241.13 273.011 247.612 274.339 254.187 275.163C254.149 275.957 254.309 276.737 254.635 277.441Z" fill="#B2B2B2"/>
<path d="M280.69 269.116C280.685 268.434 280.681 267.754 280.678 267.078C280.679 267.078 280.68 267.078 280.681 267.078C280.685 267.75 280.693 268.437 280.697 269.115C280.695 269.116 280.693 269.116 280.69 269.116ZM236.197 265.178C236.196 265.177 236.196 265.177 236.196 265.177L236.361 264.243C236.306 264.554 236.251 264.867 236.197 265.178ZM236.564 263.095L236.583 262.992C236.577 263.026 236.57 263.061 236.564 263.095Z" fill="white"/>
<path d="M269.009 269.756C268.347 269.756 267.683 269.75 267.017 269.738L267.765 267.673C267.971 267.687 268.166 267.694 268.347 267.694C268.446 267.694 268.541 267.692 268.632 267.688C268.803 267.786 268.96 267.889 269.101 267.997C269.756 268.499 270.335 269.132 270.847 269.741C270.237 269.751 269.624 269.756 269.009 269.756ZM264.426 269.665C262.526 269.59 260.614 269.469 258.698 269.301L259.47 267.171C261.382 267.342 263.291 267.468 265.193 267.548L264.426 269.665ZM274.404 269.624C274.035 268.862 273.678 268.189 273.328 267.596C275.828 267.516 278.285 267.345 280.678 267.077C280.681 267.753 280.685 268.433 280.69 269.115C278.642 269.349 276.541 269.519 274.404 269.624ZM256.17 269.054C255.552 268.988 254.934 268.916 254.316 268.84C248.123 268.074 241.993 266.825 236.196 265.177C236.25 264.865 236.305 264.553 236.36 264.242L236.563 263.094C236.569 263.06 236.576 263.025 236.582 262.991C242.993 264.802 249.939 266.152 256.945 266.919L256.17 269.054Z" fill="#B2B2B2"/>
<path d="M280.664 261.241C280.664 260.556 280.664 259.874 280.663 259.201C280.664 259.201 280.664 259.201 280.665 259.201V261.241" fill="#B2B2B2"/>
<path d="M270.257 261.746C269.059 261.746 267.853 261.727 266.642 261.689C266.201 261.301 265.68 260.987 265.096 260.775L264.431 260.533C263.886 260.336 263.328 260.242 262.779 260.242C261.685 260.242 260.626 260.614 259.777 261.279C258.341 261.152 256.904 260.999 255.468 260.822C249.371 260.069 243.334 258.85 237.616 257.239L238.014 255.061C248.346 257.953 260.046 259.648 271.134 259.648C274.379 259.648 277.572 259.503 280.663 259.2C280.664 259.873 280.664 260.555 280.664 261.241C277.307 261.578 273.817 261.746 270.257 261.746ZM271.174 253.367C266.283 253.367 261.254 253.051 256.251 252.433C250.422 251.712 244.638 250.575 239.143 249.069C239.287 248.326 239.429 247.599 239.567 246.897C249.713 249.66 261.12 251.275 271.942 251.275C274.895 251.275 277.804 251.154 280.632 250.905C280.638 251.59 280.647 252.239 280.65 252.948C277.583 253.229 274.408 253.367 271.174 253.367Z" fill="#B2B2B2"/>
<path d="M228.845 201.929C228.427 208.879 233.166 214.729 237.882 215.438C242.6 216.147 245.128 211.094 246.285 204.621C247.439 198.148 244.554 192.309 239.834 191.616C233.383 190.669 229.238 195.396 228.845 201.929Z" fill="#C1C1C1"/>
<path d="M311.214 193.944C311.659 192.375 313.328 185.783 310.906 179.078C309.168 174.265 302.029 168.125 294.553 166.164C290.531 164.152 271.383 158.702 267.039 158.263C259.574 155.532 249.445 158.012 245.28 161.282C239.674 165.682 237.872 171.192 237.419 172.758C236.154 177.127 234.236 185.345 234.202 191.164L234.229 191.116C233.844 208.269 245.372 219.464 262.889 224.421C281.601 229.716 297.917 225.295 306.051 207.784C308.316 203.096 310.231 197.402 311.214 193.944Z" fill="#343434"/>
<path d="M300.111 193.045C300.826 197.443 289.944 227.52 284.882 231.663C278.428 236.943 266.837 240.35 252.984 236.355C242.162 233.232 234.425 224.062 233.819 214.281C233.481 208.833 237.805 186.805 242.984 177.019C247.813 167.893 259.882 170.226 274.394 174.393C287.968 178.29 298.261 181.636 300.111 193.045Z" fill="#D0D0D0"/>
<path d="M293.515 200.792C290.429 212.077 291.496 220.155 295.133 221.224C298.772 222.292 305.429 209.613 308.723 198.386C312.495 185.529 310.792 179.607 303.071 175.181C299.743 173.274 297.023 187.966 293.515 200.792Z" fill="#343434"/>
<path d="M302.353 225.742C297.735 231.511 289.554 232.768 285.07 229.993C280.585 227.216 289.836 208.073 299.193 210.238C306.985 212.04 306.694 220.319 302.353 225.742Z" fill="#D0D0D0"/>
<path d="M296.644 223.195C294.88 225.681 291.211 227.184 289.079 225.547C288.248 224.908 293.264 215.816 294.835 216.059C298.477 216.625 298.39 220.734 296.644 223.195Z" fill="#A7A7A7"/>
<path d="M244.547 184.064C244.32 183.997 244.125 183.827 244.026 183.576C243.847 183.125 244.05 182.585 244.478 182.371C247.596 180.816 252.076 181.548 255.136 184.112C255.495 184.413 255.544 184.98 255.248 185.38C254.952 185.78 254.42 185.858 254.065 185.561C251.504 183.413 247.661 182.743 245.128 184.008C244.935 184.103 244.731 184.118 244.547 184.064Z" fill="#343434"/>
<path d="M286.422 197.408C286.162 197.332 285.932 197.161 285.785 196.91C283.974 193.823 279.352 191.645 275.025 191.846C274.401 191.873 273.907 191.404 273.878 190.801C273.85 190.195 274.318 189.682 274.922 189.654C280.079 189.41 285.447 192 287.676 195.799C287.984 196.323 287.808 196.994 287.287 197.302C287.015 197.461 286.702 197.49 286.422 197.408Z" fill="#343434"/>
<path d="M246.533 225.095C246.327 226.526 248.523 226.5 254.122 227.619C254.369 227.668 255.336 227.846 255.585 227.891C260.344 228.75 263.104 229.644 264.036 228.348C265.83 225.853 262.442 222.134 257.624 221.227L257.54 221.211C252.712 220.325 246.93 222.34 246.533 225.095Z" fill="#2F2F2F"/>
<path d="M255.77 225.415C259.115 226.157 261.587 227.664 261.522 228.923L261.516 229L248.477 226.568L248.523 226.5C249.288 225.396 252.43 224.675 255.77 225.415Z" fill="white"/>
<path d="M255.55 211.032C255.697 211.08 255.861 211.015 255.934 210.873C256.452 209.866 257.513 209.447 258.638 209.809C259.771 210.172 260.406 211.15 260.221 212.241C260.192 212.417 260.31 212.584 260.484 212.613C260.659 212.642 260.825 212.525 260.855 212.35C261.092 210.95 260.262 209.653 258.835 209.196C257.417 208.741 256.021 209.297 255.362 210.579C255.281 210.737 255.343 210.931 255.501 211.012L255.55 211.032Z" fill="#ADADAD"/>
<path d="M284.346 222.55C283.983 224.115 281.382 224.851 278.535 224.19C275.689 223.531 273.676 221.727 274.038 220.161C274.401 218.595 277.003 217.86 279.847 218.52C282.694 219.179 284.708 220.984 284.346 222.55Z" fill="#ADADAD"/>
<path d="M244.089 210.901C243.577 212.232 241.314 212.599 239.033 211.72C236.754 210.841 235.32 209.051 235.832 207.72C236.344 206.39 238.608 206.023 240.888 206.901C243.169 207.78 244.601 209.57 244.089 210.901Z" fill="#ADADAD"/>
<path d="M243.559 178.872C242.282 180.852 241.364 183.039 238.622 187.039C239.315 184.887 243.621 170.267 244.621 167.014C245.996 167.144 250.841 167.317 251.673 167.544C245.859 169.266 245.901 175.239 243.559 178.872Z" fill="#343434"/>
<path d="M291.556 192.646C291.898 195.082 293.063 197.853 293.967 202.882C294.51 200.687 298.733 186.04 299.616 182.754C297.718 181.96 289.785 178.537 288.535 178.177C295.026 183.367 290.928 188.175 291.556 192.646Z" fill="#343434"/>
<path d="M281.959 152.23C295.599 158.331 297.242 168.337 296.928 173.901C294.603 173.234 292 172.465 290.823 172.006C292.641 166.161 290.907 159.455 281.959 152.23Z" fill="#343434"/>
<path d="M246.517 157.23C264.217 151.16 285.347 151.681 292.801 168.852C288.952 171.306 279.522 171.525 278.288 171.658C266.009 160.149 252.102 159.119 246.517 157.23Z" fill="#343434"/>
<path d="M244.578 171.718C258.465 184.798 289.283 179.492 289.529 175.301C289.776 171.11 277.798 165.411 265.033 164.66C252.268 163.908 245.411 170.146 244.578 171.718Z" fill="#343434"/>
<path d="M251.511 208.032C251.511 208.032 242.134 208.795 240.468 202.6C238.438 195.051 245.926 191.708 249.522 193.819C252.851 195.771 255.032 200.412 251.511 208.032Z" fill="white"/>
<path d="M242.243 194.222C244.492 192.341 246.809 192.213 249.009 193.14C251.259 194.088 253.043 196.729 253.115 198.943C252.532 196.304 250.617 194.848 249.372 194.118C247.391 192.953 244.246 193.284 242.309 195.216C240.584 196.934 239.779 200.025 240.524 202.796C239.297 200.704 239.899 196.182 242.243 194.222Z" fill="#343434"/>
<path d="M249.006 198.946C249.102 201.477 247.384 203.818 245.168 204.175C242.953 204.534 241.079 202.772 240.982 200.241C240.886 197.711 242.604 195.369 244.82 195.012C247.036 194.654 248.909 196.415 249.006 198.946Z" fill="#343434"/>
<path d="M248.91 198.142C248.937 198.844 248.459 199.494 247.845 199.593C247.23 199.692 246.709 199.203 246.683 198.501C246.656 197.799 247.132 197.15 247.748 197.05C248.362 196.951 248.883 197.44 248.91 198.142Z" fill="white"/>
<path d="M266.575 212.467C266.575 212.467 275.653 218.582 281 214.42C287.517 209.349 281.881 202.201 276.981 201.847C272.447 201.521 267.492 204.093 266.575 212.467Z" fill="white"/>
<path d="M284.141 206.438C282.965 203.563 280.686 202.102 277.903 201.585C275.058 201.056 271.687 202.202 270.307 203.995C272.456 202.148 275.263 202.061 276.958 202.183C279.658 202.375 282.657 204.488 283.487 207.223C284.226 209.656 283.219 212.688 280.828 214.55C283.308 213.534 285.365 209.433 284.141 206.438Z" fill="#343434"/>
<path d="M278.285 208.126C278.532 210.703 276.643 212.992 274.068 213.238C271.492 213.485 269.204 211.596 268.958 209.019C268.712 206.441 270.601 204.152 273.175 203.906C275.751 203.659 278.039 205.549 278.285 208.126Z" fill="#343434"/>
<path d="M278.13 207.304C278.198 208.02 277.674 208.654 276.959 208.722C276.244 208.791 275.61 208.267 275.542 207.553C275.473 206.837 275.997 206.202 276.712 206.134C277.427 206.065 278.062 206.59 278.13 207.304Z" fill="white"/>
<path d="M271.626 278.496C271.146 277.913 270.922 271.585 270.967 270.753C281.593 269.053 294.218 263.644 296.885 262.533C296.885 262.533 299.941 269.114 296.336 273.246C293.465 276.537 282.633 278.849 271.626 278.496Z" fill="#D0D0D0"/>
<path d="M0.845253 127.524C0.793137 127.524 0.74112 127.515 0.693205 127.495C0.481242 127.409 0.381212 127.171 0.465237 126.96C4.98428 115.812 14.6269 107.177 28.3608 101.986C47.5379 94.7412 54.9481 89.5788 58.8503 80.7352C58.9423 80.527 59.1944 80.4349 59.3905 80.527C59.5985 80.6171 59.6955 80.8593 59.6035 81.0685C55.5923 90.1473 48.0711 95.4178 28.6489 102.755C15.1394 107.862 5.65288 116.339 1.22566 127.268C1.16164 127.429 1.0055 127.524 0.845253 127.524Z" fill="#B3B3B3"/>
<path d="M26.5749 96.0337L26.7893 103.333L32.9327 107.275L26.6552 110.829L26.5548 103.465L20.2979 99.5877L26.5749 96.0337Z" fill="#B1B1B1"/>
<path d="M15.5835 101.581L16.4332 108.833L22.8968 112.224L16.9533 116.312L16.2114 108.985L9.63965 105.668L15.5835 101.581Z" fill="#777777"/>
<path d="M4.385 109.866L7.4391 116.498L14.6346 117.718L10.2496 123.448L7.27555 116.712L0 115.595L4.385 109.866Z" fill="#B1B1B1"/>
<path d="M37.8958 90.7134L39.4022 97.8585L46.1472 100.646L40.6005 105.259L39.1951 98.0306L32.3491 95.3263L37.8958 90.7134Z" fill="#666666"/>
<path d="M125.439 51.8164C126.653 50.186 132.237 56.6255 134.865 61.9321L130.384 64.7295C129.05 58.307 127.138 54.5738 125.439 51.8164Z" fill="#B1B1B1"/>
<path d="M125.156 51.4407C126.887 50.8522 127.755 60.6165 127.221 64.708L122.757 63.9183C123.938 58.3966 124.81 55.5662 125.156 51.4407Z" fill="#B1B1B1"/>
<path d="M61.7337 10.1289C63.0531 8.94289 58.2997 2.9237 54.2965 0.000188828L51.9268 4.5111C56.8542 6.14451 59.6681 8.2673 61.7337 10.1289Z" fill="#B1B1B1"/>
<path d="M62.3373 9.95581C62.6664 8.13422 54.297 8.65567 50.877 9.77566L51.9863 14.1465C56.5546 12.1718 58.8713 10.8926 62.3373 9.95581Z" fill="#B1B1B1"/>
<path d="M57.4688 83.9111C57.4688 83.9111 61.9271 19.5531 61.0478 8.96705C81.6639 10.3372 108.404 9.82677 122.178 7.07441C122.181 16.1161 125.177 43.4355 127.517 52.0549C114.404 63.2805 76.4164 79.4163 57.4688 83.9111Z" fill="#7B7B7B"/>
<path d="M66.5254 81.3525C66.534 81.3497 66.5427 81.3468 66.5513 81.344C66.5427 81.3468 66.534 81.3497 66.5254 81.3525Z" fill="#7B7B7B"/>
<path d="M66.5693 81.3379C66.5844 81.3339 66.5994 81.329 66.6144 81.324C66.5984 81.329 66.5854 81.3329 66.5693 81.3379Z" fill="#7B7B7B"/>
<path d="M127.099 50.3525C124.902 40.5912 122.337 17.0339 122.185 7.87005C122.337 17.0339 124.902 40.5912 127.099 50.3525Z" fill="#7F7F7F"/>
<path d="M66.6162 81.3242C72.0638 79.5887 78.1986 77.3548 84.4735 74.8276C84.4735 74.8266 84.4725 74.8247 84.4725 74.8237C88.0715 73.3734 91.7166 71.8271 95.3037 70.2237C95.3027 70.2217 95.3027 70.2197 95.3017 70.2167C97.7474 69.1228 100.168 68.0028 102.529 66.8679C100.004 59.3855 95.8228 51.6238 92.869 48.5001C98.3306 42.2798 103.466 35.9964 107.992 29.8962C117.958 37.4437 123.766 45.4135 127.146 52.2383C127.162 52.2684 127.18 52.2964 127.202 52.3214C126.938 52.5426 126.665 52.7648 126.383 52.989C125.893 53.3793 125.374 53.7747 124.83 54.174C112.094 63.539 85.3097 75.3711 66.6162 81.3242ZM127.099 50.3527C123.581 43.7891 117.839 36.3247 108.48 29.2387C112.813 23.3546 116.568 17.6508 119.487 12.3562C120.389 10.883 121.286 9.39069 122.185 7.8704C122.337 17.0342 124.902 40.5914 127.099 50.3527Z" fill="#7B7B7B"/>
<path d="M57.4688 83.9111C57.4688 83.9111 59.0222 61.489 60.1145 40.9365C69.6384 39.5613 88.3139 44.0471 92.5622 48.1877C95.5271 51.0781 99.9164 59.122 102.529 66.8676C86.9595 74.352 68.8131 81.2198 57.4688 83.9111Z" fill="#B1B1B1"/>
<path d="M57.4688 83.9111C57.4688 83.9111 58.6451 66.9237 59.6704 48.9705C67.7327 47.5072 83.3163 50.6879 87.0414 54.5592C89.6321 57.2505 93.2352 63.77 95.3038 70.2235C81.6138 76.3417 67.0896 81.6292 57.4688 83.9111Z" fill="#7B7B7B"/>
<path d="M57.4688 83.9111C57.4688 83.9111 58.167 73.8235 58.9562 60.9905C64.8409 59.2731 76.1733 60.1038 79.1352 62.6049C80.7667 63.9821 84.2067 69.9552 84.4738 74.8274C74.3388 78.9088 64.5679 82.2277 57.4688 83.9111Z" fill="#B1B1B1"/>
<path d="M127.697 52.4199C127.587 52.3328 127.479 52.2518 127.374 52.1757C127.421 52.1357 127.469 52.0946 127.516 52.0546C127.491 51.9615 127.466 51.8674 127.441 51.7703C127.328 51.3379 127.214 50.8645 127.099 50.352C127.374 50.8645 127.634 51.3719 127.884 51.8724C127.983 52.0746 127.9 52.3198 127.697 52.4199Z" fill="white"/>
<path d="M127.515 52.4648C127.395 52.4648 127.28 52.4128 127.202 52.3207C127.259 52.2727 127.317 52.2246 127.374 52.1756C127.479 52.2517 127.587 52.3327 127.697 52.4198C127.696 52.4208 127.695 52.4208 127.695 52.4218C127.639 52.4518 127.575 52.4648 127.515 52.4648Z" fill="#7F7F7F"/>
<path d="M107.993 29.8955C107.946 29.8605 107.898 29.8244 107.851 29.7884C108.012 29.5672 108.172 29.347 108.332 29.1257C108.381 29.1628 108.431 29.2008 108.48 29.2379C108.319 29.4561 108.156 29.6773 107.993 29.8955Z" fill="#E8E8E8"/>
<path d="M127.441 51.7705C127.328 51.3381 127.214 50.8646 127.099 50.3521C127.214 50.8646 127.328 51.3381 127.441 51.7705Z" fill="#D0D0D0"/>
<path d="M127.202 52.3213C127.18 52.2963 127.162 52.2682 127.146 52.2382C123.766 45.4133 117.958 37.4435 107.992 29.896C108.155 29.6778 108.318 29.4566 108.479 29.2384C117.839 36.3245 123.581 43.789 127.099 50.3526C127.214 50.865 127.328 51.3384 127.441 51.7708C127.466 51.8679 127.491 51.962 127.516 52.0551C127.413 52.1431 127.308 52.2322 127.202 52.3213Z" fill="#E8E7E7"/>
<path d="M63.3534 9.11133C62.8612 9.0833 62.3701 9.0533 61.885 9.02227C61.86 8.92719 61.83 8.82812 61.7939 8.72503C62.3171 8.85214 62.8382 8.98122 63.3534 9.11133Z" fill="white"/>
<path d="M61.8851 9.02246C61.605 9.00444 61.3259 8.98643 61.0478 8.96741C61.0478 8.97041 61.0477 8.97242 61.0487 8.97542C60.9207 8.9474 60.7847 8.92337 60.6416 8.90035C60.6436 8.89134 60.6456 8.88131 60.6476 8.8713C60.6996 8.68112 60.8787 8.55799 61.0578 8.55799C61.0868 8.55799 61.1158 8.562 61.1438 8.568C61.3619 8.62105 61.5779 8.67313 61.794 8.72518C61.83 8.82828 61.8601 8.92737 61.8851 9.02246Z" fill="#B1B1B1"/>
<path d="M61.0791 9.39551C61.0381 9.3855 60.993 9.37549 60.952 9.36549C60.742 9.31545 60.608 9.1103 60.642 8.90014C60.785 8.92316 60.921 8.94718 61.0491 8.9752C61.0601 9.10729 61.0701 9.2474 61.0791 9.39551Z" fill="#B1B1B1"/>
<path d="M107.193 29.2979C96.8045 21.6253 82.0471 14.4372 61.0789 9.39488C61.0699 9.24675 61.0599 9.10663 61.0488 8.97452C61.0478 8.97152 61.0479 8.96951 61.0479 8.96651C61.3259 8.98552 61.605 9.00354 61.8851 9.02155C62.3702 9.05258 62.8614 9.08259 63.3535 9.11061C83.3295 14.1479 97.5507 21.1599 107.675 28.6353C107.515 28.8565 107.354 29.0767 107.193 29.2979Z" fill="#E8E8E8"/>
<path d="M57.3238 83.6973C57.2847 83.5561 57.3238 83.3989 57.4378 83.2908C57.4638 83.2668 57.4908 83.2407 57.5169 83.2167C57.5128 83.2788 57.5088 83.3368 57.5048 83.3909C57.4448 83.493 57.3848 83.5961 57.3238 83.6973Z" fill="white"/>
<path d="M57.7179 84C57.6098 84 57.5018 83.956 57.4218 83.8719C57.3737 83.8198 57.3407 83.7598 57.3237 83.6967C57.3848 83.5956 57.4448 83.4925 57.5048 83.3904C57.4868 83.6497 57.4758 83.8158 57.4708 83.8799C57.4708 83.8809 57.4708 83.8809 57.4708 83.8809C57.4708 83.8829 57.4708 83.8839 57.4708 83.8849C57.4708 83.8859 57.4708 83.8869 57.4708 83.8879C57.4708 83.8899 57.4708 83.8919 57.4708 83.8929C57.4698 83.8939 57.4698 83.8949 57.4698 83.8959C57.4698 83.8969 57.4698 83.8979 57.4698 83.8989C57.4698 83.8999 57.4698 83.8999 57.4698 83.9009V83.9019C57.4698 83.9029 57.4698 83.9039 57.4698 83.9039C57.4698 83.9049 57.4698 83.9059 57.4698 83.9059V83.9069C57.4698 83.9069 57.4698 83.9069 57.4698 83.9079C57.4688 83.9079 57.4688 83.9079 57.4688 83.9079V83.9089V83.9099V83.9109C57.4808 83.9079 57.4928 83.9049 57.5038 83.9019C57.5088 83.9009 57.5138 83.8999 57.5188 83.8989C57.5248 83.8969 57.5298 83.8959 57.5348 83.8949C57.7369 83.8469 57.941 83.7978 58.147 83.7468C58.098 83.7928 58.047 83.8419 57.998 83.8879C57.9219 83.961 57.8179 84 57.7179 84Z" fill="#B1B1B1"/>
<path d="M57.4688 83.9102V83.9092V83.9102ZM92.8292 48.4579C92.7392 48.3638 92.6502 48.2738 92.5621 48.1877C92.4611 48.0896 92.3511 47.9905 92.234 47.8914C97.7967 41.56 102.678 35.4869 107.192 29.2986C107.415 29.4617 107.633 29.6249 107.851 29.789C103.316 36.0033 98.4159 42.1005 92.8292 48.4579Z" fill="#E8E8E8"/>
<path d="M57.4688 83.9111C57.4795 83.9082 57.4893 83.9063 57.499 83.9034C57.5 83.9034 57.5019 83.9034 57.5019 83.9034C57.5029 83.9024 57.5029 83.9024 57.5029 83.9024C57.4922 83.9053 57.4805 83.9082 57.4688 83.9111Z" fill="#D0D0D0"/>
<path d="M57.5186 83.8984C57.5195 83.8984 57.5205 83.8975 57.5215 83.8975C57.5245 83.8965 57.5294 83.8955 57.5323 83.8946C57.5333 83.8946 57.5343 83.8946 57.5343 83.8946C57.5294 83.8955 57.5245 83.8965 57.5186 83.8984Z" fill="#D0D0D0"/>
<path d="M57.4688 83.9111V83.9101V83.9111ZM57.4688 83.9081C57.4688 83.9081 57.4687 83.9081 57.4697 83.9081C57.4687 83.9081 57.4688 83.9081 57.4688 83.9081ZM57.4697 83.9061C57.4697 83.9061 57.4697 83.9051 57.4697 83.9041C57.4697 83.9051 57.4697 83.9061 57.4697 83.9061ZM57.4697 83.9041C57.4697 83.9041 57.4697 83.9031 57.4697 83.9021C57.4697 83.9031 57.4697 83.9031 57.4697 83.9041ZM57.4998 83.9031H57.5018H57.5028C57.5028 83.9031 57.5008 83.9031 57.4998 83.9031ZM87.1884 54.7143C87.1394 54.6612 87.0904 54.6092 87.0414 54.5591C86.9083 54.42 86.7603 54.2819 86.5972 54.1458C88.5538 52.026 90.4304 49.9442 92.2339 47.8915C92.3509 47.9906 92.4609 48.0896 92.562 48.1877C92.65 48.2738 92.739 48.3639 92.8291 48.4579C91.0245 50.5117 89.147 52.5935 87.1884 54.7143Z" fill="#E8E7E7"/>
<path d="M57.4688 83.9111C57.4798 83.9081 57.4908 83.9061 57.5018 83.9031H57.4998C57.4898 83.9061 57.4798 83.9081 57.4688 83.9111ZM57.4688 83.9101V83.9091V83.9081C57.4688 83.9091 57.4688 83.9091 57.4688 83.9101ZM57.4697 83.9071V83.9061C57.4697 83.9061 57.4697 83.9051 57.4697 83.9041C57.4697 83.9051 57.4697 83.9061 57.4697 83.9071ZM57.4697 83.9041C57.4697 83.9031 57.4697 83.9031 57.4697 83.9021V83.9011C57.4697 83.9001 57.4697 83.9001 57.4697 83.8991C57.4697 83.9011 57.4697 83.9031 57.4697 83.9041ZM57.5218 83.8981C57.5258 83.8971 57.5288 83.8961 57.5328 83.8951C57.5298 83.8961 57.5248 83.8971 57.5218 83.8981ZM57.4697 83.8961C57.4697 83.8951 57.4698 83.8941 57.4708 83.8931C57.4698 83.8941 57.4697 83.8951 57.4697 83.8961ZM57.4708 83.8811C57.4708 83.8811 57.4708 83.8811 57.4708 83.8801C57.4708 83.8811 57.4708 83.8811 57.4708 83.8811ZM79.4321 62.8854C79.327 62.7773 79.228 62.6842 79.135 62.6051C79.034 62.5201 78.9229 62.436 78.8029 62.3549C81.5447 59.5386 84.1364 56.8103 86.5971 54.146C86.7602 54.2821 86.9082 54.4202 87.0413 54.5593C87.0903 54.6094 87.1393 54.6614 87.1883 54.7145C84.7386 57.3677 82.1599 60.083 79.4321 62.8854Z" fill="#E8E8E8"/>
<path d="M57.4688 83.9111V83.9101C57.4688 83.9091 57.4688 83.9091 57.4688 83.9081C57.4688 83.9081 57.4687 83.9081 57.4697 83.9081C57.4697 83.9071 57.4697 83.9071 57.4697 83.9071C57.4697 83.9061 57.4697 83.9051 57.4697 83.9041C57.4697 83.9031 57.4697 83.9011 57.4697 83.8991C57.4697 83.8981 57.4697 83.8971 57.4697 83.8961C57.4697 83.8951 57.4698 83.8941 57.4708 83.8931C57.4708 83.8921 57.4708 83.8901 57.4708 83.8881C57.4708 83.8871 57.4708 83.8861 57.4708 83.8851C57.4708 83.8841 57.4708 83.8831 57.4708 83.8811C57.4708 83.8811 57.4708 83.8811 57.4708 83.8801C57.4758 83.816 57.4868 83.6499 57.5048 83.3907C57.5088 83.3366 57.5128 83.2786 57.5168 83.2165C65.5611 75.6081 72.5722 68.7543 78.803 62.3549C78.9231 62.436 79.0341 62.52 79.1351 62.6051C79.2281 62.6842 79.3272 62.7772 79.4322 62.8853C73.1994 69.2868 66.1893 76.1406 58.1469 83.747C57.9409 83.798 57.7368 83.8471 57.5348 83.8951C57.5348 83.8951 57.5338 83.8951 57.5328 83.8951C57.5288 83.8961 57.5258 83.8971 57.5218 83.8981C57.5208 83.8981 57.5198 83.8991 57.5188 83.8991C57.5138 83.9001 57.5088 83.9011 57.5038 83.9021C57.5038 83.9021 57.5038 83.9021 57.5028 83.9031H57.5018C57.4908 83.9061 57.4798 83.9081 57.4688 83.9111Z" fill="#B9B8B8"/>
<path d="M122.185 7.87012C122.18 7.59187 122.178 7.32564 122.178 7.07441C122.002 7.10944 121.823 7.1445 121.643 7.17853C121.704 7.07544 121.766 6.96931 121.827 6.86622C121.905 6.73611 122.046 6.66507 122.187 6.66507C122.257 6.66507 122.326 6.68307 122.388 6.7191C122.583 6.8362 122.648 7.08643 122.531 7.28261C122.416 7.47878 122.3 7.67494 122.185 7.87012Z" fill="white"/>
<path d="M108.332 29.126C108.114 28.9628 107.896 28.7987 107.675 28.6356C112.622 21.8057 117.138 14.8207 121.643 7.17811C121.823 7.14408 122.002 7.10903 122.178 7.074C121.385 8.78046 120.485 10.543 119.487 12.3555C115.9 18.2076 112.25 23.7173 108.332 29.126Z" fill="#E8E8E8"/>
<path d="M122.185 7.87012C122.18 7.59184 122.178 7.32557 122.178 7.07431C122.178 7.32557 122.18 7.59184 122.185 7.87012Z" fill="#D0D0D0"/>
<path d="M119.487 12.3555C120.485 10.5429 121.384 8.78045 122.178 7.074C122.178 7.32522 122.18 7.59144 122.185 7.86968C121.286 9.38996 120.389 10.8822 119.487 12.3555Z" fill="#7B7B7B"/>
<path d="M107.851 29.7891C107.632 29.6249 107.414 29.4618 107.192 29.2986C107.353 29.0774 107.514 28.8572 107.675 28.636C107.896 28.7992 108.114 28.9633 108.332 29.1265C108.172 29.3477 108.012 29.5679 107.851 29.7891Z" fill="#7B7B7B"/>
<path d="M78.7401 63.3193C78.585 63.3193 78.449 63.1972 78.436 63.0391C78.42 62.869 78.544 62.7188 78.712 62.7048C83.3354 62.2945 87.4346 61.9402 91.0566 61.6239C98.5338 60.9744 103.934 60.506 107.806 60.0976C107.817 60.0976 107.825 60.0956 107.838 60.0956C107.994 60.0956 108.126 60.2137 108.142 60.3719C108.162 60.54 108.038 60.6921 107.869 60.7101C103.994 61.1185 98.5908 61.5879 91.1087 62.2364C87.4866 62.5527 83.3914 62.907 78.7691 63.3173C78.7561 63.3173 78.7481 63.3193 78.7401 63.3193Z" fill="#CCCCCC"/>
<path d="M107.838 60.7119H107.833C107.661 60.7079 107.525 60.5678 107.529 60.3976C107.569 58.1207 107.553 53.797 107.533 48.7907C107.501 41.9739 107.469 34.2503 107.573 29.0799C107.577 28.9118 107.713 28.7777 107.881 28.7777H107.89C108.058 28.7817 108.194 28.9218 108.19 29.0919C108.085 34.2544 108.117 41.9759 108.146 48.7867C108.166 53.797 108.185 58.1247 108.146 60.4096C108.142 60.5778 108.006 60.7119 107.838 60.7119Z" fill="#CCCCCC"/>
<path d="M200.459 221.634C204.284 221.553 208.868 219.06 208.693 217.967C207.834 212.601 202.071 213.873 199.824 211.45C199.601 211.643 199.106 212.626 198.908 212.857C196.766 215.36 197.95 219.417 200.459 221.634Z" fill="#BFBFBF"/>
<path d="M195.112 217.201C194.506 216.936 194.717 212.803 193.791 211.753C192.601 210.402 191.678 209.506 191.08 208.38C190.42 207.135 190.458 204.852 192.395 205.892C193.384 206.424 195.509 207.789 196.619 208.919C197.548 209.864 198.087 210.854 199.53 212.73C198.744 215.305 196.299 217.721 195.112 217.201Z" fill="#BFBFBF"/>
<path d="M201.395 217.222C201.318 217.222 201.243 217.195 201.182 217.138C174.864 192.284 189.432 208.428 163.195 178.49C163.195 178.49 160.024 174.434 158.557 172.528C158.489 172.374 158.557 172.192 158.713 172.124C158.869 172.052 159.046 172.124 159.117 172.28C161.024 174.934 162.524 176.434 163.76 178.241C189.968 208.12 175.377 191.922 201.606 216.69C201.732 216.808 201.735 217.001 201.619 217.125C201.558 217.188 201.474 217.222 201.395 217.222Z" fill="#868686"/>
<path d="M126.389 97.0586C126.312 97.0586 126.237 97.0316 126.176 96.9745C109.857 72.1212 110.426 72.2651 106.189 63.3265C105.32 61.3568 108.439 62.3701 107.55 60.3653C107.482 60.2112 107.55 60.0291 107.706 59.961C107.862 59.8889 108.039 59.961 108.11 60.1171C109.003 62.1218 105.88 61.1086 106.753 63.0783C110.962 71.9568 110.37 71.7589 126.6 96.5271C126.725 96.6452 126.729 96.8384 126.613 96.9615C126.552 97.0246 126.468 97.0586 126.389 97.0586Z" fill="#868686"/>
<path d="M187.413 211.29C187.364 210.76 188.378 204.907 188.916 204.678C190.312 204.086 191.218 206.284 190.695 210.801C192.806 213.821 197.214 215.449 195.993 216.951C194.77 218.453 192.812 219.239 191.218 218.184C190.806 217.912 187.517 212.41 187.413 211.29Z" fill="#BFBFBF"/>
<path d="M198.089 205.761C198.768 206.136 198.649 207.096 198.041 207.768C199.018 207.172 199.656 206.865 199.878 207.013C200.532 207.448 200.486 208.385 199.939 208.888C201.112 208.728 201.251 209.663 200.885 210.351C200.644 210.804 200.263 211.459 199.648 212.56C199.38 213.039 199.579 213.49 200.057 216.294C200.752 216.682 204.214 213.491 207.167 214.567C209.183 215.302 209.676 216.764 209.78 218.669C209.877 220.427 208.535 222.454 206.63 223.327C205.427 223.878 194.577 219.624 193.173 218.869C191.051 217.729 190.858 210.499 191.643 209.511C192.851 207.992 197.092 205.708 198.089 205.761Z" fill="#D0D0D0"/>
<path d="M193.826 211.994C193.789 212.673 193.72 213.939 193.759 215.158C193.762 215.241 193.829 215.306 193.91 215.302C193.991 215.299 194.054 215.231 194.052 215.15C194.013 213.942 194.082 212.685 194.118 212.009C194.131 211.781 194.14 211.612 194.141 211.528C194.12 211.211 196.117 209.167 198.188 207.808C198.226 207.741 198.26 207.67 198.293 207.598C196.699 208.338 193.854 210.922 193.848 211.524C193.847 211.607 193.838 211.77 193.826 211.994Z" fill="#BFBFBF"/>
<path d="M196.689 212.816C196.652 213.5 196.581 214.77 196.621 216.003C196.624 216.085 196.69 216.148 196.773 216.145C196.853 216.142 196.916 216.074 196.914 215.994C196.874 214.773 196.944 213.51 196.982 212.833C196.993 212.613 197.002 212.454 197.003 212.371C197.008 211.949 198.492 209.762 200.132 208.895C200.175 208.874 200.196 208.833 200.203 208.789C200.066 208.802 199.92 208.82 199.764 208.842L199.562 208.963C197.943 209.939 196.716 211.832 196.71 212.368C196.709 212.448 196.7 212.603 196.689 212.816Z" fill="#BFBFBF"/>
<path d="M232.332 287.372C231.604 287.372 230.876 287.331 230.143 287.245C223.061 286.403 217.462 281.599 215.164 274.396C212.878 267.237 211.578 258.244 210.321 249.545C208.239 235.173 206.278 221.597 200.286 216.285C200.158 216.173 200.146 215.979 200.262 215.85C200.37 215.722 200.562 215.71 200.694 215.824C206.855 221.287 208.831 234.971 210.93 249.457C212.182 258.129 213.483 267.099 215.748 274.208C217.97 281.177 223.378 285.823 230.214 286.633C238.509 287.599 246.71 282.772 252.214 273.687C252.302 273.541 252.486 273.497 252.638 273.585C252.783 273.673 252.831 273.862 252.743 274.008C247.592 282.509 240.085 287.372 232.332 287.372Z" fill="#8D8C8E"/>
<path d="M261.857 261.826C262.024 261.327 267.533 263.295 269.407 263.87C271.648 264.56 273.366 266.903 275.734 272.618C275.505 272.733 274.997 272.494 274.445 272.256C273.963 272.049 273.448 271.841 273.057 271.869C272.22 271.928 270.967 269.428 269.101 267.998C266.854 266.275 260.49 265.925 261.857 261.826Z" fill="#D0D0D0"/>
<path d="M254.277 270.206L250.519 268.842C250.504 268.836 250.497 268.821 250.502 268.806L252.005 264.66C252.01 264.646 252.026 264.638 252.04 264.643L255.8 266.008C255.814 266.013 255.822 266.029 255.816 266.043L254.312 270.19C254.307 270.204 254.291 270.211 254.277 270.206Z" fill="#6C6C6C"/>
<path d="M254.013 274.573C252.348 274.28 249.619 275.212 249.092 276.073C248.613 276.857 248.9 277.155 248.667 277.254C248.425 277.355 247.858 276.881 247.865 276.19C247.879 274.823 249.455 273.328 250.817 272.302C251.85 271.525 252.311 271.224 253.416 271.376C253.416 271.376 253.688 273.4 254.013 274.573Z" fill="#6C6C6C"/>
<path d="M258.391 262.499C256.924 261.655 255.429 259.188 255.576 258.19C255.71 257.28 256.122 257.235 256.006 257.01C255.886 256.779 255.147 256.779 254.71 257.312C253.844 258.371 254.094 260.529 254.482 262.19C254.778 263.449 254.938 263.976 255.884 264.568C255.884 264.568 257.389 263.189 258.391 262.499Z" fill="#6C6C6C"/>
<path d="M264.257 263.09C265.501 263.542 266.145 264.921 265.694 266.166L261.963 276.455C261.512 277.7 260.133 278.346 258.889 277.893L258.223 277.652C256.979 277.201 256.334 275.821 256.786 274.576L260.517 264.287C260.968 263.042 262.347 262.396 263.592 262.849L264.257 263.09ZM257.384 279.966L258.049 280.208C260.568 281.122 263.361 279.816 264.276 277.295L268.007 267.006C268.921 264.485 267.614 261.69 265.096 260.776L264.431 260.534C261.913 259.62 259.118 260.926 258.204 263.447L254.473 273.736C253.559 276.257 254.866 279.052 257.384 279.966Z" fill="#6C6C6C"/>
<path d="M256.549 259.751C256.549 259.751 257.046 261.23 258.64 262.243C257.129 265.978 254.153 275.097 254.153 275.097C254.056 275.055 253.961 275.016 253.866 274.98C251.752 274.19 250.022 274.998 250.022 274.998L256.549 259.751Z" fill="#7F7F7F"/>
<path d="M250.626 275.457C250.756 275.503 250.901 275.428 250.941 275.298C252.608 270.004 254.721 264.075 256.452 259.829C256.501 259.702 256.44 259.559 256.316 259.509C256.208 259.457 256.047 259.517 255.994 259.642C254.26 263.901 252.145 269.845 250.47 275.151C250.431 275.276 250.502 275.414 250.626 275.457Z" fill="#9E9D9D"/>
<path d="M253.761 275.295C253.893 275.335 254.036 275.263 254.076 275.132C255.201 271.361 257.425 265.249 258.934 262.157C258.995 262.036 258.943 261.888 258.821 261.828C258.676 261.787 258.552 261.82 258.494 261.943C256.97 265.054 254.735 271.201 253.602 274.991C253.567 275.117 253.641 275.252 253.761 275.295Z" fill="#CCCCCC"/>
<path d="M253.272 275.231C253.401 275.269 253.545 275.196 253.585 275.066C254.82 270.822 256.654 265.12 258.08 261.835C258.132 261.711 258.075 261.566 257.951 261.513C257.848 261.45 257.682 261.512 257.626 261.64C256.193 264.943 254.354 270.67 253.111 274.928C253.075 275.053 253.151 275.187 253.272 275.231Z" fill="#9E9D9D"/>
<path d="M252.652 275.058C252.786 275.092 252.931 275.017 252.962 274.883C254.242 269.899 256.399 264.241 257.574 261.313C257.623 261.186 257.559 261.039 257.433 260.991C257.311 260.944 257.167 261.007 257.116 261.13C255.937 264.068 253.772 269.748 252.488 274.762C252.454 274.885 252.534 275.015 252.652 275.058Z" fill="#CCCCCC"/>
<path d="M251.872 275.08C252 275.123 252.146 275.048 252.186 274.919C253.647 270.205 255.777 264.782 257.31 261.064C257.362 260.938 257.302 260.793 257.174 260.741C257.049 260.692 256.905 260.749 256.854 260.874C255.32 264.604 253.181 270.042 251.714 274.772C251.675 274.899 251.748 275.038 251.872 275.08Z" fill="#E0E0E0"/>
<path d="M251.18 275.35C251.309 275.388 251.453 275.315 251.493 275.187C252.619 271.37 254.385 266.375 256.74 260.34C256.789 260.213 256.725 260.071 256.6 260.02C256.47 259.966 256.33 260.033 256.28 260.16C253.92 266.208 252.151 271.218 251.019 275.045C250.983 275.172 251.059 275.306 251.18 275.35Z" fill="#E0E0E0"/>
<path d="M250.121 275.587C250.252 275.631 250.395 275.555 250.435 275.425C251.921 270.481 254.07 264.783 256.167 259.363C256.216 259.238 256.15 259.091 256.024 259.044C255.898 258.997 255.755 259.06 255.707 259.186C253.606 264.615 251.454 270.321 249.962 275.283C249.927 275.409 249.996 275.545 250.121 275.587Z" fill="#CCCCCC"/>
<path d="M268.548 267.641C268.293 267.638 268.038 267.634 267.782 267.629L267.894 267.318C268.126 267.421 268.346 267.529 268.548 267.641Z" fill="#343434"/>
<path d="M268.347 267.695C268.166 267.695 267.971 267.688 267.765 267.674L267.782 267.629C268.038 267.634 268.293 267.638 268.548 267.641C268.577 267.657 268.604 267.673 268.632 267.689C268.541 267.693 268.446 267.695 268.347 267.695Z" fill="#7F7F7F"/>
<path d="M265.296 267.264C265.266 267.257 265.237 267.249 265.208 267.242C262.816 266.637 261.001 265.657 261.155 265.052C261.223 264.782 261.671 264.631 262.358 264.602C263.099 265.404 264.34 265.942 265.601 266.422L265.296 267.264Z" fill="#343434"/>
<path d="M268.632 267.688C268.604 267.672 268.577 267.656 268.548 267.64C268.346 267.528 268.126 267.42 267.894 267.317L268.007 267.006C268.139 266.643 268.224 266.275 268.267 265.908C269.29 266.379 269.906 266.877 269.814 267.24C269.746 267.507 269.307 267.656 268.632 267.688ZM265.601 266.422C264.34 265.942 263.1 265.404 262.358 264.602C262.443 264.598 262.53 264.597 262.621 264.597C263.455 264.597 264.567 264.748 265.761 265.05C265.781 265.055 265.801 265.06 265.821 265.065C265.864 265.425 265.826 265.802 265.694 266.166L265.601 266.422Z" fill="#BFBFBF"/>
<path d="M267.765 267.674C267.048 267.624 266.197 267.488 265.296 267.264L265.601 266.423L265.694 266.167C265.826 265.802 265.864 265.426 265.821 265.066C266.754 265.305 267.597 265.601 268.267 265.908C268.224 266.276 268.139 266.644 268.007 267.006L267.894 267.318L267.782 267.629L267.765 267.674Z" fill="#414141"/>
<path d="M271.348 266.341C268.896 266.226 266.062 265.53 262.574 264.88C261.523 264.684 258.485 264.775 259.346 267.323C258.987 267.383 258.542 267.857 258.543 269.158C258.544 270.069 259.184 270.572 258.955 271.025C257.994 272.92 259.566 273.366 259.434 274.013C259.174 275.292 259.691 276.179 260.27 276.628C261.901 277.892 268.352 279.341 272.121 278.51C273.734 278.153 276.772 273.827 276.516 272.846C275.461 268.804 272.962 266.416 271.348 266.341Z" fill="#D0D0D0"/>
<path d="M264.414 275.622C264.414 275.622 260.662 274.514 259.45 274.185C259.359 274.16 259.304 274.066 259.33 273.974C259.353 273.882 259.449 273.827 259.54 273.853C260.754 274.185 263.872 275.103 264.497 275.291C264.589 275.319 264.639 275.414 264.611 275.504C264.589 275.584 264.494 275.631 264.414 275.622Z" fill="#BFBFBF"/>
<path d="M264.389 272.299L258.96 270.948C258.869 270.926 258.813 270.833 258.837 270.741C258.857 270.657 258.949 270.605 259.034 270.614C259.034 270.614 263.906 271.839 264.455 271.962C264.547 271.983 264.604 272.075 264.583 272.167C264.565 272.253 264.475 272.308 264.389 272.299Z" fill="#BFBFBF"/>
<path d="M265.029 268.968C265.029 268.968 260.006 267.644 259.332 267.477C259.24 267.455 259.183 267.361 259.206 267.268C259.228 267.176 259.315 267.119 259.413 267.144C260.089 267.312 264.723 268.547 265.096 268.631C265.188 268.652 265.245 268.744 265.224 268.835C265.206 268.922 265.116 268.977 265.029 268.968Z" fill="#BFBFBF"/>
</svg>
