<svg width="25" height="28" viewBox="0 0 25 28" fill="none" xmlns="http://www.w3.org/2000/svg">
<path fill-rule="evenodd" clip-rule="evenodd" d="M2.95702 0.0859508C2.29426 0.430631 2.33073 0.120391 2.32933 5.42765L2.32814 10.0078H1.84563C1.04812 10.0078 0.549515 10.2747 0.249495 10.8621L0.113275 11.1288L0.0986449 15.6062L0.0840149 20.0836L0.224785 20.3914C0.522915 21.0432 1.0085 21.3279 1.82225 21.328L2.32814 21.3281V24.2423V27.1564L2.45113 27.3973C2.51882 27.5297 2.66876 27.7134 2.78433 27.8053L2.99454 27.9726H12.5H22.0054L22.2156 27.8053C22.3312 27.7134 22.4811 27.5297 22.5488 27.3973L22.6719 27.1564V24.2423V21.3281L23.1777 21.328C23.9915 21.3279 24.477 21.0432 24.7752 20.3914L24.916 20.0836L24.9013 15.6062L24.8867 11.1288L24.7505 10.8621C24.4504 10.2747 23.9518 10.0078 23.1543 10.0078H22.6719L22.6699 8.2714C22.6685 7.01042 22.6498 6.50439 22.6015 6.42291C22.4928 6.23923 17.1689 0.184511 17.0316 0.0884008C16.842 -0.0444592 3.21224 -0.0468392 2.95702 0.0859508ZM16.1212 4.05131L16.1367 6.95428L16.3153 7.11381L16.4939 7.27334H19.0086H21.5234V8.64058V10.0078H12.5H3.47656V5.57808V1.14834H9.79112H16.1057L16.1212 4.05131ZM6.3516 11.8991C7.95334 12.2251 8.74749 13.4877 8.34366 15.0665C8.01445 16.3539 7.01702 16.9851 5.21284 17.0479L4.40623 17.0759V18.5184V19.9608H3.50386H2.60156V15.9495V11.9382L3.24409 11.874C3.59752 11.8387 3.98511 11.8005 4.10544 11.789C4.55393 11.7463 5.93293 11.8138 6.3516 11.8991ZM13.6719 11.8953C15.8135 12.2688 16.9528 13.7245 16.8582 15.9663C16.7258 19.1019 14.6166 20.3557 10.1074 19.9789L9.7109 19.9458V15.9402V11.9346L10.0801 11.8926C11.3368 11.75 12.8449 11.7511 13.6719 11.8953ZM23.1094 12.5507V13.289H21.5508H19.9922V14.246V15.2031H21.4414H22.8906V15.9413V16.6796H21.4414H19.9922V18.3203V19.9608H19.0899H18.1875V15.8866V11.8124H20.6484H23.1094V12.5507ZM4.52824 13.1604L4.4042 13.1875L4.4189 14.4277L4.4336 15.6679L4.94873 15.6838C6.22903 15.7231 6.99049 14.8814 6.59569 13.8632C6.37883 13.3038 5.39834 12.9705 4.52824 13.1604ZM11.8437 13.1723L11.5429 13.207L11.5288 15.9277L11.5146 18.6483H12.1314C13.9653 18.6483 14.8612 17.7943 14.9428 15.9687C15.0315 13.9833 13.8738 12.9386 11.8437 13.1723ZM21.5234 23.9531V26.5781H12.5H3.47656V23.9531V21.3281H12.5H21.5234V23.9531Z" fill="white"/>
</svg>
