<svg width="12" height="11" viewBox="0 0 12 11" fill="none" xmlns="http://www.w3.org/2000/svg">
    <path
        d="M10.4971 6.25H6.73997V10C6.73997 10.4125 6.40183 10.75 5.98854 10.75C5.57525 10.75 5.23711 10.4125 5.23711 10V6.25H1.47995C1.06666 6.25 0.728516 5.9125 0.728516 5.5C0.728516 5.0875 1.06666 4.75 1.47995 4.75H5.23711V1C5.23711 0.5875 5.57525 0.25 5.98854 0.25C6.40183 0.25 6.73997 0.5875 6.73997 1V4.75H10.4971C10.9104 4.75 11.2486 5.0875 11.2486 5.5C11.2486 5.9125 10.9104 6.25 10.4971 6.25Z"
        fill="white" />
</svg>
