<svg width="32" height="32" viewBox="0 0 32 32" fill="none" xmlns="http://www.w3.org/2000/svg">
<g clip-path="url(#clip0_345_663)">
<path fill-rule="evenodd" clip-rule="evenodd" d="M15.4525 0.124535C15.0155 0.390935 15.0004 0.464215 15.0002 2.3135C14.9999 3.9675 15.0002 3.97134 15.1523 4.19518C15.5426 4.76958 16.4572 4.76958 16.8475 4.19518C17.0645 3.8759 17.0873 0.800215 16.8753 0.452455C16.6051 0.00941449 15.9057 -0.151786 15.4525 0.124535ZM4.86999 4.51702C4.42951 4.8139 4.26159 5.31254 4.44047 5.7927C4.51551 5.99414 6.50711 8.02494 6.76247 8.16038C7.55327 8.57982 8.44784 7.80342 8.2216 6.8939C8.1664 6.6723 6.11263 4.58358 5.83007 4.46166C5.52103 4.32838 5.11519 4.35174 4.86999 4.51702ZM26.1562 4.46422C25.8788 4.58902 23.8312 6.68126 23.7782 6.8939C23.552 7.80342 24.4466 8.57982 25.2374 8.16038C25.4927 8.02494 27.4843 5.99414 27.5594 5.7927C27.8874 4.9123 27.0087 4.08046 26.1562 4.46422ZM15.0219 6.68446C6.61575 7.65414 3.66223 17.8987 10.2118 23.3691C11.1227 24.13 11.5294 24.7174 11.7761 25.6286L11.885 26.0312H15.9939H20.1028L20.1763 25.7186C20.3594 24.9401 20.9731 24.0513 21.8102 23.3522C25.3978 20.3558 26.3844 15.6768 24.2805 11.6373C22.5351 8.28606 18.7394 6.25566 15.0219 6.68446ZM17.7499 10.2166C20.1122 10.8329 21.9374 13.1245 21.9374 15.4743C21.9374 16.1901 21.5818 16.6249 20.9962 16.6249C20.4046 16.6249 20.0991 16.2335 20.0026 15.3514C19.7951 13.4549 18.5305 12.1942 16.6385 11.9981C15.7709 11.9081 15.375 11.5953 15.375 10.9999C15.375 10.132 16.2806 9.83326 17.7499 10.2166ZM0.452471 15.1245C-0.16417 15.5005 -0.16417 16.4993 0.452471 16.8753C0.642151 16.9909 0.769991 16.9994 2.31351 16.9997C4.18063 16.9999 4.28671 16.9749 4.52223 16.4786C4.74375 16.0119 4.59951 15.4271 4.19519 15.1523C3.87591 14.9353 0.800231 14.9125 0.452471 15.1245ZM27.8046 15.1523C27.5324 15.3373 27.375 15.6479 27.375 15.9999C27.375 16.8834 27.6444 17 29.6863 16.9997C31.5356 16.9994 31.6089 16.9843 31.8753 16.5473C32.1516 16.0941 31.9904 15.3947 31.5474 15.1245C31.1996 14.9125 28.1239 14.9353 27.8046 15.1523ZM6.71863 23.8686C6.41735 24.0587 4.51231 26.0141 4.44047 26.2071C4.11439 27.0823 4.97519 27.9069 5.83007 27.5381C6.11263 27.4162 8.1664 25.3275 8.2216 25.1059C8.45392 24.1721 7.49232 23.3805 6.71863 23.8686ZM24.2635 23.8538C23.8698 24.0479 23.6538 24.6054 23.7782 25.1059C23.8334 25.3275 25.8872 27.4162 26.1698 27.5381C27.0246 27.9069 27.8854 27.0823 27.5594 26.2071C27.4843 26.0057 25.4927 23.9749 25.2374 23.8394C25.0136 23.7207 24.5188 23.7281 24.2635 23.8538ZM12.013 29.0781C12.0467 30.6239 12.3317 31.2383 13.2499 31.7446L13.6562 31.9686H15.9999C18.6942 31.9686 18.6363 31.9792 19.2809 31.3696C19.8863 30.797 19.965 30.5529 19.9892 29.1717L20.0097 27.9999H15.9996H11.9896L12.013 29.0781Z" fill="#25B9F3"/>
</g>
<defs>
<clipPath id="clip0_345_663">
<rect width="32" height="32" fill="white"/>
</clipPath>
</defs>
</svg>
