<svg width="40" height="43" viewBox="0 0 40 43" fill="none" xmlns="http://www.w3.org/2000/svg">
<defs>
<linearGradient id="paint0_linear_1351_960" x1="20" y1="0" x2="20" y2="42.6923" gradientUnits="userSpaceOnUse">
<stop stop-color="#86D8F9"/>
<stop offset="1" stop-color="#3DC1F5"/>
</linearGradient>
</defs>
<path fill-rule="evenodd" clip-rule="evenodd" d="M24.2692 0H7.19228C4.8442 0 2.92305 1.92115 2.92305 4.26923V19H2.15385C0.96431 19 0 19.9643 0 21.1538V33.7692C0 34.9588 0.96431 35.9231 2.15385 35.9231H2.92305V38.4231C2.92305 40.7712 4.82285 42.6923 7.17092 42.6923H32.8077C35.1558 42.6923 37.0769 40.7712 37.0769 38.4231V35.9231H37.8462C39.0357 35.9231 40 34.9588 40 33.7692V21.1538C40 19.9643 39.0357 19 37.8462 19H37.0769V12.8077L24.2692 0ZM6.2692 39.3462V35.9231H33.7307V39.3462H6.2692ZM6.2692 19H33.7307V14.0192H23.0577V3.34615H6.2692V19ZM9.55909 33.319C9.81303 33.319 10.0598 33.3044 10.2994 33.2751L12.8726 35.3518L14.674 33.8313L12.7318 32.291C12.9467 32.1238 13.1479 31.9376 13.3354 31.7325C13.8091 31.2147 14.1727 30.5922 14.4261 29.865C14.685 29.1323 14.8145 28.306 14.8145 27.386V26.8985C14.8145 25.9785 14.685 25.1522 14.4261 24.4195C14.1672 23.6868 13.8009 23.0644 13.3271 22.552C12.8589 22.0342 12.3025 21.6403 11.658 21.3704C11.0189 21.0949 10.3138 20.9572 9.54257 20.9572C8.76582 20.9572 8.05519 21.0949 7.41066 21.3704C6.77163 21.6403 6.218 22.0342 5.74975 22.552C5.28701 23.0644 4.92618 23.6868 4.66727 24.4195C4.41386 25.1522 4.28716 25.9785 4.28716 26.8985V27.386C4.28716 28.306 4.41386 29.1323 4.66727 29.865C4.92618 30.5922 5.28976 31.2147 5.75801 31.7325C6.23177 32.2448 6.78816 32.6387 7.42718 32.9141C8.07171 33.1841 8.78235 33.319 9.55909 33.319ZM11.8645 27.386V26.882C11.8645 26.287 11.8122 25.7637 11.7075 25.312C11.6084 24.8547 11.4596 24.4719 11.2613 24.1634C11.063 23.8549 10.8179 23.6235 10.5259 23.4692C10.2394 23.3095 9.91166 23.2296 9.54257 23.2296C9.15695 23.2296 8.82091 23.3095 8.53445 23.4692C8.248 23.6235 8.00836 23.8549 7.81555 24.1634C7.62275 24.4719 7.47676 24.8547 7.3776 25.312C7.28395 25.7637 7.23713 26.287 7.23713 26.882V27.386C7.23713 27.9755 7.28395 28.4988 7.3776 28.956C7.47676 29.4078 7.62275 29.7906 7.81555 30.1046C8.01387 30.4186 8.25626 30.6555 8.54272 30.8153C8.83468 30.975 9.17348 31.0549 9.55909 31.0549C9.92818 31.0549 10.256 30.975 10.5424 30.8153C10.8289 30.6555 11.0685 30.4186 11.2613 30.1046C11.4596 29.7906 11.6084 29.4078 11.7075 28.956C11.8122 28.4988 11.8645 27.9755 11.8645 27.386ZM22.8216 21.1225H25.722V28.9808C25.722 29.9173 25.5264 30.7106 25.1353 31.3606C24.7441 32.0052 24.196 32.4927 23.4909 32.8232C22.7858 33.1538 21.9567 33.319 21.0037 33.319C20.0616 33.319 19.2326 33.1538 18.5164 32.8232C17.8058 32.4927 17.2494 32.0052 16.8473 31.3606C16.4506 30.7106 16.2523 29.9173 16.2523 28.9808V21.1225H19.161V28.9808C19.161 29.4766 19.2326 29.8815 19.3758 30.1955C19.519 30.504 19.7284 30.7299 20.0038 30.8731C20.2792 31.0163 20.6125 31.088 21.0037 31.088C21.4003 31.088 21.7336 31.0163 22.0035 30.8731C22.2734 30.7299 22.4773 30.504 22.615 30.1955C22.7527 29.8815 22.8216 29.4766 22.8216 28.9808V21.1225ZM35.8279 33.1538V30.9227H30.4485V28.0553H35.0016V25.8986H30.4485V23.3618H35.8527V21.1225H30.4485H29.4156H27.5481V33.1538H29.4156H30.4485H35.8279Z" fill="url(#paint0_linear_1351_960)"/>
</svg>
