<svg width="21" height="15" viewBox="0 0 21 15" fill="none" xmlns="http://www.w3.org/2000/svg">
    <path
        d="M13.4516 14.2649C13.2948 14.1082 13.2165 13.9254 13.2165 13.7164C13.2165 13.5075 13.2948 13.3246 13.4516 13.1679L18.3359 8.28358H1.20155C0.975183 8.28358 0.787994 8.20958 0.639984 8.06157C0.491974 7.91356 0.417969 7.72637 0.417969 7.5C0.417969 7.27363 0.491974 7.08644 0.639984 6.93843C0.787994 6.79042 0.975183 6.71642 1.20155 6.71642H18.3359L13.4516 1.83209C13.3122 1.69279 13.2382 1.5143 13.2295 1.29664C13.2208 1.07898 13.2948 0.891791 13.4516 0.735075C13.6083 0.578358 13.7911 0.5 14.0001 0.5C14.209 0.5 14.3918 0.578358 14.5486 0.735075L20.765 6.95149C20.852 7.03856 20.913 7.12562 20.9478 7.21269C20.9826 7.29975 21.0001 7.39552 21.0001 7.5C21.0001 7.60448 20.9826 7.70025 20.9478 7.78731C20.913 7.87438 20.852 7.96144 20.765 8.04851L14.5486 14.2649C14.3918 14.4216 14.209 14.5 14.0001 14.5C13.7911 14.5 13.6083 14.4216 13.4516 14.2649Z"
        fill="#475467" />
</svg>
