<svg width="132" height="53" viewBox="0 0 132 53" fill="none" xmlns="http://www.w3.org/2000/svg">
<defs>
<filter id="filter0_d_130_1362" x="0" y="0" width="131.182" height="52.3113" filterUnits="userSpaceOnUse" color-interpolation-filters="sRGB">
<feFlood flood-opacity="0" result="BackgroundImageFix"/>
<feColorMatrix in="SourceAlpha" type="matrix" values="0 0 0 0 0 0 0 0 0 0 0 0 0 0 0 0 0 0 127 0" result="hardAlpha"/>
<feOffset dy="5"/>
<feComposite in2="hardAlpha" operator="out"/>
<feColorMatrix type="matrix" values="0 0 0 0 0 0 0 0 0 0 0 0 0 0 0 0 0 0 0.1 0"/>
<feBlend mode="normal" in2="BackgroundImageFix" result="effect1_dropShadow_130_1362"/>
<feBlend mode="normal" in="SourceGraphic" in2="effect1_dropShadow_130_1362" result="shape"/>
</filter>
</defs>
<g filter="url(#filter0_d_130_1362)">
<path d="M131.159 14.1383C131.159 13.7882 131.151 13.1819 130.997 12.4639C130.929 12.1427 130.838 11.8298 130.728 11.5277C130.992 10.8056 131.136 10.0258 131.136 9.21317C131.136 9.16357 131.135 9.11388 131.134 9.06438C131.03 5.41717 128.045 2.51911 124.438 2.51911C124.399 2.51911 124.361 2.51948 124.323 2.52003C122.544 2.54004 120.816 3.28135 119.574 4.5607C118.984 5.16825 118.52 5.88181 118.198 6.65281C118.059 6.34877 117.893 6.03965 117.693 5.73265C117.677 5.70646 117.659 5.68074 117.642 5.65493C116.423 3.8547 114.435 2.79569 112.342 2.81624C111.563 2.82482 110.805 2.98228 110.098 3.26937C109.074 2.6491 107.887 2.30301 106.662 2.28789C104.723 2.24687 103.03 2.88142 101.799 4.01714C100.133 4.65216 98.8354 5.95916 98.1818 7.59409C98.1799 7.59465 98.1781 7.59511 98.1762 7.59585C97.27 7.17693 96.2743 6.97798 95.2648 7.0368C94.5577 7.07754 93.8727 7.24524 93.2329 7.51905C92.1828 6.96756 91.0092 6.7109 89.8098 6.797C89.2364 6.8383 88.6795 6.95557 88.1494 7.14272C87.1768 6.90026 86.159 6.82318 85.1394 6.92533C83.8063 7.05938 82.5386 7.49554 81.4232 8.17832C80.146 7.1784 78.5877 6.68139 76.9821 6.797C76.4086 6.83812 75.8514 6.95557 75.321 7.14272C74.3481 6.90044 73.3303 6.82337 72.3118 6.92533C71.6684 6.99015 71.0403 7.12595 70.4368 7.32462C70.3777 7.21427 70.3161 7.1052 70.2504 6.99798C70.2407 6.98231 70.2311 6.96664 70.2215 6.95106C69.1877 5.29879 67.7339 4.02507 66.0171 3.26715C66.0103 3.26411 66.0038 3.26116 65.9971 3.2583C63.4333 2.13965 60.7407 2.03095 58.2094 2.94402C54.6317 4.22263 52.9014 6.58856 52.0794 8.34943C52.0751 8.35874 52.0706 8.36805 52.0663 8.37764C51.9679 8.59198 51.8805 8.80734 51.7983 9.02307C51.9122 7.43617 51.4068 5.84697 50.3916 4.63169C48.4804 2.34431 45.3057 1.75714 42.764 3.08019C42.3827 2.42931 41.8788 1.84362 41.2689 1.35684C39.8572 0.23625 38.0488 -0.2213 36.3057 0.100912C34.4976 0.433541 33.0152 1.49734 32.1228 2.95462C32.1214 2.95389 32.1198 2.95333 32.1181 2.95278C32.1168 2.95223 32.1157 2.95186 32.1146 2.95149C32.1145 2.95149 32.1143 2.95131 32.1141 2.95131C31.2684 2.62928 30.348 2.52639 29.4493 2.65417C28.5916 2.77577 27.7665 3.10692 27.0603 3.61306C27.0162 3.64477 26.9723 3.67723 26.929 3.71032C24.7818 5.35383 23.7215 7.74861 23.2587 9.1279C23.1973 9.07074 23.1362 9.01321 23.0723 8.95808C20.8514 7.03947 17.9517 5.73541 14.9071 5.28662C11.3156 4.75735 7.87606 5.50724 5.22231 7.39819C2.33864 9.45232 0.517087 12.4923 0.0929388 15.9583C-0.350818 19.5857 0.808441 23.3173 3.27263 26.1972C0.288487 28.1439 -0.591744 31.9909 1.24305 35.2305C1.3553 35.4278 1.6967 36.0277 2.55713 37.0145C2.57474 37.0347 2.59244 37.0549 2.61014 37.0746C2.86846 37.3628 3.15481 37.6186 3.46163 37.8441C3.81094 38.3925 4.24701 38.902 4.76974 39.3538C6.99065 41.2724 9.89055 42.5763 12.9352 43.0251C13.6867 43.1358 14.4316 43.1905 15.164 43.1905C17.9317 43.1905 20.5217 42.4088 22.6198 40.9137C22.9786 40.6581 23.3205 40.3872 23.6457 40.1023C23.983 42.5357 25.487 44.5578 27.6645 45.5104C28.5427 45.8964 29.4743 46.0846 30.4 46.0845C30.8078 46.0845 31.2144 46.0475 31.6149 45.9752L94.4129 47.3093C94.4848 47.3083 94.5558 47.3076 94.6278 47.3044C98.4777 47.124 100.695 45.2238 101.877 43.6616C102.115 43.3463 102.324 43.0278 102.506 42.713C103.048 42.8297 103.599 42.8962 104.153 42.9027C104.186 42.9031 104.219 42.9033 104.252 42.9033C104.685 42.9033 105.111 42.8691 105.529 42.8032C105.846 43.8091 106.403 44.7343 107.168 45.4818C108.366 46.6537 109.992 47.3113 111.665 47.3113C111.764 47.3113 111.864 47.3089 111.964 47.3044C113.734 47.2213 115.154 46.773 116.292 46.1633C117.371 46.9008 118.667 47.3101 119.994 47.3101C123.599 47.3101 126.71 45.4108 128.526 42.0995C129.679 39.9987 130.042 37.8764 130.197 36.9703L130.213 36.8793C130.215 36.8674 130.217 36.8552 130.218 36.8432C130.449 35.4606 130.579 34.1572 130.676 33.0618C130.767 32.1336 130.767 31.2733 130.767 30.5132C130.767 30.4693 130.766 30.4252 130.765 30.3813C130.729 28.9619 130.238 27.6585 129.435 26.6122C130.082 25.8795 130.576 24.9966 130.86 24.0051C131.056 23.3353 131.154 22.6494 131.159 21.9123C131.182 20.5989 131.182 19.2764 131.182 17.9972C131.182 16.7326 131.182 15.4256 131.159 14.1383Z" fill="white"/>
<path d="M58.1598 32.0128C58.1089 32.3196 58.2622 32.524 58.4834 32.7285C58.8075 32.9841 59.148 33.0865 59.54 33.0183C60.6137 32.8308 61.295 32.1831 61.6359 31.1779C61.8404 30.5986 61.8746 30.0019 61.7724 29.3887C61.721 29.0647 61.6359 28.741 61.4825 28.4515C61.1589 27.838 60.767 27.7187 60.1707 28.0423C59.6934 28.2982 59.3527 28.69 59.0288 29.0989C58.4834 29.7806 58.0233 30.4962 58.1598 31.4166C58.1766 31.4506 58.1598 31.4676 58.1598 31.4845C58.1598 31.6549 58.194 31.8426 58.1598 32.0128ZM58.1256 38.4957C58.1256 38.7171 58.1256 38.9388 58.0916 39.1433C58.0233 39.7053 57.5802 40.0463 57.0522 40.0122C56.541 39.978 56.1321 39.5693 56.1147 39.024C56.1147 38.0354 56.1321 34.4499 56.1321 33.4444C56.1321 33.2738 56.1489 33.1035 56.1489 32.9332V27.6164C56.1489 27.1735 56.2513 26.7474 56.4048 26.3554C56.5239 26.0656 56.7456 25.8613 57.0693 25.8442C57.3929 25.8103 57.6314 25.9804 57.7677 26.2703C57.9381 26.6109 58.0574 26.969 58.2108 27.3268C58.228 27.3096 58.2622 27.2585 58.3132 27.1903C58.7561 26.6791 59.2503 26.2191 59.9148 25.9804C61.1589 25.5376 62.3856 26.2021 62.9993 27.0711C63.4935 27.7528 63.6978 28.5025 63.8003 29.3034C63.9365 30.4962 63.749 31.621 63.1698 32.6775C62.403 34.0579 61.1931 34.8246 59.6253 35.0289C59.1993 35.0973 58.7733 35.0289 58.3641 34.9098C58.2959 34.8927 58.228 34.8756 58.1256 34.8415V38.4957Z" fill="#314196"/>
<path d="M69.4917 32.916C69.7814 32.916 69.7986 32.8991 69.8154 32.6092C69.8325 32.2687 69.8154 31.9447 69.5598 31.7062C69.27 31.4335 68.7589 31.4167 68.418 31.6552C67.924 31.9447 67.7366 32.4388 67.5491 32.916H69.4917ZM69.6621 35.6766C69.9519 35.6256 70.2582 35.5575 70.5313 35.4723C71.2127 35.2848 71.8091 35.6766 71.8263 36.3244C71.8263 36.7844 71.6046 37.1592 71.2127 37.3297C70.8036 37.5001 70.3949 37.602 69.9519 37.6704C69.1849 37.7727 68.4354 37.7046 67.7024 37.4659C66.3051 37.0229 65.2828 35.6766 65.2486 34.2111C65.1976 32.9842 65.4189 31.8255 66.1348 30.8032C66.9354 29.6273 68.4862 29.0647 69.8154 29.4058C70.7867 29.6615 71.3489 30.3429 71.6557 31.246C71.9457 32.064 71.9115 32.8819 71.5878 33.6829C71.2298 34.6201 70.5141 35.029 69.5427 35.0461C68.9976 35.0631 68.4694 35.0461 67.924 35.0461C68.4012 35.5063 68.9464 35.8132 69.6621 35.6766Z" fill="#314196"/>
<path d="M76.4268 35.029C76.8358 35.387 77.2788 35.3871 77.6709 35.012C78.046 34.6541 78.1479 34.1939 78.2674 33.7172C78.3528 33.3421 78.2503 33.0352 78.0627 32.7115C78.0118 32.6265 77.9775 32.524 77.9092 32.4389C77.6881 31.9619 77.2788 31.757 76.7849 31.655C76.461 31.6037 76.359 31.655 76.2055 31.9447C75.9496 32.4047 75.8647 32.8991 75.8647 33.3761C75.8473 34.1431 76.0348 34.6712 76.4268 35.029ZM77.6199 37.6019C76.2735 37.9769 75.166 37.4999 74.3139 36.4434C73.6836 35.7106 73.4278 34.8074 73.4109 33.819C73.3936 33.0694 73.4961 32.2855 73.8027 31.5527C74.2286 30.5473 74.8933 29.7634 76.0009 29.4568C76.87 29.2181 77.7223 29.2862 78.5061 29.7807C78.523 29.7976 78.5569 29.8149 78.5739 29.8149C78.5911 29.8317 78.608 29.8149 78.6421 29.8317C78.6594 29.7293 78.6594 29.6441 78.6763 29.5422C78.6932 28.8434 78.6932 28.1448 78.7615 27.4631C78.7956 27.1222 78.9319 26.7643 79.0683 26.4407C79.1874 26.1338 79.4431 25.9124 79.8351 25.9124C80.193 25.9295 80.4146 26.1509 80.5506 26.4407C80.8575 27.0711 80.9257 27.7188 80.9257 28.3832C80.9426 29.7124 80.9085 31.0415 80.9085 32.3707C80.9085 33.1376 80.9426 33.9213 80.9426 34.6712C80.9257 35.3358 80.8915 35.9662 80.8405 36.6137C80.8063 37.0739 80.4996 37.4489 80.0736 37.5682C79.6306 37.6874 79.2216 37.5341 78.9319 37.142C78.9148 37.1081 78.8808 37.0739 78.8808 37.0909C78.4545 37.2614 78.046 37.4828 77.6199 37.6019Z" fill="#314196"/>
<path d="M86.5314 34.9779C87.2127 34.6371 87.8442 34.0579 87.8101 33.2911C87.6221 29.8486 84.6406 31.246 84.7936 33.7848C84.8111 34.8417 85.7137 35.4039 86.5314 34.9779ZM86.4466 37.4148C84.5548 37.5852 83.2428 36.5627 82.8 34.9609C82.4931 33.8532 82.6465 32.7457 83.0726 31.7233C83.2942 31.195 83.5667 30.6666 83.8904 30.2236C84.777 29.0137 86.5831 28.8094 87.7253 29.8486C87.8101 29.9509 87.9125 30.036 88.0314 30.1385C88.1162 29.9679 88.1844 29.7806 88.2702 29.6273C88.6786 28.9797 89.3608 28.9285 89.8549 29.5081C90.1103 29.7975 90.2634 30.1385 90.2809 30.5305C90.315 31.3653 90.315 32.2003 90.3316 33.0353V36.3585C90.315 36.5456 90.2975 36.6989 90.2468 36.8695C90.1269 37.3635 89.701 37.6704 89.1902 37.7215C88.7302 37.7385 88.3043 37.4319 88.1162 36.9888C88.0996 36.9374 88.0821 36.8865 88.048 36.8014C87.5538 37.108 87.0256 37.3635 86.4466 37.4148Z" fill="#314196"/>
<path d="M96.8578 33.2911V33.0012C96.8412 32.1663 96.9602 32.1663 96.006 31.9788H95.9894C95.6142 31.9449 95.2565 31.9105 94.967 32.2173C94.5235 32.7456 94.3023 33.3762 94.3364 34.0747C94.3705 34.6371 94.5918 34.9269 95.0859 35.0631C95.7331 35.2166 96.4319 34.9951 96.7896 34.4837C96.8071 34.4499 96.8237 34.3474 96.8237 34.3134C96.8412 33.9724 96.8578 33.6489 96.8919 33.2911H96.8578ZM94.4553 37.3297C93.1775 36.9888 92.428 36.1196 92.121 34.8246C91.7458 33.2568 92.4621 31.1781 93.7565 30.2068C94.6766 29.5249 95.699 29.4397 96.7555 29.7465C96.9095 29.7975 97.0118 29.7975 97.1132 29.6615C97.5566 29.2182 98.2555 29.2522 98.6473 29.7465C98.9027 30.0535 99.005 30.4112 99.0566 30.8032C99.193 32.2003 99.2096 33.6319 99.1248 35.0461C99.0566 35.9491 99.0529 36.8523 98.7976 37.7385C98.5071 38.7267 98.1882 41.9022 94.3825 42.0806C93.6671 42.1141 93.1047 41.5353 93.1213 40.8366C93.1554 40.3424 93.5592 39.8311 94.1437 39.7461C96.3591 39.4239 96.3729 37.9611 96.3812 37.4148C95.699 37.5512 95.0693 37.5 94.4553 37.3297Z" fill="#314196"/>
<path d="M114.195 33.2911V33.0012C114.177 32.1663 114.297 32.1663 113.343 31.9788H113.325C112.951 31.9449 112.592 31.9105 112.303 32.2173C111.86 32.7456 111.638 33.3762 111.672 34.0747C111.706 34.6371 111.928 34.9269 112.423 35.0631C113.07 35.2166 113.769 34.9951 114.126 34.4837C114.143 34.4499 114.16 34.3474 114.16 34.3134C114.177 33.9724 114.195 33.6489 114.229 33.2911H114.195ZM111.792 37.3297C110.513 36.9888 109.764 36.1196 109.457 34.8246C109.083 33.2568 109.798 31.1781 111.093 30.2068C112.013 29.5249 113.036 29.4397 114.092 29.7465C114.245 29.7975 114.348 29.7975 114.45 29.6615C114.893 29.2182 115.591 29.2522 115.984 29.7465C116.239 30.0535 116.342 30.4112 116.392 30.8032C116.529 32.2003 116.546 33.6319 116.461 35.0461C116.392 35.9491 116.39 36.8523 116.133 37.7385C115.844 38.7267 115.524 41.9022 111.719 42.0806C111.004 42.1141 110.441 41.5353 110.458 40.8366C110.492 40.3424 110.895 39.8311 111.48 39.7461C113.696 39.4239 113.71 37.9611 113.717 37.4148C113.036 37.5512 112.405 37.5 111.792 37.3297Z" fill="#314196"/>
<path d="M103.675 31.8768C103.316 32.4729 103.095 33.1035 103.061 33.8023C103.044 34.2792 103.163 34.7054 103.487 35.0802C103.93 35.5916 104.543 35.5574 104.918 34.995C104.97 34.9097 105.038 34.8075 105.071 34.7054C105.328 34.1432 105.446 33.5463 105.412 32.9501C105.396 32.6605 105.293 32.3878 105.191 32.1153C104.97 31.5528 104.288 31.3314 103.845 31.638C103.777 31.7403 103.709 31.8084 103.675 31.8768ZM102.413 29.9C102.72 29.5932 103.095 29.3547 103.538 29.2863C104.833 29.0988 106.521 29.2182 107.321 31.6209C107.662 32.5751 107.696 33.5637 107.475 34.5349C107.287 35.3189 106.963 36.0344 106.435 36.6479C104.986 38.3009 102.789 37.7387 101.749 36.4946C101.152 35.7617 100.812 34.7906 100.829 33.5979C100.931 32.3708 101.34 30.9906 102.413 29.9Z" fill="#314196"/>
<path d="M124.447 29.3546C123.867 29.3375 123.373 29.7806 123.288 30.428C123.237 30.7179 123.237 31.0074 123.186 31.2972C122.981 32.3877 122.64 33.4443 122.13 34.4325C121.959 34.7563 121.72 35.0462 121.465 35.3189C121.226 35.5232 121.021 35.4722 120.868 35.1824C120.732 34.9439 120.63 34.6542 120.561 34.3985C120.323 33.5296 120.323 31.9106 120.34 31.0416C120.34 30.5304 120.17 30.0874 119.88 29.6783C119.573 29.2181 119.028 29.1671 118.671 29.559C118.346 29.9168 118.125 30.3086 118.108 30.7862C118.057 31.9617 118.091 33.8531 118.38 34.9778C118.602 35.7788 118.892 36.5114 119.505 37.0567C120.119 37.5683 120.766 37.8578 121.55 37.6874C121.823 37.6361 122.078 37.5511 122.368 37.466C122.255 37.7265 122.08 39.0379 119.756 39.746C119.19 39.9184 118.767 40.3424 118.733 40.8367C118.716 41.5352 119.278 42.0805 119.994 42.0805C124.132 42.0805 124.858 37.1518 125.06 35.9834C125.248 34.8587 125.367 33.7338 125.469 32.5751C125.537 31.8936 125.537 31.2118 125.537 30.5132C125.52 29.8487 125.043 29.3715 124.447 29.3546Z" fill="#314196"/>
<path d="M56.4463 20.9249C56.2138 20.5765 56.0748 20.2047 56.1443 19.7863C56.3533 18.7873 57.4691 18.3686 58.2591 18.9963C58.4682 19.1356 58.6307 19.3448 58.793 19.5307C59.3509 20.1815 59.9782 20.7388 60.8385 20.9715C61.3261 21.1108 61.8608 21.2735 62.372 21.1108C63.3712 20.8319 63.7662 20.0186 63.3943 19.0657C63.069 18.2526 62.5113 17.6021 61.7443 17.207C61.0009 16.8352 60.2574 16.533 59.4906 16.2079C58.8632 15.9288 58.2591 15.6036 57.7475 15.1619C56.3533 13.9306 56.0281 12.2806 56.8181 10.5612C57.4691 9.16679 58.6075 8.3532 59.9782 7.86541C61.3261 7.37753 62.6277 7.49369 63.9054 8.05118C64.6955 8.39994 65.3229 8.98093 65.788 9.72446C66.0435 10.1426 66.0898 10.6075 65.9971 11.0723C65.8111 11.8855 64.9279 12.2806 64.2311 11.8392C63.9754 11.6995 63.7427 11.5369 63.5802 11.3277C62.7203 10.0496 61.1169 10.1194 60.0249 10.8864C59.5601 11.2348 59.2116 11.6532 59.165 12.2573C59.165 12.4434 59.2116 12.6989 59.3509 12.8148C59.6065 13.0708 59.8856 13.3264 60.2108 13.4889C60.8848 13.8376 61.5818 14.0929 62.2559 14.3951C63.2319 14.8136 64.0914 15.3711 64.8119 16.1844C65.6253 17.114 66.1593 18.2062 66.2525 19.4608C66.369 21.041 65.7179 22.319 64.4169 23.2021C63.6964 23.6901 62.8832 23.946 62.093 23.946C59.6533 23.8761 57.8174 22.8537 56.4463 20.9249Z" fill="#314196"/>
<path d="M73.9449 20.0186C74.8741 19.5538 75.7341 18.7637 75.6872 17.7182C75.4317 13.024 71.3654 14.9296 71.5746 18.3923C71.5977 19.8326 72.8292 20.5996 73.9449 20.0186ZM73.8283 23.3418C71.2489 23.5741 69.4596 22.1797 68.8557 19.9955C68.4375 18.4851 68.6465 16.9745 69.2275 15.5801C69.5291 14.8599 69.9012 14.1395 70.3426 13.5356C71.5509 11.8855 74.0144 11.6066 75.5714 13.024C75.6872 13.1635 75.8267 13.2797 75.9894 13.419C76.1052 13.1867 76.1986 12.9314 76.3149 12.722C76.8722 11.8392 77.802 11.7695 78.4756 12.5595C78.8243 12.9546 79.0333 13.419 79.0565 13.9538C79.1036 15.0922 79.1036 16.231 79.1267 17.3695V21.9008C79.1036 22.1565 79.0797 22.3657 79.0102 22.5981C78.8475 23.2719 78.2666 23.6901 77.5697 23.76C76.9425 23.7831 76.3612 23.3649 76.1052 22.7607C76.0821 22.6911 76.0589 22.6212 76.0125 22.505C75.3391 22.9232 74.6183 23.2719 73.8283 23.3418Z" fill="#314196"/>
<path d="M86.773 20.0186C87.7023 19.5538 88.5624 18.7637 88.5154 17.7182C88.26 13.024 84.1933 14.9296 84.4027 18.3923C84.4258 19.8326 85.6575 20.5996 86.773 20.0186ZM86.6568 23.3418C84.0769 23.5741 82.2877 22.1797 81.6835 19.9955C81.2653 18.4851 81.4745 16.9745 82.0553 15.5801C82.3572 14.8599 82.7293 14.1395 83.1706 13.5356C84.3788 11.8855 86.8421 11.6066 88.3992 13.024C88.5154 13.1635 88.6546 13.2797 88.8178 13.419C88.933 13.1867 89.0271 12.9314 89.1432 12.722C89.7001 11.8392 90.6294 11.7695 91.3033 12.5595C91.6527 12.9546 91.8611 13.419 91.8841 13.9538C91.9311 15.0922 91.9311 16.231 91.9551 17.3695V21.9008C91.9311 22.1565 91.9081 22.3657 91.838 22.5981C91.6758 23.2719 91.0949 23.6901 90.398 23.76C89.7701 23.7831 89.1893 23.3649 88.933 22.7607C88.91 22.6911 88.8869 22.6212 88.8408 22.505C88.1669 22.9232 87.446 23.2719 86.6568 23.3418Z" fill="#314196"/>
<path d="M99.4836 12.6757C100.064 12.4434 100.693 12.3966 101.32 12.5364C102.087 12.6757 102.644 13.3495 102.598 14.0931C102.552 14.9063 101.947 15.5803 101.134 15.5572C100.134 15.5339 99.4836 16.0683 98.9728 16.8351C98.4151 17.6252 97.9034 18.4851 97.3926 19.2984C97.3235 19.4146 97.2995 19.554 97.2995 19.6703C97.2995 20.3675 97.3235 21.0645 97.2995 21.7617C97.2765 22.0637 97.2304 22.3889 97.1373 22.6678C96.951 23.2952 96.4163 23.6903 95.8355 23.6903C95.2778 23.6903 94.72 23.3418 94.5347 22.7374C94.3955 22.203 94.3724 21.6687 94.3014 21.1108C94.2784 21.018 94.2784 20.9016 94.2784 20.8088C94.2784 18.8567 94.2323 16.9282 94.2323 14.9761C94.2323 14.2326 94.3254 13.5356 94.72 12.8617C95.1616 12.0946 95.9517 12.0483 96.4864 12.7687C96.6256 12.9545 96.7187 13.1637 96.8118 13.3959C96.928 13.6749 96.9971 13.9769 97.1142 14.2789C97.7881 13.5587 98.5543 13.0009 99.4836 12.6757Z" fill="#314196"/>
<path d="M108.901 8.84137C108.599 8.81823 108.32 8.81823 107.995 8.81823C108.065 8.05138 107.298 7.51685 106.578 7.51685C105.764 7.49371 105.068 7.70289 104.927 8.84137C104.602 8.88811 104.254 8.79509 103.905 8.84137C102.627 9.02723 102.603 11.1187 103.975 11.1653C104.278 11.1653 104.649 11.1418 104.998 11.1653V11.3977C104.998 13.4291 105.053 19.0839 105.061 22.2396C105.064 23.0928 105.755 23.7831 106.608 23.7831C107.468 23.7831 108.162 23.0846 108.155 22.2253C108.133 19.4518 108.085 14.0711 108.065 12.8384C108.042 12.1643 108.042 11.8623 108.042 11.1653H108.901C110.063 11.0955 110.156 8.93439 108.901 8.84137Z" fill="#314196"/>
<path d="M116.146 12.4665C117.447 12.3504 118.493 12.8383 119.283 13.8608C119.911 14.6739 120.189 15.6499 120.375 16.626C120.678 18.5083 120.607 20.3673 120.468 22.2496C120.398 23.1789 119.677 23.8063 118.841 23.7367C117.982 23.6901 117.355 22.9699 117.378 21.9939C117.401 20.7388 117.447 19.4843 117.424 18.2062C117.401 17.4392 117.308 16.6492 116.959 15.9753C116.75 15.5338 116.564 15.4642 116.099 15.6037C115.705 15.7893 115.309 16.022 115.031 16.3472C114.078 17.4857 114.078 17.4857 114.078 18.9727C114.101 19.8793 114.101 20.8088 114.078 21.6918C114.078 21.9707 114.054 22.226 114.031 22.4587C113.915 23.2488 113.334 23.76 112.614 23.76C111.894 23.7367 111.29 23.1789 111.243 22.3889C111.173 21.2501 111.08 20.1348 111.057 18.9962C111.033 16.4863 110.987 14.0001 111.01 11.4905C111.01 10.7003 111.173 9.95698 111.29 9.1669C111.313 8.98094 111.406 8.77194 111.521 8.5859C111.987 7.86533 112.823 7.86533 113.31 8.5859C113.613 9.05036 113.683 9.60822 113.729 10.1426C113.822 11.0955 113.892 12.0715 113.962 13.024C113.962 13.0939 113.962 13.1635 113.985 13.2797C114.658 12.7917 115.356 12.5364 116.146 12.4665Z" fill="#314196"/>
<path d="M125.907 9.21316C125.907 10.073 125.256 10.7235 124.419 10.7235C123.583 10.7703 122.909 10.0964 122.909 9.2599C122.885 8.4463 123.559 7.74915 124.396 7.74915C125.232 7.72592 125.884 8.40003 125.907 9.21316ZM125.93 21.8546C125.93 22.0869 125.907 22.3192 125.837 22.5517C125.65 23.2253 125.023 23.667 124.35 23.6439C123.676 23.6204 123.071 23.1323 122.932 22.4352C122.885 22.2497 122.862 22.0403 122.862 21.8546C122.862 19.2984 122.839 16.719 122.862 14.1629C122.862 13.8375 122.932 13.512 123.071 13.21C123.35 12.5595 123.954 12.2343 124.582 12.3038C125.186 12.3503 125.743 12.8848 125.884 13.5587C125.93 13.7678 125.93 13.9768 125.93 14.186C125.953 15.4409 125.953 16.719 125.953 17.9972C125.953 19.2984 125.953 20.5765 125.93 21.8546Z" fill="#314196"/>
<path d="M8.67287 31.5138L7.9641 31.9399C7.63636 32.1363 7.36043 32.4245 7.16212 32.7728L6.65507 33.6644L6.6724 33.6851C6.60851 33.6695 6.54988 33.6349 6.50507 33.585C6.48433 33.561 5.99276 33.004 5.78754 32.6434C5.24941 31.6931 5.58933 30.9085 6.1635 30.5533C6.2946 30.4723 6.44478 30.4377 6.60335 30.4377C7.36384 30.4377 8.35205 31.2242 8.68145 31.5069L8.67287 31.5138Z" fill="#314196"/>
<path d="M21.5986 17.6654C21.5502 17.7965 21.4536 17.8932 21.3245 17.9344C21.0467 18.0241 20.7725 17.8362 20.2757 17.4965C19.8964 17.2361 19.4222 16.9119 18.8617 16.6461C18.8374 16.6358 18.8168 16.6222 18.7979 16.6065L19.8723 16.2048C20.3119 16.0391 20.676 15.7218 20.8984 15.3079L21.1674 14.813C21.19 14.8457 21.2054 14.8835 21.2138 14.9234C21.4589 15.984 21.7245 17.3206 21.5986 17.6654Z" fill="#314196"/>
<path d="M20.5925 25.51C20.1112 24.948 18.7799 23.9182 18.0138 23.6343C16.9932 23.2561 15.8666 22.9805 14.7639 22.7481C12.2934 22.2276 9.96029 21.7359 8.84753 19.4689C8.31033 18.3746 8.25842 17.1119 8.70445 16.0038C9.11996 14.9719 9.92332 14.1947 10.9664 13.8149C12.8418 13.1333 15.7371 13.7616 17.4218 15.2175C18.2346 15.9199 19.2497 15.6328 19.792 15.0051C20.2617 14.4618 20.4186 13.576 19.6536 12.9152C16.7929 10.4439 11.622 9.25923 8.2564 11.6573C6.58274 12.8497 5.52714 14.6027 5.28366 16.5932C5.0175 18.7694 5.73393 21.0324 7.24957 22.8017C7.73081 23.3637 8.27788 23.8016 8.86772 24.156H8.79655C9.12973 24.3556 9.47407 24.532 9.82818 24.6774C10.8351 25.0911 11.9755 25.3313 13.0783 25.5636C15.5487 26.0839 17.882 26.5758 18.9947 28.8429C19.5317 29.9369 19.5836 31.1996 19.1378 32.3077C18.722 33.3396 17.9189 34.117 16.8757 34.4968C15.0003 35.1782 12.1049 34.5499 10.4202 33.0942C9.60765 32.3916 8.59234 32.6789 8.04998 33.3066C7.58044 33.8499 7.42344 34.7355 8.18845 35.3965C11.0491 37.8678 16.2201 39.0525 19.5857 36.6542C21.2594 35.4621 22.3149 33.709 22.5584 31.7185C22.8248 29.5423 22.1083 27.2793 20.5925 25.51Z" fill="#42A3CA"/>
<path d="M34.0103 10.7223C33.4774 10.9543 33.1358 11.4033 33.0732 11.9541C33.0059 12.5482 33.2791 13.1832 33.7533 13.5334C34.186 13.8535 34.7349 13.906 35.2598 13.677C36.8626 12.9802 39.7976 12.1866 41.4411 14.7098C42.0521 15.6484 42.2708 16.7155 42.1297 18.0675C41.7366 21.8258 39.1471 24.3274 35.0244 24.931C34.0036 25.0804 33.5875 25.964 33.704 26.7598C33.8004 27.4206 34.275 28.0332 35.0278 28.118C35.1656 28.1336 35.3131 28.1314 35.4693 28.1087C37.9878 27.7398 41.4208 26.6693 43.4737 23.6618C44.5273 22.1177 45.1741 20.2001 45.344 18.1157C45.5357 15.7675 44.8821 13.6792 43.4545 12.0758C41.2587 9.61088 37.7273 9.10456 34.0103 10.7223Z" fill="#D3559E"/>
<path d="M36.83 7.9826C36.9825 8.10439 37.1645 8.17943 37.3459 8.19999C37.4299 8.2094 37.5136 8.20709 37.5946 8.19253C38.1078 8.09803 38.4366 7.67127 38.413 7.1302L38.3678 6.10318C38.3568 5.85832 38.2292 5.62166 38.0177 5.45285C37.7939 5.27511 37.5081 5.1961 37.2536 5.24367C36.74 5.33743 36.4112 5.76437 36.4352 6.30582L36.48 7.33265C36.491 7.57696 36.6186 7.81417 36.83 7.9826Z" fill="#D3559E"/>
<path d="M46.208 9.35828C46.4152 9.19824 46.5512 8.95098 46.5809 8.68058C46.6089 8.42152 46.5372 8.17463 46.3784 7.98462C46.0324 7.5704 45.437 7.49683 45.0231 7.81619C44.6335 8.1171 44.2787 8.46596 43.9686 8.85215C43.8069 9.05331 43.7356 9.3238 43.7731 9.59383C43.8093 9.85455 43.9459 10.0865 44.1476 10.23C44.2964 10.3355 44.4613 10.3965 44.627 10.4153C44.951 10.4519 45.279 10.3265 45.4975 10.0541C45.7337 9.75987 45.9065 9.59088 46.208 9.35828Z" fill="#D3559E"/>
<path d="M49.9912 14.9745C49.8273 14.7702 49.5982 14.6529 49.3539 14.6245C48.8767 14.5829 48.4184 14.6057 47.9912 14.6925C47.4598 14.801 47.112 15.2707 47.1825 15.7849C47.2182 16.0443 47.3733 16.2943 47.5978 16.4533C47.7322 16.549 47.8813 16.6067 48.0336 16.6238C48.1222 16.6337 48.212 16.6302 48.3005 16.612H48.3007C48.615 16.5481 48.8551 16.5316 49.1285 16.5559C49.6638 16.6027 50.1368 16.235 50.2056 15.7179C50.2401 15.4579 50.1619 15.1868 49.9912 14.9745Z" fill="#D3559E"/>
<path d="M46.7527 20.947C46.2464 20.7666 45.6959 20.9972 45.496 21.4708C45.3933 21.7148 45.398 22.0004 45.5093 22.254C45.6143 22.4925 45.7991 22.6697 46.0303 22.7525C46.3374 22.8621 46.5426 22.989 46.7875 23.2202C46.9195 23.3447 47.088 23.4207 47.2742 23.4416C47.3338 23.4483 47.3956 23.4496 47.458 23.4446C47.7428 23.4229 48.0114 23.2834 48.177 23.0703C48.4953 22.6609 48.435 22.1087 48.0306 21.7271C47.6702 21.387 47.2285 21.1173 46.7527 20.947Z" fill="#D3559E"/>
<path d="M43.4012 27.2534C43.0451 26.756 42.4706 26.774 42.0879 27.0489C41.6955 27.3302 41.4768 27.9059 41.8446 28.4188L42.8525 29.8246C43.0143 30.05 43.2406 30.1866 43.492 30.2148C43.5534 30.2219 43.6164 30.2222 43.6805 30.2161C44.0349 30.1809 44.3616 29.9432 44.5123 29.6104C44.6545 29.2959 44.6171 28.9491 44.4092 28.6594L43.4012 27.2534Z" fill="#D3559E"/>
<path d="M36.1344 29.1639C35.8551 29.1394 35.5507 29.2423 35.3399 29.4328C35.1594 29.5953 35.058 29.8116 35.0545 30.0413L35.0467 30.5886C35.0435 30.7947 35.0644 31.037 35.2413 31.2676C35.3948 31.4685 35.6445 31.6134 35.8826 31.6402C35.8886 31.6409 35.8949 31.6417 35.9009 31.6425C36.1805 31.6666 36.4848 31.5633 36.6958 31.3727C36.8759 31.2099 36.9769 30.9938 36.98 30.7648L36.9882 30.2172C36.9915 30.0114 36.9705 29.7695 36.7929 29.5376C36.6347 29.3318 36.3699 29.1902 36.1344 29.1639Z" fill="#D3559E"/>
<path d="M31.1354 11.3035C30.8991 11.0241 30.3801 10.6758 29.7505 10.5792C28.9556 10.4567 28.4417 10.6309 28.1986 11.0465C28.1726 11.0034 28.1658 10.9482 28.1813 10.8965C28.2088 10.8171 28.7917 8.87012 30.1077 7.86302C30.1317 7.84568 30.1577 7.83545 30.1835 7.83185C30.2076 7.82854 30.2319 7.8302 30.2543 7.83877C30.3041 7.85785 30.3473 7.89906 30.3646 7.95604C30.3904 8.03025 30.9664 9.74788 31.1354 11.3035Z" fill="#314196"/>
<path d="M31.6515 35.611C31.0404 30.584 30.711 25.7279 30.6835 20.9176C30.6715 18.5473 30.7115 16.7316 30.8566 15.0215C30.8621 14.972 30.8648 14.9234 30.8701 14.874C30.9357 14.2244 31.0535 12.8604 30.4558 12.1291C30.2171 11.8362 29.8981 11.6816 29.5112 11.6714C29.432 11.6691 29.3583 11.6711 29.2859 11.6747C27.8478 11.7657 27.7853 13.0879 27.7449 13.7321C27.6595 15.2772 27.4747 18.1856 27.4763 20.5223C27.4891 25.594 27.8248 30.6968 28.4578 36.0081C28.4713 36.1245 28.4849 36.2408 28.4991 36.3575C29.3907 36.2645 30.283 36.1638 31.1738 36.0553C31.3486 36.0356 31.5236 36.0174 31.6982 35.9978C31.6836 35.8686 31.6679 35.7401 31.6515 35.611Z" fill="#314196"/>
<path d="M28.5699 37.427C28.5783 37.4896 28.5851 37.5523 28.5933 37.616C28.6596 38.1599 28.734 38.7355 28.8247 39.3782C28.9111 40.0139 29.2453 40.4939 29.7687 40.7229C30.3287 40.9691 31.014 40.8602 31.4753 40.4426C31.7735 40.1755 31.9599 39.8103 32.0107 39.3919C32.031 39.2215 32.0294 39.0418 32.0057 38.8552C31.9221 38.2583 31.852 37.7299 31.7925 37.2397C31.7843 37.1799 31.7783 37.1196 31.7701 37.0597C30.7047 37.1939 29.6367 37.317 28.5699 37.427Z" fill="#314196"/>
</g>
</svg>
