<svg width="370" height="198" viewBox="0 0 370 198" fill="none" xmlns="http://www.w3.org/2000/svg">
<defs>
<filter id="filter0_ddd_1_213" x="0.0197754" y="13.3099" width="369.96" height="184.464" filterUnits="userSpaceOnUse" color-interpolation-filters="sRGB">
<feFlood flood-opacity="0" result="BackgroundImageFix"/>
<feColorMatrix in="SourceAlpha" type="matrix" values="0 0 0 0 0 0 0 0 0 0 0 0 0 0 0 0 0 0 127 0" result="hardAlpha"/>
<feOffset dy="6.6501"/>
<feGaussianBlur stdDeviation="2.66004"/>
<feColorMatrix type="matrix" values="0 0 0 0 0 0 0 0 0 0 0 0 0 0 0 0 0 0 0.0646228 0"/>
<feBlend mode="normal" in2="BackgroundImageFix" result="effect1_dropShadow_1_213"/>
<feColorMatrix in="SourceAlpha" type="matrix" values="0 0 0 0 0 0 0 0 0 0 0 0 0 0 0 0 0 0 127 0" result="hardAlpha"/>
<feOffset dy="22.3363"/>
<feGaussianBlur stdDeviation="8.93452"/>
<feColorMatrix type="matrix" values="0 0 0 0 0 0 0 0 0 0 0 0 0 0 0 0 0 0 0.0953772 0"/>
<feBlend mode="normal" in2="effect1_dropShadow_1_213" result="effect2_dropShadow_1_213"/>
<feColorMatrix in="SourceAlpha" type="matrix" values="0 0 0 0 0 0 0 0 0 0 0 0 0 0 0 0 0 0 127 0" result="hardAlpha"/>
<feOffset dy="10"/>
<feGaussianBlur stdDeviation="20"/>
<feColorMatrix type="matrix" values="0 0 0 0 0 0 0 0 0 0 0 0 0 0 0 0 0 0 0.16 0"/>
<feBlend mode="normal" in2="effect2_dropShadow_1_213" result="effect3_dropShadow_1_213"/>
<feBlend mode="normal" in="SourceGraphic" in2="effect3_dropShadow_1_213" result="shape"/>
</filter>
</defs>
<path d="M84.4104 62.0257V0.199219" stroke="white" stroke-width="2" stroke-miterlimit="10"/>
<path d="M304.689 62.0257V0.199219" stroke="white" stroke-width="2" stroke-miterlimit="10"/>
<g filter="url(#filter0_ddd_1_213)">
<path d="M329.929 74.5273C329.928 73.7545 329.913 72.4155 329.571 70.8303V70.8303C329.282 69.4703 329.283 68.0556 329.566 66.6945C329.77 65.7122 329.878 64.6947 329.878 63.6528C329.878 63.5431 329.876 63.4334 329.873 63.3241C329.644 55.2711 323.044 48.8722 315.073 48.8722C314.988 48.8722 314.903 48.873 314.817 48.8742C310.885 48.9183 307.067 50.5551 304.322 53.3799C303.564 54.1596 302.9 55.0184 302.338 55.9352C301.874 56.6909 300.648 56.7102 300.164 55.9676V55.9676C300.127 55.9099 300.089 55.853 300.05 55.7961C297.357 51.8211 292.963 49.4829 288.335 49.5283C288.311 49.5285 288.286 49.5289 288.262 49.5293C285.107 49.581 281.823 49.3511 278.737 48.6923C277.772 48.4863 276.782 48.374 275.78 48.3616C272.238 48.2867 269.068 49.2308 266.539 50.9764C265.491 51.7003 264.401 52.375 263.284 52.9893C260.447 54.5502 258.248 57.058 257.041 60.0708C257.039 60.0752 257.035 60.0785 257.031 60.0797V60.0797C257.027 60.0807 257.023 60.0806 257.019 60.0789C255.018 59.1557 252.818 58.7175 250.59 58.8473V58.8473C247.66 59.0157 244.616 58.9121 241.717 58.4531C240.674 58.2881 239.607 58.2406 238.532 58.3178C238.278 58.336 238.026 58.3609 237.776 58.3925C235.834 58.6371 233.855 58.7587 231.905 58.5828C230.685 58.4727 229.447 58.4771 228.209 58.6011C227.607 58.6616 227.011 58.75 226.422 58.8652C222.329 59.6661 217.846 59.2828 213.746 58.5179C212.583 58.3007 211.386 58.2309 210.178 58.3178C209.924 58.336 209.67 58.361 209.419 58.3927C207.478 58.6373 205.501 58.7594 203.553 58.5834C202.331 58.473 201.093 58.4772 199.855 58.6011C198.713 58.716 197.593 58.9319 196.505 59.2398C196.043 59.3706 195.55 59.1713 195.299 58.7615V58.7615C195.277 58.7269 195.256 58.6922 195.235 58.658C192.95 55.0096 189.736 52.1972 185.941 50.5237C185.926 50.5172 185.912 50.5106 185.897 50.5044C180.23 48.0342 174.279 47.7942 168.684 49.8103C160.776 52.6335 156.951 57.8575 155.134 61.7455C155.125 61.7661 155.115 61.7867 155.105 61.8078V61.8078C154.996 62.0457 154.547 61.9518 154.536 61.6902C154.412 58.7153 153.318 55.8256 151.403 53.5366C148.331 49.8636 143.782 48.1761 139.368 48.6525C136.544 48.9573 133.46 48.0763 131.239 46.3059V46.3059C128.119 43.8316 124.121 42.8213 120.268 43.5326C116.276 44.2664 113.002 46.6114 111.029 49.8244C111.025 49.8297 111.018 49.8317 111.013 49.8297V49.8297C111.01 49.8286 111.008 49.8278 111.005 49.827C111.005 49.8269 111.004 49.8268 111.004 49.8266V49.8266C111.004 49.8264 111.003 49.8263 111.003 49.8262C109.134 49.1154 107.1 48.8883 105.113 49.1703C103.218 49.4388 101.394 50.1699 99.8329 51.2875C99.7355 51.3576 99.6385 51.4293 99.5427 51.5023C95.0589 54.9306 92.7194 59.8391 91.6119 62.9391C91.5241 63.1851 91.2157 63.2599 91.0179 63.0894V63.0894C86.1091 58.853 79.6997 55.9738 72.9698 54.9828C65.0313 53.8142 57.4287 55.4699 51.5629 59.6452C45.189 64.1806 41.1627 70.8929 40.2252 78.5459C39.6983 82.848 40.1938 87.2165 41.6094 91.3243C43.5775 97.0353 42.1906 104.391 40.962 110.305C40.2375 113.793 40.7869 117.606 42.7674 121.099C43.0155 121.535 43.7701 122.859 45.672 125.038C45.7108 125.083 45.75 125.127 45.7892 125.171C45.9389 125.338 46.0928 125.5 46.2507 125.657C47.1269 126.528 47.9834 127.429 48.7725 128.38C49.3069 129.024 49.9036 129.634 50.5627 130.203C55.4716 134.44 61.8814 137.319 68.6112 138.31C70.2724 138.554 71.9188 138.675 73.5379 138.675C79.6555 138.675 85.38 136.949 90.0177 133.648V133.648C91.0291 132.928 92.5477 133.49 92.9351 134.67C94.2801 138.765 97.2245 142.074 101.168 143.797C103.109 144.649 105.169 145.065 107.215 145.065C107.782 145.065 108.347 145.032 108.909 144.969C109.571 144.894 110.235 144.831 110.901 144.845L248.706 147.769C248.865 147.767 249.023 147.765 249.181 147.758C257.691 147.36 262.592 143.165 265.204 139.715V139.715C266.11 138.518 267.589 137.87 269.086 137.987C269.468 138.017 269.852 138.035 270.236 138.039C270.309 138.04 270.382 138.041 270.454 138.041V138.041C272.083 138.041 273.604 138.994 274.387 140.422C275.053 141.635 275.896 142.754 276.9 143.734C279.549 146.322 283.14 147.774 286.84 147.774C287.06 147.774 287.28 147.768 287.501 147.758C288.887 147.693 290.176 147.527 291.375 147.28C295.027 146.526 298.973 146.856 302.641 147.532C303.497 147.69 304.371 147.771 305.251 147.771C313.219 147.771 320.093 143.577 324.109 136.266C326.657 131.627 327.46 126.941 327.802 124.941L327.837 124.74C327.841 124.713 327.846 124.687 327.85 124.66C328.36 121.607 328.648 118.729 328.861 116.311C329.062 114.261 329.062 112.362 329.062 110.683C329.062 110.586 329.06 110.489 329.058 110.392C329.038 109.593 328.953 108.81 328.807 108.05C328.083 104.277 328.21 100.007 329.267 96.3134V96.3134C329.701 94.8346 329.918 93.3199 329.929 91.6922C329.98 88.7924 329.98 85.8723 329.98 83.0479C329.98 80.2557 329.98 77.3698 329.929 74.5273Z" fill="white"/>
</g>
<path d="M168.574 113.995C168.461 114.672 168.8 115.123 169.289 115.575C170.006 116.139 170.758 116.365 171.625 116.215C173.998 115.801 175.504 114.371 176.257 112.151C176.709 110.872 176.785 109.554 176.559 108.201C176.446 107.485 176.257 106.77 175.918 106.131C175.203 104.777 174.337 104.513 173.019 105.228C171.964 105.793 171.211 106.658 170.495 107.561C169.289 109.066 168.272 110.646 168.574 112.678C168.611 112.753 168.574 112.791 168.574 112.828C168.574 113.204 168.649 113.619 168.574 113.995ZM168.498 128.309C168.498 128.798 168.498 129.287 168.423 129.739C168.272 130.98 167.293 131.733 166.126 131.657C164.996 131.582 164.092 130.68 164.053 129.475C164.053 127.293 164.092 119.376 164.092 117.155C164.092 116.779 164.129 116.403 164.129 116.027V104.287C164.129 103.309 164.355 102.369 164.695 101.503C164.958 100.863 165.448 100.412 166.163 100.374C166.879 100.299 167.406 100.675 167.707 101.315C168.084 102.067 168.348 102.858 168.687 103.648C168.725 103.61 168.8 103.497 168.913 103.346C169.892 102.218 170.984 101.202 172.453 100.675C175.203 99.6973 177.914 101.165 179.271 103.083C180.363 104.589 180.815 106.244 181.041 108.012C181.342 110.646 180.928 113.129 179.648 115.462C177.953 118.51 175.279 120.203 171.813 120.654C170.872 120.805 169.93 120.654 169.025 120.391C168.875 120.353 168.725 120.316 168.498 120.24V128.309Z" fill="#314196"/>
<path d="M193.622 115.989C194.262 115.989 194.3 115.952 194.337 115.312C194.375 114.56 194.337 113.844 193.773 113.318C193.132 112.716 192.002 112.679 191.249 113.205C190.157 113.844 189.743 114.936 189.328 115.989H193.622ZM193.998 122.085C194.639 121.972 195.316 121.822 195.92 121.633C197.426 121.219 198.744 122.085 198.782 123.515C198.782 124.53 198.292 125.358 197.426 125.735C196.522 126.111 195.618 126.336 194.639 126.487C192.944 126.713 191.287 126.562 189.667 126.035C186.578 125.057 184.319 122.085 184.243 118.849C184.13 116.14 184.62 113.581 186.202 111.324C187.972 108.728 191.399 107.485 194.337 108.238C196.484 108.803 197.727 110.308 198.405 112.302C199.046 114.108 198.97 115.914 198.255 117.682C197.464 119.752 195.882 120.654 193.735 120.692C192.53 120.73 191.362 120.692 190.157 120.692C191.211 121.709 192.417 122.386 193.998 122.085Z" fill="#314196"/>
<path d="M208.951 120.654C209.855 121.445 210.834 121.445 211.701 120.617C212.53 119.827 212.755 118.811 213.019 117.758C213.208 116.93 212.981 116.252 212.567 115.537C212.454 115.349 212.379 115.123 212.227 114.935C211.739 113.882 210.834 113.43 209.742 113.205C209.026 113.091 208.801 113.205 208.462 113.844C207.896 114.86 207.708 115.952 207.708 117.005C207.67 118.698 208.084 119.864 208.951 120.654ZM211.588 126.335C208.612 127.163 206.164 126.11 204.281 123.777C202.887 122.159 202.322 120.165 202.285 117.982C202.246 116.328 202.473 114.597 203.151 112.979C204.092 110.759 205.561 109.028 208.009 108.351C209.93 107.824 211.814 107.974 213.547 109.066C213.584 109.103 213.659 109.141 213.697 109.141C213.735 109.179 213.772 109.141 213.847 109.179C213.886 108.953 213.886 108.765 213.923 108.539C213.96 106.997 213.96 105.454 214.111 103.949C214.187 103.196 214.488 102.406 214.789 101.691C215.053 101.014 215.618 100.525 216.484 100.525C217.275 100.563 217.765 101.051 218.066 101.691C218.744 103.083 218.895 104.513 218.895 105.981C218.932 108.915 218.857 111.85 218.857 114.785C218.857 116.478 218.932 118.208 218.932 119.864C218.895 121.332 218.819 122.724 218.707 124.153C218.631 125.169 217.953 125.998 217.012 126.261C216.032 126.524 215.128 126.186 214.488 125.32C214.45 125.245 214.375 125.169 214.375 125.207C213.433 125.584 212.53 126.072 211.588 126.335Z" fill="#314196"/>
<path d="M231.287 120.541C232.793 119.789 234.187 118.51 234.112 116.817C233.697 109.216 227.106 112.301 227.445 117.907C227.483 120.241 229.479 121.482 231.287 120.541ZM231.098 125.922C226.917 126.298 224.017 124.041 223.038 120.504C222.36 118.058 222.699 115.613 223.64 113.355C224.13 112.189 224.733 111.022 225.448 110.044C227.407 107.372 231.399 106.921 233.924 109.216C234.112 109.442 234.337 109.63 234.601 109.856C234.789 109.479 234.94 109.066 235.129 108.727C236.032 107.297 237.539 107.184 238.631 108.464C239.196 109.103 239.535 109.856 239.573 110.721C239.648 112.565 239.648 114.409 239.686 116.252V123.59C239.648 124.003 239.611 124.342 239.498 124.718C239.234 125.809 238.292 126.486 237.162 126.599C236.146 126.637 235.204 125.96 234.789 124.982C234.752 124.868 234.714 124.756 234.639 124.568C233.546 125.245 232.379 125.809 231.098 125.922Z" fill="#314196"/>
<path d="M254.112 116.817V116.177C254.074 114.334 254.337 114.334 252.229 113.92H252.191C251.363 113.845 250.571 113.769 249.931 114.446C248.952 115.613 248.462 117.005 248.537 118.547C248.613 119.789 249.102 120.429 250.194 120.73C251.626 121.069 253.17 120.58 253.961 119.45C253.999 119.376 254.036 119.149 254.036 119.074C254.074 118.321 254.112 117.607 254.187 116.817H254.112ZM248.801 125.734C245.976 124.982 244.319 123.062 243.641 120.203C242.812 116.741 244.394 112.152 247.257 110.007C249.291 108.501 251.55 108.313 253.886 108.991C254.225 109.103 254.451 109.103 254.676 108.803C255.656 107.824 257.2 107.899 258.067 108.991C258.632 109.668 258.858 110.458 258.971 111.324C259.272 114.409 259.31 117.57 259.122 120.692C258.971 122.686 258.963 124.68 258.398 126.637C257.758 128.819 257.051 135.831 248.64 136.224C247.059 136.298 245.815 135.02 245.853 133.478C245.928 132.386 246.819 131.257 248.113 131.07C253.009 130.358 253.039 127.129 253.057 125.922C251.55 126.223 250.157 126.11 248.801 125.734Z" fill="#314196"/>
<path d="M292.431 116.817V116.177C292.393 114.334 292.657 114.334 290.548 113.92H290.51C289.682 113.845 288.89 113.769 288.25 114.446C287.271 115.613 286.781 117.005 286.857 118.547C286.932 119.789 287.421 120.429 288.514 120.73C289.946 121.069 291.49 120.58 292.281 119.45C292.318 119.376 292.356 119.149 292.356 119.074C292.393 118.321 292.431 117.607 292.506 116.817H292.431ZM287.12 125.734C284.295 124.982 282.638 123.062 281.96 120.203C281.131 116.741 282.713 112.152 285.576 110.007C287.61 108.501 289.87 108.313 292.205 108.991C292.544 109.103 292.77 109.103 292.996 108.803C293.976 107.824 295.519 107.899 296.386 108.991C296.951 109.668 297.177 110.458 297.29 111.324C297.592 114.409 297.629 117.57 297.441 120.692C297.29 122.686 297.282 124.68 296.718 126.637C296.077 128.819 295.371 135.831 286.96 136.224C285.379 136.298 284.135 135.02 284.172 133.478C284.248 132.386 285.139 131.257 286.432 131.07C291.329 130.358 291.359 127.129 291.376 125.922C289.87 126.223 288.476 126.11 287.12 125.734Z" fill="#314196"/>
<path d="M269.177 113.695C268.386 115.011 267.897 116.404 267.822 117.947C267.784 118.999 268.047 119.941 268.764 120.768C269.742 121.897 271.099 121.822 271.927 120.58C272.041 120.392 272.191 120.166 272.266 119.941C272.832 118.699 273.095 117.381 273.019 116.065C272.982 115.425 272.756 114.823 272.529 114.222C272.041 112.98 270.533 112.491 269.554 113.168C269.404 113.394 269.253 113.544 269.177 113.695ZM266.39 109.33C267.069 108.653 267.897 108.126 268.876 107.975C271.739 107.561 275.468 107.825 277.238 113.13C277.992 115.237 278.067 117.42 277.577 119.564C277.163 121.295 276.447 122.875 275.279 124.23C272.078 127.879 267.219 126.638 264.921 123.891C263.603 122.273 262.85 120.129 262.887 117.495C263.114 114.786 264.018 111.738 266.39 109.33Z" fill="#314196"/>
<path d="M315.093 108.125C313.812 108.088 312.719 109.066 312.531 110.495C312.418 111.135 312.418 111.775 312.306 112.415C311.853 114.823 311.1 117.155 309.97 119.337C309.593 120.052 309.066 120.692 308.501 121.294C307.973 121.746 307.521 121.633 307.183 120.993C306.882 120.466 306.656 119.827 306.504 119.262C305.977 117.344 305.977 113.769 306.015 111.85C306.015 110.721 305.639 109.743 304.998 108.84C304.32 107.824 303.115 107.711 302.324 108.577C301.608 109.367 301.119 110.232 301.081 111.286C300.968 113.882 301.043 118.058 301.683 120.541C302.173 122.31 302.813 123.928 304.169 125.132C305.525 126.261 306.957 126.9 308.689 126.524C309.292 126.411 309.857 126.223 310.497 126.035C310.248 126.61 309.86 129.506 304.723 131.07C303.472 131.45 302.538 132.386 302.463 133.478C302.425 135.02 303.668 136.224 305.251 136.224C314.396 136.224 316 125.342 316.449 122.762C316.863 120.278 317.127 117.795 317.352 115.236C317.503 113.731 317.503 112.226 317.503 110.683C317.466 109.216 316.41 108.163 315.093 108.125Z" fill="#314196"/>
<path d="M164.786 89.513C164.272 88.7439 163.965 87.9229 164.119 86.9991C164.581 84.7933 167.047 83.8688 168.793 85.2548C169.255 85.5624 169.615 86.0243 169.973 86.4346C171.206 87.8718 172.593 89.1023 174.495 89.6161C175.572 89.9238 176.754 90.2829 177.884 89.9238C180.093 89.3077 180.966 87.5121 180.144 85.4082C179.425 83.6127 178.192 82.1763 176.497 81.3042C174.854 80.4831 173.21 79.8159 171.515 79.0979C170.128 78.4818 168.793 77.7639 167.662 76.7886C164.581 74.0697 163.862 70.4263 165.608 66.63C167.047 63.5511 169.563 61.7548 172.593 60.6776C175.572 59.6005 178.449 59.857 181.273 61.088C183.02 61.8579 184.407 63.1408 185.435 64.7825C185.999 65.7058 186.102 66.7322 185.897 67.7586C185.486 69.5542 183.534 70.4263 181.993 69.4519C181.428 69.1434 180.914 68.7842 180.555 68.3224C178.654 65.5004 175.11 65.6547 172.696 67.3479C171.669 68.1174 170.898 69.0411 170.796 70.3752C170.796 70.7859 170.898 71.3501 171.206 71.6062C171.772 72.1711 172.388 72.7357 173.107 73.0945C174.597 73.8644 176.138 74.4281 177.627 75.0953C179.785 76.0195 181.685 77.2504 183.277 79.0459C185.075 81.0988 186.255 83.5104 186.461 86.2804C186.719 89.7695 185.28 92.5915 182.404 94.5412C180.812 95.6188 179.014 96.1837 177.267 96.1837C171.875 96.0295 167.817 93.7721 164.786 89.513Z" fill="#314196"/>
<path d="M203.465 87.5117C205.519 86.4852 207.42 84.7409 207.316 82.4324C206.751 72.0676 197.763 76.2751 198.226 83.9207C198.277 87.1009 200.999 88.7946 203.465 87.5117ZM203.207 94.8492C197.506 95.3622 193.551 92.2833 192.216 87.4605C191.292 84.1256 191.753 80.7903 193.038 77.7114C193.704 76.1213 194.527 74.5307 195.502 73.1971C198.173 69.5537 203.618 68.938 207.06 72.0676C207.316 72.3756 207.624 72.6321 207.984 72.9397C208.24 72.4267 208.446 71.863 208.704 71.4007C209.935 69.4514 211.99 69.2976 213.479 71.042C214.25 71.9142 214.712 72.9397 214.763 74.1204C214.867 76.6343 214.867 79.1486 214.919 81.6624V91.6676C214.867 92.2322 214.815 92.6941 214.661 93.2071C214.301 94.6949 213.017 95.6183 211.477 95.7725C210.091 95.8236 208.806 94.9003 208.24 93.5663C208.189 93.4124 208.138 93.2582 208.035 93.0017C206.546 93.925 204.953 94.6949 203.207 94.8492Z" fill="#314196"/>
<path d="M231.819 87.5117C233.873 86.4852 235.774 84.7409 235.67 82.4324C235.106 72.0676 226.117 76.2751 226.58 83.9207C226.631 87.1009 229.353 88.7946 231.819 87.5117ZM231.562 94.8492C225.86 95.3622 221.905 92.2833 220.57 87.4605C219.646 84.1256 220.108 80.7903 221.392 77.7114C222.059 76.1213 222.881 74.5307 223.857 73.1971C226.527 69.5537 231.973 68.938 235.414 72.0676C235.67 72.3756 235.979 72.6321 236.339 72.9397C236.594 72.4267 236.801 71.863 237.058 71.4007C238.29 69.4514 240.345 69.2976 241.834 71.042C242.605 71.9142 243.067 72.9397 243.118 74.1204C243.222 76.6343 243.222 79.1486 243.273 81.6624V91.6676C243.222 92.2322 243.169 92.6941 243.015 93.2071C242.656 94.6949 241.372 95.6183 239.831 95.7725C238.445 95.8236 237.16 94.9003 236.594 93.5663C236.543 93.4124 236.492 93.2582 236.39 93.0017C234.901 93.925 233.308 94.6949 231.562 94.8492Z" fill="#314196"/>
<path d="M259.914 71.2984C261.199 70.7854 262.587 70.6823 263.973 70.9908C265.668 71.2984 266.9 72.7863 266.798 74.428C266.695 76.2235 265.36 77.7118 263.562 77.6606C261.353 77.6095 259.914 78.7893 258.785 80.4826C257.552 82.227 256.422 84.1256 255.293 85.9215C255.139 86.178 255.086 86.4856 255.086 86.7425C255.086 88.282 255.139 89.821 255.086 91.3604C255.035 92.0272 254.933 92.7452 254.728 93.3613C254.317 94.7465 253.135 95.6187 251.851 95.6187C250.618 95.6187 249.385 94.8491 248.975 93.5147C248.667 92.3348 248.616 91.155 248.461 89.9232C248.409 89.7183 248.409 89.4614 248.409 89.2564C248.409 84.9462 248.307 80.6879 248.307 76.3777C248.307 74.736 248.512 73.197 249.385 71.7092C250.362 70.0155 252.108 69.9132 253.289 71.5038C253.597 71.9141 253.803 72.376 254.008 72.8886C254.266 73.5047 254.419 74.1715 254.677 74.8383C256.166 73.2482 257.861 72.0164 259.914 71.2984Z" fill="#314196"/>
<path d="M280.731 62.8322C280.063 62.7811 279.447 62.7811 278.727 62.7811C278.882 61.0879 277.187 59.9076 275.594 59.9076C273.796 59.8565 272.257 60.3184 271.948 62.8322C271.228 62.9353 270.459 62.73 269.688 62.8322C266.862 63.2426 266.811 67.8604 269.842 67.9635C270.51 67.9635 271.332 67.9115 272.101 67.9635V68.4765C272.101 72.962 272.224 85.4477 272.243 92.4157C272.248 94.2994 273.777 95.8236 275.663 95.8236C277.563 95.8236 279.098 94.2813 279.083 92.3839C279.033 86.2601 278.927 74.3793 278.882 71.6576C278.831 70.1693 278.831 69.5025 278.831 67.9635H280.731C283.3 67.8093 283.504 63.0376 280.731 62.8322Z" fill="#314196"/>
<path d="M296.745 70.8361C299.621 70.5796 301.931 71.6572 303.678 73.9145C305.066 75.7101 305.682 77.8652 306.093 80.0203C306.76 84.1763 306.606 88.2811 306.298 92.4371C306.144 94.4891 304.551 95.8743 302.702 95.7209C300.802 95.6178 299.416 94.0276 299.467 91.8725C299.518 89.1013 299.621 86.3314 299.569 83.5094C299.518 81.8158 299.312 80.0714 298.542 78.5835C298.08 77.6087 297.669 77.4548 296.641 77.7629C295.768 78.1728 294.895 78.6866 294.279 79.4046C292.173 81.9185 292.173 81.9185 292.173 85.2019C292.224 87.2036 292.224 89.256 292.173 91.2057C292.173 91.8214 292.122 92.3851 292.07 92.899C291.813 94.6433 290.529 95.772 288.938 95.772C287.344 95.7209 286.009 94.4891 285.907 92.7447C285.753 90.2304 285.547 87.7677 285.496 85.2538C285.445 79.7118 285.342 74.2222 285.393 68.681C285.393 66.9362 285.753 65.2949 286.009 63.5506C286.061 63.1398 286.267 62.6784 286.523 62.2676C287.551 60.6767 289.399 60.6767 290.477 62.2676C291.146 63.2932 291.3 64.525 291.402 65.7048C291.608 67.8088 291.762 69.9639 291.917 72.0671C291.917 72.2213 291.917 72.3751 291.968 72.6316C293.457 71.5541 294.999 70.9904 296.745 70.8361Z" fill="#314196"/>
<path d="M318.319 63.6533C318.319 65.5519 316.88 66.9882 315.031 66.9882C313.182 67.0913 311.693 65.6035 311.693 63.7564C311.64 61.9601 313.131 60.4207 314.98 60.4207C316.829 60.3695 318.268 61.8578 318.319 63.6533ZM318.37 91.5658C318.37 92.0784 318.319 92.5914 318.164 93.1048C317.753 94.5923 316.366 95.5675 314.877 95.5164C313.387 95.4644 312.051 94.3869 311.744 92.8475C311.64 92.438 311.589 91.9757 311.589 91.5658C311.589 85.9215 311.538 80.2261 311.589 74.5823C311.589 73.8639 311.744 73.1451 312.051 72.4783C312.669 71.042 314.004 70.324 315.39 70.4774C316.726 70.5801 317.959 71.7603 318.268 73.2482C318.37 73.7101 318.37 74.1715 318.37 74.6334C318.421 77.4042 318.421 80.2261 318.421 83.0485C318.421 85.9215 318.421 88.7434 318.37 91.5658Z" fill="#314196"/>
<path d="M59.1899 112.893L57.6232 113.834C56.8987 114.268 56.289 114.904 55.8506 115.673L54.7298 117.642L54.7682 117.688C54.627 117.653 54.4973 117.577 54.3983 117.467C54.3524 117.414 53.2659 116.184 52.8122 115.387C51.6229 113.289 52.3742 111.557 53.6432 110.773C53.933 110.594 54.2649 110.517 54.6154 110.517C56.2964 110.517 58.4807 112.254 59.2089 112.878L59.1899 112.893Z" fill="#314196"/>
<path d="M87.7604 82.3162C87.6535 82.6056 87.44 82.8189 87.1544 82.91C86.5405 83.1079 85.9345 82.6931 84.8364 81.943C83.9979 81.3681 82.9498 80.6522 81.7109 80.0654C81.6572 80.0427 81.6114 80.0126 81.5697 79.9779L83.9447 79.0909C84.9164 78.7251 85.721 78.0245 86.2127 77.1107L86.8072 76.0178C86.8571 76.09 86.8914 76.1737 86.91 76.2616C87.4516 78.6035 88.0386 81.5545 87.7604 82.3162Z" fill="#314196"/>
<path d="M85.537 99.637C84.4731 98.3961 81.5305 96.1223 79.837 95.4955C77.5809 94.6604 75.0908 94.0517 72.6535 93.5387C67.1927 92.3894 62.0357 91.3036 59.5761 86.2981C58.3888 83.882 58.2741 81.0938 59.2599 78.6472C60.1784 76.3688 61.954 74.6529 64.2596 73.8141C68.4051 72.3093 74.8047 73.6965 78.5284 76.9111C80.325 78.462 82.5688 77.8282 83.7676 76.4422C84.8059 75.2426 85.1526 73.2866 83.4617 71.8276C77.1384 66.371 65.7086 63.7553 58.2695 69.0502C54.5702 71.6829 52.237 75.5535 51.6987 79.9487C51.1104 84.7537 52.694 89.7506 56.044 93.6571C57.1079 94.8979 58.317 95.8649 59.6207 96.6472H59.4634C60.1999 97.0881 60.9611 97.4774 61.7438 97.7986C63.9694 98.712 66.4901 99.2424 68.9278 99.7554C74.3882 100.904 79.5456 101.99 82.0053 106.996C83.1921 109.412 83.3069 112.2 82.3215 114.646C81.4025 116.925 79.6273 118.641 77.3213 119.48C73.1761 120.984 66.7761 119.597 63.0525 116.383C61.2563 114.832 59.0122 115.466 57.8134 116.852C56.7755 118.052 56.4284 120.007 58.1193 121.466C64.4425 126.923 75.8723 129.539 83.3114 124.243C87.0111 121.611 89.344 117.741 89.8823 113.345C90.471 108.54 88.8874 103.543 85.537 99.637Z" fill="#42A3CA"/>
<path d="M115.195 66.9852C114.017 67.4973 113.262 68.4887 113.124 69.7048C112.975 71.0166 113.579 72.4187 114.627 73.1919C115.583 73.8987 116.797 74.0146 117.957 73.509C121.499 71.9704 127.987 70.2182 131.62 75.7895C132.97 77.8617 133.454 80.2181 133.142 83.2033C132.273 91.5017 126.549 97.0251 117.436 98.3579C115.18 98.6878 114.26 100.639 114.518 102.396C114.731 103.855 115.78 105.208 117.444 105.395C117.749 105.429 118.075 105.425 118.42 105.374C123.987 104.56 131.575 102.196 136.113 95.5554C138.441 92.1462 139.871 87.9119 140.247 83.3097C140.67 78.1248 139.226 73.514 136.07 69.9737C131.216 64.5311 123.411 63.4131 115.195 66.9852Z" fill="#D3559E"/>
<path d="M121.428 60.9354C121.765 61.2043 122.167 61.3701 122.568 61.4154C122.754 61.436 122.939 61.4311 123.118 61.3989C124.252 61.1903 124.979 60.248 124.927 59.0533L124.827 56.7856C124.803 56.245 124.521 55.7225 124.053 55.3497C123.558 54.9571 122.927 54.7827 122.364 54.8878C121.229 55.0948 120.502 56.0375 120.555 57.233L120.654 59.5003C120.678 60.0397 120.96 60.5634 121.428 60.9354Z" fill="#D3559E"/>
<path d="M142.156 63.9728C142.615 63.6194 142.915 63.0734 142.981 62.4763C143.043 61.9043 142.884 61.3592 142.533 60.9398C141.768 60.0251 140.452 59.8626 139.537 60.5678C138.676 61.2322 137.892 62.0025 137.207 62.8553C136.849 63.2994 136.691 63.8966 136.774 64.4929C136.855 65.0685 137.156 65.5807 137.602 65.8974C137.931 66.1304 138.296 66.2653 138.662 66.3065C139.378 66.3873 140.103 66.1106 140.586 65.509C141.108 64.8595 141.49 64.4863 142.156 63.9728Z" fill="#D3559E"/>
<path d="M150.518 76.3743C150.156 75.9232 149.65 75.6642 149.11 75.6015C148.055 75.5096 147.042 75.5599 146.098 75.7517C144.923 75.9912 144.154 77.0284 144.31 78.1637C144.389 78.7365 144.732 79.2886 145.228 79.6396C145.525 79.8507 145.855 79.9781 146.192 80.0161C146.387 80.0379 146.586 80.0301 146.782 79.9901H146.782C147.477 79.8487 148.007 79.8124 148.612 79.866C149.795 79.9695 150.84 79.1575 150.992 78.0156C151.069 77.4416 150.896 76.8432 150.518 76.3743Z" fill="#D3559E"/>
<path d="M143.361 89.5617C142.241 89.1634 141.024 89.6727 140.583 90.7185C140.356 91.2571 140.366 91.8876 140.612 92.4476C140.844 92.9742 141.253 93.3656 141.764 93.5483C142.442 93.7903 142.896 94.0707 143.437 94.5813C143.729 94.8559 144.102 95.0238 144.513 95.0699C144.645 95.0848 144.781 95.0877 144.919 95.0765C145.549 95.0287 146.143 94.7207 146.509 94.2501C147.212 93.3462 147.079 92.1268 146.185 91.2843C145.388 90.5333 144.412 89.9378 143.361 89.5617Z" fill="#D3559E"/>
<path d="M135.952 103.486C135.165 102.388 133.895 102.427 133.049 103.034C132.182 103.655 131.699 104.927 132.511 106.059L134.739 109.163C135.097 109.661 135.597 109.962 136.153 110.025C136.289 110.04 136.428 110.041 136.57 110.028C137.353 109.95 138.075 109.425 138.408 108.69C138.722 107.996 138.64 107.23 138.18 106.59L135.952 103.486Z" fill="#D3559E"/>
<path d="M119.89 107.704C119.273 107.65 118.6 107.877 118.134 108.298C117.735 108.657 117.511 109.134 117.503 109.641L117.485 110.85C117.478 111.305 117.525 111.84 117.916 112.349C118.255 112.793 118.807 113.112 119.333 113.172C119.346 113.173 119.36 113.175 119.374 113.177C119.992 113.23 120.664 113.002 121.131 112.581C121.529 112.222 121.752 111.745 121.759 111.239L121.777 110.03C121.784 109.575 121.738 109.041 121.345 108.529C120.996 108.075 120.41 107.762 119.89 107.704Z" fill="#D3559E"/>
<path d="M108.84 68.2688C108.318 67.6519 107.171 66.8828 105.779 66.6696C104.022 66.3991 102.886 66.7838 102.349 67.7014C102.291 67.6061 102.276 67.4845 102.311 67.3702C102.371 67.195 103.66 62.8959 106.569 60.6723C106.622 60.634 106.679 60.6113 106.736 60.6035C106.789 60.596 106.843 60.5997 106.893 60.6187C107.003 60.6608 107.098 60.7519 107.137 60.8777C107.194 61.0414 108.467 64.8341 108.84 68.2688Z" fill="#314196"/>
<path d="M109.981 121.94C108.631 110.84 107.902 100.118 107.842 89.4969C107.815 84.2633 107.904 80.2541 108.224 76.4784C108.236 76.3691 108.243 76.2619 108.254 76.1526C108.399 74.7183 108.66 71.7067 107.339 70.0918C106.811 69.4452 106.106 69.1037 105.251 69.0815C105.075 69.0761 104.913 69.0806 104.753 69.0885C101.574 69.2893 101.436 72.209 101.346 73.6313C101.158 77.0429 100.749 83.4645 100.753 88.6243C100.781 99.8225 101.523 111.09 102.922 122.817C102.952 123.074 102.982 123.331 103.013 123.588C104.984 123.383 106.957 123.161 108.925 122.921C109.312 122.878 109.699 122.838 110.085 122.794C110.052 122.509 110.018 122.225 109.981 121.94Z" fill="#314196"/>
<path d="M100.753 88.6244V88.6238C100.75 88.625 100.75 88.6244 100.753 88.6244Z" fill="#314196"/>
<path d="M103.17 125.949C103.188 126.088 103.203 126.226 103.221 126.367C103.368 127.568 103.533 128.839 103.733 130.258C103.924 131.661 104.662 132.721 105.82 133.227C107.057 133.77 108.572 133.53 109.592 132.608C110.251 132.018 110.663 131.212 110.775 130.288C110.82 129.912 110.816 129.515 110.764 129.103C110.579 127.785 110.424 126.618 110.293 125.536C110.275 125.404 110.262 125.271 110.243 125.138C107.888 125.435 105.528 125.707 103.17 125.949Z" fill="#314196"/>

</svg>
