<svg width="102" height="102" viewBox="0 0 102 102" fill="none" xmlns="http://www.w3.org/2000/svg">
<circle cx="51" cy="51" r="50.5" fill="#CED3ED" stroke="#D9DADE"/>
<mask id="mask0_4001_45230" style="mask-type:alpha" maskUnits="userSpaceOnUse" x="1" y="1" width="100" height="100">
<circle cx="51" cy="51" r="49.5" fill="#0051CB" stroke="black"/>
</mask>
<g mask="url(#mask0_4001_45230)">
</g>
<path d="M49.2422 29.6602V38.332L43.1836 45.5391L37.1367 52.7578H30.7031H24.2812V65.1211V77.4844H22.6406H21V79.2422V81H51H81V79.2422V77.4844H79.3594H77.7188V65.1211V52.7578H71.2969H64.8633L58.8164 45.5391L52.7578 38.332V34.5234V30.7266H57.8555H62.9531V25.8633V21H56.0977H49.2422V29.6602ZM52.6641 45.7734C54.3281 46.2891 55.8164 47.8242 56.2852 49.5352C56.3789 49.8516 56.4492 50.5195 56.4492 51C56.4492 52.5234 55.9336 53.8008 54.8672 54.8672C53.8008 55.9336 52.5234 56.4492 51 56.4492C49.4766 56.4492 48.1992 55.9336 47.1328 54.8672C46.0664 53.8008 45.5508 52.5234 45.5508 51C45.5508 50.5195 45.6211 49.8516 45.7148 49.5352C46.0781 48.2109 47.1211 46.8984 48.3281 46.2188C48.8672 45.9141 49.1602 45.8203 50.2383 45.5625C50.625 45.4688 52.0781 45.5977 52.6641 45.7734ZM33.8906 61.0195V63.5508L32.168 63.5156L30.4336 63.4805L30.3984 60.9844L30.375 58.5H32.1328H33.8906V61.0195ZM71.6016 60.9844L71.5664 63.4805L69.8438 63.5156L68.1094 63.5508V61.0195V58.5H69.8672H71.625L71.6016 60.9844ZM60.2578 69.6328V77.4844H58.5H56.7422V71.3906V65.2969H54.75H52.7578V71.3906V77.4844H51H49.2422V71.3906V65.2969H47.25H45.2578V71.3906V77.4844H43.5H41.7422V69.6328V61.7812H51H60.2578V69.6328ZM34.0078 70.9805V73.5H32.25H30.4922V70.9805V68.4609H32.25H34.0078V70.9805ZM71.5078 70.9805V73.5H69.75H67.9922V70.9805V68.4609H69.75H71.5078V70.9805Z" fill="white"/>
<path d="M50.2384 49.1719C49.7462 49.3828 49.1485 50.0977 49.0548 50.5898C48.9259 51.293 49.1016 51.832 49.6407 52.3594C50.4845 53.2031 51.5157 53.2031 52.3595 52.3594C53.1446 51.5742 53.2032 50.5547 52.4884 49.7461C51.879 49.043 51.0235 48.832 50.2384 49.1719Z" fill="white"/>
<path d="M24.9609 41.6719L21 46.6406V47.9414V49.2422H28.2539H35.4961L40.582 43.1836C43.3828 39.8555 45.7383 37.0313 45.8203 36.9141C45.9727 36.7149 45.6914 36.7031 37.4414 36.7149H28.9102L24.9609 41.6719Z" fill="white"/>
<path d="M56.1798 36.9141C56.2618 37.0313 58.6173 39.8555 61.418 43.1836L66.504 49.2422H73.7462H81.0001V47.9414V46.6406L77.0509 41.6719L73.0899 36.7149H64.5587C56.3087 36.7031 56.0274 36.7149 56.1798 36.9141Z" fill="white"/>
</svg>
