<svg width="50" height="50" viewBox="0 0 50 50" fill="none" xmlns="http://www.w3.org/2000/svg">
<rect width="50" height="50" rx="25" fill="white"/>
<rect width="50" height="50" rx="25" stroke="#25B9F3"/>
<path d="M25 24.4C21.8533 21.4667 17.64 19.6667 13 19.6667V34.3333C17.64 34.3333 21.8533 36.1333 25 39.0667C28.1467 36.1467 32.36 34.3333 37 34.3333V19.6667C32.36 19.6667 28.1467 21.4667 25 24.4ZM25 19.6667C27.2133 19.6667 29 17.88 29 15.6667C29 13.4533 27.2133 11.6667 25 11.6667C22.7867 11.6667 21 13.4533 21 15.6667C21 17.88 22.7867 19.6667 25 19.6667Z" fill="#25B9F3"/>
</svg>
