<svg width="414" height="736" viewBox="0 0 414 736" fill="none" xmlns="http://www.w3.org/2000/svg">
    <defs>
        <linearGradient id="paint0_linear_311_962" x1="285.27" y1="540.812" x2="398.066"
            y2="770.169" gradientUnits="userSpaceOnUse">
            <stop stop-color="#6100E0" />
            <stop offset="1" stop-color="#6100E0" stop-opacity="0" />
        </linearGradient>
        <linearGradient id="paint1_linear_311_962" x1="36.0234" y1="-46.4343" x2="148.819"
            y2="182.923" gradientUnits="userSpaceOnUse">
            <stop stop-color="#FF7E46" />
            <stop offset="1" stop-color="#FF7E46" stop-opacity="0" />
        </linearGradient>
    </defs>

    <circle opacity="0.1" cx="340" cy="658" r="125" fill="url(#paint0_linear_311_962)" />
    <circle opacity="0.1" cx="90.7532" cy="70.7532" r="125" transform="rotate(-90 90.7532 70.7532)"
        fill="url(#paint1_linear_311_962)" />
    <path
        d="M366.639 519.812C366.17 518.83 365.7 517.847 365.233 516.865C364.779 515.915 363.326 515.614 362.479 516.173C361.502 516.816 361.3 517.907 361.785 518.926L363.193 521.873C363.647 522.823 365.1 523.124 365.947 522.566C366.924 521.922 367.125 520.83 366.639 519.812Z"
        fill="#D3559F" />
    <path
        d="M363.222 517.011C363.167 517.027 363.118 517.048 363.076 517.077C362.432 517.5 362.604 518.124 362.764 518.46L364.17 521.407C364.233 521.54 364.41 521.659 364.627 521.721C364.894 521.792 365.184 521.77 365.35 521.663C365.993 521.238 365.822 520.615 365.663 520.28L364.254 517.33C364.192 517.2 364.017 517.079 363.797 517.019C363.597 516.963 363.386 516.963 363.222 517.011ZM365.825 523.8C365.269 523.965 364.644 523.972 364.047 523.806C363.219 523.576 362.551 523.04 362.216 522.339L360.809 519.392C360.068 517.839 360.5 516.182 361.884 515.269C362.569 514.813 363.504 514.691 364.379 514.931C365.206 515.163 365.874 515.698 366.21 516.399L367.617 519.347C368.359 520.901 367.927 522.556 366.543 523.47C366.323 523.613 366.082 523.724 365.825 523.8Z"
        fill="#D3559F" />
    <path
        d="M357.239 627.508C357.38 627.353 357.589 627.246 357.826 627.158C358.765 627.288 359.706 627.44 360.649 627.621C363.042 628.083 365.36 628.711 367.611 629.465C368.352 629.904 368.89 630.34 369.057 630.721C369.616 631.983 372.161 632.081 372.722 633.865C372.951 634.592 369.198 633.439 368.636 633.819C367.146 634.585 367.845 636.198 366.224 637.438C364.602 638.97 367.42 639.155 367.479 640.577C365.63 644.707 360.682 649.097 360.294 645.747C360.194 644.893 359.531 642.148 358.863 641.025C356.765 637.501 351.562 637.621 351.129 635.018C350.9 633.651 352.564 633.828 352.428 632.824C352.07 630.183 354.702 631.159 354.709 629.185C354.709 628.649 354.354 627.265 354.873 626.835C355.098 626.854 355.324 626.874 355.549 626.896C356.139 627.221 356.879 627.907 357.239 627.508Z"
        fill="#B1D57D" />
    <path
        d="M344.052 638.203C343.919 638.898 345.723 640.147 346.056 640.212C347.406 640.472 350.049 639.336 350.182 638.639C350.316 637.946 347.917 637.692 346.567 637.433C345.219 637.173 344.186 637.509 344.052 638.203Z"
        fill="#B1D57D" />
    <path
        d="M365.805 659.152C365.649 659.962 367.459 658.955 368.487 659.154C369.515 659.351 370.643 659.95 370.8 659.14C370.956 658.329 369.482 656.627 368.435 656.637C366.404 656.655 365.961 658.342 365.805 659.152Z"
        fill="#B1D57D" />

    <g opacity="0.210007">
        <g opacity="0.210007">
            <g opacity="0.210007">
                <path opacity="0.210007"
                    d="M340.575 657.555C340.594 658.852 341.66 659.887 342.957 659.868C344.253 659.85 345.288 658.783 345.269 657.487C345.253 656.19 344.185 655.155 342.887 655.174C341.592 655.192 340.555 656.26 340.575 657.555Z"
                    fill="white" />
            </g>
        </g>
    </g>
    <path
        d="M358.155 650.515C358.093 650.515 358.026 650.473 358.012 650.411C357.786 649.25 358.791 647.516 360.375 647.103C360.445 647.079 360.52 647.125 360.537 647.196C360.556 647.268 360.512 647.34 360.442 647.357C358.922 647.754 358.088 649.427 358.27 650.36C358.286 650.43 358.227 650.501 358.155 650.515Z"
        fill="white" />
    <path
        d="M358.859 651.652C358.798 651.652 358.731 651.609 358.718 651.547C358.491 650.386 359.495 648.652 361.084 648.24C361.14 648.216 361.228 648.263 361.246 648.333C361.263 648.404 361.22 648.477 361.15 648.493C359.627 648.891 358.796 650.563 358.975 651.497C358.991 651.568 358.932 651.638 358.859 651.652Z"
        fill="white" />
    <path
        d="M359.485 652.59C359.424 652.59 359.356 652.548 359.343 652.486C359.117 651.325 360.121 649.591 361.71 649.178C361.766 649.155 361.854 649.2 361.872 649.271C361.889 649.343 361.846 649.415 361.776 649.433C360.253 649.829 359.421 651.502 359.6 652.435C359.617 652.505 359.558 652.576 359.485 652.59Z"
        fill="white" />
    <path
        d="M384.829 626.06C386.288 631.548 382.018 633.53 379.145 634.532C372.532 636.838 325.5 639.574 319.587 636.739C314.199 634.155 319.287 627.328 328.223 619.836C332.567 616.194 333.952 619.008 347.338 618.943C361.459 618.873 383.154 619.762 384.829 626.06Z"
        fill="#61524A" />
    <path
        d="M374.964 637.873C361.815 642.204 352.694 645.466 344.676 648.166L340.901 638.635C348.715 635.09 360.2 629.697 372.521 623.915C377.225 621.709 382.559 623.075 384.02 626.875L384.204 627.353C385.639 631.081 379.81 636.277 374.964 637.873Z"
        fill="#FBC1A0" />
    <path
        d="M346.143 635.51C347.99 635.147 350.416 633.809 351.88 633.53L354.376 645.818C354.376 645.818 348.114 646.249 346.586 646.549C343.027 646.205 343.178 637.081 346.143 635.51Z"
        fill="white" />
    <path
        d="M347.608 648.721C348.277 648.801 349.175 648.767 349.978 648.784C350.574 648.797 352.53 643.706 351.294 643.19C350.977 643.057 350.69 642.957 350.426 642.88C350.766 642.011 351.155 641.078 351.591 640.1C352.538 637.977 353.492 636.117 354.256 634.848C352.326 633.968 348.854 632.767 346.701 631.806C346.701 631.806 333.378 652.67 335.217 657.546C335.735 658.92 342.117 654.908 347.608 648.721Z"
        fill="#EF3D3D" />
    <path
        d="M348.063 632.379C347.578 632.181 347.11 631.99 346.701 631.806C346.701 631.806 333.378 652.671 335.217 657.546C335.29 657.74 335.482 657.825 335.768 657.814C336.928 651.042 344.857 637.608 348.063 632.379Z"
        fill="#9F4545" />
    <path
        d="M341.892 654.21C341.92 654.073 341.946 653.937 341.962 653.794C342.331 650.849 340.568 648.2 338.026 647.884C337.937 647.873 337.849 647.871 337.761 647.866C335.844 652.012 334.559 655.803 335.217 657.548C335.556 658.447 338.416 657.034 341.892 654.21Z"
        fill="#9F4545" />
    <path
        d="M343.817 653.262C344.535 652.104 344.608 650.272 344.004 648.801C343.932 648.627 343.732 648.545 343.558 648.616C343.475 648.651 343.413 648.716 343.377 648.792C343.34 648.875 343.336 648.971 343.373 649.062C343.901 650.342 343.858 651.932 343.239 652.904C343.133 653.067 343.189 653.274 343.35 653.373C343.509 653.472 343.719 653.422 343.817 653.262ZM344.837 651.459C344.736 651.617 344.808 651.831 344.974 651.92C345.138 652.01 345.345 651.949 345.436 651.784C346.156 650.468 346.187 648.893 345.533 647.469C345.455 647.298 345.252 647.224 345.081 647.3C345.004 647.337 344.945 647.401 344.912 647.472C344.874 647.558 344.871 647.661 344.914 647.753C345.685 649.435 345.199 650.795 344.837 651.459ZM346.335 650.045C346.232 650.204 346.269 650.413 346.424 650.519C346.579 650.625 346.791 650.586 346.898 650.431C347.711 649.235 347.721 647.464 346.912 646.117C346.815 645.957 346.605 645.905 346.445 646.001C346.383 646.038 346.336 646.093 346.309 646.154C346.265 646.253 346.269 646.37 346.328 646.468C347.004 647.592 347.012 649.065 346.335 650.045Z"
        fill="white" />
    <path
        d="M328.58 626.697C343.194 629.178 356.754 633.286 365.692 634.75L364.612 644.151C355.454 643.46 341.906 642.592 327.37 641.659C321.82 641.302 318.496 637.311 318.966 633.581L318.982 632.188C320.417 628.395 323.196 625.782 328.58 626.697Z"
        fill="#FBC1A0" />
    <path
        d="M362.311 650.192C362.23 650.192 362.142 650.136 362.126 650.054C361.83 648.538 363.141 646.275 365.212 645.733C365.303 645.703 365.4 645.765 365.423 645.857C365.448 645.948 365.391 646.043 365.3 646.066C363.313 646.584 362.223 648.768 362.461 649.988C362.482 650.081 362.405 650.173 362.311 650.192Z"
        fill="white" />
    <path
        d="M363.232 651.676C363.152 651.676 363.064 651.62 363.047 651.539C362.751 650.023 364.062 647.759 366.137 647.219C366.211 647.189 366.325 647.249 366.348 647.341C366.373 647.433 366.315 647.529 366.225 647.551C364.233 648.069 363.147 650.253 363.383 651.473C363.404 651.566 363.326 651.658 363.232 651.676Z"
        fill="white" />
    <path
        d="M364.049 652.902C363.968 652.902 363.88 652.846 363.864 652.765C363.568 651.249 364.879 648.984 366.955 648.444C367.027 648.414 367.142 648.476 367.166 648.567C367.189 648.659 367.131 648.754 367.041 648.777C365.051 649.294 363.965 651.479 364.2 652.698C364.22 652.792 364.143 652.883 364.049 652.902Z"
        fill="white" />
    <g opacity="0.229996">
        <g opacity="0.229996">
            <g opacity="0.229996">
                <path opacity="0.229996"
                    d="M325.027 619.406C326.68 615.045 328.294 611.44 328.294 611.44L363.39 612.292C363.427 612.366 363.484 612.478 363.528 612.564C363.745 614.596 365.369 618.811 365.912 623.847C351.994 628.815 332.25 629.174 325.064 625.406C325.043 623.351 325.028 621.313 325.027 619.406Z"
                    fill="#030404" />
            </g>
        </g>
    </g>
    <path d="M359.288 579.76H342.127L342.626 572.739L358.991 573.194L359.288 579.76Z"
        fill="#C32727" />
    <path
        d="M366.27 621.888C347.782 627.943 325.211 620.939 322.841 618.483C326.983 599.829 330.641 582.964 335.016 577.532C344.663 576.937 360.713 578.767 367.213 581.263C359.29 600.689 366.27 621.888 366.27 621.888Z"
        fill="#EF3D3D" />
    <path
        d="M379.984 593.439C377.715 597.561 372.129 602.612 368.303 603.267C366.26 601.092 356.708 591.414 366.765 581.121C371.456 581.822 379.984 593.439 379.984 593.439Z"
        fill="#EF3D3D" />
    <path
        d="M357.728 572.123L356.992 581.083C356.834 583.01 353.658 584.321 349.9 584.013C346.142 583.704 343.224 581.892 343.381 579.966L344.117 571.005L357.728 572.123Z"
        fill="#E0956C" />
    <g opacity="0.220001">
        <g opacity="0.220001">
            <g opacity="0.220001">
                <path opacity="0.220001"
                    d="M343.901 590.851C344.3 589.712 348.194 584.108 350.091 584.007C345.302 582.758 343.093 580.093 342.253 576.144C342.253 576.144 340.512 578.023 340.028 579.083C339.099 581.63 337.446 586.953 343.901 590.851Z"
                    fill="#030404" />
            </g>
        </g>
    </g>
    <path
        d="M343.578 588.218C345.141 586.48 346.239 583.556 349.977 583.953C344.84 582.311 343.384 577.508 342.545 573.557C342.545 573.557 341.282 576.503 340.798 577.564C340.251 579.42 338.221 584.535 343.578 588.218Z"
        fill="#EF3D3D" />
    <g opacity="0.220001">
        <g opacity="0.220001">
            <g opacity="0.220001">
                <path opacity="0.220001"
                    d="M354.601 591.874C354.416 590.678 351.603 584.447 349.758 583.993C354.693 583.657 357.349 581.45 358.891 577.723C358.891 577.723 360.26 579.894 360.545 581.025C360.996 583.704 361.654 589.242 354.601 591.874Z"
                    fill="#030404" />
            </g>
        </g>
    </g>
    <path
        d="M355.397 589.345C354.175 587.346 353.626 584.266 349.881 583.962C355.228 583.305 357.531 578.852 359.074 575.126C359.074 575.126 359.78 578.257 360.064 579.389C360.264 581.316 361.33 586.721 355.397 589.345Z"
        fill="#EF3D3D" />
    <path
        d="M391.914 558.199C389.428 565.409 381.914 569.473 376.59 568.337C371.268 567.196 370.705 561.079 372.203 554.062C373.702 547.044 379.238 542.262 384.558 543.417C391.828 544.998 394.251 551.421 391.914 558.199Z"
        fill="#FBC1A0" />
    <path
        d="M385.321 559.288C384.663 562.364 381.93 564.389 379.216 563.809C376.505 563.229 374.838 560.264 375.496 557.188C376.154 554.112 378.885 552.089 381.598 552.667C384.312 553.247 385.977 556.212 385.321 559.288Z"
        fill="#E0956C" />
    <path
        d="M312.119 552.438C313.545 559.932 320.398 565.033 325.828 564.671C331.259 564.309 332.695 558.335 332.22 551.176C331.743 544.016 326.952 538.488 321.52 538.867C314.098 539.387 310.78 545.396 312.119 552.438Z"
        fill="#FBC1A0" />
    <path
        d="M318.884 554.493C319.092 557.633 321.507 560.027 324.275 559.844C327.042 559.66 329.117 556.965 328.907 553.826C328.699 550.688 326.285 548.293 323.517 548.476C320.749 548.659 318.675 551.354 318.884 554.493Z"
        fill="#E0956C" />
    <path
        d="M317.975 525.31C313.305 550.907 330.34 569.328 351.442 570.851C372.545 572.374 391.28 554.833 390.955 529.556C390.774 515.52 377.351 503.548 357.181 502.226C346.642 501.535 339.334 502.362 332.568 505.589C331.009 506.333 319.89 506.993 320.534 502.221C315.929 508.924 320.619 512.827 322.724 513.559C320.116 516.876 318.903 520.219 317.975 525.31Z"
        fill="#861619" />
    <path
        d="M325.317 519.797C323.198 523.712 321.833 559.499 325.598 564.772C329.592 570.366 346.996 576.702 350.731 576.971C354.732 577.26 372.468 573.987 376.271 568.431C380.768 561.852 384.84 530.224 383.835 526.352C380.44 513.272 369.365 512.041 354.838 510.991C341.248 510.011 330.813 509.636 325.317 519.797Z"
        fill="#FBC1A0" />
    <path
        d="M326.476 555.665C326.24 557.144 328.103 558.669 330.639 559.075C333.172 559.479 335.418 558.609 335.654 557.13C335.891 555.652 334.027 554.125 331.493 553.721C328.958 553.316 326.712 554.187 326.476 555.665Z"
        fill="#F59597" />
    <path
        d="M367.203 559.941C367.177 561.44 369.238 562.687 371.804 562.73C374.37 562.772 376.471 561.593 376.496 560.096C376.521 558.599 374.46 557.351 371.895 557.308C369.327 557.266 367.228 558.445 367.203 559.941Z"
        fill="#F59597" />
    <path
        d="M349.717 553.97C349.877 553.982 350.026 553.877 350.065 553.715C350.34 552.57 351.311 551.888 352.536 551.977C353.768 552.065 354.651 552.897 354.73 554.045C354.744 554.228 354.904 554.368 355.087 554.354C355.272 554.341 355.41 554.181 355.398 553.999C355.294 552.527 354.137 551.422 352.584 551.311C351.039 551.198 349.766 552.103 349.415 553.557C349.373 553.738 349.482 553.919 349.662 553.962L349.717 553.97Z"
        fill="#C78076" />
    <path
        d="M330.454 532.15C330.68 532.155 330.908 532.08 331.09 531.922C333.435 529.915 337.819 529.437 341.293 530.817C341.774 531.01 342.327 530.773 342.523 530.287C342.714 529.8 342.477 529.25 341.991 529.057C337.846 527.414 332.742 528.013 329.858 530.485C329.462 530.825 329.415 531.423 329.756 531.821C329.937 532.033 330.194 532.144 330.454 532.15Z"
        fill="#8D3022" />
    <path
        d="M376.202 535.685C376.461 535.713 376.728 535.633 376.935 535.443C377.322 535.09 377.349 534.493 376.997 534.107C374.435 531.3 369.445 530.08 365.131 531.201C364.624 531.334 364.321 531.851 364.453 532.357C364.586 532.864 365.104 533.167 365.608 533.034C369.224 532.09 373.52 533.097 375.599 535.381C375.762 535.56 375.977 535.662 376.202 535.685Z"
        fill="#8D3022" />
    <path
        d="M359.761 552.997C359.761 552.997 369.552 557.139 373.879 552.178C379.152 546.135 372.452 540.369 367.713 540.942C363.329 541.474 359.083 544.845 359.761 552.997Z"
        fill="#FAFDFF" />
    <path
        d="M375.392 543.989C373.738 541.466 371.294 540.497 368.543 540.522C365.733 540.545 362.731 542.263 361.747 544.229C363.455 542.07 366.114 541.465 367.753 541.268C370.365 540.948 373.616 542.405 374.915 544.858C376.071 547.04 375.674 550.118 373.738 552.335C375.916 550.906 377.115 546.615 375.392 543.989Z"
        fill="#773220" />
    <path
        d="M360.794 547.007C359.656 549.25 360.55 551.989 362.791 553.127C365.032 554.266 367.772 553.372 368.909 551.131C370.047 548.89 369.153 546.149 366.912 545.01C364.671 543.872 361.933 544.766 360.794 547.007Z"
        fill="#621B10" />
    <path
        d="M361.227 546.321C360.911 546.942 361.158 547.703 361.78 548.018C362.403 548.334 363.162 548.086 363.479 547.464C363.794 546.843 363.546 546.082 362.924 545.767C362.303 545.45 361.542 545.698 361.227 546.321Z"
        fill="white" />
    <path
        d="M344.527 551.647C344.527 551.647 334.148 553.946 330.791 548.285C326.701 541.384 334.336 536.929 338.892 538.352C343.107 539.669 346.673 543.753 344.527 551.647Z"
        fill="#FAFDFF" />
    <path
        d="M330.788 539.956C332.871 537.775 335.452 537.265 338.153 537.787C340.912 538.32 343.553 540.555 344.163 542.666C342.876 540.232 340.37 539.156 338.794 538.664C336.284 537.876 332.822 538.72 331.101 540.897C329.568 542.833 329.401 545.931 330.902 548.463C329.02 546.664 328.618 542.227 330.788 539.956Z"
        fill="#773220" />
    <path
        d="M331.617 544.198C330.478 546.439 331.373 549.179 333.614 550.317C335.855 551.456 338.593 550.562 339.732 548.32C340.87 546.078 339.976 543.338 337.735 542.2C335.494 541.063 332.756 541.956 331.617 544.198Z"
        fill="#621B10" />
    <path
        d="M332.049 543.509C331.734 544.132 331.982 544.893 332.603 545.208C333.225 545.524 333.986 545.275 334.301 544.654C334.617 544.032 334.368 543.271 333.747 542.956C333.125 542.64 332.364 542.888 332.049 543.509Z"
        fill="white" />
    <g opacity="0.399994">
        <g opacity="0.399994">
            <g opacity="0.399994">
                <path opacity="0.399994"
                    d="M366.783 617.094C366.452 616.062 366.092 614.825 365.738 613.419C361.781 615.482 355.85 617.575 344.981 616.957C333.805 616.306 327.32 613.457 323.821 611.475C323.488 612.705 323.162 613.95 322.84 615.202C326.41 617.104 332.286 619.493 341.456 620.425C342.515 620.532 343.622 620.621 344.77 620.683C355.996 621.323 362.436 619.254 366.783 617.094Z"
                    fill="white" />
                <path opacity="0.399994"
                    d="M324.238 609.97C327.771 611.786 333.402 613.963 342.034 614.84C343.079 614.946 344.167 615.029 345.296 615.096C355.177 615.658 361.243 614.081 365.46 612.223C365.322 611.619 365.187 611.005 365.057 610.351C361.018 612.183 355.158 613.784 345.402 613.231C334.974 612.66 328.518 610.129 324.749 608.137C324.576 608.741 324.408 609.357 324.238 609.97Z"
                    fill="white" />
            </g>
        </g>
    </g>
    <path
        d="M370.978 602.782C374.385 600.355 380.502 595.372 381.947 594.042L379.424 590.847C378.677 591.628 369.448 598.617 368.545 599.312L370.978 602.782Z"
        fill="#F9A51A" />
    <path
        d="M379.104 512.532C373.919 509.22 363.937 506.918 354.881 506.132C345.037 505.278 334.778 505.77 329.09 508.813C325.326 510.827 319.646 527.783 321.484 526.507C323.588 525.047 326.846 523.863 330.721 522.985C331.339 521.116 334.347 516.577 334.912 515.989C334.641 516.981 334.047 520.504 333.75 522.384C338.568 521.55 344.039 521.146 349.344 521.229C349.388 519.209 350.584 516.673 350.601 516.536C351.165 517.187 352.177 520.1 352.611 521.342C353.406 521.386 354.194 521.441 354.97 521.509C362.088 522.126 367.318 523.027 371.452 524.196C371.696 517.963 371.814 516.019 371.741 516.44C372.402 517.818 373.082 521.695 372.927 524.637C374.469 525.128 375.852 525.663 377.125 526.237C377.397 524.44 378.028 521.546 378.123 521.055C378.652 521.435 379.392 525.517 379.61 527.477C381.717 528.637 383.57 529.933 385.471 531.362C387.548 532.924 383.284 515.201 379.104 512.532Z"
        fill="#861619" />
    <path
        d="M329.115 597.777C323.742 596.794 318.118 592.77 317.241 591.17C321.216 585.451 326.459 576.73 335.017 577.531C331.949 583.365 329.115 597.777 329.115 597.777Z"
        fill="#EF3D3D" />
    <path
        d="M315.682 591.971C319.5 594.244 326.954 598.086 328.859 598.934L330.776 595.344C329.702 594.94 318.964 588.942 317.903 588.359L315.682 591.971Z"
        fill="#F9A51A" />
    <path
        d="M363.502 633.335C361.627 633.157 358.662 632.431 357.178 632.3L356.424 644.696C356.424 644.696 362.698 644.501 364.249 644.646C367.757 643.949 366.609 634.601 363.502 633.335Z"
        fill="white" />
    <path
        d="M360.44 647.553C359.793 647.366 358.977 646.989 358.23 646.696C357.675 646.478 357.835 641.024 359.176 641.027C359.519 641.027 359.82 641.046 360.096 641.077C360.116 640.145 360.119 639.131 360.094 638.063C360.039 635.738 359.878 633.653 359.665 632.189C361.784 632.122 365.451 632.355 367.807 632.3C367.807 632.3 372.042 656.69 368.463 660.479C367.455 661.546 363.117 655.38 360.44 647.553Z"
        fill="#EF3D3D" />
    <path
        d="M366.329 632.301C366.852 632.308 367.357 632.311 367.806 632.3C367.806 632.3 372.042 656.69 368.463 660.479C368.32 660.628 368.112 660.633 367.85 660.512C369.395 653.817 367.268 638.364 366.329 632.301Z"
        fill="#9F4545" />
    <path
        d="M363.593 654.823C363.622 654.686 363.651 654.55 363.689 654.413C364.487 651.552 367.135 649.791 369.602 650.479C369.688 650.504 369.769 650.537 369.853 650.567C370.02 655.133 369.743 659.125 368.463 660.479C367.802 661.178 365.709 658.768 363.593 654.823Z"
        fill="#9F4545" />
    <path
        d="M362.573 653.488C362.759 653.46 362.888 653.29 362.856 653.099C362.659 651.964 363.235 650.479 364.215 649.502C364.284 649.432 364.316 649.343 364.315 649.253C364.313 649.168 364.28 649.084 364.216 649.02C364.083 648.887 363.868 648.887 363.735 649.018C362.608 650.142 361.968 651.861 362.183 653.206C362.212 653.391 362.387 653.517 362.573 653.488ZM363.299 647.7C363.373 647.631 363.41 647.535 363.409 647.442C363.406 647.361 363.377 647.283 363.318 647.22C363.191 647.08 362.975 647.072 362.837 647.199C361.684 648.262 361.106 649.726 361.261 651.217C361.28 651.403 361.447 651.54 361.635 651.521C361.823 651.502 361.971 651.333 361.939 651.147C361.863 650.397 361.938 648.952 363.299 647.7ZM362.49 645.97C362.583 645.901 362.631 645.794 362.629 645.687C362.627 645.62 362.605 645.552 362.563 645.493C362.452 645.342 362.239 645.309 362.087 645.42C360.822 646.348 360.146 647.986 360.434 649.405C360.473 649.587 360.654 649.706 360.837 649.668C361.022 649.631 361.137 649.453 361.103 649.266C360.856 648.101 361.432 646.745 362.49 645.97Z"
        fill="white" />
    <path
        d="M322.092 618.283C319.053 613.297 320.766 608.804 317.403 604.02C316.543 602.795 315.481 592.786 314.563 587.109C322.215 585.354 338.785 586.241 347.291 599.956C347.296 600.086 342.701 617.722 342.291 619.576C339.536 618.223 336.387 617.318 332.994 617.014C329.108 616.667 325.385 617.152 322.092 618.283Z"
        fill="white" />
    <path
        d="M317.525 608.375C317.377 608.054 313.427 593.497 312.851 590.774C320.332 587.017 337.516 587.665 347.29 599.955C347.297 600.085 342.7 617.721 342.29 619.576C339.536 618.223 321.326 610.61 317.525 608.375Z"
        fill="#E2D7D7" />
    <path
        d="M312.021 595.487C312.302 595.195 312.374 595.131 312.71 594.825C325.213 591.72 336.008 594.682 342.901 599.927C343.137 601.937 343.947 622.825 343.452 625.422C333.551 622.438 320.944 593.595 312.021 595.487Z"
        fill="#8ED2CD" />
    <path
        d="M319.078 623.652C317.215 615.637 313.949 604.161 312.021 595.487C324.683 591.701 335.881 595.417 342.774 600.511C343.009 602.463 344.286 622.933 343.791 625.454C333.889 622.556 328 621.817 319.078 623.652Z"
        fill="#46C0B4" />
    <path
        d="M374.7 605.835C375.89 604.895 377.929 588.562 377.407 583.997C364.885 584.385 349.314 591.835 347.29 600.104C347.615 602.437 352.636 617.722 353.045 619.576C355.8 618.223 367.164 611.784 374.7 605.835Z"
        fill="white" />
    <path
        d="M373.245 618.283C376.283 613.297 374.57 608.804 377.932 604.02C378.793 602.795 379.855 592.786 380.773 587.109C373.121 585.354 355.796 586.388 347.29 600.102C347.286 600.233 352.636 617.722 353.045 619.576C355.8 618.223 358.949 617.318 362.342 617.014C366.228 616.667 369.95 617.152 373.245 618.283Z"
        fill="#EFE4E4" />
    <path
        d="M380.205 607.797C380.351 607.477 381.603 593.267 381.919 590.657C374.438 586.9 356.922 587.985 347.146 600.277C347.141 600.405 352.636 617.722 353.045 619.576C355.8 618.222 376.404 610.03 380.205 607.797Z"
        fill="#E2D7D7" />
    <path
        d="M352.55 600.037C352.55 600.599 350.488 601.718 347.718 601.718C344.948 601.718 342.702 600.568 342.774 600.013C342.824 599.622 345.012 599.189 347.783 599.189C350.553 599.189 352.55 599.722 352.55 600.037Z"
        fill="#717D7C" />
    <path
        d="M342.838 603.086C342.838 601.84 342.772 600.664 342.776 599.833C346.436 600.761 349.214 600.833 352.566 599.927C352.609 600.478 352.293 602.857 352.349 603.514C349.948 604.567 344.805 604.901 342.838 603.086Z"
        fill="#8ED2CD" />
    <path
        d="M343.791 625.454C343.605 618.652 342.974 608.779 342.774 600.511C346.401 601.212 349.198 601.408 352.549 600.528C352.774 602.304 353.406 622.933 353.675 625.525C351.273 626.548 345.758 627.218 343.791 625.454Z"
        fill="#28AD9D" />
    <path
        d="M383.481 594.562C383.459 594.458 383.374 594.196 383.279 593.937C373.253 591.744 359.457 594.682 352.565 599.927C352.36 601.787 352.973 603.738 353.188 606.397C365.084 603.941 380.124 594.433 383.481 594.562Z"
        fill="#8ED2CD" />
    <path
        d="M378.009 624.929C379.647 616.056 381.92 603.267 383.481 594.562C373.455 592.432 359.455 595.418 352.562 600.511C352.621 602.293 351.655 623.498 351.871 626.082C363.766 623.695 374.714 623.798 378.009 624.929Z"
        fill="#46C0B4" />
    <path
        d="M368.828 615.446C368.581 616.156 371.384 617.256 373.646 617.32C374.019 617.331 370.906 617.453 371.228 617.819C372.127 618.846 373.801 620.051 376.527 620.585C379.137 621.098 383.864 621.168 384.896 617.208C385.984 613.035 382.931 608.07 381.088 607.947C380.794 609.237 380.7 611.371 380.243 611.736C379.616 612.235 377.785 611.594 375.251 611.604C372.282 611.616 369.572 612.147 370.356 613.289C370.626 613.682 377.795 614.272 377.81 614.54C377.858 615.404 369.316 614.047 368.828 615.446Z"
        fill="#FBC1A0" />
    <path
        d="M327.294 613.837C327.568 614.536 324.809 615.744 322.552 615.893C322.18 615.919 325.295 615.922 324.986 616.302C324.127 617.36 322.501 618.628 319.797 619.266C317.208 619.877 312.489 620.128 311.304 616.209C310.058 612.081 312.922 607.003 314.758 606.809C315.101 608.087 315.275 610.217 315.747 610.564C316.392 611.038 318.197 610.328 320.73 610.243C323.698 610.143 326.424 610.568 325.687 611.739C325.432 612.143 318.289 613.004 318.284 613.274C318.27 614.139 326.753 612.455 327.294 613.837Z"
        fill="#FBC1A0" />
    <path
        d="M362.716 561.189C361.558 565.085 356.978 568.349 351.341 567.873C345.703 567.398 341.044 563.284 341.003 559.358C340.944 553.554 346.448 558.37 352.109 558.575C357.762 558.781 364.465 555.306 362.716 561.189Z"
        fill="#6F1811" />
    <path
        d="M352.264 564.081C349.215 563.824 346.507 564.396 344.864 565.589C346.576 566.824 348.803 567.753 351.333 567.967C354.183 568.207 356.605 567.525 358.591 566.344C357.098 565.133 354.969 564.31 352.264 564.081Z"
        fill="#D56F5F" />
    <path
        d="M359.574 557.627C357.792 557.079 354.971 558.13 352.153 558.027C348.975 557.912 346.41 556.36 344.402 556.708C345.074 558.41 348.022 559.885 351.668 560.192C355.579 560.522 358.916 559.395 359.574 557.627Z"
        fill="white" />
    <path
        d="M357.239 627.508C357.38 627.353 357.589 627.246 357.826 627.158C358.765 627.288 359.706 627.44 360.649 627.621C363.042 628.083 365.36 628.711 367.611 629.465C368.352 629.904 368.89 630.34 369.057 630.721C369.616 631.983 372.161 632.081 372.722 633.865C372.951 634.592 369.198 633.439 368.636 633.819C367.146 634.585 367.845 636.198 366.224 637.438C364.602 638.97 367.42 639.155 367.479 640.577C365.63 644.707 360.682 649.097 360.294 645.747C360.194 644.893 359.531 642.148 358.863 641.025C356.765 637.501 351.562 637.621 351.129 635.018C350.9 633.651 352.564 633.828 352.428 632.824C352.07 630.183 354.702 631.159 354.709 629.185C354.709 628.649 354.354 627.265 354.873 626.835C355.098 626.854 355.324 626.874 355.549 626.896C356.139 627.221 356.879 627.907 357.239 627.508Z"
        fill="#B1D57D" />
    <path
        d="M344.052 638.203C343.919 638.898 345.723 640.147 346.056 640.212C347.406 640.472 350.049 639.336 350.182 638.639C350.316 637.946 347.917 637.692 346.567 637.433C345.219 637.173 344.186 637.509 344.052 638.203Z"
        fill="#B1D57D" />
    <path
        d="M365.805 659.152C365.649 659.962 367.459 658.955 368.487 659.154C369.515 659.351 370.643 659.95 370.8 659.14C370.956 658.329 369.482 656.627 368.435 656.637C366.404 656.655 365.961 658.342 365.805 659.152Z"
        fill="#B1D57D" />
    <g opacity="0.210007">
        <g opacity="0.210007">
            <g opacity="0.210007">
                <path opacity="0.210007"
                    d="M340.575 657.555C340.594 658.852 341.66 659.887 342.957 659.868C344.253 659.85 345.288 658.783 345.269 657.487C345.253 656.19 344.185 655.155 342.887 655.174C341.592 655.192 340.555 656.26 340.575 657.555Z"
                    fill="white" />
            </g>
        </g>
    </g>
    <path
        d="M358.155 650.515C358.093 650.515 358.026 650.473 358.012 650.411C357.786 649.25 358.791 647.516 360.375 647.103C360.445 647.079 360.52 647.125 360.537 647.196C360.556 647.268 360.512 647.34 360.442 647.357C358.922 647.754 358.088 649.427 358.27 650.36C358.286 650.43 358.227 650.501 358.155 650.515Z"
        fill="white" />
    <path
        d="M358.859 651.652C358.798 651.652 358.731 651.609 358.718 651.547C358.491 650.386 359.495 648.652 361.084 648.24C361.14 648.216 361.228 648.263 361.246 648.333C361.263 648.404 361.22 648.477 361.15 648.493C359.627 648.891 358.796 650.563 358.975 651.497C358.991 651.568 358.932 651.638 358.859 651.652Z"
        fill="white" />
    <path
        d="M359.485 652.59C359.424 652.59 359.356 652.548 359.343 652.486C359.117 651.325 360.121 649.591 361.71 649.178C361.766 649.155 361.854 649.2 361.872 649.271C361.889 649.343 361.846 649.415 361.776 649.433C360.253 649.829 359.421 651.502 359.6 652.435C359.617 652.505 359.558 652.576 359.485 652.59Z"
        fill="white" />
    <path
        d="M384.829 626.06C386.288 631.548 382.018 633.53 379.145 634.532C372.532 636.838 325.5 639.574 319.587 636.739C314.199 634.155 319.287 627.328 328.223 619.836C332.567 616.194 333.952 619.008 347.338 618.943C361.459 618.873 383.154 619.762 384.829 626.06Z"
        fill="#61524A" />
    <path
        d="M374.964 637.873C361.815 642.204 352.694 645.466 344.676 648.166L340.901 638.635C348.715 635.09 360.2 629.697 372.521 623.915C377.225 621.709 382.559 623.075 384.02 626.875L384.204 627.353C385.639 631.081 379.81 636.277 374.964 637.873Z"
        fill="#FBC1A0" />
    <path
        d="M346.143 635.51C347.99 635.147 350.416 633.809 351.88 633.53L354.376 645.818C354.376 645.818 348.114 646.249 346.586 646.549C343.027 646.205 343.178 637.081 346.143 635.51Z"
        fill="white" />
    <path
        d="M347.608 648.721C348.277 648.801 349.175 648.767 349.978 648.784C350.574 648.797 352.53 643.706 351.294 643.19C350.977 643.057 350.69 642.957 350.426 642.88C350.766 642.011 351.155 641.078 351.591 640.1C352.538 637.977 353.492 636.117 354.256 634.848C352.326 633.968 348.854 632.767 346.701 631.806C346.701 631.806 333.378 652.67 335.217 657.546C335.735 658.92 342.117 654.908 347.608 648.721Z"
        fill="#D3559F" />
    <path
        d="M348.063 632.379C347.578 632.181 347.11 631.99 346.701 631.806C346.701 631.806 333.378 652.671 335.217 657.546C335.29 657.74 335.482 657.825 335.768 657.814C336.928 651.042 344.857 637.608 348.063 632.379Z"
        fill="#2F4397" />
    <path
        d="M343.817 653.262C344.535 652.104 344.608 650.272 344.004 648.801C343.932 648.627 343.732 648.545 343.558 648.616C343.475 648.651 343.413 648.716 343.377 648.792C343.34 648.875 343.336 648.971 343.373 649.062C343.901 650.342 343.858 651.932 343.239 652.904C343.133 653.067 343.189 653.274 343.35 653.373C343.509 653.472 343.719 653.422 343.817 653.262ZM344.837 651.459C344.736 651.617 344.808 651.831 344.974 651.92C345.138 652.01 345.345 651.949 345.436 651.784C346.156 650.468 346.187 648.893 345.533 647.469C345.455 647.298 345.252 647.224 345.081 647.3C345.004 647.337 344.945 647.401 344.912 647.472C344.874 647.558 344.871 647.661 344.914 647.753C345.685 649.435 345.199 650.795 344.837 651.459ZM346.335 650.045C346.232 650.204 346.269 650.413 346.424 650.519C346.579 650.625 346.791 650.586 346.898 650.431C347.711 649.235 347.721 647.464 346.912 646.117C346.815 645.957 346.605 645.905 346.445 646.001C346.383 646.038 346.336 646.093 346.309 646.154C346.265 646.253 346.269 646.37 346.328 646.468C347.004 647.592 347.012 649.065 346.335 650.045Z"
        fill="white" />
    <path
        d="M328.58 626.697C343.194 629.178 356.754 633.286 365.692 634.75L364.612 644.151C355.454 643.46 341.906 642.592 327.37 641.659C321.82 641.302 318.496 637.311 318.966 633.581L318.982 632.188C320.417 628.395 323.196 625.782 328.58 626.697Z"
        fill="#FBC1A0" />
    <path
        d="M362.311 650.192C362.23 650.192 362.142 650.136 362.126 650.054C361.83 648.538 363.141 646.275 365.212 645.733C365.303 645.703 365.4 645.765 365.423 645.857C365.448 645.948 365.391 646.043 365.3 646.066C363.313 646.584 362.223 648.768 362.461 649.988C362.482 650.081 362.405 650.173 362.311 650.192Z"
        fill="white" />
    <path
        d="M363.232 651.676C363.152 651.676 363.064 651.62 363.047 651.539C362.751 650.023 364.062 647.759 366.137 647.219C366.211 647.189 366.325 647.249 366.348 647.341C366.373 647.433 366.315 647.529 366.225 647.551C364.233 648.069 363.147 650.253 363.383 651.473C363.404 651.566 363.326 651.658 363.232 651.676Z"
        fill="white" />
    <path
        d="M364.049 652.902C363.968 652.902 363.88 652.846 363.864 652.765C363.568 651.249 364.879 648.984 366.955 648.444C367.027 648.414 367.142 648.476 367.166 648.567C367.189 648.659 367.131 648.754 367.041 648.777C365.051 649.294 363.965 651.479 364.2 652.698C364.22 652.792 364.143 652.883 364.049 652.902Z"
        fill="white" />
    <g opacity="0.229996">
        <g opacity="0.229996">
            <g opacity="0.229996">
                <path opacity="0.229996"
                    d="M325.027 619.406C326.68 615.045 328.294 611.44 328.294 611.44L363.39 612.292C363.427 612.366 363.484 612.478 363.528 612.564C363.745 614.596 365.369 618.811 365.912 623.847C351.994 628.815 332.25 629.174 325.064 625.406C325.043 623.351 325.028 621.313 325.027 619.406Z"
                    fill="#030404" />
            </g>
        </g>
    </g>
    <path d="M359.288 579.76H342.127L342.626 572.739L358.991 573.194L359.288 579.76Z"
        fill="#2F4397" />
    <path
        d="M366.27 621.888C347.782 627.943 325.211 620.939 322.841 618.483C326.983 599.829 330.641 582.964 335.016 577.532C344.663 576.937 360.713 578.767 367.213 581.263C359.29 600.689 366.27 621.888 366.27 621.888Z"
        fill="#D3559F" />
    <path
        d="M379.984 593.439C377.715 597.561 372.129 602.612 368.303 603.267C366.26 601.092 356.708 591.414 366.765 581.121C371.456 581.822 379.984 593.439 379.984 593.439Z"
        fill="#2F4397" />
    <path
        d="M357.728 572.123L356.992 581.083C356.834 583.01 353.658 584.321 349.9 584.013C346.142 583.704 343.224 581.892 343.381 579.966L344.117 571.005L357.728 572.123Z"
        fill="#E0956C" />
    <g opacity="0.220001">
        <g opacity="0.220001">
            <g opacity="0.220001">
                <path opacity="0.220001"
                    d="M343.901 590.851C344.3 589.712 348.194 584.108 350.091 584.007C345.302 582.758 343.093 580.093 342.253 576.144C342.253 576.144 340.512 578.023 340.028 579.083C339.099 581.63 337.446 586.953 343.901 590.851Z"
                    fill="#030404" />
            </g>
        </g>
    </g>
    <path
        d="M343.578 588.218C345.141 586.48 346.239 583.556 349.977 583.953C344.84 582.311 343.384 577.508 342.545 573.557C342.545 573.557 341.282 576.503 340.798 577.564C340.251 579.42 338.221 584.535 343.578 588.218Z"
        fill="#2F4397" />
    <g opacity="0.220001">
        <g opacity="0.220001">
            <g opacity="0.220001">
                <path opacity="0.220001"
                    d="M354.601 591.874C354.416 590.678 351.603 584.447 349.758 583.993C354.693 583.657 357.349 581.45 358.891 577.723C358.891 577.723 360.26 579.894 360.545 581.025C360.996 583.704 361.654 589.242 354.601 591.874Z"
                    fill="#030404" />
            </g>
        </g>
    </g>
    <path
        d="M355.397 589.345C354.175 587.346 353.626 584.266 349.881 583.962C355.228 583.305 357.531 578.852 359.074 575.126C359.074 575.126 359.78 578.257 360.064 579.389C360.264 581.316 361.33 586.721 355.397 589.345Z"
        fill="#2F4397" />
    <path
        d="M391.914 558.199C389.428 565.409 381.914 569.473 376.59 568.337C371.268 567.196 370.705 561.079 372.203 554.062C373.702 547.044 379.238 542.262 384.558 543.417C391.828 544.998 394.251 551.421 391.914 558.199Z"
        fill="#FBC1A0" />
    <path
        d="M385.321 559.288C384.663 562.364 381.93 564.389 379.216 563.809C376.505 563.229 374.838 560.264 375.496 557.188C376.154 554.112 378.885 552.089 381.598 552.667C384.312 553.247 385.977 556.212 385.321 559.288Z"
        fill="#E0956C" />
    <path
        d="M312.119 552.438C313.545 559.932 320.398 565.033 325.828 564.671C331.259 564.309 332.695 558.335 332.22 551.176C331.743 544.016 326.952 538.488 321.52 538.867C314.098 539.387 310.78 545.396 312.119 552.438Z"
        fill="#FBC1A0" />
    <path
        d="M318.884 554.493C319.092 557.633 321.507 560.027 324.275 559.844C327.042 559.66 329.117 556.965 328.907 553.826C328.699 550.688 326.285 548.293 323.517 548.476C320.749 548.659 318.675 551.354 318.884 554.493Z"
        fill="#E0956C" />
    <path
        d="M317.975 525.31C313.305 550.907 330.34 569.328 351.442 570.851C372.545 572.374 391.28 554.833 390.955 529.556C390.774 515.52 377.351 503.548 357.181 502.226C346.642 501.535 339.334 502.362 332.568 505.589C331.009 506.333 319.89 506.993 320.534 502.221C315.929 508.924 320.619 512.827 322.724 513.559C320.116 516.876 318.903 520.219 317.975 525.31Z"
        fill="#861619" />
    <path
        d="M325.317 519.797C323.198 523.712 321.833 559.499 325.598 564.772C329.592 570.366 346.996 576.702 350.731 576.971C354.732 577.26 372.468 573.987 376.271 568.431C380.768 561.852 384.84 530.224 383.835 526.352C380.44 513.272 369.365 512.041 354.838 510.991C341.248 510.011 330.813 509.636 325.317 519.797Z"
        fill="#FBC1A0" />
    <path
        d="M326.476 555.665C326.24 557.144 328.103 558.669 330.639 559.075C333.172 559.479 335.418 558.609 335.654 557.13C335.891 555.652 334.027 554.125 331.493 553.721C328.958 553.316 326.712 554.187 326.476 555.665Z"
        fill="#F59597" />
    <path
        d="M367.203 559.941C367.177 561.44 369.238 562.687 371.804 562.73C374.37 562.772 376.471 561.593 376.496 560.096C376.521 558.599 374.46 557.351 371.895 557.308C369.327 557.266 367.228 558.445 367.203 559.941Z"
        fill="#F59597" />
    <path
        d="M349.717 553.97C349.877 553.982 350.026 553.877 350.065 553.715C350.34 552.57 351.311 551.888 352.536 551.977C353.768 552.065 354.651 552.897 354.73 554.045C354.744 554.228 354.904 554.368 355.087 554.354C355.272 554.341 355.41 554.181 355.398 553.999C355.294 552.527 354.137 551.422 352.584 551.311C351.039 551.198 349.766 552.103 349.415 553.557C349.373 553.738 349.482 553.919 349.662 553.962L349.717 553.97Z"
        fill="#C78076" />
    <path
        d="M330.454 532.15C330.68 532.155 330.908 532.08 331.09 531.922C333.435 529.915 337.819 529.437 341.293 530.817C341.774 531.01 342.327 530.773 342.523 530.287C342.714 529.8 342.477 529.25 341.991 529.057C337.846 527.414 332.742 528.013 329.858 530.485C329.462 530.825 329.415 531.423 329.756 531.821C329.937 532.033 330.194 532.144 330.454 532.15Z"
        fill="#8D3022" />
    <path
        d="M376.202 535.685C376.461 535.713 376.728 535.633 376.935 535.443C377.322 535.09 377.349 534.493 376.997 534.107C374.435 531.3 369.445 530.08 365.131 531.201C364.624 531.334 364.321 531.851 364.453 532.357C364.586 532.864 365.104 533.167 365.608 533.034C369.224 532.09 373.52 533.097 375.599 535.381C375.762 535.56 375.977 535.662 376.202 535.685Z"
        fill="#8D3022" />
    <path
        d="M359.761 552.997C359.761 552.997 369.552 557.139 373.879 552.178C379.152 546.135 372.452 540.369 367.713 540.942C363.329 541.474 359.083 544.845 359.761 552.997Z"
        fill="#FAFDFF" />
    <path
        d="M375.392 543.989C373.738 541.466 371.294 540.497 368.543 540.522C365.733 540.545 362.731 542.263 361.747 544.229C363.455 542.07 366.114 541.465 367.753 541.268C370.365 540.948 373.616 542.405 374.915 544.858C376.071 547.04 375.674 550.118 373.738 552.335C375.916 550.906 377.115 546.615 375.392 543.989Z"
        fill="#773220" />
    <path
        d="M360.794 547.007C359.656 549.25 360.55 551.989 362.791 553.127C365.032 554.266 367.772 553.372 368.909 551.131C370.047 548.89 369.153 546.149 366.912 545.01C364.671 543.872 361.933 544.766 360.794 547.007Z"
        fill="#621B10" />
    <path
        d="M361.227 546.321C360.911 546.942 361.158 547.703 361.78 548.018C362.403 548.334 363.162 548.086 363.479 547.464C363.794 546.843 363.546 546.082 362.924 545.767C362.303 545.45 361.542 545.698 361.227 546.321Z"
        fill="white" />
    <path
        d="M344.527 551.647C344.527 551.647 334.148 553.946 330.791 548.285C326.701 541.384 334.336 536.929 338.892 538.352C343.107 539.669 346.673 543.753 344.527 551.647Z"
        fill="#FAFDFF" />
    <path
        d="M330.788 539.956C332.871 537.775 335.452 537.265 338.153 537.787C340.912 538.32 343.553 540.555 344.163 542.666C342.876 540.232 340.37 539.156 338.794 538.664C336.284 537.876 332.822 538.72 331.101 540.897C329.568 542.833 329.401 545.931 330.902 548.463C329.02 546.664 328.618 542.227 330.788 539.956Z"
        fill="#773220" />
    <path
        d="M331.617 544.198C330.478 546.439 331.373 549.179 333.614 550.317C335.855 551.456 338.593 550.562 339.732 548.32C340.87 546.078 339.976 543.338 337.735 542.2C335.494 541.063 332.756 541.956 331.617 544.198Z"
        fill="#621B10" />
    <path
        d="M332.049 543.509C331.734 544.132 331.982 544.893 332.603 545.208C333.225 545.524 333.986 545.275 334.301 544.654C334.617 544.032 334.368 543.271 333.747 542.956C333.125 542.64 332.364 542.888 332.049 543.509Z"
        fill="white" />
    <g opacity="0.399994">
        <g opacity="0.399994">
            <g opacity="0.399994">
                <path opacity="0.399994"
                    d="M366.783 617.094C366.452 616.062 366.092 614.825 365.738 613.419C361.781 615.482 355.85 617.575 344.981 616.957C333.805 616.306 327.32 613.457 323.821 611.475C323.488 612.705 323.162 613.95 322.84 615.202C326.41 617.104 332.286 619.493 341.456 620.425C342.515 620.532 343.622 620.621 344.77 620.683C355.996 621.323 362.436 619.254 366.783 617.094Z"
                    fill="white" />
                <path opacity="0.399994"
                    d="M324.238 609.97C327.771 611.786 333.402 613.963 342.034 614.84C343.079 614.946 344.167 615.029 345.296 615.096C355.177 615.658 361.243 614.081 365.46 612.223C365.322 611.619 365.187 611.005 365.057 610.351C361.018 612.183 355.158 613.784 345.402 613.231C334.974 612.66 328.518 610.129 324.749 608.137C324.576 608.741 324.408 609.357 324.238 609.97Z"
                    fill="white" />
            </g>
        </g>
    </g>
    <path
        d="M370.978 602.782C374.385 600.355 380.502 595.372 381.947 594.042L379.424 590.847C378.677 591.628 369.448 598.617 368.545 599.312L370.978 602.782Z"
        fill="#F9A51A" />
    <path
        d="M379.104 512.532C373.919 509.22 363.937 506.918 354.881 506.132C345.037 505.278 334.778 505.77 329.09 508.813C325.326 510.827 319.646 527.783 321.484 526.507C323.588 525.047 326.846 523.863 330.721 522.985C331.339 521.116 334.347 516.577 334.912 515.989C334.641 516.981 334.047 520.504 333.75 522.384C338.568 521.55 344.039 521.146 349.344 521.229C349.388 519.209 350.584 516.673 350.601 516.536C351.165 517.187 352.177 520.1 352.611 521.342C353.406 521.386 354.194 521.441 354.97 521.509C362.088 522.126 367.318 523.027 371.452 524.196C371.696 517.963 371.814 516.019 371.741 516.44C372.402 517.818 373.082 521.695 372.927 524.637C374.469 525.128 375.852 525.663 377.125 526.237C377.397 524.44 378.028 521.546 378.123 521.055C378.652 521.435 379.392 525.517 379.61 527.477C381.717 528.637 383.57 529.933 385.471 531.362C387.548 532.924 383.284 515.201 379.104 512.532Z"
        fill="#861619" />
    <path
        d="M329.115 597.777C323.742 596.794 318.118 592.77 317.241 591.17C321.216 585.451 326.459 576.73 335.017 577.531C331.949 583.365 329.115 597.777 329.115 597.777Z"
        fill="#2F4397" />
    <path
        d="M315.682 591.971C319.5 594.244 326.954 598.086 328.859 598.934L330.776 595.344C329.702 594.94 318.964 588.942 317.903 588.359L315.682 591.971Z"
        fill="#F9A51A" />
    <path
        d="M363.502 633.335C361.627 633.157 358.662 632.431 357.178 632.3L356.424 644.696C356.424 644.696 362.698 644.501 364.249 644.646C367.757 643.949 366.609 634.601 363.502 633.335Z"
        fill="white" />
    <path
        d="M360.44 647.553C359.793 647.366 358.977 646.989 358.23 646.696C357.675 646.478 357.835 641.024 359.176 641.027C359.519 641.027 359.82 641.046 360.096 641.077C360.116 640.145 360.119 639.131 360.094 638.063C360.039 635.738 359.878 633.653 359.665 632.189C361.784 632.122 365.451 632.355 367.807 632.3C367.807 632.3 372.042 656.69 368.463 660.479C367.455 661.546 363.117 655.38 360.44 647.553Z"
        fill="#D3559F" />
    <path
        d="M366.329 632.301C366.852 632.308 367.357 632.311 367.806 632.3C367.806 632.3 372.042 656.69 368.463 660.479C368.32 660.628 368.112 660.633 367.85 660.512C369.395 653.817 367.268 638.364 366.329 632.301Z"
        fill="#2F4397" />
    <path
        d="M363.593 654.823C363.622 654.686 363.651 654.55 363.689 654.413C364.487 651.552 367.135 649.791 369.602 650.479C369.688 650.504 369.769 650.537 369.853 650.567C370.02 655.133 369.743 659.125 368.463 660.479C367.802 661.178 365.709 658.768 363.593 654.823Z"
        fill="#2F4397" />
    <path
        d="M362.573 653.488C362.759 653.46 362.888 653.29 362.856 653.099C362.659 651.964 363.235 650.479 364.215 649.502C364.284 649.432 364.316 649.343 364.315 649.253C364.313 649.168 364.28 649.084 364.216 649.02C364.083 648.887 363.868 648.887 363.735 649.018C362.608 650.142 361.968 651.861 362.183 653.206C362.212 653.391 362.387 653.517 362.573 653.488ZM363.299 647.7C363.373 647.631 363.41 647.535 363.409 647.442C363.406 647.361 363.377 647.283 363.318 647.22C363.191 647.08 362.975 647.072 362.837 647.199C361.684 648.262 361.106 649.726 361.261 651.217C361.28 651.403 361.447 651.54 361.635 651.521C361.823 651.502 361.971 651.333 361.939 651.147C361.863 650.397 361.938 648.952 363.299 647.7ZM362.49 645.97C362.583 645.901 362.631 645.794 362.629 645.687C362.627 645.62 362.605 645.552 362.563 645.493C362.452 645.342 362.239 645.309 362.087 645.42C360.822 646.348 360.146 647.986 360.434 649.405C360.473 649.587 360.654 649.706 360.837 649.668C361.022 649.631 361.137 649.453 361.103 649.266C360.856 648.101 361.432 646.745 362.49 645.97Z"
        fill="white" />
    <path
        d="M322.092 618.283C319.053 613.297 320.766 608.804 317.403 604.02C316.543 602.795 315.481 592.786 314.563 587.109C322.215 585.354 338.785 586.241 347.291 599.956C347.296 600.086 342.701 617.722 342.291 619.576C339.536 618.223 336.387 617.318 332.994 617.014C329.108 616.667 325.385 617.152 322.092 618.283Z"
        fill="white" />
    <path
        d="M317.525 608.375C317.377 608.054 313.427 593.497 312.851 590.774C320.332 587.017 337.516 587.665 347.29 599.955C347.297 600.085 342.7 617.721 342.29 619.576C339.536 618.223 321.326 610.61 317.525 608.375Z"
        fill="#E2D7D7" />
    <path
        d="M312.021 595.487C312.302 595.195 312.374 595.131 312.71 594.825C325.213 591.72 336.008 594.682 342.901 599.927C343.137 601.937 343.947 622.825 343.452 625.422C333.551 622.438 320.944 593.595 312.021 595.487Z"
        fill="#8ED2CD" />
    <path
        d="M319.078 623.652C317.215 615.637 313.949 604.161 312.021 595.487C324.683 591.701 335.881 595.417 342.774 600.511C343.009 602.463 344.286 622.933 343.791 625.454C333.889 622.556 328 621.817 319.078 623.652Z"
        fill="#2F4397" />
    <path
        d="M374.7 605.835C375.89 604.895 377.929 588.562 377.407 583.997C364.885 584.385 349.314 591.835 347.29 600.104C347.615 602.437 352.636 617.722 353.045 619.576C355.8 618.223 367.164 611.784 374.7 605.835Z"
        fill="white" />
    <path
        d="M373.245 618.283C376.283 613.297 374.57 608.804 377.932 604.02C378.793 602.795 379.855 592.786 380.773 587.109C373.121 585.354 355.796 586.388 347.29 600.102C347.286 600.233 352.636 617.722 353.045 619.576C355.8 618.223 358.949 617.318 362.342 617.014C366.228 616.667 369.95 617.152 373.245 618.283Z"
        fill="#EFE4E4" />
    <path
        d="M380.205 607.797C380.351 607.477 381.603 593.267 381.919 590.657C374.438 586.9 356.922 587.985 347.146 600.277C347.141 600.405 352.636 617.722 353.045 619.576C355.8 618.222 376.404 610.03 380.205 607.797Z"
        fill="#E2D7D7" />
    <path
        d="M352.55 600.037C352.55 600.599 350.488 601.718 347.718 601.718C344.948 601.718 342.702 600.568 342.774 600.013C342.824 599.622 345.012 599.189 347.783 599.189C350.553 599.189 352.55 599.722 352.55 600.037Z"
        fill="#717D7C" />
    <path
        d="M342.838 603.086C342.838 601.84 342.772 600.664 342.776 599.833C346.436 600.761 349.214 600.833 352.566 599.927C352.609 600.478 352.293 602.857 352.349 603.514C349.948 604.567 344.805 604.901 342.838 603.086Z"
        fill="#8ED2CD" />
    <path
        d="M343.791 625.454C343.605 618.652 342.974 608.779 342.774 600.511C346.401 601.212 349.198 601.408 352.549 600.528C352.774 602.304 353.406 622.933 353.675 625.525C351.273 626.548 345.758 627.218 343.791 625.454Z"
        fill="#42A4CB" />
    <path
        d="M383.481 594.562C383.459 594.458 383.374 594.196 383.279 593.937C373.253 591.744 359.457 594.682 352.565 599.927C352.36 601.787 352.973 603.738 353.188 606.397C365.084 603.941 380.124 594.433 383.481 594.562Z"
        fill="#8ED2CD" />
    <path
        d="M378.009 624.929C379.647 616.056 381.92 603.267 383.481 594.562C373.455 592.432 359.455 595.418 352.562 600.511C352.621 602.293 351.655 623.498 351.871 626.082C363.766 623.695 374.714 623.798 378.009 624.929Z"
        fill="#2F4397" />
    <path
        d="M368.828 615.446C368.581 616.156 371.384 617.256 373.646 617.32C374.019 617.331 370.906 617.453 371.228 617.819C372.127 618.846 373.801 620.051 376.527 620.585C379.137 621.098 383.864 621.168 384.896 617.208C385.984 613.035 382.931 608.07 381.088 607.947C380.794 609.237 380.7 611.371 380.243 611.736C379.616 612.235 377.785 611.594 375.251 611.604C372.282 611.616 369.572 612.147 370.356 613.289C370.626 613.682 377.795 614.272 377.81 614.54C377.858 615.404 369.316 614.047 368.828 615.446Z"
        fill="#FBC1A0" />
    <path
        d="M327.294 613.837C327.568 614.536 324.809 615.744 322.552 615.893C322.18 615.919 325.295 615.922 324.986 616.302C324.127 617.36 322.501 618.628 319.797 619.266C317.208 619.877 312.489 620.128 311.304 616.209C310.058 612.081 312.922 607.003 314.758 606.809C315.101 608.087 315.275 610.217 315.747 610.564C316.392 611.038 318.197 610.328 320.73 610.243C323.698 610.143 326.424 610.568 325.687 611.739C325.432 612.143 318.289 613.004 318.284 613.274C318.27 614.139 326.753 612.455 327.294 613.837Z"
        fill="#FBC1A0" />
    <path
        d="M362.716 561.189C361.558 565.085 356.978 568.349 351.341 567.873C345.703 567.398 341.044 563.284 341.003 559.358C340.944 553.554 346.448 558.37 352.109 558.575C357.762 558.781 364.465 555.306 362.716 561.189Z"
        fill="#6F1811" />
    <path
        d="M352.264 564.081C349.215 563.824 346.507 564.396 344.864 565.589C346.576 566.824 348.803 567.753 351.333 567.967C354.183 568.207 356.605 567.525 358.591 566.344C357.098 565.133 354.969 564.31 352.264 564.081Z"
        fill="#D56F5F" />
    <path
        d="M359.574 557.627C357.792 557.079 354.971 558.13 352.153 558.027C348.975 557.912 346.41 556.36 344.402 556.708C345.074 558.41 348.022 559.885 351.668 560.192C355.579 560.522 358.916 559.395 359.574 557.627Z"
        fill="white" />
    <path
        d="M65.8713 482.089C65.7697 482.114 65.6604 482.118 65.551 482.098C58.8206 480.927 53.3754 473.574 52.8832 464.995C52.8578 464.56 53.1957 464.187 53.6273 464.161C54.0629 464.138 54.4359 464.47 54.4613 464.906C54.9046 472.641 59.8929 479.51 65.8225 480.542C66.2522 480.616 66.5393 481.026 66.465 481.456C66.4084 481.776 66.1682 482.016 65.8713 482.089Z"
        fill="#663636" />
    <path
        d="M49.7878 463.467C49.5827 463.561 49.2487 463.411 48.7194 463.188C48.2624 462.999 47.5827 462.692 47.2273 462.766C46.8484 462.844 46.9675 463.231 47.405 463.614C48.1277 464.245 49.8073 465.62 50.6882 466.247C52.1257 467.403 54.2838 467.38 55.2721 466.104C56.7526 464.188 57.2018 463.35 58.065 462.139C58.2779 461.84 57.4303 461.637 56.9928 461.895C56.0573 462.452 56.0045 462.852 55.4967 463.098C55.0026 463.338 54.6979 462.975 54.5084 462.463C54.3073 459.785 54.487 458.242 53.7213 457.883C53.0456 457.678 52.9284 459.526 52.8952 461.621C52.0495 459.44 51.1901 457.748 50.655 458.014C50.0222 458.324 50.3698 460.196 51.1921 461.981C49.739 460.871 48.5495 459.586 47.9831 460.041C47.4734 460.448 50.364 463.204 49.7878 463.467Z"
        fill="#4AC6DE" />
    <path
        d="M103.376 474.376C103.079 474.449 102.755 474.343 102.559 474.085C102.296 473.738 102.366 473.242 102.716 472.978C107.518 469.356 108.825 460.967 105.692 453.882C105.514 453.484 105.694 453.015 106.095 452.839C106.489 452.662 106.96 452.843 107.136 453.244C110.612 461.098 109.12 470.126 103.665 474.242C103.577 474.308 103.477 474.353 103.376 474.376Z"
        fill="#663636" />
    <path
        d="M109.194 450.469C109.419 450.458 109.647 450.173 110.016 449.733C110.337 449.356 110.802 448.774 111.151 448.676C111.524 448.571 111.597 448.971 111.382 449.512C111.026 450.405 110.157 452.393 109.659 453.354C108.909 455.038 106.977 456.001 105.517 455.316C103.325 454.29 102.544 453.749 101.222 453.063C100.896 452.895 101.558 452.327 102.065 452.358C103.151 452.427 103.382 452.757 103.944 452.745C104.493 452.733 104.599 452.27 104.536 451.731C103.493 449.256 102.63 447.965 103.147 447.293C103.655 446.803 104.601 448.395 105.587 450.245C105.345 447.918 105.337 446.022 105.935 446.012C106.64 446 107.184 447.825 107.267 449.786C108.054 448.137 108.524 446.45 109.237 446.596C109.878 446.727 108.559 450.499 109.194 450.469Z"
        fill="#4AC6DE" />
    <path
        d="M101.368 532.609C101.157 532.658 100.926 532.625 100.735 532.492C94.8227 528.435 92.7954 523.37 94.8755 517.84C95.0278 517.432 95.4848 517.227 95.893 517.379C96.3012 517.534 96.5063 517.989 96.354 518.399C94.5337 523.235 96.3091 527.538 101.627 531.189C101.987 531.435 102.079 531.928 101.832 532.287C101.717 532.455 101.549 532.566 101.368 532.609Z"
        fill="#663636" />
    <path
        d="M99.1533 533.573C99.4521 533.047 100.966 530.16 101.255 529.555C102.253 530.037 104.003 530.9 105.028 531.518C103.085 536.26 101.362 539.052 101.214 538.979C100.487 538.622 98.5205 537.382 99.1533 533.573Z"
        fill="#4AC6DE" />
    <path
        d="M101.214 538.979C101.363 539.051 103.085 536.26 105.029 531.519C104.925 531.456 104.505 531.242 104.39 531.175C102.853 534.656 101.492 537.226 100.62 538.672C100.728 538.736 101.132 538.938 101.214 538.979ZM99.8568 531.984C98.9095 531.685 98.1107 533.039 98.5306 533.689C98.8255 534.142 99.0619 534.381 99.2689 534.443C99.8919 534.632 100.285 533.935 100.478 533.548C100.685 533.13 100.62 532.226 99.8568 531.984Z"
        fill="#1BA3C1" />
    <path
        d="M98.4742 533.75C98.7789 534.209 99.0211 534.451 99.2301 534.518C99.8649 534.715 100.255 534.02 100.445 533.631C100.65 533.215 100.574 532.303 99.7965 532.051C98.8336 531.736 98.0387 533.09 98.4742 533.75Z"
        fill="#4AC6DE" />
    <path
        d="M98.9673 535.843C99.0552 535.882 99.1606 535.841 99.1997 535.751C99.397 535.3 99.8071 535.12 100.114 535.053C100.168 535.04 100.211 535.003 100.233 534.958C100.25 534.923 100.256 534.884 100.247 534.841C100.227 534.747 100.131 534.686 100.038 534.708C99.4829 534.829 99.0845 535.139 98.8774 535.61C98.8384 535.7 98.8794 535.802 98.9673 535.843ZM99.0688 534.95C99.2407 534.6 99.6372 534.303 100.059 534.21C100.112 534.198 100.155 534.163 100.178 534.114C100.196 534.081 100.202 534.04 100.192 534.001C100.17 533.905 100.077 533.846 99.9829 533.866C99.4614 533.981 98.977 534.358 98.7524 534.796C98.7036 534.891 98.7446 534.989 98.8325 535.032C98.9204 535.075 99.0259 535.038 99.0688 534.95Z"
        fill="#E2E6EE" />
    <path
        d="M86.0043 537.224C85.7328 537.29 85.434 537.208 85.2309 536.987C80.4184 531.672 79.6196 526.277 82.9203 521.378C83.1645 521.015 83.6547 520.919 84.018 521.164C84.3793 521.408 84.475 521.898 84.2309 522.261C81.3403 526.547 82.0727 531.145 86.4047 535.927C86.6957 536.249 86.6722 536.749 86.348 537.042C86.2484 537.134 86.1273 537.194 86.0043 537.224Z"
        fill="#663636" />
    <path
        d="M83.1613 537.964C83.6066 537.552 85.921 535.255 86.378 534.766C87.1847 535.528 88.5929 536.878 89.3819 537.776C86.0987 541.71 83.6144 543.853 83.4953 543.738C82.9093 543.179 81.4113 541.404 83.1613 537.964Z"
        fill="#4AC6DE" />
    <path
        d="M83.4961 543.738C83.6153 543.853 86.0996 541.71 89.3828 537.776C89.3027 537.686 88.9687 537.354 88.8789 537.257C86.3633 540.112 84.2891 542.152 83.0215 543.267C83.1055 543.361 83.4297 543.677 83.4961 543.738ZM84.3125 536.661C83.5 536.089 82.3282 537.14 82.5352 537.886C82.6778 538.407 82.8321 538.704 83.0098 538.825C83.5469 539.194 84.1309 538.649 84.4317 538.337C84.7559 538.003 84.9668 537.12 84.3125 536.661Z"
        fill="#1BA3C1" />
    <path
        d="M82.4623 537.926C82.6127 538.455 82.7709 538.762 82.9506 538.887C83.4955 539.268 84.0775 538.721 84.3744 538.408C84.6986 538.072 84.8998 537.179 84.2357 536.705C83.4115 536.115 82.2455 537.166 82.4623 537.926Z"
        fill="#4AC6DE" />
    <path
        d="M82.2992 540.07C82.3734 540.134 82.4828 540.126 82.5492 540.054C82.8734 539.681 83.3187 539.634 83.6312 539.663C83.6859 539.667 83.7386 539.646 83.7738 539.609C83.8011 539.579 83.8187 539.542 83.8226 539.501C83.8304 539.406 83.7601 539.32 83.6625 539.31C83.098 539.261 82.6234 539.435 82.2836 539.822C82.2191 539.894 82.2269 540.005 82.2992 540.07ZM82.6644 539.249C82.934 538.97 83.4027 538.806 83.8324 538.843C83.8871 538.847 83.9398 538.825 83.975 538.79C84.0023 538.761 84.0199 538.726 84.0238 538.683C84.0316 538.585 83.9613 538.499 83.8636 538.491C83.3324 538.445 82.7582 538.657 82.4125 539.005C82.3344 539.083 82.3441 539.191 82.4164 539.257C82.4867 539.324 82.598 539.32 82.6644 539.249Z"
        fill="#E2E6EE" />
    <path
        d="M71.7011 526.517C70.6953 526.234 69.75 524.116 68.8652 520.165C67.9805 516.217 67.5391 513.783 67.5391 512.873C67.5371 506.394 69.1211 501.147 72.3437 497.127C75.5663 493.107 79.6112 489.371 84.4959 485.939C86.4763 484.548 87.2713 483.407 86.8767 482.511C86.4783 481.614 85.6795 481.067 84.4744 480.876C83.2694 480.684 82.0565 480.888 80.8358 481.485C79.6131 482.083 79.1639 483.159 79.4823 484.71C79.5682 485.294 79.4881 485.845 79.2167 486.345C78.6913 487.312 77.4296 488.004 75.4823 488.447C73.5351 488.888 71.5742 489.14 69.6035 489.201C68.2637 489.252 66.9903 489.201 65.7813 489.049C64.5743 488.9 63.4161 488.422 62.3106 487.613C61.0118 486.683 60.7247 484.534 61.4571 481.155C62.1856 477.782 62.9864 475.336 63.8672 473.828C66.668 469.033 70.6836 465.619 75.8691 463.568C81.0565 461.517 86.2517 461.159 91.4548 462.493C96.4001 463.784 100.568 466.82 103.957 471.602C107.345 476.381 108.302 481.378 106.83 486.587C105.564 491.058 102.99 494.445 99.1051 496.748C95.2204 499.051 92.4782 501.514 90.8747 504.136C94.1638 503.259 97.4508 502.356 100.728 501.427C104.007 500.497 106.197 499.967 107.298 499.841C108.326 499.647 109.373 500.243 110.437 501.626C111.501 503.011 112.41 504.648 113.154 506.536C113.9 508.425 114.41 510.308 114.683 512.187C114.958 514.066 114.81 515.397 114.267 516.199C113.958 516.655 111.734 517.471 107.574 518.641C103.416 519.809 98.8199 521.003 93.7907 522.218C88.7615 523.431 84.0369 524.489 79.621 525.39C75.205 526.29 72.5664 526.665 71.7011 526.517Z"
        fill="#4AC6DE" />
    <path
        d="M83.4408 470.916C82.4701 471.145 81.1088 470.537 80.2885 468.674C80.2201 468.516 80.2904 468.338 80.4447 468.27C80.6049 468.199 80.7826 468.272 80.849 468.426C81.5287 469.969 82.5639 470.492 83.2865 470.323C84.1146 470.127 84.6009 469.086 84.5423 467.615C84.5365 467.445 84.6615 467.301 84.8353 467.295C85.0052 467.289 85.1478 467.42 85.1556 467.588C85.2396 469.717 84.3295 470.705 83.4408 470.916Z"
        fill="#2C6878" />
    <path
        d="M65.5748 455.553C65.4908 455.575 65.4009 455.567 65.317 455.532C65.1099 455.442 65.0142 455.201 65.1041 454.994C65.6568 453.721 66.8931 452.602 68.4165 452.008C69.8111 451.465 71.2505 451.435 72.3657 451.928C72.5708 452.018 72.6645 452.26 72.5727 452.467C72.4809 452.672 72.2407 452.766 72.0337 452.674C71.1157 452.268 69.9048 452.305 68.7134 452.77C67.3892 453.287 66.3209 454.238 65.8541 455.319C65.8013 455.442 65.6959 455.524 65.5748 455.553Z"
        fill="#2C6878" />
    <path
        d="M79.2331 462.819C80.1003 466.413 77.8914 470.031 74.2957 470.9C70.7 471.767 67.0829 469.556 66.2138 465.96C65.3466 462.368 67.5575 458.746 71.1532 457.881C74.7488 457.012 78.366 459.223 79.2331 462.819Z"
        fill="white" />
    <path
        d="M71.2005 458.079C67.72 458.918 65.5736 462.432 66.4134 465.913C67.2533 469.392 70.7669 471.541 74.2473 470.701C77.7277 469.861 79.8742 466.345 79.0363 462.866C78.1945 459.385 74.6809 457.237 71.2005 458.079ZM74.343 471.097C70.6438 471.99 66.9095 469.709 66.0169 466.009C65.1244 462.309 67.4056 458.575 71.1048 457.682C74.8039 456.789 78.5402 459.071 79.4328 462.77C80.3254 466.47 78.0422 470.205 74.343 471.097Z"
        fill="#2C6878" />
    <path
        d="M72.0893 466.127C72.0346 466.14 71.9779 466.142 71.9194 466.13C71.6967 466.091 71.5502 465.879 71.5912 465.656C71.7865 464.583 72.5951 463.701 73.7045 463.349C74.7806 462.999 75.9369 463.269 76.7474 464.064C76.9095 464.222 76.9115 464.482 76.7533 464.642C76.5931 464.802 76.3353 464.806 76.1752 464.648C75.5775 464.06 74.765 463.857 73.9506 464.13C73.1322 464.386 72.5365 465.029 72.394 465.802C72.3647 465.966 72.2416 466.089 72.0893 466.127Z"
        fill="#1E444C" />
    <path
        d="M95.8612 458.5C96.7284 462.096 94.5194 465.714 90.9238 466.583C87.3281 467.45 83.711 465.239 82.8418 461.643C81.9746 458.049 84.1856 454.431 87.7812 453.562C91.3769 452.695 94.994 454.906 95.8612 458.5Z"
        fill="white" />
    <path
        d="M87.8285 453.762C84.3501 454.602 82.2017 458.116 83.0415 461.596C83.8813 465.075 87.3969 467.224 90.8754 466.384C94.3558 465.544 96.5023 462.028 95.6624 458.547C94.8226 455.069 91.309 452.92 87.8285 453.762ZM90.9711 466.781C87.2719 467.673 83.5376 465.39 82.645 461.692C81.7524 457.993 84.0356 454.256 87.7328 453.363C91.432 452.471 95.1663 454.754 96.0589 458.452C96.9534 462.153 94.6702 465.888 90.9711 466.781Z"
        fill="#2C6878" />
    <path
        d="M91.0033 461.455C90.851 461.492 90.683 461.437 90.5834 461.306C90.1049 460.681 89.2827 460.383 88.437 460.525C87.5971 460.66 86.9565 461.207 86.6928 462.004C86.6206 462.219 86.3901 462.332 86.1753 462.264C85.9604 462.191 85.8452 461.961 85.9155 461.746C86.2749 460.668 87.1694 459.908 88.3002 459.718C89.4448 459.527 90.5678 459.945 91.2319 460.808C91.3686 460.988 91.3354 461.246 91.1557 461.383C91.1088 461.418 91.058 461.441 91.0033 461.455Z"
        fill="#1E444C" />
    <path
        d="M99.0274 506.657C98.9004 506.128 98.3672 505.804 97.8399 505.933C97.3106 506.06 96.9864 506.591 97.1133 507.12C97.2403 507.65 97.7715 507.974 98.3008 507.845C98.8282 507.72 99.1543 507.187 99.0274 506.657Z"
        fill="#1BA3C1" />
    <path
        d="M97.0912 488.74C95.6342 489.789 94.1752 490.838 92.685 491.829C85.7417 496.432 77.7887 499.806 69.6521 501.626C69.3806 502.245 69.1345 502.882 68.9158 503.541C69.1013 503.505 69.2888 503.474 69.4724 503.433C78.1266 501.572 86.2554 498.149 93.6323 493.258C95.142 492.256 96.6186 491.196 98.0932 490.131C101.027 488.02 104.054 485.847 107.312 484.228C107.407 483.564 107.46 482.902 107.472 482.244C103.728 483.963 100.353 486.389 97.0912 488.74Z"
        fill="#1BA3C1" />
    <path
        d="M67.0454 476.219C66.6548 476.315 66.4146 476.709 66.5083 477.1C66.6021 477.491 66.9966 477.731 67.3892 477.639C67.7798 477.543 68.02 477.151 67.9263 476.756C67.8306 476.366 67.438 476.125 67.0454 476.219Z"
        fill="#1BA3C1" />
    <path
        d="M97.3423 513.126C98.0845 513.819 99.2505 513.782 99.9439 513.04C100.639 512.296 100.6 511.131 99.8579 510.436C99.1157 509.743 97.9517 509.78 97.2564 510.522C96.5611 511.266 96.6001 512.432 97.3423 513.126Z"
        fill="#1BA3C1" />
    <path
        d="M98.0948 477.154C98.6807 477.013 99.0421 476.421 98.9014 475.833C98.7589 475.245 98.169 474.886 97.5811 475.027C96.9952 475.167 96.6319 475.759 96.7745 476.347C96.9151 476.935 97.5069 477.294 98.0948 477.154Z"
        fill="#1BA3C1" />
    <path
        d="M78.3148 481.455C78.1527 480.783 77.4769 480.369 76.807 480.531C76.1351 480.694 75.7211 481.369 75.8832 482.041C76.0453 482.713 76.7211 483.125 77.3929 482.963C78.0648 482.801 78.4769 482.127 78.3148 481.455Z"
        fill="#1BA3C1" />
    <path
        d="M91.359 485.759C86.4607 489.486 80.617 492.496 74.6346 494.478C73.8963 495.277 73.1913 496.09 72.5214 496.914C79.5935 494.937 86.6306 491.515 92.3961 487.124L93.275 486.452C97.275 483.407 102.277 479.614 106.662 476.856C106.48 476.309 106.281 475.764 106.039 475.221C101.503 478.043 96.3473 481.958 92.234 485.089L91.359 485.759Z"
        fill="#1BA3C1" />
    <path
        d="M76.6191 517.778C76.8339 518.671 77.7324 519.22 78.6249 519.003C79.5175 518.79 80.0663 517.892 79.8515 516.999C79.6366 516.106 78.7363 515.556 77.8437 515.772C76.9531 515.987 76.4042 516.886 76.6191 517.778Z"
        fill="#1BA3C1" />
    <path
        d="M114.267 516.199C114.818 515.402 114.958 514.066 114.683 512.187C114.409 510.308 113.9 508.427 113.154 506.536C113.013 506.18 112.861 505.841 112.71 505.503C110.079 507.21 106.632 509.583 104.951 510.794C103.494 511.845 102.037 512.894 100.544 513.884C93.4469 518.59 85.2966 522.022 76.9705 523.811C74.7987 524.282 72.5643 524.645 70.3788 524.995C70.8085 525.868 71.2479 526.389 71.701 526.516C72.5663 526.665 75.2049 526.29 79.6209 525.389C84.0368 524.489 88.7614 523.43 93.7906 522.217C98.8198 521.002 103.415 519.811 107.574 518.641C111.734 517.471 113.962 516.656 114.267 516.199Z"
        fill="#1BA3C1" />
    <path
        d="M84.4801 507.898C84.6383 508.556 85.3004 508.96 85.9586 508.802C86.6168 508.642 87.0211 507.982 86.8609 507.323C86.7027 506.665 86.0406 506.261 85.3824 506.419C84.7242 506.577 84.3199 507.239 84.4801 507.898Z"
        fill="#1BA3C1" />
    <path
        d="M64.5945 481.102C64.8094 481.995 65.7078 482.544 66.6004 482.329C67.4929 482.114 68.0418 481.216 67.8269 480.323C67.6101 479.43 66.7117 478.88 65.8191 479.096C64.9266 479.311 64.3797 480.21 64.5945 481.102Z"
        fill="#1BA3C1" />
    <path
        d="M73.5319 507.985C81.3424 506.305 88.7192 503.34 95.5082 499.186C96.5746 498.354 97.768 497.541 99.1039 496.748C101.784 495.162 103.825 493.044 105.258 490.425C103.858 491.357 102.491 492.324 101.151 493.291C99.6937 494.341 98.2347 495.39 96.7426 496.381C89.647 501.084 81.4947 504.518 73.1686 506.307C71.4655 506.675 69.7273 506.971 68.0007 507.257C67.9011 507.839 67.8171 508.431 67.7527 509.036C69.6706 508.726 71.614 508.397 73.5319 507.985Z"
        fill="#1BA3C1" />
    <path
        d="M91.2922 513.095C91.3743 513.435 91.7141 513.642 92.0539 513.56C92.3918 513.478 92.5988 513.136 92.5168 512.8C92.4348 512.46 92.0949 512.251 91.7571 512.334C91.4172 512.416 91.2102 512.755 91.2922 513.095Z"
        fill="#1BA3C1" />
    <path
        d="M74.4229 545.972C74.8936 546.999 74.4405 548.214 73.4131 548.685C72.3858 549.156 71.169 548.703 70.6983 547.675C70.2296 546.646 70.6807 545.433 71.71 544.96C72.7373 544.489 73.9522 544.944 74.4229 545.972Z"
        fill="#FFC532" />
    <path
        d="M65.8713 482.089C65.7697 482.114 65.6604 482.118 65.551 482.098C58.8206 480.927 53.3754 473.574 52.8832 464.995C52.8578 464.56 53.1957 464.187 53.6273 464.161C54.0629 464.138 54.4359 464.47 54.4613 464.906C54.9046 472.641 59.8929 479.51 65.8225 480.542C66.2522 480.616 66.5393 481.026 66.465 481.456C66.4084 481.776 66.1682 482.016 65.8713 482.089Z"
        fill="#663636" />
    <path
        d="M49.7878 463.467C49.5827 463.561 49.2487 463.411 48.7194 463.188C48.2624 462.999 47.5827 462.692 47.2273 462.766C46.8484 462.844 46.9675 463.231 47.405 463.614C48.1277 464.245 49.8073 465.62 50.6882 466.247C52.1257 467.403 54.2838 467.38 55.2721 466.104C56.7526 464.188 57.2018 463.35 58.065 462.139C58.2779 461.84 57.4303 461.637 56.9928 461.895C56.0573 462.452 56.0045 462.852 55.4967 463.098C55.0026 463.338 54.6979 462.975 54.5084 462.463C54.3073 459.785 54.487 458.242 53.7213 457.883C53.0456 457.678 52.9284 459.526 52.8952 461.621C52.0495 459.44 51.1901 457.748 50.655 458.014C50.0222 458.324 50.3698 460.196 51.1921 461.981C49.739 460.871 48.5495 459.586 47.9831 460.041C47.4734 460.448 50.364 463.204 49.7878 463.467Z"
        fill="#4AC6DE" />
    <path
        d="M103.376 474.376C103.079 474.449 102.755 474.343 102.559 474.085C102.296 473.738 102.366 473.242 102.716 472.978C107.518 469.356 108.825 460.967 105.692 453.882C105.514 453.484 105.694 453.015 106.095 452.839C106.489 452.662 106.96 452.843 107.136 453.244C110.612 461.098 109.12 470.126 103.665 474.242C103.577 474.308 103.477 474.353 103.376 474.376Z"
        fill="#663636" />
    <path
        d="M109.194 450.469C109.419 450.458 109.647 450.173 110.016 449.733C110.337 449.356 110.802 448.774 111.151 448.676C111.524 448.571 111.597 448.971 111.382 449.512C111.026 450.405 110.157 452.393 109.659 453.354C108.909 455.038 106.977 456.001 105.517 455.316C103.325 454.29 102.544 453.749 101.222 453.063C100.896 452.895 101.558 452.327 102.065 452.358C103.151 452.427 103.382 452.757 103.944 452.745C104.493 452.733 104.599 452.27 104.536 451.731C103.493 449.256 102.63 447.965 103.147 447.293C103.655 446.803 104.601 448.395 105.587 450.245C105.345 447.918 105.337 446.022 105.935 446.012C106.64 446 107.184 447.825 107.267 449.786C108.054 448.137 108.524 446.45 109.237 446.596C109.878 446.727 108.559 450.499 109.194 450.469Z"
        fill="#4AC6DE" />
    <path
        d="M101.368 532.609C101.157 532.658 100.926 532.625 100.735 532.492C94.8227 528.435 92.7954 523.37 94.8755 517.84C95.0278 517.432 95.4848 517.227 95.893 517.379C96.3012 517.534 96.5063 517.989 96.354 518.399C94.5337 523.235 96.3091 527.538 101.627 531.189C101.987 531.435 102.079 531.928 101.832 532.287C101.717 532.455 101.549 532.566 101.368 532.609Z"
        fill="#663636" />
    <path
        d="M99.1533 533.573C99.4521 533.047 100.966 530.16 101.255 529.555C102.253 530.037 104.003 530.9 105.028 531.518C103.085 536.26 101.362 539.052 101.214 538.979C100.487 538.622 98.5205 537.382 99.1533 533.573Z"
        fill="#4AC6DE" />
    <path
        d="M101.214 538.979C101.363 539.051 103.085 536.26 105.029 531.519C104.925 531.456 104.505 531.242 104.39 531.175C102.853 534.656 101.492 537.226 100.62 538.672C100.728 538.736 101.132 538.938 101.214 538.979ZM99.8568 531.984C98.9095 531.685 98.1107 533.039 98.5306 533.689C98.8255 534.142 99.0619 534.381 99.2689 534.443C99.8919 534.632 100.285 533.935 100.478 533.548C100.685 533.13 100.62 532.226 99.8568 531.984Z"
        fill="#1BA3C1" />
    <path
        d="M98.4742 533.75C98.7789 534.209 99.0211 534.451 99.2301 534.518C99.8649 534.715 100.255 534.02 100.445 533.631C100.65 533.215 100.574 532.303 99.7965 532.051C98.8336 531.736 98.0387 533.09 98.4742 533.75Z"
        fill="#4AC6DE" />
    <path
        d="M98.9673 535.843C99.0552 535.882 99.1606 535.841 99.1997 535.751C99.397 535.3 99.8071 535.12 100.114 535.053C100.168 535.04 100.211 535.003 100.233 534.958C100.25 534.923 100.256 534.884 100.247 534.841C100.227 534.747 100.131 534.686 100.038 534.708C99.4829 534.829 99.0845 535.139 98.8774 535.61C98.8384 535.7 98.8794 535.802 98.9673 535.843ZM99.0688 534.95C99.2407 534.6 99.6372 534.303 100.059 534.21C100.112 534.198 100.155 534.163 100.178 534.114C100.196 534.081 100.202 534.04 100.192 534.001C100.17 533.905 100.077 533.846 99.9829 533.866C99.4614 533.981 98.977 534.358 98.7524 534.796C98.7036 534.891 98.7446 534.989 98.8325 535.032C98.9204 535.075 99.0259 535.038 99.0688 534.95Z"
        fill="#E2E6EE" />
    <path
        d="M86.0043 537.224C85.7328 537.29 85.434 537.208 85.2309 536.987C80.4184 531.672 79.6196 526.277 82.9203 521.378C83.1645 521.015 83.6547 520.919 84.018 521.164C84.3793 521.408 84.475 521.898 84.2309 522.261C81.3403 526.547 82.0727 531.145 86.4047 535.927C86.6957 536.249 86.6722 536.749 86.348 537.042C86.2484 537.134 86.1273 537.194 86.0043 537.224Z"
        fill="#663636" />
    <path
        d="M83.1613 537.964C83.6066 537.552 85.921 535.255 86.378 534.766C87.1847 535.528 88.5929 536.878 89.3819 537.776C86.0987 541.71 83.6144 543.853 83.4953 543.738C82.9093 543.179 81.4113 541.404 83.1613 537.964Z"
        fill="#4AC6DE" />
    <path
        d="M83.4961 543.738C83.6153 543.853 86.0996 541.71 89.3828 537.776C89.3027 537.686 88.9687 537.354 88.8789 537.257C86.3633 540.112 84.2891 542.152 83.0215 543.267C83.1055 543.361 83.4297 543.677 83.4961 543.738ZM84.3125 536.661C83.5 536.089 82.3282 537.14 82.5352 537.886C82.6778 538.407 82.8321 538.704 83.0098 538.825C83.5469 539.194 84.1309 538.649 84.4317 538.337C84.7559 538.003 84.9668 537.12 84.3125 536.661Z"
        fill="#1BA3C1" />
    <path
        d="M82.4623 537.926C82.6127 538.455 82.7709 538.762 82.9506 538.887C83.4955 539.268 84.0775 538.721 84.3744 538.408C84.6986 538.072 84.8998 537.179 84.2357 536.705C83.4115 536.115 82.2455 537.166 82.4623 537.926Z"
        fill="#4AC6DE" />
    <path
        d="M82.2992 540.07C82.3734 540.134 82.4828 540.126 82.5492 540.054C82.8734 539.681 83.3187 539.634 83.6312 539.663C83.6859 539.667 83.7386 539.646 83.7738 539.609C83.8011 539.579 83.8187 539.542 83.8226 539.501C83.8304 539.406 83.7601 539.32 83.6625 539.31C83.098 539.261 82.6234 539.435 82.2836 539.822C82.2191 539.894 82.2269 540.005 82.2992 540.07ZM82.6644 539.249C82.934 538.97 83.4027 538.806 83.8324 538.843C83.8871 538.847 83.9398 538.825 83.975 538.79C84.0023 538.761 84.0199 538.726 84.0238 538.683C84.0316 538.585 83.9613 538.499 83.8636 538.491C83.3324 538.445 82.7582 538.657 82.4125 539.005C82.3344 539.083 82.3441 539.191 82.4164 539.257C82.4867 539.324 82.598 539.32 82.6644 539.249Z"
        fill="#E2E6EE" />
    <path
        d="M71.7011 526.517C70.6953 526.234 69.75 524.116 68.8652 520.165C67.9805 516.217 67.5391 513.783 67.5391 512.873C67.5371 506.394 69.1211 501.147 72.3437 497.127C75.5663 493.107 79.6112 489.371 84.4959 485.939C86.4763 484.548 87.2713 483.407 86.8767 482.511C86.4783 481.614 85.6795 481.067 84.4744 480.876C83.2694 480.684 82.0565 480.888 80.8358 481.485C79.6131 482.083 79.1639 483.159 79.4823 484.71C79.5682 485.294 79.4881 485.845 79.2167 486.345C78.6913 487.312 77.4296 488.004 75.4823 488.447C73.5351 488.888 71.5742 489.14 69.6035 489.201C68.2637 489.252 66.9903 489.201 65.7813 489.049C64.5743 488.9 63.4161 488.422 62.3106 487.613C61.0118 486.683 60.7247 484.534 61.4571 481.155C62.1856 477.782 62.9864 475.336 63.8672 473.828C66.668 469.033 70.6836 465.619 75.8691 463.568C81.0565 461.517 86.2517 461.159 91.4548 462.493C96.4001 463.784 100.568 466.82 103.957 471.602C107.345 476.381 108.302 481.378 106.83 486.587C105.564 491.058 102.99 494.445 99.1051 496.748C95.2204 499.051 92.4782 501.514 90.8747 504.136C94.1638 503.259 97.4508 502.356 100.728 501.427C104.007 500.497 106.197 499.967 107.298 499.841C108.326 499.647 109.373 500.243 110.437 501.626C111.501 503.011 112.41 504.648 113.154 506.536C113.9 508.425 114.41 510.308 114.683 512.187C114.958 514.066 114.81 515.397 114.267 516.199C113.958 516.655 111.734 517.471 107.574 518.641C103.416 519.809 98.8199 521.003 93.7907 522.218C88.7615 523.431 84.0369 524.489 79.621 525.39C75.205 526.29 72.5664 526.665 71.7011 526.517Z"
        fill="#4AC6DE" />
    <path
        d="M83.4408 470.916C82.4701 471.145 81.1088 470.537 80.2885 468.674C80.2201 468.516 80.2904 468.338 80.4447 468.27C80.6049 468.199 80.7826 468.272 80.849 468.426C81.5287 469.969 82.5639 470.492 83.2865 470.323C84.1146 470.127 84.6009 469.086 84.5423 467.615C84.5365 467.445 84.6615 467.301 84.8353 467.295C85.0052 467.289 85.1478 467.42 85.1556 467.588C85.2396 469.717 84.3295 470.705 83.4408 470.916Z"
        fill="#2C6878" />
    <path
        d="M65.5748 455.553C65.4908 455.575 65.4009 455.567 65.317 455.532C65.1099 455.442 65.0142 455.201 65.1041 454.994C65.6568 453.721 66.8931 452.602 68.4165 452.008C69.8111 451.465 71.2505 451.435 72.3657 451.928C72.5708 452.018 72.6645 452.26 72.5727 452.467C72.4809 452.672 72.2407 452.766 72.0337 452.674C71.1157 452.268 69.9048 452.305 68.7134 452.77C67.3892 453.287 66.3209 454.238 65.8541 455.319C65.8013 455.442 65.6959 455.524 65.5748 455.553Z"
        fill="#2C6878" />
    <path
        d="M82.7285 449.975C82.6445 449.996 82.5546 449.988 82.4707 449.953C82.2636 449.863 82.1679 449.623 82.2578 449.416C82.8105 448.142 84.0468 447.023 85.5702 446.429C86.9647 445.886 88.4042 445.857 89.5194 446.349C89.7245 446.439 89.8182 446.681 89.7264 446.888C89.6346 447.094 89.3944 447.187 89.1874 447.095C88.2694 446.689 87.0585 446.726 85.8671 447.191C84.5429 447.709 83.4745 448.66 83.0078 449.74C82.955 449.863 82.8496 449.945 82.7285 449.975Z"
        fill="#2C6878" />
    <path
        d="M79.2331 462.819C80.1003 466.413 77.8914 470.031 74.2957 470.9C70.7 471.767 67.0829 469.556 66.2138 465.96C65.3466 462.368 67.5575 458.746 71.1532 457.881C74.7488 457.012 78.366 459.223 79.2331 462.819Z"
        fill="white" />
    <path
        d="M71.2005 458.079C67.72 458.918 65.5736 462.432 66.4134 465.913C67.2533 469.392 70.7669 471.541 74.2473 470.701C77.7277 469.861 79.8742 466.345 79.0363 462.866C78.1945 459.385 74.6809 457.237 71.2005 458.079ZM74.343 471.097C70.6438 471.99 66.9095 469.709 66.0169 466.009C65.1244 462.309 67.4056 458.575 71.1048 457.682C74.8039 456.789 78.5402 459.071 79.4328 462.77C80.3254 466.47 78.0422 470.205 74.343 471.097Z"
        fill="#2C6878" />
    <path
        d="M72.0893 466.127C72.0346 466.14 71.9779 466.142 71.9194 466.13C71.6967 466.091 71.5502 465.879 71.5912 465.656C71.7865 464.583 72.5951 463.701 73.7045 463.349C74.7806 462.999 75.9369 463.269 76.7474 464.064C76.9095 464.222 76.9115 464.482 76.7533 464.642C76.5931 464.802 76.3353 464.806 76.1752 464.648C75.5775 464.06 74.765 463.857 73.9506 464.13C73.1322 464.386 72.5365 465.029 72.394 465.802C72.3647 465.966 72.2416 466.089 72.0893 466.127Z"
        fill="#1E444C" />
    <path
        d="M95.8612 458.5C96.7284 462.096 94.5194 465.714 90.9238 466.583C87.3281 467.45 83.711 465.239 82.8418 461.643C81.9746 458.049 84.1856 454.431 87.7812 453.562C91.3769 452.695 94.994 454.906 95.8612 458.5Z"
        fill="white" />
    <path
        d="M87.8285 453.762C84.3501 454.602 82.2017 458.116 83.0415 461.596C83.8813 465.075 87.3969 467.224 90.8754 466.384C94.3558 465.544 96.5023 462.028 95.6624 458.547C94.8226 455.069 91.309 452.92 87.8285 453.762ZM90.9711 466.781C87.2719 467.673 83.5376 465.39 82.645 461.692C81.7524 457.993 84.0356 454.256 87.7328 453.363C91.432 452.471 95.1663 454.754 96.0589 458.452C96.9534 462.153 94.6702 465.888 90.9711 466.781Z"
        fill="#2C6878" />
    <path
        d="M91.0033 461.455C90.851 461.492 90.683 461.437 90.5834 461.306C90.1049 460.681 89.2827 460.383 88.437 460.525C87.5971 460.66 86.9565 461.207 86.6928 462.004C86.6206 462.219 86.3901 462.332 86.1753 462.264C85.9604 462.191 85.8452 461.961 85.9155 461.746C86.2749 460.668 87.1694 459.908 88.3002 459.718C89.4448 459.527 90.5678 459.945 91.2319 460.808C91.3686 460.988 91.3354 461.246 91.1557 461.383C91.1088 461.418 91.058 461.441 91.0033 461.455Z"
        fill="#1E444C" />
    <path
        d="M99.0274 506.657C98.9004 506.128 98.3672 505.804 97.8399 505.933C97.3106 506.06 96.9864 506.591 97.1133 507.12C97.2403 507.65 97.7715 507.974 98.3008 507.845C98.8282 507.72 99.1543 507.187 99.0274 506.657Z"
        fill="#1BA3C1" />
    <path
        d="M97.0912 488.74C95.6342 489.789 94.1752 490.838 92.685 491.829C85.7417 496.432 77.7887 499.806 69.6521 501.626C69.3806 502.245 69.1345 502.882 68.9158 503.541C69.1013 503.505 69.2888 503.474 69.4724 503.433C78.1266 501.572 86.2554 498.149 93.6323 493.258C95.142 492.256 96.6186 491.196 98.0932 490.131C101.027 488.02 104.054 485.847 107.312 484.228C107.407 483.564 107.46 482.902 107.472 482.244C103.728 483.963 100.353 486.389 97.0912 488.74Z"
        fill="#1BA3C1" />
    <path
        d="M67.0454 476.219C66.6548 476.315 66.4146 476.709 66.5083 477.1C66.6021 477.491 66.9966 477.731 67.3892 477.639C67.7798 477.543 68.02 477.151 67.9263 476.756C67.8306 476.366 67.438 476.125 67.0454 476.219Z"
        fill="#1BA3C1" />
    <path
        d="M97.3423 513.126C98.0845 513.819 99.2505 513.782 99.9439 513.04C100.639 512.296 100.6 511.131 99.8579 510.436C99.1157 509.743 97.9517 509.78 97.2564 510.522C96.5611 511.266 96.6001 512.432 97.3423 513.126Z"
        fill="#1BA3C1" />
    <path
        d="M98.0948 477.154C98.6807 477.013 99.0421 476.421 98.9014 475.833C98.7589 475.245 98.169 474.886 97.5811 475.027C96.9952 475.167 96.6319 475.759 96.7745 476.347C96.9151 476.935 97.5069 477.294 98.0948 477.154Z"
        fill="#1BA3C1" />
    <path
        d="M78.3148 481.455C78.1527 480.783 77.4769 480.369 76.807 480.531C76.1351 480.694 75.7211 481.369 75.8832 482.041C76.0453 482.713 76.7211 483.125 77.3929 482.963C78.0648 482.801 78.4769 482.127 78.3148 481.455Z"
        fill="#1BA3C1" />
    <path
        d="M91.359 485.759C86.4607 489.486 80.617 492.496 74.6346 494.478C73.8963 495.277 73.1913 496.09 72.5214 496.914C79.5935 494.937 86.6306 491.515 92.3961 487.124L93.275 486.452C97.275 483.407 102.277 479.614 106.662 476.856C106.48 476.309 106.281 475.764 106.039 475.221C101.503 478.043 96.3473 481.958 92.234 485.089L91.359 485.759Z"
        fill="#1BA3C1" />
    <path
        d="M76.6191 517.778C76.8339 518.671 77.7324 519.22 78.6249 519.003C79.5175 518.79 80.0663 517.892 79.8515 516.999C79.6366 516.106 78.7363 515.556 77.8437 515.772C76.9531 515.987 76.4042 516.886 76.6191 517.778Z"
        fill="#1BA3C1" />
    <path
        d="M114.267 516.199C114.818 515.402 114.958 514.066 114.683 512.187C114.409 510.308 113.9 508.427 113.154 506.536C113.013 506.18 112.861 505.841 112.71 505.503C110.079 507.21 106.632 509.583 104.951 510.794C103.494 511.845 102.037 512.894 100.544 513.884C93.4469 518.59 85.2966 522.022 76.9705 523.811C74.7987 524.282 72.5643 524.645 70.3788 524.995C70.8085 525.868 71.2479 526.389 71.701 526.516C72.5663 526.665 75.2049 526.29 79.6209 525.389C84.0368 524.489 88.7614 523.43 93.7906 522.217C98.8198 521.002 103.415 519.811 107.574 518.641C111.734 517.471 113.962 516.656 114.267 516.199Z"
        fill="#1BA3C1" />
    <path
        d="M84.4801 507.898C84.6383 508.556 85.3004 508.96 85.9586 508.802C86.6168 508.642 87.0211 507.982 86.8609 507.323C86.7027 506.665 86.0406 506.261 85.3824 506.419C84.7242 506.577 84.3199 507.239 84.4801 507.898Z"
        fill="#1BA3C1" />
    <path
        d="M64.5945 481.102C64.8094 481.995 65.7078 482.544 66.6004 482.329C67.4929 482.114 68.0418 481.216 67.8269 480.323C67.6101 479.43 66.7117 478.88 65.8191 479.096C64.9266 479.311 64.3797 480.21 64.5945 481.102Z"
        fill="#1BA3C1" />
    <path
        d="M73.5319 507.985C81.3424 506.305 88.7192 503.34 95.5082 499.186C96.5746 498.354 97.768 497.541 99.1039 496.748C101.784 495.162 103.825 493.044 105.258 490.425C103.858 491.357 102.491 492.324 101.151 493.291C99.6937 494.341 98.2347 495.39 96.7426 496.381C89.647 501.084 81.4947 504.518 73.1686 506.307C71.4655 506.675 69.7273 506.971 68.0007 507.257C67.9011 507.839 67.8171 508.431 67.7527 509.036C69.6706 508.726 71.614 508.397 73.5319 507.985Z"
        fill="#1BA3C1" />
    <path
        d="M91.2922 513.095C91.3743 513.435 91.7141 513.642 92.0539 513.56C92.3918 513.478 92.5988 513.136 92.5168 512.8C92.4348 512.46 92.0949 512.251 91.7571 512.334C91.4172 512.416 91.2102 512.755 91.2922 513.095Z"
        fill="#1BA3C1" />
</svg>
