<svg width="28" height="26" viewBox="0 0 28 26" fill="none" xmlns="http://www.w3.org/2000/svg">
<path fill-rule="evenodd" clip-rule="evenodd" d="M22.386 0.316001C22.3765 0.331401 22.3253 0.344001 22.2723 0.344001C22.2193 0.344001 22.176 0.356601 22.176 0.372001C22.176 0.387401 22.1256 0.400001 22.064 0.400001C22.0024 0.400001 21.952 0.412601 21.952 0.428001C21.952 0.443401 21.9087 0.456001 21.8557 0.456001C21.8027 0.456001 21.7515 0.468601 21.742 0.484001C21.7325 0.499401 21.6813 0.512001 21.6283 0.512001C21.5753 0.512001 21.532 0.524601 21.532 0.540001C21.532 0.555401 21.4816 0.568001 21.42 0.568001C21.3584 0.568001 21.308 0.580601 21.308 0.596001C21.308 0.611401 21.2702 0.624001 21.224 0.624001C21.1778 0.624001 21.14 0.636601 21.14 0.652001C21.14 0.667401 21.0896 0.680001 21.028 0.680001C20.9664 0.680001 20.916 0.692601 20.916 0.708001C20.916 0.723401 20.875 0.736281 20.825 0.736701C20.775 0.737051 20.6836 0.750491 20.622 0.766521C20.5604 0.782621 20.4627 0.807471 20.405 0.821891C20.3472 0.836241 20.2464 0.861511 20.181 0.878031C20.1155 0.894551 20.0209 0.914851 19.9707 0.923111C19.9205 0.931441 19.8726 0.949431 19.8641 0.963081C19.8556 0.976801 19.8053 0.988001 19.7523 0.988001C19.6993 0.988001 19.656 1.0006 19.656 1.016C19.656 1.0314 19.6127 1.044 19.5597 1.044C19.5067 1.044 19.4555 1.0566 19.446 1.072C19.4365 1.0874 19.3853 1.1 19.3323 1.1C19.2793 1.1 19.236 1.1126 19.236 1.128C19.236 1.1434 19.1856 1.156 19.124 1.156C19.0624 1.156 19.012 1.1686 19.012 1.184C19.012 1.1994 18.9687 1.212 18.9157 1.212C18.8627 1.212 18.8115 1.2246 18.802 1.24C18.7925 1.2554 18.7484 1.268 18.704 1.268C18.6596 1.268 18.6155 1.2806 18.606 1.296C18.5965 1.3114 18.5453 1.324 18.4923 1.324C18.4393 1.324 18.396 1.3366 18.396 1.352C18.396 1.3674 18.3527 1.38 18.2997 1.38C18.2467 1.38 18.1955 1.3926 18.186 1.408C18.1765 1.4234 18.1253 1.436 18.0723 1.436C18.0193 1.436 17.976 1.4486 17.976 1.464C17.976 1.4794 17.9256 1.492 17.864 1.492C17.8024 1.492 17.752 1.5046 17.752 1.52C17.752 1.5354 17.7016 1.548 17.64 1.548C17.5784 1.548 17.528 1.5606 17.528 1.576C17.528 1.5914 17.4839 1.604 17.43 1.604C17.3761 1.604 17.332 1.6166 17.332 1.632C17.332 1.6474 17.2879 1.66 17.234 1.66C17.1801 1.66 17.136 1.6726 17.136 1.688C17.136 1.7034 17.0919 1.716 17.038 1.716C16.9841 1.716 16.94 1.7286 16.94 1.744C16.94 1.7594 16.9022 1.772 16.856 1.772C16.8098 1.772 16.772 1.7846 16.772 1.8C16.772 1.8154 16.7522 1.828 16.728 1.828C16.6714 1.828 16.604 1.89541 16.604 1.95197C16.604 1.97619 16.5914 1.996 16.576 1.996C16.5598 1.996 16.548 2.08469 16.548 2.206C16.548 2.32731 16.5598 2.416 16.576 2.416C16.5914 2.416 16.604 2.43581 16.604 2.46003C16.604 2.50658 16.6683 2.584 16.707 2.584C16.7196 2.58407 16.7678 2.61662 16.814 2.65645C16.8602 2.69628 16.9326 2.74941 16.975 2.77447C17.0173 2.79953 17.052 2.82998 17.052 2.84202C17.052 2.85413 17.0709 2.864 17.094 2.864C17.1171 2.864 17.136 2.8745 17.136 2.88724C17.136 2.90005 17.1707 2.92812 17.213 2.94954C17.2554 2.97103 17.3256 3.01723 17.3692 3.0523C17.4127 3.0873 17.4635 3.116 17.4819 3.116C17.5005 3.116 17.5338 3.1412 17.556 3.172C17.5782 3.2028 17.616 3.228 17.64 3.228C17.664 3.228 17.7018 3.2532 17.724 3.284C17.7462 3.3148 17.784 3.34 17.808 3.34C17.832 3.34 17.8698 3.3652 17.892 3.396C17.9142 3.4268 17.9453 3.45242 17.9612 3.45291C18.055 3.45578 18.0988 3.53404 18.0368 3.58787C18.0034 3.61685 17.976 3.65836 17.976 3.68013C17.976 3.70183 17.9508 3.73781 17.92 3.76C17.8892 3.78219 17.864 3.81775 17.864 3.83896C17.864 3.86017 17.8262 3.91281 17.78 3.956C17.7338 3.99919 17.696 4.04959 17.696 4.068C17.696 4.08641 17.6582 4.13681 17.612 4.18C17.5658 4.22319 17.528 4.26596 17.528 4.2752C17.528 4.28437 17.4776 4.34541 17.416 4.41079C17.3544 4.47617 17.304 4.53917 17.304 4.55079C17.304 4.56241 17.2559 4.62149 17.1971 4.68204C17.1384 4.74259 17.0533 4.84626 17.0081 4.91234C16.963 4.97842 16.8 5.16063 16.646 5.31729C16.492 5.47388 16.2931 5.6801 16.2039 5.77551L16.0418 5.94904L16.0499 6.17458C16.0559 6.34132 16.0689 6.40544 16.1 6.42056C16.1231 6.43183 16.1941 6.46781 16.2578 6.5005C16.5421 6.64659 16.6754 6.58198 17.15 6.06769C17.3194 5.88415 17.4769 5.7151 17.5 5.692C17.6617 5.5303 17.9875 5.13263 18.3142 4.698C18.4532 4.5132 18.582 4.34233 18.6004 4.31832C18.7195 4.16355 18.9534 3.79024 19.0503 3.6004C19.0754 3.55112 19.096 3.44808 19.096 3.37136C19.096 3.18236 19.0399 3.12328 18.5359 2.78175C17.9848 2.40823 17.942 2.36196 18.116 2.32759C18.1699 2.31695 18.2644 2.29385 18.326 2.27628C18.3876 2.25864 18.4821 2.23351 18.536 2.22035C18.5899 2.20719 18.7285 2.17121 18.844 2.14048C18.9595 2.10968 19.2537 2.03296 19.4979 1.97003C19.742 1.9071 20.1137 1.81064 20.3239 1.75569C20.534 1.70081 20.895 1.60715 21.126 1.54758C21.357 1.48808 21.6705 1.40709 21.8226 1.36768C22.244 1.25848 22.2087 1.22551 22.262 1.77809C22.3024 2.1983 22.3837 3.01429 22.4272 3.438C22.4431 3.592 22.4696 3.8566 22.4861 4.026C22.5027 4.1954 22.5269 4.4348 22.54 4.558C22.5531 4.6812 22.5772 4.93068 22.5937 5.1124C22.6101 5.29412 22.6311 5.47227 22.6401 5.50832C22.6691 5.6241 22.6092 5.60989 22.3691 5.44399C22.2398 5.35467 22.0137 5.19857 21.8668 5.09714C21.3895 4.76765 21.2658 4.79929 20.8545 5.356C20.3181 6.08183 19.3817 7.12098 18.6591 7.792C18.2661 8.15705 17.8749 8.50215 17.7085 8.63053C17.6576 8.6698 17.4544 8.82877 17.257 8.98368C16.0656 9.9186 14.3673 10.9347 13.048 11.5018C12.9325 11.5514 12.7813 11.6179 12.712 11.6495C12.5588 11.7193 11.8852 11.99 11.788 12.0208C11.7495 12.033 11.6109 12.0828 11.48 12.1314C10.6922 12.4243 9.37531 12.8095 8.61 12.971C8.5176 12.9905 8.4042 13.0162 8.358 13.028C8.3118 13.0398 8.1984 13.0646 8.106 13.0831C8.0136 13.1015 7.8876 13.1273 7.826 13.1404C7.7644 13.1535 7.6321 13.1786 7.532 13.1961C7.4319 13.2136 7.3248 13.234 7.294 13.2414C7.2632 13.2489 7.1624 13.2663 7.07 13.2802C6.9776 13.2941 6.8201 13.3188 6.72 13.335C6.04254 13.4448 5.02369 13.5573 4.62 13.567L4.326 13.574V13.4924C4.326 13.4114 4.32957 13.4096 4.802 13.2592C5.0638 13.1758 5.3032 13.0966 5.334 13.083C5.3648 13.0694 5.4845 13.0271 5.6 12.9889C5.78746 12.927 5.943 12.8713 6.426 12.6932C7.14574 12.4278 7.56196 12.2635 8.00072 12.0719C8.06596 12.0433 8.12553 12.02 8.13302 12.02C8.14051 12.02 8.22913 11.9822 8.33 11.936C8.43087 11.8898 8.51879 11.852 8.52544 11.852C8.53209 11.852 8.61679 11.8155 8.71374 11.7707C8.81069 11.726 8.9971 11.6411 9.128 11.5819C9.52252 11.4037 10.7833 10.7714 11.1215 10.5823C11.2956 10.485 11.5073 10.3667 11.592 10.3196C12.7115 9.69635 14.2943 8.6138 15.2773 7.79886C15.679 7.46587 15.7545 7.32377 15.638 7.12C15.616 7.0815 15.5975 7.01745 15.597 6.97776C15.5963 6.9268 15.5732 6.89481 15.519 6.86947C15.4767 6.84966 15.4201 6.82236 15.3933 6.80871C15.3273 6.77511 15.176 6.77735 15.176 6.812C15.176 6.8274 15.141 6.84 15.0982 6.84C15.0525 6.84 15.0037 6.8631 14.98 6.896C14.9578 6.9268 14.9289 6.952 14.9158 6.952C14.9027 6.952 14.8753 6.96775 14.8551 6.987C14.8347 7.00625 14.7647 7.0661 14.6994 7.12C14.6342 7.1739 14.5387 7.25895 14.4873 7.309C14.4359 7.35905 14.3823 7.4 14.3683 7.4C14.3543 7.4 14.2908 7.4504 14.2274 7.512C14.1639 7.5736 14.0976 7.624 14.0802 7.624C14.0629 7.624 14.0282 7.64661 14.0033 7.67419C13.9784 7.70184 13.8982 7.76169 13.8251 7.80719C13.7519 7.85276 13.6921 7.89945 13.6921 7.911C13.692 7.92255 13.6763 7.93207 13.657 7.93214C13.6378 7.93221 13.5818 7.97001 13.5325 8.01614C13.4833 8.06227 13.4325 8.1 13.4197 8.1C13.4069 8.1 13.3782 8.1252 13.356 8.156C13.3338 8.1868 13.296 8.212 13.272 8.212C13.248 8.212 13.2102 8.2372 13.188 8.268C13.1658 8.2988 13.128 8.324 13.104 8.324C13.08 8.324 13.0422 8.3492 13.02 8.38C12.9978 8.4108 12.9667 8.436 12.9508 8.43607C12.9349 8.43607 12.8779 8.47387 12.824 8.52C12.7701 8.56613 12.7102 8.60393 12.691 8.60393C12.6718 8.604 12.656 8.6166 12.656 8.632C12.656 8.6474 12.6371 8.66 12.614 8.66C12.5909 8.66 12.572 8.6726 12.572 8.688C12.572 8.7034 12.5531 8.716 12.53 8.716C12.5069 8.716 12.488 8.7286 12.488 8.744C12.488 8.7594 12.4691 8.772 12.446 8.772C12.4229 8.772 12.404 8.7846 12.404 8.8C12.404 8.8154 12.3851 8.828 12.362 8.828C12.3389 8.828 12.32 8.8406 12.32 8.856C12.32 8.8714 12.3011 8.884 12.278 8.884C12.2549 8.884 12.236 8.89345 12.2359 8.905C12.2359 8.91655 12.1603 8.96282 12.0679 9.0079C11.9756 9.05291 11.9 9.10016 11.9 9.1129C11.9 9.12557 11.8805 9.136 11.8568 9.136C11.8331 9.136 11.7866 9.1612 11.7536 9.192C11.7205 9.2228 11.6769 9.248 11.6567 9.248C11.6365 9.248 11.62 9.2606 11.62 9.276C11.62 9.2914 11.6005 9.304 11.5768 9.304C11.5531 9.304 11.5066 9.3292 11.4736 9.36C11.4405 9.3908 11.3969 9.416 11.3767 9.416C11.3565 9.416 11.34 9.42622 11.34 9.43875C11.34 9.45128 11.2959 9.47886 11.242 9.5C11.1881 9.52114 11.144 9.54872 11.144 9.56125C11.144 9.57378 11.1275 9.584 11.1073 9.584C11.0871 9.584 11.0435 9.6092 11.0104 9.64C10.9774 9.6708 10.9309 9.696 10.9072 9.696C10.8835 9.696 10.864 9.7086 10.864 9.724C10.864 9.7394 10.8388 9.752 10.808 9.752C10.7772 9.752 10.752 9.7646 10.752 9.78C10.752 9.7954 10.7278 9.808 10.6983 9.808C10.6688 9.808 10.6405 9.81745 10.6353 9.829C10.6236 9.85532 10.4745 9.94625 10.409 9.96697C10.382 9.97551 10.36 9.99364 10.36 10.0073C10.36 10.0209 10.3348 10.032 10.304 10.032C10.2732 10.032 10.248 10.0446 10.248 10.06C10.248 10.0754 10.2295 10.088 10.207 10.088C10.1563 10.088 9.95743 10.1782 9.94469 10.207C9.93951 10.2186 9.91116 10.228 9.88169 10.228C9.85215 10.228 9.828 10.2406 9.828 10.256C9.828 10.2714 9.8028 10.284 9.772 10.284C9.7412 10.284 9.716 10.2966 9.716 10.312C9.716 10.3274 9.6908 10.34 9.66 10.34C9.6292 10.34 9.604 10.3526 9.604 10.368C9.604 10.3834 9.5788 10.396 9.548 10.396C9.5172 10.396 9.492 10.4086 9.492 10.424C9.492 10.4394 9.4668 10.452 9.436 10.452C9.4052 10.452 9.38 10.4646 9.38 10.48C9.38 10.4954 9.3548 10.508 9.324 10.508C9.2932 10.508 9.268 10.5206 9.268 10.536C9.268 10.5514 9.2428 10.564 9.212 10.564C9.1812 10.564 9.156 10.5766 9.156 10.592C9.156 10.6074 9.1308 10.62 9.1 10.62C9.0692 10.62 9.044 10.6326 9.044 10.648C9.044 10.6634 9.0188 10.676 8.988 10.676C8.9572 10.676 8.932 10.6886 8.932 10.704C8.932 10.7194 8.90757 10.732 8.87768 10.732C8.84779 10.732 8.81552 10.7446 8.806 10.76C8.79648 10.7754 8.76421 10.788 8.73432 10.788C8.70443 10.788 8.68 10.8006 8.68 10.816C8.68 10.8314 8.6548 10.844 8.624 10.844C8.5932 10.844 8.568 10.8566 8.568 10.872C8.568 10.8874 8.5428 10.9 8.512 10.9C8.4812 10.9 8.456 10.9126 8.456 10.928C8.456 10.9434 8.4308 10.956 8.4 10.956C8.3692 10.956 8.344 10.9686 8.344 10.984C8.344 10.9994 8.3062 11.012 8.26 11.012C8.2138 11.012 8.176 11.0246 8.176 11.04C8.176 11.0554 8.1508 11.068 8.12 11.068C8.0892 11.068 8.064 11.0806 8.064 11.096C8.064 11.1114 8.0388 11.124 8.008 11.124C7.9772 11.124 7.952 11.1366 7.952 11.152C7.952 11.1674 7.9205 11.18 7.882 11.18C7.8435 11.18 7.812 11.1926 7.812 11.208C7.812 11.2234 7.7833 11.236 7.74823 11.236C7.71316 11.236 7.65961 11.2529 7.62923 11.2736C7.59885 11.2943 7.51415 11.3285 7.441 11.3498C7.36785 11.3709 7.308 11.3958 7.308 11.4051C7.308 11.4143 7.245 11.439 7.168 11.46C7.091 11.481 7.028 11.5084 7.028 11.521C7.028 11.5337 6.99727 11.544 6.95968 11.544C6.92209 11.544 6.88352 11.5566 6.874 11.572C6.86448 11.5874 6.83221 11.6 6.80232 11.6C6.77243 11.6 6.748 11.6126 6.748 11.628C6.748 11.6434 6.72266 11.656 6.69165 11.656C6.66064 11.656 6.60709 11.6706 6.57265 11.6883C6.44126 11.7563 6.41151 11.768 6.37035 11.768C6.34704 11.768 6.328 11.7806 6.328 11.796C6.328 11.8114 6.2902 11.824 6.244 11.824C6.1978 11.824 6.16 11.8366 6.16 11.852C6.16 11.8674 6.1222 11.88 6.076 11.88C6.0298 11.88 5.992 11.8926 5.992 11.908C5.992 11.9234 5.9668 11.936 5.936 11.936C5.9052 11.936 5.88 11.9486 5.88 11.964C5.88 11.9794 5.8422 11.992 5.796 11.992C5.7498 11.992 5.712 12.0046 5.712 12.02C5.712 12.0354 5.6742 12.048 5.628 12.048C5.5818 12.048 5.544 12.0606 5.544 12.076C5.544 12.0914 5.51327 12.104 5.47568 12.104C5.43809 12.104 5.39952 12.1166 5.39 12.132C5.38048 12.1474 5.34191 12.16 5.30432 12.16C5.26673 12.16 5.236 12.1726 5.236 12.188C5.236 12.2034 5.1982 12.216 5.152 12.216C5.1058 12.216 5.068 12.2286 5.068 12.244C5.068 12.2594 5.0302 12.272 4.984 12.272C4.9378 12.272 4.9 12.2846 4.9 12.3C4.9 12.3154 4.8622 12.328 4.816 12.328C4.7698 12.328 4.732 12.3406 4.732 12.356C4.732 12.3714 4.6963 12.384 4.65269 12.384C4.60901 12.384 4.56386 12.3935 4.55238 12.405C4.5325 12.4248 4.33412 12.4812 4.165 12.515C4.12265 12.5234 4.088 12.5415 4.088 12.5552C4.088 12.5688 4.05888 12.58 4.02325 12.58C3.98769 12.58 3.93148 12.6052 3.89844 12.636C3.8654 12.6668 3.8248 12.692 3.80821 12.692C3.76222 12.692 3.584 12.8804 3.584 12.9291C3.584 12.9527 3.57448 12.972 3.56286 12.972C3.55117 12.972 3.5252 13.013 3.50497 13.063C3.48481 13.1131 3.45653 13.1759 3.44218 13.2027C3.40704 13.2678 3.40858 13.7202 3.444 13.742C3.4594 13.7515 3.472 13.7901 3.472 13.8277C3.472 13.8653 3.4846 13.896 3.5 13.896C3.5154 13.896 3.528 13.9212 3.528 13.952C3.528 13.9828 3.5406 14.008 3.556 14.008C3.5714 14.008 3.584 14.0279 3.584 14.0522C3.584 14.0973 3.79316 14.316 3.83628 14.316C3.8493 14.316 3.87667 14.3318 3.89697 14.351C3.99875 14.4473 4.97035 14.5134 5.0554 14.4299C5.07003 14.4155 5.2017 14.3969 5.348 14.3886C5.84626 14.3603 6.03393 14.342 6.09 14.3161C6.1208 14.3019 6.2279 14.2833 6.328 14.2747C6.79469 14.2345 6.86 14.2256 6.86 14.2016C6.86 14.1876 6.9419 14.176 7.042 14.176C7.14469 14.176 7.224 14.1638 7.224 14.148C7.224 14.1326 7.28623 14.12 7.36232 14.12C7.43841 14.12 7.50848 14.1074 7.518 14.092C7.52752 14.0766 7.60389 14.064 7.68768 14.064C7.77147 14.064 7.84 14.0514 7.84 14.036C7.84 14.0206 7.903 14.008 7.98 14.008C8.057 14.008 8.12 13.9954 8.12 13.98C8.12 13.9646 8.183 13.952 8.26 13.952C8.337 13.952 8.4 13.9394 8.4 13.924C8.4 13.9086 8.4504 13.896 8.512 13.896C8.5736 13.896 8.624 13.8834 8.624 13.868C8.624 13.8526 8.6807 13.84 8.75 13.84C8.8193 13.84 8.876 13.8274 8.876 13.812C8.876 13.7966 8.9264 13.784 8.988 13.784C9.0496 13.784 9.1 13.7714 9.1 13.756C9.1 13.7406 9.1504 13.728 9.212 13.728C9.2736 13.728 9.324 13.7154 9.324 13.7C9.324 13.6846 9.3744 13.672 9.436 13.672C9.4976 13.672 9.548 13.6612 9.548 13.6479C9.548 13.6346 9.62045 13.6153 9.709 13.6049C9.87 13.5862 10.0231 13.5468 10.1146 13.5006C10.1414 13.4871 10.1846 13.476 10.2106 13.476C10.2636 13.476 10.432 13.4262 10.5066 13.3886C10.5334 13.3751 10.5799 13.364 10.61 13.364C10.6401 13.364 10.6725 13.3514 10.682 13.336C10.6915 13.3206 10.7364 13.308 10.7817 13.308C10.827 13.308 10.864 13.2954 10.864 13.28C10.864 13.2646 10.8993 13.252 10.9424 13.252C10.9855 13.252 11.0328 13.2416 11.0474 13.229C11.062 13.2164 11.1685 13.1763 11.284 13.14C11.3995 13.1037 11.506 13.0636 11.5206 13.051C11.5352 13.0384 11.5762 13.028 11.6116 13.028C11.647 13.028 11.676 13.0154 11.676 13C11.676 12.9846 11.7138 12.972 11.76 12.972C11.8062 12.972 11.844 12.9594 11.844 12.944C11.844 12.9286 11.8747 12.916 11.9123 12.916C11.9499 12.916 11.9885 12.9034 11.998 12.888C12.0075 12.8726 12.0398 12.86 12.0697 12.86C12.0996 12.86 12.124 12.8474 12.124 12.832C12.124 12.8166 12.1555 12.804 12.194 12.804C12.2325 12.804 12.264 12.7914 12.264 12.776C12.264 12.7606 12.3018 12.748 12.348 12.748C12.3942 12.748 12.432 12.7354 12.432 12.72C12.432 12.7046 12.4572 12.692 12.488 12.692C12.5188 12.692 12.544 12.6794 12.544 12.664C12.544 12.6486 12.5818 12.636 12.628 12.636C12.6742 12.636 12.712 12.6234 12.712 12.608C12.712 12.5926 12.7372 12.58 12.768 12.58C12.7988 12.58 12.824 12.5674 12.824 12.552C12.824 12.5366 12.8547 12.524 12.8923 12.524C12.9299 12.524 12.9685 12.5114 12.978 12.496C12.9875 12.4806 13.0198 12.468 13.0497 12.468C13.0796 12.468 13.104 12.4554 13.104 12.44C13.104 12.4246 13.1237 12.412 13.1478 12.412C13.1719 12.412 13.2604 12.3805 13.3446 12.342C13.4288 12.3035 13.5162 12.272 13.5388 12.272C13.5615 12.272 13.58 12.2594 13.58 12.244C13.58 12.2286 13.6052 12.216 13.636 12.216C13.6668 12.216 13.692 12.2034 13.692 12.188C13.692 12.1726 13.7172 12.16 13.748 12.16C13.7788 12.16 13.804 12.1474 13.804 12.132C13.804 12.1166 13.8292 12.104 13.86 12.104C13.8908 12.104 13.916 12.0914 13.916 12.076C13.916 12.0606 13.9412 12.048 13.972 12.048C14.0028 12.048 14.028 12.0354 14.028 12.02C14.028 12.0046 14.0532 11.992 14.084 11.992C14.1148 11.992 14.14 11.9794 14.14 11.964C14.14 11.9486 14.1652 11.936 14.196 11.936C14.2268 11.936 14.252 11.9234 14.252 11.908C14.252 11.8926 14.2772 11.88 14.308 11.88C14.3388 11.88 14.364 11.8674 14.364 11.852C14.364 11.8366 14.3892 11.824 14.42 11.824C14.4508 11.824 14.476 11.8114 14.476 11.796C14.476 11.7806 14.5012 11.768 14.532 11.768C14.5628 11.768 14.588 11.7554 14.588 11.74C14.588 11.7246 14.6069 11.712 14.63 11.712C14.6531 11.712 14.672 11.6994 14.672 11.684C14.672 11.6686 14.6972 11.656 14.728 11.656C14.7588 11.656 14.784 11.6434 14.784 11.628C14.784 11.6126 14.8092 11.6 14.84 11.6C14.8708 11.6 14.896 11.5874 14.896 11.572C14.896 11.5566 14.9212 11.544 14.952 11.544C14.9828 11.544 15.008 11.5314 15.008 11.516C15.008 11.5006 15.0304 11.488 15.0578 11.488C15.0852 11.488 15.1258 11.4628 15.148 11.432C15.1702 11.4012 15.2108 11.376 15.2382 11.376C15.2656 11.376 15.288 11.3634 15.288 11.348C15.288 11.3326 15.3132 11.32 15.344 11.32C15.3748 11.32 15.4 11.3074 15.4 11.292C15.4 11.2766 15.4237 11.264 15.4526 11.264C15.4815 11.264 15.5208 11.2451 15.54 11.222C15.5592 11.1989 15.5868 11.18 15.6014 11.18C15.6159 11.18 15.6829 11.1422 15.75 11.096C15.8171 11.0498 15.8856 11.012 15.902 11.012C15.9185 11.012 15.932 10.9994 15.932 10.984C15.932 10.9686 15.9544 10.956 15.9818 10.956C16.0092 10.956 16.0498 10.9308 16.072 10.9C16.0942 10.8692 16.132 10.844 16.156 10.844C16.18 10.844 16.2178 10.8188 16.24 10.788C16.2622 10.7572 16.297 10.732 16.3174 10.732C16.3377 10.732 16.3814 10.7068 16.4144 10.676C16.4475 10.6452 16.4911 10.62 16.5112 10.62C16.5315 10.62 16.548 10.6074 16.548 10.592C16.548 10.5766 16.5645 10.564 16.5848 10.564C16.6049 10.564 16.6485 10.5388 16.6816 10.508C16.7146 10.4772 16.7503 10.452 16.7608 10.452C16.7713 10.452 16.816 10.4142 16.8602 10.368C16.9044 10.3218 16.9565 10.284 16.976 10.284C16.9956 10.284 17.0298 10.2588 17.052 10.228C17.0742 10.1972 17.1148 10.172 17.1422 10.172C17.1696 10.172 17.192 10.1623 17.192 10.1504C17.192 10.1385 17.2355 10.1053 17.2887 10.0767C17.3419 10.048 17.408 10.0039 17.4357 9.97852C17.4634 9.95318 17.5301 9.90194 17.584 9.86456C17.6379 9.82725 17.6883 9.78917 17.696 9.78C17.7037 9.77083 17.754 9.73254 17.8077 9.69495C17.9129 9.62145 18.0096 9.53892 18.1594 9.395C18.2115 9.34495 18.2661 9.304 18.2806 9.304C18.2952 9.304 18.3817 9.23155 18.4728 9.143C18.5639 9.05445 18.6728 8.96226 18.7148 8.93811C18.8567 8.85635 20.0155 7.73432 20.286 7.41666C20.3476 7.34435 20.4767 7.20239 20.573 7.10131C20.6693 7.00023 20.748 6.90601 20.748 6.89201C20.748 6.87801 20.8015 6.81165 20.867 6.74466C21.023 6.58478 21.2352 6.33852 21.2486 6.3017C21.2544 6.28567 21.3016 6.2275 21.3535 6.17248C21.4054 6.11746 21.4551 6.04984 21.4638 6.02219C21.4852 5.95471 21.5947 5.958 21.658 6.028C21.6859 6.0588 21.7228 6.084 21.7402 6.084C21.7575 6.084 21.7898 6.1092 21.812 6.14C21.8342 6.1708 21.8653 6.196 21.8812 6.19607C21.8971 6.19607 21.9541 6.23387 22.008 6.28C22.0619 6.32613 22.116 6.36393 22.1282 6.36393C22.1404 6.364 22.1774 6.3892 22.2104 6.42C22.2435 6.4508 22.2871 6.476 22.3072 6.476C22.3275 6.476 22.344 6.48664 22.344 6.49959C22.344 6.51254 22.3913 6.54719 22.449 6.57659C22.5068 6.60599 22.5744 6.65205 22.5993 6.679C22.6242 6.70595 22.6624 6.728 22.6841 6.728C22.7058 6.728 22.7418 6.7532 22.764 6.784C22.7862 6.8148 22.8205 6.84 22.8402 6.84C22.8599 6.84 22.876 6.8526 22.876 6.868C22.876 6.8834 22.9004 6.896 22.9303 6.896C22.9602 6.896 22.9925 6.9086 23.002 6.924C23.0115 6.9394 23.0627 6.952 23.1157 6.952C23.1687 6.952 23.212 6.9394 23.212 6.924C23.212 6.9086 23.2449 6.896 23.2851 6.896C23.3345 6.896 23.3979 6.85568 23.4811 6.77133L23.604 6.64666V6.39333C23.604 6.24311 23.5926 6.14 23.576 6.14C23.5593 6.14 23.548 6.03325 23.548 5.87568C23.548 5.72959 23.5355 5.60359 23.52 5.594C23.5045 5.58448 23.492 5.4589 23.492 5.314C23.492 5.1691 23.4795 5.04352 23.464 5.034C23.4486 5.02448 23.436 4.90478 23.436 4.768C23.436 4.63122 23.4234 4.51152 23.408 4.502C23.3925 4.49241 23.38 4.36641 23.38 4.22032C23.38 4.06275 23.3687 3.956 23.352 3.956C23.3353 3.956 23.324 3.84925 23.324 3.69168C23.324 3.54559 23.3115 3.41959 23.296 3.41C23.2805 3.40041 23.268 3.27441 23.268 3.12832C23.268 2.97075 23.2567 2.864 23.24 2.864C23.2232 2.864 23.212 2.752 23.212 2.584C23.212 2.416 23.2008 2.304 23.184 2.304C23.1673 2.304 23.156 2.19669 23.156 2.038C23.156 1.87931 23.1447 1.772 23.128 1.772C23.1112 1.772 23.1 1.66 23.1 1.492C23.1 1.324 23.0888 1.212 23.072 1.212C23.0553 1.212 23.044 1.10469 23.044 0.946001C23.044 0.787311 23.0327 0.680001 23.016 0.680001C23.0006 0.680001 22.988 0.647241 22.988 0.607201C22.988 0.413301 22.4783 0.166691 22.386 0.316001ZM21.588 10.312C21.588 10.3274 21.5502 10.34 21.504 10.34C21.4578 10.34 21.42 10.3526 21.42 10.368C21.42 10.3834 21.3948 10.396 21.364 10.396C21.3332 10.396 21.308 10.4086 21.308 10.424C21.308 10.4394 21.2887 10.452 21.2652 10.452C21.2224 10.452 20.9726 10.6835 20.9714 10.7242C20.971 10.7362 20.9461 10.7775 20.916 10.816C20.8859 10.8545 20.861 10.9144 20.8606 10.949C20.8603 10.9837 20.8474 11.012 20.832 11.012C20.8134 11.012 20.804 13.3267 20.804 17.9V24.788H20.174H19.544V19.37C19.544 15.7767 19.5345 13.952 19.516 13.952C19.5006 13.952 19.488 13.9268 19.488 13.896C19.488 13.8652 19.4754 13.84 19.46 13.84C19.4446 13.84 19.432 13.8202 19.432 13.796C19.432 13.7718 19.4163 13.7361 19.397 13.7166C19.3778 13.6971 19.3369 13.6476 19.3063 13.6066C19.2758 13.5656 19.2376 13.532 19.2215 13.532C19.2055 13.532 19.1742 13.5068 19.152 13.476C19.1298 13.4452 19.0892 13.42 19.0618 13.42C19.0344 13.42 19.012 13.4074 19.012 13.392C19.012 13.3766 18.9876 13.364 18.9577 13.364C18.9278 13.364 18.8955 13.3514 18.886 13.336C18.8622 13.2974 15.3258 13.2974 15.302 13.336C15.2925 13.3514 15.2602 13.364 15.2303 13.364C15.2004 13.364 15.176 13.3766 15.176 13.392C15.176 13.4074 15.1536 13.42 15.1262 13.42C15.0988 13.42 15.0582 13.4452 15.036 13.476C15.0138 13.5068 14.9838 13.532 14.9693 13.532C14.9548 13.532 14.9003 13.5793 14.8483 13.637C14.76 13.735 14.7293 13.7888 14.6479 13.9883C14.6244 14.046 14.616 15.4777 14.616 19.4273V24.788H14H13.384V20.9376C13.384 17.0946 13.3789 16.864 13.2932 16.864C13.2815 16.864 13.272 16.8388 13.272 16.808C13.272 16.7772 13.2594 16.752 13.244 16.752C13.2286 16.752 13.216 16.7356 13.216 16.7155C13.216 16.6647 13.035 16.472 12.9874 16.472C12.966 16.472 12.9302 16.4468 12.908 16.416C12.8843 16.3831 12.8356 16.36 12.7898 16.36C12.747 16.36 12.712 16.3474 12.712 16.332C12.712 16.3166 12.649 16.304 12.572 16.304C12.495 16.304 12.432 16.2914 12.432 16.276C12.432 16.2577 11.9047 16.248 10.906 16.248C9.90731 16.248 9.38 16.2577 9.38 16.276C9.38 16.2914 9.32316 16.304 9.25365 16.304C9.18414 16.304 9.10539 16.3151 9.07865 16.3287C9.05191 16.3424 8.99479 16.3699 8.95174 16.3902C8.84905 16.4383 8.624 16.6518 8.624 16.701C8.624 16.7222 8.5988 16.7578 8.568 16.78C8.5351 16.8037 8.512 16.8525 8.512 16.8982C8.512 16.941 8.4994 16.976 8.484 16.976C8.46559 16.976 8.456 17.6817 8.456 19.0371V21.0982L8.58368 21.224C8.72102 21.3595 8.74958 21.364 8.96126 21.2837C9.31525 21.1493 9.296 21.2755 9.296 19.0909C9.296 17.3301 9.29859 17.2344 9.34717 17.1903C9.39351 17.1484 9.54296 17.144 10.9131 17.144H12.4279L12.486 17.2178C12.546 17.2942 12.5782 23.1333 12.5255 24.4032L12.5072 24.8444L10.9086 24.8372L9.31 24.83L9.296 23.626C9.2799 22.2399 9.26142 22.156 8.97267 22.156C8.95034 22.156 8.90757 22.1316 8.87775 22.1018C8.79655 22.0205 8.512 22.1489 8.512 22.2667C8.512 22.2828 8.4994 22.296 8.484 22.296C8.46573 22.296 8.456 22.73 8.456 23.542V24.788H7.826H7.196V22.4076C7.196 20.9853 7.1855 20.0077 7.16982 19.9787C7.15547 19.9519 7.12719 19.8891 7.10703 19.839C7.0868 19.789 7.06083 19.748 7.04914 19.748C7.03752 19.748 7.028 19.7276 7.028 19.7028C7.028 19.6182 6.72651 19.384 6.61773 19.384C6.59694 19.384 6.58 19.3714 6.58 19.356C6.58 19.3406 6.5422 19.328 6.496 19.328C6.4498 19.328 6.412 19.3154 6.412 19.3C6.412 19.2817 5.83387 19.272 4.73368 19.272C3.64497 19.272 3.0492 19.2819 3.038 19.3C3.02848 19.3154 2.98438 19.328 2.94 19.328C2.89562 19.328 2.85152 19.3406 2.842 19.356C2.83248 19.3714 2.80602 19.384 2.7832 19.384C2.7363 19.384 2.7139 19.4011 2.51895 19.5852C2.44251 19.6574 2.38 19.7361 2.38 19.7602C2.38 19.7843 2.3674 19.804 2.352 19.804C2.3366 19.804 2.324 19.8292 2.324 19.86C2.324 19.8908 2.3114 19.916 2.296 19.916C2.27752 19.916 2.268 20.7467 2.268 22.352V24.788H1.24943H0.23093L0.11543 24.8967L0 25.0055V25.2438C0 25.4944 0.0812 25.656 0.2072 25.656C0.23184 25.656 0.252 25.6686 0.252 25.684C0.252 25.7026 4.85331 25.712 14 25.712C23.1467 25.712 27.748 25.7026 27.748 25.684C27.748 25.6686 27.7682 25.656 27.7928 25.656C27.9188 25.656 28 25.4944 28 25.2438V25.0055L27.8846 24.8967L27.7691 24.788H26.7506H25.732V20.854C25.732 18.25 25.7226 16.92 25.704 16.92C25.6886 16.92 25.676 16.9039 25.676 16.8842C25.676 16.8441 25.5783 16.752 25.5357 16.752C25.5205 16.752 25.508 16.7394 25.508 16.724C25.508 16.6817 25.3614 16.6922 25.2997 16.7389C25.2697 16.7615 25.222 16.78 25.1936 16.78C25.1162 16.78 25.0071 16.8614 24.9536 16.9591C24.9096 17.0394 24.905 17.3455 24.892 20.952L24.878 24.858L23.2992 24.8652C22.1564 24.8705 21.7098 24.8637 21.6821 24.8408C21.6502 24.8143 21.644 23.7192 21.644 18.0386V11.2681L21.7178 11.21C21.8182 11.1311 24.7185 11.1176 24.8298 11.1956L24.892 11.2392V13.4033C24.892 15.7959 24.8826 15.6699 25.0718 15.8142C25.1221 15.8526 25.1896 15.884 25.2216 15.884C25.2538 15.884 25.2989 15.9029 25.322 15.926C25.3695 15.9735 25.452 15.9824 25.452 15.94C25.452 15.9246 25.4752 15.912 25.5037 15.912C25.5632 15.912 25.676 15.8228 25.676 15.7757C25.676 15.7583 25.6886 15.744 25.704 15.744C25.7225 15.744 25.732 14.9273 25.732 13.35C25.732 11.7727 25.7225 10.956 25.704 10.956C25.6886 10.956 25.676 10.9308 25.676 10.9C25.676 10.8692 25.6634 10.844 25.648 10.844C25.6326 10.844 25.62 10.8238 25.62 10.7991C25.62 10.738 25.3084 10.4372 25.1942 10.3882C24.9558 10.2858 24.9217 10.284 23.245 10.284C22.159 10.284 21.588 10.2937 21.588 10.312ZM18.6528 14.1943C18.702 14.2389 18.704 14.4417 18.704 19.5423V24.844H17.094H15.484V19.5472C15.484 14.6577 15.4876 14.2465 15.5303 14.1992C15.5984 14.1239 18.5699 14.1193 18.6528 14.1943ZM6.31078 20.209C6.38799 20.3269 6.37896 24.8017 6.3014 24.8432C6.26486 24.8628 5.72957 24.8701 4.6844 24.8652L3.122 24.858L3.11486 22.5504C3.10828 20.433 3.1115 20.2386 3.1542 20.1914C3.19823 20.1427 3.28209 20.14 4.73312 20.14H6.26556L6.31078 20.209Z" fill="#CCCCCC"/>
</svg>
