<svg width="24" height="28" viewBox="0 0 24 28" fill="none" xmlns="http://www.w3.org/2000/svg">
<path fill-rule="evenodd" clip-rule="evenodd" d="M18.3923 3.80124C18.4209 3.82013 18.5564 3.8359 18.6935 3.83616C18.8305 3.83642 18.9524 3.85228 18.9641 3.87134C18.9759 3.8904 19.0539 3.90599 19.1374 3.90599C19.2209 3.90599 19.2989 3.92159 19.3107 3.94065C19.3225 3.95971 19.3927 3.97531 19.4667 3.97531C19.5407 3.97531 19.6108 3.9909 19.6226 4.00997C19.6344 4.02903 19.689 4.04462 19.7439 4.04462C19.7989 4.04462 19.8534 4.06022 19.8652 4.07928C19.877 4.09834 19.9316 4.11394 19.9865 4.11394C20.0415 4.11394 20.096 4.12953 20.1078 4.1486C20.1196 4.16766 20.1597 4.18325 20.197 4.18325C20.2342 4.18325 20.2918 4.19703 20.3249 4.21384C20.3959 4.24997 20.5646 4.32101 20.6623 4.35593C20.8404 4.41953 21.8428 4.92648 21.905 4.98444C21.9435 5.02031 21.9939 5.04968 22.0168 5.04968C22.0791 5.04968 22.1038 5.14525 22.0547 5.19594C22.031 5.22037 21.9738 5.29488 21.9273 5.3616C21.8809 5.42831 21.8235 5.503 21.7997 5.52752C21.776 5.55204 21.7292 5.61832 21.6958 5.67481C21.6625 5.7313 21.6229 5.77748 21.608 5.77748C21.593 5.77748 21.5808 5.79395 21.5808 5.81405C21.5808 5.83415 21.5341 5.90043 21.477 5.96134C21.4199 6.02225 21.3731 6.09156 21.373 6.11539C21.3729 6.13922 21.3611 6.1588 21.3468 6.15897C21.3325 6.15906 21.2818 6.21754 21.2342 6.28894C21.1865 6.36024 21.1124 6.45746 21.0696 6.50494C21.0267 6.55242 20.9916 6.60198 20.9916 6.61506C20.9916 6.62823 20.9714 6.6596 20.9468 6.68472C20.9222 6.70994 20.8252 6.83973 20.7314 6.97316C20.6375 7.10659 20.5516 7.22356 20.5405 7.23309C20.5294 7.24262 20.4829 7.305 20.4371 7.37172C20.3912 7.43843 20.3444 7.50081 20.3331 7.51034C20.3217 7.51987 20.2746 7.58226 20.2284 7.64897C20.1822 7.71569 20.1167 7.80051 20.0828 7.83742C20.0489 7.87442 20.0212 7.91939 20.0212 7.93741C20.0212 7.95534 19.9931 7.99528 19.9589 8.02613C19.9247 8.05697 19.8586 8.13677 19.8121 8.20349C19.7656 8.2702 19.7089 8.34818 19.686 8.37677C19.6016 8.48248 19.4116 8.74544 19.3107 8.89655C19.2535 8.98215 19.1716 9.08803 19.1288 9.13195C19.0859 9.1758 19.0508 9.22588 19.0508 9.24321C19.0508 9.26053 19.0118 9.31373 18.9641 9.36139C18.9165 9.40904 18.8775 9.46042 18.8775 9.47558C18.8774 9.49074 18.8423 9.54394 18.7995 9.59385C18.704 9.70484 18.652 9.77372 18.2649 10.3009C18.0967 10.5299 17.9241 10.7639 17.8813 10.8207C17.8385 10.8776 17.7536 10.9943 17.6926 11.08C17.6317 11.1658 17.5693 11.2412 17.5538 11.2475C17.5384 11.2539 17.5259 11.2812 17.5259 11.3082C17.5259 11.3352 17.5136 11.3573 17.4987 11.3573C17.4838 11.3573 17.4442 11.4035 17.4108 11.46C17.3774 11.5165 17.3307 11.5827 17.3069 11.6073C17.2831 11.6318 17.2259 11.7065 17.1798 11.7732C17.1337 11.8399 17.0867 11.9023 17.0753 11.9118C17.064 11.9213 17.0167 11.9837 16.9701 12.0504C16.9237 12.1172 16.8669 12.1951 16.8439 12.2237C16.8209 12.2523 16.6929 12.4239 16.5593 12.605C16.4257 12.786 16.3035 12.9498 16.2876 12.9689C16.2719 12.9879 16.2208 13.0581 16.1742 13.1248C16.1276 13.1915 16.0618 13.2764 16.0279 13.3133C15.994 13.3503 15.9663 13.3938 15.9663 13.4102C15.9663 13.4265 15.9273 13.4788 15.8796 13.5265C15.832 13.5741 15.793 13.6273 15.793 13.6447C15.793 13.662 15.754 13.7152 15.7064 13.7629C15.6587 13.8105 15.6197 13.8596 15.6197 13.872C15.6197 13.8844 15.5846 13.9369 15.5417 13.9887C15.4585 14.0892 15.4132 14.149 15.133 14.5284C14.9436 14.785 14.9298 14.7917 14.8138 14.6836C14.7733 14.6458 14.6924 14.5813 14.6341 14.54C14.545 14.477 14.2603 14.1787 13.7742 13.6391C13.7218 13.581 13.6789 13.5232 13.6789 13.5107C13.6789 13.4982 13.6438 13.4492 13.6009 13.4017C13.558 13.3542 13.5009 13.2725 13.4737 13.2201C13.4467 13.1677 13.4116 13.1248 13.3958 13.1248C13.38 13.1248 13.367 13.1014 13.367 13.0728C13.367 13.0442 13.3514 13.0208 13.3323 13.0208C13.3133 13.0208 13.2977 12.9974 13.2977 12.9689C13.2977 12.9403 13.2821 12.9169 13.263 12.9169C13.244 12.9169 13.2284 12.8935 13.2284 12.8649C13.2284 12.8363 13.2167 12.8128 13.2024 12.8126C13.1881 12.8125 13.1592 12.7774 13.1383 12.7347C13.0358 12.526 12.9312 12.3439 12.9078 12.3335C12.8935 12.3271 12.8818 12.3016 12.8818 12.2767C12.8818 12.2519 12.8136 12.0855 12.7302 11.907C12.6468 11.7286 12.5579 11.5202 12.5325 11.4439C12.5072 11.3677 12.474 11.2905 12.4588 11.2724C12.4436 11.2543 12.4313 11.2045 12.4313 11.1618C12.4313 11.1191 12.4157 11.0745 12.3966 11.0627C12.3775 11.0509 12.3619 10.9954 12.3619 10.9393C12.3619 10.8833 12.3463 10.8374 12.3273 10.8374C12.3082 10.8374 12.2926 10.786 12.2926 10.7231C12.2926 10.6602 12.2786 10.5939 12.2615 10.5758C12.2289 10.5412 12.1972 10.3598 12.1682 10.0403C12.1587 9.93548 12.1353 9.81825 12.1162 9.7797C12.0533 9.65277 12.113 8.18252 12.188 8.01287C12.2048 7.97475 12.2282 7.88897 12.2399 7.82226C12.2516 7.75554 12.27 7.6501 12.2808 7.58798C12.2915 7.52585 12.3142 7.4665 12.3311 7.45602C12.3481 7.44554 12.3619 7.40646 12.3619 7.3692C12.3619 7.33195 12.3762 7.27442 12.3937 7.24132C12.4112 7.20822 12.4517 7.11872 12.4838 7.04247C12.5742 6.82786 12.883 6.225 12.9187 6.19337C12.9295 6.18384 12.9912 6.09806 13.0559 6.00276C13.2709 5.68573 13.8804 5.0606 14.1371 4.89373C14.1665 4.87466 14.2975 4.78854 14.4285 4.70242C14.6394 4.56362 15.1348 4.30637 15.3771 4.20968C15.4248 4.1907 15.4909 4.16142 15.524 4.14452C15.5571 4.12771 15.6146 4.11394 15.6519 4.11394C15.6891 4.11394 15.7292 4.09834 15.741 4.07928C15.7528 4.06022 15.7996 4.04462 15.845 4.04462C15.8904 4.04462 15.9372 4.02903 15.949 4.00997C15.9607 3.9909 16.0241 3.97531 16.0897 3.97531C16.1553 3.97531 16.2089 3.95971 16.2089 3.94065C16.2089 3.92159 16.2759 3.90599 16.3579 3.90599C16.4399 3.90599 16.5218 3.8917 16.5399 3.87428C16.615 3.80185 18.2933 3.73574 18.3923 3.80124Z" fill="#DAE3E6"/>
<path fill-rule="evenodd" clip-rule="evenodd" d="M9.22403 0.03423C9.22403 0.0530564 9.28564 0.0684596 9.36095 0.0684596C9.43626 0.0684596 9.49787 0.0838631 9.49787 0.10269C9.49787 0.121516 9.53544 0.136919 9.58139 0.136919C9.62734 0.136919 9.6745 0.152323 9.68613 0.171149C9.69777 0.189976 9.73722 0.205379 9.77376 0.205379C9.8103 0.205379 9.84017 0.220782 9.84017 0.239609C9.84017 0.258435 9.86036 0.273839 9.88509 0.273839C9.90974 0.273839 9.96305 0.304645 10.0034 0.342298C10.0438 0.379951 10.0972 0.410758 10.1221 0.410758C10.147 0.410758 10.1896 0.441565 10.2167 0.479217C10.2438 0.51687 10.2858 0.547677 10.3098 0.547677C10.3339 0.547677 10.3536 0.561284 10.3536 0.577971C10.3536 0.594658 10.4037 0.632139 10.4649 0.66132C10.526 0.690501 10.6101 0.746125 10.6517 0.785061C10.6933 0.823912 10.7476 0.855746 10.7725 0.855746C10.7974 0.855746 10.8399 0.886552 10.8671 0.924205C10.8942 0.961858 10.9382 0.992665 10.9647 0.992665C10.9913 0.992665 11.038 1.01971 11.0684 1.05282C11.0989 1.08586 11.1661 1.13472 11.2179 1.16125C11.2697 1.18786 11.3121 1.22243 11.3121 1.23809C11.3121 1.25367 11.3313 1.2665 11.3548 1.26659C11.3784 1.26659 11.4515 1.3128 11.5174 1.36919C11.5833 1.42559 11.6531 1.4718 11.6725 1.4718C11.6918 1.47188 11.7299 1.50269 11.757 1.54034C11.7842 1.578 11.8227 1.6088 11.8426 1.6088C11.8626 1.6088 11.9011 1.63961 11.9282 1.67726C11.9553 1.71491 12.0015 1.74572 12.0309 1.74572C12.0602 1.74572 12.1064 1.77653 12.1336 1.81418C12.1607 1.85183 12.2069 1.88264 12.2363 1.88264C12.2656 1.88264 12.3118 1.91345 12.3389 1.9511C12.3661 1.98875 12.4027 2.01956 12.4203 2.01956C12.4379 2.01956 12.4999 2.05456 12.5582 2.09726C12.6165 2.14005 12.7065 2.19653 12.7583 2.22289C12.81 2.24916 12.8524 2.28356 12.8524 2.29922C12.8524 2.31479 12.8726 2.32763 12.8973 2.32763C12.922 2.32763 12.9753 2.35844 13.0157 2.39609C13.0561 2.43374 13.1052 2.46455 13.1248 2.46455C13.1444 2.46455 13.1605 2.47661 13.1605 2.49142C13.1605 2.50614 13.2028 2.54336 13.2546 2.574C13.3064 2.60463 13.3949 2.66958 13.4514 2.71828C13.5079 2.76697 13.5699 2.80676 13.5894 2.80685C13.6087 2.80685 13.6468 2.83765 13.6739 2.87531C13.701 2.91296 13.7472 2.94377 13.7766 2.94377C13.806 2.94377 13.8522 2.97457 13.8793 3.01222C13.9064 3.04988 13.9504 3.08068 13.9769 3.08068C14.0035 3.08068 14.0502 3.10773 14.0806 3.14084C14.1111 3.17388 14.1784 3.22274 14.2301 3.24927C14.2819 3.27588 14.3243 3.31045 14.3243 3.32611C14.3243 3.34169 14.3474 3.35452 14.3756 3.35452C14.4039 3.35452 14.427 3.36993 14.427 3.38875C14.427 3.40758 14.4501 3.42298 14.4783 3.42298C14.5065 3.42298 14.5297 3.44147 14.5297 3.46406C14.5297 3.49598 14.5388 3.49598 14.5707 3.46406C14.5933 3.44147 14.6395 3.42298 14.6734 3.42298C14.7073 3.42298 14.7351 3.41143 14.7353 3.39731C14.7356 3.36659 14.9014 3.28606 14.9644 3.28606C14.9888 3.28606 15.0089 3.27066 15.0089 3.25183C15.0089 3.23301 15.0474 3.2176 15.0944 3.2176C15.1415 3.2176 15.18 3.2022 15.18 3.18337C15.18 3.16455 15.2262 3.14914 15.2827 3.14914C15.3392 3.14914 15.3854 3.13374 15.3854 3.11491C15.3854 3.09609 15.4316 3.08068 15.4881 3.08068C15.5446 3.08068 15.5908 3.06528 15.5908 3.04645C15.5908 3.02763 15.6524 3.01222 15.7277 3.01222C15.803 3.01222 15.8646 2.99682 15.8646 2.978C15.8646 2.95917 15.9262 2.94377 16.0015 2.94377C16.0768 2.94377 16.1385 2.92836 16.1385 2.90954C16.1385 2.89071 16.2068 2.87531 16.2904 2.87531C16.374 2.87531 16.452 2.8599 16.4636 2.84108C16.4753 2.82225 16.6148 2.80685 16.7738 2.80685C16.9435 2.80685 17.0627 2.79273 17.0627 2.77262C17.0627 2.72623 18.3176 2.72623 18.3463 2.77262C18.3579 2.79144 18.5052 2.80685 18.6735 2.80685C18.8547 2.80685 18.9795 2.82079 18.9795 2.84108C18.9795 2.86007 19.0708 2.87531 19.1849 2.87531C19.299 2.87531 19.3903 2.89054 19.3903 2.90954C19.3903 2.92836 19.4673 2.94377 19.5614 2.94377C19.6556 2.94377 19.7326 2.95917 19.7326 2.978C19.7326 2.99682 19.7942 3.01222 19.8695 3.01222C19.9448 3.01222 20.0064 3.02763 20.0064 3.04645C20.0064 3.06528 20.0603 3.08068 20.1262 3.08068C20.1921 3.08068 20.246 3.09609 20.246 3.11491C20.246 3.13374 20.2922 3.14914 20.3487 3.14914C20.4052 3.14914 20.4514 3.16455 20.4514 3.18337C20.4514 3.2022 20.4976 3.2176 20.5541 3.2176C20.6106 3.2176 20.6568 3.23301 20.6568 3.25183C20.6568 3.27066 20.703 3.28606 20.7595 3.28606C20.816 3.28606 20.8622 3.30147 20.8622 3.32029C20.8622 3.33912 20.893 3.35452 20.9306 3.35452C20.9683 3.35452 20.9991 3.36993 20.9991 3.38875C20.9991 3.40758 21.0453 3.42298 21.1018 3.42298C21.1583 3.42298 21.2045 3.43839 21.2045 3.45721C21.2045 3.47604 21.2277 3.49144 21.2562 3.49144C21.3203 3.49144 21.8334 3.7343 21.8491 3.77204C21.8554 3.78719 21.8901 3.79951 21.9261 3.79951C21.9622 3.79951 21.9918 3.81491 21.9918 3.83374C21.9918 3.85257 22.0226 3.86797 22.0602 3.86797C22.0979 3.86797 22.1287 3.88337 22.1287 3.9022C22.1287 3.92103 22.1525 3.93643 22.1815 3.93643C22.2105 3.93643 22.2673 3.96724 22.3077 4.00489C22.3481 4.04254 22.4014 4.07335 22.426 4.07335C22.4508 4.07335 22.471 4.08875 22.471 4.10758C22.471 4.12641 22.4912 4.14181 22.5159 4.14181C22.5405 4.14181 22.5939 4.17262 22.6343 4.21027C22.6746 4.24792 22.7199 4.27873 22.7348 4.27881C22.7497 4.27881 22.8158 4.32502 22.8817 4.38142C22.9476 4.43781 23.0146 4.48402 23.0306 4.48402C23.0756 4.48419 23.2622 4.69548 23.2963 4.7849C23.3654 4.96683 23.2856 5.40831 23.1835 5.40831C23.1682 5.40831 23.1556 5.42911 23.1556 5.45461C23.1556 5.48002 23.1094 5.54917 23.0529 5.6083C22.9964 5.66743 22.9502 5.72836 22.9502 5.74385C22.9502 5.75925 22.9228 5.80178 22.8893 5.83832C22.8559 5.87478 22.7907 5.95856 22.7444 6.02445C22.6324 6.18388 22.572 6.25987 22.4795 6.35716C22.4372 6.40183 22.4025 6.45455 22.4025 6.4744C22.4025 6.49417 22.3563 6.55356 22.2998 6.60636C22.2433 6.65916 22.1971 6.72077 22.1971 6.74328C22.1971 6.76578 22.1509 6.8274 22.0944 6.8802C22.038 6.93299 21.9918 6.99358 21.9918 7.01498C21.9918 7.03628 21.9604 7.08789 21.9221 7.12956C21.6883 7.3838 21.628 7.63325 21.8002 7.63325C21.8274 7.63325 22.1971 7.99523 22.1971 8.02167C22.1971 8.03391 22.2587 8.10742 22.3341 8.18504C22.4094 8.26265 22.471 8.34027 22.471 8.35764C22.471 8.37501 22.5018 8.42225 22.5394 8.46264C22.5771 8.50303 22.6079 8.55634 22.6079 8.58099C22.6079 8.60572 22.6233 8.62592 22.6421 8.62592C22.6609 8.62592 22.6764 8.65672 22.6764 8.69438C22.6764 8.73203 22.6918 8.76284 22.7106 8.76284C22.7294 8.76284 22.7448 8.79364 22.7448 8.8313C22.7448 8.86895 22.7602 8.89976 22.779 8.89976C22.7979 8.89976 22.8133 8.93056 22.8133 8.96821C22.8133 9.00587 22.8259 9.03667 22.8413 9.03667C22.8567 9.03667 22.8906 9.11463 22.9166 9.20996C22.9425 9.30529 22.9761 9.39095 22.9912 9.40028C23.0063 9.40961 23.0187 9.46164 23.0187 9.51589C23.0187 9.57015 23.0341 9.62406 23.0529 9.6357C23.0717 9.64733 23.0871 9.72529 23.0871 9.8089C23.0871 9.89251 23.1025 9.96088 23.1213 9.96088C23.1678 9.96088 23.1678 11.2501 23.1213 11.2787C23.1025 11.2904 23.0871 11.3674 23.0871 11.4499C23.0871 11.5324 23.0717 11.6094 23.0529 11.621C23.0341 11.6327 23.0187 11.6789 23.0187 11.7237C23.0187 11.7686 23.0032 11.8148 22.9844 11.8264C22.9656 11.838 22.9502 11.8777 22.9502 11.9145C22.9502 11.9513 22.9348 12.0119 22.916 12.0493C22.8971 12.0867 22.8663 12.148 22.8475 12.1854C22.8287 12.2228 22.8133 12.2767 22.8133 12.3052C22.8133 12.3337 22.7979 12.357 22.779 12.357C22.7602 12.357 22.7448 12.3878 22.7448 12.4254C22.7448 12.4631 22.7294 12.4939 22.7106 12.4939C22.6918 12.4939 22.6764 12.5141 22.6764 12.5388C22.6764 12.5635 22.6455 12.6168 22.6079 12.6572C22.5702 12.6976 22.5394 12.751 22.5394 12.7759C22.5394 12.8008 22.5086 12.8433 22.471 12.8704C22.4333 12.8975 22.4025 12.9383 22.4025 12.961C22.4025 12.9835 22.2955 13.1073 22.1647 13.2357C21.8696 13.5258 21.86 13.5353 21.7385 13.6592C21.6839 13.7149 21.6241 13.7604 21.6056 13.7604C21.5871 13.7604 21.547 13.7874 21.5166 13.8205C21.4861 13.8536 21.4188 13.9024 21.3671 13.929C21.3153 13.9556 21.2729 13.9902 21.2729 14.0058C21.2729 14.0214 21.2421 14.0342 21.2045 14.0342C21.1668 14.0342 21.136 14.0496 21.136 14.0685C21.136 14.0873 21.1052 14.1027 21.0676 14.1027C21.0299 14.1027 20.9991 14.1181 20.9991 14.1369C20.9991 14.1557 20.9683 14.1711 20.9306 14.1711C20.893 14.1711 20.8622 14.1866 20.8622 14.2054C20.8622 14.2242 20.8323 14.2396 20.7958 14.2396C20.7592 14.2396 20.7198 14.255 20.7081 14.2738C20.6965 14.2927 20.6493 14.3081 20.6034 14.3081C20.5574 14.3081 20.5199 14.3235 20.5199 14.3423C20.5199 14.3611 20.4746 14.3765 20.4192 14.3765C20.3639 14.3765 20.309 14.3919 20.2974 14.4108C20.2857 14.4296 20.2155 14.445 20.1413 14.445C20.0671 14.445 20.0064 14.4604 20.0064 14.4792C20.0064 14.4992 19.8924 14.5134 19.7326 14.5134C19.5728 14.5134 19.4587 14.5277 19.4587 14.5477C19.4587 14.567 19.3618 14.5819 19.2363 14.5819C19.1107 14.5819 19.0138 14.567 19.0138 14.5477C19.0138 14.5277 18.8997 14.5134 18.7399 14.5134C18.5802 14.5134 18.4661 14.4992 18.4661 14.4792C18.4661 14.4604 18.4054 14.445 18.3312 14.445C18.257 14.445 18.1868 14.4296 18.1751 14.4108C18.1635 14.3919 18.1162 14.3765 18.07 14.3765C18.0237 14.3765 17.9554 14.3611 17.918 14.3423C17.8806 14.3235 17.8193 14.2927 17.7819 14.2738C17.7445 14.255 17.6906 14.2396 17.6621 14.2396C17.6336 14.2396 17.6103 14.2242 17.6103 14.2054C17.6103 14.1866 17.5795 14.1711 17.5419 14.1711C17.5042 14.1711 17.4734 14.1557 17.4734 14.1369C17.4734 14.1181 17.4426 14.1027 17.405 14.1027C17.3673 14.1027 17.3365 14.0873 17.3365 14.0685C17.3365 14.0496 17.3091 14.0342 17.2756 14.0342C17.2421 14.0342 17.1925 14.0034 17.1653 13.9658C17.1382 13.9281 17.0899 13.8973 17.058 13.8973C17.026 13.8973 16.9935 13.8782 16.9857 13.8549C16.969 13.8044 16.8573 13.9016 16.8573 13.9667C16.8573 13.9887 16.8111 14.0499 16.7546 14.1027C16.6981 14.1555 16.6519 14.2171 16.6519 14.2396C16.6519 14.2621 16.6057 14.3237 16.5492 14.3765C16.4927 14.4293 16.4465 14.4909 16.4465 14.5134C16.4465 14.536 16.4003 14.5976 16.3438 14.6504C16.2874 14.7032 16.2411 14.7566 16.2411 14.7691C16.2411 14.7982 16.0657 15.0524 15.9709 15.1605C15.9313 15.2057 15.8988 15.2551 15.8988 15.2702C15.8988 15.2852 15.8603 15.3362 15.8133 15.3832C15.7662 15.4303 15.7277 15.4826 15.7277 15.4994C15.7277 15.5164 15.6815 15.5785 15.625 15.6376C15.5685 15.6968 15.5223 15.7596 15.5223 15.7773C15.5223 15.7951 15.4915 15.8193 15.4539 15.8313C15.4162 15.8433 15.3854 15.8674 15.3854 15.8849C15.3854 15.9025 15.3546 15.9169 15.3169 15.9169C15.2793 15.9169 15.2485 15.9323 15.2485 15.9511C15.2485 15.9699 15.1801 15.9853 15.0965 15.9853C15.0129 15.9853 14.9349 15.9699 14.9233 15.9511C14.9117 15.9323 14.8745 15.9169 14.8408 15.9169C14.807 15.9169 14.7311 15.8707 14.672 15.8142C14.6128 15.7577 14.5505 15.7115 14.5334 15.7115C14.5163 15.7115 14.4237 15.6345 14.3276 15.5403C14.2314 15.4462 14.1389 15.3692 14.1221 15.3692C14.0769 15.3692 13.3559 14.6535 13.26 14.5134C13.2149 14.4476 13.1201 14.334 13.0494 14.2612C12.9787 14.1883 12.9209 14.1136 12.9209 14.0952C12.9209 14.0768 12.8746 14.0186 12.8182 13.9658C12.7617 13.913 12.7155 13.8486 12.7155 13.8227C12.7155 13.7968 12.6847 13.7533 12.647 13.7262C12.6094 13.699 12.5786 13.6528 12.5786 13.6235C12.5786 13.5941 12.5477 13.5479 12.5101 13.5208C12.4724 13.4937 12.4416 13.4584 12.4416 13.4424C12.4416 13.4264 12.3954 13.3461 12.3389 13.2641C12.2825 13.182 12.2363 13.0983 12.2363 13.0782C12.2363 13.0581 12.2209 13.0416 12.202 13.0416C12.1832 13.0416 12.1678 13.012 12.1678 12.9759C12.1678 12.9399 12.1559 12.9052 12.1414 12.8989C12.0889 12.8764 11.8597 12.3963 11.8597 12.3092C11.8597 12.2602 11.8443 12.22 11.8255 12.22C11.8067 12.22 11.7913 12.1892 11.7913 12.1516C11.7913 12.1139 11.7759 12.0831 11.757 12.0831C11.7382 12.0831 11.7228 12.0523 11.7228 12.0147C11.7228 11.977 11.7074 11.9462 11.6886 11.9462C11.6698 11.9462 11.6543 11.9077 11.6543 11.8606C11.6543 11.8136 11.6389 11.7751 11.6201 11.7751C11.6013 11.7751 11.5859 11.7289 11.5859 11.6724C11.5859 11.6159 11.5705 11.5697 11.5517 11.5697C11.5328 11.5697 11.5174 11.5235 11.5174 11.467C11.5174 11.4105 11.502 11.3643 11.4832 11.3643C11.4644 11.3643 11.449 11.3181 11.449 11.2616C11.449 11.2051 11.4353 11.1589 11.4185 11.1589C11.3898 11.1589 11.3705 11.08 11.3242 10.7736C11.3136 10.7029 11.2911 10.6365 11.2742 10.6261C11.2574 10.6157 11.2436 10.5388 11.2436 10.4552C11.2436 10.3716 11.2282 10.3032 11.2094 10.3032C11.1894 10.3032 11.1751 10.1891 11.1751 10.0293C11.1751 9.86957 11.1608 9.7555 11.1409 9.7555C11.1193 9.7555 11.1067 9.51658 11.1067 9.10719C11.1067 8.71183 11.12 8.45057 11.1409 8.43765C11.1597 8.42601 11.1751 8.31049 11.1751 8.18093C11.1751 8.05137 11.1905 7.93584 11.2094 7.9242C11.2282 7.91257 11.2436 7.82691 11.2436 7.73389C11.2436 7.64087 11.259 7.56479 11.2778 7.56479C11.2966 7.56479 11.3121 7.54057 11.3121 7.51097C11.3121 7.4473 11.2314 7.35941 11.173 7.35941C11.1504 7.35941 11.1037 7.32689 11.0692 7.28719C11.0022 7.21 10.9013 7.25766 10.9013 7.36652C10.9013 7.39193 10.8705 7.43497 10.8328 7.4621C10.7952 7.48923 10.7644 7.53544 10.7644 7.56479C10.7644 7.59414 10.7336 7.64035 10.6959 7.66748C10.6583 7.69461 10.6275 7.73654 10.6275 7.76059C10.6275 7.78472 10.6159 7.80466 10.6018 7.805C10.5877 7.80526 10.5304 7.89768 10.4746 8.01038C10.4187 8.12299 10.361 8.21516 10.3463 8.21516C10.3315 8.21516 10.3194 8.23535 10.3194 8.26008C10.3194 8.28473 10.2924 8.33479 10.2595 8.37133C10.2265 8.40779 10.1778 8.48001 10.151 8.53178C10.1243 8.58356 10.0896 8.62592 10.074 8.62592C10.0584 8.62592 10.0455 8.6533 10.0455 8.68684C10.0455 8.7203 10.0147 8.76994 9.97709 8.79707C9.93943 8.82419 9.90863 8.86672 9.90863 8.89163C9.90863 8.91653 9.8803 8.96727 9.84564 9.00441C9.81099 9.04164 9.76101 9.11412 9.73465 9.16564C9.70821 9.21707 9.65952 9.28407 9.62649 9.31454C9.59337 9.345 9.56633 9.39164 9.56633 9.41825C9.56633 9.44478 9.53552 9.48876 9.49787 9.51589C9.46022 9.54302 9.42941 9.58923 9.42941 9.61858C9.42941 9.64793 9.3986 9.69414 9.36095 9.72127C9.3233 9.7484 9.29249 9.79803 9.29249 9.83149C9.29249 9.86504 9.27709 9.89242 9.25826 9.89242C9.23943 9.89242 9.22403 9.91553 9.22403 9.94376C9.22403 9.972 9.20863 9.99511 9.1898 9.99511C9.17097 9.99511 9.15557 10.0182 9.15557 10.0465C9.15557 10.0747 9.14017 10.0978 9.12134 10.0978C9.10251 10.0978 9.08711 10.114 9.08711 10.1337C9.08711 10.1534 9.0332 10.2538 8.96731 10.3568C8.90141 10.4599 8.8475 10.5558 8.8475 10.5701C8.8475 10.5845 8.8167 10.6183 8.77904 10.6455C8.74139 10.6726 8.71058 10.7151 8.71058 10.74C8.71058 10.7649 8.67978 10.8183 8.64212 10.8587C8.60447 10.8991 8.57366 10.9524 8.57366 10.9771C8.57366 11.0018 8.56014 11.022 8.54363 11.022C8.52703 11.022 8.49434 11.0682 8.47097 11.1247C8.44761 11.1812 8.41492 11.2274 8.39832 11.2274C8.38181 11.2274 8.36828 11.2476 8.36828 11.2723C8.36828 11.297 8.33748 11.3503 8.29983 11.3907C8.26217 11.4311 8.23137 11.4844 8.23137 11.5094C8.23137 11.5343 8.20056 11.5768 8.16291 11.6039C8.12525 11.631 8.09445 11.675 8.09445 11.7016C8.09445 11.7282 8.0674 11.7748 8.03429 11.8053C8.00126 11.8357 7.95239 11.903 7.92586 11.9548C7.89925 12.0065 7.86468 12.0489 7.84902 12.0489C7.83344 12.0489 7.82061 12.072 7.82061 12.1002C7.82061 12.1285 7.8052 12.1516 7.78638 12.1516C7.76755 12.1516 7.75215 12.179 7.75215 12.2125C7.75215 12.246 7.72134 12.2956 7.68369 12.3227C7.64603 12.3499 7.61523 12.3911 7.61523 12.4144C7.61523 12.4503 7.50792 12.6341 7.41892 12.7506C7.40454 12.7694 7.37091 12.8272 7.34413 12.879C7.31743 12.9307 7.28277 12.9731 7.26711 12.9731C7.25154 12.9731 7.2387 13.0039 7.2387 13.0416C7.2387 13.0792 7.22715 13.1101 7.21303 13.1102C7.19891 13.1103 7.13344 13.1949 7.06755 13.2983C7.00166 13.4017 6.93619 13.4863 6.92207 13.4864C6.90795 13.4865 6.8964 13.5139 6.8964 13.5475C6.8964 13.5809 6.8656 13.6306 6.82794 13.6577C6.79029 13.6848 6.75948 13.731 6.75948 13.7604C6.75948 13.7897 6.72868 13.836 6.69102 13.8631C6.65337 13.8902 6.62256 13.9327 6.62256 13.9576C6.62256 13.9825 6.59176 14.0359 6.55411 14.0763C6.51645 14.1167 6.48564 14.17 6.48564 14.1947C6.48564 14.2194 6.47024 14.2396 6.45141 14.2396C6.43259 14.2396 6.41719 14.2627 6.41719 14.291C6.41719 14.3192 6.40178 14.3423 6.38296 14.3423C6.36413 14.3423 6.34872 14.3654 6.34872 14.3936C6.34872 14.4219 6.33332 14.445 6.31449 14.445C6.29567 14.445 6.28027 14.4602 6.28027 14.4789C6.28027 14.5228 5.97177 15.0064 5.93463 15.0208C5.91897 15.0268 5.92102 15.0615 5.93917 15.0978C5.95731 15.1341 5.9876 15.1944 6.00643 15.2318C6.02525 15.2692 6.04066 15.3233 6.04066 15.3521C6.04066 15.3808 6.05443 15.4311 6.07121 15.4638C6.12692 15.5723 6.17758 15.9342 6.17758 16.2243V16.5104L6.41838 16.7442C6.55085 16.8728 6.67254 16.978 6.68871 16.978C6.70497 16.978 6.8335 17.0897 6.97436 17.2262C7.11522 17.3627 7.29005 17.5237 7.36296 17.584C7.43578 17.6444 7.57039 17.7637 7.66204 17.8493C7.75369 17.9349 7.84037 18.0049 7.85467 18.0049C7.86896 18.0049 7.99843 18.1204 8.14245 18.2616C8.28639 18.4028 8.41809 18.5183 8.43495 18.5183C8.45189 18.5183 8.57486 18.6262 8.70819 18.7579C8.8416 18.8897 8.95875 18.9976 8.96868 18.9976C8.9786 18.9976 9.03868 19.0476 9.10226 19.1088C9.34118 19.3389 9.53167 19.5073 9.58961 19.5398C9.65336 19.5754 9.99035 19.8818 10.4147 20.2897C10.5567 20.4262 10.6852 20.5379 10.7004 20.5379C10.7278 20.5379 10.8837 20.6699 11.085 20.8637C11.144 20.9204 11.2462 21.0048 11.3121 21.0511C11.3779 21.0974 11.5196 21.2242 11.6268 21.3329C11.734 21.4416 11.831 21.5306 11.8424 21.5306C11.8537 21.5306 11.9693 21.6384 12.0993 21.7702C12.2293 21.902 12.3479 22.0098 12.363 22.0098C12.4092 22.0099 12.9069 22.4454 13.2527 22.7885C13.3712 22.9062 13.4826 23.0024 13.5 23.0024C13.5175 23.0024 13.6397 23.1091 13.7715 23.2394L14.0113 23.4763L15.8022 23.49C17.02 23.4992 17.6261 23.5159 17.6959 23.5422C17.7524 23.5636 17.9179 23.6164 18.0637 23.6597C18.2095 23.703 18.3289 23.7499 18.329 23.7641C18.3291 23.7782 18.3578 23.7897 18.3928 23.7897C18.4709 23.7897 18.8768 23.9955 18.8768 24.0351C18.8768 24.0507 18.8999 24.0636 18.9282 24.0636C18.9564 24.0636 18.9795 24.079 18.9795 24.0978C18.9795 24.1166 19.0042 24.132 19.0343 24.132C19.0643 24.132 19.1321 24.1782 19.1849 24.2347C19.2377 24.2912 19.298 24.3374 19.3189 24.3374C19.357 24.3374 19.938 24.9009 19.938 24.9378C19.938 24.9485 19.9841 25.0065 20.0405 25.0667C20.0969 25.1268 20.1431 25.1953 20.1432 25.2188C20.1433 25.2424 20.1556 25.2616 20.1706 25.2616C20.2075 25.2616 20.4514 25.746 20.4514 25.8194C20.4514 25.8515 20.4668 25.8777 20.4856 25.8777C20.5045 25.8777 20.5199 25.9076 20.5199 25.9442C20.5199 25.9807 20.5353 26.0201 20.5541 26.0318C20.5729 26.0434 20.5883 26.0906 20.5883 26.1365C20.5883 26.1825 20.6037 26.22 20.6226 26.22C20.6414 26.22 20.6568 26.273 20.6568 26.3378C20.6568 26.4026 20.6722 26.4651 20.691 26.4768C20.7098 26.4884 20.7253 26.5587 20.7253 26.6329C20.7253 26.7071 20.7407 26.7677 20.7595 26.7677C20.7807 26.7677 20.7937 26.956 20.7937 27.2641C20.7937 27.5721 20.7807 27.7604 20.7595 27.7604C20.7407 27.7604 20.7253 27.7769 20.7253 27.7971C20.7253 27.8516 20.6351 27.9315 20.5737 27.9315C20.5441 27.9315 20.5199 27.9469 20.5199 27.9658C20.5199 27.9885 17.6446 28 11.9624 28C6.28027 28 3.40496 27.9885 3.40496 27.9658C3.40496 27.9469 3.38887 27.9315 3.36919 27.9315C3.31425 27.9315 3.16535 27.7701 3.16535 27.7106C3.16535 27.6815 3.14995 27.6577 3.13112 27.6577C3.11118 27.6577 3.09689 27.5436 3.09689 27.3839C3.09689 27.2241 3.11118 27.11 3.13112 27.11C3.15072 27.11 3.16535 27.0073 3.16535 26.8704C3.16535 26.7335 3.17998 26.6308 3.19958 26.6308C3.21841 26.6308 3.23381 26.5778 3.23381 26.5131C3.23381 26.4483 3.24707 26.3871 3.26325 26.3771C3.27942 26.3671 3.30218 26.2894 3.31382 26.2046C3.32546 26.1198 3.34917 26.0231 3.36645 25.9898C3.38382 25.9564 3.46341 25.7943 3.54333 25.6296C3.62326 25.4649 3.70191 25.3301 3.71799 25.3301C3.73408 25.3301 3.74726 25.3099 3.74726 25.2851C3.74726 25.2605 3.77807 25.2072 3.81572 25.1668C3.85337 25.1264 3.88418 25.0848 3.88418 25.0744C3.88418 25.0344 4.67301 24.2689 4.71425 24.2689C4.73813 24.2689 4.77689 24.2381 4.80042 24.2005C4.82396 24.1628 4.85913 24.132 4.87855 24.132C4.89798 24.132 4.94701 24.1012 4.9874 24.0636C5.0278 24.0259 5.08111 23.9951 5.10575 23.9951C5.13048 23.9951 5.15068 23.9797 5.15068 23.9609C5.15068 23.9421 5.18149 23.9266 5.21914 23.9266C5.25679 23.9266 5.2876 23.9112 5.2876 23.8924C5.2876 23.8736 5.31841 23.8582 5.35606 23.8582C5.39371 23.8582 5.42452 23.8428 5.42452 23.824C5.42452 23.8051 5.45439 23.7897 5.49093 23.7897C5.52747 23.7897 5.56692 23.7743 5.57855 23.7555C5.59019 23.7367 5.63734 23.7213 5.6833 23.7213C5.72925 23.7213 5.76682 23.7059 5.76682 23.687C5.76682 23.6682 5.81209 23.6528 5.86745 23.6528C5.92282 23.6528 5.97665 23.639 5.98709 23.6222C5.99744 23.6053 6.06385 23.5829 6.13453 23.5722C6.2053 23.5615 6.35557 23.5381 6.46853 23.5201C6.58149 23.5021 7.03974 23.4861 7.48687 23.4846C8.34022 23.4815 8.36717 23.4765 8.18712 23.3539C8.12534 23.3119 7.97858 23.1848 7.861 23.0715C7.74342 22.9582 7.63928 22.8655 7.62961 22.8655C7.61985 22.8655 7.50561 22.7577 7.37562 22.6259C7.24563 22.4941 7.12283 22.3863 7.10272 22.3863C7.08253 22.3863 6.98343 22.3054 6.88245 22.2066C6.78147 22.1078 6.64712 21.9884 6.58388 21.9413C6.52073 21.8943 6.37046 21.7595 6.24997 21.6418C6.12948 21.5241 6.01798 21.4279 6.00215 21.4279C5.98632 21.4279 5.85778 21.3123 5.71659 21.1711C5.57539 21.03 5.44668 20.9144 5.43051 20.9144C5.41442 20.9144 5.3315 20.849 5.24635 20.7689C5.16129 20.6889 5.01744 20.5619 4.92682 20.4866C4.83619 20.4112 4.66282 20.2534 4.54165 20.1357C4.42039 20.018 4.30683 19.9218 4.28929 19.9218C4.27175 19.9218 4.15109 19.8139 4.0211 19.6821C3.89111 19.5504 3.77002 19.4425 3.75205 19.4425C3.73408 19.4425 3.59973 19.3282 3.45357 19.1886C3.20001 18.9463 3.17896 18.9338 2.99686 18.9169C2.7095 18.8904 2.54921 18.8566 2.54921 18.8226C2.54921 18.8059 2.51165 18.7922 2.46569 18.7922C2.41974 18.7922 2.37259 18.7768 2.36095 18.7579C2.34931 18.7391 2.30986 18.7237 2.27332 18.7237C2.23678 18.7237 2.20692 18.7121 2.20692 18.6979C2.20692 18.6836 2.15686 18.6501 2.09567 18.6234C2.03448 18.5967 1.95952 18.5467 1.92906 18.5123C1.89859 18.478 1.85606 18.4499 1.83441 18.4499C1.78058 18.4499 1.21425 17.8796 1.21425 17.8254C1.21425 17.8014 1.18345 17.7625 1.14579 17.739C1.10814 17.7155 1.07733 17.6733 1.07733 17.6452C1.07733 17.6171 1.06193 17.5941 1.0431 17.5941C1.02428 17.5941 1.00887 17.5633 1.00887 17.5257C1.00887 17.488 0.99347 17.4572 0.974644 17.4572C0.955817 17.4572 0.940414 17.4264 0.940414 17.3888C0.940414 17.3511 0.925011 17.3203 0.906185 17.3203C0.887359 17.3203 0.871953 17.2827 0.871953 17.2368C0.871953 17.1908 0.85655 17.1437 0.837724 17.132C0.818897 17.1204 0.803495 17.0655 0.803495 17.0102C0.803495 16.9548 0.789545 16.9095 0.77243 16.9095C0.712443 16.9095 0.642358 15.9959 0.698067 15.9401C0.718434 15.9198 0.735036 15.8225 0.735036 15.7238C0.735036 15.6251 0.750439 15.5349 0.769265 15.5232C0.788092 15.5116 0.803495 15.4567 0.803495 15.4014C0.803495 15.346 0.818897 15.3007 0.837724 15.3007C0.85655 15.3007 0.871953 15.273 0.871953 15.2391C0.871953 15.1626 0.948458 14.9933 0.983202 14.9929C0.997321 14.9927 1.00887 14.9619 1.00887 14.9242C1.00887 14.8866 1.02428 14.8557 1.0431 14.8557C1.06193 14.8557 1.07733 14.835 1.07733 14.8094C1.07733 14.784 1.12354 14.7149 1.18002 14.6558C1.2365 14.5966 1.28271 14.5319 1.28271 14.5118C1.28271 14.4682 1.68414 14.0685 1.72804 14.0685C1.74498 14.0685 1.79419 14.0338 1.83741 13.9914C1.88062 13.9491 1.99298 13.8759 2.08711 13.8289C2.18124 13.7818 2.26339 13.7317 2.26964 13.7176C2.27597 13.7035 2.30969 13.6919 2.34469 13.6919C2.37961 13.6919 2.41777 13.6765 2.42941 13.6577C2.44105 13.6389 2.48657 13.6235 2.53047 13.6235C2.62324 13.6235 2.82305 13.4504 2.82305 13.3702C2.82305 13.34 2.83846 13.3154 2.85728 13.3154C2.87611 13.3154 2.89151 13.2952 2.89151 13.2705C2.89151 13.2458 2.92232 13.1925 2.95997 13.1521C2.99763 13.1117 3.02843 13.0583 3.02843 13.0334C3.02843 13.0085 3.05924 12.966 3.09689 12.9389C3.13454 12.9117 3.16535 12.8621 3.16535 12.8287C3.16535 12.7951 3.18075 12.7677 3.19958 12.7677C3.21841 12.7677 3.23381 12.7459 3.23381 12.7192C3.23381 12.6926 3.24536 12.6656 3.25948 12.6593C3.2736 12.6531 3.31271 12.594 3.34643 12.5281C3.44278 12.3399 3.49224 12.2596 3.55352 12.1919C3.58475 12.1573 3.61034 12.111 3.61034 12.089C3.61034 12.067 3.62574 12.0489 3.64457 12.0489C3.6634 12.0489 3.6788 12.0287 3.6788 12.004C3.6788 11.9793 3.7096 11.926 3.74726 11.8856C3.78491 11.8452 3.81572 11.7918 3.81572 11.7669C3.81572 11.742 3.84652 11.6995 3.88418 11.6724C3.92183 11.6452 3.95264 11.5956 3.95264 11.5622C3.95264 11.5286 3.96804 11.5012 3.98687 11.5012C4.00569 11.5012 4.0211 11.481 4.0211 11.4563C4.0211 11.4316 4.0519 11.3783 4.08956 11.3379C4.12721 11.2976 4.15802 11.2442 4.15802 11.2193C4.15802 11.1944 4.18882 11.1518 4.22648 11.1247C4.26413 11.0976 4.29493 11.0514 4.29493 11.022C4.29493 10.9927 4.32574 10.9464 4.3634 10.9193C4.40105 10.8922 4.43185 10.8426 4.43185 10.8091C4.43185 10.7755 4.44726 10.7482 4.46608 10.7482C4.48491 10.7482 4.50032 10.7285 4.50032 10.7044C4.50032 10.6803 4.53112 10.6384 4.56877 10.6112C4.60643 10.5841 4.63723 10.5379 4.63723 10.5086C4.63723 10.4792 4.66804 10.433 4.70569 10.4059C4.74335 10.3787 4.77415 10.3354 4.77415 10.3094C4.77415 10.2572 4.87145 10.0719 4.93452 10.0041C4.95677 9.98013 4.98484 9.92973 4.99673 9.89225C5.00863 9.85468 5.03276 9.82396 5.0503 9.82396C5.06785 9.82396 5.08222 9.80376 5.08222 9.77903C5.08222 9.75439 5.11303 9.70107 5.15068 9.66068C5.18833 9.62029 5.21914 9.56347 5.21914 9.53446C5.21914 9.50545 5.23454 9.48166 5.25337 9.48166C5.2722 9.48166 5.2876 9.45856 5.2876 9.43032C5.2876 9.40208 5.30044 9.37897 5.31601 9.37897C5.33167 9.37897 5.36624 9.33661 5.39286 9.28484C5.41939 9.23307 5.46825 9.16581 5.50128 9.13534C5.5344 9.10488 5.56144 9.05482 5.56144 9.0241C5.56144 8.99337 5.57684 8.96821 5.59567 8.96821C5.6145 8.96821 5.6299 8.94802 5.6299 8.92329C5.6299 8.89864 5.66071 8.84533 5.69836 8.80494C5.73601 8.76455 5.76682 8.71115 5.76682 8.68625C5.76682 8.66134 5.79762 8.61881 5.83528 8.59169C5.87293 8.56456 5.90374 8.52203 5.90374 8.49713C5.90374 8.47222 5.93454 8.41883 5.9722 8.37844C6.00985 8.33804 6.04066 8.28473 6.04066 8.26008C6.04066 8.23535 6.05606 8.21516 6.07489 8.21516C6.09371 8.21516 6.10912 8.19898 6.10912 8.1793C6.10912 8.15953 6.16303 8.05916 6.22892 7.95612C6.29481 7.85309 6.34872 7.75374 6.34872 7.73526C6.34872 7.71686 6.36225 7.70171 6.37876 7.70171C6.39536 7.70171 6.42805 7.6555 6.45141 7.59902C6.47478 7.54254 6.50747 7.49633 6.52407 7.49633C6.54058 7.49633 6.55411 7.46895 6.55411 7.4354C6.55411 7.40194 6.58491 7.35231 6.62256 7.32518C6.66022 7.29806 6.69102 7.25553 6.69102 7.23062C6.69102 7.20572 6.72183 7.15232 6.75948 7.11193C6.79714 7.07154 6.82794 7.01823 6.82794 6.99358C6.82794 6.96885 6.84335 6.94865 6.86217 6.94865C6.881 6.94865 6.8964 6.92846 6.8964 6.90373C6.8964 6.87908 6.92336 6.82902 6.9563 6.79248C6.98925 6.75603 7.03803 6.6838 7.06481 6.63203C7.09151 6.58026 7.12617 6.5379 7.14183 6.5379C7.1574 6.5379 7.17024 6.51479 7.17024 6.48655C7.17024 6.45831 7.18564 6.43521 7.20447 6.43521C7.2233 6.43521 7.2387 6.40782 7.2387 6.37428C7.2387 6.34082 7.26951 6.29119 7.30716 6.26406C7.34481 6.23693 7.37562 6.19072 7.37562 6.16137C7.37562 6.13202 7.40643 6.08581 7.44408 6.05868C7.48173 6.03155 7.51254 5.9832 7.51254 5.95128C7.51254 5.91936 7.52409 5.88813 7.53821 5.8818C7.55233 5.87555 7.6101 5.78193 7.66657 5.67368C7.72305 5.56551 7.78082 5.47694 7.79494 5.47686C7.80906 5.47686 7.82061 5.45658 7.82061 5.43185C7.82061 5.4072 7.84756 5.35637 7.88051 5.31889C8.08794 5.08304 8.0763 5.02922 7.77791 4.84249C7.68848 4.78661 7.61532 4.72928 7.61532 4.71516C7.61523 4.70104 7.59966 4.68949 7.58066 4.68949C7.56166 4.68949 7.49782 4.64328 7.43869 4.5868C7.37956 4.53032 7.31666 4.48411 7.29877 4.48411C7.24692 4.48411 6.62256 3.83391 6.62256 3.77991C6.62256 3.75304 6.60716 3.73105 6.58833 3.73105C6.56951 3.73105 6.55411 3.70153 6.55411 3.66542C6.55411 3.62939 6.54255 3.59473 6.52843 3.5884C6.46237 3.55905 6.31843 3.17696 6.25981 2.87531C6.20812 2.60934 6.24843 1.83754 6.31783 1.76455C6.33478 1.74666 6.34872 1.69754 6.34872 1.65535C6.34872 1.61317 6.36413 1.5691 6.38296 1.55746C6.40178 1.54582 6.41719 1.50637 6.41719 1.46983C6.41719 1.43329 6.43259 1.40342 6.45141 1.40342C6.47024 1.40342 6.48564 1.37262 6.48564 1.33496C6.48564 1.29731 6.50105 1.2665 6.51987 1.2665C6.5387 1.2665 6.55411 1.2357 6.55411 1.19804C6.55411 1.16039 6.56951 1.12958 6.58833 1.12958C6.60716 1.12958 6.62256 1.10956 6.62256 1.085C6.62256 1.06053 6.69932 0.956552 6.7932 0.853949C6.88699 0.75143 6.96401 0.655929 6.96435 0.641809C6.9646 0.627689 6.98951 0.616137 7.01963 0.616137C7.04967 0.616137 7.11744 0.569927 7.17024 0.513447C7.22304 0.456968 7.28739 0.410758 7.31332 0.410758C7.33925 0.410758 7.38272 0.379951 7.40985 0.342298C7.43698 0.304645 7.48661 0.273839 7.52007 0.273839C7.55362 0.273839 7.581 0.258435 7.581 0.239609C7.581 0.220782 7.61181 0.205379 7.64946 0.205379C7.68711 0.205379 7.71792 0.189976 7.71792 0.171149C7.71792 0.152323 7.75643 0.136919 7.80349 0.136919C7.85056 0.136919 7.88907 0.121516 7.88907 0.10269C7.88907 0.0838631 7.95068 0.0684596 8.02599 0.0684596C8.10129 0.0684596 8.16291 0.0530564 8.16291 0.03423C8.16291 0.0129219 8.36255 0 8.69347 0C9.02438 0 9.22403 0.0129219 9.22403 0.03423ZM8.36828 1.09535C8.36828 1.11418 8.32207 1.12958 8.2656 1.12958C8.20912 1.12958 8.16291 1.14499 8.16291 1.16381C8.16291 1.18264 8.1321 1.19804 8.09445 1.19804C8.05679 1.19804 8.02599 1.21345 8.02599 1.23227C8.02599 1.2511 8.00442 1.2665 7.97815 1.2665C7.87281 1.2665 7.44408 1.77516 7.44408 1.9001C7.44408 1.92594 7.42868 1.95658 7.40985 1.96821C7.39102 1.97985 7.37562 2.03471 7.37562 2.09007C7.37562 2.14544 7.36022 2.19071 7.34139 2.19071C7.32179 2.19071 7.30716 2.2934 7.30716 2.43032C7.30716 2.56724 7.32179 2.66993 7.34139 2.66993C7.36022 2.66993 7.37562 2.71049 7.37562 2.76004C7.37562 2.96773 7.76575 3.55836 7.9043 3.56042C7.92415 3.56076 7.99253 3.60697 8.05628 3.66311C8.12003 3.71933 8.18481 3.76528 8.20022 3.76528C8.21562 3.76528 8.26679 3.80379 8.31386 3.85086C8.36093 3.89792 8.41321 3.93643 8.43007 3.93643C8.44701 3.93643 8.50914 3.98264 8.56827 4.03912C8.6274 4.0956 8.68902 4.14181 8.70519 4.14181C8.72137 4.14181 8.78298 4.18802 8.84211 4.2445C8.90124 4.30098 8.95892 4.34719 8.97039 4.34719C8.98186 4.34719 9.03431 4.3934 9.08711 4.44988C9.13991 4.50636 9.20007 4.55257 9.22095 4.55257C9.24183 4.55257 9.30721 4.59878 9.36634 4.65526C9.42547 4.71174 9.49119 4.75795 9.5125 4.75795C9.53381 4.75795 9.57343 4.78875 9.60056 4.82641C9.62769 4.86406 9.66303 4.89487 9.67903 4.89487C9.70462 4.89487 10.138 5.18847 10.1825 5.23597C10.2268 5.28337 10.4891 5.47677 10.509 5.47677C10.5214 5.47677 10.5747 5.52298 10.6275 5.57946C10.6803 5.63594 10.7404 5.68215 10.7613 5.68215C10.7822 5.68215 10.8476 5.72836 10.9067 5.78484C10.9658 5.84132 11.0274 5.88753 11.0436 5.88753C11.0598 5.88753 11.1214 5.93374 11.1805 5.99022C11.2397 6.0467 11.3054 6.09291 11.3267 6.09291C11.348 6.09291 11.3876 6.12372 11.4147 6.16137C11.4419 6.19902 11.4838 6.22983 11.5078 6.22983C11.532 6.22983 11.5517 6.24523 11.5517 6.26406C11.5517 6.28288 11.5748 6.29829 11.603 6.29829C11.6312 6.29829 11.6543 6.31369 11.6543 6.33252C11.6543 6.35134 11.6698 6.36675 11.6886 6.36675C11.7074 6.36675 11.7228 6.33594 11.7228 6.29829C11.7228 6.26064 11.7382 6.22983 11.757 6.22983C11.7759 6.22983 11.7913 6.19902 11.7913 6.16137C11.7913 6.12372 11.8067 6.09291 11.8255 6.09291C11.8443 6.09291 11.8597 6.06321 11.8597 6.02693C11.8597 5.99056 11.879 5.9405 11.9025 5.91568C11.926 5.89078 11.983 5.8011 12.029 5.71638C12.0749 5.63166 12.1327 5.54198 12.1574 5.51708C12.1819 5.49226 12.202 5.45829 12.202 5.44169C12.202 5.425 12.2405 5.37288 12.2876 5.32582C12.3347 5.27875 12.3732 5.22903 12.3732 5.21534C12.3732 5.20156 12.4502 5.11608 12.5443 5.02537C12.6385 4.93466 12.7155 4.84754 12.7155 4.83171C12.7155 4.79106 13.0101 4.48411 13.0491 4.48411C13.1339 4.48411 13.4947 4.09029 13.4489 4.04768C13.4237 4.02414 13.3903 4.00489 13.3748 4.00489C13.3593 4.00489 13.3245 3.97408 13.2974 3.93643C13.2703 3.89878 13.224 3.86797 13.1947 3.86797C13.1653 3.86797 13.1191 3.83716 13.092 3.79951C13.0649 3.76186 13.0253 3.73105 13.0039 3.73105C12.9826 3.73105 12.9169 3.68484 12.8578 3.62836C12.7987 3.57188 12.7294 3.52567 12.7039 3.52567C12.6784 3.52567 12.6219 3.49487 12.5786 3.45721C12.5352 3.41956 12.4877 3.38875 12.473 3.38875C12.4585 3.38875 12.4261 3.36864 12.4013 3.34408C12.3764 3.31952 12.2559 3.23198 12.1336 3.14966C12.0112 3.06725 11.9059 2.98724 11.8997 2.97183C11.8934 2.95634 11.8698 2.94377 11.8473 2.94377C11.8248 2.94377 11.7842 2.91296 11.757 2.87531C11.7299 2.83765 11.6837 2.80685 11.6543 2.80685C11.625 2.80685 11.5788 2.77604 11.5517 2.73839C11.5245 2.70073 11.4783 2.66993 11.449 2.66993C11.4196 2.66993 11.3734 2.63912 11.3463 2.60147C11.3192 2.56381 11.2811 2.53301 11.2617 2.53292C11.2423 2.53292 11.1726 2.48671 11.1067 2.43032C11.0408 2.37392 10.971 2.32771 10.9516 2.32771C10.9323 2.32763 10.8942 2.29682 10.8671 2.25917C10.8399 2.22152 10.7903 2.19071 10.7568 2.19071C10.7233 2.19071 10.6959 2.17633 10.6959 2.15879C10.6959 2.14125 10.669 2.11823 10.636 2.10762C10.6031 2.09709 10.5314 2.04985 10.4767 2.00262C10.422 1.95546 10.3666 1.91687 10.3536 1.91687C10.3406 1.91687 10.2852 1.87836 10.2306 1.8313C10.1759 1.78432 10.1153 1.74581 10.0959 1.74572C10.0765 1.74572 10.0384 1.71491 10.0113 1.67726C9.98419 1.63961 9.93798 1.6088 9.90863 1.6088C9.87927 1.6088 9.83306 1.578 9.80594 1.54034C9.77881 1.50269 9.73483 1.47188 9.7083 1.47188C9.68168 1.47188 9.63505 1.44484 9.60458 1.41172C9.57412 1.37869 9.50686 1.32983 9.45508 1.3033C9.40331 1.27669 9.36095 1.24211 9.36095 1.22645C9.36095 1.21088 9.33014 1.19804 9.29249 1.19804C9.25484 1.19804 9.22403 1.18264 9.22403 1.16381C9.22403 1.14499 9.18552 1.12958 9.13846 1.12958C9.09139 1.12958 9.05288 1.11418 9.05288 1.09535C9.05288 1.07482 8.91596 1.06112 8.71058 1.06112C8.5052 1.06112 8.36828 1.07482 8.36828 1.09535ZM17.1311 3.83374C17.1311 3.85334 17.0284 3.86797 16.8915 3.86797C16.7546 3.86797 16.6519 3.8826 16.6519 3.9022C16.6519 3.92103 16.5749 3.93643 16.4808 3.93643C16.3866 3.93643 16.3096 3.95183 16.3096 3.97066C16.3096 3.98949 16.2566 4.00489 16.1919 4.00489C16.1271 4.00489 16.0645 4.02029 16.0529 4.03912C16.0412 4.05795 15.995 4.07335 15.9502 4.07335C15.9054 4.07335 15.8591 4.08875 15.8475 4.10758C15.8359 4.12641 15.7887 4.14181 15.7428 4.14181C15.6968 4.14181 15.6592 4.15721 15.6592 4.17604C15.6592 4.19487 15.613 4.21027 15.5565 4.21027C15.5001 4.21027 15.4539 4.22567 15.4539 4.2445C15.4539 4.26332 15.4231 4.27873 15.3854 4.27873C15.3477 4.27873 15.3169 4.29413 15.3169 4.31296C15.3169 4.33178 15.296 4.34719 15.2704 4.34719C15.2251 4.34719 14.8036 4.55009 14.7693 4.58834C14.7598 4.59886 14.6965 4.63335 14.6285 4.66493C14.5605 4.69659 14.4854 4.74588 14.4617 4.77446C14.438 4.80304 14.4012 4.82666 14.38 4.82709C14.3588 4.82743 14.2799 4.88134 14.2048 4.94689C14.1298 5.01236 14.0557 5.06601 14.0405 5.06601C13.9966 5.06601 13.2974 5.78544 13.2974 5.83054C13.2974 5.85287 13.2589 5.9126 13.2118 5.96343C13.1647 6.01418 13.1262 6.06938 13.1262 6.08615C13.1262 6.10284 13.0954 6.14442 13.0578 6.17848C13.0201 6.21254 12.9893 6.26115 12.9893 6.28648C12.9893 6.31181 12.9758 6.33252 12.9593 6.33252C12.9427 6.33252 12.91 6.37873 12.8866 6.43521C12.8633 6.49169 12.8306 6.5379 12.814 6.5379C12.7975 6.5379 12.7839 6.5687 12.7839 6.60636C12.7839 6.64401 12.7685 6.67482 12.7497 6.67482C12.7309 6.67482 12.7155 6.70562 12.7155 6.74328C12.7155 6.78093 12.7001 6.81174 12.6812 6.81174C12.6624 6.81174 12.647 6.84254 12.647 6.8802C12.647 6.91785 12.6316 6.94865 12.6128 6.94865C12.594 6.94865 12.5786 6.99487 12.5786 7.05134C12.5786 7.10782 12.5632 7.15403 12.5443 7.15403C12.5255 7.15403 12.5101 7.19254 12.5101 7.23961C12.5101 7.28667 12.4947 7.32518 12.4759 7.32518C12.457 7.32518 12.4416 7.37139 12.4416 7.42787C12.4416 7.48435 12.4262 7.53056 12.4074 7.53056C12.3886 7.53056 12.3732 7.57583 12.3732 7.6312C12.3732 7.68656 12.3578 7.74142 12.3389 7.75306C12.3201 7.76469 12.3047 7.84265 12.3047 7.92626C12.3047 8.00986 12.2893 8.07824 12.2705 8.07824C12.2511 8.07824 12.2363 8.17519 12.2363 8.30073C12.2363 8.42627 12.2214 8.52323 12.202 8.52323C12.1806 8.52323 12.1678 8.72792 12.1678 9.06885C12.1678 9.39575 12.1815 9.62303 12.202 9.6357C12.2209 9.64733 12.2363 9.7561 12.2363 9.87736C12.2363 10.0015 12.2512 10.0978 12.2705 10.0978C12.2893 10.0978 12.3047 10.1748 12.3047 10.2689C12.3047 10.3631 12.3201 10.4401 12.3389 10.4401C12.3578 10.4401 12.3732 10.5017 12.3732 10.577C12.3732 10.6523 12.3886 10.7139 12.4074 10.7139C12.4262 10.7139 12.4416 10.7601 12.4416 10.8166C12.4416 10.8731 12.457 10.9193 12.4759 10.9193C12.4947 10.9193 12.5101 10.958 12.5101 11.0053C12.5101 11.0882 12.5209 11.1194 12.6075 11.2869C12.6292 11.329 12.647 11.3944 12.647 11.4323C12.647 11.4702 12.6624 11.5012 12.6812 11.5012C12.7001 11.5012 12.7155 11.532 12.7155 11.5697C12.7155 11.6073 12.7309 11.6381 12.7497 11.6381C12.7685 11.6381 12.7839 11.6757 12.7839 11.7217C12.7839 11.7676 12.7993 11.8148 12.8182 11.8264C12.837 11.838 12.8524 11.8775 12.8524 11.914C12.8524 11.9506 12.8678 11.9804 12.8866 11.9804C12.9054 11.9804 12.9209 12.0112 12.9209 12.0489C12.9209 12.0866 12.9325 12.1174 12.9467 12.1174C12.961 12.1174 12.9944 12.1674 13.021 12.2286C13.0476 12.2898 13.0789 12.3476 13.0905 12.357C13.1022 12.3664 13.1573 12.4627 13.2131 12.5708C13.2689 12.6791 13.326 12.7676 13.3402 12.7676C13.3543 12.7677 13.3658 12.7951 13.3658 12.8287C13.3658 12.8621 13.3966 12.9117 13.4343 12.9389C13.472 12.966 13.5028 13.0122 13.5028 13.0416C13.5028 13.0709 13.5336 13.1171 13.5712 13.1443C13.6089 13.1714 13.6397 13.2131 13.6397 13.2368C13.6397 13.2606 13.6932 13.3381 13.7587 13.4089C14.0047 13.6753 14.5539 14.2569 14.7432 14.4516L14.9396 14.6534L15.0598 14.5332C15.1259 14.4672 15.18 14.397 15.18 14.3774C15.18 14.3577 15.2262 14.2933 15.2827 14.2342C15.3392 14.1751 15.3854 14.1094 15.3854 14.0881C15.3854 14.0667 15.4162 14.0271 15.4539 14C15.4915 13.9729 15.5223 13.9309 15.5223 13.9069C15.5223 13.8828 15.5377 13.8631 15.5565 13.8631C15.5754 13.8631 15.5908 13.8434 15.5908 13.8193C15.5908 13.7952 15.6216 13.7533 15.6592 13.7262C15.6969 13.699 15.7277 13.6633 15.7277 13.6467C15.7277 13.6302 15.7739 13.5736 15.8304 13.5208C15.8869 13.468 15.9331 13.4064 15.9331 13.3839C15.9331 13.3614 15.9793 13.2997 16.0358 13.2469C16.0922 13.1941 16.1385 13.13 16.1385 13.1045C16.1385 13.0789 16.177 13.0165 16.224 12.9657C16.2711 12.9149 16.3096 12.8596 16.3096 12.8428C16.3096 12.8259 16.3558 12.7638 16.4123 12.7047C16.4688 12.6455 16.515 12.5855 16.515 12.5712C16.5151 12.557 16.5549 12.499 16.6036 12.4425C16.6522 12.3861 16.7172 12.2975 16.7478 12.2457C16.7785 12.1939 16.8157 12.1516 16.8304 12.1516C16.8452 12.1516 16.8573 12.1346 16.8573 12.1139C16.8573 12.0933 16.9035 12.0332 16.96 11.9804C17.0165 11.9276 17.0627 11.866 17.0627 11.8435C17.0627 11.821 17.1089 11.7594 17.1653 11.7066C17.2218 11.6538 17.268 11.5922 17.268 11.5697C17.268 11.5472 17.3143 11.4856 17.3707 11.4328C17.4272 11.38 17.4734 11.3194 17.4734 11.298C17.4734 11.2767 17.5047 11.2251 17.5427 11.1834C17.5809 11.1417 17.6679 11.0236 17.7362 10.921C17.8046 10.8185 17.8966 10.6984 17.9407 10.6542C17.985 10.61 18.0211 10.5599 18.0211 10.5428C18.0211 10.5257 18.0596 10.4731 18.1067 10.4261C18.1537 10.379 18.1922 10.3267 18.1922 10.3099C18.1922 10.2929 18.2385 10.2308 18.2949 10.1716C18.3514 10.1125 18.3976 10.0471 18.3976 10.0263C18.3976 10.0054 18.4438 9.94522 18.5003 9.89242C18.5568 9.83962 18.603 9.77801 18.603 9.7555C18.603 9.73299 18.6492 9.67138 18.7057 9.61858C18.7622 9.56578 18.8084 9.50802 18.8084 9.49013C18.8084 9.47225 18.853 9.41089 18.9075 9.3539C18.962 9.29691 19.0169 9.21758 19.0296 9.1777C19.0423 9.13774 19.066 9.10513 19.0822 9.10513C19.0985 9.10513 19.1213 9.0751 19.1331 9.03839C19.1447 9.00176 19.1996 8.92312 19.2551 8.86364C19.3106 8.80425 19.3561 8.74255 19.3561 8.72655C19.3561 8.71055 19.3946 8.65895 19.4416 8.61188C19.4887 8.56482 19.5272 8.51253 19.5272 8.49567C19.5272 8.47873 19.5734 8.4166 19.6299 8.35747C19.6864 8.29834 19.7326 8.23672 19.7326 8.22055C19.7326 8.20438 19.7788 8.14276 19.8353 8.08363C19.8918 8.0245 19.938 7.96614 19.938 7.9539C19.938 7.94166 19.9842 7.88749 20.0407 7.8335C20.0971 7.7795 20.1433 7.71994 20.1433 7.70111C20.1433 7.68229 20.1896 7.61853 20.246 7.5594C20.3025 7.50027 20.3487 7.43112 20.3487 7.40571C20.3487 7.38021 20.3606 7.35941 20.3752 7.35941C20.3897 7.35941 20.4291 7.30841 20.4626 7.24611C20.4963 7.18373 20.5627 7.08746 20.6103 7.03218C20.658 6.97681 20.7221 6.88918 20.7527 6.83741C20.7834 6.78564 20.8206 6.74328 20.8353 6.74328C20.8501 6.74328 20.8622 6.72676 20.8622 6.70656C20.8622 6.68645 20.8814 6.64966 20.905 6.62484C20.9875 6.5379 21.0676 6.43427 21.0676 6.41433C21.0676 6.40329 21.1138 6.35109 21.1702 6.29829C21.2267 6.24549 21.2729 6.18533 21.2729 6.16445C21.2729 6.14357 21.3191 6.07819 21.3756 6.01906C21.4321 5.95993 21.4783 5.8942 21.4783 5.8729C21.4783 5.85159 21.5091 5.81197 21.5468 5.78484C21.5844 5.75771 21.6152 5.71578 21.6152 5.69174C21.6152 5.6676 21.6306 5.64792 21.6495 5.64792C21.6683 5.64792 21.6837 5.62824 21.6837 5.60411C21.6837 5.58006 21.7145 5.53813 21.7521 5.511C21.7898 5.48387 21.8206 5.44194 21.8206 5.4179C21.8206 5.39376 21.836 5.37408 21.8548 5.37408C21.8737 5.37408 21.8891 5.35286 21.8891 5.32693C21.8891 5.301 21.9122 5.26061 21.9404 5.23716C22.0054 5.18317 22.0074 5.06601 21.9432 5.06601C21.9166 5.06601 21.8897 5.05446 21.8833 5.04034C21.8686 5.00705 21.5056 4.81648 20.8161 4.47991C20.7437 4.44457 20.6629 4.41565 20.6364 4.41565C20.61 4.41565 20.5883 4.40024 20.5883 4.38142C20.5883 4.36259 20.5498 4.34719 20.5028 4.34719C20.4557 4.34719 20.4172 4.33178 20.4172 4.31296C20.4172 4.29413 20.371 4.27873 20.3145 4.27873C20.258 4.27873 20.2118 4.26332 20.2118 4.2445C20.2118 4.22567 20.1656 4.21027 20.1091 4.21027C20.0526 4.21027 20.0064 4.19487 20.0064 4.17604C20.0064 4.15721 19.9602 4.14181 19.9037 4.14181C19.8473 4.14181 19.801 4.12641 19.801 4.10758C19.801 4.08875 19.7394 4.07335 19.6641 4.07335C19.5888 4.07335 19.5272 4.05795 19.5272 4.03912C19.5272 4.02029 19.4656 4.00489 19.3903 4.00489C19.315 4.00489 19.2534 3.98949 19.2534 3.97066C19.2534 3.95183 19.1687 3.93643 19.0651 3.93643C18.9616 3.93643 18.8768 3.92103 18.8768 3.9022C18.8768 3.88226 18.7628 3.86797 18.603 3.86797C18.4432 3.86797 18.3292 3.85368 18.3292 3.83374C18.3292 3.81226 18.1067 3.79951 17.7301 3.79951C17.3536 3.79951 17.1311 3.81226 17.1311 3.83374ZM8.64212 6.2152C8.64212 6.22478 8.61132 6.26577 8.57366 6.30616C8.53601 6.34655 8.5052 6.39987 8.5052 6.42451C8.5052 6.44924 8.4898 6.46944 8.47097 6.46944C8.45215 6.46944 8.43674 6.48963 8.43674 6.51436C8.43674 6.53901 8.40594 6.59232 8.36828 6.63271C8.33063 6.6731 8.29983 6.7265 8.29983 6.75141C8.29983 6.77631 8.26902 6.81884 8.23137 6.84597C8.19371 6.87309 8.16291 6.91562 8.16291 6.94053C8.16291 6.96543 8.1321 7.01883 8.09445 7.05922C8.05679 7.09961 8.02599 7.15292 8.02599 7.17757C8.02599 7.2023 8.01058 7.22249 7.99176 7.22249C7.97293 7.22249 7.95753 7.24269 7.95753 7.26742C7.95753 7.29207 7.92672 7.34538 7.88907 7.38577C7.85141 7.42616 7.82061 7.47733 7.82061 7.49941C7.82061 7.52158 7.79288 7.56453 7.75899 7.595C7.72502 7.62546 7.67051 7.70428 7.63774 7.77017C7.53958 7.96742 7.43877 8.12881 7.40625 8.14096C7.3894 8.1473 7.37562 8.17485 7.37562 8.20232C7.37562 8.22979 7.34481 8.28533 7.30716 8.32572C7.26951 8.36611 7.2387 8.41943 7.2387 8.44407C7.2387 8.4688 7.2233 8.489 7.20447 8.489C7.18564 8.489 7.17024 8.50919 7.17024 8.53392C7.17024 8.55857 7.13943 8.61188 7.10178 8.65227C7.06413 8.69266 7.03332 8.74606 7.03332 8.77096C7.03332 8.79587 7.00251 8.8384 6.96486 8.86553C6.92721 8.89265 6.8964 8.94229 6.8964 8.97575C6.8964 9.00929 6.881 9.03667 6.86217 9.03667C6.84335 9.03667 6.82794 9.05636 6.82794 9.08049C6.82794 9.10453 6.79714 9.14647 6.75948 9.17359C6.72183 9.20072 6.69102 9.24693 6.69102 9.27628C6.69102 9.30563 6.66022 9.35185 6.62256 9.37897C6.58491 9.4061 6.55411 9.45573 6.55411 9.48919C6.55411 9.52274 6.5387 9.55012 6.51987 9.55012C6.50105 9.55012 6.48564 9.57032 6.48564 9.59505C6.48564 9.61969 6.45484 9.67301 6.41719 9.7134C6.37953 9.75379 6.34872 9.80719 6.34872 9.83209C6.34872 9.85699 6.31792 9.89952 6.28027 9.92665C6.24261 9.95378 6.21181 10.0015 6.21181 10.0327C6.21181 10.0639 6.1887 10.1086 6.16046 10.132C6.13222 10.1555 6.10912 10.1892 6.10912 10.2071C6.10912 10.2249 6.06291 10.3067 6.00643 10.3888C5.94995 10.4708 5.90374 10.5511 5.90374 10.5671C5.90374 10.5831 5.87293 10.6183 5.83528 10.6455C5.79762 10.6726 5.76682 10.7222 5.76682 10.7557C5.76682 10.7892 5.7533 10.8166 5.73678 10.8166C5.72018 10.8166 5.68749 10.8628 5.66413 10.9193C5.64077 10.9758 5.60808 11.022 5.59148 11.022C5.57496 11.022 5.56144 11.0494 5.56144 11.0829C5.56144 11.1164 5.53063 11.166 5.49298 11.1932C5.45533 11.2203 5.42452 11.2628 5.42452 11.2877C5.42452 11.3126 5.39371 11.366 5.35606 11.4064C5.31841 11.4468 5.2876 11.5001 5.2876 11.5248C5.2876 11.5495 5.2722 11.5697 5.25337 11.5697C5.23454 11.5697 5.21914 11.5899 5.21914 11.6146C5.21914 11.6393 5.19218 11.6893 5.15924 11.7259C5.12629 11.7623 5.07751 11.8345 5.05073 11.8863C5.02403 11.9381 4.98937 11.9804 4.97371 11.9804C4.95814 11.9804 4.9453 12.0035 4.9453 12.0318C4.9453 12.06 4.9299 12.0831 4.91107 12.0831C4.89225 12.0831 4.87684 12.1105 4.87684 12.1441C4.87684 12.1775 4.84603 12.2272 4.80838 12.2543C4.77073 12.2814 4.73992 12.3299 4.73992 12.3621C4.73992 12.3942 4.72067 12.4413 4.69714 12.4668C4.63843 12.5303 4.53437 12.7036 4.51135 12.7763C4.50091 12.8092 4.47875 12.8362 4.46206 12.8362C4.44546 12.8362 4.43185 12.8564 4.43185 12.8811C4.43185 12.9058 4.4049 12.9558 4.37195 12.9924C4.33901 13.0288 4.29023 13.101 4.26344 13.1528C4.23675 13.2046 4.20209 13.2469 4.18643 13.2469C4.17085 13.2469 4.15767 13.2662 4.15725 13.2897C4.15682 13.3133 4.12635 13.371 4.08956 13.4181C4.0015 13.5306 4.00424 13.555 4.10462 13.555C4.15057 13.555 4.19772 13.5704 4.20936 13.5892C4.221 13.6081 4.26062 13.6235 4.29742 13.6235C4.33422 13.6235 4.39104 13.6369 4.42372 13.6533C4.82019 13.8523 4.93324 13.9153 4.99194 13.97C5.02985 14.0053 5.07983 14.0342 5.10293 14.0342C5.12604 14.0342 5.15231 14.0535 5.16129 14.077C5.17798 14.1211 5.35606 13.9641 5.35606 13.9053C5.35606 13.8892 5.38302 13.8461 5.41596 13.8096C5.44891 13.7731 5.49769 13.7009 5.52447 13.6491C5.55117 13.5974 5.58583 13.555 5.60149 13.555C5.61706 13.555 5.6299 13.5319 5.6299 13.5037C5.6299 13.4754 5.6453 13.4523 5.66413 13.4523C5.68295 13.4523 5.69836 13.4249 5.69836 13.3914C5.69836 13.3579 5.72917 13.3083 5.76682 13.2812C5.80447 13.254 5.83528 13.2078 5.83528 13.1785C5.83528 13.1491 5.86609 13.1029 5.90374 13.0758C5.94139 13.0487 5.9722 13.0025 5.9722 12.9731C5.9722 12.9438 6.00301 12.8975 6.04066 12.8704C6.07831 12.8433 6.10912 12.7937 6.10912 12.7602C6.10912 12.7266 6.12349 12.6993 6.14103 12.6993C6.15858 12.6993 6.18305 12.6675 6.19529 12.6288C6.22267 12.5427 6.4865 12.1389 6.52578 12.1231C6.54135 12.1168 6.55411 12.0855 6.55411 12.0536C6.55411 12.0217 6.58491 11.9733 6.62256 11.9462C6.66022 11.9191 6.69102 11.8729 6.69102 11.8435C6.69102 11.8142 6.72183 11.768 6.75948 11.7408C6.79714 11.7137 6.82794 11.6712 6.82794 11.6463C6.82794 11.6214 6.85875 11.568 6.8964 11.5276C6.93406 11.4872 6.96486 11.4339 6.96486 11.4092C6.96486 11.3845 6.98026 11.3643 6.99909 11.3643C7.01792 11.3643 7.03332 11.3412 7.03332 11.313C7.03332 11.2847 7.04873 11.2616 7.06755 11.2616C7.08638 11.2616 7.10178 11.2385 7.10178 11.2103C7.10178 11.182 7.11718 11.1589 7.13601 11.1589C7.15484 11.1589 7.17024 11.1387 7.17024 11.114C7.17024 11.0894 7.1972 11.0393 7.23014 11.0027C7.26309 10.9663 7.31187 10.8941 7.33865 10.8423C7.36535 10.7905 7.40001 10.7482 7.41567 10.7482C7.43124 10.7482 7.44408 10.7285 7.44408 10.7044C7.44408 10.6803 7.47489 10.6384 7.51254 10.6112C7.55019 10.5841 7.581 10.5356 7.581 10.5034C7.581 10.4713 7.60051 10.4246 7.6243 10.3998C7.64809 10.3749 7.70585 10.2814 7.75257 10.1919C7.79938 10.1025 7.84919 10.0293 7.86331 10.0293C7.87751 10.0293 7.88907 10.0091 7.88907 9.98441C7.88907 9.95977 7.91602 9.90971 7.94897 9.87317C7.98192 9.83671 8.03069 9.76449 8.05748 9.71271C8.08418 9.66094 8.11884 9.61858 8.1345 9.61858C8.15007 9.61858 8.16291 9.59839 8.16291 9.57366C8.16291 9.54901 8.18986 9.49895 8.22281 9.46241C8.25575 9.42595 8.30445 9.35398 8.33098 9.30255C8.3575 9.25104 8.40756 9.17856 8.44222 9.14133C8.47688 9.10419 8.5052 9.05345 8.5052 9.02855C8.5052 9.00364 8.53601 8.96111 8.57366 8.93398C8.61132 8.90686 8.64212 8.86065 8.64212 8.8313C8.64212 8.80194 8.67293 8.75573 8.71058 8.72861C8.74824 8.70148 8.77904 8.65527 8.77904 8.62592C8.77904 8.59656 8.80985 8.55035 8.8475 8.52323C8.88516 8.4961 8.91596 8.44647 8.91596 8.41301C8.91596 8.37946 8.9288 8.35208 8.94437 8.35208C8.96003 8.35208 8.99426 8.30972 9.02036 8.25795C9.10431 8.09185 9.30036 7.78763 9.33117 7.7759C9.34751 7.76957 9.36095 7.73834 9.36095 7.70642C9.36095 7.6745 9.39176 7.62615 9.42941 7.59902C9.46706 7.57189 9.49787 7.52568 9.49787 7.49633C9.49787 7.46698 9.52868 7.42077 9.56633 7.39364C9.60398 7.36652 9.63479 7.32398 9.63479 7.29908C9.63479 7.27418 9.6656 7.22078 9.70325 7.18039C9.7409 7.14 9.77171 7.08669 9.77171 7.06204C9.77171 7.03731 9.78711 7.01711 9.80594 7.01711C9.82476 7.01711 9.84017 6.99692 9.84017 6.97219C9.84017 6.94754 9.87097 6.89423 9.90863 6.85384C9.94628 6.81345 9.97709 6.76724 9.97709 6.75115C9.97709 6.73506 10.0086 6.68817 10.047 6.64692L10.1169 6.57187L10.0314 6.48647C9.98445 6.4394 9.926 6.40072 9.90161 6.40046C9.87722 6.40012 9.80517 6.35391 9.74141 6.29777C9.67766 6.24155 9.61331 6.1956 9.59833 6.1956C9.58344 6.1956 9.55084 6.17583 9.52602 6.1517C9.50112 6.12757 9.42684 6.06998 9.36095 6.02385C9.21094 5.91868 9.13195 5.85518 9.04082 5.76644L8.96919 5.6967L8.80566 5.94718C8.71572 6.08495 8.64212 6.20561 8.64212 6.2152ZM20.911 8.4694C20.8842 8.49636 20.8622 8.53632 20.8622 8.5584C20.8622 8.58039 20.816 8.64158 20.7595 8.69438C20.703 8.74718 20.6568 8.80879 20.6568 8.8313C20.6568 8.8538 20.6106 8.91542 20.5541 8.96821C20.4976 9.02101 20.4514 9.0804 20.4514 9.10017C20.4514 9.12002 20.4129 9.17479 20.3658 9.22186C20.3188 9.26892 20.2803 9.31967 20.2802 9.33465C20.2802 9.34962 20.234 9.41577 20.1776 9.48166C20.1212 9.54756 20.075 9.6173 20.075 9.63672C20.0749 9.65606 20.0441 9.69414 20.0064 9.72127C19.9688 9.7484 19.938 9.78802 19.938 9.80933C19.938 9.83064 19.8918 9.89636 19.8353 9.95549C19.7788 10.0146 19.7326 10.0762 19.7326 10.0924C19.7326 10.1086 19.6864 10.1702 19.6299 10.2293C19.5734 10.2885 19.5272 10.3501 19.5272 10.3662C19.5272 10.3824 19.481 10.444 19.4245 10.5032C19.368 10.5623 19.3218 10.6186 19.3218 10.6284C19.3218 10.6381 19.2756 10.6944 19.2191 10.7536C19.1627 10.8127 19.1165 10.8748 19.1165 10.8917C19.1165 10.9085 19.0779 10.9638 19.0309 11.0146C18.9838 11.0654 18.9453 11.1234 18.9453 11.1435C18.9453 11.1637 18.9179 11.2101 18.8845 11.2466C18.851 11.2831 18.786 11.3669 18.7399 11.4328C18.6939 11.4987 18.6288 11.5824 18.5954 11.6189C18.5619 11.6554 18.5345 11.7021 18.5345 11.7226C18.5345 11.7431 18.5037 11.7822 18.4661 11.8093C18.4284 11.8364 18.3976 11.8728 18.3976 11.8902C18.3976 11.9075 18.3514 11.9658 18.2949 12.0198C18.2385 12.0738 18.1922 12.1347 18.1922 12.1553C18.1922 12.1758 18.146 12.2357 18.0896 12.2885C18.0331 12.3413 17.9869 12.4015 17.9869 12.4223C17.9869 12.4432 17.9407 12.5086 17.8842 12.5677C17.8277 12.6269 17.7815 12.6904 17.7815 12.7088C17.7815 12.7274 17.7521 12.7681 17.7162 12.7992C17.6188 12.8837 17.6136 12.9835 17.7045 13.0237C17.7468 13.0424 17.7815 13.0695 17.7815 13.0839C17.7815 13.0983 17.8123 13.11 17.8499 13.11C17.8876 13.11 17.9184 13.1254 17.9184 13.1443C17.9184 13.1631 17.9492 13.1785 17.9869 13.1785C18.0245 13.1785 18.0553 13.1939 18.0553 13.2127C18.0553 13.2315 18.0861 13.2469 18.1238 13.2469C18.1614 13.2469 18.1922 13.2623 18.1922 13.2812C18.1922 13.3 18.2308 13.3154 18.2778 13.3154C18.3249 13.3154 18.3634 13.3308 18.3634 13.3496C18.3634 13.3685 18.416 13.3839 18.4804 13.3839C18.5446 13.3839 18.6035 13.4024 18.611 13.4251C18.6309 13.4848 19.8153 13.486 19.875 13.4263C19.8983 13.4029 19.9683 13.3839 20.0304 13.3839C20.0925 13.3839 20.1433 13.3685 20.1433 13.3496C20.1433 13.3308 20.1732 13.3154 20.2098 13.3154C20.2463 13.3154 20.2857 13.3 20.2974 13.2812C20.309 13.2623 20.3485 13.2469 20.385 13.2469C20.4215 13.2469 20.4514 13.2315 20.4514 13.2127C20.4514 13.1939 20.4822 13.1785 20.5199 13.1785C20.5575 13.1785 20.5883 13.1631 20.5883 13.1443C20.5883 13.1254 20.6114 13.11 20.6397 13.11C20.6679 13.11 20.691 13.0946 20.691 13.0758C20.691 13.057 20.7141 13.0416 20.7424 13.0416C20.7706 13.0416 20.7937 13.0262 20.7937 13.0073C20.7937 12.9885 20.8168 12.9731 20.8451 12.9731C20.8733 12.9731 20.8964 12.9577 20.8964 12.9389C20.8964 12.92 20.9121 12.9046 20.9311 12.9046C20.9764 12.9046 21.5468 12.3343 21.5468 12.289C21.5468 12.2699 21.5622 12.2543 21.581 12.2543C21.5998 12.2543 21.6152 12.2312 21.6152 12.2029C21.6152 12.1747 21.6306 12.1516 21.6495 12.1516C21.6683 12.1516 21.6837 12.1285 21.6837 12.1002C21.6837 12.072 21.6991 12.0489 21.7179 12.0489C21.7367 12.0489 21.7521 12.0181 21.7521 11.9804C21.7521 11.9428 21.7676 11.912 21.7864 11.912C21.8052 11.912 21.8206 11.8812 21.8206 11.8435C21.8206 11.8059 21.836 11.7751 21.8548 11.7751C21.8737 11.7751 21.8891 11.7525 21.8891 11.7249C21.8891 11.6793 21.9253 11.5525 22.0298 11.2323C22.0762 11.09 22.0777 10.0943 22.0316 10.0072C21.9889 9.92648 21.8891 9.59154 21.8891 9.52907C21.8891 9.50297 21.8737 9.48166 21.8548 9.48166C21.836 9.48166 21.8206 9.46164 21.8206 9.43716C21.8206 9.37418 21.7401 9.20842 21.7094 9.20808C21.6952 9.20791 21.6837 9.18472 21.6837 9.15648C21.6837 9.12824 21.6683 9.10513 21.6495 9.10513C21.6306 9.10513 21.6152 9.08203 21.6152 9.05379C21.6152 9.02555 21.5998 9.00244 21.581 9.00244C21.5622 9.00244 21.5468 8.98679 21.5468 8.9677C21.5468 8.91713 21.0587 8.42627 21.0052 8.42319C20.9804 8.42174 20.938 8.44253 20.911 8.4694ZM3.07978 14.6161C3.06814 14.635 3.0274 14.6504 2.98924 14.6504C2.77188 14.6504 2.00154 15.222 2.00154 15.3832C2.00154 15.4132 1.98999 15.4378 1.97587 15.4379C1.96175 15.4381 1.92255 15.5344 1.88875 15.6518C1.85495 15.7694 1.81259 15.9128 1.79462 15.9706C1.75166 16.1089 1.75269 16.4206 1.79616 16.4474C1.81499 16.4591 1.8303 16.5101 1.83022 16.5607C1.83004 16.6719 1.93556 16.978 1.97407 16.978C1.98921 16.978 2.00154 17.0054 2.00154 17.0389C2.00154 17.0724 2.03234 17.122 2.07 17.1491C2.10765 17.1763 2.13846 17.2187 2.13846 17.2434C2.13846 17.3018 2.36232 17.5257 2.42068 17.5257C2.44541 17.5257 2.48786 17.5565 2.51498 17.5941C2.54211 17.6318 2.59174 17.6626 2.6252 17.6626C2.65875 17.6626 2.68613 17.678 2.68613 17.6968C2.68613 17.7156 2.716 17.7311 2.75254 17.7311C2.78908 17.7311 2.82802 17.7456 2.83897 17.7633C2.84992 17.781 2.93165 17.8052 3.02064 17.817C3.10964 17.8288 3.21575 17.8546 3.25632 17.8744C3.29696 17.8942 3.38168 17.9016 3.44458 17.8909C3.50756 17.8801 3.64611 17.8567 3.75256 17.8388C4.00937 17.7957 4.19687 17.7281 4.26473 17.6544C4.29519 17.6213 4.33789 17.5941 4.35963 17.5941C4.50964 17.5941 5.01376 16.8635 5.01376 16.646C5.01376 16.6049 5.02917 16.5618 5.04799 16.5501C5.09121 16.5234 5.09318 15.9705 5.0503 15.8908C5.03268 15.8581 4.99853 15.7581 4.97431 15.6687C4.95018 15.5793 4.91835 15.5061 4.90363 15.5061C4.88891 15.5061 4.87684 15.4753 4.87684 15.4377C4.87684 15.4 4.86495 15.3692 4.8504 15.3692C4.83585 15.3692 4.79349 15.3114 4.75627 15.2408C4.67557 15.0878 4.55491 14.9584 4.49296 14.9584C4.4684 14.9584 4.40678 14.9199 4.35595 14.8729C4.3052 14.8258 4.23991 14.7873 4.21081 14.7873C4.1818 14.7873 4.15802 14.7719 4.15802 14.7531C4.15802 14.7342 4.13474 14.7188 4.10624 14.7188C4.07775 14.7188 4.02769 14.7052 3.995 14.6886C3.84755 14.6137 3.70832 14.5889 3.41557 14.5856C3.2386 14.5835 3.09167 14.5969 3.07978 14.6161ZM5.71795 17.7476C5.69776 17.7827 5.63888 17.8572 5.58711 17.9132C5.53534 17.9692 5.49298 18.03 5.49298 18.0481C5.49298 18.0885 5.25226 18.313 5.20904 18.313C5.1921 18.313 5.13502 18.3592 5.08222 18.4156C5.02942 18.4721 4.96165 18.5183 4.93161 18.5183C4.90149 18.5183 4.87684 18.5309 4.87684 18.5462C4.87684 18.5616 4.82293 18.5998 4.75704 18.6312C4.69115 18.6627 4.63723 18.7051 4.63723 18.7256C4.63723 18.765 4.72093 18.8606 4.75533 18.8606C4.76654 18.8606 4.85964 18.9415 4.96242 19.0403C5.21247 19.281 5.28743 19.3458 5.39902 19.4177C5.45079 19.4512 5.57753 19.5629 5.68065 19.6659C5.78368 19.769 5.87892 19.8533 5.89218 19.8533C5.90545 19.8533 6.02055 19.9611 6.14797 20.0929C6.27539 20.2247 6.39331 20.3325 6.41008 20.3325C6.42685 20.3325 6.51097 20.398 6.59706 20.478C6.87372 20.7351 6.98155 20.8275 7.07705 20.8896C7.12848 20.9231 7.25479 21.0347 7.3579 21.1378C7.46094 21.2409 7.55404 21.3252 7.56482 21.3252C7.57552 21.3252 7.69062 21.433 7.82061 21.5648C7.9506 21.6966 8.07057 21.8044 8.08734 21.8044C8.10412 21.8044 8.18764 21.8699 8.27304 21.9499C8.35844 22.0299 8.50281 22.157 8.59386 22.2323C8.68491 22.3076 8.8582 22.4655 8.97903 22.5831C9.09986 22.7008 9.21282 22.7971 9.23011 22.7971C9.24739 22.7971 9.36788 22.9049 9.49787 23.0367C9.62786 23.1685 9.748 23.2763 9.76495 23.2763C9.78189 23.2763 9.8441 23.3225 9.90324 23.379L10.0107 23.4817L12.3561 23.4801L12.1507 23.2928C12.0377 23.1898 11.8445 23.0086 11.7212 22.8901C11.598 22.7716 11.4439 22.6371 11.3789 22.5913C11.3139 22.5453 11.173 22.4188 11.0658 22.3101C10.9585 22.2014 10.8624 22.1125 10.8523 22.1125C10.8186 22.1125 10.6827 21.996 10.4827 21.7958C10.3746 21.6876 10.2723 21.599 10.2555 21.599C10.2387 21.599 10.098 21.4758 9.94286 21.3252C9.78771 21.1746 9.64694 21.0513 9.63008 21.0513C9.61314 21.0513 9.50249 20.9551 9.38414 20.8374C9.26579 20.7197 9.12528 20.5927 9.07188 20.555C9.01857 20.5174 8.89611 20.4094 8.79992 20.315C8.70374 20.2207 8.5711 20.1055 8.5052 20.0591C8.43931 20.0127 8.29769 19.8858 8.19046 19.7771C8.08324 19.6684 7.98688 19.5795 7.97627 19.5795C7.95325 19.5795 7.78954 19.4383 7.61848 19.2708C7.55079 19.2046 7.42611 19.0969 7.34139 19.0315C7.25667 18.9661 7.11522 18.8392 7.02699 18.7496C6.93876 18.6601 6.8513 18.5868 6.83248 18.5868C6.81374 18.5868 6.67399 18.4636 6.52193 18.313C6.36995 18.1623 6.23756 18.0391 6.22781 18.0391C6.21797 18.0391 6.13941 17.9714 6.05324 17.8888C5.82004 17.6651 5.82064 17.6656 5.78642 17.675C5.76887 17.6799 5.73806 17.7125 5.71795 17.7476ZM6.75948 24.577C6.75948 24.5958 6.68247 24.6112 6.58833 24.6112C6.4942 24.6112 6.41719 24.6266 6.41719 24.6455C6.41719 24.6643 6.38073 24.6797 6.33615 24.6797C6.24972 24.6797 5.93112 24.7996 5.8191 24.8743C5.78196 24.899 5.7242 24.9193 5.69074 24.9193C5.65728 24.9193 5.6299 24.9347 5.6299 24.9535C5.6299 24.9724 5.60911 24.9878 5.5836 24.9878C5.55819 24.9878 5.48904 25.034 5.42991 25.0905C5.37078 25.1469 5.3066 25.1932 5.28726 25.1932C5.24071 25.1932 4.80838 25.6265 4.80838 25.6731C4.80838 25.6932 4.78143 25.7384 4.74848 25.7739C4.71554 25.8092 4.64237 25.928 4.58589 26.0377C4.52941 26.1474 4.47165 26.2423 4.45753 26.2485C4.44341 26.2549 4.43185 26.2895 4.43185 26.3256C4.43185 26.3617 4.41645 26.3912 4.39762 26.3912C4.3788 26.3912 4.3634 26.4374 4.3634 26.4939C4.3634 26.5504 4.34799 26.5966 4.32917 26.5966C4.31034 26.5966 4.29493 26.6418 4.29493 26.6972C4.29493 26.7526 4.27953 26.8074 4.26071 26.8191C4.06423 26.9405 3.96 26.9389 11.9453 26.9389H19.6641V26.802C19.6641 26.7267 19.6487 26.665 19.6299 26.665C19.6111 26.665 19.5957 26.6188 19.5957 26.5623C19.5957 26.5059 19.5803 26.4597 19.5614 26.4597C19.5426 26.4597 19.5272 26.437 19.5272 26.4093C19.5272 26.3815 19.488 26.293 19.4401 26.2124C19.3923 26.1319 19.3442 26.0391 19.3335 26.0061C19.3227 25.9732 19.3003 25.9462 19.2836 25.9462C19.267 25.9462 19.2534 25.927 19.2534 25.9034C19.2533 25.8799 19.2139 25.8144 19.1657 25.7579C19.1176 25.7015 19.0512 25.6238 19.0181 25.5853C18.9851 25.5468 18.948 25.4891 18.9356 25.457C18.9233 25.4248 18.8964 25.3985 18.8757 25.3985C18.855 25.3985 18.7631 25.3215 18.6715 25.2274C18.5798 25.1332 18.4841 25.0562 18.4587 25.0562C18.4335 25.0562 18.3905 25.0254 18.3634 24.9878C18.3363 24.9501 18.2905 24.9192 18.2617 24.9191C18.2329 24.9191 18.1335 24.8805 18.041 24.8336C17.9484 24.7866 17.8453 24.7482 17.812 24.7482C17.7786 24.7482 17.7418 24.7328 17.7301 24.7139C17.7185 24.6951 17.6714 24.6797 17.6254 24.6797C17.5794 24.6797 17.5419 24.6643 17.5419 24.6455C17.5419 24.6266 17.4687 24.611 17.3793 24.6107C17.2899 24.6105 17.1936 24.5952 17.1653 24.577C17.0936 24.5306 6.75948 24.5306 6.75948 24.577Z" fill="#CCCCCC"/>
<path fill-rule="evenodd" clip-rule="evenodd" d="M3.77947 14.5588C3.94959 14.59 4.30113 14.7296 4.31945 14.7731C4.32578 14.7881 4.35137 14.8003 4.37635 14.8003C4.42787 14.8003 4.83863 15.1934 4.83863 15.2427C4.83863 15.2603 4.86002 15.296 4.88612 15.3222C4.91222 15.3483 4.97512 15.4842 5.02595 15.6241C5.31827 16.4298 4.95501 17.3511 4.20529 17.7051C4.11124 17.7495 4.00744 17.7995 3.97475 17.8163C3.94206 17.8331 3.86119 17.8468 3.79505 17.8468C3.7289 17.8468 3.67481 17.8622 3.67481 17.881C3.67481 17.9 3.58419 17.9152 3.47149 17.9152C3.35964 17.9152 3.25858 17.8998 3.24694 17.881C3.2353 17.8622 3.16505 17.8468 3.09085 17.8468C3.01666 17.8468 2.95599 17.8314 2.95599 17.8126C2.95599 17.7937 2.92826 17.7783 2.89437 17.7783C2.81787 17.7783 2.64852 17.7018 2.64817 17.6671C2.648 17.653 2.62404 17.6414 2.59495 17.6414C2.508 17.6414 2.05591 17.1599 1.96811 16.9739C1.9237 16.8798 1.87364 16.776 1.85687 16.7433C1.84009 16.7106 1.8264 16.6384 1.8264 16.5828C1.8264 16.5271 1.811 16.4721 1.79217 16.4605C1.77335 16.4488 1.75794 16.3333 1.75794 16.2038C1.75794 16.0742 1.77335 15.9587 1.79217 15.947C1.811 15.9354 1.8264 15.8804 1.8264 15.8247C1.8264 15.7691 1.84009 15.6969 1.85687 15.6642C1.87364 15.6315 1.92224 15.5316 1.96495 15.4421C2.00765 15.3527 2.05549 15.2796 2.0714 15.2796C2.08723 15.2796 2.10024 15.2594 2.10024 15.2349C2.10024 14.8833 3.17968 14.4487 3.77947 14.5588ZM17.3839 24.5585C17.6571 24.6185 17.9356 24.7099 18.1289 24.8031C18.424 24.9452 18.6504 24.9372 18.8239 24.7783C18.8959 24.7124 18.9592 24.6585 18.9648 24.6585C18.9821 24.6585 19.121 24.7751 19.1992 24.8553C19.2406 24.8977 19.2884 24.9324 19.3056 24.9324C19.3427 24.9324 19.392 24.9889 19.5741 25.2404C19.6491 25.344 19.7365 25.4573 19.7682 25.4922C19.914 25.6524 19.9158 25.7383 19.7762 25.8662C19.5774 26.0484 19.5338 26.3271 19.6642 26.5835C19.6808 26.6162 19.6944 26.6807 19.6944 26.7269C19.6944 26.7732 19.7098 26.8205 19.7286 26.8321C19.7474 26.8438 19.7628 26.8678 19.7628 26.8855C19.7628 26.9055 16.8315 26.9177 12.0098 26.9177C4.4354 26.9177 4.25672 26.9162 4.25672 26.8532C4.25672 26.7598 4.42376 26.2763 4.50557 26.1329C4.54391 26.0656 4.60664 25.9528 4.64489 25.8822C4.68314 25.8116 4.72695 25.7539 4.74227 25.7539C4.75759 25.7539 4.77017 25.7365 4.77017 25.7153C4.77017 25.6591 5.30809 25.1336 5.48899 25.013C5.81623 24.7947 6.11369 24.6746 6.58435 24.5707C6.84099 24.5141 17.1283 24.5024 17.3839 24.5585Z" fill="#F8F8F8"/>
</svg>
