<svg width="24" height="28" viewBox="0 0 24 28" fill="none" xmlns="http://www.w3.org/2000/svg">
<defs>
<linearGradient id="paint0_linear_3976_2861" x1="12" y1="0" x2="12" y2="28" gradientUnits="userSpaceOnUse">
<stop stop-color="#CB8CF2"/>
<stop offset="1" stop-color="#AC47EB"/>
</linearGradient>
</defs>
<path fill-rule="evenodd" clip-rule="evenodd" d="M18.3924 3.80124C18.4209 3.82013 18.5565 3.8359 18.6935 3.83616C18.8306 3.83642 18.9524 3.85228 18.9642 3.87134C18.976 3.8904 19.054 3.90599 19.1375 3.90599C19.221 3.90599 19.299 3.92159 19.3108 3.94065C19.3226 3.95971 19.3927 3.97531 19.4667 3.97531C19.5407 3.97531 19.6109 3.9909 19.6227 4.00997C19.6345 4.02903 19.6891 4.04462 19.744 4.04462C19.7989 4.04462 19.8535 4.06022 19.8653 4.07928C19.8771 4.09834 19.9317 4.11394 19.9866 4.11394C20.0415 4.11394 20.0961 4.12953 20.1079 4.1486C20.1197 4.16766 20.1598 4.18325 20.197 4.18325C20.2343 4.18325 20.2918 4.19703 20.3249 4.21384C20.396 4.24997 20.5647 4.32101 20.6624 4.35593C20.8405 4.41953 21.8429 4.92648 21.905 4.98444C21.9436 5.02031 21.9939 5.04968 22.0169 5.04968C22.0792 5.04968 22.1039 5.14525 22.0548 5.19594C22.0311 5.22037 21.9738 5.29488 21.9274 5.3616C21.8809 5.42831 21.8236 5.503 21.7998 5.52752C21.776 5.55204 21.7292 5.61832 21.6959 5.67481C21.6625 5.7313 21.6229 5.77748 21.608 5.77748C21.593 5.77748 21.5808 5.79395 21.5808 5.81405C21.5808 5.83415 21.5341 5.90043 21.477 5.96134C21.4199 6.02225 21.3731 6.09156 21.373 6.11539C21.373 6.13922 21.3612 6.1588 21.3469 6.15897C21.3326 6.15906 21.2819 6.21754 21.2342 6.28894C21.1866 6.36024 21.1125 6.45746 21.0696 6.50494C21.0267 6.55242 20.9916 6.60198 20.9916 6.61506C20.9916 6.62823 20.9715 6.6596 20.9468 6.68472C20.9222 6.70994 20.8253 6.83973 20.7315 6.97316C20.6375 7.10659 20.5517 7.22356 20.5406 7.23309C20.5295 7.24262 20.483 7.305 20.4371 7.37172C20.3913 7.43843 20.3445 7.50081 20.3332 7.51034C20.3218 7.51987 20.2747 7.58226 20.2285 7.64897C20.1822 7.71569 20.1167 7.80051 20.0828 7.83742C20.049 7.87442 20.0212 7.91939 20.0212 7.93741C20.0212 7.95534 19.9932 7.99528 19.9589 8.02613C19.9247 8.05697 19.8586 8.13677 19.8122 8.20349C19.7656 8.2702 19.709 8.34818 19.6861 8.37677C19.6016 8.48248 19.4117 8.74544 19.3108 8.89655C19.2536 8.98215 19.1717 9.08803 19.1288 9.13195C19.0859 9.1758 19.0508 9.22588 19.0508 9.24321C19.0508 9.26053 19.0119 9.31373 18.9642 9.36139C18.9165 9.40904 18.8776 9.46042 18.8776 9.47558C18.8775 9.49074 18.8424 9.54394 18.7996 9.59385C18.7041 9.70484 18.652 9.77372 18.265 10.3009C18.0967 10.5299 17.9241 10.7639 17.8813 10.8207C17.8385 10.8776 17.7537 10.9943 17.6927 11.08C17.6318 11.1658 17.5693 11.2412 17.5539 11.2475C17.5385 11.2539 17.5259 11.2812 17.5259 11.3082C17.5259 11.3352 17.5137 11.3573 17.4987 11.3573C17.4838 11.3573 17.4442 11.4035 17.4109 11.46C17.3775 11.5165 17.3307 11.5827 17.307 11.6073C17.2831 11.6318 17.226 11.7065 17.1799 11.7732C17.1338 11.8399 17.0867 11.9023 17.0754 11.9118C17.064 11.9213 17.0167 11.9837 16.9702 12.0504C16.9238 12.1172 16.8669 12.1951 16.844 12.2237C16.821 12.2523 16.6929 12.4239 16.5593 12.605C16.4257 12.786 16.3036 12.9498 16.2877 12.9689C16.2719 12.9879 16.2209 13.0581 16.1743 13.1248C16.1277 13.1915 16.0618 13.2764 16.028 13.3133C15.9941 13.3503 15.9663 13.3938 15.9663 13.4102C15.9663 13.4265 15.9274 13.4788 15.8797 13.5265C15.8321 13.5741 15.7931 13.6273 15.7931 13.6447C15.7931 13.662 15.7541 13.7152 15.7064 13.7629C15.6588 13.8105 15.6198 13.8596 15.6198 13.872C15.6198 13.8844 15.5847 13.9369 15.5418 13.9887C15.4585 14.0892 15.4133 14.149 15.1331 14.5284C14.9436 14.785 14.9298 14.7917 14.8138 14.6836C14.7734 14.6458 14.6924 14.5813 14.6341 14.54C14.5451 14.477 14.2603 14.1787 13.7743 13.6391C13.7219 13.581 13.679 13.5232 13.679 13.5107C13.679 13.4982 13.6439 13.4492 13.601 13.4017C13.5581 13.3542 13.5009 13.2725 13.4738 13.2201C13.4468 13.1677 13.4117 13.1248 13.3958 13.1248C13.3801 13.1248 13.3671 13.1014 13.3671 13.0728C13.3671 13.0442 13.3515 13.0208 13.3324 13.0208C13.3133 13.0208 13.2977 12.9974 13.2977 12.9689C13.2977 12.9403 13.2821 12.9169 13.2631 12.9169C13.244 12.9169 13.2284 12.8935 13.2284 12.8649C13.2284 12.8363 13.2167 12.8128 13.2024 12.8126C13.1881 12.8125 13.1593 12.7774 13.1383 12.7347C13.0359 12.526 12.9312 12.3439 12.9079 12.3335C12.8936 12.3271 12.8819 12.3016 12.8819 12.2767C12.8819 12.2519 12.8137 12.0855 12.7302 11.907C12.6469 11.7286 12.558 11.5202 12.5326 11.4439C12.5072 11.3677 12.474 11.2905 12.4589 11.2724C12.4437 11.2543 12.4313 11.2045 12.4313 11.1618C12.4313 11.1191 12.4157 11.0745 12.3967 11.0627C12.3776 11.0509 12.362 10.9954 12.362 10.9393C12.362 10.8833 12.3464 10.8374 12.3273 10.8374C12.3083 10.8374 12.2927 10.786 12.2927 10.7231C12.2927 10.6602 12.2786 10.5939 12.2616 10.5758C12.2289 10.5412 12.1973 10.3598 12.1683 10.0403C12.1587 9.93548 12.1353 9.81825 12.1163 9.7797C12.0534 9.65277 12.1131 8.18252 12.188 8.01287C12.2048 7.97475 12.2282 7.88897 12.24 7.82226C12.2517 7.75554 12.2701 7.6501 12.2808 7.58798C12.2916 7.52585 12.3143 7.4665 12.3312 7.45602C12.3481 7.44554 12.362 7.40646 12.362 7.3692C12.362 7.33195 12.3763 7.27442 12.3937 7.24132C12.4112 7.20822 12.4518 7.11872 12.4839 7.04247C12.5743 6.82786 12.8831 6.225 12.9188 6.19337C12.9296 6.18384 12.9913 6.09806 13.0559 6.00276C13.271 5.68573 13.8804 5.0606 14.1371 4.89373C14.1665 4.87466 14.2976 4.78854 14.4286 4.70242C14.6395 4.56362 15.1348 4.30637 15.3772 4.20968C15.4248 4.1907 15.4909 4.16142 15.524 4.14452C15.5571 4.12771 15.6147 4.11394 15.6519 4.11394C15.6892 4.11394 15.7293 4.09834 15.7411 4.07928C15.7529 4.06022 15.7996 4.04462 15.845 4.04462C15.8904 4.04462 15.9372 4.02903 15.949 4.00997C15.9608 3.9909 16.0241 3.97531 16.0897 3.97531C16.1553 3.97531 16.2089 3.95971 16.2089 3.94065C16.2089 3.92159 16.276 3.90599 16.358 3.90599C16.4399 3.90599 16.5218 3.8917 16.5399 3.87428C16.615 3.80185 18.2933 3.73574 18.3924 3.80124Z" fill="url(#paint0_linear_3976_2861)"/>
<path fill-rule="evenodd" clip-rule="evenodd" d="M9.22409 0.03423C9.22409 0.0530564 9.2857 0.0684596 9.36101 0.0684596C9.43632 0.0684596 9.49793 0.0838631 9.49793 0.10269C9.49793 0.121516 9.5355 0.136919 9.58145 0.136919C9.6274 0.136919 9.67456 0.152323 9.68619 0.171149C9.69783 0.189976 9.73728 0.205379 9.77382 0.205379C9.81036 0.205379 9.84023 0.220782 9.84023 0.239609C9.84023 0.258435 9.86042 0.273839 9.88516 0.273839C9.9098 0.273839 9.96311 0.304645 10.0035 0.342298C10.0439 0.379951 10.0973 0.410758 10.1222 0.410758C10.1471 0.410758 10.1896 0.441565 10.2168 0.479217C10.2439 0.51687 10.2858 0.547677 10.3099 0.547677C10.334 0.547677 10.3537 0.561284 10.3537 0.577971C10.3537 0.594658 10.4037 0.632139 10.4649 0.66132C10.5261 0.690501 10.6101 0.746125 10.6517 0.785061C10.6933 0.823912 10.7477 0.855746 10.7726 0.855746C10.7975 0.855746 10.84 0.886552 10.8671 0.924205C10.8943 0.961858 10.9382 0.992665 10.9648 0.992665C10.9914 0.992665 11.038 1.01971 11.0685 1.05282C11.0989 1.08586 11.1662 1.13472 11.218 1.16125C11.2698 1.18786 11.3121 1.22243 11.3121 1.23809C11.3121 1.25367 11.3314 1.2665 11.3549 1.26659C11.3784 1.26659 11.4516 1.3128 11.5175 1.36919C11.5834 1.42559 11.6531 1.4718 11.6726 1.4718C11.6919 1.47188 11.73 1.50269 11.7571 1.54034C11.7842 1.578 11.8227 1.6088 11.8427 1.6088C11.8626 1.6088 11.9011 1.63961 11.9282 1.67726C11.9554 1.71491 12.0016 1.74572 12.0309 1.74572C12.0603 1.74572 12.1065 1.77653 12.1336 1.81418C12.1608 1.85183 12.207 1.88264 12.2363 1.88264C12.2657 1.88264 12.3119 1.91345 12.339 1.9511C12.3661 1.98875 12.4028 2.01956 12.4204 2.01956C12.4379 2.01956 12.5 2.05456 12.5582 2.09726C12.6165 2.14005 12.7065 2.19653 12.7583 2.22289C12.8101 2.24916 12.8525 2.28356 12.8525 2.29922C12.8525 2.31479 12.8726 2.32763 12.8974 2.32763C12.922 2.32763 12.9753 2.35844 13.0157 2.39609C13.0561 2.43374 13.1052 2.46455 13.1248 2.46455C13.1444 2.46455 13.1605 2.47661 13.1605 2.49142C13.1605 2.50614 13.2029 2.54336 13.2547 2.574C13.3064 2.60463 13.395 2.66958 13.4515 2.71828C13.508 2.76697 13.57 2.80676 13.5894 2.80685C13.6088 2.80685 13.6468 2.83765 13.674 2.87531C13.7011 2.91296 13.7473 2.94377 13.7767 2.94377C13.806 2.94377 13.8522 2.97457 13.8793 3.01222C13.9065 3.04988 13.9505 3.08068 13.977 3.08068C14.0036 3.08068 14.0502 3.10773 14.0807 3.14084C14.1112 3.17388 14.1784 3.22274 14.2302 3.24927C14.282 3.27588 14.3243 3.31045 14.3243 3.32611C14.3243 3.34169 14.3474 3.35452 14.3757 3.35452C14.4039 3.35452 14.427 3.36993 14.427 3.38875C14.427 3.40758 14.4501 3.42298 14.4784 3.42298C14.5066 3.42298 14.5297 3.44147 14.5297 3.46406C14.5297 3.49598 14.5389 3.49598 14.5708 3.46406C14.5934 3.44147 14.6396 3.42298 14.6735 3.42298C14.7074 3.42298 14.7352 3.41143 14.7353 3.39731C14.7357 3.36659 14.9015 3.28606 14.9644 3.28606C14.9889 3.28606 15.0089 3.27066 15.0089 3.25183C15.0089 3.23301 15.0474 3.2176 15.0945 3.2176C15.1416 3.2176 15.1801 3.2022 15.1801 3.18337C15.1801 3.16455 15.2263 3.14914 15.2828 3.14914C15.3393 3.14914 15.3855 3.13374 15.3855 3.11491C15.3855 3.09609 15.4317 3.08068 15.4882 3.08068C15.5446 3.08068 15.5908 3.06528 15.5908 3.04645C15.5908 3.02763 15.6525 3.01222 15.7278 3.01222C15.8031 3.01222 15.8647 2.99682 15.8647 2.978C15.8647 2.95917 15.9263 2.94377 16.0016 2.94377C16.0769 2.94377 16.1385 2.92836 16.1385 2.90954C16.1385 2.89071 16.2069 2.87531 16.2905 2.87531C16.3741 2.87531 16.4521 2.8599 16.4637 2.84108C16.4753 2.82225 16.6149 2.80685 16.7738 2.80685C16.9436 2.80685 17.0627 2.79273 17.0627 2.77262C17.0627 2.72623 18.3177 2.72623 18.3463 2.77262C18.358 2.79144 18.5053 2.80685 18.6736 2.80685C18.8547 2.80685 18.9796 2.82079 18.9796 2.84108C18.9796 2.86007 19.0709 2.87531 19.185 2.87531C19.299 2.87531 19.3904 2.89054 19.3904 2.90954C19.3904 2.92836 19.4674 2.94377 19.5615 2.94377C19.6556 2.94377 19.7326 2.95917 19.7326 2.978C19.7326 2.99682 19.7943 3.01222 19.8696 3.01222C19.9449 3.01222 20.0065 3.02763 20.0065 3.04645C20.0065 3.06528 20.0604 3.08068 20.1263 3.08068C20.1922 3.08068 20.2461 3.09609 20.2461 3.11491C20.2461 3.13374 20.2923 3.14914 20.3488 3.14914C20.4053 3.14914 20.4515 3.16455 20.4515 3.18337C20.4515 3.2022 20.4977 3.2176 20.5542 3.2176C20.6106 3.2176 20.6569 3.23301 20.6569 3.25183C20.6569 3.27066 20.7031 3.28606 20.7595 3.28606C20.816 3.28606 20.8622 3.30147 20.8622 3.32029C20.8622 3.33912 20.893 3.35452 20.9307 3.35452C20.9683 3.35452 20.9992 3.36993 20.9992 3.38875C20.9992 3.40758 21.0454 3.42298 21.1018 3.42298C21.1583 3.42298 21.2045 3.43839 21.2045 3.45721C21.2045 3.47604 21.2278 3.49144 21.2563 3.49144C21.3203 3.49144 21.8335 3.7343 21.8492 3.77204C21.8555 3.78719 21.8902 3.79951 21.9262 3.79951C21.9623 3.79951 21.9918 3.81491 21.9918 3.83374C21.9918 3.85257 22.0226 3.86797 22.0603 3.86797C22.0979 3.86797 22.1287 3.88337 22.1287 3.9022C22.1287 3.92103 22.1525 3.93643 22.1815 3.93643C22.2105 3.93643 22.2674 3.96724 22.3078 4.00489C22.3481 4.04254 22.4015 4.07335 22.4261 4.07335C22.4508 4.07335 22.471 4.08875 22.471 4.10758C22.471 4.12641 22.4912 4.14181 22.516 4.14181C22.5406 4.14181 22.5939 4.17262 22.6343 4.21027C22.6747 4.24792 22.72 4.27873 22.7349 4.27881C22.7498 4.27881 22.8159 4.32502 22.8818 4.38142C22.9477 4.43781 23.0147 4.48402 23.0307 4.48402C23.0757 4.48419 23.2623 4.69548 23.2963 4.7849C23.3655 4.96683 23.2856 5.40831 23.1835 5.40831C23.1682 5.40831 23.1556 5.42911 23.1556 5.45461C23.1556 5.48002 23.1094 5.54917 23.0529 5.6083C22.9965 5.66743 22.9503 5.72836 22.9503 5.74385C22.9503 5.75925 22.9229 5.80178 22.8894 5.83832C22.8559 5.87478 22.7907 5.95856 22.7444 6.02445C22.6324 6.18388 22.572 6.25987 22.4796 6.35716C22.4372 6.40183 22.4026 6.45455 22.4026 6.4744C22.4026 6.49417 22.3564 6.55356 22.2999 6.60636C22.2434 6.65916 22.1972 6.72077 22.1972 6.74328C22.1972 6.76578 22.151 6.8274 22.0945 6.8802C22.038 6.93299 21.9918 6.99358 21.9918 7.01498C21.9918 7.03628 21.9605 7.08789 21.9222 7.12956C21.6884 7.3838 21.628 7.63325 21.8003 7.63325C21.8274 7.63325 22.1972 7.99523 22.1972 8.02167C22.1972 8.03391 22.2588 8.10742 22.3341 8.18504C22.4094 8.26265 22.471 8.34027 22.471 8.35764C22.471 8.37501 22.5018 8.42225 22.5395 8.46264C22.5771 8.50303 22.608 8.55634 22.608 8.58099C22.608 8.60572 22.6234 8.62592 22.6422 8.62592C22.661 8.62592 22.6764 8.65672 22.6764 8.69438C22.6764 8.73203 22.6918 8.76284 22.7106 8.76284C22.7295 8.76284 22.7449 8.79364 22.7449 8.8313C22.7449 8.86895 22.7603 8.89976 22.7791 8.89976C22.7979 8.89976 22.8133 8.93056 22.8133 8.96821C22.8133 9.00587 22.8259 9.03667 22.8414 9.03667C22.8568 9.03667 22.8907 9.11463 22.9166 9.20996C22.9426 9.30529 22.9762 9.39095 22.9912 9.40028C23.0064 9.40961 23.0187 9.46164 23.0187 9.51589C23.0187 9.57015 23.0341 9.62406 23.0529 9.6357C23.0718 9.64733 23.0872 9.72529 23.0872 9.8089C23.0872 9.89251 23.1026 9.96088 23.1214 9.96088C23.1679 9.96088 23.1679 11.2501 23.1214 11.2787C23.1026 11.2904 23.0872 11.3674 23.0872 11.4499C23.0872 11.5324 23.0718 11.6094 23.0529 11.621C23.0341 11.6327 23.0187 11.6789 23.0187 11.7237C23.0187 11.7686 23.0033 11.8148 22.9845 11.8264C22.9657 11.838 22.9503 11.8777 22.9503 11.9145C22.9503 11.9513 22.9348 12.0119 22.916 12.0493C22.8972 12.0867 22.8664 12.148 22.8476 12.1854C22.8287 12.2228 22.8133 12.2767 22.8133 12.3052C22.8133 12.3337 22.7979 12.357 22.7791 12.357C22.7603 12.357 22.7449 12.3878 22.7449 12.4254C22.7449 12.4631 22.7295 12.4939 22.7106 12.4939C22.6918 12.4939 22.6764 12.5141 22.6764 12.5388C22.6764 12.5635 22.6456 12.6168 22.608 12.6572C22.5703 12.6976 22.5395 12.751 22.5395 12.7759C22.5395 12.8008 22.5087 12.8433 22.471 12.8704C22.4334 12.8975 22.4026 12.9383 22.4026 12.961C22.4026 12.9835 22.2956 13.1073 22.1648 13.2357C21.8696 13.5258 21.86 13.5353 21.7386 13.6592C21.684 13.7149 21.6242 13.7604 21.6057 13.7604C21.5871 13.7604 21.5471 13.7874 21.5166 13.8205C21.4862 13.8536 21.4189 13.9024 21.3671 13.929C21.3154 13.9556 21.273 13.9902 21.273 14.0058C21.273 14.0214 21.2422 14.0342 21.2045 14.0342C21.1669 14.0342 21.1361 14.0496 21.1361 14.0685C21.1361 14.0873 21.1053 14.1027 21.0676 14.1027C21.03 14.1027 20.9992 14.1181 20.9992 14.1369C20.9992 14.1557 20.9683 14.1711 20.9307 14.1711C20.893 14.1711 20.8622 14.1866 20.8622 14.2054C20.8622 14.2242 20.8324 14.2396 20.7958 14.2396C20.7593 14.2396 20.7198 14.255 20.7082 14.2738C20.6966 14.2927 20.6494 14.3081 20.6035 14.3081C20.5575 14.3081 20.5199 14.3235 20.5199 14.3423C20.5199 14.3611 20.4747 14.3765 20.4193 14.3765C20.3639 14.3765 20.3091 14.3919 20.2974 14.4108C20.2858 14.4296 20.2155 14.445 20.1414 14.445C20.0672 14.445 20.0065 14.4604 20.0065 14.4792C20.0065 14.4992 19.8924 14.5134 19.7326 14.5134C19.5729 14.5134 19.4588 14.5277 19.4588 14.5477C19.4588 14.567 19.3619 14.5819 19.2363 14.5819C19.1108 14.5819 19.0138 14.567 19.0138 14.5477C19.0138 14.5277 18.8998 14.5134 18.74 14.5134C18.5802 14.5134 18.4661 14.4992 18.4661 14.4792C18.4661 14.4604 18.4055 14.445 18.3313 14.445C18.2571 14.445 18.1868 14.4296 18.1752 14.4108C18.1636 14.3919 18.1162 14.3765 18.07 14.3765C18.0238 14.3765 17.9554 14.3611 17.918 14.3423C17.8806 14.3235 17.8194 14.2927 17.782 14.2738C17.7446 14.255 17.6907 14.2396 17.6622 14.2396C17.6337 14.2396 17.6104 14.2242 17.6104 14.2054C17.6104 14.1866 17.5796 14.1711 17.5419 14.1711C17.5043 14.1711 17.4735 14.1557 17.4735 14.1369C17.4735 14.1181 17.4427 14.1027 17.405 14.1027C17.3674 14.1027 17.3366 14.0873 17.3366 14.0685C17.3366 14.0496 17.3092 14.0342 17.2756 14.0342C17.2422 14.0342 17.1925 14.0034 17.1654 13.9658C17.1383 13.9281 17.0899 13.8973 17.058 13.8973C17.0261 13.8973 16.9936 13.8782 16.9858 13.8549C16.969 13.8044 16.8573 13.9016 16.8573 13.9667C16.8573 13.9887 16.8111 14.0499 16.7547 14.1027C16.6982 14.1555 16.652 14.2171 16.652 14.2396C16.652 14.2621 16.6058 14.3237 16.5493 14.3765C16.4928 14.4293 16.4466 14.4909 16.4466 14.5134C16.4466 14.536 16.4004 14.5976 16.3439 14.6504C16.2874 14.7032 16.2412 14.7566 16.2412 14.7691C16.2412 14.7982 16.0658 15.0524 15.971 15.1605C15.9313 15.2057 15.8989 15.2551 15.8989 15.2702C15.8989 15.2852 15.8604 15.3362 15.8133 15.3832C15.7663 15.4303 15.7278 15.4826 15.7278 15.4994C15.7278 15.5164 15.6815 15.5785 15.6251 15.6376C15.5686 15.6968 15.5224 15.7596 15.5224 15.7773C15.5224 15.7951 15.4916 15.8193 15.4539 15.8313C15.4163 15.8433 15.3855 15.8674 15.3855 15.8849C15.3855 15.9025 15.3547 15.9169 15.317 15.9169C15.2793 15.9169 15.2485 15.9323 15.2485 15.9511C15.2485 15.9699 15.1802 15.9853 15.0966 15.9853C15.013 15.9853 14.935 15.9699 14.9234 15.9511C14.9117 15.9323 14.8746 15.9169 14.8409 15.9169C14.8071 15.9169 14.7312 15.8707 14.672 15.8142C14.6129 15.7577 14.5506 15.7115 14.5335 15.7115C14.5164 15.7115 14.4238 15.6345 14.3277 15.5403C14.2315 15.4462 14.139 15.3692 14.1221 15.3692C14.0769 15.3692 13.356 14.6535 13.26 14.5134C13.2149 14.4476 13.1201 14.334 13.0494 14.2612C12.9788 14.1883 12.9209 14.1136 12.9209 14.0952C12.9209 14.0768 12.8747 14.0186 12.8182 13.9658C12.7617 13.913 12.7155 13.8486 12.7155 13.8227C12.7155 13.7968 12.6847 13.7533 12.6471 13.7262C12.6094 13.699 12.5786 13.6528 12.5786 13.6235C12.5786 13.5941 12.5478 13.5479 12.5102 13.5208C12.4725 13.4937 12.4417 13.4584 12.4417 13.4424C12.4417 13.4264 12.3955 13.3461 12.339 13.2641C12.2825 13.182 12.2363 13.0983 12.2363 13.0782C12.2363 13.0581 12.2209 13.0416 12.2021 13.0416C12.1833 13.0416 12.1679 13.012 12.1679 12.9759C12.1679 12.9399 12.156 12.9052 12.1414 12.8989C12.089 12.8764 11.8598 12.3963 11.8598 12.3092C11.8598 12.2602 11.8444 12.22 11.8256 12.22C11.8067 12.22 11.7913 12.1892 11.7913 12.1516C11.7913 12.1139 11.7759 12.0831 11.7571 12.0831C11.7383 12.0831 11.7229 12.0523 11.7229 12.0147C11.7229 11.977 11.7075 11.9462 11.6886 11.9462C11.6698 11.9462 11.6544 11.9077 11.6544 11.8606C11.6544 11.8136 11.639 11.7751 11.6202 11.7751C11.6014 11.7751 11.5859 11.7289 11.5859 11.6724C11.5859 11.6159 11.5705 11.5697 11.5517 11.5697C11.5329 11.5697 11.5175 11.5235 11.5175 11.467C11.5175 11.4105 11.5021 11.3643 11.4833 11.3643C11.4644 11.3643 11.449 11.3181 11.449 11.2616C11.449 11.2051 11.4353 11.1589 11.4186 11.1589C11.3899 11.1589 11.3706 11.08 11.3243 10.7736C11.3137 10.7029 11.2911 10.6365 11.2743 10.6261C11.2574 10.6157 11.2437 10.5388 11.2437 10.4552C11.2437 10.3716 11.2282 10.3032 11.2094 10.3032C11.1895 10.3032 11.1752 10.1891 11.1752 10.0293C11.1752 9.86957 11.1609 9.7555 11.141 9.7555C11.1193 9.7555 11.1067 9.51658 11.1067 9.10719C11.1067 8.71183 11.1201 8.45057 11.141 8.43765C11.1598 8.42601 11.1752 8.31049 11.1752 8.18093C11.1752 8.05137 11.1906 7.93584 11.2094 7.9242C11.2282 7.91257 11.2437 7.82691 11.2437 7.73389C11.2437 7.64087 11.2591 7.56479 11.2779 7.56479C11.2967 7.56479 11.3121 7.54057 11.3121 7.51097C11.3121 7.4473 11.2315 7.35941 11.1731 7.35941C11.1505 7.35941 11.1037 7.32689 11.0693 7.28719C11.0022 7.21 10.9014 7.25766 10.9014 7.36652C10.9014 7.39193 10.8705 7.43497 10.8329 7.4621C10.7952 7.48923 10.7644 7.53544 10.7644 7.56479C10.7644 7.59414 10.7336 7.64035 10.696 7.66748C10.6583 7.69461 10.6275 7.73654 10.6275 7.76059C10.6275 7.78472 10.616 7.80466 10.6018 7.805C10.5877 7.80526 10.5305 7.89768 10.4747 8.01038C10.4188 8.12299 10.361 8.21516 10.3463 8.21516C10.3315 8.21516 10.3194 8.23535 10.3194 8.26008C10.3194 8.28473 10.2925 8.33479 10.2595 8.37133C10.2266 8.40779 10.1778 8.48001 10.151 8.53178C10.1243 8.58356 10.0897 8.62592 10.074 8.62592C10.0584 8.62592 10.0456 8.6533 10.0456 8.68684C10.0456 8.7203 10.0148 8.76994 9.97715 8.79707C9.9395 8.82419 9.90869 8.86672 9.90869 8.89163C9.90869 8.91653 9.88036 8.96727 9.84571 9.00441C9.81105 9.04164 9.76107 9.11412 9.73472 9.16564C9.70827 9.21707 9.65958 9.28407 9.62655 9.31454C9.59343 9.345 9.56639 9.39164 9.56639 9.41825C9.56639 9.44478 9.53558 9.48876 9.49793 9.51589C9.46028 9.54302 9.42947 9.58923 9.42947 9.61858C9.42947 9.64793 9.39866 9.69414 9.36101 9.72127C9.32336 9.7484 9.29255 9.79803 9.29255 9.83149C9.29255 9.86504 9.27715 9.89242 9.25832 9.89242C9.2395 9.89242 9.22409 9.91553 9.22409 9.94376C9.22409 9.972 9.20869 9.99511 9.18986 9.99511C9.17104 9.99511 9.15563 10.0182 9.15563 10.0465C9.15563 10.0747 9.14023 10.0978 9.1214 10.0978C9.10258 10.0978 9.08717 10.114 9.08717 10.1337C9.08717 10.1534 9.03326 10.2538 8.96737 10.3568C8.90147 10.4599 8.84756 10.5558 8.84756 10.5701C8.84756 10.5845 8.81676 10.6183 8.7791 10.6455C8.74145 10.6726 8.71064 10.7151 8.71064 10.74C8.71064 10.7649 8.67984 10.8183 8.64219 10.8587C8.60453 10.8991 8.57373 10.9524 8.57373 10.9771C8.57373 11.0018 8.5602 11.022 8.54369 11.022C8.52709 11.022 8.4944 11.0682 8.47104 11.1247C8.44767 11.1812 8.41498 11.2274 8.39838 11.2274C8.38187 11.2274 8.36835 11.2476 8.36835 11.2723C8.36835 11.297 8.33754 11.3503 8.29989 11.3907C8.26223 11.4311 8.23143 11.4844 8.23143 11.5094C8.23143 11.5343 8.20062 11.5768 8.16297 11.6039C8.12531 11.631 8.09451 11.675 8.09451 11.7016C8.09451 11.7282 8.06747 11.7748 8.03435 11.8053C8.00132 11.8357 7.95245 11.903 7.92593 11.9548C7.89931 12.0065 7.86474 12.0489 7.84908 12.0489C7.83351 12.0489 7.82067 12.072 7.82067 12.1002C7.82067 12.1285 7.80527 12.1516 7.78644 12.1516C7.76761 12.1516 7.75221 12.179 7.75221 12.2125C7.75221 12.246 7.7214 12.2956 7.68375 12.3227C7.6461 12.3499 7.61529 12.3911 7.61529 12.4144C7.61529 12.4503 7.50798 12.6341 7.41898 12.7506C7.40461 12.7694 7.37097 12.8272 7.34419 12.879C7.31749 12.9307 7.28283 12.9731 7.26717 12.9731C7.2516 12.9731 7.23876 13.0039 7.23876 13.0416C7.23876 13.0792 7.22721 13.1101 7.21309 13.1102C7.19897 13.1103 7.13351 13.1949 7.06761 13.2983C7.00172 13.4017 6.93626 13.4863 6.92214 13.4864C6.90802 13.4865 6.89646 13.5139 6.89646 13.5475C6.89646 13.5809 6.86566 13.6306 6.828 13.6577C6.79035 13.6848 6.75954 13.731 6.75954 13.7604C6.75954 13.7897 6.72874 13.836 6.69108 13.8631C6.65343 13.8902 6.62262 13.9327 6.62262 13.9576C6.62262 13.9825 6.59182 14.0359 6.55417 14.0763C6.51651 14.1167 6.4857 14.17 6.4857 14.1947C6.4857 14.2194 6.4703 14.2396 6.45148 14.2396C6.43265 14.2396 6.41725 14.2627 6.41725 14.291C6.41725 14.3192 6.40184 14.3423 6.38302 14.3423C6.36419 14.3423 6.34879 14.3654 6.34879 14.3936C6.34879 14.4219 6.33338 14.445 6.31456 14.445C6.29573 14.445 6.28033 14.4602 6.28033 14.4789C6.28033 14.5228 5.97183 15.0064 5.93469 15.0208C5.91903 15.0268 5.92109 15.0615 5.93923 15.0978C5.95737 15.1341 5.98766 15.1944 6.00649 15.2318C6.02531 15.2692 6.04072 15.3233 6.04072 15.3521C6.04072 15.3808 6.0545 15.4311 6.07127 15.4638C6.12698 15.5723 6.17764 15.9342 6.17764 16.2243V16.5104L6.41845 16.7442C6.55091 16.8728 6.6726 16.978 6.68878 16.978C6.70503 16.978 6.83357 17.0897 6.97442 17.2262C7.11528 17.3627 7.29011 17.5237 7.36302 17.584C7.43584 17.6444 7.57045 17.7637 7.6621 17.8493C7.75375 17.9349 7.84044 18.0049 7.85473 18.0049C7.86902 18.0049 7.99849 18.1204 8.14251 18.2616C8.28645 18.4028 8.41815 18.5183 8.43501 18.5183C8.45195 18.5183 8.57492 18.6262 8.70825 18.7579C8.84166 18.8897 8.95881 18.9976 8.96874 18.9976C8.97866 18.9976 9.03874 19.0476 9.10232 19.1088C9.34124 19.3389 9.53173 19.5073 9.58967 19.5398C9.65342 19.5754 9.99041 19.8818 10.4148 20.2897C10.5567 20.4262 10.6853 20.5379 10.7004 20.5379C10.7279 20.5379 10.8838 20.6699 11.0851 20.8637C11.144 20.9204 11.2462 21.0048 11.3121 21.0511C11.378 21.0974 11.5196 21.2242 11.6269 21.3329C11.7341 21.4416 11.831 21.5306 11.8424 21.5306C11.8538 21.5306 11.9694 21.6384 12.0994 21.7702C12.2294 21.902 12.348 22.0098 12.3631 22.0098C12.4093 22.0099 12.907 22.4454 13.2528 22.7885C13.3713 22.9062 13.4826 23.0024 13.5001 23.0024C13.5175 23.0024 13.6397 23.1091 13.7716 23.2394L14.0114 23.4763L15.8023 23.49C17.02 23.4992 17.6261 23.5159 17.696 23.5422C17.7525 23.5636 17.918 23.6164 18.0638 23.6597C18.2096 23.703 18.329 23.7499 18.3291 23.7641C18.3291 23.7782 18.3579 23.7897 18.3929 23.7897C18.4709 23.7897 18.8769 23.9955 18.8769 24.0351C18.8769 24.0507 18.9 24.0636 18.9282 24.0636C18.9565 24.0636 18.9796 24.079 18.9796 24.0978C18.9796 24.1166 19.0042 24.132 19.0344 24.132C19.0644 24.132 19.1322 24.1782 19.185 24.2347C19.2378 24.2912 19.298 24.3374 19.319 24.3374C19.3571 24.3374 19.938 24.9009 19.938 24.9378C19.938 24.9485 19.9842 25.0065 20.0405 25.0667C20.0969 25.1268 20.1432 25.1953 20.1432 25.2188C20.1433 25.2424 20.1556 25.2616 20.1707 25.2616C20.2076 25.2616 20.4515 25.746 20.4515 25.8194C20.4515 25.8515 20.4669 25.8777 20.4857 25.8777C20.5045 25.8777 20.5199 25.9076 20.5199 25.9442C20.5199 25.9807 20.5353 26.0201 20.5542 26.0318C20.573 26.0434 20.5884 26.0906 20.5884 26.1365C20.5884 26.1825 20.6038 26.22 20.6226 26.22C20.6414 26.22 20.6569 26.273 20.6569 26.3378C20.6569 26.4026 20.6723 26.4651 20.6911 26.4768C20.7099 26.4884 20.7253 26.5587 20.7253 26.6329C20.7253 26.7071 20.7407 26.7677 20.7595 26.7677C20.7808 26.7677 20.7938 26.956 20.7938 27.2641C20.7938 27.5721 20.7808 27.7604 20.7595 27.7604C20.7407 27.7604 20.7253 27.7769 20.7253 27.7971C20.7253 27.8516 20.6352 27.9315 20.5738 27.9315C20.5442 27.9315 20.5199 27.9469 20.5199 27.9658C20.5199 27.9885 17.6446 28 11.9625 28C6.28033 28 3.40502 27.9885 3.40502 27.9658C3.40502 27.9469 3.38893 27.9315 3.36925 27.9315C3.31431 27.9315 3.16541 27.7701 3.16541 27.7106C3.16541 27.6815 3.15001 27.6577 3.13118 27.6577C3.11124 27.6577 3.09695 27.5436 3.09695 27.3839C3.09695 27.2241 3.11124 27.11 3.13118 27.11C3.15078 27.11 3.16541 27.0073 3.16541 26.8704C3.16541 26.7335 3.18005 26.6308 3.19964 26.6308C3.21847 26.6308 3.23387 26.5778 3.23387 26.5131C3.23387 26.4483 3.24713 26.3871 3.26331 26.3771C3.27948 26.3671 3.30225 26.2894 3.31388 26.2046C3.32552 26.1198 3.34923 26.0231 3.36651 25.9898C3.38389 25.9564 3.46347 25.7943 3.5434 25.6296C3.62332 25.4649 3.70197 25.3301 3.71805 25.3301C3.73414 25.3301 3.74732 25.3099 3.74732 25.2851C3.74732 25.2605 3.77813 25.2072 3.81578 25.1668C3.85343 25.1264 3.88424 25.0848 3.88424 25.0744C3.88424 25.0344 4.67307 24.2689 4.71431 24.2689C4.73819 24.2689 4.77695 24.2381 4.80049 24.2005C4.82402 24.1628 4.85919 24.132 4.87861 24.132C4.89804 24.132 4.94707 24.1012 4.98747 24.0636C5.02786 24.0259 5.08117 23.9951 5.10581 23.9951C5.13055 23.9951 5.15074 23.9797 5.15074 23.9609C5.15074 23.9421 5.18155 23.9266 5.2192 23.9266C5.25686 23.9266 5.28766 23.9112 5.28766 23.8924C5.28766 23.8736 5.31847 23.8582 5.35612 23.8582C5.39378 23.8582 5.42458 23.8428 5.42458 23.824C5.42458 23.8051 5.45445 23.7897 5.49099 23.7897C5.52753 23.7897 5.56698 23.7743 5.57861 23.7555C5.59025 23.7367 5.6374 23.7213 5.68336 23.7213C5.72931 23.7213 5.76688 23.7059 5.76688 23.687C5.76688 23.6682 5.81215 23.6528 5.86751 23.6528C5.92288 23.6528 5.97671 23.639 5.98715 23.6222C5.9975 23.6053 6.06391 23.5829 6.13459 23.5722C6.20536 23.5615 6.35563 23.5381 6.46859 23.5201C6.58155 23.5021 7.0398 23.4861 7.48693 23.4846C8.34028 23.4815 8.36723 23.4765 8.18719 23.3539C8.1254 23.3119 7.97864 23.1848 7.86106 23.0715C7.74348 22.9582 7.63934 22.8655 7.62967 22.8655C7.61991 22.8655 7.50567 22.7577 7.37568 22.6259C7.24569 22.4941 7.12289 22.3863 7.10278 22.3863C7.08259 22.3863 6.98349 22.3054 6.88251 22.2066C6.78154 22.1078 6.64718 21.9884 6.58395 21.9413C6.52079 21.8943 6.37052 21.7595 6.25003 21.6418C6.12954 21.5241 6.01804 21.4279 6.00221 21.4279C5.98638 21.4279 5.85784 21.3123 5.71665 21.1711C5.57545 21.03 5.44675 20.9144 5.43057 20.9144C5.41448 20.9144 5.33156 20.849 5.24641 20.7689C5.16135 20.6889 5.0175 20.5619 4.92688 20.4866C4.83625 20.4112 4.66288 20.2534 4.54171 20.1357C4.42045 20.018 4.30689 19.9218 4.28935 19.9218C4.27181 19.9218 4.15115 19.8139 4.02116 19.6821C3.89117 19.5504 3.77008 19.4425 3.75211 19.4425C3.73414 19.4425 3.59979 19.3282 3.45363 19.1886C3.20007 18.9463 3.17902 18.9338 2.99692 18.9169C2.70956 18.8904 2.54927 18.8566 2.54927 18.8226C2.54927 18.8059 2.51171 18.7922 2.46576 18.7922C2.4198 18.7922 2.37265 18.7768 2.36101 18.7579C2.34937 18.7391 2.30992 18.7237 2.27338 18.7237C2.23684 18.7237 2.20698 18.7121 2.20698 18.6979C2.20698 18.6836 2.15692 18.6501 2.09573 18.6234C2.03454 18.5967 1.95958 18.5467 1.92912 18.5123C1.89865 18.478 1.85612 18.4499 1.83447 18.4499C1.78064 18.4499 1.21431 17.8796 1.21431 17.8254C1.21431 17.8014 1.18351 17.7625 1.14585 17.739C1.1082 17.7155 1.0774 17.6733 1.0774 17.6452C1.0774 17.6171 1.06199 17.5941 1.04316 17.5941C1.02434 17.5941 1.00893 17.5633 1.00893 17.5257C1.00893 17.488 0.993531 17.4572 0.974705 17.4572C0.955878 17.4572 0.940475 17.4264 0.940475 17.3888C0.940475 17.3511 0.925072 17.3203 0.906246 17.3203C0.88742 17.3203 0.872014 17.2827 0.872014 17.2368C0.872014 17.1908 0.856611 17.1437 0.837785 17.132C0.818958 17.1204 0.803556 17.0655 0.803556 17.0102C0.803556 16.9548 0.789606 16.9095 0.772491 16.9095C0.712504 16.9095 0.642419 15.9959 0.698128 15.9401C0.718495 15.9198 0.735097 15.8225 0.735097 15.7238C0.735097 15.6251 0.7505 15.5349 0.769326 15.5232C0.788153 15.5116 0.803556 15.4567 0.803556 15.4014C0.803556 15.346 0.818958 15.3007 0.837785 15.3007C0.856611 15.3007 0.872014 15.273 0.872014 15.2391C0.872014 15.1626 0.948519 14.9933 0.983263 14.9929C0.997382 14.9927 1.00893 14.9619 1.00893 14.9242C1.00893 14.8866 1.02434 14.8557 1.04316 14.8557C1.06199 14.8557 1.0774 14.835 1.0774 14.8094C1.0774 14.784 1.1236 14.7149 1.18008 14.6558C1.23656 14.5966 1.28277 14.5319 1.28277 14.5118C1.28277 14.4682 1.6842 14.0685 1.7281 14.0685C1.74504 14.0685 1.79425 14.0338 1.83747 13.9914C1.88068 13.9491 1.99304 13.8759 2.08717 13.8289C2.1813 13.7818 2.26346 13.7317 2.2697 13.7176C2.27604 13.7035 2.30975 13.6919 2.34475 13.6919C2.37967 13.6919 2.41783 13.6765 2.42947 13.6577C2.44111 13.6389 2.48663 13.6235 2.53053 13.6235C2.6233 13.6235 2.82311 13.4504 2.82311 13.3702C2.82311 13.34 2.83852 13.3154 2.85734 13.3154C2.87617 13.3154 2.89157 13.2952 2.89157 13.2705C2.89157 13.2458 2.92238 13.1925 2.96003 13.1521C2.99769 13.1117 3.02849 13.0583 3.02849 13.0334C3.02849 13.0085 3.0593 12.966 3.09695 12.9389C3.1346 12.9117 3.16541 12.8621 3.16541 12.8287C3.16541 12.7951 3.18082 12.7677 3.19964 12.7677C3.21847 12.7677 3.23387 12.7459 3.23387 12.7192C3.23387 12.6926 3.24543 12.6656 3.25955 12.6593C3.27367 12.6531 3.31277 12.594 3.34649 12.5281C3.44285 12.3399 3.49231 12.2596 3.55358 12.1919C3.58481 12.1573 3.6104 12.111 3.6104 12.089C3.6104 12.067 3.6258 12.0489 3.64463 12.0489C3.66346 12.0489 3.67886 12.0287 3.67886 12.004C3.67886 11.9793 3.70967 11.926 3.74732 11.8856C3.78497 11.8452 3.81578 11.7918 3.81578 11.7669C3.81578 11.742 3.84659 11.6995 3.88424 11.6724C3.92189 11.6452 3.9527 11.5956 3.9527 11.5622C3.9527 11.5286 3.9681 11.5012 3.98693 11.5012C4.00576 11.5012 4.02116 11.481 4.02116 11.4563C4.02116 11.4316 4.05196 11.3783 4.08962 11.3379C4.12727 11.2976 4.15808 11.2442 4.15808 11.2193C4.15808 11.1944 4.18888 11.1518 4.22654 11.1247C4.26419 11.0976 4.295 11.0514 4.295 11.022C4.295 10.9927 4.3258 10.9464 4.36346 10.9193C4.40111 10.8922 4.43192 10.8426 4.43192 10.8091C4.43192 10.7755 4.44732 10.7482 4.46614 10.7482C4.48497 10.7482 4.50038 10.7285 4.50038 10.7044C4.50038 10.6803 4.53118 10.6384 4.56884 10.6112C4.60649 10.5841 4.63729 10.5379 4.63729 10.5086C4.63729 10.4792 4.6681 10.433 4.70576 10.4059C4.74341 10.3787 4.77421 10.3354 4.77421 10.3094C4.77421 10.2572 4.87151 10.0719 4.93458 10.0041C4.95683 9.98013 4.9849 9.92973 4.99679 9.89225C5.00869 9.85468 5.03282 9.82396 5.05036 9.82396C5.06791 9.82396 5.08228 9.80376 5.08228 9.77903C5.08228 9.75439 5.11309 9.70107 5.15074 9.66068C5.18839 9.62029 5.2192 9.56347 5.2192 9.53446C5.2192 9.50545 5.23461 9.48166 5.25343 9.48166C5.27226 9.48166 5.28766 9.45856 5.28766 9.43032C5.28766 9.40208 5.3005 9.37897 5.31607 9.37897C5.33173 9.37897 5.3663 9.33661 5.39292 9.28484C5.41945 9.23307 5.46831 9.16581 5.50134 9.13534C5.53446 9.10488 5.5615 9.05482 5.5615 9.0241C5.5615 8.99337 5.5769 8.96821 5.59573 8.96821C5.61456 8.96821 5.62996 8.94802 5.62996 8.92329C5.62996 8.89864 5.66077 8.84533 5.69842 8.80494C5.73607 8.76455 5.76688 8.71115 5.76688 8.68625C5.76688 8.66134 5.79768 8.61881 5.83534 8.59169C5.87299 8.56456 5.9038 8.52203 5.9038 8.49713C5.9038 8.47222 5.9346 8.41883 5.97226 8.37844C6.00991 8.33804 6.04072 8.28473 6.04072 8.26008C6.04072 8.23535 6.05612 8.21516 6.07495 8.21516C6.09377 8.21516 6.10918 8.19898 6.10918 8.1793C6.10918 8.15953 6.16309 8.05916 6.22898 7.95612C6.29487 7.85309 6.34879 7.75374 6.34879 7.73526C6.34879 7.71686 6.36231 7.70171 6.37882 7.70171C6.39542 7.70171 6.42811 7.6555 6.45148 7.59902C6.47484 7.54254 6.50753 7.49633 6.52413 7.49633C6.54064 7.49633 6.55417 7.46895 6.55417 7.4354C6.55417 7.40194 6.58497 7.35231 6.62262 7.32518C6.66028 7.29806 6.69108 7.25553 6.69108 7.23062C6.69108 7.20572 6.72189 7.15232 6.75954 7.11193C6.7972 7.07154 6.828 7.01823 6.828 6.99358C6.828 6.96885 6.84341 6.94865 6.86223 6.94865C6.88106 6.94865 6.89646 6.92846 6.89646 6.90373C6.89646 6.87908 6.92342 6.82902 6.95637 6.79248C6.98931 6.75603 7.03809 6.6838 7.06487 6.63203C7.09157 6.58026 7.12623 6.5379 7.14189 6.5379C7.15747 6.5379 7.1703 6.51479 7.1703 6.48655C7.1703 6.45831 7.1857 6.43521 7.20453 6.43521C7.22336 6.43521 7.23876 6.40782 7.23876 6.37428C7.23876 6.34082 7.26957 6.29119 7.30722 6.26406C7.34487 6.23693 7.37568 6.19072 7.37568 6.16137C7.37568 6.13202 7.40649 6.08581 7.44414 6.05868C7.48179 6.03155 7.5126 5.9832 7.5126 5.95128C7.5126 5.91936 7.52415 5.88813 7.53827 5.8818C7.55239 5.87555 7.61016 5.78193 7.66664 5.67368C7.72311 5.56551 7.78088 5.47694 7.795 5.47686C7.80912 5.47686 7.82067 5.45658 7.82067 5.43185C7.82067 5.4072 7.84762 5.35637 7.88057 5.31889C8.088 5.08304 8.07637 5.02922 7.77797 4.84249C7.68854 4.78661 7.61538 4.72928 7.61538 4.71516C7.61529 4.70104 7.59972 4.68949 7.58072 4.68949C7.56172 4.68949 7.49788 4.64328 7.43875 4.5868C7.37962 4.53032 7.31672 4.48411 7.29884 4.48411C7.24698 4.48411 6.62262 3.83391 6.62262 3.77991C6.62262 3.75304 6.60722 3.73105 6.5884 3.73105C6.56957 3.73105 6.55417 3.70153 6.55417 3.66542C6.55417 3.62939 6.54261 3.59473 6.52849 3.5884C6.46243 3.55905 6.31849 3.17696 6.25987 2.87531C6.20819 2.60934 6.24849 1.83754 6.31789 1.76455C6.33484 1.74666 6.34879 1.69754 6.34879 1.65535C6.34879 1.61317 6.36419 1.5691 6.38302 1.55746C6.40184 1.54582 6.41725 1.50637 6.41725 1.46983C6.41725 1.43329 6.43265 1.40342 6.45148 1.40342C6.4703 1.40342 6.4857 1.37262 6.4857 1.33496C6.4857 1.29731 6.50111 1.2665 6.51993 1.2665C6.53876 1.2665 6.55417 1.2357 6.55417 1.19804C6.55417 1.16039 6.56957 1.12958 6.5884 1.12958C6.60722 1.12958 6.62262 1.10956 6.62262 1.085C6.62262 1.06053 6.69938 0.956552 6.79326 0.853949C6.88705 0.75143 6.96407 0.655929 6.96441 0.641809C6.96467 0.627689 6.98957 0.616137 7.01969 0.616137C7.04973 0.616137 7.1175 0.569927 7.1703 0.513447C7.2231 0.456968 7.28745 0.410758 7.31338 0.410758C7.33931 0.410758 7.38278 0.379951 7.40991 0.342298C7.43704 0.304645 7.48667 0.273839 7.52013 0.273839C7.55368 0.273839 7.58106 0.258435 7.58106 0.239609C7.58106 0.220782 7.61187 0.205379 7.64952 0.205379C7.68717 0.205379 7.71798 0.189976 7.71798 0.171149C7.71798 0.152323 7.75649 0.136919 7.80355 0.136919C7.85062 0.136919 7.88913 0.121516 7.88913 0.10269C7.88913 0.0838631 7.95074 0.0684596 8.02605 0.0684596C8.10135 0.0684596 8.16297 0.0530564 8.16297 0.03423C8.16297 0.0129219 8.36261 0 8.69353 0C9.02445 0 9.22409 0.0129219 9.22409 0.03423ZM8.36835 1.09535C8.36835 1.11418 8.32214 1.12958 8.26566 1.12958C8.20918 1.12958 8.16297 1.14499 8.16297 1.16381C8.16297 1.18264 8.13216 1.19804 8.09451 1.19804C8.05685 1.19804 8.02605 1.21345 8.02605 1.23227C8.02605 1.2511 8.00448 1.2665 7.97821 1.2665C7.87287 1.2665 7.44414 1.77516 7.44414 1.9001C7.44414 1.92594 7.42874 1.95658 7.40991 1.96821C7.39109 1.97985 7.37568 2.03471 7.37568 2.09007C7.37568 2.14544 7.36028 2.19071 7.34145 2.19071C7.32185 2.19071 7.30722 2.2934 7.30722 2.43032C7.30722 2.56724 7.32185 2.66993 7.34145 2.66993C7.36028 2.66993 7.37568 2.71049 7.37568 2.76004C7.37568 2.96773 7.76582 3.55836 7.90436 3.56042C7.92421 3.56076 7.99259 3.60697 8.05634 3.66311C8.12009 3.71933 8.18487 3.76528 8.20028 3.76528C8.21568 3.76528 8.26686 3.80379 8.31392 3.85086C8.36099 3.89792 8.41327 3.93643 8.43013 3.93643C8.44707 3.93643 8.5092 3.98264 8.56833 4.03912C8.62747 4.0956 8.68908 4.14181 8.70525 4.14181C8.72143 4.14181 8.78304 4.18802 8.84217 4.2445C8.9013 4.30098 8.95898 4.34719 8.97045 4.34719C8.98192 4.34719 9.03437 4.3934 9.08717 4.44988C9.13997 4.50636 9.20013 4.55257 9.22101 4.55257C9.24189 4.55257 9.30727 4.59878 9.3664 4.65526C9.42553 4.71174 9.49125 4.75795 9.51256 4.75795C9.53387 4.75795 9.57349 4.78875 9.60062 4.82641C9.62775 4.86406 9.66309 4.89487 9.67909 4.89487C9.70468 4.89487 10.138 5.18847 10.1825 5.23597C10.2269 5.28337 10.4891 5.47677 10.5091 5.47677C10.5215 5.47677 10.5747 5.52298 10.6275 5.57946C10.6803 5.63594 10.7405 5.68215 10.7614 5.68215C10.7822 5.68215 10.8476 5.72836 10.9067 5.78484C10.9659 5.84132 11.0275 5.88753 11.0437 5.88753C11.0598 5.88753 11.1215 5.93374 11.1806 5.99022C11.2397 6.0467 11.3054 6.09291 11.3267 6.09291C11.3481 6.09291 11.3877 6.12372 11.4148 6.16137C11.4419 6.19902 11.4839 6.22983 11.5079 6.22983C11.532 6.22983 11.5517 6.24523 11.5517 6.26406C11.5517 6.28288 11.5748 6.29829 11.6031 6.29829C11.6313 6.29829 11.6544 6.31369 11.6544 6.33252C11.6544 6.35134 11.6698 6.36675 11.6886 6.36675C11.7075 6.36675 11.7229 6.33594 11.7229 6.29829C11.7229 6.26064 11.7383 6.22983 11.7571 6.22983C11.7759 6.22983 11.7913 6.19902 11.7913 6.16137C11.7913 6.12372 11.8067 6.09291 11.8256 6.09291C11.8444 6.09291 11.8598 6.06321 11.8598 6.02693C11.8598 5.99056 11.879 5.9405 11.9026 5.91568C11.9261 5.89078 11.983 5.8011 12.0291 5.71638C12.075 5.63166 12.1328 5.54198 12.1574 5.51708C12.182 5.49226 12.2021 5.45829 12.2021 5.44169C12.2021 5.425 12.2406 5.37288 12.2877 5.32582C12.3347 5.27875 12.3732 5.22903 12.3732 5.21534C12.3732 5.20156 12.4503 5.11608 12.5444 5.02537C12.6385 4.93466 12.7155 4.84754 12.7155 4.83171C12.7155 4.79106 13.0102 4.48411 13.0492 4.48411C13.134 4.48411 13.4948 4.09029 13.449 4.04768C13.4237 4.02414 13.3904 4.00489 13.3749 4.00489C13.3594 4.00489 13.3246 3.97408 13.2974 3.93643C13.2703 3.89878 13.2241 3.86797 13.1948 3.86797C13.1654 3.86797 13.1192 3.83716 13.0921 3.79951C13.0649 3.76186 13.0253 3.73105 13.004 3.73105C12.9827 3.73105 12.917 3.68484 12.8578 3.62836C12.7987 3.57188 12.7295 3.52567 12.704 3.52567C12.6785 3.52567 12.622 3.49487 12.5786 3.45721C12.5352 3.41956 12.4877 3.38875 12.4731 3.38875C12.4586 3.38875 12.4262 3.36864 12.4014 3.34408C12.3765 3.31952 12.256 3.23198 12.1336 3.14966C12.0113 3.06725 11.906 2.98724 11.8998 2.97183C11.8934 2.95634 11.8699 2.94377 11.8474 2.94377C11.8249 2.94377 11.7842 2.91296 11.7571 2.87531C11.73 2.83765 11.6838 2.80685 11.6544 2.80685C11.6251 2.80685 11.5788 2.77604 11.5517 2.73839C11.5246 2.70073 11.4784 2.66993 11.449 2.66993C11.4197 2.66993 11.3735 2.63912 11.3463 2.60147C11.3192 2.56381 11.2811 2.53301 11.2618 2.53292C11.2424 2.53292 11.1726 2.48671 11.1067 2.43032C11.0408 2.37392 10.9711 2.32771 10.9517 2.32771C10.9323 2.32763 10.8943 2.29682 10.8671 2.25917C10.84 2.22152 10.7904 2.19071 10.7569 2.19071C10.7234 2.19071 10.696 2.17633 10.696 2.15879C10.696 2.14125 10.669 2.11823 10.6361 2.10762C10.6031 2.09709 10.5314 2.04985 10.4767 2.00262C10.422 1.95546 10.3667 1.91687 10.3537 1.91687C10.3407 1.91687 10.2853 1.87836 10.2306 1.8313C10.1759 1.78432 10.1154 1.74581 10.0959 1.74572C10.0766 1.74572 10.0385 1.71491 10.0114 1.67726C9.98425 1.63961 9.93804 1.6088 9.90869 1.6088C9.87934 1.6088 9.83313 1.578 9.806 1.54034C9.77887 1.50269 9.73489 1.47188 9.70836 1.47188C9.68175 1.47188 9.63511 1.44484 9.60464 1.41172C9.57418 1.37869 9.50692 1.32983 9.45514 1.3033C9.40337 1.27669 9.36101 1.24211 9.36101 1.22645C9.36101 1.21088 9.3302 1.19804 9.29255 1.19804C9.2549 1.19804 9.22409 1.18264 9.22409 1.16381C9.22409 1.14499 9.18558 1.12958 9.13852 1.12958C9.09145 1.12958 9.05294 1.11418 9.05294 1.09535C9.05294 1.07482 8.91602 1.06112 8.71064 1.06112C8.50526 1.06112 8.36835 1.07482 8.36835 1.09535ZM17.1312 3.83374C17.1312 3.85334 17.0285 3.86797 16.8916 3.86797C16.7547 3.86797 16.652 3.8826 16.652 3.9022C16.652 3.92103 16.5749 3.93643 16.4808 3.93643C16.3867 3.93643 16.3097 3.95183 16.3097 3.97066C16.3097 3.98949 16.2567 4.00489 16.1919 4.00489C16.1271 4.00489 16.0646 4.02029 16.0529 4.03912C16.0413 4.05795 15.9951 4.07335 15.9503 4.07335C15.9054 4.07335 15.8592 4.08875 15.8476 4.10758C15.8359 4.12641 15.7888 4.14181 15.7428 4.14181C15.6969 4.14181 15.6593 4.15721 15.6593 4.17604C15.6593 4.19487 15.6131 4.21027 15.5566 4.21027C15.5001 4.21027 15.4539 4.22567 15.4539 4.2445C15.4539 4.26332 15.4231 4.27873 15.3855 4.27873C15.3478 4.27873 15.317 4.29413 15.317 4.31296C15.317 4.33178 15.296 4.34719 15.2704 4.34719C15.2252 4.34719 14.8036 4.55009 14.7693 4.58834C14.7599 4.59886 14.6966 4.63335 14.6286 4.66493C14.5605 4.69659 14.4855 4.74588 14.4618 4.77446C14.4381 4.80304 14.4013 4.82666 14.38 4.82709C14.3588 4.82743 14.28 4.88134 14.2049 4.94689C14.1298 5.01236 14.0558 5.06601 14.0406 5.06601C13.9967 5.06601 13.2974 5.78544 13.2974 5.83054C13.2974 5.85287 13.2589 5.9126 13.2119 5.96343C13.1648 6.01418 13.1263 6.06938 13.1263 6.08615C13.1263 6.10284 13.0955 6.14442 13.0578 6.17848C13.0202 6.21254 12.9894 6.26115 12.9894 6.28648C12.9894 6.31181 12.9759 6.33252 12.9593 6.33252C12.9427 6.33252 12.91 6.37873 12.8867 6.43521C12.8633 6.49169 12.8306 6.5379 12.814 6.5379C12.7975 6.5379 12.784 6.5687 12.784 6.60636C12.784 6.64401 12.7686 6.67482 12.7498 6.67482C12.7309 6.67482 12.7155 6.70562 12.7155 6.74328C12.7155 6.78093 12.7001 6.81174 12.6813 6.81174C12.6625 6.81174 12.6471 6.84254 12.6471 6.8802C12.6471 6.91785 12.6317 6.94865 12.6128 6.94865C12.594 6.94865 12.5786 6.99487 12.5786 7.05134C12.5786 7.10782 12.5632 7.15403 12.5444 7.15403C12.5256 7.15403 12.5102 7.19254 12.5102 7.23961C12.5102 7.28667 12.4948 7.32518 12.4759 7.32518C12.4571 7.32518 12.4417 7.37139 12.4417 7.42787C12.4417 7.48435 12.4263 7.53056 12.4075 7.53056C12.3886 7.53056 12.3732 7.57583 12.3732 7.6312C12.3732 7.68656 12.3578 7.74142 12.339 7.75306C12.3202 7.76469 12.3048 7.84265 12.3048 7.92626C12.3048 8.00986 12.2894 8.07824 12.2705 8.07824C12.2512 8.07824 12.2363 8.17519 12.2363 8.30073C12.2363 8.42627 12.2214 8.52323 12.2021 8.52323C12.1807 8.52323 12.1679 8.72792 12.1679 9.06885C12.1679 9.39575 12.1815 9.62303 12.2021 9.6357C12.2209 9.64733 12.2363 9.7561 12.2363 9.87736C12.2363 10.0015 12.2513 10.0978 12.2705 10.0978C12.2894 10.0978 12.3048 10.1748 12.3048 10.2689C12.3048 10.3631 12.3202 10.4401 12.339 10.4401C12.3578 10.4401 12.3732 10.5017 12.3732 10.577C12.3732 10.6523 12.3886 10.7139 12.4075 10.7139C12.4263 10.7139 12.4417 10.7601 12.4417 10.8166C12.4417 10.8731 12.4571 10.9193 12.4759 10.9193C12.4948 10.9193 12.5102 10.958 12.5102 11.0053C12.5102 11.0882 12.5209 11.1194 12.6075 11.2869C12.6293 11.329 12.6471 11.3944 12.6471 11.4323C12.6471 11.4702 12.6625 11.5012 12.6813 11.5012C12.7001 11.5012 12.7155 11.532 12.7155 11.5697C12.7155 11.6073 12.7309 11.6381 12.7498 11.6381C12.7686 11.6381 12.784 11.6757 12.784 11.7217C12.784 11.7676 12.7994 11.8148 12.8182 11.8264C12.837 11.838 12.8525 11.8775 12.8525 11.914C12.8525 11.9506 12.8679 11.9804 12.8867 11.9804C12.9055 11.9804 12.9209 12.0112 12.9209 12.0489C12.9209 12.0866 12.9326 12.1174 12.9468 12.1174C12.961 12.1174 12.9944 12.1674 13.021 12.2286C13.0476 12.2898 13.079 12.3476 13.0906 12.357C13.1022 12.3664 13.1574 12.4627 13.2132 12.5708C13.2689 12.6791 13.3261 12.7676 13.3402 12.7676C13.3543 12.7677 13.3659 12.7951 13.3659 12.8287C13.3659 12.8621 13.3967 12.9117 13.4344 12.9389C13.472 12.966 13.5028 13.0122 13.5028 13.0416C13.5028 13.0709 13.5336 13.1171 13.5713 13.1443C13.6089 13.1714 13.6397 13.2131 13.6397 13.2368C13.6397 13.2606 13.6933 13.3381 13.7588 13.4089C14.0047 13.6753 14.5539 14.2569 14.7432 14.4516L14.9397 14.6534L15.0598 14.5332C15.126 14.4672 15.1801 14.397 15.1801 14.3774C15.1801 14.3577 15.2263 14.2933 15.2828 14.2342C15.3393 14.1751 15.3855 14.1094 15.3855 14.0881C15.3855 14.0667 15.4163 14.0271 15.4539 14C15.4916 13.9729 15.5224 13.9309 15.5224 13.9069C15.5224 13.8828 15.5378 13.8631 15.5566 13.8631C15.5754 13.8631 15.5908 13.8434 15.5908 13.8193C15.5908 13.7952 15.6216 13.7533 15.6593 13.7262C15.697 13.699 15.7278 13.6633 15.7278 13.6467C15.7278 13.6302 15.774 13.5736 15.8304 13.5208C15.8869 13.468 15.9331 13.4064 15.9331 13.3839C15.9331 13.3614 15.9793 13.2997 16.0358 13.2469C16.0923 13.1941 16.1385 13.13 16.1385 13.1045C16.1385 13.0789 16.177 13.0165 16.2241 12.9657C16.2712 12.9149 16.3097 12.8596 16.3097 12.8428C16.3097 12.8259 16.3559 12.7638 16.4124 12.7047C16.4688 12.6455 16.515 12.5855 16.515 12.5712C16.5151 12.557 16.5549 12.499 16.6036 12.4425C16.6523 12.3861 16.7173 12.2975 16.7479 12.2457C16.7785 12.1939 16.8158 12.1516 16.8305 12.1516C16.8453 12.1516 16.8573 12.1346 16.8573 12.1139C16.8573 12.0933 16.9036 12.0332 16.96 11.9804C17.0165 11.9276 17.0627 11.866 17.0627 11.8435C17.0627 11.821 17.1089 11.7594 17.1654 11.7066C17.2219 11.6538 17.2681 11.5922 17.2681 11.5697C17.2681 11.5472 17.3143 11.4856 17.3708 11.4328C17.4273 11.38 17.4735 11.3194 17.4735 11.298C17.4735 11.2767 17.5047 11.2251 17.5428 11.1834C17.581 11.1417 17.668 11.0236 17.7363 10.921C17.8047 10.8185 17.8966 10.6984 17.9408 10.6542C17.985 10.61 18.0212 10.5599 18.0212 10.5428C18.0212 10.5257 18.0597 10.4731 18.1067 10.4261C18.1538 10.379 18.1923 10.3267 18.1923 10.3099C18.1923 10.2929 18.2385 10.2308 18.295 10.1716C18.3515 10.1125 18.3977 10.0471 18.3977 10.0263C18.3977 10.0054 18.4439 9.94522 18.5004 9.89242C18.5569 9.83962 18.6031 9.77801 18.6031 9.7555C18.6031 9.73299 18.6493 9.67138 18.7058 9.61858C18.7622 9.56578 18.8084 9.50802 18.8084 9.49013C18.8084 9.47225 18.853 9.41089 18.9075 9.3539C18.9621 9.29691 19.017 9.21758 19.0297 9.1777C19.0423 9.13774 19.066 9.10513 19.0823 9.10513C19.0985 9.10513 19.1214 9.0751 19.1331 9.03839C19.1448 9.00176 19.1997 8.92312 19.2551 8.86364C19.3107 8.80425 19.3561 8.74255 19.3561 8.72655C19.3561 8.71055 19.3946 8.65895 19.4417 8.61188C19.4888 8.56482 19.5273 8.51253 19.5273 8.49567C19.5273 8.47873 19.5735 8.4166 19.63 8.35747C19.6864 8.29834 19.7326 8.23672 19.7326 8.22055C19.7326 8.20438 19.7789 8.14276 19.8353 8.08363C19.8918 8.0245 19.938 7.96614 19.938 7.9539C19.938 7.94166 19.9842 7.88749 20.0407 7.8335C20.0972 7.7795 20.1434 7.71994 20.1434 7.70111C20.1434 7.68229 20.1896 7.61853 20.2461 7.5594C20.3026 7.50027 20.3488 7.43112 20.3488 7.40571C20.3488 7.38021 20.3607 7.35941 20.3752 7.35941C20.3898 7.35941 20.4291 7.30841 20.4627 7.24611C20.4963 7.18373 20.5627 7.08746 20.6104 7.03218C20.6581 6.97681 20.7221 6.88918 20.7528 6.83741C20.7834 6.78564 20.8206 6.74328 20.8354 6.74328C20.8502 6.74328 20.8622 6.72676 20.8622 6.70656C20.8622 6.68645 20.8815 6.64966 20.905 6.62484C20.9876 6.5379 21.0676 6.43427 21.0676 6.41433C21.0676 6.40329 21.1138 6.35109 21.1703 6.29829C21.2268 6.24549 21.273 6.18533 21.273 6.16445C21.273 6.14357 21.3192 6.07819 21.3757 6.01906C21.4322 5.95993 21.4784 5.8942 21.4784 5.8729C21.4784 5.85159 21.5092 5.81197 21.5468 5.78484C21.5845 5.75771 21.6153 5.71578 21.6153 5.69174C21.6153 5.6676 21.6307 5.64792 21.6495 5.64792C21.6683 5.64792 21.6837 5.62824 21.6837 5.60411C21.6837 5.58006 21.7146 5.53813 21.7522 5.511C21.7899 5.48387 21.8207 5.44194 21.8207 5.4179C21.8207 5.39376 21.8361 5.37408 21.8549 5.37408C21.8737 5.37408 21.8891 5.35286 21.8891 5.32693C21.8891 5.301 21.9122 5.26061 21.9405 5.23716C22.0055 5.18317 22.0075 5.06601 21.9433 5.06601C21.9167 5.06601 21.8897 5.05446 21.8834 5.04034C21.8687 5.00705 21.5057 4.81648 20.8162 4.47991C20.7438 4.44457 20.6629 4.41565 20.6365 4.41565C20.61 4.41565 20.5884 4.40024 20.5884 4.38142C20.5884 4.36259 20.5499 4.34719 20.5028 4.34719C20.4558 4.34719 20.4172 4.33178 20.4172 4.31296C20.4172 4.29413 20.371 4.27873 20.3146 4.27873C20.2581 4.27873 20.2119 4.26332 20.2119 4.2445C20.2119 4.22567 20.1657 4.21027 20.1092 4.21027C20.0527 4.21027 20.0065 4.19487 20.0065 4.17604C20.0065 4.15721 19.9603 4.14181 19.9038 4.14181C19.8473 4.14181 19.8011 4.12641 19.8011 4.10758C19.8011 4.08875 19.7395 4.07335 19.6642 4.07335C19.5889 4.07335 19.5273 4.05795 19.5273 4.03912C19.5273 4.02029 19.4657 4.00489 19.3904 4.00489C19.315 4.00489 19.2534 3.98949 19.2534 3.97066C19.2534 3.95183 19.1687 3.93643 19.0652 3.93643C18.9616 3.93643 18.8769 3.92103 18.8769 3.9022C18.8769 3.88226 18.7628 3.86797 18.6031 3.86797C18.4433 3.86797 18.3292 3.85368 18.3292 3.83374C18.3292 3.81226 18.1067 3.79951 17.7302 3.79951C17.3537 3.79951 17.1312 3.81226 17.1312 3.83374ZM8.64219 6.2152C8.64219 6.22478 8.61138 6.26577 8.57373 6.30616C8.53607 6.34655 8.50527 6.39987 8.50527 6.42451C8.50527 6.44924 8.48986 6.46944 8.47104 6.46944C8.45221 6.46944 8.43681 6.48963 8.43681 6.51436C8.43681 6.53901 8.406 6.59232 8.36835 6.63271C8.33069 6.6731 8.29989 6.7265 8.29989 6.75141C8.29989 6.77631 8.26908 6.81884 8.23143 6.84597C8.19377 6.87309 8.16297 6.91562 8.16297 6.94053C8.16297 6.96543 8.13216 7.01883 8.09451 7.05922C8.05685 7.09961 8.02605 7.15292 8.02605 7.17757C8.02605 7.2023 8.01064 7.22249 7.99182 7.22249C7.97299 7.22249 7.95759 7.24269 7.95759 7.26742C7.95759 7.29207 7.92678 7.34538 7.88913 7.38577C7.85148 7.42616 7.82067 7.47733 7.82067 7.49941C7.82067 7.52158 7.79294 7.56453 7.75906 7.595C7.72508 7.62546 7.67057 7.70428 7.6378 7.77017C7.53964 7.96742 7.43883 8.12881 7.40632 8.14096C7.38946 8.1473 7.37568 8.17485 7.37568 8.20232C7.37568 8.22979 7.34487 8.28533 7.30722 8.32572C7.26957 8.36611 7.23876 8.41943 7.23876 8.44407C7.23876 8.4688 7.22336 8.489 7.20453 8.489C7.1857 8.489 7.1703 8.50919 7.1703 8.53392C7.1703 8.55857 7.1395 8.61188 7.10184 8.65227C7.06419 8.69266 7.03338 8.74606 7.03338 8.77096C7.03338 8.79587 7.00258 8.8384 6.96492 8.86553C6.92727 8.89265 6.89646 8.94229 6.89646 8.97575C6.89646 9.00929 6.88106 9.03667 6.86223 9.03667C6.84341 9.03667 6.828 9.05636 6.828 9.08049C6.828 9.10453 6.7972 9.14647 6.75954 9.17359C6.72189 9.20072 6.69108 9.24693 6.69108 9.27628C6.69108 9.30563 6.66028 9.35185 6.62262 9.37897C6.58497 9.4061 6.55417 9.45573 6.55417 9.48919C6.55417 9.52274 6.53876 9.55012 6.51993 9.55012C6.50111 9.55012 6.4857 9.57032 6.4857 9.59505C6.4857 9.61969 6.4549 9.67301 6.41725 9.7134C6.37959 9.75379 6.34879 9.80719 6.34879 9.83209C6.34879 9.85699 6.31798 9.89952 6.28033 9.92665C6.24267 9.95378 6.21187 10.0015 6.21187 10.0327C6.21187 10.0639 6.18876 10.1086 6.16052 10.132C6.13228 10.1555 6.10918 10.1892 6.10918 10.2071C6.10918 10.2249 6.06297 10.3067 6.00649 10.3888C5.95001 10.4708 5.9038 10.5511 5.9038 10.5671C5.9038 10.5831 5.87299 10.6183 5.83534 10.6455C5.79768 10.6726 5.76688 10.7222 5.76688 10.7557C5.76688 10.7892 5.75336 10.8166 5.73684 10.8166C5.72024 10.8166 5.68755 10.8628 5.66419 10.9193C5.64083 10.9758 5.60814 11.022 5.59154 11.022C5.57502 11.022 5.5615 11.0494 5.5615 11.0829C5.5615 11.1164 5.53069 11.166 5.49304 11.1932C5.45539 11.2203 5.42458 11.2628 5.42458 11.2877C5.42458 11.3126 5.39378 11.366 5.35612 11.4064C5.31847 11.4468 5.28766 11.5001 5.28766 11.5248C5.28766 11.5495 5.27226 11.5697 5.25343 11.5697C5.23461 11.5697 5.2192 11.5899 5.2192 11.6146C5.2192 11.6393 5.19225 11.6893 5.1593 11.7259C5.12635 11.7623 5.07758 11.8345 5.05079 11.8863C5.02409 11.9381 4.98943 11.9804 4.97377 11.9804C4.9582 11.9804 4.94536 12.0035 4.94536 12.0318C4.94536 12.06 4.92996 12.0831 4.91113 12.0831C4.89231 12.0831 4.8769 12.1105 4.8769 12.1441C4.8769 12.1775 4.8461 12.2272 4.80844 12.2543C4.77079 12.2814 4.73998 12.3299 4.73998 12.3621C4.73998 12.3942 4.72073 12.4413 4.6972 12.4668C4.63849 12.5303 4.53444 12.7036 4.51142 12.7763C4.50098 12.8092 4.47881 12.8362 4.46212 12.8362C4.44552 12.8362 4.43192 12.8564 4.43192 12.8811C4.43192 12.9058 4.40496 12.9558 4.37201 12.9924C4.33907 13.0288 4.29029 13.101 4.26351 13.1528C4.23681 13.2046 4.20215 13.2469 4.18649 13.2469C4.17091 13.2469 4.15774 13.2662 4.15731 13.2897C4.15688 13.3133 4.12641 13.371 4.08962 13.4181C4.00156 13.5306 4.0043 13.555 4.10468 13.555C4.15063 13.555 4.19778 13.5704 4.20942 13.5892C4.22106 13.6081 4.26068 13.6235 4.29748 13.6235C4.33428 13.6235 4.3911 13.6369 4.42379 13.6533C4.82025 13.8523 4.9333 13.9153 4.992 13.97C5.02991 14.0053 5.07989 14.0342 5.10299 14.0342C5.1261 14.0342 5.15237 14.0535 5.16135 14.077C5.17804 14.1211 5.35612 13.9641 5.35612 13.9053C5.35612 13.8892 5.38308 13.8461 5.41602 13.8096C5.44897 13.7731 5.49775 13.7009 5.52453 13.6491C5.55123 13.5974 5.58589 13.555 5.60155 13.555C5.61712 13.555 5.62996 13.5319 5.62996 13.5037C5.62996 13.4754 5.64536 13.4523 5.66419 13.4523C5.68302 13.4523 5.69842 13.4249 5.69842 13.3914C5.69842 13.3579 5.72923 13.3083 5.76688 13.2812C5.80453 13.254 5.83534 13.2078 5.83534 13.1785C5.83534 13.1491 5.86615 13.1029 5.9038 13.0758C5.94145 13.0487 5.97226 13.0025 5.97226 12.9731C5.97226 12.9438 6.00307 12.8975 6.04072 12.8704C6.07837 12.8433 6.10918 12.7937 6.10918 12.7602C6.10918 12.7266 6.12355 12.6993 6.1411 12.6993C6.15864 12.6993 6.18311 12.6675 6.19535 12.6288C6.22273 12.5427 6.48656 12.1389 6.52584 12.1231C6.54141 12.1168 6.55417 12.0855 6.55417 12.0536C6.55417 12.0217 6.58497 11.9733 6.62262 11.9462C6.66028 11.9191 6.69108 11.8729 6.69108 11.8435C6.69108 11.8142 6.72189 11.768 6.75954 11.7408C6.7972 11.7137 6.828 11.6712 6.828 11.6463C6.828 11.6214 6.85881 11.568 6.89646 11.5276C6.93412 11.4872 6.96492 11.4339 6.96492 11.4092C6.96492 11.3845 6.98033 11.3643 6.99915 11.3643C7.01798 11.3643 7.03338 11.3412 7.03338 11.313C7.03338 11.2847 7.04879 11.2616 7.06761 11.2616C7.08644 11.2616 7.10184 11.2385 7.10184 11.2103C7.10184 11.182 7.11725 11.1589 7.13607 11.1589C7.1549 11.1589 7.1703 11.1387 7.1703 11.114C7.1703 11.0894 7.19726 11.0393 7.2302 11.0027C7.26315 10.9663 7.31193 10.8941 7.33871 10.8423C7.36541 10.7905 7.40007 10.7482 7.41573 10.7482C7.43131 10.7482 7.44414 10.7285 7.44414 10.7044C7.44414 10.6803 7.47495 10.6384 7.5126 10.6112C7.55025 10.5841 7.58106 10.5356 7.58106 10.5034C7.58106 10.4713 7.60057 10.4246 7.62436 10.3998C7.64815 10.3749 7.70591 10.2814 7.75264 10.1919C7.79945 10.1025 7.84925 10.0293 7.86337 10.0293C7.87758 10.0293 7.88913 10.0091 7.88913 9.98441C7.88913 9.95977 7.91608 9.90971 7.94903 9.87317C7.98198 9.83671 8.03075 9.76449 8.05754 9.71271C8.08424 9.66094 8.1189 9.61858 8.13456 9.61858C8.15013 9.61858 8.16297 9.59839 8.16297 9.57366C8.16297 9.54901 8.18992 9.49895 8.22287 9.46241C8.25582 9.42595 8.30451 9.35398 8.33104 9.30255C8.35756 9.25104 8.40763 9.17856 8.44228 9.14133C8.47694 9.10419 8.50527 9.05345 8.50527 9.02855C8.50527 9.00364 8.53607 8.96111 8.57373 8.93398C8.61138 8.90686 8.64219 8.86065 8.64219 8.8313C8.64219 8.80194 8.67299 8.75573 8.71064 8.72861C8.7483 8.70148 8.7791 8.65527 8.7791 8.62592C8.7791 8.59656 8.80991 8.55035 8.84756 8.52323C8.88522 8.4961 8.91602 8.44647 8.91602 8.41301C8.91602 8.37946 8.92886 8.35208 8.94443 8.35208C8.96009 8.35208 8.99432 8.30972 9.02042 8.25795C9.10437 8.09185 9.30042 7.78763 9.33123 7.7759C9.34757 7.76957 9.36101 7.73834 9.36101 7.70642C9.36101 7.6745 9.39182 7.62615 9.42947 7.59902C9.46712 7.57189 9.49793 7.52568 9.49793 7.49633C9.49793 7.46698 9.52874 7.42077 9.56639 7.39364C9.60404 7.36652 9.63485 7.32398 9.63485 7.29908C9.63485 7.27418 9.66566 7.22078 9.70331 7.18039C9.74096 7.14 9.77177 7.08669 9.77177 7.06204C9.77177 7.03731 9.78717 7.01711 9.806 7.01711C9.82483 7.01711 9.84023 6.99692 9.84023 6.97219C9.84023 6.94754 9.87103 6.89423 9.90869 6.85384C9.94634 6.81345 9.97715 6.76724 9.97715 6.75115C9.97715 6.73506 10.0086 6.68817 10.0471 6.64692L10.117 6.57187L10.0315 6.48647C9.98451 6.4394 9.92606 6.40072 9.90167 6.40046C9.87728 6.40012 9.80523 6.35391 9.74148 6.29777C9.67772 6.24155 9.61337 6.1956 9.5984 6.1956C9.58351 6.1956 9.5509 6.17583 9.52608 6.1517C9.50118 6.12757 9.4269 6.06998 9.36101 6.02385C9.211 5.91868 9.13201 5.85518 9.04088 5.76644L8.96925 5.6967L8.80572 5.94718C8.71578 6.08495 8.64219 6.20561 8.64219 6.2152ZM20.9111 8.4694C20.8842 8.49636 20.8622 8.53632 20.8622 8.5584C20.8622 8.58039 20.816 8.64158 20.7595 8.69438C20.7031 8.74718 20.6569 8.80879 20.6569 8.8313C20.6569 8.8538 20.6106 8.91542 20.5542 8.96821C20.4977 9.02101 20.4515 9.0804 20.4515 9.10017C20.4515 9.12002 20.413 9.17479 20.3659 9.22186C20.3188 9.26892 20.2803 9.31967 20.2802 9.33465C20.2802 9.34962 20.234 9.41577 20.1776 9.48166C20.1212 9.54756 20.075 9.6173 20.075 9.63672C20.0749 9.65606 20.0441 9.69414 20.0065 9.72127C19.9688 9.7484 19.938 9.78802 19.938 9.80933C19.938 9.83064 19.8918 9.89636 19.8353 9.95549C19.7789 10.0146 19.7326 10.0762 19.7326 10.0924C19.7326 10.1086 19.6864 10.1702 19.63 10.2293C19.5735 10.2885 19.5273 10.3501 19.5273 10.3662C19.5273 10.3824 19.4811 10.444 19.4246 10.5032C19.3681 10.5623 19.3219 10.6186 19.3219 10.6284C19.3219 10.6381 19.2757 10.6944 19.2192 10.7536C19.1627 10.8127 19.1165 10.8748 19.1165 10.8917C19.1165 10.9085 19.078 10.9638 19.0309 11.0146C18.9839 11.0654 18.9454 11.1234 18.9454 11.1435C18.9454 11.1637 18.918 11.2101 18.8845 11.2466C18.8511 11.2831 18.786 11.3669 18.74 11.4328C18.6939 11.4987 18.6289 11.5824 18.5954 11.6189C18.562 11.6554 18.5346 11.7021 18.5346 11.7226C18.5346 11.7431 18.5038 11.7822 18.4661 11.8093C18.4285 11.8364 18.3977 11.8728 18.3977 11.8902C18.3977 11.9075 18.3515 11.9658 18.295 12.0198C18.2385 12.0738 18.1923 12.1347 18.1923 12.1553C18.1923 12.1758 18.1461 12.2357 18.0896 12.2885C18.0331 12.3413 17.9869 12.4015 17.9869 12.4223C17.9869 12.4432 17.9407 12.5086 17.8842 12.5677C17.8278 12.6269 17.7815 12.6904 17.7815 12.7088C17.7815 12.7274 17.7522 12.7681 17.7163 12.7992C17.6189 12.8837 17.6137 12.9835 17.7045 13.0237C17.7469 13.0424 17.7815 13.0695 17.7815 13.0839C17.7815 13.0983 17.8124 13.11 17.85 13.11C17.8877 13.11 17.9185 13.1254 17.9185 13.1443C17.9185 13.1631 17.9493 13.1785 17.9869 13.1785C18.0246 13.1785 18.0554 13.1939 18.0554 13.2127C18.0554 13.2315 18.0862 13.2469 18.1238 13.2469C18.1615 13.2469 18.1923 13.2623 18.1923 13.2812C18.1923 13.3 18.2308 13.3154 18.2779 13.3154C18.3249 13.3154 18.3635 13.3308 18.3635 13.3496C18.3635 13.3685 18.4161 13.3839 18.4804 13.3839C18.5447 13.3839 18.6036 13.4024 18.6111 13.4251C18.631 13.4848 19.8154 13.486 19.875 13.4263C19.8984 13.4029 19.9683 13.3839 20.0304 13.3839C20.0926 13.3839 20.1434 13.3685 20.1434 13.3496C20.1434 13.3308 20.1733 13.3154 20.2098 13.3154C20.2464 13.3154 20.2858 13.3 20.2974 13.2812C20.3091 13.2623 20.3485 13.2469 20.3851 13.2469C20.4216 13.2469 20.4515 13.2315 20.4515 13.2127C20.4515 13.1939 20.4823 13.1785 20.5199 13.1785C20.5576 13.1785 20.5884 13.1631 20.5884 13.1443C20.5884 13.1254 20.6115 13.11 20.6397 13.11C20.668 13.11 20.6911 13.0946 20.6911 13.0758C20.6911 13.057 20.7142 13.0416 20.7424 13.0416C20.7707 13.0416 20.7938 13.0262 20.7938 13.0073C20.7938 12.9885 20.8169 12.9731 20.8451 12.9731C20.8734 12.9731 20.8965 12.9577 20.8965 12.9389C20.8965 12.92 20.9121 12.9046 20.9312 12.9046C20.9765 12.9046 21.5468 12.3343 21.5468 12.289C21.5468 12.2699 21.5622 12.2543 21.5811 12.2543C21.5999 12.2543 21.6153 12.2312 21.6153 12.2029C21.6153 12.1747 21.6307 12.1516 21.6495 12.1516C21.6683 12.1516 21.6837 12.1285 21.6837 12.1002C21.6837 12.072 21.6992 12.0489 21.718 12.0489C21.7368 12.0489 21.7522 12.0181 21.7522 11.9804C21.7522 11.9428 21.7676 11.912 21.7864 11.912C21.8053 11.912 21.8207 11.8812 21.8207 11.8435C21.8207 11.8059 21.8361 11.7751 21.8549 11.7751C21.8737 11.7751 21.8891 11.7525 21.8891 11.7249C21.8891 11.6793 21.9253 11.5525 22.0299 11.2323C22.0763 11.09 22.0777 10.0943 22.0317 10.0072C21.989 9.92648 21.8891 9.59154 21.8891 9.52907C21.8891 9.50297 21.8737 9.48166 21.8549 9.48166C21.8361 9.48166 21.8207 9.46164 21.8207 9.43716C21.8207 9.37418 21.7401 9.20842 21.7094 9.20808C21.6953 9.20791 21.6837 9.18472 21.6837 9.15648C21.6837 9.12824 21.6683 9.10513 21.6495 9.10513C21.6307 9.10513 21.6153 9.08203 21.6153 9.05379C21.6153 9.02555 21.5999 9.00244 21.5811 9.00244C21.5622 9.00244 21.5468 8.98679 21.5468 8.9677C21.5468 8.91713 21.0587 8.42627 21.0052 8.42319C20.9804 8.42174 20.9381 8.44253 20.9111 8.4694ZM3.07984 14.6161C3.0682 14.635 3.02747 14.6504 2.9893 14.6504C2.77194 14.6504 2.0016 15.222 2.0016 15.3832C2.0016 15.4132 1.99005 15.4378 1.97593 15.4379C1.96181 15.4381 1.92261 15.5344 1.88881 15.6518C1.85501 15.7694 1.81265 15.9128 1.79468 15.9706C1.75172 16.1089 1.75275 16.4206 1.79622 16.4474C1.81505 16.4591 1.83036 16.5101 1.83028 16.5607C1.83011 16.6719 1.93562 16.978 1.97413 16.978C1.98927 16.978 2.0016 17.0054 2.0016 17.0389C2.0016 17.0724 2.0324 17.122 2.07006 17.1491C2.10771 17.1763 2.13852 17.2187 2.13852 17.2434C2.13852 17.3018 2.36238 17.5257 2.42074 17.5257C2.44547 17.5257 2.48792 17.5565 2.51505 17.5941C2.54217 17.6318 2.59181 17.6626 2.62527 17.6626C2.65881 17.6626 2.68619 17.678 2.68619 17.6968C2.68619 17.7156 2.71606 17.7311 2.7526 17.7311C2.78914 17.7311 2.82808 17.7456 2.83903 17.7633C2.84999 17.781 2.93171 17.8052 3.02071 17.817C3.1097 17.8288 3.21582 17.8546 3.25638 17.8744C3.29703 17.8942 3.38175 17.9016 3.44464 17.8909C3.50763 17.8801 3.64617 17.8567 3.75263 17.8388C4.00943 17.7957 4.19693 17.7281 4.26479 17.6544C4.29525 17.6213 4.33795 17.5941 4.35969 17.5941C4.5097 17.5941 5.01382 16.8635 5.01382 16.646C5.01382 16.6049 5.02923 16.5618 5.04805 16.5501C5.09127 16.5234 5.09324 15.9705 5.05036 15.8908C5.03274 15.8581 4.99859 15.7581 4.97437 15.6687C4.95024 15.5793 4.91841 15.5061 4.90369 15.5061C4.88897 15.5061 4.8769 15.4753 4.8769 15.4377C4.8769 15.4 4.86501 15.3692 4.85046 15.3692C4.83591 15.3692 4.79355 15.3114 4.75633 15.2408C4.67563 15.0878 4.55497 14.9584 4.49302 14.9584C4.46846 14.9584 4.40684 14.9199 4.35601 14.8729C4.30527 14.8258 4.23997 14.7873 4.21088 14.7873C4.18187 14.7873 4.15808 14.7719 4.15808 14.7531C4.15808 14.7342 4.1348 14.7188 4.1063 14.7188C4.07781 14.7188 4.02775 14.7052 3.99506 14.6886C3.84761 14.6137 3.70838 14.5889 3.41563 14.5856C3.23866 14.5835 3.09173 14.5969 3.07984 14.6161ZM5.71801 17.7476C5.69782 17.7827 5.63894 17.8572 5.58717 17.9132C5.5354 17.9692 5.49304 18.03 5.49304 18.0481C5.49304 18.0885 5.25232 18.313 5.2091 18.313C5.19216 18.313 5.13508 18.3592 5.08228 18.4156C5.02948 18.4721 4.96171 18.5183 4.93167 18.5183C4.90155 18.5183 4.8769 18.5309 4.8769 18.5462C4.8769 18.5616 4.82299 18.5998 4.7571 18.6312C4.69121 18.6627 4.63729 18.7051 4.63729 18.7256C4.63729 18.765 4.72099 18.8606 4.75539 18.8606C4.7666 18.8606 4.8597 18.9415 4.96248 19.0403C5.21253 19.281 5.28749 19.3458 5.39908 19.4177C5.45085 19.4512 5.57759 19.5629 5.68071 19.6659C5.78374 19.769 5.87898 19.8533 5.89225 19.8533C5.90551 19.8533 6.02061 19.9611 6.14803 20.0929C6.27545 20.2247 6.39337 20.3325 6.41014 20.3325C6.42692 20.3325 6.51104 20.398 6.59712 20.478C6.87379 20.7351 6.98161 20.8275 7.07711 20.8896C7.12854 20.9231 7.25485 21.0347 7.35797 21.1378C7.461 21.2409 7.5541 21.3252 7.56489 21.3252C7.57558 21.3252 7.69068 21.433 7.82067 21.5648C7.95066 21.6966 8.07063 21.8044 8.08741 21.8044C8.10418 21.8044 8.1877 21.8699 8.2731 21.9499C8.35851 22.0299 8.50287 22.157 8.59392 22.2323C8.68497 22.3076 8.85826 22.4655 8.97909 22.5831C9.09992 22.7008 9.21288 22.7971 9.23017 22.7971C9.24745 22.7971 9.36794 22.9049 9.49793 23.0367C9.62792 23.1685 9.74806 23.2763 9.76501 23.2763C9.78195 23.2763 9.84417 23.3225 9.9033 23.379L10.0108 23.4817L12.3561 23.4801L12.1507 23.2928C12.0378 23.1898 11.8446 23.0086 11.7212 22.8901C11.598 22.7716 11.444 22.6371 11.3789 22.5913C11.314 22.5453 11.1731 22.4188 11.0658 22.3101C10.9586 22.2014 10.8625 22.1125 10.8523 22.1125C10.8187 22.1125 10.6828 21.996 10.4828 21.7958C10.3746 21.6876 10.2724 21.599 10.2555 21.599C10.2387 21.599 10.0981 21.4758 9.94292 21.3252C9.78777 21.1746 9.647 21.0513 9.63014 21.0513C9.6132 21.0513 9.50255 20.9551 9.3842 20.8374C9.26585 20.7197 9.12534 20.5927 9.07194 20.555C9.01863 20.5174 8.89617 20.4094 8.79998 20.315C8.7038 20.2207 8.57116 20.1055 8.50527 20.0591C8.43937 20.0127 8.29775 19.8858 8.19052 19.7771C8.0833 19.6684 7.98694 19.5795 7.97633 19.5795C7.95331 19.5795 7.78961 19.4383 7.61854 19.2708C7.55085 19.2046 7.42617 19.0969 7.34145 19.0315C7.25673 18.9661 7.11528 18.8392 7.02705 18.7496C6.93882 18.6601 6.85137 18.5868 6.83254 18.5868C6.8138 18.5868 6.67406 18.4636 6.52199 18.313C6.37001 18.1623 6.23762 18.0391 6.22787 18.0391C6.21803 18.0391 6.13947 17.9714 6.0533 17.8888C5.82011 17.6651 5.82071 17.6656 5.78648 17.675C5.76893 17.6799 5.73812 17.7125 5.71801 17.7476ZM6.75954 24.577C6.75954 24.5958 6.68253 24.6112 6.5884 24.6112C6.49426 24.6112 6.41725 24.6266 6.41725 24.6455C6.41725 24.6643 6.38079 24.6797 6.33621 24.6797C6.24978 24.6797 5.93118 24.7996 5.81916 24.8743C5.78203 24.899 5.72426 24.9193 5.6908 24.9193C5.65734 24.9193 5.62996 24.9347 5.62996 24.9535C5.62996 24.9724 5.60917 24.9878 5.58366 24.9878C5.55825 24.9878 5.4891 25.034 5.42997 25.0905C5.37084 25.1469 5.30666 25.1932 5.28732 25.1932C5.24077 25.1932 4.80844 25.6265 4.80844 25.6731C4.80844 25.6932 4.78149 25.7384 4.74854 25.7739C4.7156 25.8092 4.64243 25.928 4.58595 26.0377C4.52947 26.1474 4.47171 26.2423 4.45759 26.2485C4.44347 26.2549 4.43192 26.2895 4.43192 26.3256C4.43192 26.3617 4.41651 26.3912 4.39769 26.3912C4.37886 26.3912 4.36346 26.4374 4.36346 26.4939C4.36346 26.5504 4.34805 26.5966 4.32923 26.5966C4.3104 26.5966 4.295 26.6418 4.295 26.6972C4.295 26.7526 4.27959 26.8074 4.26077 26.8191C4.06429 26.9405 3.96006 26.9389 11.9454 26.9389H19.6642V26.802C19.6642 26.7267 19.6488 26.665 19.63 26.665C19.6111 26.665 19.5957 26.6188 19.5957 26.5623C19.5957 26.5059 19.5803 26.4597 19.5615 26.4597C19.5427 26.4597 19.5273 26.437 19.5273 26.4093C19.5273 26.3815 19.4881 26.293 19.4402 26.2124C19.3923 26.1319 19.3443 26.0391 19.3335 26.0061C19.3227 25.9732 19.3003 25.9462 19.2836 25.9462C19.267 25.9462 19.2534 25.927 19.2534 25.9034C19.2533 25.8799 19.214 25.8144 19.1658 25.7579C19.1176 25.7015 19.0512 25.6238 19.0182 25.5853C18.9852 25.5468 18.948 25.4891 18.9357 25.457C18.9234 25.4248 18.8964 25.3985 18.8758 25.3985C18.8551 25.3985 18.7632 25.3215 18.6715 25.2274C18.5799 25.1332 18.4841 25.0562 18.4588 25.0562C18.4335 25.0562 18.3906 25.0254 18.3635 24.9878C18.3363 24.9501 18.2905 24.9192 18.2618 24.9191C18.233 24.9191 18.1336 24.8805 18.041 24.8336C17.9484 24.7866 17.8454 24.7482 17.812 24.7482C17.7786 24.7482 17.7418 24.7328 17.7302 24.7139C17.7186 24.6951 17.6714 24.6797 17.6255 24.6797C17.5795 24.6797 17.5419 24.6643 17.5419 24.6455C17.5419 24.6266 17.4688 24.611 17.3793 24.6107C17.2899 24.6105 17.1937 24.5952 17.1654 24.577C17.0936 24.5306 6.75954 24.5306 6.75954 24.577Z" fill="#3C3C3C"/>
<path fill-rule="evenodd" clip-rule="evenodd" d="M3.77953 14.5588C3.94965 14.59 4.30119 14.7296 4.31951 14.7731C4.32584 14.7881 4.35143 14.8003 4.37641 14.8003C4.42793 14.8003 4.83869 15.1934 4.83869 15.2427C4.83869 15.2603 4.86008 15.296 4.88618 15.3222C4.91228 15.3483 4.97518 15.4842 5.02601 15.6241C5.31833 16.4298 4.95507 17.3511 4.20535 17.7051C4.1113 17.7495 4.0075 17.7995 3.97481 17.8163C3.94212 17.8331 3.86126 17.8468 3.79511 17.8468C3.72896 17.8468 3.67487 17.8622 3.67487 17.881C3.67487 17.9 3.58425 17.9152 3.47155 17.9152C3.3597 17.9152 3.25864 17.8998 3.247 17.881C3.23536 17.8622 3.16511 17.8468 3.09091 17.8468C3.01672 17.8468 2.95605 17.8314 2.95605 17.8126C2.95605 17.7937 2.92832 17.7783 2.89443 17.7783C2.81793 17.7783 2.64858 17.7018 2.64824 17.6671C2.64806 17.653 2.6241 17.6414 2.59501 17.6414C2.50806 17.6414 2.05597 17.1599 1.96817 16.9739C1.92376 16.8798 1.8737 16.776 1.85693 16.7433C1.84015 16.7106 1.82646 16.6384 1.82646 16.5828C1.82646 16.5271 1.81106 16.4721 1.79223 16.4605C1.77341 16.4488 1.758 16.3333 1.758 16.2038C1.758 16.0742 1.77341 15.9587 1.79223 15.947C1.81106 15.9354 1.82646 15.8804 1.82646 15.8247C1.82646 15.7691 1.84015 15.6969 1.85693 15.6642C1.8737 15.6315 1.92231 15.5316 1.96501 15.4421C2.00771 15.3527 2.05555 15.2796 2.07146 15.2796C2.08729 15.2796 2.1003 15.2594 2.1003 15.2349C2.1003 14.8833 3.17974 14.4487 3.77953 14.5588ZM17.3839 24.5585C17.6572 24.6185 17.9357 24.7099 18.1289 24.8031C18.4241 24.9452 18.6505 24.9372 18.824 24.7783C18.8959 24.7124 18.9593 24.6585 18.9648 24.6585C18.9822 24.6585 19.1211 24.7751 19.1993 24.8553C19.2406 24.8977 19.2885 24.9324 19.3057 24.9324C19.3428 24.9324 19.3921 24.9889 19.5742 25.2404C19.6492 25.344 19.7365 25.4573 19.7683 25.4922C19.914 25.6524 19.9158 25.7383 19.7762 25.8662C19.5775 26.0484 19.5339 26.3271 19.6642 26.5835C19.6808 26.6162 19.6944 26.6807 19.6944 26.7269C19.6944 26.7732 19.7098 26.8205 19.7287 26.8321C19.7475 26.8438 19.7629 26.8678 19.7629 26.8855C19.7629 26.9055 16.8315 26.9177 12.0098 26.9177C4.43546 26.9177 4.25678 26.9162 4.25678 26.8532C4.25678 26.7598 4.42382 26.2763 4.50563 26.1329C4.54397 26.0656 4.6067 25.9528 4.64495 25.8822C4.6832 25.8116 4.72701 25.7539 4.74233 25.7539C4.75765 25.7539 4.77023 25.7365 4.77023 25.7153C4.77023 25.6591 5.30815 25.1336 5.48905 25.013C5.81629 24.7947 6.11375 24.6746 6.58441 24.5707C6.84105 24.5141 17.1284 24.5024 17.3839 24.5585Z" fill="#E3CDF9"/>

</svg>
