<svg width="26" height="27" viewBox="0 0 26 27" fill="none" xmlns="http://www.w3.org/2000/svg">
<line x1="1" y1="-1" x2="1.52078" y2="-1" transform="matrix(0.316037 0.948747 -0.949336 0.314262 10.6115 1)" stroke="#EB4799" stroke-width="2" stroke-linecap="round"/>
<line x1="1" y1="-1" x2="1.52172" y2="-1" transform="matrix(-0.467995 0.883731 -0.884935 -0.465715 21.9869 2.26001)" stroke="#EB4799" stroke-width="2" stroke-linecap="round"/>
<line x1="1" y1="-1" x2="1.52686" y2="-1" transform="matrix(0.933201 0.359354 -0.325961 0.945383 0.5 8.56006)" stroke="#EB4799" stroke-width="2" stroke-linecap="round"/>
<line x1="1" y1="-1" x2="1.52238" y2="-1" transform="matrix(0.549974 -0.835182 0.836753 0.54758 4.92383 22.4199)" stroke="#EB4799" stroke-width="2" stroke-linecap="round"/>
<line x1="1" y1="-1" x2="1.52" y2="-1" transform="matrix(0.076658 -0.997057 0.997094 0.0761831 17.1904 26.2)" stroke="#EB4799" stroke-width="2" stroke-linecap="round"/>
<path d="M16.0785 9.00575C15.8645 7.87497 17.416 6.27303 18.2186 5.6134L23.8361 9.85383L25.1736 13.2462L23.8361 15.7904L24.6386 17.7693L23.0336 19.4655L20.0911 20.879V22.5751L17.9511 22.2924C17.5052 21.727 16.5601 20.5397 16.3461 20.3136C16.1321 20.0874 15.7219 19.8424 15.5436 19.7482C15.3652 19.7482 14.741 19.4089 13.671 18.052C12.3335 16.3558 13.4035 14.9423 14.741 13.8116C16.0786 12.6808 16.346 10.4192 16.0785 9.00575Z" fill="#F5A3CC"/>
<path fill-rule="evenodd" clip-rule="evenodd" d="M14.2642 4.27624C14.2602 4.2887 14.1667 4.29814 14.0563 4.29725C13.9317 4.2963 13.8495 4.30568 13.8395 4.32213C13.83 4.33792 13.762 4.34724 13.671 4.34516C13.5776 4.34308 13.5123 4.35229 13.5025 4.36891C13.4929 4.38523 13.4366 4.39384 13.362 4.39046C13.283 4.38684 13.2377 4.39438 13.2377 4.41106C13.2377 4.42905 13.1828 4.43338 13.0635 4.42489C12.9678 4.41812 12.9172 4.41759 12.9512 4.4237C13.0629 4.44389 13.0204 4.48604 12.9006 4.47387C12.8159 4.46526 12.7883 4.4703 12.7883 4.49459C12.7883 4.51625 12.759 4.5267 12.6984 4.5267C12.6479 4.5267 12.6085 4.53816 12.6085 4.55282C12.6085 4.56927 12.5709 4.5758 12.5074 4.57046C12.4369 4.56458 12.4063 4.57105 12.4063 4.59183C12.4063 4.61011 12.3758 4.62169 12.3276 4.62169C12.2844 4.62169 12.249 4.6335 12.249 4.64793C12.249 4.66419 12.2149 4.67072 12.1591 4.66508C12.0946 4.65861 12.0692 4.66508 12.0692 4.68794C12.0692 4.70872 12.0477 4.71721 12.0074 4.71234C11.9663 4.70729 11.9481 4.69293 11.9531 4.66918C11.9573 4.64959 11.9523 4.64235 11.9422 4.65303C11.9321 4.66378 11.9236 4.69049 11.9235 4.7124C11.9233 4.73994 11.9006 4.75461 11.8502 4.75971C11.81 4.76381 11.7771 4.77717 11.7771 4.7894C11.7771 4.80163 11.7474 4.81166 11.7111 4.81166C11.6747 4.81166 11.6381 4.82341 11.6297 4.83778C11.6209 4.8528 11.5864 4.85802 11.5486 4.85001C11.5078 4.8414 11.488 4.84508 11.4965 4.85969C11.518 4.89643 11.4389 4.91727 11.393 4.88699C11.3595 4.86485 11.3542 4.86633 11.3646 4.89489C11.3814 4.94131 11.3105 4.96904 11.2601 4.93573C11.2285 4.9149 11.2214 4.91763 11.2237 4.9498C11.2257 4.97741 11.2092 4.98976 11.1704 4.98976C11.1395 4.98976 11.1062 5.00311 11.0963 5.01944C11.0864 5.03577 11.0592 5.04912 11.0358 5.04912C11.0125 5.04912 10.9865 5.06076 10.9782 5.07495C10.9699 5.08914 10.9447 5.09567 10.9222 5.08943C10.8987 5.08296 10.8757 5.09323 10.8683 5.11365C10.8596 5.13764 10.838 5.14452 10.8018 5.13491C10.7655 5.12529 10.744 5.13218 10.7352 5.1564C10.7281 5.17599 10.7144 5.1897 10.7048 5.18679C10.6952 5.18388 10.6653 5.19445 10.6384 5.21024C10.5829 5.24277 10.5115 5.22431 10.5337 5.18317C10.5421 5.16791 10.5396 5.16453 10.5283 5.17545C10.5172 5.1862 10.508 5.21285 10.5078 5.23476C10.5077 5.25667 10.4975 5.27501 10.4851 5.27549C10.4727 5.27602 10.4412 5.28902 10.415 5.3044C10.3889 5.31983 10.3603 5.32488 10.3516 5.31562C10.3428 5.30641 10.3261 5.31704 10.3143 5.33924C10.3025 5.36157 10.2781 5.37362 10.2598 5.3662C10.2416 5.35878 10.2267 5.36459 10.2267 5.37902C10.2267 5.3935 10.2014 5.40532 10.1705 5.40532C10.1396 5.40532 10.1143 5.416 10.1143 5.42906C10.1143 5.44213 10.0891 5.45281 10.0582 5.45281C10.0273 5.45281 10.002 5.4635 10.002 5.47656C10.002 5.48962 9.98177 5.5003 9.95705 5.5003C9.93233 5.5003 9.91211 5.51099 9.91211 5.52405C9.91211 5.53711 9.89189 5.5478 9.86717 5.5478C9.84245 5.5478 9.82223 5.55848 9.82223 5.57154C9.82223 5.5846 9.80403 5.59529 9.78178 5.59529C9.75954 5.59529 9.7301 5.60716 9.71634 5.62171C9.70258 5.63625 9.65 5.64397 9.5995 5.63892C9.53158 5.63204 9.50765 5.63833 9.50765 5.66291C9.50765 5.68867 9.4799 5.69372 9.38407 5.68535C9.28683 5.6768 9.26048 5.68179 9.26048 5.70862C9.26048 5.73409 9.23779 5.7405 9.17105 5.73373C9.10948 5.72756 9.07791 5.73492 9.06971 5.75754C9.06173 5.77956 9.03218 5.78722 8.98 5.78081C8.93 5.77463 8.89826 5.78217 8.89107 5.802C8.88495 5.81892 8.84922 5.83275 8.81181 5.83275C8.77434 5.83275 8.74367 5.84427 8.74367 5.85828C8.74367 5.87259 8.71356 5.88048 8.67536 5.87627C8.63463 5.87176 8.59924 5.88197 8.58778 5.90162C8.57649 5.92091 8.54897 5.92916 8.52122 5.92151C8.49161 5.91331 8.46661 5.92222 8.45437 5.94537C8.44223 5.96823 8.41707 5.97743 8.38842 5.96953C8.36044 5.96182 8.33736 5.96977 8.33011 5.98972C8.31522 6.0308 8.24534 6.0327 8.20753 5.99304C8.18484 5.96924 8.1822 5.97155 8.19416 6.00474C8.20433 6.033 8.19591 6.05057 8.16743 6.0603C8.14451 6.06814 8.10395 6.08547 8.07732 6.09889C8.05069 6.11231 8.01783 6.11611 8.00429 6.10726C7.99075 6.09842 7.97969 6.10198 7.97969 6.11522C7.97969 6.14502 7.82594 6.22433 7.80695 6.20433C7.79937 6.19625 7.77948 6.20824 7.76285 6.23086C7.73426 6.26969 7.73055 6.26933 7.69814 6.22504C7.66471 6.17921 7.66398 6.17957 7.67005 6.23692C7.67426 6.2764 7.66522 6.29581 7.64264 6.29581C7.6241 6.29581 7.59781 6.31077 7.58427 6.32911C7.57068 6.34746 7.54793 6.35482 7.53371 6.34556C7.51945 6.33624 7.50782 6.33992 7.50782 6.35375C7.50782 6.36758 7.4922 6.37892 7.47316 6.37892C7.45411 6.37892 7.41681 6.40029 7.3903 6.42641C7.36378 6.45253 7.32879 6.47391 7.31261 6.47391C7.29638 6.47391 7.28312 6.48257 7.28312 6.4932C7.28312 6.50383 7.24773 6.52722 7.20447 6.54515C7.16122 6.56307 7.12583 6.58646 7.12583 6.59709C7.12583 6.60772 7.11066 6.61638 7.09212 6.61638C7.07358 6.61638 7.05842 6.62707 7.05842 6.64013C7.05842 6.65319 7.04516 6.66388 7.02893 6.66388C7.01275 6.66388 6.97775 6.68525 6.95124 6.71137C6.92472 6.73749 6.89439 6.75886 6.88383 6.75886C6.87326 6.75886 6.84473 6.77756 6.82035 6.80042C6.79591 6.82328 6.7308 6.87896 6.67564 6.9242C6.62048 6.96943 6.57194 7.01485 6.56784 7.02512C6.56368 7.03539 6.54852 7.04418 6.53414 7.04459C6.5197 7.04501 6.40819 7.14652 6.28635 7.27018C6.05805 7.50183 6.01148 7.53371 6.03598 7.44157C6.0471 7.3999 6.04508 7.39598 6.02676 7.42376C6.0139 7.44335 6.00834 7.47642 6.01446 7.49726C6.02159 7.52136 5.9725 7.5926 5.87913 7.69376C5.79858 7.78097 5.73269 7.86349 5.73269 7.87714C5.73269 7.89073 5.71331 7.89536 5.68966 7.88747C5.66595 7.87951 5.64017 7.88403 5.6323 7.89744C5.62382 7.91199 5.63213 7.91614 5.65286 7.90777C5.67207 7.9 5.68775 7.90593 5.68775 7.92095C5.68775 7.96102 5.5786 8.06978 5.55427 8.05393C5.54287 8.04651 5.5272 8.05126 5.51945 8.0645C5.51169 8.0778 5.51602 8.08866 5.52911 8.08866C5.56551 8.08866 5.55764 8.12185 5.50799 8.17818C5.48327 8.20621 5.46305 8.24028 5.46305 8.25388C5.46305 8.26747 5.45462 8.27863 5.4444 8.27863C5.43412 8.27863 5.41137 8.30802 5.39384 8.34393C5.37626 8.37985 5.34424 8.42996 5.32261 8.45525C5.30098 8.48059 5.28329 8.51604 5.28329 8.53402C5.28329 8.55664 5.26761 8.5621 5.23273 8.55177C5.19481 8.54049 5.19032 8.54263 5.21486 8.5605C5.25621 8.59054 5.20245 8.71479 5.15622 8.69603C5.14038 8.68962 5.12212 8.69348 5.1156 8.70464C5.10909 8.71574 5.12145 8.73207 5.14296 8.74091C5.1774 8.75498 5.17807 8.76039 5.14847 8.78496C5.10841 8.81821 5.02516 8.99031 5.02864 9.03258C5.02999 9.0489 5.02213 9.06226 5.01117 9.06226C5.00016 9.06226 4.99118 9.08363 4.99118 9.10976C4.99118 9.13588 4.98106 9.15725 4.96871 9.15725C4.95635 9.15725 4.94624 9.17328 4.94624 9.19287C4.94624 9.2124 4.90579 9.27248 4.85636 9.32632C4.80692 9.38017 4.76648 9.43395 4.76648 9.44589C4.76648 9.48335 4.61267 9.63188 4.58216 9.62387C4.5661 9.61965 4.56059 9.62072 4.56986 9.62618C4.60346 9.64601 4.58537 9.69789 4.5193 9.77091C4.48223 9.81194 4.45189 9.85622 4.45189 9.8694C4.45189 9.88258 4.44178 9.89339 4.42942 9.89339C4.41707 9.89339 4.40695 9.90484 4.40695 9.91885C4.40695 9.96296 4.34438 10.0126 4.30752 9.99763C4.28781 9.98962 4.27213 9.99555 4.27213 10.011C4.27213 10.0262 4.28225 10.0321 4.2946 10.024C4.33572 9.9971 4.31775 10.0826 4.27213 10.1308C4.24742 10.157 4.22719 10.1874 4.22719 10.1984C4.22719 10.2095 4.20675 10.2381 4.18169 10.262C4.15669 10.2859 4.13979 10.3167 4.14411 10.3304C4.15698 10.3712 4.07704 10.4469 4.04356 10.4257C4.02165 10.4117 4.02232 10.4179 4.04597 10.4487C4.0649 10.4733 4.06957 10.4973 4.05721 10.5066C4.04558 10.5155 4.02182 10.5521 4.00429 10.588C3.98677 10.6239 3.95452 10.6533 3.93261 10.6533C3.9107 10.6533 3.88661 10.6638 3.87908 10.6767C3.87121 10.6902 3.8802 10.6942 3.9002 10.6861C3.92284 10.6769 3.93508 10.6854 3.93508 10.7101C3.93508 10.7311 3.92497 10.7483 3.91261 10.7483C3.90026 10.7483 3.89014 10.7696 3.89014 10.7957C3.89014 10.8219 3.88194 10.8432 3.87189 10.8432C3.86183 10.8432 3.8397 10.8806 3.82273 10.9264C3.80577 10.9721 3.78364 11.0095 3.77358 11.0095C3.76353 11.0095 3.75532 11.0308 3.75532 11.057C3.75532 11.0831 3.74521 11.1045 3.73285 11.1045C3.7205 11.1045 3.71038 11.1258 3.71038 11.1519C3.71038 11.1781 3.70027 11.1994 3.68791 11.1994C3.67556 11.1994 3.66544 11.2273 3.66544 11.2614C3.66544 11.306 3.65629 11.3195 3.63247 11.3099C3.61432 11.3025 3.59348 11.3067 3.58618 11.3192C3.57888 11.3317 3.5836 11.3419 3.59669 11.3419C3.60977 11.3419 3.6205 11.3633 3.6205 11.3894C3.6205 11.4155 3.61039 11.4369 3.59803 11.4369C3.58568 11.4369 3.57556 11.4583 3.57556 11.4844C3.57556 11.5173 3.56 11.5325 3.52501 11.5338C3.4972 11.5348 3.48709 11.541 3.50254 11.5476C3.51798 11.5542 3.53062 11.5866 3.53062 11.6195C3.53062 11.6592 3.52068 11.6754 3.50113 11.6675C3.47984 11.6589 3.47434 11.6745 3.48125 11.7243C3.48686 11.7651 3.48057 11.7931 3.46574 11.7931C3.45198 11.7931 3.44074 11.8252 3.44074 11.8643C3.44074 11.9218 3.43097 11.9359 3.39019 11.9375C3.36238 11.9385 3.35227 11.9447 3.36772 11.9513C3.40092 11.9654 3.40603 12.1018 3.37333 12.1018C3.36098 12.1018 3.35086 12.1402 3.35086 12.187C3.35086 12.2464 3.33553 12.2858 3.30031 12.3169C3.2725 12.3414 3.26121 12.3618 3.2752 12.3622C3.31104 12.3633 3.32907 12.4528 3.30581 12.5137C3.29508 12.5419 3.28553 12.5542 3.28452 12.5411C3.28357 12.528 3.27396 12.532 3.26323 12.55C3.25194 12.5688 3.25289 12.618 3.26548 12.666C3.28008 12.7219 3.27924 12.783 3.26289 12.8517C3.23138 12.984 3.23138 13.523 3.26289 13.6553C3.27958 13.7255 3.2802 13.7847 3.26469 13.8438C3.24598 13.9154 3.24846 13.9338 3.27902 13.9519C3.30598 13.9679 3.31469 14.0028 3.31137 14.0825C3.3089 14.1424 3.31677 14.1915 3.3289 14.1915C3.3612 14.1915 3.35569 14.3279 3.32278 14.3423C3.30576 14.3497 3.31463 14.3609 3.34525 14.3708C3.38468 14.3834 3.3958 14.4047 3.3958 14.4674C3.3958 14.5115 3.40592 14.5477 3.41827 14.5477C3.43063 14.5477 3.44074 14.5797 3.44074 14.6189C3.44074 14.6581 3.45086 14.6902 3.46321 14.6902C3.47557 14.6902 3.48568 14.7169 3.48568 14.7495C3.48568 14.7822 3.49697 14.8089 3.51079 14.8089C3.5254 14.8089 3.53141 14.8336 3.52512 14.8683C3.51793 14.9081 3.52444 14.9276 3.54495 14.9276C3.5618 14.9276 3.57556 14.949 3.57556 14.9751C3.57556 15.0012 3.58568 15.0226 3.59803 15.0226C3.61039 15.0226 3.6205 15.0493 3.6205 15.082C3.6205 15.1146 3.63062 15.1413 3.64297 15.1413C3.65533 15.1413 3.66544 15.1627 3.66544 15.1888C3.66544 15.215 3.67556 15.2363 3.68791 15.2363C3.70027 15.2363 3.71038 15.2577 3.71038 15.2838C3.71038 15.3099 3.7205 15.3313 3.73285 15.3313C3.74521 15.3313 3.75532 15.3473 3.75532 15.3669C3.75532 15.3865 3.76544 15.4025 3.77779 15.4025C3.79015 15.4025 3.80026 15.4239 3.80026 15.45C3.80026 15.4762 3.81038 15.4975 3.82273 15.4975C3.83509 15.4975 3.8452 15.5136 3.8452 15.5332C3.8452 15.5527 3.85532 15.5688 3.86767 15.5688C3.88003 15.5688 3.89014 15.5901 3.89014 15.6163C3.89014 15.6424 3.89857 15.6638 3.90879 15.6638C3.91907 15.6638 3.94183 15.6931 3.95935 15.7291C3.97693 15.765 4.00895 15.8151 4.03058 15.8404C4.05221 15.8657 4.0699 15.9005 4.0699 15.9175C4.0699 15.9347 4.07783 15.9487 4.08754 15.9487C4.09721 15.9487 4.12159 15.9781 4.14175 16.014C4.16186 16.0499 4.19686 16.1034 4.21961 16.1329C4.24231 16.1624 4.29123 16.2296 4.32831 16.2822C4.36539 16.3348 4.43841 16.4282 4.4906 16.4898C4.54273 16.5514 4.5857 16.6204 4.5861 16.6433C4.58643 16.6662 4.59683 16.6849 4.60918 16.6849C4.62154 16.6849 4.63165 16.7009 4.63165 16.7205C4.63165 16.7401 4.64177 16.7561 4.65413 16.7561C4.66648 16.7561 4.6766 16.7721 4.6766 16.7917C4.6766 16.8113 4.68671 16.8273 4.69907 16.8273C4.71142 16.8273 4.72154 16.8413 4.72154 16.8585C4.72154 16.8756 4.74176 16.9126 4.76648 16.9406C4.79119 16.9686 4.81142 16.9972 4.81142 17.0042C4.81142 17.0168 4.8659 17.0907 4.91815 17.1489C4.9336 17.1661 4.94624 17.1895 4.94624 17.2009C4.94624 17.2462 5.6068 17.8959 5.65292 17.8959C5.66073 17.8959 5.68887 17.9173 5.71538 17.9434C5.7419 17.9695 5.7769 17.9909 5.79307 17.9909C5.80931 17.9909 5.82257 18.0016 5.82257 18.0147C5.82257 18.0277 5.84279 18.0384 5.86751 18.0384C5.89222 18.0384 5.91245 18.0491 5.91245 18.0621C5.91245 18.0752 5.93267 18.0859 5.95739 18.0859C5.9821 18.0859 6.00233 18.0966 6.00233 18.1096C6.00233 18.1227 6.02255 18.1334 6.04727 18.1334C6.07198 18.1334 6.09221 18.1441 6.09221 18.1571C6.09221 18.1702 6.11749 18.1809 6.14838 18.1809C6.17928 18.1809 6.20456 18.1916 6.20456 18.2046C6.20456 18.2177 6.23489 18.2284 6.27197 18.2284C6.30904 18.2284 6.33938 18.2391 6.33938 18.2521C6.33938 18.2652 6.36971 18.2759 6.40679 18.2759C6.44386 18.2759 6.4742 18.2865 6.4742 18.2996C6.4742 18.3127 6.5197 18.3234 6.57531 18.3234C6.63093 18.3234 6.67643 18.334 6.67643 18.3471C6.67643 18.3611 6.75552 18.3708 6.86877 18.3708C6.99123 18.3708 7.056 18.3795 7.04718 18.3946C7.03831 18.4098 7.1106 18.4183 7.24806 18.4183C7.37631 18.4183 7.46288 18.4088 7.46288 18.3946C7.46288 18.3806 7.54152 18.3708 7.65387 18.3708C7.76622 18.3708 7.84487 18.3611 7.84487 18.3471C7.84487 18.334 7.89543 18.3234 7.95722 18.3234C8.01901 18.3234 8.06957 18.3127 8.06957 18.2996C8.06957 18.2865 8.11001 18.2759 8.15945 18.2759C8.21135 18.2759 8.24933 18.2645 8.24933 18.249C8.24933 18.2313 8.28017 18.2265 8.33921 18.2348C8.40712 18.2445 8.42909 18.2395 8.42909 18.2142C8.42909 18.1947 8.45184 18.1809 8.48392 18.1809C8.51408 18.1809 8.54503 18.1702 8.55267 18.1571C8.56031 18.1441 8.58632 18.1334 8.61048 18.1334C8.63463 18.1334 8.67446 18.1201 8.69901 18.1039C8.73356 18.0811 8.75327 18.0808 8.78614 18.1025C8.82304 18.1269 8.82715 18.1245 8.81726 18.0845C8.8081 18.0475 8.81748 18.0384 8.86461 18.0384C8.89697 18.0384 8.92343 18.0277 8.92343 18.0147C8.92343 18.0016 8.94871 17.9909 8.9796 17.9909C9.0105 17.9909 9.03578 17.9815 9.03578 17.9699C9.03578 17.8877 9.16993 17.9299 9.2156 18.0265C9.23408 18.0657 9.26694 18.1185 9.28857 18.1438C9.31019 18.1691 9.32789 18.2038 9.32789 18.2209C9.32789 18.2381 9.33632 18.2521 9.34654 18.2521C9.35682 18.2521 9.37957 18.2815 9.3971 18.3174C9.41468 18.3533 9.43912 18.3949 9.45148 18.4097C9.51417 18.4852 9.55259 18.539 9.55259 18.5514C9.55259 18.58 10.1056 19.1447 10.1649 19.1767C10.1989 19.195 10.2267 19.2189 10.2267 19.2298C10.2267 19.2406 10.2419 19.2495 10.2604 19.2495C10.2789 19.2495 10.2941 19.2589 10.2941 19.2705C10.2941 19.2821 10.329 19.3091 10.3717 19.3304C10.4144 19.3519 10.4624 19.3829 10.4784 19.3994C10.511 19.4328 10.6749 19.5199 10.7098 19.5222C10.7222 19.523 10.7309 19.5418 10.7292 19.564C10.7269 19.5959 10.7348 19.5995 10.7669 19.5814C10.8052 19.5597 10.9446 19.613 10.9637 19.6566C10.9674 19.665 10.99 19.6665 11.0139 19.6598C11.0408 19.6524 11.0627 19.6621 11.0711 19.685C11.0809 19.712 11.1027 19.7185 11.15 19.7085C11.1999 19.698 11.2154 19.7035 11.2154 19.7318C11.2154 19.7609 11.2322 19.766 11.2936 19.7555C11.3514 19.7456 11.3753 19.7515 11.385 19.7782C11.3949 19.8054 11.4202 19.8113 11.4861 19.802C11.5535 19.7924 11.5773 19.7984 11.5879 19.8276C11.5994 19.8592 11.625 19.8631 11.7377 19.8507C11.841 19.8392 11.8796 19.8437 11.8984 19.8691C11.9344 19.9176 12.9411 19.9183 12.9893 19.8698C13.0136 19.8454 13.0599 19.8409 13.1723 19.852C13.2992 19.8644 13.325 19.8606 13.3369 19.8279C13.3483 19.7965 13.372 19.7918 13.4609 19.8029C13.5449 19.8134 13.5738 19.8086 13.5833 19.7824C13.5978 19.7426 13.6931 19.7372 13.7559 19.7727C13.7902 19.7921 13.7994 19.7895 13.7994 19.7608C13.7994 19.6933 13.8514 19.7236 14.0117 19.8847C14.2056 20.0795 14.3181 20.1746 14.3556 20.1752C14.371 20.1754 14.3836 20.1863 14.3836 20.1993C14.3836 20.2124 14.3988 20.2231 14.4174 20.2231C14.4359 20.2231 14.4511 20.2338 14.4511 20.2468C14.4511 20.2599 14.4662 20.2706 14.4848 20.2706C14.5033 20.2706 14.5185 20.2812 14.5185 20.2943C14.5185 20.3074 14.5387 20.3181 14.5634 20.3181C14.5881 20.3181 14.6083 20.3287 14.6083 20.3418C14.6083 20.3549 14.6336 20.3655 14.6645 20.3655C14.6954 20.3655 14.7207 20.3762 14.7207 20.3893C14.7207 20.4024 14.747 20.413 14.7793 20.413C14.8215 20.413 14.8343 20.4227 14.8252 20.4479C14.8182 20.4671 14.8238 20.4901 14.8375 20.4991C14.8526 20.5089 14.8561 20.5045 14.8464 20.488C14.8231 20.4481 14.9433 20.4436 14.9679 20.4835C14.974 20.4935 15.0044 20.5004 15.0353 20.4989C15.0785 20.4968 15.0932 20.5094 15.0991 20.5534C15.1033 20.585 15.1134 20.5997 15.1216 20.5863C15.1482 20.5425 15.2313 20.5286 15.2634 20.5625C15.2821 20.5822 15.3403 20.5941 15.4126 20.593C15.4899 20.5918 15.5378 20.6024 15.5501 20.6234C15.5639 20.647 15.5943 20.6512 15.6635 20.6388C15.7772 20.6185 15.9631 20.6439 15.9437 20.677C15.935 20.6919 16.0003 20.6989 16.1226 20.696L16.3152 20.6916L16.4561 20.8461C16.5336 20.931 16.6388 21.0526 16.6901 21.1164C16.7413 21.1802 16.8272 21.2814 16.8811 21.3414C16.9349 21.4014 17.0244 21.5076 17.08 21.5774C17.1357 21.6473 17.2216 21.748 17.271 21.8014C17.3205 21.8547 17.3952 21.9408 17.4372 21.9928C17.4792 22.0447 17.5803 22.1621 17.6619 22.2537C17.7435 22.3454 17.8457 22.467 17.889 22.524C17.9322 22.581 18.0333 22.6999 18.1137 22.7881C18.194 22.8763 18.3103 23.0132 18.3721 23.0923C18.4339 23.1715 18.4952 23.2368 18.5083 23.2376C18.5214 23.2383 18.5539 23.2602 18.5804 23.2864C18.6069 23.3125 18.6492 23.3338 18.6745 23.3338C18.6997 23.3338 18.7204 23.344 18.7204 23.3563C18.7204 23.3702 19.0936 23.3791 19.6866 23.3795C20.3001 23.3799 20.6528 23.3717 20.6528 23.357C20.6528 23.3443 20.673 23.3338 20.6977 23.3338C20.7224 23.3338 20.7427 23.3232 20.7427 23.3101C20.7427 23.297 20.7572 23.2864 20.7749 23.2864C20.8146 23.2864 21.0123 23.0748 21.0123 23.0323C21.0123 23.0153 21.0224 23.0014 21.0348 23.0014C21.0471 23.0014 21.0572 22.9797 21.0572 22.9531C21.0572 22.9267 21.0699 22.8998 21.0853 22.8935C21.1204 22.8792 21.126 22.3857 21.0909 22.3919C21.0786 22.3941 21.0688 22.3531 21.0692 22.3009C21.0697 22.2451 21.0572 22.1975 21.039 22.1856C21.0179 22.1718 21.0125 22.141 21.022 22.0875C21.0325 22.0281 21.0271 22.006 20.9992 21.9947C20.971 21.9832 20.9657 21.9613 20.9767 21.8997C20.9874 21.8395 20.9823 21.8161 20.9562 21.8055C20.8955 21.7809 20.922 21.6103 20.9851 21.6197C21.0126 21.6238 21.051 21.6104 21.0703 21.59C21.0926 21.5665 21.1252 21.558 21.1593 21.5671C21.1938 21.5763 21.2262 21.5677 21.2492 21.5434C21.2724 21.5188 21.3045 21.5105 21.3397 21.5198C21.3729 21.5286 21.3943 21.524 21.3943 21.5079C21.3943 21.4935 21.4252 21.4816 21.4631 21.4816C21.5093 21.4816 21.5265 21.4906 21.5157 21.5091C21.5058 21.526 21.5096 21.53 21.5256 21.5195C21.5399 21.5102 21.5516 21.4871 21.5516 21.4683C21.5516 21.4338 21.575 21.4252 21.6471 21.4329C21.6687 21.4352 21.6864 21.4258 21.6864 21.4119C21.6864 21.398 21.7117 21.3866 21.7426 21.3866C21.7735 21.3866 21.7988 21.376 21.7988 21.3629C21.7988 21.3284 21.9053 21.3337 21.9187 21.3688C21.9249 21.3852 21.9308 21.3745 21.9318 21.3451C21.9331 21.3044 21.947 21.2917 21.9897 21.2917C22.0206 21.2917 22.0459 21.281 22.0459 21.2679C22.0459 21.2548 22.0712 21.2442 22.1021 21.2442C22.133 21.2442 22.1583 21.2335 22.1583 21.2204C22.1583 21.2074 22.1785 21.1967 22.2032 21.1967C22.2279 21.1967 22.2482 21.186 22.2482 21.1729C22.2482 21.1599 22.2664 21.1492 22.2886 21.1492C22.3108 21.1492 22.3414 21.1361 22.3566 21.1201C22.3777 21.0978 22.3938 21.0974 22.426 21.1187C22.4622 21.1426 22.4664 21.14 22.4566 21.1003C22.4438 21.0485 22.4923 21.0367 22.5345 21.0814C22.5538 21.1017 22.5571 21.0958 22.5476 21.0576C22.5377 21.0174 22.545 21.0067 22.5826 21.0067C22.6087 21.0067 22.6301 20.996 22.6301 20.983C22.6301 20.9699 22.6495 20.9592 22.6732 20.9592C22.6969 20.9592 22.7196 20.9512 22.7238 20.9414C22.7332 20.9191 22.8528 20.842 22.9054 20.8244C22.927 20.8171 22.9447 20.8018 22.9447 20.7902C22.9447 20.7787 22.9603 20.7692 22.9794 20.7692C22.9984 20.7692 23.0357 20.7479 23.0622 20.7217C23.0888 20.6956 23.1238 20.6742 23.1399 20.6742C23.1562 20.6742 23.1694 20.6636 23.1694 20.6505C23.1694 20.6374 23.1841 20.6268 23.202 20.6268C23.2199 20.6268 23.2618 20.6 23.2951 20.5674C23.3285 20.5347 23.3644 20.508 23.3749 20.508C23.3855 20.508 23.4136 20.4893 23.4374 20.4665C23.5073 20.3995 23.5487 20.3655 23.5607 20.3655C23.5668 20.3655 23.5953 20.3415 23.624 20.3121C23.6526 20.2827 23.7108 20.232 23.7533 20.1993C23.855 20.1212 24.3979 19.5441 24.4588 19.4494C24.5108 19.3687 24.7027 19.0964 24.7547 19.0295C24.7726 19.0065 24.7873 18.9718 24.7873 18.9523C24.7873 18.9329 24.7974 18.917 24.8097 18.917C24.8221 18.917 24.8322 18.903 24.8322 18.8858C24.8322 18.8687 24.8524 18.8318 24.8771 18.8037C24.9019 18.7757 24.9221 18.7363 24.9221 18.7162C24.9221 18.6961 24.9322 18.6796 24.9446 18.6796C24.9569 18.6796 24.967 18.6582 24.967 18.6321C24.967 18.6059 24.9771 18.5846 24.9895 18.5846C25.0019 18.5846 25.012 18.5632 25.012 18.5371C25.012 18.511 25.0221 18.4896 25.0344 18.4896C25.0468 18.4896 25.0569 18.4629 25.0569 18.4302C25.0569 18.3976 25.067 18.3708 25.0794 18.3708C25.0917 18.3708 25.1018 18.3501 25.1018 18.3248C25.1018 18.2994 25.112 18.2721 25.1243 18.264C25.1367 18.2559 25.1468 18.2232 25.1468 18.1913C25.1468 18.1594 25.1569 18.1334 25.1693 18.1334C25.1816 18.1334 25.1917 18.1013 25.1917 18.0621C25.1917 18.023 25.2018 17.9909 25.2142 17.9909C25.2266 17.9909 25.2367 17.9482 25.2367 17.8959C25.2367 17.8437 25.2468 17.8009 25.2591 17.8009C25.2715 17.8009 25.2816 17.7475 25.2816 17.6822C25.2816 17.6169 25.2917 17.5635 25.3041 17.5635C25.3182 17.5635 25.3265 17.4051 25.3265 17.136C25.3265 16.8669 25.3182 16.7086 25.3041 16.7086C25.2712 16.7086 25.2764 16.5248 25.3097 16.5106C25.3251 16.504 25.315 16.4978 25.2872 16.4968C25.2448 16.4952 25.2367 16.4816 25.2367 16.4118C25.2367 16.3661 25.2266 16.3287 25.2142 16.3287C25.2018 16.3287 25.1917 16.3019 25.1917 16.2693C25.1917 16.2366 25.1804 16.2099 25.1666 16.2099C25.152 16.2099 25.146 16.1852 25.1523 16.1506C25.1588 16.1145 25.1527 16.0912 25.1366 16.0912C25.1221 16.0912 25.0963 16.0538 25.0794 16.0081C25.0624 15.9624 25.0403 15.925 25.0302 15.925C25.0202 15.925 25.012 15.9089 25.012 15.8893C25.012 15.8698 25.0019 15.8537 24.9895 15.8537C24.9771 15.8537 24.967 15.8347 24.967 15.8115C24.967 15.7882 24.9468 15.7538 24.9221 15.735C24.8974 15.7162 24.8771 15.6885 24.8771 15.6736C24.8771 15.6587 24.8564 15.6185 24.8309 15.5843L24.7847 15.5222L24.8421 15.4567C24.8738 15.4207 24.8996 15.3847 24.8996 15.3768C24.8996 15.3689 24.9249 15.3314 24.9558 15.2934C24.9866 15.2555 25.0119 15.215 25.012 15.2035C25.012 15.192 25.0297 15.1652 25.0513 15.1441C25.0729 15.1229 25.108 15.0735 25.1294 15.0344C25.1507 14.9953 25.1775 14.9656 25.1889 14.9683C25.2003 14.9712 25.2044 14.9525 25.198 14.9268C25.1917 14.901 25.1977 14.8801 25.2116 14.8801C25.2254 14.8801 25.2367 14.8588 25.2367 14.8326C25.2367 14.8065 25.2449 14.7851 25.2549 14.7851C25.265 14.7851 25.2871 14.7477 25.3041 14.702C25.321 14.6563 25.3432 14.6189 25.3532 14.6189C25.3633 14.6189 25.3715 14.5975 25.3715 14.5714C25.3715 14.5453 25.3816 14.5239 25.394 14.5239C25.4063 14.5239 25.4164 14.4972 25.4164 14.4646C25.4164 14.4319 25.4265 14.4052 25.4389 14.4052C25.4513 14.4052 25.4614 14.3785 25.4614 14.3458C25.4614 14.3132 25.4715 14.2865 25.4838 14.2865C25.4962 14.2865 25.5063 14.2598 25.5063 14.2271C25.5063 14.1945 25.5164 14.1677 25.5288 14.1677C25.5411 14.1677 25.5512 14.1363 25.5512 14.0979C25.5512 14.0595 25.5614 14.0215 25.5737 14.0134C25.5861 14.0053 25.5962 13.9619 25.5962 13.917C25.5962 13.8617 25.6066 13.8353 25.6285 13.8353C25.6464 13.8353 25.6681 13.8229 25.677 13.8079C25.6869 13.7909 25.6831 13.7869 25.6671 13.7974C25.6491 13.8091 25.6411 13.7854 25.6411 13.7205C25.6411 13.6648 25.6531 13.6217 25.6707 13.6147C25.7115 13.5981 25.7088 12.3354 25.6679 12.321C25.652 12.3154 25.6411 12.264 25.6411 12.1948C25.6411 12.1306 25.631 12.0781 25.6187 12.0781C25.6063 12.0781 25.5962 12.0407 25.5962 11.9949C25.5962 11.9492 25.5861 11.9118 25.5737 11.9118C25.5614 11.9118 25.5512 11.8791 25.5512 11.8392C25.5512 11.7968 25.5606 11.7727 25.5737 11.7812C25.5861 11.7893 25.5962 11.7838 25.5962 11.7692C25.5962 11.7527 25.5778 11.7486 25.5485 11.7584C25.5051 11.773 25.5016 11.7669 25.51 11.6915C25.5167 11.6308 25.5114 11.6117 25.4902 11.6202C25.4713 11.6279 25.4614 11.6107 25.4614 11.5701C25.4614 11.536 25.4513 11.5081 25.4389 11.5081C25.4265 11.5081 25.4164 11.4814 25.4164 11.4488C25.4164 11.4161 25.4063 11.3894 25.394 11.3894C25.3816 11.3894 25.3715 11.368 25.3715 11.3419C25.3715 11.3158 25.3614 11.2944 25.349 11.2944C25.3367 11.2944 25.3265 11.2731 25.3265 11.2469C25.3265 11.2208 25.3164 11.1994 25.3041 11.1994C25.2917 11.1994 25.2816 11.1781 25.2816 11.1519C25.2816 11.1258 25.2715 11.1045 25.2591 11.1045C25.2468 11.1045 25.2367 11.0884 25.2367 11.0688C25.2367 11.0492 25.229 11.0332 25.2197 11.0332C25.2103 11.0332 25.1884 10.9985 25.1709 10.956C25.1331 10.8642 24.9223 10.526 24.8957 10.5148C24.8855 10.5104 24.8771 10.4964 24.8771 10.4837C24.8771 10.4569 24.7715 10.3092 24.6414 10.154C24.5919 10.0949 24.5243 10.011 24.4913 9.96765C24.4583 9.92432 24.3749 9.82672 24.306 9.75085C24.237 9.67498 24.1806 9.60089 24.1806 9.58611C24.1806 9.57139 24.1452 9.52193 24.1019 9.47622C24.0587 9.43051 24.0233 9.38432 24.0233 9.37358C24.0233 9.36283 23.9753 9.30127 23.9166 9.2368C23.8579 9.17233 23.7193 9.01323 23.6085 8.88316C23.2155 8.42147 22.0172 7.17585 21.5965 6.79181C21.5409 6.74105 21.492 6.69148 21.4879 6.68169C21.4838 6.67189 21.4698 6.66388 21.4569 6.66388C21.444 6.66388 21.3953 6.62915 21.3487 6.5867C21.2635 6.50911 21.1841 6.44488 21.0918 6.37892C21.0644 6.35933 20.9984 6.31124 20.9453 6.27206C20.8921 6.23288 20.8299 6.18919 20.807 6.17494C20.7842 6.16075 20.7469 6.13136 20.7242 6.10964C20.7015 6.08797 20.6711 6.07022 20.6567 6.07022C20.6422 6.07022 20.6303 6.06131 20.6303 6.05051C20.6303 6.03964 20.6025 6.0156 20.5685 5.99708C20.5345 5.9785 20.4871 5.94466 20.4632 5.9218C20.4392 5.89895 20.4107 5.88025 20.3998 5.88025C20.3889 5.88025 20.3359 5.84819 20.282 5.80901C20.2282 5.76983 20.1741 5.73777 20.1619 5.73777C20.1497 5.73777 20.1364 5.72975 20.1322 5.71996C20.1228 5.69764 20.0032 5.62052 19.9506 5.60295C19.929 5.59571 19.9113 5.58033 19.9113 5.56875C19.9113 5.55724 19.8919 5.5478 19.8682 5.5478C19.8445 5.5478 19.8218 5.53919 19.8176 5.52868C19.8105 5.51034 19.2935 5.23678 19.1795 5.19101C19.1494 5.1789 19.1248 5.15907 19.1248 5.1469C19.1248 5.13473 19.1046 5.13039 19.0799 5.13722C19.0481 5.14601 19.0349 5.13793 19.0349 5.10985C19.0349 5.08706 19.0244 5.07691 19.0103 5.08617C18.9968 5.09501 18.9639 5.09133 18.9373 5.07809C18.9107 5.0648 18.851 5.03636 18.8046 5.01481C18.7583 4.99326 18.7204 4.96696 18.7204 4.95633C18.7204 4.94571 18.6951 4.94209 18.6642 4.94832C18.6314 4.95497 18.608 4.94862 18.608 4.93318C18.608 4.91858 18.5827 4.90664 18.5518 4.90664C18.5209 4.90664 18.4957 4.89596 18.4957 4.8829C18.4957 4.86984 18.471 4.85915 18.4408 4.85915C18.4107 4.85915 18.3797 4.84847 18.3721 4.83541C18.3644 4.82234 18.3335 4.81166 18.3033 4.81166C18.2732 4.81166 18.2485 4.80097 18.2485 4.78791C18.2485 4.77485 18.217 4.76417 18.1784 4.76417C18.1179 4.76417 18.1101 4.75728 18.121 4.71323C18.1305 4.67506 18.1272 4.66912 18.1079 4.68948C18.0725 4.72694 17.9788 4.72374 17.9788 4.68515C17.9788 4.66366 17.9574 4.65695 17.9114 4.66413C17.8646 4.67138 17.844 4.66467 17.844 4.64217C17.844 4.62062 17.816 4.60981 17.7598 4.60981C17.7084 4.60981 17.6774 4.59913 17.6804 4.58251C17.6837 4.56398 17.6566 4.55923 17.5961 4.56784C17.5288 4.57734 17.507 4.5723 17.507 4.54701C17.507 4.52231 17.4834 4.51596 17.4171 4.52261C17.3515 4.52925 17.3272 4.52284 17.3272 4.49886C17.3272 4.47494 17.303 4.46852 17.2373 4.47511C17.142 4.48473 17.1097 4.443 17.198 4.42436C17.2258 4.41854 17.1764 4.41919 17.0881 4.4259C16.939 4.43718 16.9266 4.43445 16.9125 4.38737C16.9041 4.35953 16.8873 4.33673 16.875 4.33673C16.8627 4.33673 16.8589 4.34742 16.8666 4.36048C16.8742 4.37354 16.8673 4.38434 16.8511 4.38452C16.8349 4.3847 16.7996 4.39111 16.7727 4.39871C16.7399 4.40803 16.7113 4.39705 16.6855 4.36535C16.6541 4.32646 16.6348 4.32183 16.5773 4.33928C16.5031 4.36178 16.361 4.34421 16.361 4.31257C16.361 4.30218 16.2747 4.29535 16.1692 4.29737C16.0627 4.29945 15.9703 4.29054 15.9613 4.27737C15.9401 4.24584 14.2741 4.24477 14.2642 4.27624ZM15.5521 5.7253C15.9632 5.74281 16.5245 5.81494 16.5694 5.85597C16.579 5.86475 16.5248 5.94591 16.4491 6.03638C16.2882 6.22843 16.1138 6.46619 16.1138 6.49344C16.1138 6.50389 16.0956 6.53315 16.0734 6.5585C16.0511 6.58379 16.0261 6.62054 16.0177 6.64013C16.0094 6.65972 15.9719 6.72918 15.9346 6.79448C15.8554 6.93292 15.7904 7.07576 15.6861 7.34065C15.6683 7.38577 15.5973 7.61415 15.5532 7.76808C15.3709 8.40342 15.3329 9.79632 15.4883 10.1456C15.6293 10.4626 16.0819 10.6724 16.3332 10.5373C16.3547 10.5258 16.4012 10.5019 16.4367 10.4843C16.7384 10.3344 16.8316 10.0182 16.7635 9.37595C16.7268 9.02925 16.7958 8.37065 16.8997 8.07679C16.909 8.05067 16.9293 7.98655 16.9449 7.93431C17.078 7.48871 17.5195 6.86881 17.9002 6.59293C17.962 6.54811 18.0322 6.49237 18.0561 6.46898C18.0801 6.44553 18.1121 6.42641 18.1273 6.42641C18.1424 6.42641 18.1588 6.41407 18.1636 6.39893C18.1768 6.3569 18.3005 6.36996 18.4079 6.42475C18.4608 6.45176 18.5173 6.47391 18.5336 6.47391C18.5498 6.47391 18.5631 6.48459 18.5631 6.49765C18.5631 6.51071 18.5775 6.5214 18.595 6.5214C18.6955 6.5214 20.0124 7.31572 20.091 7.42376C20.0972 7.43225 20.1671 7.48538 20.2463 7.54184C20.5111 7.73045 20.5221 7.74909 20.4695 7.92077C20.3553 8.29413 20.1148 8.59624 19.7959 8.76704C19.5119 8.91913 19.3231 9.3287 19.4165 9.5905C19.6846 10.3426 20.3551 10.3214 21.1039 9.53719C21.2999 9.33196 21.4842 9.09206 21.4842 9.04226C21.4842 9.02712 21.4918 9.01477 21.5011 9.01477C21.5105 9.01477 21.5309 8.98538 21.5465 8.94947C21.6263 8.7662 21.6204 8.7646 21.8732 9.03863C22.0749 9.25716 22.3466 9.56842 22.4952 9.75091C22.5217 9.78356 22.5658 9.83699 22.593 9.86964C22.6203 9.90229 22.7565 10.0786 22.8957 10.2615C23.181 10.6361 23.2017 10.6618 23.4479 10.947C23.7369 11.2818 23.9383 11.5851 24.0651 11.8762C24.1049 11.9676 24.1472 12.061 24.159 12.0837C24.1709 12.1064 24.1806 12.1458 24.1806 12.1713C24.1806 12.1968 24.1896 12.2236 24.2006 12.2308C24.2115 12.238 24.2263 12.2787 24.2333 12.3212C24.2403 12.3638 24.257 12.4574 24.2702 12.5292C24.3398 12.9072 24.3073 13.4346 24.2009 13.651C24.1897 13.6736 24.1806 13.704 24.1806 13.7186C24.1806 13.9154 23.7529 14.5685 23.3523 14.9832C22.9267 15.4239 22.964 15.903 23.4511 16.2505C24.6809 17.128 23.4531 19.1978 21.2231 20.0063C21.1104 20.0472 20.9972 20.0806 20.9716 20.0806C20.946 20.0806 20.9195 20.0901 20.9126 20.1018C20.9059 20.1135 20.8623 20.1287 20.8159 20.1355C20.7694 20.1423 20.6859 20.1597 20.6303 20.1739C20.4849 20.2113 20.2848 20.2469 20.091 20.27C19.7466 20.311 19.5901 20.4054 19.4559 20.6532C19.3351 20.8761 19.3294 20.9926 19.4205 21.3748C19.4329 21.427 19.4518 21.5072 19.4623 21.5529C19.4729 21.5986 19.4935 21.6864 19.5081 21.7479C19.5462 21.9083 19.5307 21.9328 19.3916 21.9328C19.2507 21.9328 19.2318 21.9142 18.6049 21.1623C18.551 21.0976 18.4506 20.9801 18.3817 20.9011C18.3128 20.822 18.2117 20.7043 18.157 20.6394C18.1023 20.5745 18.0373 20.4989 18.0126 20.4715C17.9878 20.444 17.9019 20.343 17.8216 20.2472C17.6279 20.0159 17.6472 20.0387 17.507 19.8777C17.439 19.7998 17.3105 19.6498 17.2215 19.5445C17.0708 19.3662 16.9985 19.3116 16.8037 19.2287C16.7666 19.213 16.6008 19.202 16.3993 19.2021C15.7239 19.2024 15.2673 19.0921 15.0289 18.8709C14.9631 18.8098 14.9249 18.7435 14.8259 18.5181C14.7583 18.3646 14.6166 18.2471 14.3908 18.1574C14.3145 18.127 14.1181 18.1358 13.968 18.1762C13.4829 18.3067 13.3539 18.3358 12.9999 18.3947C12.7918 18.4294 12.0824 18.4293 11.9175 18.3945C11.7383 18.3568 11.6156 18.3226 11.5696 18.2973C11.5481 18.2855 11.5197 18.2759 11.5064 18.2759C11.4677 18.2759 11.191 18.1314 11.0806 18.0536C10.8415 17.8852 10.4405 17.4004 10.4232 17.259C10.4193 17.2272 10.4848 17.1573 10.6472 17.0199C10.8764 16.826 11.1432 16.5367 11.2543 16.3618C11.2867 16.3109 11.3189 16.2639 11.326 16.2574C11.3756 16.2119 11.555 15.8233 11.6165 15.6281C11.7695 15.1426 11.7391 14.458 11.5469 14.0609C11.3219 13.5961 10.5496 13.5898 10.3477 14.0511C10.3339 14.0826 10.3089 14.1388 10.2921 14.176C10.2515 14.2663 10.253 14.562 10.2947 14.6666C10.4073 14.9489 10.2986 15.3198 10.0091 15.641C9.85358 15.8135 9.51849 16.0912 9.4658 16.0912C9.45176 16.0912 9.44018 16.0992 9.44007 16.109C9.43996 16.1188 9.41721 16.1389 9.38951 16.1536C9.36182 16.1683 9.19874 16.2562 9.02713 16.3488C8.12838 16.8344 7.30154 17.0333 6.84984 16.8726C6.58902 16.7798 6.26916 16.4793 5.86666 15.9487C5.76263 15.8116 5.61809 15.6246 5.54545 15.5332C5.25278 15.1647 4.97651 14.6968 4.85843 14.3696C4.83018 14.2912 4.79906 14.2057 4.78934 14.1796C4.7726 14.1348 4.7494 14.0466 4.70024 13.8412C4.61806 13.4979 4.62609 12.9479 4.71895 12.5649C4.73165 12.5126 4.74827 12.4378 4.75591 12.3986C4.76361 12.3594 4.77822 12.306 4.78838 12.2799C4.79855 12.2538 4.81934 12.1974 4.83456 12.1547C4.87888 12.0303 4.89326 12.0409 5.00028 12.2765C5.44417 13.2539 6.2477 13.8932 7.25919 14.0736C7.70505 14.1532 7.98003 14.1268 8.1522 13.988C8.30225 13.867 8.34101 13.8108 8.42594 13.5908C8.50498 13.3858 8.42212 13.0718 8.23742 12.8766C8.11428 12.7465 7.94003 12.6717 7.75976 12.6717C7.48748 12.6717 6.95961 12.5149 6.87866 12.41C6.87248 12.4021 6.82192 12.3626 6.76631 12.3225C5.98278 11.7564 5.81476 10.4726 6.39252 9.46595C6.44128 9.38106 6.49223 9.28762 6.50577 9.25835C6.51931 9.22908 6.53796 9.20504 6.54722 9.20492C6.55649 9.2048 6.56408 9.19417 6.56408 9.18117C6.56408 9.13736 6.80962 8.80574 7.00185 8.58989C7.39873 8.14429 7.98536 7.71382 8.47403 7.5096C8.52964 7.48639 8.60548 7.45285 8.64255 7.4351C8.86203 7.33002 9.41299 7.17205 9.80723 7.10111C10.2514 7.02114 10.6128 7.16962 10.8731 7.53887C10.9067 7.5866 10.94 7.63095 10.9471 7.63748C10.9542 7.64401 10.9938 7.70278 11.0352 7.76808C11.4423 8.41084 12.3116 8.18632 12.3224 7.43558C12.3251 7.24952 12.2545 6.99633 12.2001 6.99633C12.1899 6.99633 12.1816 6.98119 12.1816 6.96267C12.1816 6.9442 12.1733 6.9255 12.1632 6.92111C12.153 6.91678 12.1038 6.8491 12.0537 6.77074C12.0037 6.69237 11.914 6.57103 11.8545 6.5011L11.7463 6.37393L11.801 6.32947C11.8311 6.30501 11.8691 6.28477 11.8855 6.28447C11.9019 6.28417 11.9927 6.25651 12.0873 6.22291C12.2683 6.15873 12.7283 6.03009 13.0691 5.9484C13.3376 5.88411 13.6354 5.83085 13.9904 5.78384C14.2439 5.75024 15.0685 5.69384 15.1589 5.70387C15.1959 5.70803 15.3729 5.7177 15.5521 5.7253ZM12.9006 8.48327C12.5095 8.56104 12.3321 8.9373 12.4181 9.50614C12.4499 9.71576 12.2664 9.98481 11.9298 10.2224C11.8346 10.2896 11.7511 10.3446 11.7442 10.3446C11.7373 10.3446 11.6888 10.3652 11.6365 10.3905C11.0617 10.6672 10.554 10.6439 10.2557 10.3272C9.89554 9.94462 9.33935 10.0321 9.12409 10.5052C9.05128 10.6651 9.05156 10.9789 9.12459 11.1163C9.55922 11.9341 10.6626 12.2452 11.8091 11.8733C11.9963 11.8126 12.0081 11.808 12.187 11.7242C12.3412 11.652 12.3671 11.659 12.4705 11.8006C12.6009 11.9792 12.9863 12.363 13.0353 12.363C13.0477 12.363 13.0579 12.3737 13.0579 12.3868C13.0579 12.3998 13.0731 12.4105 13.0916 12.4105C13.1102 12.4105 13.1254 12.4185 13.1255 12.4283C13.1256 12.4381 13.1484 12.4583 13.1761 12.4732C13.5284 12.6625 13.6274 12.7032 13.8668 12.7574C14.2982 12.855 14.9024 12.7188 15.1368 12.4709C15.4191 12.1727 15.4086 11.6897 15.114 11.4164C15.043 11.3505 14.996 11.3233 14.8264 11.2503C14.7311 11.2092 14.5657 11.2177 14.4286 11.2707C14.1126 11.3927 13.7107 11.1937 13.4814 10.8018L13.4359 10.724L13.4915 10.6234C13.6086 10.4114 13.636 10.3511 13.6936 10.1783C14.016 9.21281 13.6088 8.34245 12.9006 8.48327ZM4.6657 9.48305L4.62626 9.54906L4.67828 9.49629C4.70687 9.46726 4.72462 9.43757 4.71772 9.43027C4.71081 9.42297 4.68738 9.44672 4.6657 9.48305ZM17.5632 10.805C16.9171 10.9743 16.8348 11.7593 17.4196 12.1748C17.6683 12.3515 17.815 12.5527 17.886 12.8142C17.9467 13.0379 17.9564 13.1116 17.9564 13.3498C17.9564 13.6423 17.9299 13.8304 17.8401 14.1737C17.7997 14.3284 17.8331 14.3229 17.462 14.2364C17.1968 14.1746 17.0126 14.1578 16.6082 14.158C16.0854 14.1584 16.0111 14.1688 15.6532 14.2916C15 14.5158 14.3943 15.0843 14.2225 15.6343C14.1209 15.9601 14.2799 16.331 14.5912 16.4938C14.7106 16.5563 15.058 16.5754 15.1083 16.5222C15.1225 16.5072 15.1509 16.4949 15.1714 16.4949C15.2322 16.4949 15.4069 16.3154 15.5034 16.1541C15.7983 15.6606 16.3322 15.4978 17.1475 15.6528C17.9916 15.8134 19.0012 16.5408 19.2789 17.1886C19.3857 17.4379 19.3952 17.4919 19.3914 17.8272C19.3882 18.108 19.3934 18.1578 19.436 18.2522C19.737 18.921 20.6537 18.7804 20.7528 18.0503C20.8116 17.6167 20.7665 17.1595 20.6311 16.8155C20.5047 16.4942 20.4458 16.3771 20.2849 16.1268C20.148 15.914 19.7083 15.4148 19.5688 15.314C19.5286 15.2849 19.467 15.2348 19.432 15.2028C19.3971 15.1707 19.3027 15.0992 19.2222 15.0438C19.0537 14.9277 19.0576 14.9621 19.1678 14.5714C19.4133 13.7001 19.3768 12.6921 19.0751 12.0131C18.7437 11.2674 18.0163 10.6862 17.5632 10.805ZM22.1807 12.1488C22.1251 12.1594 22.0392 12.1751 21.9897 12.1836C21.9403 12.1922 21.8645 12.2086 21.8212 12.22C21.7475 12.2394 21.6494 12.26 21.3494 12.3188C21.1166 12.3646 21.0234 12.3913 20.9293 12.4396C20.8244 12.4933 20.6753 12.628 20.6753 12.669C20.6753 12.6835 20.6663 12.6955 20.6554 12.6955C20.6445 12.6955 20.6294 12.7142 20.6219 12.737C20.5314 13.0135 20.5208 13.1137 20.566 13.2637C20.7042 13.7216 21.0308 13.8836 21.5741 13.7635C21.7762 13.7188 21.8927 13.6944 22.0235 13.6695C22.0914 13.6565 22.1925 13.635 22.2482 13.6217C22.3038 13.6084 22.3948 13.5888 22.4504 13.5782C23.1134 13.4511 23.2481 12.5193 22.6491 12.2024C22.5385 12.1439 22.3312 12.1201 22.1807 12.1488Z" fill="#3C3C3C"/>
</svg>
