<svg width="26" height="27" viewBox="0 0 26 27" fill="none" xmlns="http://www.w3.org/2000/svg">
<line x1="1" y1="-1" x2="1.52078" y2="-1" transform="matrix(0.316037 0.948747 -0.949336 0.314262 10.6116 1)" stroke="#DAE3E6" stroke-width="2" stroke-linecap="round"/>
<line x1="1" y1="-1" x2="1.52172" y2="-1" transform="matrix(-0.467995 0.883731 -0.884935 -0.465715 21.9871 2.26007)" stroke="#DAE3E6" stroke-width="2" stroke-linecap="round"/>
<line x1="1" y1="-1" x2="1.52686" y2="-1" transform="matrix(0.933201 0.359354 -0.325961 0.945383 0.5 8.56006)" stroke="#DAE3E6" stroke-width="2" stroke-linecap="round"/>
<line x1="1" y1="-1" x2="1.52238" y2="-1" transform="matrix(0.549974 -0.835182 0.836753 0.54758 4.92383 22.42)" stroke="#DAE3E6" stroke-width="2" stroke-linecap="round"/>
<line x1="1" y1="-1" x2="1.52" y2="-1" transform="matrix(0.076658 -0.997057 0.997094 0.0761831 17.1904 26.2)" stroke="#DAE3E6" stroke-width="2" stroke-linecap="round"/>
<path d="M16.0785 9.00563C15.8645 7.87484 17.416 6.2729 18.2186 5.61328L23.8361 9.85371L25.1736 13.2461L23.8361 15.7903L24.6386 17.7692L23.0336 19.4654L20.0911 20.8788V22.575L17.9511 22.2923C17.5052 21.7269 16.5601 20.5396 16.3461 20.3134C16.1321 20.0873 15.7219 19.8423 15.5436 19.748C15.3652 19.748 14.741 19.4088 13.671 18.0519C12.3335 16.3557 13.4035 14.9422 14.741 13.8114C16.0786 12.6807 16.346 10.4191 16.0785 9.00563Z" fill="#DAE3E6"/>
<path fill-rule="evenodd" clip-rule="evenodd" d="M14.2642 4.27618C14.2602 4.28864 14.1667 4.29808 14.0563 4.29719C13.9317 4.29624 13.8495 4.30562 13.8395 4.32207C13.83 4.33786 13.762 4.34718 13.671 4.3451C13.5776 4.34302 13.5123 4.35222 13.5025 4.36885C13.4929 4.38517 13.4366 4.39378 13.362 4.3904C13.283 4.38678 13.2377 4.39431 13.2377 4.411C13.2377 4.42898 13.1828 4.43332 13.0635 4.42483C12.9678 4.41806 12.9172 4.41753 12.9512 4.42364C13.0629 4.44383 13.0204 4.48598 12.9006 4.47381C12.8159 4.4652 12.7883 4.47024 12.7883 4.49452C12.7883 4.51619 12.759 4.52664 12.6984 4.52664C12.6479 4.52664 12.6085 4.5381 12.6085 4.55276C12.6085 4.56921 12.5709 4.57574 12.5074 4.57039C12.4369 4.56452 12.4063 4.57099 12.4063 4.59177C12.4063 4.61005 12.3758 4.62163 12.3276 4.62163C12.2844 4.62163 12.249 4.63344 12.249 4.64787C12.249 4.66413 12.2149 4.67066 12.1591 4.66502C12.0946 4.65855 12.0692 4.66502 12.0692 4.68788C12.0692 4.70866 12.0477 4.71715 12.0074 4.71228C11.9663 4.70723 11.9481 4.69287 11.9531 4.66912C11.9573 4.64953 11.9523 4.64229 11.9422 4.65297C11.9321 4.66372 11.9236 4.69043 11.9235 4.71234C11.9233 4.73988 11.9006 4.75455 11.8502 4.75965C11.81 4.76375 11.7771 4.77711 11.7771 4.78934C11.7771 4.80157 11.7474 4.8116 11.7111 4.8116C11.6747 4.8116 11.6381 4.82335 11.6297 4.83772C11.6209 4.85274 11.5864 4.85796 11.5486 4.84995C11.5078 4.84134 11.488 4.84502 11.4965 4.85962C11.518 4.89637 11.4389 4.91721 11.393 4.88693C11.3595 4.86479 11.3542 4.86627 11.3646 4.89483C11.3814 4.94125 11.3105 4.96898 11.2601 4.93567C11.2285 4.91484 11.2214 4.91757 11.2237 4.94974C11.2257 4.97735 11.2092 4.9897 11.1704 4.9897C11.1395 4.9897 11.1062 5.00305 11.0963 5.01938C11.0864 5.0357 11.0592 5.04906 11.0358 5.04906C11.0125 5.04906 10.9865 5.0607 10.9782 5.07489C10.9699 5.08907 10.9447 5.0956 10.9222 5.08937C10.8987 5.0829 10.8757 5.09317 10.8683 5.11359C10.8596 5.13758 10.838 5.14446 10.8018 5.13485C10.7655 5.12523 10.744 5.13211 10.7352 5.15634C10.7281 5.17593 10.7144 5.18964 10.7048 5.18673C10.6952 5.18382 10.6653 5.19439 10.6384 5.21018C10.5829 5.24271 10.5115 5.22425 10.5337 5.18311C10.5421 5.16785 10.5396 5.16447 10.5283 5.17539C10.5172 5.18614 10.508 5.21279 10.5078 5.2347C10.5077 5.25661 10.4975 5.27495 10.4851 5.27542C10.4727 5.27596 10.4412 5.28896 10.415 5.30434C10.3889 5.31977 10.3603 5.32482 10.3516 5.31556C10.3428 5.30635 10.3261 5.31698 10.3143 5.33918C10.3025 5.3615 10.2781 5.37356 10.2598 5.36614C10.2416 5.35871 10.2267 5.36453 10.2267 5.37896C10.2267 5.39344 10.2014 5.40526 10.1705 5.40526C10.1396 5.40526 10.1143 5.41594 10.1143 5.429C10.1143 5.44206 10.0891 5.45275 10.0582 5.45275C10.0273 5.45275 10.002 5.46344 10.002 5.4765C10.002 5.48956 9.98177 5.50024 9.95705 5.50024C9.93233 5.50024 9.91211 5.51093 9.91211 5.52399C9.91211 5.53705 9.89189 5.54774 9.86717 5.54774C9.84245 5.54774 9.82223 5.55842 9.82223 5.57148C9.82223 5.58454 9.80403 5.59523 9.78178 5.59523C9.75954 5.59523 9.7301 5.6071 9.71634 5.62165C9.70258 5.63619 9.65 5.64391 9.5995 5.63886C9.53158 5.63198 9.50765 5.63827 9.50765 5.66285C9.50765 5.68861 9.4799 5.69366 9.38407 5.68529C9.28683 5.67674 9.26048 5.68172 9.26048 5.70856C9.26048 5.73403 9.23779 5.74044 9.17105 5.73367C9.10948 5.7275 9.07791 5.73486 9.06971 5.75748C9.06173 5.7795 9.03218 5.78716 8.98 5.78075C8.93 5.77457 8.89826 5.78211 8.89107 5.80194C8.88495 5.81886 8.84922 5.83269 8.81181 5.83269C8.77434 5.83269 8.74367 5.84421 8.74367 5.85822C8.74367 5.87253 8.71356 5.88042 8.67536 5.87621C8.63463 5.8717 8.59924 5.88191 8.58778 5.90156C8.57649 5.92085 8.54897 5.9291 8.52122 5.92144C8.49161 5.91325 8.46661 5.92216 8.45437 5.94531C8.44223 5.96817 8.41707 5.97737 8.38842 5.96947C8.36044 5.96175 8.33736 5.96971 8.33011 5.98966C8.31522 6.03074 8.24534 6.03264 8.20753 5.99298C8.18484 5.96918 8.1822 5.97149 8.19416 6.00468C8.20433 6.03293 8.19591 6.05051 8.16743 6.06024C8.14451 6.06808 8.10395 6.08541 8.07732 6.09883C8.05069 6.11225 8.01783 6.11605 8.00429 6.1072C7.99075 6.09836 7.97969 6.10192 7.97969 6.11516C7.97969 6.14496 7.82594 6.22427 7.80695 6.20426C7.79937 6.19619 7.77948 6.20818 7.76285 6.2308C7.73426 6.26963 7.73055 6.26927 7.69814 6.22498C7.66471 6.17915 7.66398 6.17951 7.67005 6.23686C7.67426 6.27633 7.66522 6.29575 7.64264 6.29575C7.6241 6.29575 7.59781 6.31071 7.58427 6.32905C7.57068 6.3474 7.54793 6.35476 7.53371 6.3455C7.51945 6.33618 7.50782 6.33986 7.50782 6.35369C7.50782 6.36752 7.4922 6.37886 7.47316 6.37886C7.45411 6.37886 7.41681 6.40023 7.3903 6.42635C7.36378 6.45247 7.32879 6.47385 7.31261 6.47385C7.29638 6.47385 7.28312 6.48251 7.28312 6.49314C7.28312 6.50377 7.24773 6.52716 7.20447 6.54508C7.16122 6.56301 7.12583 6.5864 7.12583 6.59703C7.12583 6.60766 7.11066 6.61632 7.09212 6.61632C7.07358 6.61632 7.05842 6.62701 7.05842 6.64007C7.05842 6.65313 7.04516 6.66382 7.02893 6.66382C7.01275 6.66382 6.97775 6.68519 6.95124 6.71131C6.92472 6.73743 6.89439 6.7588 6.88383 6.7588C6.87326 6.7588 6.84473 6.7775 6.82035 6.80036C6.79591 6.82321 6.7308 6.8789 6.67564 6.92414C6.62048 6.96937 6.57194 7.01479 6.56784 7.02506C6.56368 7.03533 6.54852 7.04411 6.53414 7.04453C6.5197 7.04495 6.40819 7.14646 6.28635 7.27012C6.05805 7.50177 6.01148 7.53365 6.03598 7.44151C6.0471 7.39984 6.04508 7.39592 6.02676 7.4237C6.0139 7.44329 6.00834 7.47636 6.01446 7.4972C6.02159 7.5213 5.9725 7.59254 5.87913 7.6937C5.79858 7.78091 5.73269 7.86342 5.73269 7.87708C5.73269 7.89067 5.71331 7.8953 5.68966 7.88741C5.66595 7.87945 5.64017 7.88397 5.6323 7.89738C5.62382 7.91193 5.63213 7.91608 5.65286 7.90771C5.67207 7.89993 5.68775 7.90587 5.68775 7.92089C5.68775 7.96096 5.5786 8.06972 5.55427 8.05387C5.54287 8.04645 5.5272 8.0512 5.51945 8.06444C5.51169 8.07774 5.51602 8.0886 5.52911 8.0886C5.56551 8.0886 5.55764 8.12179 5.50799 8.17812C5.48327 8.20614 5.46305 8.24022 5.46305 8.25382C5.46305 8.26741 5.45462 8.27857 5.4444 8.27857C5.43412 8.27857 5.41137 8.30796 5.39384 8.34387C5.37626 8.37979 5.34424 8.42989 5.32261 8.45518C5.30098 8.48053 5.28329 8.51597 5.28329 8.53396C5.28329 8.55658 5.26761 8.56204 5.23273 8.55171C5.19481 8.54043 5.19032 8.54257 5.21486 8.56044C5.25621 8.59048 5.20245 8.71473 5.15622 8.69597C5.14038 8.68956 5.12212 8.69342 5.1156 8.70458C5.10909 8.71568 5.12145 8.73201 5.14296 8.74085C5.1774 8.75492 5.17807 8.76033 5.14847 8.7849C5.10841 8.81815 5.02516 8.99025 5.02864 9.03252C5.02999 9.04884 5.02213 9.0622 5.01117 9.0622C5.00016 9.0622 4.99118 9.08357 4.99118 9.10969C4.99118 9.13582 4.98106 9.15719 4.96871 9.15719C4.95635 9.15719 4.94624 9.17322 4.94624 9.19281C4.94624 9.21234 4.90579 9.27242 4.85636 9.32626C4.80692 9.38011 4.76648 9.43389 4.76648 9.44582C4.76648 9.48328 4.61267 9.63182 4.58216 9.6238C4.5661 9.61959 4.56059 9.62066 4.56986 9.62612C4.60346 9.64595 4.58537 9.69783 4.5193 9.77085C4.48223 9.81187 4.45189 9.85616 4.45189 9.86934C4.45189 9.88252 4.44178 9.89332 4.42942 9.89332C4.41707 9.89332 4.40695 9.90478 4.40695 9.91879C4.40695 9.9629 4.34438 10.0125 4.30752 9.99757C4.28781 9.98956 4.27213 9.99549 4.27213 10.0109C4.27213 10.0261 4.28225 10.032 4.2946 10.0239C4.33572 9.99704 4.31775 10.0826 4.27213 10.1308C4.24742 10.1569 4.22719 10.1873 4.22719 10.1983C4.22719 10.2094 4.20675 10.238 4.18169 10.2619C4.15669 10.2859 4.13979 10.3167 4.14411 10.3304C4.15698 10.3712 4.07704 10.4469 4.04356 10.4256C4.02165 10.4116 4.02232 10.4178 4.04597 10.4486C4.0649 10.4732 4.06957 10.4972 4.05721 10.5066C4.04558 10.5154 4.02182 10.552 4.00429 10.5879C3.98677 10.6238 3.95452 10.6532 3.93261 10.6532C3.9107 10.6532 3.88661 10.6638 3.87908 10.6767C3.87121 10.6901 3.8802 10.6941 3.9002 10.686C3.92284 10.6768 3.93508 10.6853 3.93508 10.71C3.93508 10.731 3.92497 10.7482 3.91261 10.7482C3.90026 10.7482 3.89014 10.7696 3.89014 10.7957C3.89014 10.8218 3.88194 10.8432 3.87189 10.8432C3.86183 10.8432 3.8397 10.8806 3.82273 10.9263C3.80577 10.972 3.78364 11.0094 3.77358 11.0094C3.76353 11.0094 3.75532 11.0308 3.75532 11.0569C3.75532 11.083 3.74521 11.1044 3.73285 11.1044C3.7205 11.1044 3.71038 11.1258 3.71038 11.1519C3.71038 11.178 3.70027 11.1994 3.68791 11.1994C3.67556 11.1994 3.66544 11.2272 3.66544 11.2613C3.66544 11.3059 3.65629 11.3195 3.63247 11.3098C3.61432 11.3024 3.59348 11.3067 3.58618 11.3191C3.57888 11.3316 3.5836 11.3419 3.59669 11.3419C3.60977 11.3419 3.6205 11.3632 3.6205 11.3893C3.6205 11.4155 3.61039 11.4368 3.59803 11.4368C3.58568 11.4368 3.57556 11.4582 3.57556 11.4843C3.57556 11.5172 3.56 11.5324 3.52501 11.5337C3.4972 11.5347 3.48709 11.541 3.50254 11.5476C3.51798 11.5541 3.53062 11.5865 3.53062 11.6195C3.53062 11.6592 3.52068 11.6754 3.50113 11.6674C3.47984 11.6588 3.47434 11.6745 3.48125 11.7242C3.48686 11.765 3.48057 11.793 3.46574 11.793C3.45198 11.793 3.44074 11.8251 3.44074 11.8643C3.44074 11.9217 3.43097 11.9359 3.39019 11.9374C3.36238 11.9384 3.35227 11.9447 3.36772 11.9512C3.40092 11.9654 3.40603 12.1017 3.37333 12.1017C3.36098 12.1017 3.35086 12.1401 3.35086 12.187C3.35086 12.2464 3.33553 12.2858 3.30031 12.3168C3.2725 12.3413 3.26121 12.3617 3.2752 12.3622C3.31104 12.3632 3.32907 12.4527 3.30581 12.5137C3.29508 12.5418 3.28553 12.5541 3.28452 12.541C3.28357 12.528 3.27396 12.532 3.26323 12.5499C3.25194 12.5687 3.25289 12.6179 3.26548 12.666C3.28008 12.7219 3.27924 12.783 3.26289 12.8516C3.23138 12.9839 3.23138 13.523 3.26289 13.6553C3.27958 13.7254 3.2802 13.7846 3.26469 13.8438C3.24598 13.9154 3.24846 13.9337 3.27902 13.9518C3.30598 13.9678 3.31469 14.0028 3.31137 14.0825C3.3089 14.1424 3.31677 14.1914 3.3289 14.1914C3.3612 14.1914 3.35569 14.3278 3.32278 14.3422C3.30576 14.3496 3.31463 14.3609 3.34525 14.3707C3.38468 14.3834 3.3958 14.4046 3.3958 14.4673C3.3958 14.5115 3.40592 14.5476 3.41827 14.5476C3.43063 14.5476 3.44074 14.5797 3.44074 14.6189C3.44074 14.658 3.45086 14.6901 3.46321 14.6901C3.47557 14.6901 3.48568 14.7168 3.48568 14.7495C3.48568 14.7821 3.49697 14.8088 3.51079 14.8088C3.5254 14.8088 3.53141 14.8335 3.52512 14.8682C3.51793 14.908 3.52444 14.9276 3.54495 14.9276C3.5618 14.9276 3.57556 14.9489 3.57556 14.9751C3.57556 15.0012 3.58568 15.0225 3.59803 15.0225C3.61039 15.0225 3.6205 15.0493 3.6205 15.0819C3.6205 15.1146 3.63062 15.1413 3.64297 15.1413C3.65533 15.1413 3.66544 15.1626 3.66544 15.1888C3.66544 15.2149 3.67556 15.2363 3.68791 15.2363C3.70027 15.2363 3.71038 15.2576 3.71038 15.2838C3.71038 15.3099 3.7205 15.3312 3.73285 15.3312C3.74521 15.3312 3.75532 15.3473 3.75532 15.3669C3.75532 15.3865 3.76544 15.4025 3.77779 15.4025C3.79015 15.4025 3.80026 15.4239 3.80026 15.45C3.80026 15.4761 3.81038 15.4975 3.82273 15.4975C3.83509 15.4975 3.8452 15.5135 3.8452 15.5331C3.8452 15.5527 3.85532 15.5687 3.86767 15.5687C3.88003 15.5687 3.89014 15.5901 3.89014 15.6162C3.89014 15.6423 3.89857 15.6637 3.90879 15.6637C3.91907 15.6637 3.94183 15.6931 3.95935 15.729C3.97693 15.7649 4.00895 15.815 4.03058 15.8403C4.05221 15.8657 4.0699 15.9004 4.0699 15.9175C4.0699 15.9346 4.07783 15.9487 4.08754 15.9487C4.09721 15.9487 4.12159 15.978 4.14175 16.014C4.16186 16.0499 4.19686 16.1034 4.21961 16.1329C4.24231 16.1624 4.29123 16.2296 4.32831 16.2822C4.36539 16.3348 4.43841 16.4282 4.4906 16.4897C4.54273 16.5513 4.5857 16.6204 4.5861 16.6432C4.58643 16.6661 4.59683 16.6848 4.60918 16.6848C4.62154 16.6848 4.63165 16.7008 4.63165 16.7204C4.63165 16.74 4.64177 16.756 4.65413 16.756C4.66648 16.756 4.6766 16.7721 4.6766 16.7917C4.6766 16.8112 4.68671 16.8273 4.69907 16.8273C4.71142 16.8273 4.72154 16.8413 4.72154 16.8584C4.72154 16.8755 4.74176 16.9125 4.76648 16.9405C4.79119 16.9686 4.81142 16.9972 4.81142 17.0041C4.81142 17.0168 4.8659 17.0906 4.91815 17.1488C4.9336 17.166 4.94624 17.1894 4.94624 17.2008C4.94624 17.2462 5.6068 17.8959 5.65292 17.8959C5.66073 17.8959 5.68887 17.9172 5.71538 17.9434C5.7419 17.9695 5.7769 17.9908 5.79307 17.9908C5.80931 17.9908 5.82257 18.0015 5.82257 18.0146C5.82257 18.0276 5.84279 18.0383 5.86751 18.0383C5.89222 18.0383 5.91245 18.049 5.91245 18.0621C5.91245 18.0751 5.93267 18.0858 5.95739 18.0858C5.9821 18.0858 6.00233 18.0965 6.00233 18.1096C6.00233 18.1226 6.02255 18.1333 6.04727 18.1333C6.07198 18.1333 6.09221 18.144 6.09221 18.1571C6.09221 18.1701 6.11749 18.1808 6.14838 18.1808C6.17928 18.1808 6.20456 18.1915 6.20456 18.2046C6.20456 18.2176 6.23489 18.2283 6.27197 18.2283C6.30904 18.2283 6.33938 18.239 6.33938 18.2521C6.33938 18.2651 6.36971 18.2758 6.40679 18.2758C6.44386 18.2758 6.4742 18.2865 6.4742 18.2995C6.4742 18.3126 6.5197 18.3233 6.57531 18.3233C6.63093 18.3233 6.67643 18.334 6.67643 18.347C6.67643 18.361 6.75552 18.3708 6.86877 18.3708C6.99123 18.3708 7.056 18.3794 7.04718 18.3945C7.03831 18.4097 7.1106 18.4183 7.24806 18.4183C7.37631 18.4183 7.46288 18.4087 7.46288 18.3945C7.46288 18.3806 7.54152 18.3708 7.65387 18.3708C7.76622 18.3708 7.84487 18.361 7.84487 18.347C7.84487 18.334 7.89543 18.3233 7.95722 18.3233C8.01901 18.3233 8.06957 18.3126 8.06957 18.2995C8.06957 18.2865 8.11001 18.2758 8.15945 18.2758C8.21135 18.2758 8.24933 18.2645 8.24933 18.2489C8.24933 18.2313 8.28017 18.2264 8.33921 18.2348C8.40712 18.2444 8.42909 18.2394 8.42909 18.2142C8.42909 18.1946 8.45184 18.1808 8.48392 18.1808C8.51408 18.1808 8.54503 18.1701 8.55267 18.1571C8.56031 18.144 8.58632 18.1333 8.61048 18.1333C8.63463 18.1333 8.67446 18.1201 8.69901 18.1039C8.73356 18.0811 8.75327 18.0807 8.78614 18.1025C8.82304 18.1268 8.82715 18.1244 8.81726 18.0844C8.8081 18.0475 8.81748 18.0383 8.86461 18.0383C8.89697 18.0383 8.92343 18.0276 8.92343 18.0146C8.92343 18.0015 8.94871 17.9908 8.9796 17.9908C9.0105 17.9908 9.03578 17.9814 9.03578 17.9699C9.03578 17.8876 9.16993 17.9298 9.2156 18.0265C9.23408 18.0656 9.26694 18.1184 9.28857 18.1437C9.31019 18.1691 9.32789 18.2038 9.32789 18.2209C9.32789 18.238 9.33632 18.2521 9.34654 18.2521C9.35682 18.2521 9.37957 18.2814 9.3971 18.3174C9.41468 18.3533 9.43912 18.3948 9.45148 18.4097C9.51417 18.4851 9.55259 18.539 9.55259 18.5514C9.55259 18.5799 10.1056 19.1446 10.1649 19.1766C10.1989 19.1949 10.2267 19.2188 10.2267 19.2297C10.2267 19.2405 10.2419 19.2494 10.2604 19.2494C10.2789 19.2494 10.2941 19.2588 10.2941 19.2704C10.2941 19.282 10.329 19.309 10.3717 19.3304C10.4144 19.3518 10.4624 19.3828 10.4784 19.3993C10.511 19.4328 10.6749 19.5199 10.7098 19.5221C10.7222 19.523 10.7309 19.5418 10.7292 19.564C10.7269 19.5958 10.7348 19.5995 10.7669 19.5813C10.8052 19.5597 10.9446 19.613 10.9637 19.6565C10.9674 19.6649 10.99 19.6664 11.0139 19.6597C11.0408 19.6523 11.0627 19.662 11.0711 19.685C11.0809 19.712 11.1027 19.7185 11.15 19.7085C11.1999 19.6979 11.2154 19.7034 11.2154 19.7318C11.2154 19.7608 11.2322 19.7659 11.2936 19.7554C11.3514 19.7455 11.3753 19.7515 11.385 19.7782C11.3949 19.8053 11.4202 19.8112 11.4861 19.8019C11.5535 19.7924 11.5773 19.7983 11.5879 19.8275C11.5994 19.8591 11.625 19.863 11.7377 19.8506C11.841 19.8391 11.8796 19.8436 11.8984 19.869C11.9344 19.9175 12.9411 19.9182 12.9893 19.8698C13.0136 19.8454 13.0599 19.8409 13.1723 19.8519C13.2992 19.8644 13.325 19.8606 13.3369 19.8279C13.3483 19.7965 13.372 19.7917 13.4609 19.8028C13.5449 19.8133 13.5738 19.8085 13.5833 19.7823C13.5978 19.7425 13.6931 19.7372 13.7559 19.7727C13.7902 19.792 13.7994 19.7895 13.7994 19.7608C13.7994 19.6932 13.8514 19.7236 14.0117 19.8846C14.2056 20.0794 14.3181 20.1745 14.3556 20.1751C14.371 20.1753 14.3836 20.1862 14.3836 20.1993C14.3836 20.2123 14.3988 20.223 14.4174 20.223C14.4359 20.223 14.4511 20.2337 14.4511 20.2468C14.4511 20.2598 14.4662 20.2705 14.4848 20.2705C14.5033 20.2705 14.5185 20.2812 14.5185 20.2942C14.5185 20.3073 14.5387 20.318 14.5634 20.318C14.5881 20.318 14.6083 20.3287 14.6083 20.3417C14.6083 20.3548 14.6336 20.3655 14.6645 20.3655C14.6954 20.3655 14.7207 20.3762 14.7207 20.3892C14.7207 20.4023 14.747 20.413 14.7793 20.413C14.8215 20.413 14.8343 20.4227 14.8252 20.4478C14.8182 20.467 14.8238 20.49 14.8375 20.499C14.8526 20.5089 14.8561 20.5045 14.8464 20.4879C14.8231 20.448 14.9433 20.4436 14.9679 20.4834C14.974 20.4934 15.0044 20.5004 15.0353 20.4989C15.0785 20.4967 15.0932 20.5093 15.0991 20.5534C15.1033 20.5849 15.1134 20.5997 15.1216 20.5863C15.1482 20.5425 15.2313 20.5285 15.2634 20.5625C15.2821 20.5822 15.3403 20.594 15.4126 20.5929C15.4899 20.5917 15.5378 20.6023 15.5501 20.6234C15.5639 20.6469 15.5943 20.6511 15.6635 20.6387C15.7772 20.6184 15.9631 20.6438 15.9437 20.677C15.935 20.6919 16.0003 20.6988 16.1226 20.696L16.3152 20.6915L16.4561 20.846C16.5336 20.9309 16.6388 21.0526 16.6901 21.1163C16.7413 21.1801 16.8272 21.2813 16.8811 21.3413C16.9349 21.4014 17.0244 21.5076 17.08 21.5774C17.1357 21.6472 17.2216 21.7479 17.271 21.8013C17.3205 21.8547 17.3952 21.9408 17.4372 21.9927C17.4792 22.0446 17.5803 22.1621 17.6619 22.2537C17.7435 22.3453 17.8457 22.4669 17.889 22.524C17.9322 22.581 18.0333 22.6998 18.1137 22.788C18.194 22.8762 18.3103 23.0131 18.3721 23.0923C18.4339 23.1714 18.4952 23.2367 18.5083 23.2375C18.5214 23.2382 18.5539 23.2602 18.5804 23.2863C18.6069 23.3124 18.6492 23.3338 18.6745 23.3338C18.6997 23.3338 18.7204 23.3439 18.7204 23.3563C18.7204 23.3701 19.0936 23.379 19.6866 23.3794C20.3001 23.3799 20.6528 23.3717 20.6528 23.3569C20.6528 23.3442 20.673 23.3338 20.6977 23.3338C20.7224 23.3338 20.7427 23.3231 20.7427 23.31C20.7427 23.297 20.7572 23.2863 20.7749 23.2863C20.8146 23.2863 21.0123 23.0748 21.0123 23.0323C21.0123 23.0152 21.0224 23.0013 21.0348 23.0013C21.0471 23.0013 21.0572 22.9796 21.0572 22.9531C21.0572 22.9266 21.0699 22.8997 21.0853 22.8935C21.1204 22.8792 21.126 22.3856 21.0909 22.3918C21.0786 22.394 21.0688 22.3531 21.0692 22.3008C21.0697 22.2451 21.0572 22.1975 21.039 22.1856C21.0179 22.1718 21.0125 22.1409 21.022 22.0875C21.0325 22.0281 21.0271 22.0059 20.9992 21.9946C20.971 21.9831 20.9657 21.9612 20.9767 21.8996C20.9874 21.8395 20.9823 21.816 20.9562 21.8055C20.8955 21.7808 20.922 21.6102 20.9851 21.6196C21.0126 21.6237 21.051 21.6104 21.0703 21.5899C21.0926 21.5664 21.1252 21.558 21.1593 21.5671C21.1938 21.5762 21.2262 21.5676 21.2492 21.5433C21.2724 21.5188 21.3045 21.5104 21.3397 21.5197C21.3729 21.5285 21.3943 21.5239 21.3943 21.5079C21.3943 21.4934 21.4252 21.4816 21.4631 21.4816C21.5093 21.4816 21.5265 21.4905 21.5157 21.509C21.5058 21.526 21.5096 21.5299 21.5256 21.5194C21.5399 21.5101 21.5516 21.4871 21.5516 21.4683C21.5516 21.4338 21.575 21.4251 21.6471 21.4328C21.6687 21.4351 21.6864 21.4257 21.6864 21.4118C21.6864 21.3979 21.7117 21.3866 21.7426 21.3866C21.7735 21.3866 21.7988 21.3759 21.7988 21.3628C21.7988 21.3283 21.9053 21.3336 21.9187 21.3688C21.9249 21.3851 21.9308 21.3744 21.9318 21.345C21.9331 21.3044 21.947 21.2916 21.9897 21.2916C22.0206 21.2916 22.0459 21.2809 22.0459 21.2678C22.0459 21.2548 22.0712 21.2441 22.1021 21.2441C22.133 21.2441 22.1583 21.2334 22.1583 21.2204C22.1583 21.2073 22.1785 21.1966 22.2032 21.1966C22.2279 21.1966 22.2482 21.1859 22.2482 21.1729C22.2482 21.1598 22.2664 21.1491 22.2886 21.1491C22.3108 21.1491 22.3414 21.1361 22.3566 21.12C22.3777 21.0977 22.3938 21.0973 22.426 21.1186C22.4622 21.1425 22.4664 21.14 22.4566 21.1002C22.4438 21.0485 22.4923 21.0367 22.5345 21.0813C22.5538 21.1017 22.5571 21.0957 22.5476 21.0576C22.5377 21.0173 22.545 21.0066 22.5826 21.0066C22.6087 21.0066 22.6301 20.9959 22.6301 20.9829C22.6301 20.9698 22.6495 20.9591 22.6732 20.9591C22.6969 20.9591 22.7196 20.9511 22.7238 20.9413C22.7332 20.919 22.8528 20.8419 22.9054 20.8243C22.927 20.8171 22.9447 20.8017 22.9447 20.7901C22.9447 20.7786 22.9603 20.7692 22.9794 20.7692C22.9984 20.7692 23.0357 20.7478 23.0622 20.7217C23.0888 20.6956 23.1238 20.6742 23.1399 20.6742C23.1562 20.6742 23.1694 20.6635 23.1694 20.6504C23.1694 20.6374 23.1841 20.6267 23.202 20.6267C23.2199 20.6267 23.2618 20.6 23.2951 20.5673C23.3285 20.5347 23.3644 20.508 23.3749 20.508C23.3855 20.508 23.4136 20.4893 23.4374 20.4664C23.5073 20.3994 23.5487 20.3655 23.5607 20.3655C23.5668 20.3655 23.5953 20.3414 23.624 20.3121C23.6526 20.2827 23.7108 20.2319 23.7533 20.1993C23.855 20.1211 24.3979 19.544 24.4588 19.4493C24.5108 19.3686 24.7027 19.0963 24.7547 19.0295C24.7726 19.0065 24.7873 18.9717 24.7873 18.9523C24.7873 18.9329 24.7974 18.917 24.8097 18.917C24.8221 18.917 24.8322 18.9029 24.8322 18.8858C24.8322 18.8687 24.8524 18.8317 24.8771 18.8037C24.9019 18.7757 24.9221 18.7362 24.9221 18.7161C24.9221 18.696 24.9322 18.6795 24.9446 18.6795C24.9569 18.6795 24.967 18.6581 24.967 18.632C24.967 18.6059 24.9771 18.5845 24.9895 18.5845C25.0019 18.5845 25.012 18.5631 25.012 18.537C25.012 18.5109 25.0221 18.4895 25.0344 18.4895C25.0468 18.4895 25.0569 18.4628 25.0569 18.4302C25.0569 18.3975 25.067 18.3708 25.0794 18.3708C25.0917 18.3708 25.1018 18.3501 25.1018 18.3247C25.1018 18.2994 25.112 18.272 25.1243 18.2639C25.1367 18.2559 25.1468 18.2231 25.1468 18.1913C25.1468 18.1594 25.1569 18.1333 25.1693 18.1333C25.1816 18.1333 25.1917 18.1013 25.1917 18.0621C25.1917 18.0229 25.2018 17.9908 25.2142 17.9908C25.2266 17.9908 25.2367 17.9481 25.2367 17.8959C25.2367 17.8436 25.2468 17.8009 25.2591 17.8009C25.2715 17.8009 25.2816 17.7474 25.2816 17.6821C25.2816 17.6168 25.2917 17.5634 25.3041 17.5634C25.3182 17.5634 25.3265 17.4051 25.3265 17.136C25.3265 16.8669 25.3182 16.7085 25.3041 16.7085C25.2712 16.7085 25.2764 16.5247 25.3097 16.5106C25.3251 16.504 25.315 16.4977 25.2872 16.4967C25.2448 16.4951 25.2367 16.4815 25.2367 16.4117C25.2367 16.366 25.2266 16.3286 25.2142 16.3286C25.2018 16.3286 25.1917 16.3019 25.1917 16.2692C25.1917 16.2366 25.1804 16.2099 25.1666 16.2099C25.152 16.2099 25.146 16.1852 25.1523 16.1505C25.1588 16.1144 25.1527 16.0911 25.1366 16.0911C25.1221 16.0911 25.0963 16.0537 25.0794 16.008C25.0624 15.9623 25.0403 15.9249 25.0302 15.9249C25.0202 15.9249 25.012 15.9089 25.012 15.8893C25.012 15.8697 25.0019 15.8537 24.9895 15.8537C24.9771 15.8537 24.967 15.8347 24.967 15.8114C24.967 15.7882 24.9468 15.7538 24.9221 15.7349C24.8974 15.7161 24.8771 15.6885 24.8771 15.6736C24.8771 15.6586 24.8564 15.6184 24.8309 15.5842L24.7847 15.5221L24.8421 15.4566C24.8738 15.4206 24.8996 15.3846 24.8996 15.3767C24.8996 15.3688 24.9249 15.3313 24.9558 15.2934C24.9866 15.2554 25.0119 15.215 25.012 15.2034C25.012 15.1919 25.0297 15.1651 25.0513 15.144C25.0729 15.1228 25.108 15.0735 25.1294 15.0344C25.1507 14.9952 25.1775 14.9655 25.1889 14.9683C25.2003 14.9711 25.2044 14.9524 25.198 14.9267C25.1917 14.9009 25.1977 14.8801 25.2116 14.8801C25.2254 14.8801 25.2367 14.8587 25.2367 14.8326C25.2367 14.8065 25.2449 14.7851 25.2549 14.7851C25.265 14.7851 25.2871 14.7477 25.3041 14.702C25.321 14.6563 25.3432 14.6189 25.3532 14.6189C25.3633 14.6189 25.3715 14.5975 25.3715 14.5714C25.3715 14.5452 25.3816 14.5239 25.394 14.5239C25.4063 14.5239 25.4164 14.4972 25.4164 14.4645C25.4164 14.4319 25.4265 14.4051 25.4389 14.4051C25.4513 14.4051 25.4614 14.3784 25.4614 14.3458C25.4614 14.3131 25.4715 14.2864 25.4838 14.2864C25.4962 14.2864 25.5063 14.2597 25.5063 14.227C25.5063 14.1944 25.5164 14.1677 25.5288 14.1677C25.5411 14.1677 25.5512 14.1363 25.5512 14.0979C25.5512 14.0595 25.5614 14.0214 25.5737 14.0133C25.5861 14.0052 25.5962 13.9619 25.5962 13.9169C25.5962 13.8616 25.6066 13.8352 25.6285 13.8352C25.6464 13.8352 25.6681 13.8229 25.677 13.8078C25.6869 13.7908 25.6831 13.7868 25.6671 13.7973C25.6491 13.809 25.6411 13.7853 25.6411 13.7204C25.6411 13.6648 25.6531 13.6217 25.6707 13.6146C25.7115 13.5981 25.7088 12.3353 25.6679 12.3209C25.652 12.3153 25.6411 12.264 25.6411 12.1948C25.6411 12.1305 25.631 12.078 25.6187 12.078C25.6063 12.078 25.5962 12.0406 25.5962 11.9949C25.5962 11.9492 25.5861 11.9118 25.5737 11.9118C25.5614 11.9118 25.5512 11.8791 25.5512 11.8391C25.5512 11.7968 25.5606 11.7726 25.5737 11.7812C25.5861 11.7892 25.5962 11.7838 25.5962 11.7691C25.5962 11.7526 25.5778 11.7485 25.5485 11.7583C25.5051 11.7729 25.5016 11.7669 25.51 11.6914C25.5167 11.6308 25.5114 11.6116 25.4902 11.6202C25.4713 11.6279 25.4614 11.6107 25.4614 11.57C25.4614 11.5359 25.4513 11.5081 25.4389 11.5081C25.4265 11.5081 25.4164 11.4814 25.4164 11.4487C25.4164 11.4161 25.4063 11.3893 25.394 11.3893C25.3816 11.3893 25.3715 11.368 25.3715 11.3419C25.3715 11.3157 25.3614 11.2944 25.349 11.2944C25.3367 11.2944 25.3265 11.273 25.3265 11.2469C25.3265 11.2207 25.3164 11.1994 25.3041 11.1994C25.2917 11.1994 25.2816 11.178 25.2816 11.1519C25.2816 11.1258 25.2715 11.1044 25.2591 11.1044C25.2468 11.1044 25.2367 11.0884 25.2367 11.0688C25.2367 11.0492 25.229 11.0332 25.2197 11.0332C25.2103 11.0332 25.1884 10.9984 25.1709 10.956C25.1331 10.8641 24.9223 10.526 24.8957 10.5147C24.8855 10.5103 24.8771 10.4964 24.8771 10.4836C24.8771 10.4569 24.7715 10.3092 24.6414 10.1539C24.5919 10.0948 24.5243 10.011 24.4913 9.96759C24.4583 9.92425 24.3749 9.82666 24.306 9.75079C24.237 9.67492 24.1806 9.60083 24.1806 9.58605C24.1806 9.57132 24.1452 9.52187 24.1019 9.47616C24.0587 9.43045 24.0233 9.38426 24.0233 9.37352C24.0233 9.36277 23.9753 9.30121 23.9166 9.23674C23.8579 9.17227 23.7193 9.01316 23.6085 8.88309C23.2155 8.42141 22.0172 7.17579 21.5965 6.79175C21.5409 6.74099 21.492 6.69142 21.4879 6.68163C21.4838 6.67183 21.4698 6.66382 21.4569 6.66382C21.444 6.66382 21.3953 6.62909 21.3487 6.58664C21.2635 6.50905 21.1841 6.44482 21.0918 6.37886C21.0644 6.35927 20.9984 6.31118 20.9453 6.272C20.8921 6.23282 20.8299 6.18913 20.807 6.17488C20.7842 6.16069 20.7469 6.1313 20.7242 6.10958C20.7015 6.08791 20.6711 6.07016 20.6567 6.07016C20.6422 6.07016 20.6303 6.06125 20.6303 6.05045C20.6303 6.03958 20.6025 6.01554 20.5685 5.99702C20.5345 5.97844 20.4871 5.9446 20.4632 5.92174C20.4392 5.89889 20.4107 5.88019 20.3998 5.88019C20.3889 5.88019 20.3359 5.84813 20.282 5.80895C20.2282 5.76976 20.1741 5.73771 20.1619 5.73771C20.1497 5.73771 20.1364 5.72969 20.1322 5.7199C20.1228 5.69758 20.0032 5.62046 19.9506 5.60289C19.929 5.59564 19.9113 5.58027 19.9113 5.56869C19.9113 5.55718 19.8919 5.54774 19.8682 5.54774C19.8445 5.54774 19.8218 5.53913 19.8176 5.52862C19.8105 5.51028 19.2935 5.23672 19.1795 5.19095C19.1494 5.17884 19.1248 5.15901 19.1248 5.14684C19.1248 5.13467 19.1046 5.13033 19.0799 5.13716C19.0481 5.14595 19.0349 5.13787 19.0349 5.10979C19.0349 5.087 19.0244 5.07684 19.0103 5.08611C18.9968 5.09495 18.9639 5.09127 18.9373 5.07803C18.9107 5.06473 18.851 5.0363 18.8046 5.01475C18.7583 4.9932 18.7204 4.9669 18.7204 4.95627C18.7204 4.94565 18.6951 4.94202 18.6642 4.94826C18.6314 4.95491 18.608 4.94856 18.608 4.93312C18.608 4.91852 18.5827 4.90658 18.5518 4.90658C18.5209 4.90658 18.4957 4.8959 18.4957 4.88284C18.4957 4.86978 18.471 4.85909 18.4408 4.85909C18.4107 4.85909 18.3797 4.8484 18.3721 4.83534C18.3644 4.82228 18.3335 4.8116 18.3033 4.8116C18.2732 4.8116 18.2485 4.80091 18.2485 4.78785C18.2485 4.77479 18.217 4.76411 18.1784 4.76411C18.1179 4.76411 18.1101 4.75722 18.121 4.71317C18.1305 4.675 18.1272 4.66906 18.1079 4.68942C18.0725 4.72688 17.9788 4.72368 17.9788 4.68509C17.9788 4.6636 17.9574 4.65689 17.9114 4.66407C17.8646 4.67132 17.844 4.66461 17.844 4.64211C17.844 4.62056 17.816 4.60975 17.7598 4.60975C17.7084 4.60975 17.6774 4.59907 17.6804 4.58245C17.6837 4.56392 17.6566 4.55917 17.5961 4.56778C17.5288 4.57728 17.507 4.57223 17.507 4.54694C17.507 4.52225 17.4834 4.5159 17.4171 4.52254C17.3515 4.52919 17.3272 4.52278 17.3272 4.4988C17.3272 4.47487 17.303 4.46846 17.2373 4.47505C17.142 4.48467 17.1097 4.44294 17.198 4.42429C17.2258 4.41848 17.1764 4.41913 17.0881 4.42584C16.939 4.43712 16.9266 4.43439 16.9125 4.38731C16.9041 4.35947 16.8873 4.33667 16.875 4.33667C16.8627 4.33667 16.8589 4.34736 16.8666 4.36042C16.8742 4.37348 16.8673 4.38428 16.8511 4.38446C16.8349 4.38464 16.7996 4.39105 16.7727 4.39865C16.7399 4.40797 16.7113 4.39699 16.6855 4.36528C16.6541 4.3264 16.6348 4.32177 16.5773 4.33922C16.5031 4.36172 16.361 4.34415 16.361 4.31251C16.361 4.30212 16.2747 4.29529 16.1692 4.29731C16.0627 4.29939 15.9703 4.29048 15.9613 4.2773C15.9401 4.24578 14.2741 4.24471 14.2642 4.27618ZM15.5521 5.72524C15.9632 5.74275 16.5245 5.81488 16.5694 5.8559C16.579 5.86469 16.5248 5.94584 16.4491 6.03632C16.2882 6.22837 16.1138 6.46613 16.1138 6.49338C16.1138 6.50382 16.0956 6.53309 16.0734 6.55844C16.0511 6.58373 16.0261 6.62048 16.0177 6.64007C16.0094 6.65966 15.9719 6.72912 15.9346 6.79442C15.8554 6.93286 15.7904 7.0757 15.6861 7.34059C15.6683 7.38571 15.5973 7.61409 15.5532 7.76802C15.3709 8.40336 15.3329 9.79626 15.4883 10.1456C15.6293 10.4626 16.0819 10.6724 16.3332 10.5373C16.3547 10.5257 16.4012 10.5018 16.4367 10.4843C16.7384 10.3343 16.8316 10.0182 16.7635 9.37589C16.7268 9.02919 16.7958 8.37059 16.8997 8.07673C16.909 8.05061 16.9293 7.98649 16.9449 7.93425C17.078 7.48865 17.5195 6.86875 17.9002 6.59287C17.962 6.54805 18.0322 6.49231 18.0561 6.46892C18.0801 6.44547 18.1121 6.42635 18.1273 6.42635C18.1424 6.42635 18.1588 6.414 18.1636 6.39887C18.1768 6.35683 18.3005 6.3699 18.4079 6.42469C18.4608 6.4517 18.5173 6.47385 18.5336 6.47385C18.5498 6.47385 18.5631 6.48453 18.5631 6.49759C18.5631 6.51065 18.5775 6.52134 18.595 6.52134C18.6955 6.52134 20.0124 7.31565 20.091 7.4237C20.0972 7.43219 20.1671 7.48532 20.2463 7.54178C20.5111 7.73039 20.5221 7.74903 20.4695 7.92071C20.3553 8.29407 20.1148 8.59618 19.7959 8.76697C19.5119 8.91907 19.3231 9.32864 19.4165 9.59044C19.6846 10.3425 20.3551 10.3214 21.1039 9.53713C21.2999 9.3319 21.4842 9.092 21.4842 9.0422C21.4842 9.02706 21.4918 9.01471 21.5011 9.01471C21.5105 9.01471 21.5309 8.98532 21.5465 8.94941C21.6263 8.76614 21.6204 8.76454 21.8732 9.03857C22.0749 9.2571 22.3466 9.56836 22.4952 9.75085C22.5217 9.7835 22.5658 9.83693 22.593 9.86958C22.6203 9.90223 22.7565 10.0785 22.8957 10.2614C23.181 10.6361 23.2017 10.6618 23.4479 10.9469C23.7369 11.2817 23.9383 11.585 24.0651 11.8761C24.1049 11.9676 24.1472 12.061 24.159 12.0836C24.1709 12.1063 24.1806 12.1457 24.1806 12.1713C24.1806 12.1968 24.1896 12.2236 24.2006 12.2307C24.2115 12.2379 24.2263 12.2786 24.2333 12.3212C24.2403 12.3637 24.257 12.4573 24.2702 12.5292C24.3398 12.9071 24.3073 13.4346 24.2009 13.6509C24.1897 13.6736 24.1806 13.704 24.1806 13.7185C24.1806 13.9154 23.7529 14.5684 23.3523 14.9832C22.9267 15.4239 22.964 15.9029 23.4511 16.2505C24.6809 17.1279 23.4531 19.1977 21.2231 20.0063C21.1104 20.0471 20.9972 20.0805 20.9716 20.0805C20.946 20.0805 20.9195 20.0901 20.9126 20.1018C20.9059 20.1135 20.8623 20.1286 20.8159 20.1354C20.7694 20.1423 20.6859 20.1596 20.6303 20.1739C20.4849 20.2112 20.2848 20.2469 20.091 20.27C19.7466 20.311 19.5901 20.4054 19.4559 20.6531C19.3351 20.876 19.3294 20.9926 19.4205 21.3747C19.4329 21.4269 19.4518 21.5071 19.4623 21.5528C19.4729 21.5985 19.4935 21.6863 19.5081 21.7479C19.5462 21.9082 19.5307 21.9327 19.3916 21.9327C19.2507 21.9327 19.2318 21.9142 18.6049 21.1622C18.551 21.0976 18.4506 20.98 18.3817 20.901C18.3128 20.8219 18.2117 20.7042 18.157 20.6393C18.1023 20.5745 18.0373 20.4989 18.0126 20.4714C17.9878 20.4439 17.9019 20.343 17.8216 20.2471C17.6279 20.0159 17.6472 20.0386 17.507 19.8777C17.439 19.7997 17.3105 19.6498 17.2215 19.5445C17.0708 19.3662 16.9985 19.3116 16.8037 19.2287C16.7666 19.2129 16.6008 19.202 16.3993 19.2021C15.7239 19.2024 15.2673 19.092 15.0289 18.8708C14.9631 18.8097 14.9249 18.7435 14.8259 18.5181C14.7583 18.3646 14.6166 18.247 14.3908 18.1573C14.3145 18.127 14.1181 18.1358 13.968 18.1761C13.4829 18.3067 13.3539 18.3358 12.9999 18.3947C12.7918 18.4293 12.0824 18.4292 11.9175 18.3945C11.7383 18.3568 11.6156 18.3225 11.5696 18.2972C11.5481 18.2854 11.5197 18.2758 11.5064 18.2758C11.4677 18.2758 11.191 18.1314 11.0806 18.0535C10.8415 17.8851 10.4405 17.4003 10.4232 17.259C10.4193 17.2272 10.4848 17.1572 10.6472 17.0198C10.8764 16.8259 11.1432 16.5367 11.2543 16.3617C11.2867 16.3108 11.3189 16.2639 11.326 16.2574C11.3756 16.2118 11.555 15.8232 11.6165 15.6281C11.7695 15.1426 11.7391 14.458 11.5469 14.0608C11.3219 13.596 10.5496 13.5897 10.3477 14.051C10.3339 14.0825 10.3089 14.1388 10.2921 14.176C10.2515 14.2662 10.253 14.562 10.2947 14.6665C10.4073 14.9489 10.2986 15.3197 10.0091 15.6409C9.85358 15.8135 9.51849 16.0911 9.4658 16.0911C9.45176 16.0911 9.44018 16.0991 9.44007 16.1089C9.43996 16.1187 9.41721 16.1388 9.38951 16.1535C9.36182 16.1682 9.19874 16.2561 9.02713 16.3488C8.12838 16.8343 7.30154 17.0332 6.84984 16.8726C6.58902 16.7798 6.26916 16.4792 5.86666 15.9487C5.76263 15.8115 5.61809 15.6245 5.54545 15.5331C5.25278 15.1647 4.97651 14.6967 4.85843 14.3695C4.83018 14.2912 4.79906 14.2057 4.78934 14.1795C4.7726 14.1347 4.7494 14.0465 4.70024 13.8412C4.61806 13.4978 4.62609 12.9478 4.71895 12.5648C4.73165 12.5126 4.74827 12.4378 4.75591 12.3986C4.76361 12.3594 4.77822 12.306 4.78838 12.2798C4.79855 12.2537 4.81934 12.1974 4.83456 12.1546C4.87888 12.0302 4.89326 12.0408 5.00028 12.2764C5.44417 13.2539 6.2477 13.8931 7.25919 14.0736C7.70505 14.1531 7.98003 14.1268 8.1522 13.988C8.30225 13.867 8.34101 13.8108 8.42594 13.5907C8.50498 13.3858 8.42212 13.0717 8.23742 12.8765C8.11428 12.7464 7.94003 12.6717 7.75976 12.6717C7.48748 12.6717 6.95961 12.5149 6.87866 12.41C6.87248 12.402 6.82192 12.3625 6.76631 12.3224C5.98278 11.7563 5.81476 10.4726 6.39252 9.46589C6.44128 9.381 6.49223 9.28755 6.50577 9.25829C6.51931 9.22902 6.53796 9.20498 6.54722 9.20486C6.55649 9.20474 6.56408 9.19411 6.56408 9.18111C6.56408 9.1373 6.80962 8.80568 7.00185 8.58983C7.39873 8.14423 7.98536 7.71376 8.47403 7.50954C8.52964 7.48633 8.60548 7.45279 8.64255 7.43504C8.86203 7.32996 9.41299 7.17199 9.80723 7.10105C10.2514 7.02108 10.6128 7.16955 10.8731 7.53881C10.9067 7.58654 10.94 7.63089 10.9471 7.63742C10.9542 7.64395 10.9938 7.70272 11.0352 7.76802C11.4423 8.41078 12.3116 8.18626 12.3224 7.43551C12.3251 7.24946 12.2545 6.99627 12.2001 6.99627C12.1899 6.99627 12.1816 6.98113 12.1816 6.96261C12.1816 6.94414 12.1733 6.92544 12.1632 6.92105C12.153 6.91672 12.1038 6.84904 12.0537 6.77068C12.0037 6.69231 11.914 6.57097 11.8545 6.50103L11.7463 6.37387L11.801 6.32941C11.8311 6.30495 11.8691 6.28471 11.8855 6.28441C11.9019 6.28411 11.9927 6.25645 12.0873 6.22285C12.2683 6.15867 12.7283 6.03003 13.0691 5.94834C13.3376 5.88404 13.6354 5.83079 13.9904 5.78378C14.2439 5.75017 15.0685 5.69378 15.1589 5.70381C15.1959 5.70796 15.3729 5.71764 15.5521 5.72524ZM12.9006 8.48321C12.5095 8.56097 12.3321 8.93724 12.4181 9.50608C12.4499 9.7157 12.2664 9.98475 11.9298 10.2223C11.8346 10.2895 11.7511 10.3445 11.7442 10.3445C11.7373 10.3445 11.6888 10.3652 11.6365 10.3904C11.0617 10.6671 10.554 10.6438 10.2557 10.3271C9.89554 9.94456 9.33935 10.0321 9.12409 10.5052C9.05128 10.665 9.05156 10.9788 9.12459 11.1163C9.55922 11.934 10.6626 12.2451 11.8091 11.8732C11.9963 11.8126 12.0081 11.8079 12.187 11.7242C12.3412 11.6519 12.3671 11.6589 12.4705 11.8006C12.6009 11.9791 12.9863 12.3629 13.0353 12.3629C13.0477 12.3629 13.0579 12.3736 13.0579 12.3867C13.0579 12.3998 13.0731 12.4104 13.0916 12.4104C13.1102 12.4104 13.1254 12.4185 13.1255 12.4283C13.1256 12.438 13.1484 12.4582 13.1761 12.4731C13.5284 12.6624 13.6274 12.7031 13.8668 12.7573C14.2982 12.855 14.9024 12.7187 15.1368 12.4709C15.4191 12.1726 15.4086 11.6897 15.114 11.4163C15.043 11.3504 14.996 11.3233 14.8264 11.2502C14.7311 11.2092 14.5657 11.2177 14.4286 11.2706C14.1126 11.3927 13.7107 11.1937 13.4814 10.8017L13.4359 10.7239L13.4915 10.6233C13.6086 10.4114 13.636 10.351 13.6936 10.1783C14.016 9.21275 13.6088 8.34239 12.9006 8.48321ZM4.6657 9.48299L4.62626 9.549L4.67828 9.49623C4.70687 9.4672 4.72462 9.43751 4.71772 9.43021C4.71081 9.42291 4.68738 9.44666 4.6657 9.48299ZM17.5632 10.8049C16.9171 10.9743 16.8348 11.7593 17.4196 12.1748C17.6683 12.3514 17.815 12.5527 17.886 12.8141C17.9467 13.0378 17.9564 13.1116 17.9564 13.3497C17.9564 13.6423 17.9299 13.8304 17.8401 14.1736C17.7997 14.3284 17.8331 14.3228 17.462 14.2364C17.1968 14.1746 17.0126 14.1577 16.6082 14.1579C16.0854 14.1583 16.0111 14.1687 15.6532 14.2916C15 14.5157 14.3943 15.0842 14.2225 15.6343C14.1209 15.9601 14.2799 16.3309 14.5912 16.4938C14.7106 16.5562 15.058 16.5753 15.1083 16.5221C15.1225 16.5071 15.1509 16.4948 15.1714 16.4948C15.2322 16.4948 15.4069 16.3154 15.5034 16.154C15.7983 15.6606 16.3322 15.4978 17.1475 15.6528C17.9916 15.8133 19.0012 16.5407 19.2789 17.1885C19.3857 17.4378 19.3952 17.4918 19.3914 17.8272C19.3882 18.108 19.3934 18.1577 19.436 18.2522C19.737 18.9209 20.6537 18.7804 20.7528 18.0502C20.8116 17.6167 20.7665 17.1594 20.6311 16.8154C20.5047 16.4942 20.4458 16.377 20.2849 16.1268C20.148 15.914 19.7083 15.4147 19.5688 15.314C19.5286 15.2848 19.467 15.2348 19.432 15.2027C19.3971 15.1707 19.3027 15.0991 19.2222 15.0437C19.0537 14.9277 19.0576 14.962 19.1678 14.5714C19.4133 13.7 19.3768 12.6921 19.0751 12.013C18.7437 11.2674 18.0163 10.6861 17.5632 10.8049ZM22.1807 12.1487C22.1251 12.1593 22.0392 12.175 21.9897 12.1835C21.9403 12.1922 21.8645 12.2085 21.8212 12.2199C21.7475 12.2393 21.6494 12.2599 21.3494 12.3188C21.1166 12.3645 21.0234 12.3913 20.9293 12.4395C20.8244 12.4933 20.6753 12.628 20.6753 12.6689C20.6753 12.6835 20.6663 12.6954 20.6554 12.6954C20.6445 12.6954 20.6294 12.7141 20.6219 12.737C20.5314 13.0134 20.5208 13.1136 20.566 13.2636C20.7042 13.7215 21.0308 13.8835 21.5741 13.7634C21.7762 13.7187 21.8927 13.6944 22.0235 13.6694C22.0914 13.6564 22.1925 13.6349 22.2482 13.6216C22.3038 13.6083 22.3948 13.5887 22.4504 13.5781C23.1134 13.4511 23.2481 12.5193 22.6491 12.2024C22.5385 12.1438 22.3312 12.1201 22.1807 12.1487Z" fill="#CCCCCC"/>
</svg>
