<svg width="28" height="28" viewBox="0 0 28 28" fill="none" xmlns="http://www.w3.org/2000/svg">
<path d="M12.5174 23.6013C12.9316 23.6013 13.2674 23.9371 13.2674 24.3513C13.2674 24.7656 12.9316 25.1013 12.5174 25.1013V23.6013ZM21.5608 12.4903C21.5608 12.9046 21.225 13.2403 20.8108 13.2403C20.3966 13.2403 20.0608 12.9046 20.0608 12.4903H21.5608ZM18.3108 1.75H4.49998V0.25H18.3108V1.75ZM2.74998 3.5V21.8513H1.24998V3.5H2.74998ZM4.49998 23.6013H12.5174V25.1013H4.49998V23.6013ZM20.0608 12.4903V3.5H21.5608V12.4903H20.0608ZM2.74998 21.8513C2.74998 22.8178 3.53349 23.6013 4.49998 23.6013V25.1013C2.70506 25.1013 1.24998 23.6463 1.24998 21.8513H2.74998ZM4.49998 1.75C3.53349 1.75 2.74998 2.5335 2.74998 3.5H1.24998C1.24998 1.70507 2.70506 0.25 4.49998 0.25V1.75ZM18.3108 0.25C20.1057 0.25 21.5608 1.70507 21.5608 3.5H20.0608C20.0608 2.5335 19.2773 1.75 18.3108 1.75V0.25Z" fill="#CCCCCC"/>
<line x1="6.64185" y1="5.43915" x2="17.1418" y2="5.43915" stroke="#DAE3E7" stroke-width="1.5" stroke-linecap="round"/>
<line x1="6.64185" y1="9.43915" x2="17.1418" y2="9.43915" stroke="#DAE3E7" stroke-width="1.5" stroke-linecap="round"/>
<line x1="6.64185" y1="13.4391" x2="17.1418" y2="13.4391" stroke="#DAE3E7" stroke-width="1.5" stroke-linecap="round"/>
<line x1="6.64185" y1="17.4391" x2="13.1418" y2="17.4391" stroke="#DAE3E7" stroke-width="1.5" stroke-linecap="round"/>
<circle cx="20.4864" cy="21.4324" r="5.51351" fill="#CCCCCC"/>
<g clip-path="url(#clip0_3587_2032)">
<path fill-rule="evenodd" clip-rule="evenodd" d="M23.1666 19.1915C23.0467 19.2323 23.0284 19.2502 21.3988 20.9244L19.8137 22.5529L19.1921 21.9171C18.4744 21.183 18.52 21.2186 18.2978 21.2185C18.0983 21.2185 18.0402 21.2502 17.8149 21.4829C17.5886 21.7165 17.5686 21.7558 17.5686 21.9672C17.5686 22.2151 17.4948 22.1232 18.632 23.2915C19.7062 24.3953 19.6548 24.3493 19.814 24.3498C19.9755 24.3503 19.8392 24.4806 22.0026 22.2572C24.2552 19.9421 24.0492 20.1771 24.0492 19.9229C24.0492 19.7144 24.0287 19.6743 23.8014 19.4384C23.5535 19.181 23.3873 19.1164 23.1666 19.1915Z" fill="white"/>
</g>
<defs>
<clipPath id="clip0_3587_2032">
<rect width="7.78378" height="7.78378" fill="white" transform="translate(16.9189 17.8649)"/>
</clipPath>
</defs>
</svg>
