<svg width="100" height="100" viewBox="0 0 100 100" fill="none" xmlns="http://www.w3.org/2000/svg">
<defs>
<linearGradient id="paint0_linear_1_42" x1="50" y1="94.1406" x2="50" y2="0" gradientUnits="userSpaceOnUse">
<stop stop-color="#ADDCFF"/>
<stop offset="0.5028" stop-color="#EAF6FF"/>
<stop offset="1" stop-color="#EAF6FF"/>
</linearGradient>
<linearGradient id="paint1_linear_1_42" x1="44.1406" y1="100" x2="44.1406" y2="4.88281" gradientUnits="userSpaceOnUse">
<stop stop-color="#5558FF"/>
<stop offset="1" stop-color="#00C0FF"/>
</linearGradient>
<clipPath id="clip0_1_42">
<rect width="100" height="100" fill="white"/>
</clipPath>
</defs>
<g clip-path="url(#clip0_1_42)">
<path d="M71.207 94.1406H13.6719C6.13301 94.1406 0 88.0076 0 80.4688C0 72.9299 6.13301 66.7969 13.6719 66.7969H39.0625C43.3703 66.7969 46.875 63.2922 46.875 58.9844C46.875 54.6766 43.3703 51.1719 39.0625 51.1719H17.0742C17.3994 50.2549 17.5781 49.2693 17.5781 48.2422C17.5781 47.215 17.3994 46.2295 17.0742 45.3125H39.0625C46.6014 45.3125 52.7344 51.4455 52.7344 58.9844C52.7344 66.5232 46.6014 72.6562 39.0625 72.6562H13.6719C9.36406 72.6562 5.85938 76.1609 5.85938 80.4688C5.85938 84.7766 9.36406 88.2812 13.6719 88.2812H71.207C70.8818 89.1982 70.7031 90.1838 70.7031 91.2109C70.7031 92.2381 70.8818 93.2236 71.207 94.1406ZM79.4922 31.6406C68.1842 31.6406 58.9844 40.8404 58.9844 52.1484C58.9844 59.5291 62.8916 66.2381 69.2514 69.902L75.4027 83.4346C76.6252 82.7893 78.0162 82.4219 79.4922 82.4219C80.9682 82.4219 82.3592 82.7893 83.5816 83.4348L89.733 69.9021C96.0928 66.2379 100 59.5289 100 52.1484C100 40.8404 90.8002 31.6406 79.4922 31.6406ZM8.78906 39.4531C9.81621 39.4531 10.8018 39.6318 11.7188 39.957V2.92969C11.7188 1.31172 10.407 0 8.78906 0C7.17109 0 5.85938 1.31172 5.85938 2.92969V39.957C6.77637 39.6318 7.76191 39.4531 8.78906 39.4531Z" fill="url(#paint0_linear_1_42)"/>
<path d="M33.3533 19.3059L11.7188 28.3203V4.88281L33.3533 13.8973C35.7572 14.8988 35.7572 18.3043 33.3533 19.3059ZM88.2812 52.1484C88.2812 47.3021 84.3385 43.3594 79.4922 43.3594C74.6459 43.3594 70.7031 47.3021 70.7031 52.1484C70.7031 56.9947 74.6459 60.9375 79.4922 60.9375C84.3385 60.9375 88.2812 56.9947 88.2812 52.1484ZM17.5781 48.2422C17.5781 43.3959 13.6354 39.4531 8.78906 39.4531C3.94277 39.4531 0 43.3959 0 48.2422C0 53.0885 3.94277 57.0312 8.78906 57.0312C13.6354 57.0312 17.5781 53.0885 17.5781 48.2422ZM88.2812 91.2109C88.2812 86.3646 84.3385 82.4219 79.4922 82.4219C74.6459 82.4219 70.7031 86.3646 70.7031 91.2109C70.7031 96.0572 74.6459 100 79.4922 100C84.3385 100 88.2812 96.0572 88.2812 91.2109Z" fill="url(#paint1_linear_1_42)"/>
</g>

</svg>
