<svg width="100" height="101" viewBox="0 0 100 101" fill="none" xmlns="http://www.w3.org/2000/svg">
<defs>
<linearGradient id="paint0_linear_1_62" x1="43.6055" y1="100.406" x2="43.6055" y2="0.40625" gradientUnits="userSpaceOnUse">
<stop stop-color="#00B59C"/>
<stop offset="1" stop-color="#9CFFAC"/>
</linearGradient>
<linearGradient id="paint1_linear_1_62" x1="59.254" y1="88.6875" x2="59.254" y2="63.9591" gradientUnits="userSpaceOnUse">
<stop stop-color="#99FFD8"/>
<stop offset="0.9973" stop-color="#DBFFE5"/>
</linearGradient>
<clipPath id="clip0_1_62">
<rect width="100" height="100" fill="white" transform="translate(0 0.40625)"/>
</clipPath>
</defs>
<g clip-path="url(#clip0_1_62)">
<path d="M70.5078 44.5469C70.5078 41.2625 67.9328 38.6875 64.6484 38.6875C61.3641 38.6875 58.7891 41.2625 58.7891 44.5469V50.4062C58.7891 53.6906 61.3641 56.2656 64.6484 56.2656H70.5078C73.7922 56.2656 76.3672 53.6906 76.3672 50.4062C76.3672 47.1219 73.7922 44.5469 70.5078 44.5469ZM64.6484 65.0547C56.5689 65.0547 50 58.483 50 50.4062C50 42.3295 56.5689 35.7578 64.6484 35.7578C66.2678 35.7578 67.5781 34.4475 67.5781 32.8281V9.19531C67.5781 4.34883 63.6355 0.40625 58.7891 0.40625H19.6328C14.7863 0.40625 10.8438 4.34883 10.8438 9.19531V91.6172C10.8438 96.4637 14.7863 100.406 19.6328 100.406H58.7891C63.6355 100.406 67.5781 96.4637 67.5781 91.6172V67.9844C67.5781 66.365 66.2678 65.0547 64.6484 65.0547Z" fill="url(#paint0_linear_1_62)"/>
<path d="M64.6484 29.8984C53.3398 29.8984 44.1406 39.0977 44.1406 50.4062C44.1406 61.7148 53.3398 70.9141 64.6484 70.9141C75.9566 70.9141 85.1562 61.7148 85.1562 50.4062C85.1562 39.0977 75.9566 29.8984 64.6484 29.8984ZM70.5078 53.3359H64.6484C63.0076 53.3359 61.7188 52.0467 61.7188 50.4062V44.5469C61.7188 42.9061 63.0076 41.6172 64.6484 41.6172C66.2893 41.6172 67.5781 42.9061 67.5781 44.5469V47.4766H70.5078C72.1486 47.4766 73.4375 48.7654 73.4375 50.4062C73.4375 52.0467 72.1486 53.3359 70.5078 53.3359ZM36.2812 17.9844H42.1406C43.76 17.9844 45.0703 16.674 45.0703 15.0547C45.0703 13.4354 43.76 12.125 42.1406 12.125H36.2812C34.6619 12.125 33.3516 13.4354 33.3516 15.0547C33.3516 16.674 34.6619 17.9844 36.2812 17.9844ZM40.1406 82.8281H38.2812C36.6619 82.8281 35.3516 84.1385 35.3516 85.7578C35.3516 87.3771 36.6619 88.6875 38.2812 88.6875H40.1406C41.76 88.6875 43.0703 87.3771 43.0703 85.7578C43.0703 84.1385 41.76 82.8281 40.1406 82.8281Z" fill="url(#paint1_linear_1_62)"/>
</g>

</svg>
