<svg width="100" height="100" viewBox="0 0 100 100" fill="none" xmlns="http://www.w3.org/2000/svg">
<defs>
<linearGradient id="paint0_linear_1_9" x1="50" y1="100" x2="50" y2="5.85938" gradientUnits="userSpaceOnUse">
<stop stop-color="#A93AFF"/>
<stop offset="1" stop-color="#FF81FF"/>
</linearGradient>
<linearGradient id="paint1_linear_1_9" x1="50" y1="87.8905" x2="50" y2="-0.000102814" gradientUnits="userSpaceOnUse">
<stop stop-color="#FFBEF9"/>
<stop offset="1" stop-color="#FFF1FF"/>
</linearGradient>
<clipPath id="clip0_1_9">
<rect width="100" height="100" fill="white"/>
</clipPath>
</defs>
<g clip-path="url(#clip0_1_9)">
<path d="M97.0703 94.1406H94.1406V5.85938L82.4219 43.9453V94.1406H76.5625V55.6641L61.7188 67.3828V94.1406H55.8594V73.2422L41.2109 79.1016V94.1406H35.3516V84.9609H20.7031V94.1406H14.8438V84.9609H0V97.0703C0 98.6896 1.31035 100 2.92969 100H97.0703C98.6896 100 100 98.6896 100 97.0703C100 95.451 98.6896 94.1406 97.0703 94.1406ZM7.55664 37.5137L19.9877 41.6564C20.7312 41.909 21.0613 41.8105 21.6229 41.6684L13.1928 46.7262C12.4203 47.1896 11.9025 47.985 11.7937 48.8805C11.6822 49.776 11.9912 50.6715 12.6291 51.3096L25.0574 63.7379C25.6654 64.3459 26.5398 64.6859 27.4865 64.5732C28.382 64.4645 29.1773 63.9467 29.6408 63.1742L34.6379 54.8453C34.5316 55.3463 34.5389 55.8746 34.7076 56.3793L38.8533 68.8076C39.1738 69.7719 39.9691 70.4984 40.959 70.733C41.9883 70.9705 43.0107 70.6439 43.7027 69.952L51.9883 61.6664C57.6988 55.9559 57.6988 46.6633 51.9883 40.9525L46.9229 35.8871C46.9555 35.6367 47.0701 35.4154 47.0701 35.1561C47.0701 31.9199 44.4469 29.2967 41.2107 29.2967C40.9514 29.2967 40.7301 29.4115 40.4797 29.4439L35.4143 24.3785C29.8867 18.8453 20.2336 18.8453 14.7004 24.3785L6.41191 32.6641C5.69375 33.3822 5.39902 34.4207 5.63086 35.4078C5.86582 36.3979 6.59551 37.1934 7.55664 37.5137V37.5137ZM53.2836 31.5332L62.3453 34.7355L63.4383 33.6426C69.6121 27.4687 72.2756 17.9693 69.2719 8.94902C68.9801 8.07363 68.2934 7.38691 67.418 7.09512C58.4322 4.11074 48.9219 6.72207 42.7244 12.926L41.6301 14.0203L45.6818 23.9314L53.2836 31.5332Z" fill="url(#paint0_linear_1_9)"/>
<path d="M99.1416 6.71767L93.2822 0.858296C92.1379 -0.28604 90.2838 -0.28604 89.1395 0.858296L83.2801 6.71767C82.1357 7.86201 82.1357 9.71611 83.2801 10.8604C84.4244 12.0048 86.2783 12.0048 87.4229 10.8604L88.2164 10.0669C87.5248 49.8597 54.7986 82.0312 14.8438 82.0312H2.92969C1.31035 82.0312 0 83.3415 0 84.9608C0 86.5802 1.31035 87.8905 2.92969 87.8905H14.8438C58.0703 87.8905 93.4559 53.0239 94.082 9.94345L94.999 10.8604C96.1434 12.0048 97.9973 12.0048 99.1418 10.8604C100.286 9.71591 100.286 7.86201 99.1416 6.71767ZM35.4145 57.5235C35.9639 58.0729 36.7076 58.3819 37.4857 58.3819C38.2639 58.3819 39.0078 58.0729 39.557 57.5235L62.3451 34.7354L41.6301 14.0204L18.8436 36.8069C17.6992 37.9513 17.6992 39.8054 18.8436 40.9497L35.4145 57.5235ZM39.5588 32.6645C40.7029 31.5204 42.5578 31.5204 43.702 32.6645C44.8461 33.8089 44.8461 35.6636 43.702 36.8079C42.5578 37.952 40.7029 37.952 39.5588 36.8079C38.4146 35.6636 38.4146 33.8091 39.5588 32.6645Z" fill="url(#paint1_linear_1_9)"/>
</g>

</svg>
