<svg width="26" height="26" viewBox="0 0 26 26" fill="none" xmlns="http://www.w3.org/2000/svg">
<defs>
<linearGradient id="paint0_linear_2_1600" x1="9.60478" y1="19.5244" x2="9.60478" y2="0.00831985" gradientUnits="userSpaceOnUse">
<stop stop-color="#CB8CF2"/>
<stop offset="1" stop-color="#AC47EB"/>
</linearGradient>
<linearGradient id="paint1_linear_2_1600" x1="17.034" y1="26" x2="17.034" y2="7.46959" gradientUnits="userSpaceOnUse">
<stop stop-color="#CB8CF2"/>
<stop offset="1" stop-color="#AC47EB"/>
</linearGradient>
</defs>
<path d="M8.30273 0.0558624C6.66249 0.264065 4.83944 1.06133 3.52929 2.13281C3.15351 2.44258 2.42226 3.17383 2.10233 3.55469C1.46249 4.32656 0.802334 5.54024 0.462099 6.58125C0.137099 7.57656 0.0406147 8.15547 0.0152241 9.31836C-0.0203228 10.8012 0.121865 11.6645 0.634755 13.0813C1.04101 14.2086 1.17304 14.884 1.17304 15.9199C1.17304 17.0219 1.00038 17.941 0.609365 18.8754L0.411318 19.3477L0.614443 19.3984C1.77733 19.7133 3.21952 19.4238 4.13866 18.6875C4.90038 18.0781 5.00702 18.0629 5.82968 18.4133C7.00273 18.916 8.21132 19.1547 9.57226 19.1547C10.8621 19.1547 11.9285 18.9719 13.0406 18.5555C17.4535 16.9051 19.9621 12.2738 18.9922 7.57656C18.7129 6.24102 17.9969 4.71758 17.1285 3.63086C15.6102 1.72149 13.3402 0.416409 10.9637 0.0761757C10.3848 -0.00507545 8.89179 -0.0152321 8.30273 0.0558624ZM5.00194 8.37383C5.52499 8.6125 5.80937 9.04922 5.81444 9.62305C5.81444 9.92266 5.78905 10.0191 5.6621 10.2527C5.41835 10.6996 4.98163 10.9586 4.46874 10.9637C3.95077 10.9688 3.36171 10.5574 3.19413 10.075C2.95546 9.37422 3.32616 8.60234 4.02694 8.34336C4.28085 8.25195 4.76835 8.26719 5.00194 8.37383ZM10.1766 8.4043C10.6336 8.62266 10.9383 9.10508 10.9383 9.59766C10.9383 9.97852 10.8418 10.2324 10.593 10.5016C9.94296 11.2125 8.86132 11.0855 8.40429 10.2527C8.27734 10.0242 8.25194 9.92266 8.25194 9.62305C8.25194 9.0543 8.53632 8.61758 9.05937 8.36875C9.32851 8.24688 9.8871 8.26211 10.1766 8.4043ZM15.2598 8.39922C15.5644 8.54141 15.9047 8.90195 15.9859 9.18125C16.2449 10.0344 15.6914 10.8773 14.8281 10.9535C13.5687 11.0703 12.8629 9.51641 13.7719 8.64805C14.1629 8.27227 14.7723 8.1707 15.2598 8.39922Z" fill="url(#paint0_linear_2_1600)"/>
<path d="M20.7188 7.48008C20.7188 7.49023 20.7543 7.71875 20.7949 7.98789C21.1352 10.2883 20.6984 12.807 19.5914 14.8789C17.6109 18.5809 13.7516 20.8863 9.55196 20.866C9.20157 20.866 8.7293 20.8457 8.50587 20.8203C8.28243 20.8 8.08946 20.7898 8.0793 20.8C8.04884 20.8305 8.53634 21.582 8.85118 21.9832C10.2934 23.8012 12.2941 25.0199 14.625 25.4973C15.143 25.6039 15.3461 25.6191 16.4277 25.6191C17.4027 25.6191 17.748 25.5988 18.1543 25.5227C18.7992 25.4059 19.6574 25.1469 20.2109 24.9082C20.8102 24.6441 20.9117 24.6238 21.1301 24.6797C21.2367 24.7102 21.5109 24.8828 21.7445 25.0707C22.552 25.7105 23.3645 26 24.3699 26C24.893 26 25.4922 25.9137 25.5785 25.8324C25.5937 25.8121 25.5531 25.6801 25.4922 25.5328C25.0453 24.502 24.8625 23.5879 24.8625 22.4453C24.8625 21.4348 24.9336 21.0336 25.3145 19.8047C25.8883 17.9562 26.0203 17.1133 25.9848 15.5898C25.9543 14.432 25.8781 13.9699 25.5582 12.9746C24.9082 10.9535 23.5422 9.18125 21.7293 8.0082C21.2063 7.66797 20.7188 7.41406 20.7188 7.48008Z" fill="url(#paint1_linear_2_1600)"/>
</svg>
