<svg width="20" height="26" viewBox="0 0 20 26" fill="none" xmlns="http://www.w3.org/2000/svg">
<path d="M13.2375 1.2375C12.7625 0.7625 12.125 0.5 11.4625 0.5H2.5C1.125 0.5 0 1.625 0 3V23C0 24.375 1.1125 25.5 2.4875 25.5H17.5C18.875 25.5 20 24.375 20 23V9.0375C20 8.375 19.7375 7.7375 19.2625 7.275L13.2375 1.2375ZM13.75 20.5H6.25C5.5625 20.5 5 19.9375 5 19.25C5 18.5625 5.5625 18 6.25 18H13.75C14.4375 18 15 18.5625 15 19.25C15 19.9375 14.4375 20.5 13.75 20.5ZM13.75 15.5H6.25C5.5625 15.5 5 14.9375 5 14.25C5 13.5625 5.5625 13 6.25 13H13.75C14.4375 13 15 13.5625 15 14.25C15 14.9375 14.4375 15.5 13.75 15.5ZM11.25 8V2.375L18.125 9.25H12.5C11.8125 9.25 11.25 8.6875 11.25 8Z" fill="#FF941A"/>
</svg>
