<svg width="132" height="148" viewBox="0 0 132 148" fill="none" xmlns="http://www.w3.org/2000/svg">
<g opacity="0.160004">
<g opacity="0.160004">
<path opacity="0.160004" d="M33.0876 143.019C33.0876 145.524 48.9586 147.554 68.5362 147.554C88.1138 147.554 103.985 145.524 103.985 143.019C103.985 140.515 88.1138 138.484 68.5362 138.484C48.9586 138.484 33.0876 140.515 33.0876 143.019Z" fill="#030505"/>
</g>
</g>
<path d="M52.3426 136.51L59.4094 136.407C59.8553 127.052 61.0556 108.089 61.6635 93.8677L49.6467 94.1283C50.7405 107.412 51.5503 126.831 52.3426 136.51Z" fill="#FBD4C8"/>
<path d="M77.793 126.232C79.6043 126.46 85.3733 124.829 86.2918 124.204C87.0647 128.55 87.7668 132.44 88.3399 135.396L81.5068 137.193C80.5556 134.329 79.2599 130.523 77.793 126.232Z" fill="#FBD4C8"/>
<path d="M49.1592 89.6079C49.1664 103.278 49.4923 117.457 50.8669 130.372C53.6858 130.379 57.045 130.909 59.8588 130.943C60.5148 122.273 60.7454 113.078 61.8258 104.26C62.0237 102.655 63.2722 100.451 65.555 100.528C67.8388 100.604 69.4513 103.365 70.1227 105.042C73.7555 114.111 75.6447 121.629 78.8839 130.322C81.4127 129.823 85.1726 130.022 87.9136 129.181C85.2946 116.861 82.7442 101.439 81.8289 88.8547C69.9761 89.3391 61.0078 89.471 49.1592 89.6079Z" fill="#427C83"/>
<path d="M51.4715 137.673L59.7417 137.833C59.8801 136.822 60.0093 133.763 60.1907 132.572L50.0078 132.388C50.5531 134.195 51.0759 136.706 51.4715 137.673Z" fill="white"/>
<path d="M47.7188 136.073C47.8541 135.535 48.1442 134.849 48.3666 134.223C48.5306 133.759 53.0532 133.735 53.0901 134.842C53.0993 135.125 53.0932 135.375 53.0747 135.603C53.8476 135.594 54.6872 135.567 55.5718 135.515C57.4968 135.404 59.22 135.211 60.4265 134.992C60.5433 136.742 60.4562 139.777 60.569 141.722C60.569 141.722 40.4819 145.922 37.2406 143.074C36.3273 142.27 41.3111 138.51 47.7188 136.073Z" fill="#E45D2D"/>
<path d="M60.5248 140.502C60.5351 140.935 60.5464 141.352 60.5689 141.722C60.5689 141.722 40.4819 145.922 37.2406 143.074C37.1115 142.96 37.1012 142.787 37.1945 142.569C42.7852 143.653 55.5287 141.453 60.5248 140.502Z" fill="#973822"/>
<path d="M42.8624 138.006C42.8911 138.158 43.0357 138.261 43.1925 138.23C44.1274 138.033 45.3749 138.467 46.2134 139.249C46.2718 139.304 46.3477 139.328 46.4225 139.324C46.4922 139.32 46.5599 139.291 46.6121 139.235C46.7188 139.122 46.7126 138.944 46.5998 138.837C45.6363 137.94 44.194 137.46 43.0859 137.677C42.9322 137.706 42.8326 137.855 42.8624 138.006ZM47.6791 138.44C47.7386 138.499 47.8186 138.528 47.8965 138.523C47.9632 138.52 48.0278 138.493 48.079 138.443C48.1887 138.333 48.1897 138.155 48.0811 138.045C47.1677 137.123 45.9387 136.686 44.7066 136.858C44.5518 136.878 44.4441 137.021 44.4646 137.176C44.4862 137.329 44.6317 137.447 44.7834 137.415C45.4036 137.33 46.6008 137.352 47.6791 138.44ZM49.0897 137.723C49.1492 137.797 49.2394 137.834 49.3286 137.829C49.3839 137.826 49.4393 137.807 49.4864 137.77C49.6094 137.673 49.6299 137.496 49.5336 137.374C48.7279 136.355 47.3512 135.844 46.1847 136.123C46.034 136.16 45.9407 136.312 45.9776 136.464C46.0145 136.615 46.1662 136.705 46.319 136.67C47.2774 136.434 48.4163 136.871 49.0897 137.723Z" fill="#D2DBE7"/>
<path d="M88.8944 136.597L80.7995 138.294C80.4735 137.327 79.7744 134.346 79.3726 133.21L89.3423 131.132C89.1455 133.009 89.1004 135.572 88.8944 136.597Z" fill="white"/>
<path d="M91.637 135.482C91.4628 134.953 91.1245 134.291 90.8569 133.682C90.6591 133.231 86.1468 133.535 86.1909 134.641C86.2022 134.925 86.2268 135.174 86.2616 135.4C85.4887 135.447 84.6512 135.48 83.7635 135.493C81.8364 135.52 80.1041 135.453 78.8843 135.322C78.8945 137.076 79.2031 140.097 79.2318 142.045C79.2318 142.045 99.571 144.78 102.597 141.704C103.45 140.837 98.2046 137.447 91.637 135.482Z" fill="#7AA0C0"/>
<path d="M79.1873 140.824C79.2088 141.258 79.2272 141.674 79.2324 142.045C79.2324 142.045 99.5716 144.78 102.598 141.703C102.718 141.582 102.715 141.409 102.606 141.198C97.1084 142.684 84.2398 141.41 79.1873 140.824Z" fill="#4C809C"/>
<path d="M97.7594 137.859C97.6477 137.886 97.5339 137.914 97.4232 137.95C95.0779 138.699 93.7022 140.942 94.3501 142.959C94.3726 143.03 94.4024 143.095 94.429 143.163C98.2166 143.16 101.516 142.804 102.598 141.704C103.157 141.136 101.095 139.484 97.7594 137.859Z" fill="#4C809C"/>
<path d="M96.3749 136.745C95.2535 136.608 93.8502 137.192 92.9553 138.157C92.8497 138.271 92.8559 138.449 92.9707 138.555C93.026 138.605 93.0968 138.631 93.1665 138.63C93.2403 138.628 93.3151 138.597 93.3694 138.539C94.1485 137.699 95.3611 137.176 96.3083 137.303C96.4672 137.325 96.6035 137.211 96.6209 137.058C96.6404 136.903 96.5287 136.764 96.3749 136.745ZM94.662 136.606C94.8158 136.628 94.9521 136.5 94.9624 136.343C94.9716 136.189 94.8537 136.055 94.6979 136.045C93.4566 135.963 92.2624 136.487 91.4187 137.473C91.3173 137.59 91.3316 137.769 91.4505 137.87C91.5048 137.916 91.5715 137.938 91.6381 137.937C91.716 137.936 91.7939 137.902 91.8482 137.838C92.8446 136.676 94.0378 136.567 94.662 136.606ZM93.0763 135.975C93.2321 135.998 93.3756 135.897 93.4022 135.745C93.4279 135.59 93.3233 135.446 93.1706 135.42C91.9866 135.225 90.651 135.835 89.9222 136.909C89.834 137.037 89.8678 137.213 89.997 137.3C90.0472 137.334 90.1036 137.349 90.16 137.348C90.2481 137.347 90.3352 137.304 90.3896 137.225C90.9995 136.327 92.1045 135.808 93.0763 135.975Z" fill="#D2DBE7"/>
<path d="M91.637 135.482C91.4628 134.953 91.1245 134.291 90.8569 133.682C90.6591 133.231 86.1468 133.535 86.1909 134.641C86.2022 134.925 86.2268 135.174 86.2616 135.4C85.4887 135.447 84.6512 135.48 83.7635 135.493C81.8364 135.52 80.1041 135.453 78.8843 135.322C78.8945 137.076 79.2031 140.097 79.2318 142.045C79.2318 142.045 99.571 144.78 102.597 141.704C103.45 140.837 98.2046 137.447 91.637 135.482Z" fill="#E45D2D"/>
<path d="M79.1873 140.824C79.2088 141.258 79.2272 141.674 79.2324 142.045C79.2324 142.045 99.5716 144.78 102.598 141.703C102.718 141.582 102.715 141.409 102.606 141.198C97.1084 142.684 84.2398 141.41 79.1873 140.824Z" fill="#973822"/>
<path d="M96.3749 136.745C95.2535 136.608 93.8502 137.192 92.9553 138.157C92.8497 138.271 92.8559 138.449 92.9707 138.555C93.026 138.605 93.0968 138.631 93.1665 138.63C93.2403 138.628 93.3151 138.597 93.3694 138.539C94.1485 137.699 95.3611 137.176 96.3083 137.303C96.4672 137.325 96.6035 137.211 96.6209 137.058C96.6404 136.903 96.5287 136.764 96.3749 136.745ZM94.662 136.606C94.8158 136.628 94.9521 136.5 94.9624 136.343C94.9716 136.189 94.8537 136.055 94.6979 136.045C93.4566 135.963 92.2624 136.487 91.4187 137.473C91.3173 137.59 91.3316 137.769 91.4505 137.87C91.5048 137.916 91.5715 137.938 91.6381 137.937C91.716 137.936 91.7939 137.902 91.8482 137.838C92.8446 136.676 94.0378 136.567 94.662 136.606ZM93.0763 135.975C93.2321 135.998 93.3756 135.897 93.4022 135.745C93.4279 135.59 93.3233 135.446 93.1706 135.42C91.9866 135.225 90.651 135.835 89.9222 136.909C89.834 137.037 89.8678 137.213 89.997 137.3C90.0472 137.334 90.1036 137.349 90.16 137.348C90.2481 137.347 90.3352 137.304 90.3896 137.225C90.9995 136.327 92.1045 135.808 93.0763 135.975Z" fill="#D2DBE7"/>
<path d="M88.7 130.038C85.4075 130.727 79.5811 131.272 77.9994 131.256L77.2214 126.92C78.0968 127.022 87.5561 125.769 88.4612 125.64L88.7 130.038Z" fill="#689FA7"/>
<path d="M49.9831 131.218C53.335 131.507 59.184 131.35 60.7524 131.144L61.0025 126.746C60.1445 126.953 50.6033 126.842 49.6899 126.823L49.9831 131.218Z" fill="#689FA7"/>
<path d="M103.985 52.7268C101.482 52.9282 98.9877 50.8104 99.3546 48.7009C102.005 45.2933 101.085 44.491 98.0938 37.6329C95.8243 32.4296 95.5199 19.3297 93.1797 14.5659C88.5372 2.3133 73.4627 -0.44628 61.9707 0.979504C49.6208 2.51261 39.3969 7.43079 37.0464 18.8402C34.5965 30.734 34.1998 37.638 32.2717 41.6272C30.524 45.2391 32.57 46.6159 33.0282 48.7612C31.9713 51.3388 29.4077 53.1602 27.7266 51.7804C27.7266 53.4576 29.7808 54.1812 30.9104 53.707C31.4506 53.4801 31.8852 52.9517 31.9683 52.923C31.3717 54.0259 30.1047 56.0117 29.9253 57.4856C29.6035 60.1419 31.304 64.5899 35.4914 66.7894C33.9538 65.241 31.9611 62.6388 32.6612 60.379C33.6606 64.6993 38.0807 69.3988 44.8492 68.6935C51.4751 69.595 73.9639 70.8573 79.5751 70.4076C85.2631 69.9517 96.9222 68.3491 99.7349 63.2081C99.7524 64.5082 99.1886 65.335 98.6022 66.1394C102.054 63.3522 102.677 60.7102 102.299 57.9312C102.01 55.7899 100.314 53.5792 99.5627 52.365C101.318 54.2292 102.546 54.8486 103.985 52.7268Z" fill="#A93D24"/>
<path d="M23.3065 53.644C22.5787 53.2117 26.3191 47.3164 27.0756 47.7038C38.3615 53.4999 52.8969 59.9328 55.9895 61.052L51.3685 68.9485C44.926 65.4847 32.9123 59.3533 23.3065 53.644Z" fill="#FBC1A0"/>
<path d="M42.8018 54.4456C41.4447 57.1745 39.2644 63.4459 38.0425 66.3609C44.0924 69.3494 49.149 71.462 49.64 71.4078C54.7458 70.8365 58.4278 60.9633 58.8204 60.4288C55.6141 59.42 48.779 57.1847 42.8018 54.4456Z" fill="#F89722"/>
<path d="M107.691 52.522C108.408 52.0723 104.52 46.271 103.775 46.6768C92.6378 52.754 78.2675 59.5477 75.2046 60.7435L80.0224 68.5214C86.3768 64.8982 98.2316 58.4684 107.691 52.522Z" fill="#FBC1A0"/>
<path d="M88.2215 53.8105C89.6473 56.5037 91.9845 62.7189 93.2791 65.6021C87.3051 68.7399 82.3038 70.9793 81.8118 70.9374C76.6926 70.4938 72.7646 60.7156 72.3577 60.1913C75.5384 59.1028 82.3151 56.6968 88.2215 53.8105Z" fill="#F89722"/>
<path d="M86.0805 100.615C76.6653 106.439 56.3466 106.381 46.3164 101.029C46.3164 101.029 47.938 90.6101 49.2726 79.7312C50.3377 71.0498 51.0306 62.076 51.9419 57.8733C55.5675 58.74 60.21 60.1648 64.9478 60.2639C71.1771 60.3927 75.3214 59.1458 78.7708 57.8672C80.1956 63.1144 80.8332 70.4611 82.0448 78.1664C83.2585 85.8718 85.0482 93.9359 86.0805 100.615Z" fill="#EF5526"/>
<path d="M74.1401 61.644C74.1401 60.8621 73.9392 60.1231 73.6266 59.4271C71.2146 59.9749 68.41 60.3357 64.9474 60.2631C62.5569 60.2141 60.1931 59.8257 57.9698 59.3423C57.6325 60.0618 57.4224 60.8314 57.4224 61.644C57.4224 65.3101 61.1659 68.2813 65.7818 68.2813C70.3976 68.2813 74.1401 65.3101 74.1401 61.644Z" fill="#FBC1A0"/>
<path d="M72.4044 51.6149L72.0948 62.0246C72.0282 64.262 69.1211 65.9923 65.6011 65.8881C62.082 65.7838 59.2826 63.8848 59.3503 61.6455L59.6506 51.2244L72.4044 51.6149Z" fill="#FBC1A0"/>
<g opacity="0.190002">
<g opacity="0.190002">
<path opacity="0.190002" d="M73.9632 60.4102C73.3676 60.3642 72.7721 60.3172 72.1273 60.2763L72.2493 56.1574C68.9589 54.5262 59.6503 51.2249 59.6503 51.2249L59.4976 58.6543C62.749 63.9159 72.7885 64.6947 73.9632 60.4102Z" fill="#811719"/>
</g>
</g>
<path d="M120.844 48.337C119.657 48.2032 115.513 48.5139 115.278 48.102C115.047 47.6972 123.254 44.6954 122.854 43.5374C121.982 41.016 114.267 45.1482 114.035 44.5227C114.192 43.6406 122.149 38.7204 120.9 36.8439C119.738 35.0972 112.269 41.71 111.757 41.4166C111.648 40.9076 116.471 34.072 114.919 32.8732C113.259 31.5915 109.417 38.4649 108.027 40.0695C107.2 41.0252 106.284 40.6869 105.968 39.3776C105.652 38.0693 105.522 37.2527 104.702 35.6634C103.708 33.7317 102.17 34.5166 102.181 35.3966C102.201 37.0718 102.476 40.1421 102.466 42.3988C102.457 44.6556 101.934 46.6527 102.135 47.7555C102.479 49.6381 104.62 52.6716 107.025 53.2951C109.326 53.892 112.905 51.9368 114.415 51.668C116.611 51.2755 119.131 50.8544 120.944 50.2667C122.733 49.6862 122.138 48.4832 120.844 48.337Z" fill="#2791D0"/>
<path d="M115.773 48.2551C115.518 48.2203 115.321 48.1753 115.278 48.1018C115.176 47.9219 116.742 47.2248 118.47 46.4113C118.592 46.3571 118.71 46.2968 118.833 46.2416C120.921 45.3003 123.064 44.1453 122.853 43.5372C121.982 41.0168 114.267 45.148 114.036 44.5225C114.096 44.178 115.352 43.2132 116.78 42.0583C115.525 41.9387 114.27 41.816 113.014 41.8845C112.073 41.9346 111.114 42.1145 110.315 42.6102C109.898 42.8688 108.595 45.286 108.255 45.6406C107.327 46.6126 108.113 46.4399 108.349 47.7604C108.494 48.5831 111.349 48.2336 112.028 48.7242C113.048 49.4621 112.369 50.0059 112.449 50.6528C112.533 51.3397 113.766 50.2972 114.319 49.8791C114.831 49.4918 115.161 48.9194 115.573 48.4288C115.631 48.3593 115.712 48.3195 115.773 48.2551Z" fill="#2791D0"/>
<path d="M114.116 44.3766C114.879 43.2125 122.095 38.6397 120.9 36.844C119.737 35.0973 112.269 41.71 111.756 41.4167C111.683 41.0753 113.833 37.8783 114.782 35.4529C114.73 35.4867 114.671 35.5132 114.619 35.548C111.96 37.3325 110.069 40.2188 109.497 43.3637C109.474 43.4874 109.454 43.6193 109.499 43.7368C109.541 43.8451 109.633 43.9269 109.725 43.9984C110.547 44.6444 111.634 44.9418 112.671 44.8049C113.171 44.7384 113.647 44.5677 114.116 44.3766Z" fill="#6EBE46"/>
<path d="M110.483 43.2436C110.76 42.891 111.104 42.5997 111.401 42.2634C111.663 41.967 111.881 41.6348 112.103 41.3057C111.936 41.3926 111.805 41.4447 111.756 41.4171C111.648 40.9071 116.471 34.0715 114.918 32.8737C113.259 31.592 109.416 38.4644 108.027 40.0701C107.55 40.622 107.055 40.6976 106.651 40.4482C106.183 41.2301 105.748 42.0304 105.407 42.8879C105.174 43.4715 105.222 43.9948 105.229 44.6162C105.237 45.3245 105.083 46.0144 105.036 46.7196C104.988 47.4238 107.895 46.6552 109.564 45.4788C110.49 44.8257 109.736 44.2013 110.483 43.2436Z" fill="#FBC114"/>
<path d="M105.19 47.6371C105.523 47.3959 105.901 47.0862 105.952 46.6795C106.159 45.0094 107.252 44.5587 107.379 43.4231C107.503 42.3295 107.046 41.3524 106.548 40.3661C106.301 40.1638 106.086 39.8633 105.969 39.3778C105.652 38.0695 105.522 37.2529 104.702 35.6626C103.709 33.7319 102.171 34.5158 102.181 35.3958C102.201 37.072 102.476 40.1423 102.467 42.399C102.46 44.1406 102.155 45.7146 102.103 46.8553C102.171 46.9319 102.224 47.0167 102.297 47.0873C103.061 47.8324 104.328 48.2678 105.19 47.6371Z" fill="#8F6EB0"/>
<path d="M120.944 50.2664C122.732 49.6869 122.138 48.4819 120.843 48.3367C119.656 48.2028 115.513 48.5136 115.278 48.1017L115.354 47.9841C114.046 48.1701 112.976 49.1155 112.051 51.222C111.588 52.2788 109.316 53.0076 109.299 53.2549C111.251 52.8757 113.347 51.8588 114.414 51.6676C116.611 51.2752 119.13 50.8541 120.944 50.2664Z" fill="#ED312D"/>
<path d="M12.0199 51.6486C13.1823 51.3737 17.3328 51.1846 17.5152 50.7482C17.6967 50.3189 9.18764 48.3238 9.44493 47.126C10.0056 44.5187 18.1641 47.6942 18.3189 47.0452C18.0565 46.1887 9.56282 42.2589 10.5766 40.2464C11.5197 38.373 19.7314 44.0414 20.206 43.6898C20.2511 43.1706 14.6389 36.9625 16.035 35.5868C17.5275 34.1161 22.1721 40.4774 23.7445 41.9042C24.6814 42.7536 25.5496 42.3069 25.7065 40.97C25.8613 39.6332 25.892 38.8074 26.5142 37.1301C27.2676 35.0942 28.8883 35.688 28.9846 36.5629C29.1681 38.2278 29.2645 41.3104 29.5463 43.5487C29.8282 45.7891 30.5878 47.7075 30.5222 48.8267C30.4074 50.7369 28.6484 54.0055 26.3379 54.9121C24.1248 55.7808 20.3352 54.2702 18.8048 54.1833C16.5753 54.0576 14.0239 53.9421 12.1542 53.5772C10.307 53.2154 10.7529 51.9491 12.0199 51.6486Z" fill="#17A6D2"/>
<path d="M19.6747 49.4678C19.2749 47.1917 18.8454 44.8849 18.0356 42.7161C19.1878 43.3385 20.0612 43.7964 20.2067 43.6901C20.2487 43.2077 15.4156 37.8214 15.8471 35.9541C15.9035 35.8273 15.9353 35.6853 16.0347 35.5871C17.5272 34.1154 22.1728 40.4777 23.7442 41.9045C24.0989 42.2255 24.431 42.3083 24.7313 42.2807C24.4535 43.0043 24.0691 43.8996 23.9636 45.6003C23.8426 47.528 24.5417 48.5337 24.3295 49.6763C23.7965 52.5647 22.6002 51.3955 22.876 55.0003C22.6679 54.9655 22.4619 54.9298 22.2568 54.8899C22.0805 54.6119 19.9238 50.8834 19.6747 49.4678Z" fill="#FBC114"/>
<path d="M18.3185 47.0454C18.0561 46.1889 9.56238 42.2591 10.5762 40.2466C11.2743 38.8607 15.9393 41.5947 18.5173 42.9745C18.9489 43.4743 19.4071 43.9547 19.7987 44.4862C20.098 44.8919 20.3901 45.313 20.547 45.7903C20.7048 46.2686 20.4414 46.7521 20.4639 47.2539C20.4978 48.0143 20.3737 49.0446 20.6536 49.9205C20.6935 50.0462 19.4317 48.6378 19.3087 48.6848C19.198 48.7277 19.076 48.6797 18.9684 48.6317C17.4421 47.954 15.9321 47.2365 14.4673 46.4352C16.4354 46.8216 18.2467 47.348 18.3185 47.0454Z" fill="#40B75D"/>
<path d="M14.0359 51.3782C15.5991 51.2116 17.3961 51.0327 17.516 50.7486C17.6964 50.3193 9.18838 48.3242 9.44464 47.1264C9.98075 44.6335 17.4401 47.4166 18.2346 47.1008C19.1643 47.756 19.9556 48.5849 20.4887 49.5875C21.0975 50.7363 21.3405 52.0395 21.812 53.2506C22.0416 53.8403 22.3297 54.4045 22.6351 54.9595C21.1037 54.6805 19.6276 54.2298 18.8045 54.1838C18.5359 54.1684 15.3142 52.3665 14.0359 51.3782Z" fill="#ED312D"/>
<path d="M12.1539 53.5773C10.3067 53.2155 10.7526 51.9481 12.0196 51.6486C13.0539 51.4054 16.4376 51.2265 17.3027 50.8821C18.9572 51.4606 20.1493 52.9518 21.1908 54.3888C21.2646 54.4889 21.324 54.6004 21.3927 54.7066C20.339 54.4665 19.4 54.2181 18.8045 54.1844C16.5749 54.0587 14.0236 53.9421 12.1539 53.5773Z" fill="#8F6EB0"/>
<path d="M1.37888 34.3234H6.28276C6.37502 34.3224 6.46317 34.3081 6.53903 34.2672C6.71021 34.1773 6.82605 33.9984 6.82707 33.7909C6.8281 33.4925 6.58618 33.24 6.28584 33.238H1.38196C1.08366 33.2411 0.83765 33.471 0.83765 33.7705C0.836625 34.0699 1.07854 34.3214 1.37888 34.3234ZM11.5679 29.2243C11.5566 29.5238 11.7893 29.7752 12.0897 29.7885C12.1901 29.7926 12.2844 29.7701 12.3675 29.7251C12.5315 29.6383 12.6463 29.4696 12.6555 29.2713L12.8615 24.3838C12.8759 24.0844 12.6422 23.8319 12.3418 23.8196C12.0456 23.8043 11.7893 24.0353 11.777 24.3368L11.5679 29.2243ZM7.75782 31.2644C7.91773 31.4892 8.21705 31.5546 8.45384 31.4289L8.51637 31.3921C8.75828 31.2174 8.81568 30.8811 8.64245 30.6378L5.79381 26.6549C5.61955 26.4106 5.28026 26.3625 5.03527 26.5281C4.79233 26.7019 4.73493 27.0391 4.90816 27.2824L7.75782 31.2644Z" fill="#B4B5B6"/>
<path d="M131.838 33.7705C131.838 33.471 131.592 33.2411 131.294 33.238H126.389C126.09 33.24 125.847 33.4925 125.848 33.792C125.848 33.9984 125.966 34.1773 126.136 34.2672C126.213 34.3081 126.301 34.3224 126.393 34.3234H131.297C131.597 34.3214 131.839 34.07 131.838 33.7705ZM120.898 24.3378C120.885 24.0353 120.629 23.8043 120.333 23.8196C120.033 23.8319 119.8 24.0844 119.813 24.3838L120.02 29.2714C120.028 29.4696 120.144 29.6383 120.308 29.7251C120.391 29.7701 120.486 29.7926 120.585 29.7885C120.885 29.7752 121.119 29.5238 121.107 29.2243L120.898 24.3378ZM127.767 27.2824C127.94 27.0392 127.883 26.7019 127.639 26.5281C127.396 26.3625 127.056 26.4106 126.881 26.6549L124.033 30.6379C123.86 30.8811 123.915 31.2174 124.159 31.3921L124.221 31.4289C124.459 31.5546 124.758 31.4892 124.918 31.2644L127.767 27.2824Z" fill="#B4B5B6"/>
<path d="M35.6854 42.5438C37.1994 48.0446 42.7357 51.4675 46.8759 50.9013C51.0172 50.3351 51.7798 45.8083 51.0131 40.5048C50.2453 35.2003 46.264 31.3461 42.1248 31.9256C36.4685 32.7187 34.2626 37.3732 35.6854 42.5438Z" fill="#FBC1A0"/>
<path d="M40.216 43.5012C40.5614 45.9419 42.589 47.6733 44.7477 47.3708C46.9045 47.0672 48.3744 44.8442 48.03 42.4056C47.6856 39.9659 45.658 38.2345 43.5002 38.537C41.3425 38.8386 39.8726 41.0615 40.216 43.5012Z" fill="#E0956C"/>
<path d="M96.6394 42.6199C95.1407 48.1247 89.6136 51.5609 85.4703 51.0049C81.3281 50.4489 80.5531 45.9232 81.3055 40.6187C82.06 35.3131 86.031 31.4477 90.1723 32.018C95.8316 32.7978 98.0488 37.4462 96.6394 42.6199Z" fill="#FBC1A0"/>
<path d="M91.8244 43.4362C91.4871 45.8769 89.4626 47.6144 87.3049 47.317C85.1451 47.0196 83.67 44.7997 84.0083 42.359C84.3466 39.9193 86.3711 38.1818 88.5288 38.4782C90.6876 38.7756 92.1626 40.9955 91.8244 43.4362Z" fill="#E0956C"/>
<path d="M94.0157 25.0401C93.9131 43.9984 82.3823 52.4642 66.3001 52.3784C50.2159 52.2925 37.4447 43.7051 37.5472 24.7468C37.6497 5.7884 51.3517 0.436857 65.5077 0.237553C80.0533 0.0351836 94.1182 6.08173 94.0157 25.0401Z" fill="#A93D24"/>
<path d="M88.3929 19.1213C91.2908 28.1012 88.7712 47.221 85.5709 50.8739C82.1759 54.7486 72.7474 59.3949 65.8191 59.4705C58.6129 59.5482 49.1813 55.0838 46.549 50.831C43.4338 45.8004 40.7461 28.7247 43.0156 20.8169C45.7556 11.2749 55.0436 8.6226 66.3316 8.61136C76.8897 8.60011 85.8313 11.1829 88.3929 19.1213Z" fill="#FBC1A0"/>
<path d="M40.6463 21.3062C40.4915 18.0468 42.2403 9.812 48.241 6.46881C55.9791 2.15977 71.148 -0.141921 86.5289 9.13335C84.6899 17.2486 69.3459 20.372 62.9639 19.9704C65.0314 18.9984 67.8206 16.9123 67.7673 15.3639C64.9033 17.592 41.0051 28.7704 40.6463 21.3062Z" fill="#A93D24"/>
<path d="M40.7226 11.8331C41.3981 10.9827 47.2984 11.4426 50.5478 11.9404C42.3473 11.738 44.5615 20.5278 44.1822 28.0891C43.929 33.1411 42.784 37.5289 39.9641 37.0669C40.1886 31.8227 40.1537 15.3418 40.7226 11.8331Z" fill="#A93D24"/>
<path d="M90.5249 11.8331C89.8494 10.9827 83.9481 11.4426 80.6997 11.9404C88.9002 11.738 86.685 20.5278 87.0643 28.0891C87.3175 33.1411 88.4625 37.5289 91.2824 37.0669C91.0579 31.8227 91.0938 15.3418 90.5249 11.8331Z" fill="#A93D24"/>
<path d="M41.2551 18.1061C45.3421 8.23088 53.276 2.78121 67.1912 2.70149C78.6124 2.63608 87.5704 8.2779 92.0335 18.5436C86.0256 9.5749 77.9594 5.14117 66.3609 5.42837C55.7372 5.69104 47.3758 9.59739 41.2551 18.1061Z" fill="#F39121"/>
<path d="M47.5956 11.5905C50.1716 11.3411 53.9377 10.8884 55.1196 9.68642C55.8638 8.92907 53.6978 5.18115 50.7241 4.67216C49.1517 4.40438 46.3871 6.96363 46.0058 9.54844C45.8131 10.8567 46.3697 11.7081 47.5956 11.5905Z" fill="#F9A11E"/>
<path d="M46.6665 12.7642C45.9551 16.88 44.9741 19.6171 43.6887 19.9595C41.6581 20.4992 37.3621 17.6374 37.688 15.3469C38.015 13.0534 42.7098 10.3858 44.9372 10.6689C46.3313 10.8468 46.8951 11.4426 46.6665 12.7642Z" fill="#F9A11E"/>
<g opacity="0.350006">
<g opacity="0.350006">
<path opacity="0.350006" d="M46.9534 10.3669C47.1881 9.59827 48.1527 7.5807 49.0312 8.59766C50.1813 9.92635 47.6791 10.3996 46.9534 10.3669Z" fill="#BF2A28"/>
</g>
</g>
<g opacity="0.350006">
<g opacity="0.350006">
<path opacity="0.350006" d="M45.4734 11.6116C44.6134 11.8681 41.9349 12.8095 43.3844 13.7845C44.8932 14.7994 45.3719 12.463 45.4734 11.6116Z" fill="#BF2A28"/>
</g>
</g>
<path d="M47.3473 10.3408C47.9019 11.0307 47.906 11.9465 47.3565 12.386C46.8071 12.8265 45.9133 12.6231 45.3587 11.9332C44.8041 11.2433 44.8011 10.3265 45.3495 9.88704C45.8989 9.44755 46.7928 9.64992 47.3473 10.3408Z" fill="#F9A11E"/>
<path d="M50.9374 40.5029C50.8267 41.5444 49.286 42.2332 47.4962 42.0442C45.7055 41.8551 44.3442 40.8586 44.4559 39.8171C44.5656 38.7766 46.1073 38.0857 47.896 38.2748C49.6868 38.4639 51.047 39.4614 50.9374 40.5029Z" fill="#F48A8B"/>
<path d="M81.4576 40.5029C81.5683 41.5444 83.109 42.2332 84.8987 42.0442C86.6895 41.8551 88.0508 40.8586 87.9391 39.8171C87.8294 38.7766 86.2877 38.0857 84.499 38.2748C82.7092 38.4639 81.3479 39.4614 81.4576 40.5029Z" fill="#F48A8B"/>
<path d="M68.2929 39.1902C68.173 39.1923 68.0653 39.1095 68.0418 38.9879C67.8777 38.1283 67.1787 37.5876 66.2633 37.6091C65.3418 37.6326 64.655 38.2183 64.5555 39.0676C64.5381 39.2045 64.4141 39.3016 64.2777 39.2853C64.1414 39.2689 64.043 39.1463 64.0594 39.0093C64.1886 37.9208 65.0896 37.141 66.251 37.1124C67.4052 37.0838 68.3216 37.8013 68.5317 38.8949C68.5574 39.0298 68.4692 39.1596 68.3339 39.1851L68.2929 39.1902Z" fill="#C5735C"/>
<path d="M47.871 24.5929C47.6424 24.5949 47.4139 24.505 47.2488 24.322C46.9393 23.9847 46.9628 23.4614 47.3021 23.1517C49.7684 20.9083 54.2325 20.2439 57.9176 21.5675C58.3502 21.7239 58.5726 22.1992 58.4179 22.6295C58.261 23.0618 57.7833 23.2846 57.3528 23.1282C54.2643 22.0152 50.4255 22.5508 48.4225 24.3762C48.2667 24.5193 48.0689 24.5908 47.871 24.5929Z" fill="#6C1A10"/>
<path d="M84.761 24.5929C84.9906 24.5949 85.2182 24.505 85.3832 24.322C85.6928 23.9847 85.6692 23.4614 85.3309 23.1517C82.8636 20.9083 78.3995 20.2439 74.7144 21.5675C74.2818 21.7239 74.0594 22.1992 74.2152 22.6295C74.371 23.0618 74.8487 23.2846 75.2792 23.1282C78.3677 22.0152 82.2066 22.5508 84.2085 24.3762C84.3653 24.5193 84.5632 24.5908 84.761 24.5929Z" fill="#6C1A10"/>
<path d="M77.5155 43.4532C78.3847 47.9288 72.7705 53.9928 65.1933 53.6401C58.8471 53.3458 54.1185 47.4566 54.832 43.3172C55.2625 40.8265 59.4437 41.5828 65.7027 41.5276C71.9535 41.4724 76.9876 40.7304 77.5155 43.4532Z" fill="#701A12"/>
<path d="M65.9626 49.5438C63.0247 49.552 60.7665 50.2521 59.2976 51.5992C60.9398 52.702 63.1652 53.7476 65.6181 53.7322C68.3796 53.7138 71.3605 52.9606 72.8786 51.6094C72.1693 50.3114 68.5898 49.5366 65.9626 49.5438Z" fill="#DC6C5D"/>
<path d="M74.7045 41.5777C72.598 41.2343 69.1733 41.4029 66.0561 41.4468C62.5402 41.4969 60.0535 41.3232 57.7625 41.593C58.5815 43.5697 61.9529 44.0276 65.9998 44.0204C70.6721 44.0112 74.0567 43.7128 74.7045 41.5777Z" fill="white"/>
<path d="M72.8139 35.3076C74.0399 33.0754 76.3535 31.7498 78.8997 31.7968C80.1205 31.8132 81.2635 32.1453 82.2629 32.6911C83.0963 32.2189 83.4889 31.3778 83.6488 31.4422C83.8794 31.5342 83.9307 32.9017 83.3239 33.4516C83.4797 33.5824 83.6601 33.6866 83.8046 33.8318C85.1187 33.8542 86.2801 33.0008 86.3416 33.2921C86.4011 33.564 85.7276 34.8211 84.7405 35.0889C84.801 35.1921 84.89 35.2708 84.9454 35.3771C85.1781 35.8268 84.9988 36.3798 84.5468 36.6087C84.4289 36.67 84.3048 36.7017 84.1798 36.7089C83.8292 36.7293 83.4807 36.5443 83.3105 36.2122C82.5038 34.6453 80.8063 33.6549 78.8751 33.6294C76.9439 33.5783 75.3304 34.538 74.4274 36.1876C74.1834 36.6312 73.6268 36.7917 73.1788 36.5525C72.735 36.3082 72.572 35.7543 72.8139 35.3076Z" fill="#6B1E11"/>
<path d="M60.2308 35.3076C59.0049 33.0754 56.6913 31.7498 54.1451 31.7968C52.9242 31.8132 51.7813 32.1453 50.7808 32.6911C49.9485 32.2189 49.5559 31.3778 49.396 31.4422C49.1653 31.5342 49.1141 32.9017 49.7209 33.4516C49.5641 33.5824 49.3847 33.6866 49.2402 33.8318C47.926 33.8542 46.7647 33.0008 46.7031 33.2921C46.6437 33.564 47.3172 34.8211 48.3043 35.0889C48.2438 35.1921 48.1546 35.2708 48.0993 35.3771C47.8666 35.8268 48.046 36.3798 48.498 36.6087C48.6149 36.67 48.7389 36.7017 48.864 36.7089C49.2156 36.7293 49.5641 36.5443 49.7342 36.2122C50.5399 34.6453 52.2385 33.6549 54.1697 33.6294C56.1009 33.5783 57.7133 34.538 58.6174 36.1876C58.8614 36.6312 59.418 36.7917 59.8649 36.5525C60.3098 36.3082 60.4728 35.7543 60.2308 35.3076Z" fill="#6B1E11"/>
<path d="M56.1153 61.036C56.0333 61.5154 55.284 61.7862 54.4414 61.6441C53.5998 61.5 52.9817 60.9972 53.0637 60.5178C53.1468 60.0395 53.895 59.7676 54.7376 59.9107C55.5813 60.0538 56.1973 60.5577 56.1153 61.036Z" fill="#9E3121"/>
<path d="M74.866 61.036C74.948 61.5154 75.6973 61.7862 76.5399 61.6441C77.3825 61.5 77.9985 60.9972 77.9176 60.5178C77.8345 60.0395 77.0852 59.7676 76.2436 59.9107C75.4 60.0538 74.784 60.5577 74.866 61.036Z" fill="#9E3121"/>
<g opacity="0.300003">
<g opacity="0.300003">
<path opacity="0.300003" d="M82.0456 78.1666C82.0169 77.9775 81.9913 77.7935 81.9616 77.6045C71.7356 79.807 60.4692 79.9787 49.4682 78.0685C49.4365 78.3465 49.4036 78.6235 49.3708 78.9004C54.7626 79.8377 60.2211 80.3211 65.6017 80.2751C71.2682 80.224 76.8075 79.5689 82.0907 78.4272C82.0763 78.3414 82.06 78.2525 82.0456 78.1666Z" fill="white"/>
</g>
</g>
</svg>
