<svg width="23" height="24" viewBox="0 0 23 24" fill="none" xmlns="http://www.w3.org/2000/svg">
<path d="M3.25 3.25H10.75C11.4375 3.25 12 2.6875 12 2C12 1.3125 11.4375 0.75 10.75 0.75H3.25C1.875 0.75 0.75 1.875 0.75 3.25V20.75C0.75 22.125 1.875 23.25 3.25 23.25H10.75C11.4375 23.25 12 22.6875 12 22C12 21.3125 11.4375 20.75 10.75 20.75H3.25V3.25Z" fill="#25B9F3"/>
<path d="M22.8125 11.5624L19.325 8.07492C18.925 7.67492 18.25 7.94992 18.25 8.51242V10.7499H9.5C8.8125 10.7499 8.25 11.3124 8.25 11.9999C8.25 12.6874 8.8125 13.2499 9.5 13.2499H18.25V15.4874C18.25 16.0499 18.925 16.3249 19.3125 15.9249L22.8 12.4374C23.05 12.1999 23.05 11.7999 22.8125 11.5624Z" fill="#25B9F3"/>
</svg>
