<svg width="44" height="44" viewBox="0 0 44 44" fill="none" xmlns="http://www.w3.org/2000/svg">
<rect width="44" height="44" rx="10" fill="#FDEDED"/>
<path d="M33.25 17C31.4375 17 30.425 18.8 30.8375 20.1375L26.4 24.5875C26.025 24.475 25.475 24.475 25.1 24.5875L21.9125 21.4C22.3375 20.0625 21.325 18.25 19.5 18.25C17.6875 18.25 16.6625 20.05 17.0875 21.4L11.3875 27.0875C10.05 26.675 8.25 27.6875 8.25 29.5C8.25 30.875 9.375 32 10.75 32C12.5625 32 13.575 30.2 13.1625 28.8625L18.85 23.1625C19.225 23.275 19.775 23.275 20.15 23.1625L23.3375 26.35C22.9125 27.6875 23.925 29.5 25.75 29.5C27.5625 29.5 28.5875 27.7 28.1625 26.35L32.6125 21.9125C33.95 22.325 35.75 21.3125 35.75 19.5C35.75 18.125 34.625 17 33.25 17Z" fill="#EB4747"/>
<path d="M25.75 18.25L26.925 15.6625L29.5 14.5L26.925 13.3375L25.75 10.75L24.6 13.3375L22 14.5L24.6 15.6625L25.75 18.25Z" fill="#EB4747"/>
<path d="M11.375 20.75L12 18.25L14.5 17.625L12 17L11.375 14.5L10.75 17L8.25 17.625L10.75 18.25L11.375 20.75Z" fill="#EB4747"/>
</svg>
