<svg width="28" height="22" viewBox="0 0 28 22" fill="none" xmlns="http://www.w3.org/2000/svg">
<path d="M25.25 7C23.4375 7 22.425 8.8 22.8375 10.1375L18.4 14.5875C18.025 14.475 17.475 14.475 17.1 14.5875L13.9125 11.4C14.3375 10.0625 13.325 8.25 11.5 8.25C9.6875 8.25 8.6625 10.05 9.0875 11.4L3.3875 17.0875C2.05 16.675 0.25 17.6875 0.25 19.5C0.25 20.875 1.375 22 2.75 22C4.5625 22 5.575 20.2 5.1625 18.8625L10.85 13.1625C11.225 13.275 11.775 13.275 12.15 13.1625L15.3375 16.35C14.9125 17.6875 15.925 19.5 17.75 19.5C19.5625 19.5 20.5875 17.7 20.1625 16.35L24.6125 11.9125C25.95 12.325 27.75 11.3125 27.75 9.5C27.75 8.125 26.625 7 25.25 7Z" fill="#EB4747"/>
<path d="M17.75 8.25L18.925 5.6625L21.5 4.5L18.925 3.3375L17.75 0.75L16.6 3.3375L14 4.5L16.6 5.6625L17.75 8.25Z" fill="#EB4747"/>
<path d="M3.375 10.75L4 8.25L6.5 7.625L4 7L3.375 4.5L2.75 7L0.25 7.625L2.75 8.25L3.375 10.75Z" fill="#EB4747"/>
</svg>
