<svg width="24" height="22" viewBox="0 0 24 22" fill="none" xmlns="http://www.w3.org/2000/svg">
<path d="M0.75 8.50011V13.5001C0.75 14.1876 1.3125 14.7501 2 14.7501H5.75L9.8625 18.8626C10.65 19.6501 12 19.0876 12 17.9751V4.01261C12 2.90011 10.65 2.33761 9.8625 3.12511L5.75 7.25011H2C1.3125 7.25011 0.75 7.81261 0.75 8.50011ZM17.625 11.0001C17.625 8.78761 16.35 6.88761 14.5 5.96261V16.0251C16.35 15.1126 17.625 13.2126 17.625 11.0001ZM14.5 1.56261V1.81261C14.5 2.28761 14.8125 2.70011 15.25 2.87511C18.475 4.16261 20.75 7.32511 20.75 11.0001C20.75 14.6751 18.475 17.8376 15.25 19.1251C14.8 19.3001 14.5 19.7126 14.5 20.1876V20.4376C14.5 21.2251 15.2875 21.7751 16.0125 21.5001C20.25 19.8876 23.25 15.8001 23.25 11.0001C23.25 6.20011 20.25 2.11261 16.0125 0.500106C15.2875 0.212606 14.5 0.775106 14.5 1.56261Z" fill="#79CE4B"/>
</svg>
