<svg width="26" height="26" viewBox="0 0 26 26" fill="none" xmlns="http://www.w3.org/2000/svg">
<defs>
<linearGradient id="paint0_linear_2009_1542" x1="13" y1="25.4136" x2="13" y2="0.6094" gradientUnits="userSpaceOnUse">
<stop stop-color="#96D873"/>
<stop offset="1" stop-color="#69C837"/>
</linearGradient>
</defs>
<path fill-rule="evenodd" clip-rule="evenodd" d="M4.61669 25.2749C4.26413 25.0373 4.10943 24.5022 4.29201 24.1521C4.48461 23.7828 5.55171 22.3884 5.70336 22.308C6.61408 21.8245 7.38283 22.856 6.77423 23.7449C6.21764 24.5579 5.68119 25.239 5.53975 25.3121C5.30257 25.4348 4.82534 25.4156 4.61669 25.2749ZM20.4339 25.294C20.2959 25.2098 19.3749 24.0119 19.0938 23.5508C18.634 22.7967 19.5435 21.8725 20.3052 22.3199C20.4643 22.4133 21.5209 23.7934 21.708 24.1521C22.091 24.8864 21.1494 25.7303 20.4339 25.294ZM12.4426 23.9922C11.6118 23.7592 11.4709 23.5727 10.255 21.0964C9.7004 19.967 9.23858 19.043 9.22863 19.043C9.03136 19.043 4.68442 18.3663 4.53167 18.3118C3.64085 17.994 3.08282 17.0109 3.24961 16.053C3.35894 15.4252 3.42387 15.3439 5.24433 13.5539L6.92763 11.8987L6.55538 9.72715C6.13138 7.25377 6.11481 6.97284 6.36103 6.43561C6.67342 5.75383 7.3292 5.32398 8.10888 5.28986C8.74822 5.26191 8.75082 5.26295 11.0019 6.44634C12.0675 7.00651 12.9678 7.46489 13.0026 7.46489C13.0374 7.46489 13.9366 7.00651 15.0008 6.44634C17.248 5.26327 17.2515 5.26191 17.8911 5.28986C18.6708 5.32398 19.3266 5.75383 19.639 6.43561C19.8858 6.97433 19.8691 7.25825 19.4447 9.72988L19.0724 11.8987L20.7583 13.5538C22.5837 15.3461 22.6311 15.4057 22.7537 16.0691C22.9247 16.9938 22.3504 17.9959 21.4683 18.3122C21.3493 18.3549 20.3265 18.5252 19.1953 18.6907C18.0641 18.8561 17.0514 19.0054 16.9447 19.0223L16.7506 19.0532L15.7217 21.1428C14.7148 23.1875 14.686 23.2386 14.3813 23.5202C13.8674 23.9949 13.1098 24.1794 12.4426 23.9922ZM1.36227 11.1038C0.17459 10.7121 0 10.5708 0 10.0014C0 9.0804 0.53534 8.93369 2.05666 9.43783C3.30076 9.85006 3.48699 10.0092 3.44266 10.6221C3.38019 11.4853 2.87391 11.6025 1.36227 11.1038ZM22.9526 11.3115C22.4388 10.9618 22.4017 10.1902 22.8816 9.83557C23.1202 9.65935 25.0363 9.07786 25.2613 9.11342C25.7181 9.18563 26 9.52565 26 10.0044C26 10.576 25.8077 10.7273 24.5828 11.1196C23.5021 11.4658 23.2268 11.4982 22.9526 11.3115ZM12.5425 3.99902C12.1444 3.7281 12.0884 3.52608 12.0884 2.36135C12.0884 0.974115 12.2781 0.6094 13 0.6094C13.7219 0.6094 13.9116 0.974115 13.9116 2.36135C13.9116 3.74858 13.7219 4.11329 13 4.11329C12.7832 4.11329 12.6681 4.08456 12.5425 3.99902Z" fill="url(#paint0_linear_2009_1542)"/>
</svg>
