<svg width="26" height="26" viewBox="0 0 26 26" fill="none" xmlns="http://www.w3.org/2000/svg">
<defs>
<linearGradient id="paint0_linear_8841_34652" x1="9.94045" y1="19.8564" x2="9.94045" y2="0.0167046" gradientUnits="userSpaceOnUse">
<stop stop-color="#F075B2"/>
<stop offset="1" stop-color="#EB4799"/>
</linearGradient>
<linearGradient id="paint1_linear_8841_34652" x1="18.052" y1="25.9839" x2="18.052" y2="10.1198" gradientUnits="userSpaceOnUse">
<stop stop-color="#F075B2"/>
<stop offset="1" stop-color="#EB4799"/>
</linearGradient>
</defs>
<path d="M8.74465 0.0906504C7.78488 0.212525 6.93684 0.435963 6.11418 0.786354C3.67668 1.83245 1.83332 3.67073 0.797383 6.08792C-0.355351 8.77425 -0.218242 12.0242 1.15793 14.5735L1.38645 14.9949L0.721211 17.3867C0.355586 18.7071 0.0661331 19.7938 0.0813675 19.8039C0.0915238 19.8141 1.17824 19.5246 2.49348 19.159L4.89035 18.4938L5.30676 18.7223C6.58137 19.4078 8.05402 19.7938 9.60793 19.8496C14.2696 20.0223 18.4134 16.8942 19.5611 12.3492C20.4142 8.95198 19.4189 5.39729 16.9204 2.90901C14.7622 0.755885 11.7458 -0.280053 8.74465 0.0906504ZM10.5829 4.65589C11.4614 4.84378 12.2536 5.46331 12.6548 6.27581C12.8782 6.73792 12.9595 7.08323 12.9595 7.63167C12.9595 8.15979 12.8884 8.47971 12.6853 8.93167C12.4821 9.37346 12.2486 9.64768 11.4259 10.4043L10.6743 11.0899V11.6739V12.2528H9.93801H9.20168V11.3184V10.384L9.79582 9.8305C11.3904 8.36292 11.4361 8.30198 11.4361 7.63167C11.4361 7.14417 11.2939 6.82932 10.9384 6.5094C10.6591 6.2555 10.2884 6.10823 9.93801 6.10823C9.21184 6.10823 8.43996 6.79378 8.43996 7.4387V7.63167H7.67824H6.91652V7.38792C6.91652 6.63635 7.43449 5.70198 8.12004 5.19924C8.85637 4.66604 9.71965 4.47307 10.5829 4.65589ZM10.6743 14.5379V15.2996H9.93801H9.20168V14.5379V13.7762H9.93801H10.6743V14.5379Z" fill="url(#paint0_linear_8841_34652)"/>
<path d="M21.3486 10.8409C20.8662 16.4776 16.4736 20.8702 10.8521 21.3476C10.4611 21.3831 10.1361 21.4136 10.1259 21.4187C10.0904 21.444 10.6388 22.3226 10.9232 22.6983C11.3142 23.2214 12.2079 24.0745 12.7818 24.4858C13.3302 24.8718 14.3814 25.3948 15.0263 25.603C15.9251 25.8976 16.5345 25.9839 17.606 25.9839C18.4033 25.9839 18.6673 25.9636 19.1447 25.8722C19.9267 25.7147 20.6833 25.4608 21.3486 25.1257L21.9021 24.8515L23.913 25.4101C25.0201 25.7147 25.9341 25.9585 25.9443 25.9483C25.9544 25.9382 25.7107 25.0241 25.406 23.9171L24.8474 21.9062L25.1216 21.3526C25.4568 20.6874 25.7107 19.9308 25.8681 19.1487C25.9595 18.6714 25.9798 18.4073 25.9798 17.6101C25.9798 16.5386 25.8935 15.9292 25.599 15.0304C25.3908 14.3855 24.8677 13.3343 24.4818 12.7858C24.0704 12.212 23.2173 11.3183 22.6943 10.9272C22.3744 10.6886 21.4806 10.1198 21.4247 10.1198C21.4146 10.1198 21.379 10.4448 21.3486 10.8409Z" fill="url(#paint1_linear_8841_34652)"/>

</svg>
