<svg width="30" height="30" viewBox="0 0 106 121" fill="none" xmlns="http://www.w3.org/2000/svg">
<defs>
<linearGradient id="paint0_linear_9828_35204" x1="37.276" y1="108.472" x2="69.4739" y2="20.0087" gradientUnits="userSpaceOnUse">
<stop stop-color="#A93AFF"/>
<stop offset="1" stop-color="#FF81FF"/>
</linearGradient>
<linearGradient id="paint1_linear_9828_35204" x1="35.8996" y1="107.971" x2="70.1016" y2="14.0017" gradientUnits="userSpaceOnUse">
<stop stop-color="#FFA3F7"/>
<stop offset="1" stop-color="#FFD6FF"/>
</linearGradient>
</defs>
<path d="M68.5165 69.7514L79.5285 73.7595C81.0704 74.3207 82.7225 73.55 83.2835 72.0085L95.3745 38.7889C97.0378 34.2189 94.6918 29.1873 90.1215 27.5238L79.1095 23.5158C77.5676 22.9546 75.9156 23.7249 75.3544 25.2668L69.2021 42.1702L66.22 38.0293C65.5042 37.0829 64.2931 36.642 63.1363 36.9069L58.1901 38.1622L64.3424 21.2587C64.9036 19.7169 64.1333 18.0649 62.5914 17.5037L46.0734 11.4916L24.4684 53.7192L13.8754 99.9549L57.9235 115.987C62.4939 117.651 67.5253 115.304 69.1886 110.734L79.2755 83.0205C79.8367 81.4786 79.0663 79.8267 77.5245 79.2655L66.5125 75.2574C64.9706 74.6962 64.2004 73.0439 64.7615 71.5024C65.3227 69.9606 66.9746 69.1902 68.5165 69.7514Z" fill="url(#paint0_linear_9828_35204)"/>
<path d="M31.3065 9.23457L1.1125 92.1918C0.55144 93.7333 1.32163 95.3856 2.86349 95.9468L13.8755 99.9549L46.0735 11.4916L35.0615 7.48358C33.5196 6.92239 31.8677 7.69271 31.3065 9.23457ZM87.0386 70.2575L70.5206 64.2454C65.9664 62.5878 60.9132 64.9442 59.2556 69.4984C57.598 74.0526 59.9543 79.1058 64.5085 80.7634L81.0266 86.7755C82.5483 87.3294 84.2277 86.5462 84.7816 85.0245L88.7896 74.0125C89.3435 72.4908 88.5603 70.8113 87.0386 70.2575ZM70.5063 51.1932C71.5758 51.0404 72.4746 50.3111 72.8445 49.2948L82.8646 21.7648C83.4184 20.2431 82.6353 18.5636 81.1136 18.0098L64.5956 11.9977C63.0739 11.4438 61.3944 12.227 60.8405 13.7487L50.8204 41.2787C50.4505 42.295 50.6702 43.4314 51.3913 44.2359C52.1106 45.0367 53.2171 45.3846 54.2669 45.1273L62.6319 43.0903L67.7308 50.0275C68.3773 50.9074 69.4512 51.3454 70.5063 51.1932V51.1932Z" fill="url(#paint1_linear_9828_35204)"/>

</svg>
