<svg width="30" height="31" viewBox="0 0 30 31" fill="none" xmlns="http://www.w3.org/2000/svg">
<defs>
<linearGradient id="paint0_linear_9828_35599" x1="26.6554" y1="27.1469" x2="3.00401" y2="3.49549" gradientUnits="userSpaceOnUse">
<stop stop-color="#FF3786"/>
<stop offset="1" stop-color="#FFA78C"/>
</linearGradient>
<linearGradient id="paint1_linear_9828_35599" x1="16.1753" y1="16.6664" x2="12.2398" y2="12.731" gradientUnits="userSpaceOnUse">
<stop stop-color="#FFC8D2"/>
<stop offset="1" stop-color="#FFF5F6"/>
</linearGradient>
</defs>
<path d="M2.99854 17.9998C3.34178 18.3431 3.89824 18.3431 4.24148 17.9998C4.58473 17.6566 4.58473 17.1001 4.24148 16.7569C0.928887 13.4443 0.928887 8.05421 4.24148 4.74161C7.55408 1.42901 12.9442 1.42901 16.2568 4.74161C16.6 5.08485 17.1565 5.08485 17.4997 4.74161C17.843 4.39837 17.843 3.8419 17.4997 3.49866C13.5018 -0.499309 6.99651 -0.499309 2.99854 3.49866C-0.999433 7.49663 -0.999433 14.0018 2.99854 17.9998V17.9998ZM5.48449 5.98456C8.11172 3.35733 12.3866 3.35733 15.0139 5.98456C15.3571 6.3278 15.3571 6.88427 15.0139 7.22751C14.6706 7.57075 14.1142 7.57075 13.7709 7.22751C11.8291 5.28565 8.66936 5.28565 6.7275 7.22751C4.78565 9.16936 4.78565 12.3291 6.7275 14.2709C7.07074 14.6142 7.07074 15.1707 6.7275 15.5139C6.38426 15.8571 5.82779 15.8571 5.48455 15.5139C2.85721 12.8867 2.85721 8.61178 5.48449 5.98456V5.98456ZM7.97039 8.47046C9.22693 7.21391 11.2714 7.21391 12.5279 8.47046C12.8712 8.8137 12.8712 9.37016 12.5279 9.71341C12.1847 10.0566 11.6282 10.0566 11.285 9.71341C10.7138 9.14223 9.78451 9.14223 9.2134 9.71341C8.64223 10.2846 8.64223 11.2139 9.2134 11.785C9.55664 12.1282 9.55664 12.6847 9.2134 13.0279C8.87016 13.3712 8.31369 13.3712 7.97045 13.0279C6.71391 11.7715 6.71391 9.727 7.97039 8.47046V8.47046ZM12.8571 19.9862L15.2597 22.3889C17.0903 24.2195 20.0583 24.2195 21.8889 22.3889C23.7195 20.5583 23.7195 17.5904 21.8889 15.7598L19.4862 13.3571C19.1429 13.0139 19.1429 12.4574 19.4862 12.1142L23.0079 8.59245C23.3511 8.24921 23.9076 8.24921 24.2508 8.59245L26.6535 10.9951C31.1155 15.4571 31.1155 22.6915 26.6535 27.1535C22.1914 31.6156 14.9571 31.6156 10.495 27.1535L8.09238 24.7509C7.74914 24.4077 7.74914 23.8512 8.09238 23.508L11.6141 19.9862C11.9573 19.643 12.5138 19.643 12.8571 19.9862Z" fill="url(#paint0_linear_9828_35599)"/>
<path d="M16.1718 10.0424L19.4863 13.357L24.251 8.59229L20.9364 5.27776C20.5932 4.93451 20.0367 4.93451 19.6935 5.27776L16.1718 8.79948C15.8285 9.14272 15.8285 9.69918 16.1718 10.0424V10.0424ZM4.77799 21.4362C4.43475 21.093 4.43475 20.5365 4.77799 20.1933L8.29971 16.6715C8.64295 16.3283 9.19941 16.3283 9.54266 16.6715L12.8572 19.9861L8.09252 24.7507L4.77799 21.4362Z" fill="url(#paint1_linear_9828_35599)"/>
</svg>
