<svg width="100" height="101" viewBox="0 0 100 101" fill="none" xmlns="http://www.w3.org/2000/svg">
<defs>
<linearGradient id="paint0_linear_9828_35606" x1="51.6084" y1="91.9361" x2="51.6084" y2="9.06384" gradientUnits="userSpaceOnUse">
<stop stop-color="#A3D8FF"/>
<stop offset="1" stop-color="#D6EEFF"/>
</linearGradient>
<linearGradient id="paint1_linear_9828_35606" x1="51.6084" y1="91.9361" x2="51.6084" y2="9.06384" gradientUnits="userSpaceOnUse">
<stop stop-color="#A3D8FF"/>
<stop offset="1" stop-color="#D6EEFF"/>
</linearGradient>
<linearGradient id="paint2_linear_9828_35606" x1="50.0004" y1="100.5" x2="50.0004" y2="0.499939" gradientUnits="userSpaceOnUse">
<stop stop-color="#5558FF"/>
<stop offset="1" stop-color="#00C0FF"/>
</linearGradient>
<linearGradient id="paint3_linear_9828_35606" x1="50.0004" y1="100.5" x2="50.0004" y2="0.499939" gradientUnits="userSpaceOnUse">
<stop stop-color="#5558FF"/>
<stop offset="1" stop-color="#00C0FF"/>
</linearGradient>
<clipPath id="clip0_9828_35606">
<rect width="100" height="100" fill="white" transform="translate(0 0.5)"/>
</clipPath>
</defs>
<g clip-path="url(#clip0_9828_35606)">
<path d="M39.6359 36.0004C38.4916 34.856 36.6375 34.856 35.4932 36.0004C34.3488 37.1447 34.3488 38.9988 35.4932 40.1431L60.3498 64.9998C61.4943 66.1441 63.3482 66.1441 64.4926 64.9998C65.6369 63.8555 65.6369 62.0013 64.4926 60.857L39.6359 36.0004ZM50.2531 30.0437C49.1088 28.8994 47.2547 28.8994 46.1104 30.0437C44.966 31.1881 44.966 33.0422 46.1104 34.1865L66.3063 54.3824C67.4508 55.5267 69.3047 55.5267 70.449 54.3824C71.5934 53.2381 71.5934 51.384 70.449 50.2396L50.2531 30.0437ZM33.6793 46.6176C32.535 45.4732 30.6809 45.4732 29.5365 46.6176C28.3922 47.7619 28.3922 49.616 29.5365 50.7603L49.7324 70.9562C50.877 72.1006 52.7309 72.1006 53.8752 70.9562C55.0195 69.8119 55.0195 67.9578 53.8752 66.8134L33.6793 46.6176ZM8.55664 70.5843L29.9084 91.9361L34.0512 87.7933L12.6994 66.4416L8.55664 70.5843ZM70.0772 9.06384L65.9344 13.2066L87.2861 34.5584L91.4289 30.4156L70.0772 9.06384Z" fill="url(#paint0_linear_9828_35606)"/>
<path d="M94.6601 53.9361C94.6601 57.1153 92.0828 59.6925 88.9036 59.6925C85.7244 59.6925 83.1472 57.1153 83.1472 53.9361C83.1472 50.7569 85.7244 48.1796 88.9036 48.1796C92.0828 48.1796 94.6601 50.7569 94.6601 53.9361Z" fill="url(#paint1_linear_9828_35606)"/>
<path d="M99.1348 26.2178C97.9905 25.0734 96.1364 25.0734 94.992 26.2178C89.9612 31.2346 80.7651 30.4039 71.2147 29.2783C70.0807 19.7221 69.2502 10.526 74.2752 5.50096C75.4196 4.35663 75.4196 2.50253 74.2752 1.35819C73.1309 0.213855 71.2768 0.213855 70.1325 1.35819C63.404 8.08651 64.0602 18.5219 65.244 28.6299C54.7737 27.6127 43.7688 27.7271 35.4932 36.0002C27.2174 44.2736 27.0989 55.2785 28.12 65.751C18.0127 64.5693 7.5936 63.9117 0.866064 70.6394C-0.278271 71.7838 -0.278271 73.6379 0.866064 74.7822C2.0104 75.9266 3.86431 75.9266 5.00884 74.7822C10.0338 69.7572 19.2126 70.5848 28.7713 71.7217C29.9053 81.2775 30.7506 90.474 25.7256 95.499C24.5813 96.6433 24.5813 98.4974 25.7256 99.6418C26.87 100.786 28.7239 100.786 29.8684 99.6418C36.5958 92.9144 35.9262 82.481 34.7428 72.3744C45.2217 73.3976 56.2233 73.2738 64.4928 64.9998C72.7686 56.7264 72.8872 45.7215 71.8661 35.249C81.9752 36.4306 92.4043 37.0883 99.1348 30.3605C100.279 29.216 100.279 27.3621 99.1348 26.2178ZM60.3499 60.8568C53.5657 67.6435 43.8721 67.4676 34.0627 66.4293C33.0231 56.6178 32.8493 46.9271 39.636 40.143C46.4223 33.3617 56.1165 33.5289 65.9231 34.5689C66.9631 44.3812 67.137 54.0724 60.3499 60.8568Z" fill="url(#paint2_linear_9828_35606)"/>
<path d="M16.8991 46.2564C16.8991 49.4356 14.3218 52.0129 11.1426 52.0129C7.96343 52.0129 5.38618 49.4356 5.38618 46.2564C5.38618 43.0772 7.96343 40.5 11.1426 40.5C14.3218 40.5 16.8991 43.0772 16.8991 46.2564Z" fill="url(#paint3_linear_9828_35606)"/>
</g>
</svg>
