<svg width="512" height="512" viewBox="0 0 512 512" fill="none" xmlns="http://www.w3.org/2000/svg">
<defs>
<linearGradient id="paint0_linear_45_10" x1="256.025" y1="408.973" x2="256.025" y2="102.679" gradientUnits="userSpaceOnUse">
<stop stop-color="#C3FFE8"/>
<stop offset="0.9973" stop-color="#F0FFF4"/>
</linearGradient>
<linearGradient id="paint1_linear_45_10" x1="256" y1="481" x2="256" y2="31" gradientUnits="userSpaceOnUse">
<stop stop-color="#00B59C"/>
<stop offset="1" stop-color="#9CFFAC"/>
</linearGradient>
</defs>
<path d="M3.59998 121.3C15.899 98.1999 55 96.6999 120.099 116.201L138.625 158.238L98.5 141.4C51.7 128.801 32.699 132.701 30 135.099C28.5 142.599 43.599 161.799 73.299 187.899L264.699 265.6L413.5 370.901C451.601 381.4 476.6 382.301 482 376.901C482.901 373.001 475 355.901 438.999 324.101L412.914 281.949L447.7 292.301C499.9 335.799 520.701 367.899 508.4 390.7C500.786 404.936 476.49 420.9 391.901 395.799L190.6 352L64.3 219.699C62.2 217.899 60.1 216.099 58.001 214.299C10.6 173.5 -8.10102 143.2 3.59998 121.3V121.3ZM316 286C282.924 286 256 259.091 256 226C256 192.909 282.924 166 316 166C349.076 166 376 192.909 376 226C376 259.091 349.076 286 316 286ZM226 166C209.447 166 196 152.538 196 136C196 119.462 209.447 106 226 106C242.553 106 256 119.462 256 136C256 152.538 242.553 166 226 166Z" fill="url(#paint0_linear_45_10)"/>
<path d="M64.3 219.699C104.2 253.001 159.401 289.3 220.6 322C268.299 347.8 334.6 378.7 391.901 395.799C331.969 454.109 239.637 468.558 163.9 427.899C85.417 385.835 49.304 299.414 64.3 219.699V219.699ZM73.299 187.899C76.3 179.8 79.9 171.7 84.1 163.899C88.299 156.099 93.1 148.599 98.499 141.399C104.8 132.399 111.999 123.7 120.098 116.2C181.076 56.872 273.793 44.014 348.099 84.1C426.582 126.164 462.695 212.586 447.699 292.3C445.599 303.1 442.598 313.899 438.998 324.1C435.698 332.199 432.099 340.299 427.898 348.1C423.699 356.201 418.898 363.701 413.499 370.9C370.599 359.2 308.799 335.5 234.698 295.6C160.3 255.7 106.601 217.301 73.299 187.899V187.899ZM316 271C340.814 271 361 250.814 361 226C361 201.186 340.814 181 316 181C291.186 181 271 201.186 271 226C271 250.814 291.186 271 316 271ZM241 136C241 127.716 234.284 121 226 121C217.716 121 211 127.716 211 136C211 144.284 217.716 151 226 151C234.284 151 241 144.284 241 136ZM15 421H30V406C30 397.709 36.709 391 45 391C53.291 391 60 397.709 60 406V421H75C83.291 421 90 427.709 90 436C90 444.291 83.291 451 75 451H60V466C60 474.291 53.291 481 45 481C36.709 481 30 474.291 30 466V451H15C6.709 451 0 444.291 0 436C0 427.709 6.709 421 15 421ZM422 76C422 67.709 428.709 61 437 61H452V46C452 37.709 458.709 31 467 31C475.291 31 482 37.709 482 46V61H497C505.291 61 512 67.709 512 76C512 84.291 505.291 91 497 91H482V106C482 114.291 475.291 121 467 121C458.709 121 452 114.291 452 106V91H437C428.709 91 422 84.291 422 76Z" fill="url(#paint1_linear_45_10)"/>
</svg>
