<svg width="33" height="35" viewBox="0 0 33 35" fill="none" xmlns="http://www.w3.org/2000/svg">
<g opacity="0.639999">
<path d="M0.751101 18.0705L3.43237 10.8095L21.4173 0.619629L18.7144 7.89299L0.751101 18.0705Z" fill="#FDB626"/>
<path d="M29.6788 24.566L32.382 17.293L21.4173 0.619629L18.7144 7.89299L29.6788 24.566Z" fill="#F8981C"/>
<path d="M29.6788 24.566L11.7153 34.7433L0.751101 18.0705L18.7144 7.89299L29.6788 24.566Z" fill="#FAA41D"/>
<path d="M12.6004 21.8995C12.628 21.8573 12.6609 21.8133 12.699 21.7663C12.811 21.6642 13.7582 20.8465 13.8458 20.7698C14.3722 20.3092 14.7884 19.9044 15.1009 19.56C15.5184 19.1065 15.8051 18.712 15.9603 18.3817C16.0978 18.0851 16.1367 17.8582 16.0729 17.7016C15.8531 17.1629 15.5413 16.8625 15.1657 16.7943C14.8081 16.7146 14.3328 16.7979 13.7376 17.0462C12.8977 17.4066 12.0521 17.968 11.201 18.7319C11.3701 19.0723 11.5668 19.518 11.7918 20.0709C12.1868 20.9874 12.4563 21.5962 12.6004 21.8995ZM15.4232 21.626C15.3114 21.7275 15.1918 21.8405 15.0654 21.964C14.9665 22.0443 14.066 22.8362 13.9638 22.9333C13.7629 23.1117 13.5238 23.1887 13.2475 23.1657C14.1242 24.8354 14.6931 25.9737 14.9543 26.5817C17.2158 25.339 18.7643 24.1474 19.6031 23.0057C20.2057 22.2031 20.3654 21.5748 20.0823 21.1206C19.965 20.9424 19.7657 20.793 19.4847 20.6706C19.2037 20.5482 18.8522 20.4922 18.4298 20.4985C17.4157 20.5143 16.4438 20.8683 15.5142 21.5745L15.4232 21.626ZM9.21306 18.6681C9.10415 18.4609 9.08552 18.2489 9.15927 18.0354C9.23197 17.8203 9.37228 17.6618 9.57938 17.5561C9.73613 17.4805 9.90336 17.4498 10.0787 17.4659C11.0571 16.6034 12.0339 15.9672 13.0059 15.5573C13.9524 15.1491 14.8038 15.0262 15.5587 15.1872C16.5505 15.3945 17.2705 16.0379 17.7171 17.1169C17.9528 17.6626 17.9253 18.2613 17.6357 18.9119C17.9023 18.8768 18.1642 18.8526 18.4225 18.851C19.0985 18.8457 19.7195 18.9704 20.2843 19.2087C20.8469 19.4471 21.28 19.8064 21.5837 20.2881C21.9216 20.8019 22.0388 21.3755 21.9386 22.0093C21.8372 22.6422 21.5493 23.2891 21.0676 23.9435C20.0401 25.3375 18.1774 26.7153 15.5438 28.1694C15.4014 28.2478 15.2558 28.2878 15.1024 28.2853C15.0032 28.3669 14.8875 28.4324 14.7552 28.482C14.5234 28.5492 14.2979 28.5329 14.0799 28.4311C13.8622 28.3308 13.7093 28.1761 13.6282 27.9658C13.4279 27.4387 13.2043 26.9006 12.9422 26.3555C12.6823 25.8119 12.3594 25.1842 11.9749 24.4738C11.589 23.763 11.2967 23.2136 11.0989 22.8269C10.9093 22.4335 10.5952 21.7153 10.1571 20.6701C9.79121 19.8006 9.47718 19.1331 9.21306 18.6681Z" fill="white"/>
</g>
</svg>
