<svg width="61" height="63" viewBox="0 0 61 63" fill="none" xmlns="http://www.w3.org/2000/svg">
<g opacity="0.5" filter="url(#filter0_d_881_470)">
<path d="M10.7511 18.0705L13.4324 10.8094L31.4173 0.619579L28.7144 7.89294L10.7511 18.0705Z" fill="#FDB626"/>
<path d="M39.6788 24.5659L42.382 17.293L31.4173 0.619275L28.7147 7.89304L39.6788 24.5659Z" fill="#F8981C"/>
<path d="M39.6786 24.5657L21.7153 34.7433L10.7512 18.0704L28.7144 7.89285L39.6786 24.5657Z" fill="#FAA41D"/>
<path opacity="0.639999" d="M22.6004 21.8994C22.628 21.8573 22.6609 21.8132 22.699 21.7662C22.811 21.6641 23.7582 20.8464 23.8458 20.7697C24.3722 20.3091 24.7884 19.9043 25.1009 19.5599C25.5184 19.1064 25.8051 18.712 25.9603 18.3817C26.0978 18.0851 26.1367 17.8582 26.0729 17.7016C25.8531 17.1629 25.5413 16.8624 25.1657 16.7942C24.8081 16.7146 24.3328 16.7978 23.7376 17.0462C22.8977 17.4066 22.0521 17.968 21.201 18.7318C21.3701 19.0723 21.5668 19.518 21.7918 20.0708C22.1868 20.9873 22.4563 21.5962 22.6004 21.8994ZM25.4232 21.626C25.3114 21.7274 25.1918 21.8405 25.0654 21.964C24.9665 22.0443 24.066 22.8362 23.9638 22.9332C23.7629 23.1117 23.5238 23.1886 23.2475 23.1657C24.1242 24.8353 24.6931 25.9736 24.9543 26.5816C27.2158 25.3389 28.7643 24.1474 29.6031 23.0056C30.2057 22.2031 30.3654 21.5747 30.0823 21.1206C29.965 20.9423 29.7657 20.793 29.4847 20.6706C29.2037 20.5481 28.8522 20.4922 28.4298 20.4985C27.4157 20.5142 26.4438 20.8683 25.5142 21.5744L25.4232 21.626ZM19.2131 18.6681C19.1042 18.4609 19.0855 18.2489 19.1593 18.0354C19.232 17.8202 19.3723 17.6618 19.5794 17.556C19.7361 17.4805 19.9034 17.4498 20.0787 17.4658C21.0571 16.6033 22.0339 15.9671 23.0059 15.5572C23.9524 15.1491 24.8038 15.0262 25.5587 15.1871C26.5505 15.3944 27.2705 16.0379 27.7171 17.1168C27.9528 17.6625 27.9253 18.2612 27.6357 18.9118C27.9023 18.8767 28.1642 18.8526 28.4225 18.8509C29.0985 18.8456 29.7195 18.9704 30.2843 19.2086C30.8469 19.4471 31.28 19.8063 31.5837 20.2881C31.9216 20.8019 32.0388 21.3755 31.9386 22.0093C31.8372 22.6421 31.5493 23.289 31.0676 23.9435C30.0401 25.3374 28.1774 26.7153 25.5438 28.1693C25.4014 28.2478 25.2558 28.2878 25.1024 28.2852C25.0032 28.3668 24.8875 28.4324 24.7552 28.4819C24.5234 28.5492 24.2979 28.5328 24.0799 28.4311C23.8622 28.3307 23.7093 28.176 23.6282 27.9658C23.4279 27.4387 23.2043 26.9005 22.9422 26.3554C22.6823 25.8119 22.3594 25.1842 21.9749 24.4737C21.589 23.763 21.2967 23.2135 21.0989 22.8269C20.9093 22.4335 20.5952 21.7152 20.1571 20.6701C19.7912 19.8006 19.4772 19.1331 19.2131 18.6681Z" fill="white"/>
</g>
<defs>
<filter id="filter0_d_881_470" x="0.751101" y="0.619263" width="59.6309" height="62.124" filterUnits="userSpaceOnUse" color-interpolation-filters="sRGB">
<feFlood flood-opacity="0" result="BackgroundImageFix"/>
<feColorMatrix in="SourceAlpha" type="matrix" values="0 0 0 0 0 0 0 0 0 0 0 0 0 0 0 0 0 0 127 0" result="hardAlpha"/>
<feOffset dx="4" dy="14"/>
<feGaussianBlur stdDeviation="7"/>
<feComposite in2="hardAlpha" operator="out"/>
<feColorMatrix type="matrix" values="0 0 0 0 0 0 0 0 0 0 0 0 0 0 0 0 0 0 0.15 0"/>
<feBlend mode="normal" in2="BackgroundImageFix" result="effect1_dropShadow_881_470"/>
<feBlend mode="normal" in="SourceGraphic" in2="effect1_dropShadow_881_470" result="shape"/>
</filter>
</defs>
</svg>
