<svg width="66" height="98" viewBox="0 0 66 98" fill="none" xmlns="http://www.w3.org/2000/svg">
<path d="M17.5129 65.697C19.9759 66.6517 23.9848 68.9242 32.2255 68.0704C40.5334 67.21 43.2513 65.0391 44.8756 64.1163C44.8756 64.1163 41.5594 46.4666 39.9143 43.2683C36.8424 43.184 23.9959 44.4165 20.7297 45.0366C19.428 48.0825 17.7558 65.7206 17.5129 65.697Z" fill="#9159A4"/>
<path d="M4.53672 26.1491C3.71527 24.4598 4.14942 22.8226 5.5327 21.0859C6.31052 20.1096 7.5715 19.2625 8.53171 18.2447C7.39769 21.4397 4.38867 23.777 4.53672 26.1491ZM56.2545 32.7054C54.9985 32.6645 54.2121 32.8036 55.1623 27.7199C55.6229 25.2545 50.6166 26.8316 52.3589 22.8313C53.4035 20.4333 52.6976 18.492 50.2089 17.2579C49.3363 16.8257 48.5163 16.1329 47.7531 15.3365C48.9157 16.0091 50.0862 16.5608 51.183 16.9481C53.5555 17.786 54.3966 19.6402 53.3016 22.1528C52.2369 24.5969 53.6002 25.1297 54.6963 25.5575C55.5435 25.8885 56.2212 26.1504 56.0932 27.0848C55.6022 30.6649 58.4399 31.7487 58.8311 31.8314C58.1463 31.5017 56.0714 30.3313 56.4819 27.1237C56.6343 25.9356 55.6891 25.5675 54.8554 25.2415C53.7182 24.7974 52.7358 24.414 53.6671 22.2772C54.8318 19.6057 53.965 17.385 51.4073 16.4811C49.4246 15.7817 47.2789 14.2932 45.4514 12.3971C44.7298 11.2924 41.1196 10.2999 40.7087 9.5092C29.8248 8.25178 11.8039 13.7624 11.8039 13.7624C10.4278 15.777 6.65813 19.068 5.35067 20.7088C3.76712 22.6965 3.16525 24.7307 4.43087 26.7715C4.93154 27.5811 5.32706 28.3047 5.08066 28.9587C4.87181 29.512 4.19162 30.0149 3.00074 30.4956C1.82166 30.9713 1.12216 31.5353 0.864669 32.2191C0.500611 33.1834 1.0982 34.1477 1.62354 34.9978C1.99511 35.5973 2.02122 36.5364 1.86887 37.0293C1.30705 38.8467 0.651885 39.5365 1.10928 40.7691C0.904723 39.4479 1.70043 38.7007 2.22113 37.1807C2.41531 36.6134 2.45966 35.7032 1.76874 34.5945C1.27772 33.8068 0.926538 33.1502 1.23624 32.3283C1.45832 31.7401 2.08845 31.2435 3.16417 30.8096C4.47664 30.2795 5.20404 29.7258 5.45295 29.0669C5.54629 28.8179 5.54629 28.5633 5.51196 28.3064C6.25152 29.5177 6.32519 30.5421 3.84365 31.7079C-0.719235 33.8499 4.10043 36.3804 3.50463 37.6554C2.48183 39.8436 2.1707 40.2748 2.49721 41.9119C2.87092 43.7878 4.48201 44.8099 6.02836 45.0923C6.02371 44.7936 4.35398 43.1568 5.41468 40.2051C5.82666 41.7672 7.93591 45.2002 8.37435 45.4359C16.3919 49.7439 45.067 47.5451 51.4902 42.048C51.6175 41.7397 50.8022 39.6295 50.8022 38.9699C51.7198 39.4097 52.5588 41.4213 52.8671 41.1687C60.8957 34.5723 57.1575 32.7349 56.2545 32.7054Z" fill="#842419"/>
<g opacity="0.169998">
<g opacity="0.169998">
<path opacity="0.169998" d="M51.2139 95.1394C51.1951 96.0337 42.2116 96.7315 31.1484 96.6983C20.0848 96.665 11.1313 95.9133 11.1501 95.019C11.1688 94.1247 20.1527 93.4269 31.2163 93.4602C42.2795 93.4934 51.2326 94.2451 51.2139 95.1394Z" fill="#030505"/>
</g>
</g>
<path d="M23.8405 92.6985C23.6102 93.2114 19.6696 92.2969 19.7451 91.7409C20.7228 84.5316 23.6177 67.5236 23.8978 65.7238L31.5086 67.3951C31.5086 67.3951 24.9606 90.2019 23.8405 92.6985Z" fill="#FBC1A0"/>
<path d="M23.6583 93.0722C23.5772 93.2743 19.7563 91.9957 19.7452 91.7407C19.6573 89.7832 20.1958 87.0005 20.1976 86.3781L26.004 87.5376C26.004 87.5376 24.0506 92.0876 23.6583 93.0722Z" fill="#FDE8F1"/>
<path d="M37.6965 92.16C37.8378 92.6994 41.7566 92.301 41.7752 91.7407C42.0205 84.4784 42.1457 67.3253 42.1718 65.5069L34.3732 66.0559C34.3732 66.0559 37.0096 89.5316 37.6965 92.16Z" fill="#FBC1A0"/>
<path d="M37.511 92.6202C37.5568 92.832 41.958 91.9908 42.012 91.7409C42.4272 89.8196 42.0331 86.8566 42.1361 86.2412L36.2472 86.8051C36.2472 86.8051 37.2889 91.5908 37.511 92.6202Z" fill="#FDE8F1"/>
<path d="M65.9271 37.5285C64.8335 38.1805 63.0869 38.9755 60.0367 40.9274C59.6884 41.1501 60.0424 42.9151 60.3586 42.6402C62.1953 41.0465 66.6198 39.2082 65.9271 37.5285Z" fill="#E1956D"/>
<path d="M65.7062 35.6495C64.6126 36.3014 61.6655 37.3401 59.3735 39.9392C59.091 40.2599 59.6181 41.9123 59.9342 41.6378C61.771 40.0438 66.2455 37.045 65.7062 35.6495Z" fill="#E1956D"/>
<path d="M64.5036 33.7322C63.41 34.3842 58.0293 38.8535 55.7373 41.4527C55.4548 41.7733 57.5497 44.0422 58.2388 43.9605C59.767 44.5962 61.7628 42.8369 65.1681 42.737C65.7564 42.7197 65.3019 41.9343 65.0833 41.769C64.5187 41.3428 64.258 41.4387 62.6018 40.8807C61.5923 40.5408 61.5551 39.3644 61.8336 38.7317C63.463 36.2344 65.0354 34.8396 64.5036 33.7322Z" fill="#FBC1A0"/>
<path d="M58.8658 39.7138C59.4888 40.6807 60.1361 41.6072 60.8553 42.5147C54.6398 46.21 48.6758 49.7349 41.5123 51.545C41.1632 49.4458 40.6536 47.4505 40.2062 45.3675C46.8222 44.4264 52.7688 42.2595 58.8658 39.7138Z" fill="#FBC1A0"/>
<path d="M45.7009 43.6042C47.2236 47.5451 46.6965 51.1431 45.8525 51.5358C45.8525 51.5358 37.2746 56.1206 37.4223 45.5544C37.3801 45.4153 42.8342 44.7298 45.7009 43.6042Z" fill="#F2768E"/>
<path d="M41.3277 62.9102C41.3277 62.9102 45.7626 68.9944 48.8818 71.2919C45.685 72.2811 41.2805 74.5908 37.2487 75.9059C29.8256 78.3278 23.0905 75.8342 16.339 71.0625C17.7723 69.4592 20.3815 67.4811 22.2554 63.6607C22.2554 63.6607 26.8044 64.7581 33.9715 64.0013C39.4842 63.4191 41.3277 62.9102 41.3277 62.9102Z" fill="#A44B49"/>
<path d="M20.7117 65.244C22.9265 66.1731 26.7255 67.7084 34.0131 67.3077C40.1459 66.9704 42.2784 65.4169 43.6703 64.4762C43.6703 64.4762 39.9929 48.5072 38.3997 45.3225C35.3774 45.7719 26.2942 46.31 22.993 47.3404C23.1149 54.0786 21.6855 63.2881 20.7117 65.244Z" fill="#F2768E"/>
<path d="M35.5608 45.6327C32.81 45.9102 29.1043 46.2442 26.2198 46.676C26.4236 47.9939 28.8465 50.6076 31.3842 50.2511C33.9598 49.8889 35.6928 47.5447 35.5608 45.6327Z" fill="#E1956D"/>
<path d="M26.9318 43.655L27.3245 48.0437C27.4085 48.9871 29.1415 49.6241 31.1946 49.4661C33.2477 49.3077 34.8438 48.4144 34.7598 47.4707L34.3671 43.082L26.9318 43.655Z" fill="#E1956D"/>
<path d="M23.3233 59.9354C23.3612 59.9195 23.3981 59.8999 23.4335 59.8756C25.94 58.1405 26.405 55.2649 25.7541 53.1842C25.6654 52.9004 25.3453 52.7371 25.0399 52.8194C24.7316 52.8988 24.5578 53.1988 24.6469 53.483C25.1869 55.2085 24.8075 57.5892 22.7436 59.0172C22.4883 59.1942 22.4361 59.5294 22.6263 59.7664C22.7905 59.9709 23.0823 60.0356 23.3233 59.9354Z" fill="#673D81"/>
<path d="M22.9171 47.0264L26.3521 46.319C26.3879 46.3117 26.4158 46.2977 26.4501 46.2891C27.2479 48.7415 27.3541 51.412 27.3216 53.3546C27.3059 54.299 26.6614 55.1272 25.6494 55.2115C24.6337 55.2962 23.6982 54.6014 23.646 53.657C23.5991 52.8086 23.5058 49.1817 22.9171 47.0264Z" fill="#57316E"/>
<path d="M25.7471 46.4263C26.4327 48.5082 26.7241 51.5429 26.7063 52.8966C26.697 53.5601 26.2585 54.1417 25.5665 54.1995C24.8727 54.2572 24.2315 53.767 24.1943 53.1027C24.1607 52.5109 23.9165 48.564 23.5081 46.8877L25.7471 46.4263Z" fill="#9159A4"/>
<path d="M27.0601 62.719C23.2668 64.0866 17.0414 60.6536 17.7183 57.5313C18.7479 52.7815 19.308 48.5471 22.9192 48.1813L23.1002 56.2457C22.7672 58.0724 23.4832 59.5632 26.9661 60.0923C26.9736 60.6755 27.4006 62.3605 27.0601 62.719Z" fill="#FBC1A0"/>
<path d="M35.9362 58.4623C35.9752 58.4497 36.0138 58.4324 36.0506 58.4115C38.7031 56.8739 39.4223 54.0434 38.9581 51.9206C38.8948 51.6308 38.5904 51.4432 38.2786 51.5023C37.9643 51.5574 37.7643 51.8436 37.828 52.1334C38.2128 53.8943 37.6238 56.2379 35.4394 57.503C35.1694 57.66 35.0875 57.9899 35.2563 58.2409C35.4015 58.4573 35.6869 58.5436 35.9362 58.4623Z" fill="#78637D"/>
<path d="M36.1593 45.2762L39.6203 44.687C39.6561 44.6804 39.6847 44.6674 39.7194 44.6604C40.4193 47.1381 40.4193 49.8106 40.3095 51.7512C40.2565 52.6939 39.5792 53.4999 38.5646 53.5493C37.5465 53.5991 36.6388 52.8732 36.6245 51.9271C36.6113 51.078 36.6617 47.4501 36.1593 45.2762Z" fill="#57316E"/>
<path d="M39.0112 44.7734C39.6138 46.8776 39.7844 49.9199 39.7125 51.2719C39.6771 51.9348 39.2154 52.5011 38.5224 52.5353C37.8264 52.5688 37.2053 52.0573 37.1942 51.3921C37.1845 50.7992 37.0969 46.8471 36.7554 45.1574L39.0112 44.7734Z" fill="#9159A4"/>
<path d="M48.413 62.2971C49.0682 60.2679 50.4293 46.9515 50.1822 46.033C46.729 48.2428 42.0338 47.5676 42.4944 53.851L48.413 62.2971Z" fill="#CDEAEA"/>
<path d="M48.413 62.2972C49.0682 60.268 52.2549 49.1574 52.2696 48.6638C47.2708 46.6017 42.8409 50.9413 42.4944 53.8511C42.4972 53.9043 44.6963 62.187 44.8711 62.9475C45.5746 62.3995 47.4782 61.8262 48.413 62.2972Z" fill="#E0F2F7"/>
<path d="M48.2613 62.3756C48.9161 60.346 53.1929 50.0298 53.2072 49.5362C46.873 47.2779 42.9896 51.7107 42.4946 53.8508C42.4975 53.9039 44.6965 62.187 44.8714 62.9475C45.5745 62.3991 47.3264 61.9045 48.2613 62.3756Z" fill="#F4FBFD"/>
<path d="M33.5967 62.4862C32.1336 60.5347 30.4929 60.7119 30.6023 57.499C30.6231 56.8916 30.5544 50.4232 30.6127 48.5311C35.9244 48.2941 41.6492 49.759 42.8004 53.0927C42.8076 53.1452 42.2958 61.6039 42.1885 62.3783C40.9751 61.9096 39.6104 61.6371 38.1639 61.6202C36.5081 61.6002 34.9503 61.9176 33.5967 62.4862Z" fill="#CDEAEA"/>
<path d="M33.5969 62.4862C32.1339 60.5347 31.0882 58.6993 29.4947 56.8398C29.0877 56.3641 29.6467 51.7191 29.7833 50.0236C32.9579 49.0599 40.3335 48.9627 42.8007 53.0927C42.8078 53.1452 42.2961 61.6039 42.1888 62.3783C40.9754 61.9096 39.6107 61.6371 38.1641 61.6202C36.5083 61.6002 34.9505 61.9176 33.5969 62.4862Z" fill="#E0F2F7"/>
<path d="M33.5969 62.4862C32.1339 60.5347 30.1666 58.6436 28.5731 56.7837C28.1657 56.308 28.8524 52.9716 28.8635 52.1905C31.3185 50.1769 37.9191 48.7734 42.8007 53.0927C42.8078 53.1452 42.2961 61.6039 42.1888 62.3783C40.9754 61.9096 39.6107 61.6371 38.1641 61.6202C36.5083 61.6002 34.9505 61.9176 33.5969 62.4862Z" fill="#F4FBFD"/>
<path d="M48.3633 64.3398C49.6504 61.7915 52.9674 54.4876 53.9705 52.089C50.0746 49.7992 45.6812 52.0309 44.7818 53.3812C44.7846 53.4344 40.4971 64.309 40.6716 65.0695C42.4651 63.3281 47.3663 63.106 48.3633 64.3398Z" fill="#5266AF"/>
<path d="M26.97 65.0714C27.3985 62.1622 27.9428 57.1415 28.3834 54.1228C33.6103 50.6098 40.1584 52.24 41.5871 53.0785C41.5946 53.1313 38.3399 64.3611 38.2326 65.1355C32.5239 62.8646 28.3236 64.5028 26.97 65.0714Z" fill="#5266AF"/>
<path d="M40.6718 65.0695L38.1681 65.1193L41.5225 53.0626L44.985 53.134L40.6718 65.0695Z" fill="#667BBC"/>
<path d="M33.2139 57.9964C33.2371 58.1567 33.3173 58.4844 32.2408 59.0487C32.0631 59.142 33.147 58.7735 33.0587 58.9913C32.813 59.5991 32.2054 60.4352 31.0124 61.3159C28.651 63.0593 26.1655 63.0118 25.5569 62.3745C25.1284 61.926 25.7493 57.4022 28.0119 56.4861C28.2394 56.3941 27.6679 58.1411 27.9547 58.1714C28.3467 58.2128 28.7916 57.6303 29.6159 57.3282C31.4465 56.6583 32.8245 56.422 32.6553 57.0464C32.597 57.2615 29.8419 58.8674 29.8769 58.976C29.9116 59.0849 33.196 57.8759 33.2139 57.9964Z" fill="#FBC1A0"/>
<path d="M51.5586 32.2061C50.8999 36.1228 47.26 38.8756 44.3082 38.7674C41.3561 38.6585 40.4856 35.5731 40.634 31.8437C40.7835 28.1139 43.2983 25.1692 46.2505 25.287C50.2851 25.4487 52.1777 28.5248 51.5586 32.2061Z" fill="#FBC1A0"/>
<path d="M48.1343 33.3528C48.0682 34.988 46.7958 36.269 45.2909 36.2139C43.7867 36.1581 42.6198 34.7878 42.686 33.1523C42.7511 31.5171 44.0242 30.2365 45.528 30.2919C47.0329 30.3467 48.1994 31.7176 48.1343 33.3528Z" fill="#E1956D"/>
<path d="M8.35468 36.3685C9.81342 40.0814 13.9522 42.085 16.8231 41.4151C19.6934 40.7456 19.9055 37.5556 18.9857 33.929C18.0645 30.3028 14.9889 27.8966 12.1197 28.5751C8.19947 29.5035 6.98392 32.8788 8.35468 36.3685Z" fill="#FBC1A0"/>
<path d="M12.1634 36.8184C12.5671 38.4084 14.0802 39.4208 15.5433 39.0796C17.0059 38.7383 17.8646 37.1726 17.4612 35.5825C17.0578 33.9925 15.5443 32.9804 14.0813 33.3216C12.6183 33.6625 11.7596 35.2283 12.1634 36.8184Z" fill="#E1956D"/>
<path d="M9.29938 21.3238C9.15061 33.911 19.4773 41.2503 30.4065 40.1971C41.3362 39.1441 49.3869 29.2093 47.008 17.1951C45.6873 10.5246 37.7721 5.95234 27.3374 7.02287C16.4153 8.1432 9.40523 12.3722 9.29938 21.3238Z" fill="#842419"/>
<path d="M12.376 18.4634C11.6074 20.6593 14.2052 39.1205 16.7093 41.4873C19.365 43.9978 29.2618 45.6934 31.2837 45.4986C33.4499 45.2898 42.6289 42.0311 44.1449 38.844C45.9383 35.0728 45.1745 18.5006 44.2772 16.6059C41.2453 10.2052 35.2083 10.5614 27.3431 11.3193C19.9847 12.028 14.3704 12.7662 12.376 18.4634Z" fill="#FBC1A0"/>
<path d="M16.7244 36.5112C16.7354 37.2338 17.8269 37.8048 19.1615 37.7872C20.4958 37.7693 21.5691 37.1688 21.558 36.4465C21.5462 35.7238 20.4551 35.1522 19.1208 35.1701C17.7861 35.1884 16.7133 35.7885 16.7244 36.5112Z" fill="#F59598"/>
<path d="M38.8843 35.1953C39.0037 35.9093 40.1703 36.3338 41.4892 36.1426C42.8077 35.9524 43.7801 35.2188 43.6599 34.5048C43.5408 33.7911 42.3739 33.3666 41.0554 33.5571C39.7365 33.7476 38.7645 34.4812 38.8843 35.1953Z" fill="#F59598"/>
<path d="M28.6018 33.8014C28.6883 33.7931 28.7581 33.7257 28.7642 33.6398C28.8049 33.0283 29.2602 32.5921 29.9236 32.5281C30.5909 32.464 31.1402 32.8112 31.29 33.3925C31.314 33.4854 31.4127 33.5425 31.5096 33.5193C31.6065 33.4964 31.6659 33.4021 31.6419 33.3091C31.4499 32.5643 30.7282 32.1012 29.8875 32.1822C29.0513 32.2625 28.4545 32.8394 28.4019 33.6172C28.3958 33.7131 28.4716 33.7958 28.5718 33.8018L28.6018 33.8014Z" fill="#C68D75"/>
<path d="M25.3667 37.5209C25.6753 39.566 28.3063 41.4462 30.9481 41.08C33.5898 40.7132 35.6573 38.2306 35.3486 36.1855C35.0396 34.14 32.6761 35.3639 30.0136 35.5943C27.3551 35.8246 25.0577 35.4757 25.3667 37.5209Z" fill="#61130C"/>
<path d="M30.9022 39.2077C32.3298 39.0095 33.4495 39.3226 33.9656 39.5738C33.2042 40.2371 32.141 40.9617 30.9548 41.126C29.6198 41.3116 28.3649 40.8648 27.3839 40.3121C28.043 39.6661 29.6344 39.3836 30.9022 39.2077Z" fill="#D56654"/>
<path d="M26.589 35.8635C27.4094 35.5462 28.68 35.6634 30.0054 35.5489C31.5006 35.4191 32.8456 34.9019 33.8058 35.033C33.5812 36.3678 31.8975 37.1253 30.6444 37.2883C28.8098 37.5273 26.982 36.6529 26.589 35.8635Z" fill="white"/>
<path d="M16.272 24.3365C16.3932 24.319 16.5077 24.2602 16.591 24.1629C17.6585 22.9258 19.958 22.2894 21.9435 22.6871C22.2192 22.7435 22.4928 22.5729 22.5518 22.3054C22.6098 22.0395 22.4317 21.7786 22.1534 21.7225C19.7838 21.2501 17.1106 22.0126 15.7989 23.5365C15.6183 23.7463 15.649 24.0564 15.8679 24.2293C15.9848 24.3226 16.1325 24.3571 16.272 24.3365Z" fill="#783321"/>
<path d="M41.0634 22.0698C41.2043 22.0602 41.3402 21.9958 41.4331 21.8803C41.6069 21.6652 41.5658 21.3561 41.3416 21.1895C39.7112 19.9792 36.9285 19.7993 34.7263 20.7589C34.4681 20.8721 34.354 21.1639 34.4713 21.4112C34.5897 21.6595 34.8951 21.7687 35.1522 21.6555C36.9979 20.8489 39.3883 20.9827 40.7129 21.9676C40.8162 22.0446 40.9414 22.0781 41.0634 22.0698Z" fill="#783321"/>
<path d="M40.6555 11.4851C37.6543 10.2698 32.2382 9.96939 27.441 10.3481C22.2258 10.7598 16.9141 11.8804 14.2151 13.888C12.4299 15.2162 10.9726 24.1841 11.8187 23.389C12.7868 22.4795 14.3818 21.6088 16.3276 20.8397C16.4839 19.8515 17.6508 17.3244 17.8936 16.9821C17.8393 17.5016 17.8432 19.315 17.855 20.2804C20.2961 19.4525 23.1167 18.7843 25.8925 18.3733C25.7359 17.3592 26.135 15.9883 26.1314 15.9182C26.484 16.1957 27.2712 17.5677 27.6087 18.1512C28.0275 18.1051 28.4438 18.0659 28.8551 18.0334C32.6258 17.7356 35.4364 17.741 37.6983 17.973C37.271 14.8338 37.1601 13.8509 37.1594 14.0673C37.6264 14.701 38.3263 16.5825 38.5072 18.0686C39.3559 18.1828 40.1255 18.3315 40.8411 18.5101C40.8232 17.5876 40.8958 16.0869 40.9012 15.8329C41.2116 15.9783 41.9604 17.9574 42.2483 18.9194C43.4517 19.32 44.5342 19.8106 45.6536 20.3633C46.8763 20.9675 43.0748 12.4643 40.6555 11.4851Z" fill="#842419"/>
<path d="M33.8824 32.4069C33.8824 32.4069 39.5028 33.657 41.3553 30.7292C43.6126 27.1618 39.4935 24.804 37.0134 25.5203C34.7182 26.1832 32.7609 28.2897 33.8824 32.4069Z" fill="#FAFDFF"/>
<path d="M41.4023 26.3968C40.2833 25.2523 38.8861 24.9734 37.4177 25.2307C35.9168 25.4936 34.4716 26.6418 34.1287 27.7369C34.8407 26.4778 36.2068 25.9311 37.0647 25.6835C38.4308 25.2875 40.3059 25.7439 41.2282 26.8848C42.0485 27.8999 42.1233 29.5125 41.2943 30.822C42.3253 29.8956 42.5682 27.5895 41.4023 26.3968Z" fill="#783321"/>
<path d="M35.1879 28.6512C34.7878 29.9013 35.5205 31.2254 36.8248 31.6092C38.129 31.9926 39.5105 31.2902 39.9107 30.04C40.3109 28.7899 39.5781 27.4658 38.2739 27.0821C36.9696 26.6987 35.5881 27.4011 35.1879 28.6512Z" fill="#631C11"/>
<path d="M35.3553 28.2603C35.2441 28.6072 35.4476 28.9743 35.8095 29.0808C36.1714 29.1871 36.5548 28.9926 36.6656 28.6457C36.7768 28.2988 36.5734 27.9313 36.2118 27.8248C35.8499 27.7185 35.4665 27.9134 35.3553 28.2603Z" fill="white"/>
<path d="M25.6103 33.0737C25.6103 33.0737 20.2743 35.1769 17.9533 32.5748C15.1245 29.4033 18.7923 26.439 21.3607 26.762C23.7375 27.0611 26.0234 28.8367 25.6103 33.0737Z" fill="#FAFDFF"/>
<path d="M17.1771 28.3063C18.0883 27.0038 19.4201 26.5125 20.9125 26.5387C22.4381 26.5659 24.0578 27.4755 24.581 28.5028C23.6662 27.3709 22.2257 27.0426 21.3373 26.9311C19.9222 26.7515 18.1495 27.4924 17.431 28.7611C16.7923 29.8897 16.9904 31.4927 18.029 32.6565C16.8553 31.902 16.2276 29.664 17.1771 28.3063Z" fill="#783321"/>
<path d="M19.2543 29.9702C18.8541 31.2203 19.5869 32.5445 20.8908 32.9282C22.1954 33.3116 23.5769 32.6095 23.9771 31.3594C24.3772 30.109 23.6445 28.7848 22.3402 28.4011C21.036 28.0177 19.6541 28.7201 19.2543 29.9702Z" fill="#631C11"/>
<path d="M19.4215 29.5796C19.3103 29.9264 19.5138 30.2939 19.8757 30.4005C20.2376 30.5067 20.621 30.3118 20.7319 29.9649C20.8431 29.6181 20.6396 29.2506 20.2777 29.144C19.9158 29.0378 19.5328 29.2327 19.4215 29.5796Z" fill="white"/>
<path d="M23.8113 56.3951C21.4496 57.0975 17.7121 56.3603 16.1149 54.9581C17.4496 53.4345 19.7176 47.5066 23.0617 47.3522C23.1611 47.483 23.8113 56.3951 23.8113 56.3951Z" fill="#F2768E"/>
<path d="M38.0927 6.50007C38.3212 2.22326 35.8711 -0.774228 31.1298 1.48335C36.3868 3.75254 37.4908 9.6954 37.6213 9.24694C37.6542 9.13242 37.6753 9.02055 37.7054 8.9067C37.7233 8.993 37.7415 9.07931 37.7669 9.16395C37.9614 9.8159 40.2255 7.12214 46.6509 8.37989C43.3461 2.75106 39.4116 4.02673 38.0927 6.50007Z" fill="#E9687B"/>
<path d="M43.6062 12.9278C39.2414 8.41163 32.6383 6.39538 25.9422 7.53463C19.7092 8.59553 14.2963 12.1875 11.0916 17.3892C14.6203 13.0865 20.8715 10.7017 26.1113 9.90839C32.0074 9.01545 39.3104 9.65345 43.6062 12.9278Z" fill="#E9687B"/>
<path d="M41.7315 89.0476C41.6471 88.7154 37.9393 89.4696 37.2827 89.3676C37.2648 90.1351 36.7495 91.3706 36.7742 92.4143C36.791 93.1402 37.4923 93.674 38.2637 93.7972C41.2416 94.2732 49.1969 95.6265 49.5434 93.746C49.8277 92.2028 45.478 91.3467 41.7315 89.0476Z" fill="#FDE8F1"/>
<path d="M36.7902 90.3475C36.846 90.2867 37.0009 90.2821 37.1153 90.3807C37.8724 90.7687 39.0754 91.1687 40.0675 91.4406C40.4047 91.5328 40.7402 91.6039 41.0695 91.6563C41.3925 90.8052 42.2282 89.7881 42.9964 89.3729C43.1573 89.2856 43.3619 89.337 43.4556 89.4851C43.5489 89.6341 43.4946 89.8253 43.3343 89.9113C42.7421 90.2309 42.0616 91.0445 41.7562 91.7297C43.7828 91.9 45.5026 91.3891 46.1617 90.7597C48.9626 92.283 50.9749 92.6382 50.9974 93.8475C51.0289 95.5683 36.5352 93.9093 36.5352 93.9093C36.5642 92.8756 36.7548 91.2776 36.7902 90.3475Z" fill="#E9687B"/>
<path d="M36.5367 93.2613C36.5399 93.491 36.541 93.7124 36.5352 93.9092C36.5352 93.9092 48.9744 95.8953 50.8809 94.366C50.9495 94.3112 51.0275 94.0374 50.9928 93.9487C47.5607 94.6123 39.644 93.6862 36.5367 93.2613Z" fill="#CD465F"/>
<path d="M20.1554 89.0475C20.2394 88.7152 23.9476 89.4694 24.6038 89.3675C24.6221 90.135 25.137 91.3705 25.1127 92.4141C25.0956 93.1401 24.3943 93.6739 23.6229 93.797C20.645 94.273 12.69 95.6264 12.3435 93.7459C12.0592 92.2027 16.4089 91.3466 20.1554 89.0475Z" fill="#FDE8F1"/>
<path d="M25.0963 90.3475C25.0405 90.2867 24.8857 90.2821 24.7712 90.3807C24.0141 90.7687 22.8111 91.1687 21.8191 91.4406C21.4815 91.5328 21.1464 91.6039 20.817 91.6563C20.4941 90.8052 19.6583 89.7881 18.8901 89.3729C18.7292 89.2856 18.5247 89.337 18.431 89.4851C18.3376 89.6341 18.392 89.8253 18.5522 89.9113C19.1441 90.2309 19.825 91.0445 20.1304 91.7297C18.1034 91.9 16.3836 91.3891 15.7248 90.7597C12.9236 92.283 10.9116 92.6382 10.8891 93.8475C10.8573 95.5683 25.3513 93.9093 25.3513 93.9093C25.3223 92.8756 25.1317 91.2776 25.0963 90.3475Z" fill="#E9687B"/>
<path d="M25.3496 93.2613C25.3468 93.491 25.3457 93.7124 25.3514 93.9092C25.3514 93.9092 12.9119 95.8953 11.0054 94.366C10.9371 94.3112 10.8592 94.0374 10.8935 93.9487C14.326 94.6123 22.2423 93.6862 25.3496 93.2613Z" fill="#CD465F"/>
</svg>
