<svg width="119" height="118" viewBox="0 0 119 118" fill="none" xmlns="http://www.w3.org/2000/svg">
<defs>
<filter id="filter0_d_1074_834" x="0.271484" y="0" width="118" height="118" filterUnits="userSpaceOnUse" color-interpolation-filters="sRGB">
<feFlood flood-opacity="0" result="BackgroundImageFix"/>
<feColorMatrix in="SourceAlpha" type="matrix" values="0 0 0 0 0 0 0 0 0 0 0 0 0 0 0 0 0 0 127 0" result="hardAlpha"/>
<feOffset dx="2" dy="2"/>
<feGaussianBlur stdDeviation="2"/>
<feComposite in2="hardAlpha" operator="out"/>
<feColorMatrix type="matrix" values="0 0 0 0 0.0901961 0 0 0 0 0.133333 0 0 0 0 0.290196 0 0 0 0.4 0"/>
<feBlend mode="normal" in2="BackgroundImageFix" result="effect1_dropShadow_1074_834"/>
<feBlend mode="normal" in="SourceGraphic" in2="effect1_dropShadow_1074_834" result="shape"/>
</filter>
<filter id="filter1_d_1074_834" x="15.2715" y="15" width="92" height="92" filterUnits="userSpaceOnUse" color-interpolation-filters="sRGB">
<feFlood flood-opacity="0" result="BackgroundImageFix"/>
<feColorMatrix in="SourceAlpha" type="matrix" values="0 R0 0 0 0 0 0 0 0 0 0 0 0 0 0 0 0 0 127 0" result="hardAlpha"/>
<feOffset dx="4" dy="4"/>
<feGaussianBlur stdDeviation="3"/>
<feComposite in2="hardAlpha" operator="out"/>
<feColorMatrix type="matrix" values="0 0 0 0 0.933333 0 0 0 0 0.415686 0 0 0 0 0.415686 0 0 0 0.3 0"/>
<feBlend mode="normal" in2="BackgroundImageFix" result="effect1_dropShadow_1074_834"/>
<feBlend mode="normal" in="SourceGraphic" in2="effect1_dropShadow_1074_834" result="shape"/>
</filter>
<linearGradient id="paint0_linear_1074_834" x1="57.2715" y1="17" x2="57.2715" y2="97" gradientUnits="userSpaceOnUse">
<stop stop-color="#F07575"/>
<stop offset="0.0001" stop-color="#F07575"/>
<stop offset="1" stop-color="#EB4747"/>
</linearGradient>
</defs>
<g filter="url(#filter0_d_1074_834)">
<path d="M51.4546 107.758C29.3616 119.691 2.27149 105.059 2.27149 81.1914L2.27148 33.9778C2.27148 9.72084 30.1637 -5.83133 52.2609 6.1046L95.9647 29.7114C118.062 41.6473 117.612 72.0225 95.1583 84.151L51.4546 107.758Z" fill="white"/>
</g>
<g filter="url(#filter1_d_1074_834)">
<path d="M17.2715 37.4797C17.2715 21.6143 35.3952 11.8872 50.1757 19.8199L85.8225 38.9517C100.844 47.0139 101.145 67.2055 86.3621 75.1398L50.7152 94.2715C35.9318 102.206 17.2715 91.8677 17.2715 75.7432L17.2715 37.4797Z" fill="url(#paint0_linear_1074_834)"/>
</g>
<path fill-rule="evenodd" clip-rule="evenodd" d="M46.8435 40.117C45.386 40.434 43.6403 41.2384 42.2129 42.2509C41.9004 42.4727 41.4684 42.7446 41.2528 42.8554C39.7176 43.6442 39.0053 45.3838 39.4993 47.1385C39.5476 47.3106 39.5312 47.3272 39.2408 47.4C36.7596 48.0218 35.0537 50.7082 35.6369 53.0754L35.7295 53.4516L35.3485 53.9196C34.1316 55.4149 33.9287 57.4431 34.8276 59.1261L35.1023 59.6406L34.8295 60.1514C33.6789 62.3056 34.4703 65.24 36.5105 66.3848L36.8081 66.5518L36.8136 67.2849C36.8302 69.4542 38.3426 71.5579 40.3935 72.2641C40.6104 72.3387 40.7766 72.4503 40.8513 72.5714C42.8738 75.8499 48.5073 75.7979 50.4518 72.4828C50.6867 72.0824 50.6724 72.0824 50.9073 72.4828C52.8518 75.7979 58.4852 75.8499 60.5078 72.5714C60.5825 72.4503 60.7487 72.3387 60.9656 72.2641C63.0165 71.5579 64.5289 69.4542 64.5455 67.2849L64.5509 66.5518L64.8486 66.3848C66.8888 65.24 67.6802 62.3056 66.5295 60.1514L66.2568 59.6406L66.5315 59.1261C67.4304 57.4431 67.2274 55.4149 66.0106 53.9196L65.6296 53.4516L65.7222 53.0754C66.3054 50.7082 64.5995 48.0218 62.1183 47.4C61.8279 47.3272 61.8115 47.3106 61.8598 47.1385C62.3584 45.3672 61.6481 43.6568 60.0715 42.8328C59.8358 42.7095 59.347 42.4019 58.9852 42.1489C55.8331 39.9449 52.6627 39.404 51.0546 40.7959L50.6795 41.1204L50.3045 40.7959C49.4814 40.0835 48.1757 39.8274 46.8435 40.117ZM48.9457 41.3715C49.3254 41.5572 49.684 41.8978 49.8627 42.2427C50.0074 42.522 50.1265 50.2572 49.9849 50.1891C48.5079 49.4778 47.537 49.4984 47.537 50.241C47.537 50.579 47.7667 50.8033 48.1639 50.8531C48.9394 50.9503 49.5294 51.3085 49.8455 51.874L50.001 52.1522L50.0202 59.1546L50.0394 66.1571L49.5108 65.6764C48.4253 64.689 46.9262 64.1172 46.4981 64.5271C46.1185 64.8905 46.3123 65.3631 46.9321 65.5851C49.9561 66.6685 50.9989 69.9057 49.075 72.2387C47.1845 74.5313 43.4431 74.3103 41.8583 71.8123C41.6681 71.5126 41.5441 71.3982 41.3074 71.3039C39.0026 70.3863 38.0821 69.1367 38.0761 66.9173C38.0733 65.8294 38.0665 65.8125 37.5346 65.5543C35.8347 64.7296 35.0239 62.4222 35.8773 60.8385L36.0024 60.6064L36.4666 60.9076C37.4703 61.5589 39.0462 61.9367 39.6049 61.66C40.2747 61.3284 39.8862 60.5296 39.0553 60.5296C35.9987 60.5296 34.4158 56.6435 36.5783 54.4486C37.1309 53.8877 37.1635 53.777 36.9647 53.1376C35.8664 49.6068 40.3232 46.9332 43.1238 49.4426C43.8709 50.1121 44.2431 50.8623 44.3625 51.9391C44.4751 52.9542 45.6105 52.9487 45.6074 51.933C45.6003 49.6582 43.6717 47.5977 41.2632 47.2917C40.9234 47.2486 40.8968 47.2303 40.7851 46.9637C39.6292 44.2046 43.7143 42.2711 45.2833 44.8346C45.5735 45.3087 46.0345 45.4341 46.3718 45.1307C46.9582 44.6032 45.8289 43.1467 44.4462 42.6471L44.1051 42.524L44.339 42.3861C46.0072 41.4033 48.0779 40.9472 48.9457 41.3715ZM53.965 41.2492C54.7679 41.3738 56.217 41.9131 57.0201 42.3861L57.254 42.524L56.9129 42.6471C55.5396 43.1433 54.4292 44.5625 54.9773 45.121C55.2927 45.4426 55.7818 45.315 56.0758 44.8346C57.6448 42.2711 61.7299 44.2046 60.574 46.9637C60.4623 47.2303 60.4357 47.2486 60.0959 47.2917C57.6874 47.5977 55.7588 49.6582 55.7517 51.933C55.7486 52.9487 56.884 52.9542 56.9966 51.9391C57.116 50.8623 57.4882 50.1121 58.2353 49.4426C61.0359 46.9332 65.4927 49.6068 64.3944 53.1376C64.1956 53.777 64.2281 53.8877 64.7808 54.4486C66.9433 56.6435 65.3604 60.5296 62.3038 60.5296C61.4728 60.5296 61.0844 61.3284 61.7541 61.66C62.3129 61.9367 63.8888 61.5589 64.8925 60.9076L65.3567 60.6064L65.4818 60.8385C66.3352 62.4222 65.5244 64.7296 63.8245 65.5543C63.2926 65.8125 63.2858 65.8294 63.283 66.9173C63.277 69.1367 62.3565 70.3863 60.0517 71.3039C59.8149 71.3982 59.691 71.5126 59.5008 71.8123C57.6882 74.6693 53.2509 74.4428 51.7473 71.4165C51.3019 70.52 51.3236 71.1012 51.3233 60.0219L51.3231 49.9061L51.4893 49.5584C51.7993 48.9101 52.2254 48.6118 53.0584 48.4598C53.6419 48.3534 53.8221 48.2055 53.8221 47.8331C53.8221 47.1554 52.688 47.0595 51.6259 47.6474L51.3223 47.8154V45.2582C51.3223 42.5648 51.3327 42.4648 51.6616 41.9852C52.1155 41.3233 52.8759 41.0803 53.965 41.2492ZM61.6177 51.0472C61.5005 51.1666 61.4434 51.345 61.3932 51.7481C61.0123 54.8081 57.6374 56.1089 55.1083 54.1705C54.5048 53.708 54.0008 53.751 53.8631 54.2767C53.7138 54.8461 55.1584 55.9248 56.3723 56.1504C57.0056 56.268 57.0831 56.3144 57.14 56.609C57.4126 58.0219 59.0662 59.2986 60.6236 59.2986C61.7241 59.2986 61.7122 58.2232 60.6104 58.113C59.7636 58.0282 58.9762 57.5383 58.5908 56.8564C58.2802 56.3068 58.2856 56.294 58.8875 56.1462C60.7417 55.6914 62.1781 54.2459 62.5651 52.4457C62.7508 51.5817 62.6764 51.048 62.3538 50.9295C62.0993 50.836 61.7738 50.8881 61.6177 51.0472ZM40.1216 51.6608C39.804 51.9845 39.9917 53.2873 40.4978 54.2722C41.1141 55.4714 42.388 56.4401 43.769 56.7595C44.315 56.8857 44.3252 56.9074 44.0687 57.392C43.6819 58.1229 43.0011 58.5686 42.0574 58.709C40.9564 58.8727 40.864 59.9141 41.9504 59.9141C43.5391 59.9141 45.2509 58.5984 45.5002 57.1857C45.5511 56.8974 45.5727 56.8829 46.0728 56.8029C47.2099 56.621 48.7511 55.6071 48.7511 55.041C48.7511 54.4161 48.1601 54.2582 47.5714 54.7257C44.9842 56.7806 41.1989 55.2036 41.1817 52.0636C41.1789 51.5655 40.4768 51.2987 40.1216 51.6608ZM53.0722 59.9683C52.3449 60.1099 52.5025 61.145 53.2513 61.145C55.1098 61.145 56.9115 62.7695 56.9679 64.496C56.9892 65.1475 56.9992 65.1283 56.5089 65.371C54.8433 66.1957 53.4102 68.6854 53.9238 69.8624C54.2333 70.5717 55.0101 70.2568 55.1127 69.3804C55.3304 67.5215 56.6888 66.214 58.617 66.0075C59.8171 65.8789 59.9132 64.7868 58.7219 64.814L58.27 64.8244L58.2261 64.3268C58.0765 62.6323 56.9794 61.1486 55.3207 60.3975C54.6959 60.1146 53.4966 59.8857 53.0722 59.9683ZM45.6443 61.1843C45.5658 61.201 45.3247 61.2483 45.1087 61.2894C43.1731 61.6569 41.2579 63.7234 41.2509 65.452C41.2489 65.9579 41.2092 66.0005 40.7404 66.0005C39.5557 66.0005 39.6678 67.0975 40.8658 67.2283C42.7828 67.4376 44.1046 68.6887 44.3338 70.5106C44.4776 71.6543 45.6112 71.8274 45.6074 70.7051C45.6018 69.0854 44.4923 67.3545 42.968 66.5875L42.466 66.335L42.4671 65.9797C42.4726 64.1358 43.9444 62.6227 45.969 62.3797C46.686 62.2936 46.8553 62.1753 46.8553 61.7606C46.8553 61.288 46.3297 61.038 45.6443 61.1843Z" fill="white"/>
<path opacity="0.9" fill-rule="evenodd" clip-rule="evenodd" d="M61.6175 51.0473C61.5004 51.1667 61.4433 51.3451 61.3931 51.7483C61.0121 54.8083 57.6373 56.1091 55.1082 54.1707C54.5047 53.7082 54.0007 53.7512 53.8629 54.2769C53.7137 54.8463 55.1583 55.925 56.3721 56.1505C57.0055 56.2682 57.083 56.3146 57.1399 56.6092C57.4125 58.022 59.0661 59.2988 60.6234 59.2988C61.7239 59.2988 61.7121 58.2234 60.6103 58.1132C59.7634 58.0283 58.976 57.5385 58.5907 56.8566C58.2801 56.307 58.2855 56.2942 58.8874 56.1464C60.7415 55.6916 62.178 54.246 62.565 52.4459C62.7507 51.5819 62.6763 51.0482 62.3536 50.9297C62.0992 50.8362 61.7737 50.8883 61.6175 51.0473ZM40.1214 51.661C39.8039 51.9847 39.9916 53.2875 40.4977 54.2724C41.114 55.4716 42.3879 56.4403 43.7689 56.7597C44.3149 56.8859 44.3251 56.9075 44.0686 57.3922C43.6818 58.1231 43.001 58.5688 42.0573 58.7092C40.9563 58.8729 40.8639 59.9143 41.9503 59.9143C43.539 59.9143 45.2508 58.5986 45.5001 57.1859C45.551 56.8976 45.5726 56.8831 46.0727 56.8031C47.2098 56.6212 48.751 55.6073 48.751 55.0412C48.751 54.4163 48.16 54.2584 47.5712 54.7259C44.9841 56.7808 41.1988 55.2038 41.1815 52.0638C41.1788 51.5656 40.4767 51.2989 40.1214 51.661ZM53.0721 59.9685C52.3448 60.1101 52.5023 61.1452 53.2512 61.1452C55.1096 61.1452 56.9113 62.7697 56.9677 64.4962C56.989 65.1477 56.9991 65.1285 56.5088 65.3712C54.8431 66.1959 53.41 68.6856 53.9236 69.8626C54.2332 70.5719 55.01 70.257 55.1126 69.3806C55.3303 67.5217 56.6887 66.2142 58.6169 66.0077C59.817 65.8791 59.9131 64.787 58.7218 64.8142L58.2699 64.8246L58.2259 64.327C58.0764 62.6325 56.9793 61.1488 55.3205 60.3977C54.6958 60.1147 53.4965 59.8858 53.0721 59.9685ZM45.6442 61.1845C45.5657 61.2012 45.3246 61.2485 45.1086 61.2896C43.1729 61.6571 41.2578 63.7236 41.2508 65.4522C41.2487 65.9581 41.2091 66.0007 40.7403 66.0007C39.5556 66.0007 39.6676 67.0977 40.8657 67.2284C42.7827 67.4378 44.1045 68.6889 44.3337 70.5108C44.4775 71.6545 45.6111 71.8276 45.6073 70.7053C45.6017 69.0856 44.4922 67.3547 42.9679 66.5877L42.4659 66.3352L42.467 65.9798C42.4725 64.136 43.9443 62.6229 45.9688 62.3799C46.6858 62.2938 46.8552 62.1755 46.8552 61.7608C46.8552 61.2882 46.3296 61.0382 45.6442 61.1845Z" fill="white"/>
</svg>
