<svg width="118" height="118" viewBox="0 0 118 118" fill="none" xmlns="http://www.w3.org/2000/svg">
<defs>
<filter id="filter0_d_1078_372" x="0" y="0" width="118" height="118" filterUnits="userSpaceOnUse" color-interpolation-filters="sRGB">
<feFlood flood-opacity="0" result="BackgroundImageFix"/>
<feColorMatrix in="SourceAlpha" type="matrix" values="0 0 0 0 0 0 0 0 0 0 0 0 0 0 0 0 0 0 127 0" result="hardAlpha"/>
<feOffset dx="2" dy="2"/>
<feGaussianBlur stdDeviation="2"/>
<feComposite in2="hardAlpha" operator="out"/>
<feColorMatrix type="matrix" values="0 0 0 0 0.0901961 0 0 0 0 0.133333 0 0 0 0 0.290196 0 0 0 0.4 0"/>
<feBlend mode="normal" in2="BackgroundImageFix" result="effect1_dropShadow_1078_372"/>
<feBlend mode="normal" in="SourceGraphic" in2="effect1_dropShadow_1078_372" result="shape"/>
</filter>
<filter id="filter1_d_1078_372" x="16" y="16" width="84" height="84" filterUnits="userSpaceOnUse" color-interpolation-filters="sRGB">
<feFlood flood-opacity="0" result="BackgroundImageFix"/>
<feColorMatrix in="SourceAlpha" type="matrix" values="0 0 0 0 0 0 0 0 0 0 0 0 0 0 0 0 0 0 127 0" result="hardAlpha"/>
<feOffset dx="1" dy="1"/>
<feGaussianBlur stdDeviation="1"/>
<feComposite in2="hardAlpha" operator="out"/>
<feColorMatrix type="matrix" values="0 0 0 0 0.356863 0 0 0 0 0.792157 0 0 0 0 0.964706 0 0 0 0.3 0"/>
<feBlend mode="normal" in2="BackgroundImageFix" result="effect1_dropShadow_1078_372"/>
<feBlend mode="normal" in="SourceGraphic" in2="effect1_dropShadow_1078_372" result="shape"/>
</filter>
<linearGradient id="paint0_linear_1078_372" x1="57" y1="17" x2="57" y2="97" gradientUnits="userSpaceOnUse">
<stop stop-color="#F07575"/>
<stop offset="0.0001" stop-color="#F07575"/>
<stop offset="1" stop-color="#EB4747"/>
</linearGradient>
</defs>
<g filter="url(#filter0_d_1078_372)">
<path d="M51.1831 107.758C29.0901 119.691 2 105.059 2 81.1914L2 33.9778C2 9.72084 29.8922 -5.83133 51.9895 6.1046L95.6933 29.7114C117.791 41.6473 117.341 72.0225 94.8869 84.151L51.1831 107.758Z" fill="white"/>
</g>
<g filter="url(#filter1_d_1078_372)">
<path d="M17 37.4797C17 21.6143 35.1237 11.8872 49.9042 19.8199L85.551 38.9517C100.573 47.0139 100.874 67.2055 86.0906 75.1398L50.4437 94.2715C35.6603 102.206 17 91.8677 17 75.7432L17 37.4797Z" fill="url(#paint0_linear_1078_372)"/>
</g>
<path d="M40.814 63.198C40.046 63.198 39.278 63.114 38.51 62.946C37.742 62.778 37.076 62.532 36.512 62.208C36.176 62.028 35.966 61.788 35.882 61.488C35.798 61.176 35.816 60.876 35.936 60.588C36.056 60.3 36.248 60.096 36.512 59.976C36.776 59.856 37.094 59.886 37.466 60.066C37.946 60.342 38.48 60.546 39.068 60.678C39.656 60.81 40.238 60.876 40.814 60.876C41.678 60.876 42.296 60.744 42.668 60.48C43.052 60.204 43.244 59.862 43.244 59.454C43.244 59.106 43.112 58.83 42.848 58.626C42.584 58.422 42.122 58.248 41.462 58.104L39.428 57.672C37.16 57.192 36.026 56.016 36.026 54.144C36.026 53.34 36.242 52.638 36.674 52.038C37.106 51.426 37.706 50.952 38.474 50.616C39.254 50.28 40.154 50.112 41.174 50.112C41.846 50.112 42.506 50.196 43.154 50.364C43.802 50.52 44.372 50.754 44.864 51.066C45.164 51.246 45.35 51.48 45.422 51.768C45.494 52.056 45.47 52.332 45.35 52.596C45.242 52.86 45.05 53.046 44.774 53.154C44.51 53.262 44.18 53.22 43.784 53.028C43.388 52.824 42.968 52.674 42.524 52.578C42.08 52.482 41.624 52.434 41.156 52.434C40.4 52.434 39.812 52.584 39.392 52.884C38.984 53.172 38.78 53.55 38.78 54.018C38.78 54.366 38.906 54.648 39.158 54.864C39.41 55.08 39.848 55.254 40.472 55.386L42.506 55.818C44.834 56.322 45.998 57.462 45.998 59.238C45.998 60.03 45.782 60.726 45.35 61.326C44.93 61.914 44.33 62.376 43.55 62.712C42.782 63.036 41.87 63.198 40.814 63.198ZM51.7902 63.198C49.3062 63.198 48.0642 61.992 48.0642 59.58V56.196H47.3082C46.6002 56.196 46.2462 55.86 46.2462 55.188C46.2462 54.504 46.6002 54.162 47.3082 54.162H48.0642V52.794C48.0642 51.87 48.5202 51.408 49.4322 51.408C50.3322 51.408 50.7822 51.87 50.7822 52.794V54.162H52.4922C53.1882 54.162 53.5362 54.504 53.5362 55.188C53.5362 55.86 53.1882 56.196 52.4922 56.196H50.7822V59.472C50.7822 59.976 50.8962 60.354 51.1242 60.606C51.3642 60.858 51.7422 60.984 52.2582 60.984C52.4382 60.984 52.6062 60.966 52.7622 60.93C52.9182 60.894 53.0622 60.87 53.1942 60.858C53.3622 60.846 53.5002 60.9 53.6082 61.02C53.7162 61.14 53.7702 61.386 53.7702 61.758C53.7702 62.058 53.7222 62.316 53.6262 62.532C53.5302 62.736 53.3622 62.886 53.1222 62.982C52.9662 63.042 52.7502 63.09 52.4742 63.126C52.2102 63.174 51.9822 63.198 51.7902 63.198ZM57.7175 63.198C57.0575 63.198 56.4755 63.072 55.9715 62.82C55.4675 62.568 55.0655 62.226 54.7655 61.794C54.4775 61.362 54.3335 60.876 54.3335 60.336C54.3335 59.7 54.5015 59.19 54.8375 58.806C55.1735 58.422 55.7195 58.152 56.4755 57.996C57.2315 57.828 58.2335 57.744 59.4815 57.744H60.1295V57.438C60.1295 56.91 60.0095 56.538 59.7695 56.322C59.5295 56.094 59.1215 55.98 58.5455 55.98C58.2215 55.98 57.8675 56.022 57.4835 56.106C57.0995 56.178 56.6855 56.304 56.2415 56.484C55.9055 56.628 55.6235 56.64 55.3955 56.52C55.1675 56.388 55.0175 56.196 54.9455 55.944C54.8735 55.68 54.8915 55.416 54.9995 55.152C55.1195 54.888 55.3475 54.696 55.6835 54.576C56.2475 54.36 56.7755 54.21 57.2675 54.126C57.7715 54.03 58.2335 53.982 58.6535 53.982C60.0215 53.982 61.0415 54.294 61.7135 54.918C62.3855 55.53 62.7215 56.484 62.7215 57.78V61.776C62.7215 62.7 62.3015 63.162 61.4615 63.162C60.6095 63.162 60.1835 62.7 60.1835 61.776V61.668C60.0035 62.136 59.6975 62.508 59.2655 62.784C58.8455 63.06 58.3295 63.198 57.7175 63.198ZM58.3295 61.38C58.8335 61.38 59.2595 61.206 59.6075 60.858C59.9555 60.51 60.1295 60.06 60.1295 59.508V59.148H59.4995C58.5755 59.148 57.9215 59.232 57.5375 59.4C57.1535 59.556 56.9615 59.832 56.9615 60.228C56.9615 60.564 57.0755 60.84 57.3035 61.056C57.5435 61.272 57.8855 61.38 58.3295 61.38ZM66.1531 63.162C65.2171 63.162 64.7491 62.7 64.7491 61.776V55.386C64.7491 54.474 65.1931 54.018 66.0811 54.018C66.9691 54.018 67.4131 54.474 67.4131 55.386V55.71C67.8451 54.642 68.7391 54.066 70.0951 53.982C70.3951 53.958 70.6231 54.036 70.7791 54.216C70.9471 54.384 71.0371 54.666 71.0491 55.062C71.0731 55.434 70.9951 55.728 70.8151 55.944C70.6471 56.16 70.3591 56.292 69.9511 56.34L69.5371 56.376C68.1931 56.508 67.5211 57.192 67.5211 58.428V61.776C67.5211 62.7 67.0651 63.162 66.1531 63.162ZM77.0324 63.198C74.5484 63.198 73.3064 61.992 73.3064 59.58V56.196H72.5504C71.8424 56.196 71.4884 55.86 71.4884 55.188C71.4884 54.504 71.8424 54.162 72.5504 54.162H73.3064V52.794C73.3064 51.87 73.7624 51.408 74.6744 51.408C75.5744 51.408 76.0244 51.87 76.0244 52.794V54.162H77.7344C78.4304 54.162 78.7784 54.504 78.7784 55.188C78.7784 55.86 78.4304 56.196 77.7344 56.196H76.0244V59.472C76.0244 59.976 76.1384 60.354 76.3664 60.606C76.6064 60.858 76.9844 60.984 77.5004 60.984C77.6804 60.984 77.8484 60.966 78.0044 60.93C78.1604 60.894 78.3044 60.87 78.4364 60.858C78.6044 60.846 78.7424 60.9 78.8504 61.02C78.9584 61.14 79.0124 61.386 79.0124 61.758C79.0124 62.058 78.9644 62.316 78.8684 62.532C78.7724 62.736 78.6044 62.886 78.3644 62.982C78.2084 63.042 77.9924 63.09 77.7164 63.126C77.4524 63.174 77.2244 63.198 77.0324 63.198Z" fill="#FFB971"/>
<path d="M40.814 63.198C40.046 63.198 39.278 63.114 38.51 62.946C37.742 62.778 37.076 62.532 36.512 62.208C36.176 62.028 35.966 61.788 35.882 61.488C35.798 61.176 35.816 60.876 35.936 60.588C36.056 60.3 36.248 60.096 36.512 59.976C36.776 59.856 37.094 59.886 37.466 60.066C37.946 60.342 38.48 60.546 39.068 60.678C39.656 60.81 40.238 60.876 40.814 60.876C41.678 60.876 42.296 60.744 42.668 60.48C43.052 60.204 43.244 59.862 43.244 59.454C43.244 59.106 43.112 58.83 42.848 58.626C42.584 58.422 42.122 58.248 41.462 58.104L39.428 57.672C37.16 57.192 36.026 56.016 36.026 54.144C36.026 53.34 36.242 52.638 36.674 52.038C37.106 51.426 37.706 50.952 38.474 50.616C39.254 50.28 40.154 50.112 41.174 50.112C41.846 50.112 42.506 50.196 43.154 50.364C43.802 50.52 44.372 50.754 44.864 51.066C45.164 51.246 45.35 51.48 45.422 51.768C45.494 52.056 45.47 52.332 45.35 52.596C45.242 52.86 45.05 53.046 44.774 53.154C44.51 53.262 44.18 53.22 43.784 53.028C43.388 52.824 42.968 52.674 42.524 52.578C42.08 52.482 41.624 52.434 41.156 52.434C40.4 52.434 39.812 52.584 39.392 52.884C38.984 53.172 38.78 53.55 38.78 54.018C38.78 54.366 38.906 54.648 39.158 54.864C39.41 55.08 39.848 55.254 40.472 55.386L42.506 55.818C44.834 56.322 45.998 57.462 45.998 59.238C45.998 60.03 45.782 60.726 45.35 61.326C44.93 61.914 44.33 62.376 43.55 62.712C42.782 63.036 41.87 63.198 40.814 63.198ZM51.7902 63.198C49.3062 63.198 48.0642 61.992 48.0642 59.58V56.196H47.3082C46.6002 56.196 46.2462 55.86 46.2462 55.188C46.2462 54.504 46.6002 54.162 47.3082 54.162H48.0642V52.794C48.0642 51.87 48.5202 51.408 49.4322 51.408C50.3322 51.408 50.7822 51.87 50.7822 52.794V54.162H52.4922C53.1882 54.162 53.5362 54.504 53.5362 55.188C53.5362 55.86 53.1882 56.196 52.4922 56.196H50.7822V59.472C50.7822 59.976 50.8962 60.354 51.1242 60.606C51.3642 60.858 51.7422 60.984 52.2582 60.984C52.4382 60.984 52.6062 60.966 52.7622 60.93C52.9182 60.894 53.0622 60.87 53.1942 60.858C53.3622 60.846 53.5002 60.9 53.6082 61.02C53.7162 61.14 53.7702 61.386 53.7702 61.758C53.7702 62.058 53.7222 62.316 53.6262 62.532C53.5302 62.736 53.3622 62.886 53.1222 62.982C52.9662 63.042 52.7502 63.09 52.4742 63.126C52.2102 63.174 51.9822 63.198 51.7902 63.198ZM57.7175 63.198C57.0575 63.198 56.4755 63.072 55.9715 62.82C55.4675 62.568 55.0655 62.226 54.7655 61.794C54.4775 61.362 54.3335 60.876 54.3335 60.336C54.3335 59.7 54.5015 59.19 54.8375 58.806C55.1735 58.422 55.7195 58.152 56.4755 57.996C57.2315 57.828 58.2335 57.744 59.4815 57.744H60.1295V57.438C60.1295 56.91 60.0095 56.538 59.7695 56.322C59.5295 56.094 59.1215 55.98 58.5455 55.98C58.2215 55.98 57.8675 56.022 57.4835 56.106C57.0995 56.178 56.6855 56.304 56.2415 56.484C55.9055 56.628 55.6235 56.64 55.3955 56.52C55.1675 56.388 55.0175 56.196 54.9455 55.944C54.8735 55.68 54.8915 55.416 54.9995 55.152C55.1195 54.888 55.3475 54.696 55.6835 54.576C56.2475 54.36 56.7755 54.21 57.2675 54.126C57.7715 54.03 58.2335 53.982 58.6535 53.982C60.0215 53.982 61.0415 54.294 61.7135 54.918C62.3855 55.53 62.7215 56.484 62.7215 57.78V61.776C62.7215 62.7 62.3015 63.162 61.4615 63.162C60.6095 63.162 60.1835 62.7 60.1835 61.776V61.668C60.0035 62.136 59.6975 62.508 59.2655 62.784C58.8455 63.06 58.3295 63.198 57.7175 63.198ZM58.3295 61.38C58.8335 61.38 59.2595 61.206 59.6075 60.858C59.9555 60.51 60.1295 60.06 60.1295 59.508V59.148H59.4995C58.5755 59.148 57.9215 59.232 57.5375 59.4C57.1535 59.556 56.9615 59.832 56.9615 60.228C56.9615 60.564 57.0755 60.84 57.3035 61.056C57.5435 61.272 57.8855 61.38 58.3295 61.38ZM66.1531 63.162C65.2171 63.162 64.7491 62.7 64.7491 61.776V55.386C64.7491 54.474 65.1931 54.018 66.0811 54.018C66.9691 54.018 67.4131 54.474 67.4131 55.386V55.71C67.8451 54.642 68.7391 54.066 70.0951 53.982C70.3951 53.958 70.6231 54.036 70.7791 54.216C70.9471 54.384 71.0371 54.666 71.0491 55.062C71.0731 55.434 70.9951 55.728 70.8151 55.944C70.6471 56.16 70.3591 56.292 69.9511 56.34L69.5371 56.376C68.1931 56.508 67.5211 57.192 67.5211 58.428V61.776C67.5211 62.7 67.0651 63.162 66.1531 63.162ZM77.0324 63.198C74.5484 63.198 73.3064 61.992 73.3064 59.58V56.196H72.5504C71.8424 56.196 71.4884 55.86 71.4884 55.188C71.4884 54.504 71.8424 54.162 72.5504 54.162H73.3064V52.794C73.3064 51.87 73.7624 51.408 74.6744 51.408C75.5744 51.408 76.0244 51.87 76.0244 52.794V54.162H77.7344C78.4304 54.162 78.7784 54.504 78.7784 55.188C78.7784 55.86 78.4304 56.196 77.7344 56.196H76.0244V59.472C76.0244 59.976 76.1384 60.354 76.3664 60.606C76.6064 60.858 76.9844 60.984 77.5004 60.984C77.6804 60.984 77.8484 60.966 78.0044 60.93C78.1604 60.894 78.3044 60.87 78.4364 60.858C78.6044 60.846 78.7424 60.9 78.8504 61.02C78.9584 61.14 79.0124 61.386 79.0124 61.758C79.0124 62.058 78.9644 62.316 78.8684 62.532C78.7724 62.736 78.6044 62.886 78.3644 62.982C78.2084 63.042 77.9924 63.09 77.7164 63.126C77.4524 63.174 77.2244 63.198 77.0324 63.198Z" fill="white"/>
</svg>
