<svg width="110" height="110" viewBox="0 0 110 110" fill="none" xmlns="http://www.w3.org/2000/svg">
<defs>
<filter id="filter0_d_245_515" x="32.6408" y="28.9584" width="53" height="55.3653" filterUnits="userSpaceOnUse" color-interpolation-filters="sRGB">
<feFlood flood-opacity="0" result="BackgroundImageFix"/>
<feColorMatrix in="SourceAlpha" type="matrix" values="0 0 0 0 0 0 0 0 0 0 0 0 0 0 0 0 0 0 127 0" result="hardAlpha"/>
<feOffset dx="2" dy="2"/>
<feGaussianBlur stdDeviation="2"/>
<feComposite in2="hardAlpha" operator="out"/>
<feColorMatrix type="matrix" values="0 0 0 0 0.0882828 0 0 0 0 0.132424 0 0 0 0 0.291717 0 0 0 0.4 0"/>
<feBlend mode="normal" in2="BackgroundImageFix" result="effect1_dropShadow_245_515"/>
<feBlend mode="normal" in="SourceGraphic" in2="effect1_dropShadow_245_515" result="shape"/>
</filter>
<filter id="filter1_d_245_515" x="38.9805" y="36.0361" width="38" height="39.8893" filterUnits="userSpaceOnUse" color-interpolation-filters="sRGB">
<feFlood flood-opacity="0" result="BackgroundImageFix"/>
<feColorMatrix in="SourceAlpha" type="matrix" values="0 0 0 0 0 0 0 0 0 0 0 0 0 0 0 0 0 0 127 0" result="hardAlpha"/>
<feOffset dx="1" dy="1"/>
<feGaussianBlur stdDeviation="1"/>
<feComposite in2="hardAlpha" operator="out"/>
<feColorMatrix type="matrix" values="0 0 0 0 0.514268 0 0 0 0 0.82242 0 0 0 0 0.35758 0 0 0 0.3 0"/>
<feBlend mode="normal" in2="BackgroundImageFix" result="effect1_dropShadow_245_515"/>
<feBlend mode="normal" in="SourceGraphic" in2="effect1_dropShadow_245_515" result="shape"/>
</filter>
<radialGradient id="paint0_radial_245_515" cx="0" cy="0" r="1" gradientUnits="userSpaceOnUse" gradientTransform="translate(54.6408 54.641) rotate(120.999) scale(27.9836)">
<stop stop-color="white"/>
<stop stop-color="white"/>
<stop offset="0.60891" stop-color="#E1F4FF"/>
<stop offset="0.9999" stop-color="#D6F0FE"/>
<stop offset="1" stop-color="#A9DFFE"/>
</radialGradient>
<linearGradient id="paint1_linear_245_515" x1="40.7013" y1="28.7641" x2="64.7013" y2="72.7641" gradientUnits="userSpaceOnUse">
<stop stop-color="#E6F7FD"/>
<stop offset="1" stop-color="white"/>
</linearGradient>
<linearGradient id="paint2_linear_245_515" x1="39.9805" y1="29" x2="69.9805" y2="80.9615" gradientUnits="userSpaceOnUse">
<stop stop-color="#96D873"/>
<stop offset="1" stop-color="#69C837"/>
</linearGradient>
</defs>
<g filter="url(#filter0_d_245_515)">
<path d="M34.6408 45.9808C34.6408 34.4338 47.1408 27.2169 57.1408 32.9904L72.1408 41.6506C82.1408 47.4241 82.1408 61.8579 72.1408 67.6314L57.1408 76.2916C47.1408 82.0651 34.6408 74.8483 34.6408 63.3013L34.6408 45.9808Z" fill="url(#paint0_radial_245_515)"/>
<path d="M34.6408 45.9808C34.6408 34.4338 47.1408 27.2169 57.1408 32.9904L72.1408 41.6506C82.1408 47.4241 82.1408 61.8579 72.1408 67.6314L57.1408 76.2916C47.1408 82.0651 34.6408 74.8483 34.6408 63.3013L34.6408 45.9808Z" fill="url(#paint1_linear_245_515)"/>
<path d="M34.6408 45.9808C34.6408 34.4338 47.1408 27.2169 57.1408 32.9904L72.1408 41.6506C82.1408 47.4241 82.1408 61.8579 72.1408 67.6314L57.1408 76.2916C47.1408 82.0651 34.6408 74.8483 34.6408 63.3013L34.6408 45.9808Z" fill="white"/>
</g>
<g filter="url(#filter1_d_245_515)">
<path d="M39.9805 48.0526C39.9805 39.5847 49.1472 34.2924 56.4805 38.5263L68.4805 45.4545C75.8139 49.6884 75.8139 60.2731 68.4805 64.507L56.4805 71.4352C49.1472 75.6692 39.9805 70.3768 39.9805 61.909L39.9805 48.0526Z" fill="url(#paint2_linear_245_515)"/>
</g>
<path d="M53.3994 65C52.9796 65 52.6558 64.6556 52.7157 64.2667L53.7952 57.2222H49.5973C48.5419 57.2222 49.2015 56.3889 49.2255 56.3556C50.7367 53.8778 53.0036 50.2111 56.002 45.3222C56.122 45.1222 56.3619 45 56.6017 45C57.0215 45 57.3454 45.3444 57.2854 45.7333L56.2059 52.7778H60.4158C60.8955 52.7778 61.1594 52.9889 60.8955 53.5111C56.9496 59.8889 54.6587 63.6111 53.9991 64.6778C53.8791 64.8778 53.6512 65 53.3994 65Z" fill="white"/>
</svg>
