<svg width="58" height="56" viewBox="0 0 58 56" fill="none" xmlns="http://www.w3.org/2000/svg">
<defs>
<filter id="filter0_d_881_456" x="0.921082" y="0" width="56.6585" height="55.9939" filterUnits="userSpaceOnUse" color-interpolation-filters="sRGB">
<feFlood flood-opacity="0" result="BackgroundImageFix"/>
<feColorMatrix in="SourceAlpha" type="matrix" values="0 0 0 0 0 0 0 0 0 0 0 0 0 0 0 0 0 0 127 0" result="hardAlpha"/>
<feOffset dx="2" dy="2"/>
<feGaussianBlur stdDeviation="2"/>
<feComposite in2="hardAlpha" operator="out"/>
<feColorMatrix type="matrix" values="0 0 0 0 0.0882828 0 0 0 0 0.132424 0 0 0 0 0.291717 0 0 0 0.4 0"/>
<feBlend mode="normal" in2="BackgroundImageFix" result="effect1_dropShadow_881_456"/>
<feBlend mode="normal" in="SourceGraphic" in2="effect1_dropShadow_881_456" result="shape"/>
</filter>
<filter id="filter1_d_881_456" x="8.11324" y="7" width="40.7602" height="40.3502" filterUnits="userSpaceOnUse" color-interpolation-filters="sRGB">
<feFlood flood-opacity="0" result="BackgroundImageFix"/>
<feColorMatrix in="SourceAlpha" type="matrix" values="0 0 0 0 0 0 0 0 0 0 0 0 0 0 0 0 0 0 127 0" result="hardAlpha"/>
<feOffset dx="1" dy="1"/>
<feGaussianBlur stdDeviation="1"/>
<feComposite in2="hardAlpha" operator="out"/>
<feColorMatrix type="matrix" values="0 0 0 0 0.356863 0 0 0 0 0.792157 0 0 0 0 0.964706 0 0 0 0.3 0"/>
<feBlend mode="normal" in2="BackgroundImageFix" result="effect1_dropShadow_881_456"/>
<feBlend mode="normal" in="SourceGraphic" in2="effect1_dropShadow_881_456" result="shape"/>
</filter>
<radialGradient id="paint0_radial_881_456" cx="0" cy="0" r="1" gradientUnits="userSpaceOnUse" gradientTransform="translate(27.2503 25.9969) rotate(151.331) scale(16.9661 16.8418)">
<stop stop-color="white"/>
<stop stop-color="white"/>
<stop offset="0.60891" stop-color="#E1F4FF"/>
<stop offset="0.9999" stop-color="#D6F0FE"/>
<stop offset="1" stop-color="#A9DFFE"/>
</radialGradient>
<linearGradient id="paint1_linear_881_456" x1="27.7774" y1="8.37129" x2="27.0582" y2="38.431" gradientUnits="userSpaceOnUse">
<stop stop-color="#E6F7FD"/>
<stop offset="1" stop-color="white"/>
</linearGradient>
<linearGradient id="paint2_linear_881_456" x1="27.4934" y1="8" x2="27.4934" y2="44.3502" gradientUnits="userSpaceOnUse">
<stop stop-color="#CB8CF2"/>
<stop offset="1" stop-color="#AC47EB"/>
</linearGradient>
</defs>
<g filter="url(#filter0_d_881_456)">
<path d="M2.92108 16.5032C2.92108 5.26769 15.775 -1.62074 26.2578 3.99702L43.4596 13.2155C54.1136 18.925 54.3271 33.2242 43.8422 38.8431L26.6404 48.0616C16.1556 53.6805 2.92108 46.3593 2.92108 34.9403L2.92108 16.5032Z" fill="url(#paint0_radial_881_456)"/>
<path d="M2.92108 16.5032C2.92108 5.26769 15.775 -1.62074 26.2578 3.99702L43.4596 13.2155C54.1136 18.925 54.3271 33.2242 43.8422 38.8431L26.6404 48.0616C16.1556 53.6805 2.92108 46.3593 2.92108 34.9403L2.92108 16.5032Z" fill="url(#paint1_linear_881_456)"/>
<path d="M2.92108 16.5032C2.92108 5.26769 15.775 -1.62074 26.2578 3.99702L43.4596 13.2155C54.1136 18.925 54.3271 33.2242 43.8422 38.8431L26.6404 48.0616C16.1556 53.6805 2.92108 46.3593 2.92108 34.9403L2.92108 16.5032Z" fill="white"/>
</g>
<g filter="url(#filter1_d_881_456)">
<path d="M9.11324 18.6357C9.11324 10.3963 18.5394 5.34479 26.2268 9.46448L39.9188 16.8021C47.7318 20.989 47.8883 31.4751 40.1994 35.5956L26.5074 42.9332C18.8185 47.0537 9.11324 41.6848 9.11324 33.3109L9.11324 18.6357Z" fill="url(#paint2_linear_881_456)"/>
</g>
<path d="M28.8367 18.037C29.2239 18.1246 29.3787 18.2215 29.8724 18.6904L30.3273 19.1249L30.5661 19.0718C30.9113 18.9905 31.634 18.9749 31.9792 19.0374C32.5697 19.1437 33.0859 19.3625 33.5279 19.6877C33.6602 19.7846 34.028 20.1159 34.3442 20.4223L34.9153 20.9788L34.5152 21.3664L34.1151 21.754L34.2797 21.9385C34.925 22.645 35.0508 23.5016 34.6346 24.3394C34.4991 24.6145 34.4539 24.6676 34.0474 25.0615C33.6441 25.4523 33.5828 25.4992 33.3021 25.6305C32.6632 25.9337 32.0276 25.9462 31.4082 25.668C31.1759 25.5648 30.8726 25.3585 30.7209 25.2022L30.6435 25.1178L30.237 25.5117L29.8304 25.9056L29.2013 25.2866C28.4431 24.5426 28.214 24.2331 27.9882 23.6548C27.801 23.1702 27.7268 22.4262 27.8204 21.9166C27.8397 21.8009 27.8494 21.704 27.843 21.6978C27.8365 21.6915 27.1138 22.3793 26.2362 23.2296L24.6391 24.777L24.6843 24.8771C24.9166 25.4367 24.9134 26.0963 24.6714 26.5996C24.6294 26.6903 24.5649 26.8122 24.5262 26.8747L24.4552 26.9841L26.1491 29.2037L27.8397 31.4201L28.8528 31.4389C29.8337 31.4576 29.8756 31.4608 30.1273 31.5389C30.4564 31.6452 30.7177 31.8078 30.9694 32.0704C31.1791 32.2892 31.3598 32.6081 31.4275 32.8863C31.4921 33.1427 31.4824 33.4678 31.4049 33.6116C31.3178 33.7741 31.1436 33.9242 30.9887 33.9648C30.8177 34.0117 23.3969 34.0117 23.2259 33.9648C23.1582 33.9492 23.0517 33.8898 22.9872 33.8335C22.8226 33.6929 22.7517 33.5272 22.7517 33.2677C22.7484 32.508 23.3098 31.7859 24.0906 31.5421C24.3261 31.467 24.4133 31.4576 25.0327 31.4451C25.4102 31.4358 25.72 31.4233 25.72 31.417C25.72 31.4108 25.1134 30.6105 24.3713 29.6351L23.0194 27.8657L22.6355 27.8563C22.3419 27.8532 22.1967 27.8344 22.0257 27.7813C21.1223 27.4999 20.5222 26.7497 20.4706 25.8399C20.448 25.4523 20.5125 25.1584 20.6996 24.7927C20.9965 24.2143 21.5224 23.8079 22.1677 23.6641C22.4355 23.6016 22.9356 23.6047 23.1711 23.6673L23.3485 23.7141L25.1166 22.001L26.8847 20.2879L26.8299 20.1503C26.7427 19.9346 26.7524 19.3782 26.846 19.1343C27.1428 18.3403 28.0204 17.8557 28.8367 18.037ZM32.3664 23.4516L31.3501 24.4363L31.4953 24.5613C31.8954 24.9083 32.4019 24.9802 32.8536 24.7583C33.0795 24.6489 33.6183 24.1299 33.7312 23.9173C33.899 23.5891 33.9054 23.1921 33.7473 22.8888C33.6796 22.7575 33.4408 22.4637 33.4053 22.4637C33.3924 22.4637 32.9246 22.9076 32.3664 23.4516ZM22.1999 24.924C21.9999 25.0303 21.8031 25.2616 21.745 25.4492C21.5579 26.0681 22.016 26.6684 22.671 26.6652C23.0614 26.6621 23.3485 26.4871 23.526 26.1463C23.7131 25.7774 23.6421 25.3866 23.3356 25.0865C23.1066 24.8646 22.9485 24.8052 22.6194 24.8177C22.4161 24.8271 22.3419 24.8458 22.1999 24.924Z" fill="white"/>
</svg>
