<svg width="56" height="56" viewBox="0 0 56 56" fill="none" xmlns="http://www.w3.org/2000/svg">
<defs>
<filter id="filter0_d_881_379" x="0.271484" y="0" width="55.1463" height="55.9939" filterUnits="userSpaceOnUse" color-interpolation-filters="sRGB">
<feFlood flood-opacity="0" result="BackgroundImageFix"/>
<feColorMatrix in="SourceAlpha" type="matrix" values="0 0 0 0 0 0 0 0 0 0 0 0 0 0 0 0 0 0 127 0" result="hardAlpha"/>
<feOffset dx="2" dy="2"/>
<feGaussianBlur stdDeviation="2"/>
<feComposite in2="hardAlpha" operator="out"/>
<feColorMatrix type="matrix" values="0 0 0 0 0.0882828 0 0 0 0 0.132424 0 0 0 0 0.291717 0 0 0 0.4 0"/>
<feBlend mode="normal" in2="BackgroundImageFix" result="effect1_dropShadow_881_379"/>
<feBlend mode="normal" in="SourceGraphic" in2="effect1_dropShadow_881_379" result="shape"/>
</filter>
<filter id="filter1_d_881_379" x="7.27145" y="7" width="39.6178" height="40.3502" filterUnits="userSpaceOnUse" color-interpolation-filters="sRGB">
<feFlood flood-opacity="0" result="BackgroundImageFix"/>
<feColorMatrix in="SourceAlpha" type="matrix" values="0 0 0 0 0 0 0 0 0 0 0 0 0 0 0 0 0 0 127 0" result="hardAlpha"/>
<feOffset dx="1" dy="1"/>
<feGaussianBlur stdDeviation="1"/>
<feComposite in2="hardAlpha" operator="out"/>
<feColorMatrix type="matrix" values="0 0 0 0 0.933333 0 0 0 0 0.411765 0 0 0 0 0.411765 0 0 0 0.5 0"/>
<feBlend mode="normal" in2="BackgroundImageFix" result="effect1_dropShadow_881_379"/>
<feBlend mode="normal" in="SourceGraphic" in2="effect1_dropShadow_881_379" result="shape"/>
</filter>
<radialGradient id="paint0_radial_881_379" cx="0" cy="0" r="1" gradientUnits="userSpaceOnUse" gradientTransform="translate(25.8446 25.9969) rotate(150.564) scale(16.5617 16.7169)">
<stop stop-color="white"/>
<stop stop-color="white"/>
<stop offset="0.60891" stop-color="#E1F4FF"/>
<stop offset="0.9999" stop-color="#D6F0FE"/>
<stop offset="1" stop-color="#A9DFFE"/>
</radialGradient>
<linearGradient id="paint1_linear_881_379" x1="26.3553" y1="8.37129" x2="25.6131" y2="38.4299" gradientUnits="userSpaceOnUse">
<stop stop-color="#E6F7FD"/>
<stop offset="1" stop-color="white"/>
</linearGradient>
<linearGradient id="paint2_linear_881_379" x1="26.0804" y1="8" x2="26.0804" y2="44.3502" gradientUnits="userSpaceOnUse">
<stop stop-color="#F07575"/>
<stop offset="0.0001" stop-color="#F07575"/>
<stop offset="1" stop-color="#EB4747"/>
</linearGradient>
</defs>
<g filter="url(#filter0_d_881_379)">
<path d="M2.27148 16.5032C2.27148 5.26769 14.7259 -1.62074 24.8829 3.99702L41.5502 13.2155C51.873 18.925 52.0799 33.2242 41.9209 38.8431L25.2537 48.0616C15.0947 53.6805 2.27148 46.3593 2.27148 34.9403L2.27148 16.5032Z" fill="url(#paint0_radial_881_379)"/>
<path d="M2.27148 16.5032C2.27148 5.26769 14.7259 -1.62074 24.8829 3.99702L41.5502 13.2155C51.873 18.925 52.0799 33.2242 41.9209 38.8431L25.2537 48.0616C15.0947 53.6805 2.27148 46.3593 2.27148 34.9403L2.27148 16.5032Z" fill="url(#paint1_linear_881_379)"/>
<path d="M2.27148 16.5032C2.27148 5.26769 14.7259 -1.62074 24.8829 3.99702L41.5502 13.2155C51.873 18.925 52.0799 33.2242 41.9209 38.8431L25.2537 48.0616C15.0947 53.6805 2.27148 46.3593 2.27148 34.9403L2.27148 16.5032Z" fill="white"/>
</g>
<g filter="url(#filter1_d_881_379)">
<path d="M8.27145 18.6357C8.27145 10.3963 17.4047 5.34479 24.8532 9.46448L38.1197 16.8021C45.6898 20.989 45.8415 31.4751 38.3916 35.5956L25.1251 42.9332C17.6751 47.0537 8.27145 41.6848 8.27145 33.3109L8.27145 18.6357Z" fill="url(#paint2_linear_881_379)"/>
</g>
<path fill-rule="evenodd" clip-rule="evenodd" d="M31.3122 21.0206C31.1121 21.0511 30.9358 21.1126 30.7119 21.2299C30.608 21.2844 29.4208 22.5086 26.5945 25.4759L22.623 29.6452L20.8564 27.7967C18.7954 25.6402 18.761 25.6123 18.0946 25.5637C16.7027 25.4621 15.7834 27.1041 16.5483 28.3254C16.7517 28.6502 21.5633 33.676 21.7763 33.7862C22.3772 34.097 23.0597 34.0673 23.5708 33.7081C23.8931 33.4817 32.9461 23.9223 33.0611 23.6871C33.7256 22.3274 32.727 20.8048 31.3122 21.0206Z" fill="white"/>
</svg>
