<svg width="246" height="246" viewBox="0 0 246 246" fill="none" xmlns="http://www.w3.org/2000/svg">
<defs>
<filter id="filter0_d_245_503" x="75.9423" y="66.3779" width="111" height="117.129" filterUnits="userSpaceOnUse" color-interpolation-filters="sRGB">
<feFlood flood-opacity="0" result="BackgroundImageFix"/>
<feColorMatrix in="SourceAlpha" type="matrix" values="0 0 0 0 0 0 0 0 0 0 0 0 0 0 0 0 0 0 127 0" result="hardAlpha"/>
<feOffset dx="2" dy="2"/>
<feGaussianBlur stdDeviation="2"/>
<feComposite in2="hardAlpha" operator="out"/>
<feColorMatrix type="matrix" values="0 0 0 0 0.0901961 0 0 0 0 0.133333 0 0 0 0 0.290196 0 0 0 0.4 0"/>
<feBlend mode="normal" in2="BackgroundImageFix" result="effect1_dropShadow_245_503"/>
<feBlend mode="normal" in="SourceGraphic" in2="effect1_dropShadow_245_503" result="shape"/>
</filter>
<filter id="filter1_d_245_503" x="90.9613" y="83.6112" width="82" height="86.7007" filterUnits="userSpaceOnUse" color-interpolation-filters="sRGB">
<feFlood flood-opacity="0" result="BackgroundImageFix"/>
<feColorMatrix in="SourceAlpha" type="matrix" values="0 0 0 0 0 0 0 0 0 0 0 0 0 0 0 0 0 0 127 0" result="hardAlpha"/>
<feOffset dx="4" dy="4"/>
<feGaussianBlur stdDeviation="3"/>
<feComposite in2="hardAlpha" operator="out"/>
<feColorMatrix type="matrix" values="0 0 0 0 0.933333 0 0 0 0 0.415686 0 0 0 0 0.415686 0 0 0 0.3 0"/>
<feBlend mode="normal" in2="BackgroundImageFix" result="effect1_dropShadow_245_503"/>
<feBlend mode="normal" in="SourceGraphic" in2="effect1_dropShadow_245_503" result="shape"/>
</filter>
<linearGradient id="paint0_linear_245_503" x1="92.9613" y1="71" x2="152.961" y2="174.923" gradientUnits="userSpaceOnUse">
<stop stop-color="#F07575"/>
<stop offset="0.0001" stop-color="#F07575"/>
<stop offset="1" stop-color="#EB4747"/>
</linearGradient>
</defs>
<g filter="url(#filter0_d_245_503)">
<path d="M125.942 173.172C104.609 185.489 77.9423 170.093 77.9423 145.459L77.9423 100.426C77.9423 75.792 104.609 60.396 125.942 72.7128L164.942 95.2295C186.276 107.546 186.276 138.338 164.942 150.655L125.942 173.172Z" fill="white"/>
</g>
<g filter="url(#filter1_d_245_503)">
<path d="M92.9613 105.641C92.9613 90.245 109.628 80.6225 122.961 88.3205L152.961 105.641C166.295 113.339 166.295 132.584 152.961 140.282L122.961 157.603C109.628 165.301 92.9613 155.678 92.9613 140.282L92.9613 105.641Z" fill="url(#paint0_linear_245_503)"/>
</g>
<path fill-rule="evenodd" clip-rule="evenodd" d="M119.044 105.117C117.647 105.434 115.975 106.238 114.608 107.251C114.308 107.473 113.894 107.745 113.688 107.855C112.217 108.644 111.535 110.384 112.008 112.139C112.054 112.311 112.039 112.327 111.76 112.4C109.383 113.022 107.749 115.708 108.308 118.075L108.397 118.452L108.032 118.92C106.866 120.415 106.671 122.443 107.533 124.126L107.796 124.641L107.534 125.151C106.432 127.306 107.19 130.24 109.145 131.385L109.43 131.552L109.435 132.285C109.451 134.454 110.9 136.558 112.865 137.264C113.072 137.339 113.232 137.45 113.303 137.571C115.241 140.85 120.638 140.798 122.5 137.483C122.725 137.082 122.712 137.082 122.937 137.483C124.799 140.798 130.196 140.85 132.134 137.571C132.205 137.45 132.365 137.339 132.572 137.264C134.537 136.558 135.986 134.454 136.002 132.285L136.007 131.552L136.292 131.385C138.247 130.24 139.005 127.306 137.902 125.151L137.641 124.641L137.904 124.126C138.765 122.443 138.571 120.415 137.405 118.92L137.04 118.452L137.129 118.075C137.688 115.708 136.054 113.022 133.677 112.4C133.398 112.327 133.383 112.311 133.429 112.139C133.907 110.367 133.226 108.657 131.716 107.833C131.49 107.71 131.022 107.402 130.675 107.149C127.655 104.945 124.618 104.404 123.078 105.796L122.718 106.12L122.359 105.796C121.571 105.083 120.32 104.827 119.044 105.117ZM121.057 106.371C121.421 106.557 121.765 106.898 121.936 107.243C122.075 107.522 122.189 115.257 122.053 115.189C120.638 114.478 119.708 114.498 119.708 115.241C119.708 115.579 119.928 115.803 120.309 115.853C121.051 115.95 121.617 116.308 121.919 116.874L122.068 117.152L122.087 124.155L122.105 131.157L121.599 130.676C120.559 129.689 119.123 129.117 118.713 129.527C118.349 129.891 118.535 130.363 119.128 130.585C122.025 131.668 123.024 134.906 121.181 137.239C119.37 139.531 115.786 139.31 114.268 136.812C114.086 136.513 113.967 136.398 113.74 136.304C111.532 135.386 110.65 134.137 110.645 131.917C110.642 130.829 110.635 130.812 110.126 130.554C108.497 129.73 107.721 127.422 108.538 125.838L108.658 125.606L109.103 125.908C110.064 126.559 111.574 126.937 112.109 126.66C112.751 126.328 112.379 125.53 111.583 125.53C108.654 125.53 107.138 121.644 109.21 119.449C109.739 118.888 109.77 118.777 109.58 118.138C108.528 114.607 112.797 111.933 115.48 114.443C116.196 115.112 116.552 115.862 116.667 116.939C116.775 117.954 117.862 117.949 117.859 116.933C117.853 114.658 116.005 112.598 113.698 112.292C113.372 112.249 113.347 112.23 113.24 111.964C112.132 109.205 116.046 107.271 117.549 109.835C117.827 110.309 118.269 110.434 118.592 110.131C119.153 109.603 118.072 108.147 116.747 107.647L116.42 107.524L116.644 107.386C118.242 106.403 120.226 105.947 121.057 106.371ZM125.866 106.249C126.635 106.374 128.023 106.913 128.793 107.386L129.017 107.524L128.69 107.647C127.374 108.143 126.311 109.562 126.836 110.121C127.138 110.443 127.606 110.315 127.888 109.835C129.391 107.271 133.305 109.205 132.197 111.964C132.09 112.23 132.065 112.249 131.739 112.292C129.432 112.598 127.584 114.658 127.578 116.933C127.575 117.949 128.662 117.954 128.77 116.939C128.884 115.862 129.241 115.112 129.957 114.443C132.64 111.933 136.909 114.607 135.857 118.138C135.667 118.777 135.698 118.888 136.227 119.449C138.299 121.644 136.782 125.53 133.854 125.53C133.058 125.53 132.686 126.328 133.328 126.66C133.863 126.937 135.373 126.559 136.334 125.908L136.779 125.606L136.899 125.838C137.716 127.422 136.94 129.73 135.311 130.554C134.802 130.812 134.795 130.829 134.792 131.917C134.787 134.137 133.905 135.386 131.697 136.304C131.47 136.398 131.351 136.513 131.169 136.812C129.433 139.669 125.182 139.443 123.741 136.416C123.315 135.52 123.335 136.101 123.335 125.022L123.335 114.906L123.494 114.558C123.791 113.91 124.199 113.612 124.997 113.46C125.556 113.353 125.729 113.205 125.729 112.833C125.729 112.155 124.643 112.059 123.625 112.647L123.334 112.815V110.258C123.334 107.565 123.344 107.465 123.659 106.985C124.094 106.323 124.823 106.08 125.866 106.249ZM133.197 116.047C133.085 116.167 133.03 116.345 132.982 116.748C132.617 119.808 129.384 121.109 126.961 119.17C126.383 118.708 125.9 118.751 125.768 119.277C125.625 119.846 127.009 120.925 128.172 121.15C128.779 121.268 128.853 121.314 128.907 121.609C129.169 123.022 130.753 124.299 132.245 124.299C133.299 124.299 133.288 123.223 132.232 123.113C131.421 123.028 130.666 122.538 130.297 121.856C130 121.307 130.005 121.294 130.582 121.146C132.358 120.691 133.734 119.246 134.105 117.446C134.283 116.582 134.211 116.048 133.902 115.929C133.658 115.836 133.347 115.888 133.197 116.047ZM112.604 116.661C112.3 116.984 112.48 118.287 112.965 119.272C113.555 120.471 114.775 121.44 116.098 121.76C116.621 121.886 116.631 121.907 116.385 122.392C116.015 123.123 115.363 123.569 114.459 123.709C113.404 123.873 113.315 124.914 114.356 124.914C115.878 124.914 117.518 123.598 117.757 122.186C117.805 121.897 117.826 121.883 118.305 121.803C119.395 121.621 120.871 120.607 120.871 120.041C120.871 119.416 120.305 119.258 119.741 119.726C117.262 121.781 113.636 120.204 113.62 117.064C113.617 116.565 112.944 116.299 112.604 116.661ZM125.011 124.968C124.314 125.11 124.465 126.145 125.182 126.145C126.963 126.145 128.689 127.769 128.743 129.496C128.763 130.147 128.773 130.128 128.303 130.371C126.707 131.196 125.334 133.685 125.826 134.862C126.123 135.572 126.867 135.257 126.965 134.38C127.174 132.521 128.475 131.214 130.322 131.007C131.472 130.879 131.564 129.787 130.423 129.814L129.99 129.824L129.948 129.327C129.805 127.632 128.754 126.149 127.165 125.397C126.566 125.115 125.417 124.886 125.011 124.968ZM117.895 126.184C117.82 126.201 117.589 126.248 117.382 126.289C115.527 126.657 113.693 128.723 113.686 130.452C113.684 130.958 113.646 131 113.197 131C112.062 131 112.169 132.097 113.317 132.228C115.154 132.438 116.42 133.689 116.639 135.511C116.777 136.654 117.863 136.827 117.859 135.705C117.854 134.085 116.791 132.354 115.331 131.587L114.85 131.335L114.851 130.98C114.856 129.136 116.266 127.623 118.206 127.38C118.893 127.294 119.055 127.175 119.055 126.761C119.055 126.288 118.551 126.038 117.895 126.184Z" fill="white"/>
<path opacity="0.9" fill-rule="evenodd" clip-rule="evenodd" d="M133.197 116.047C133.085 116.167 133.03 116.345 132.982 116.748C132.617 119.808 129.384 121.109 126.961 119.171C126.383 118.708 125.9 118.751 125.768 119.277C125.625 119.846 127.009 120.925 128.172 121.151C128.779 121.268 128.853 121.315 128.907 121.609C129.169 123.022 130.753 124.299 132.245 124.299C133.299 124.299 133.287 123.223 132.232 123.113C131.421 123.028 130.666 122.538 130.297 121.857C130 121.307 130.005 121.294 130.581 121.146C132.358 120.692 133.734 119.246 134.105 117.446C134.282 116.582 134.211 116.048 133.902 115.93C133.658 115.836 133.346 115.888 133.197 116.047ZM112.604 116.661C112.3 116.985 112.48 118.287 112.964 119.272C113.555 120.472 114.775 121.44 116.098 121.76C116.621 121.886 116.631 121.908 116.385 122.392C116.015 123.123 115.363 123.569 114.458 123.709C113.404 123.873 113.315 124.914 114.356 124.914C115.878 124.914 117.518 123.599 117.757 122.186C117.805 121.898 117.826 121.883 118.305 121.803C119.394 121.621 120.871 120.607 120.871 120.041C120.871 119.416 120.305 119.258 119.741 119.726C117.262 121.781 113.636 120.204 113.62 117.064C113.617 116.566 112.944 116.299 112.604 116.661ZM125.01 124.968C124.314 125.11 124.465 126.145 125.182 126.145C126.962 126.145 128.688 127.77 128.742 129.496C128.763 130.148 128.772 130.128 128.303 130.371C126.707 131.196 125.334 133.686 125.826 134.863C126.123 135.572 126.867 135.257 126.965 134.381C127.174 132.522 128.475 131.214 130.322 131.008C131.472 130.879 131.564 129.787 130.423 129.814L129.99 129.825L129.948 129.327C129.805 127.632 128.753 126.149 127.164 125.398C126.566 125.115 125.417 124.886 125.01 124.968ZM117.895 126.184C117.819 126.201 117.589 126.248 117.382 126.29C115.527 126.657 113.693 128.724 113.686 130.452C113.684 130.958 113.646 131.001 113.197 131.001C112.062 131.001 112.169 132.098 113.317 132.228C115.153 132.438 116.42 133.689 116.639 135.511C116.777 136.654 117.863 136.828 117.859 135.705C117.854 134.086 116.791 132.355 115.331 131.588L114.85 131.335L114.851 130.98C114.856 129.136 116.266 127.623 118.206 127.38C118.893 127.294 119.055 127.175 119.055 126.761C119.055 126.288 118.551 126.038 117.895 126.184Z" fill="white"/>
</svg>
