<svg width="56" height="57" viewBox="0 0 56 57" fill="none" xmlns="http://www.w3.org/2000/svg">
<defs>
<filter id="filter0_d_941_294" x="-3.05176e-05" y="0.503082" width="55.1463" height="55.9939" filterUnits="userSpaceOnUse" color-interpolation-filters="sRGB">
<feFlood flood-opacity="0" result="BackgroundImageFix"/>
<feColorMatrix in="SourceAlpha" type="matrix" values="0 0 0 0 0 0 0 0 0 0 0 0 0 0 0 0 0 0 127 0" result="hardAlpha"/>
<feOffset dx="2" dy="2"/>
<feGaussianBlur stdDeviation="2"/>
<feComposite in2="hardAlpha" operator="out"/>
<feColorMatrix type="matrix" values="0 0 0 0 0.0882828 0 0 0 0 0.132424 0 0 0 0 0.291717 0 0 0 0.4 0"/>
<feBlend mode="normal" in2="BackgroundImageFix" result="effect1_dropShadow_941_294"/>
<feBlend mode="normal" in="SourceGraphic" in2="effect1_dropShadow_941_294" result="shape"/>
</filter>
<filter id="filter1_d_941_294" x="6.57394" y="6.50308" width="39.6178" height="40.3502" filterUnits="userSpaceOnUse" color-interpolation-filters="sRGB">
<feFlood flood-opacity="0" result="BackgroundImageFix"/>
<feColorMatrix in="SourceAlpha" type="matrix" values="0 0 0 0 0 0 0 0 0 0 0 0 0 0 0 0 0 0 127 0" result="hardAlpha"/>
<feOffset dx="1" dy="1"/>
<feGaussianBlur stdDeviation="1"/>
<feComposite in2="hardAlpha" operator="out"/>
<feColorMatrix type="matrix" values="0 0 0 0 0.356863 0 0 0 0 0.792157 0 0 0 0 0.964706 0 0 0 0.3 0"/>
<feBlend mode="normal" in2="BackgroundImageFix" result="effect1_dropShadow_941_294"/>
<feBlend mode="normal" in="SourceGraphic" in2="effect1_dropShadow_941_294" result="shape"/>
</filter>
<radialGradient id="paint0_radial_941_294" cx="0" cy="0" r="1" gradientUnits="userSpaceOnUse" gradientTransform="translate(25.5731 26.5) rotate(150.564) scale(16.5617 16.7169)">
<stop stop-color="white"/>
<stop stop-color="white"/>
<stop offset="0.60891" stop-color="#E1F4FF"/>
<stop offset="0.9999" stop-color="#D6F0FE"/>
<stop offset="1" stop-color="#A9DFFE"/>
</radialGradient>
<linearGradient id="paint1_linear_941_294" x1="26.0838" y1="8.87437" x2="25.3416" y2="38.933" gradientUnits="userSpaceOnUse">
<stop stop-color="#E6F7FD"/>
<stop offset="1" stop-color="white"/>
</linearGradient>
<linearGradient id="paint2_linear_941_294" x1="25.3828" y1="7.50308" x2="25.3828" y2="43.8533" gradientUnits="userSpaceOnUse">
<stop stop-color="#6ED0F7"/>
<stop offset="1" stop-color="#25B9F4"/>
</linearGradient>
</defs>
<g filter="url(#filter0_d_941_294)">
<path d="M1.99997 17.0063C1.99997 5.77077 14.4544 -1.11766 24.6114 4.50011L41.2786 13.7186C51.6015 19.4281 51.8084 33.7273 41.6494 39.3462L24.9821 48.5647C14.8231 54.1836 1.99997 46.8623 1.99997 35.4433L1.99997 17.0063Z" fill="url(#paint0_radial_941_294)"/>
<path d="M1.99997 17.0063C1.99997 5.77077 14.4544 -1.11766 24.6114 4.50011L41.2786 13.7186C51.6015 19.4281 51.8084 33.7273 41.6494 39.3462L24.9821 48.5647C14.8231 54.1836 1.99997 46.8623 1.99997 35.4433L1.99997 17.0063Z" fill="url(#paint1_linear_941_294)"/>
<path d="M1.99997 17.0063C1.99997 5.77077 14.4544 -1.11766 24.6114 4.50011L41.2786 13.7186C51.6015 19.4281 51.8084 33.7273 41.6494 39.3462L24.9821 48.5647C14.8231 54.1836 1.99997 46.8623 1.99997 35.4433L1.99997 17.0063Z" fill="white"/>
</g>
<g filter="url(#filter1_d_941_294)">
<path d="M7.57394 18.1388C7.57394 9.8994 16.7072 4.84787 24.1557 8.96756L37.4222 16.3051C44.9923 20.4921 45.144 30.9782 37.694 35.0987L24.4276 42.4363C16.9776 46.5568 7.57394 41.1879 7.57394 32.814L7.57394 18.1388Z" fill="url(#paint2_linear_941_294)"/>
</g>
<path d="M29.8674 22.1656C29.5699 21.8806 29.0766 21.8806 28.7791 22.1656L27.0803 23.7781C26.7749 24.0631 26.7749 24.5356 27.0803 24.8206L27.0881 24.8281C27.3934 25.1206 27.8788 25.1206 28.1841 24.8281C28.6695 24.3556 29.3741 23.6731 29.8674 23.2006C30.1649 22.9156 30.1649 22.4506 29.8674 22.1656Z" fill="white"/>
<path d="M23.2674 19.5031H23.2439C22.8133 19.5031 22.4689 19.8331 22.4689 20.2381V22.5106C22.4689 22.9231 22.8133 23.2531 23.2361 23.2531H23.2596C23.6902 23.2531 24.0347 22.9231 24.0347 22.5181V20.2381C24.0347 19.8331 23.6902 19.5031 23.2674 19.5031Z" fill="white"/>
<path d="M19.4153 24.8356L19.4231 24.8281C19.7206 24.5431 19.7206 24.0706 19.4231 23.7856L17.7399 22.1581C17.4424 21.8656 16.9492 21.8656 16.6517 22.1581L16.636 22.1656C16.3307 22.4581 16.3307 22.9231 16.636 23.2081C17.1293 23.6731 17.8339 24.3631 18.3193 24.8356C18.6246 25.1206 19.1178 25.1206 19.4153 24.8356Z" fill="white"/>
<path d="M23.2518 28.5031C22.281 28.5031 21.4433 27.9406 21.091 27.1306C20.8405 26.5756 20.2298 26.2531 19.6035 26.2531H16.9886C16.1274 26.2531 15.4228 26.9281 15.4228 27.7531V31.5031C15.4228 32.3281 16.1274 33.0031 16.9886 33.0031H29.5149C30.3761 33.0031 31.0807 32.3281 31.0807 31.5031V27.7531C31.0807 26.9281 30.3761 26.2531 29.5149 26.2531H26.9001C26.2737 26.2531 25.6631 26.5756 25.4126 27.1306C25.0603 27.9406 24.2226 28.5031 23.2518 28.5031Z" fill="white"/>
</svg>
