<svg width="58" height="57" viewBox="0 0 58 57" fill="none" xmlns="http://www.w3.org/2000/svg">
<defs>
<filter id="filter0_d_881_395" x="0.761826" y="0.530823" width="56.7955" height="56.4525" filterUnits="userSpaceOnUse" color-interpolation-filters="sRGB">
<feFlood flood-opacity="0" result="BackgroundImageFix"/>
<feColorMatrix in="SourceAlpha" type="matrix" values="0 0 0 0 0 0 0 0 0 0 0 0 0 0 0 0 0 0 127 0" result="hardAlpha"/>
<feOffset dx="2" dy="2"/>
<feGaussianBlur stdDeviation="2"/>
<feComposite in2="hardAlpha" operator="out"/>
<feColorMatrix type="matrix" values="0 0 0 0 0.0882828 0 0 0 0 0.132424 0 0 0 0 0.291717 0 0 0 0.4 0"/>
<feBlend mode="normal" in2="BackgroundImageFix" result="effect1_dropShadow_881_395"/>
<feBlend mode="normal" in="SourceGraphic" in2="effect1_dropShadow_881_395" result="shape"/>
</filter>
<filter id="filter1_d_881_395" x="7.51459" y="7.81482" width="40.8607" height="40.6865" filterUnits="userSpaceOnUse" color-interpolation-filters="sRGB">
<feFlood flood-opacity="0" result="BackgroundImageFix"/>
<feColorMatrix in="SourceAlpha" type="matrix" values="0 0 0 0 0 0 0 0 0 0 0 0 0 0 0 0 0 0 127 0" result="hardAlpha"/>
<feOffset dx="1" dy="1"/>
<feGaussianBlur stdDeviation="1"/>
<feComposite in2="hardAlpha" operator="out"/>
<feColorMatrix type="matrix" values="0 0 0 0 0.514268 0 0 0 0 0.82242 0 0 0 0 0.35758 0 0 0 0.3 0"/>
<feBlend mode="normal" in2="BackgroundImageFix" result="effect1_dropShadow_881_395"/>
<feBlend mode="normal" in="SourceGraphic" in2="effect1_dropShadow_881_395" result="shape"/>
</filter>
<radialGradient id="paint0_radial_881_395" cx="0" cy="0" r="1" gradientUnits="userSpaceOnUse" gradientTransform="translate(27.1596 26.7571) rotate(151.17) scale(17.0403 16.9764)">
<stop stop-color="white"/>
<stop stop-color="white"/>
<stop offset="0.60891" stop-color="#E1F4FF"/>
<stop offset="0.9999" stop-color="#D6F0FE"/>
<stop offset="1" stop-color="#A9DFFE"/>
</radialGradient>
<linearGradient id="paint1_linear_881_395" x1="27.6882" y1="8.963" x2="26.9572" y2="39.3097" gradientUnits="userSpaceOnUse">
<stop stop-color="#E6F7FD"/>
<stop offset="1" stop-color="white"/>
</linearGradient>
<linearGradient id="paint2_linear_881_395" x1="26.945" y1="8.81482" x2="26.945" y2="45.5013" gradientUnits="userSpaceOnUse">
<stop stop-color="#96D873"/>
<stop offset="1" stop-color="#69C837"/>
</linearGradient>
</defs>
<g filter="url(#filter0_d_881_395)">
<path d="M2.76183 16.6562C2.76183 5.65156 15.1763 -1.00137 25.4436 4.50094L43.4128 14.1307C53.974 19.7905 54.34 33.9868 44.0666 39.4924L26.0975 49.1221C15.8241 54.6276 2.76183 47.2352 2.76183 35.9156L2.76183 16.6562Z" fill="url(#paint0_radial_881_395)"/>
<path d="M2.76183 16.6562C2.76183 5.65156 15.1763 -1.00137 25.4436 4.50094L43.4128 14.1307C53.974 19.7905 54.34 33.9868 44.0666 39.4924L26.0975 49.1221C15.8241 54.6276 2.76183 47.2352 2.76183 35.9156L2.76183 16.6562Z" fill="url(#paint1_linear_881_395)"/>
<path d="M2.76183 16.6562C2.76183 5.65156 15.1763 -1.00137 25.4436 4.50094L43.4128 14.1307C53.974 19.7905 54.34 33.9868 44.0666 39.4924L26.0975 49.1221C15.8241 54.6276 2.76183 47.2352 2.76183 35.9156L2.76183 16.6562Z" fill="white"/>
</g>
<g filter="url(#filter1_d_881_395)">
<path d="M8.51459 19.1734C8.51459 11.1034 17.6185 6.22454 25.1479 10.2596L39.4026 17.8987C47.1475 22.0492 47.416 32.4599 39.8821 36.4973L25.6274 44.1364C18.0936 48.1738 8.51459 42.7527 8.51459 34.4517L8.51459 19.1734Z" fill="url(#paint2_linear_881_395)"/>
</g>
<path d="M22.9712 37.3457C22.519 37.3457 22.1701 37.0013 22.2347 36.6124L23.3976 29.5679H18.8751C17.738 29.5679 18.4487 28.7346 18.4745 28.7013C20.1027 26.2235 22.5448 22.5568 25.7752 17.6679C25.9044 17.4679 26.1628 17.3457 26.4213 17.3457C26.8735 17.3457 27.2224 17.6901 27.1578 18.079L25.9949 25.1235H30.5303C31.0472 25.1235 31.3314 25.3346 31.0472 25.8568C26.796 32.2346 24.328 35.9568 23.6173 37.0235C23.4881 37.2235 23.2426 37.3457 22.9712 37.3457Z" fill="white"/>
</svg>
