<svg width="58" height="56" viewBox="0 0 58 56" fill="none" xmlns="http://www.w3.org/2000/svg">
<defs>
<filter id="filter0_d_881_439" x="0.629967" y="0" width="56.6585" height="55.9939" filterUnits="userSpaceOnUse" color-interpolation-filters="sRGB">
<feFlood flood-opacity="0" result="BackgroundImageFix"/>
<feColorMatrix in="SourceAlpha" type="matrix" values="0 0 0 0 0 0 0 0 0 0 0 0 0 0 0 0 0 0 127 0" result="hardAlpha"/>
<feOffset dx="2" dy="2"/>
<feGaussianBlur stdDeviation="2"/>
<feComposite in2="hardAlpha" operator="out"/>
<feColorMatrix type="matrix" values="0 0 0 0 0.0882828 0 0 0 0 0.132424 0 0 0 0 0.291717 0 0 0 0.4 0"/>
<feBlend mode="normal" in2="BackgroundImageFix" result="effect1_dropShadow_881_439"/>
<feBlend mode="normal" in="SourceGraphic" in2="effect1_dropShadow_881_439" result="shape"/>
</filter>
<filter id="filter1_d_881_439" x="6.74901" y="7.19757" width="40.7602" height="40.3502" filterUnits="userSpaceOnUse" color-interpolation-filters="sRGB">
<feFlood flood-opacity="0" result="BackgroundImageFix"/>
<feColorMatrix in="SourceAlpha" type="matrix" values="0 0 0 0 0 0 0 0 0 0 0 0 0 0 0 0 0 0 127 0" result="hardAlpha"/>
<feOffset dx="1" dy="1"/>
<feGaussianBlur stdDeviation="1"/>
<feComposite in2="hardAlpha" operator="out"/>
<feColorMatrix type="matrix" values="0 0 0 0 0.356863 0 0 0 0 0.792157 0 0 0 0 0.964706 0 0 0 0.3 0"/>
<feBlend mode="normal" in2="BackgroundImageFix" result="effect1_dropShadow_881_439"/>
<feBlend mode="normal" in="SourceGraphic" in2="effect1_dropShadow_881_439" result="shape"/>
</filter>
<radialGradient id="paint0_radial_881_439" cx="0" cy="0" r="1" gradientUnits="userSpaceOnUse" gradientTransform="translate(26.9592 25.9969) rotate(151.331) scale(16.9661 16.8418)">
<stop stop-color="white"/>
<stop stop-color="white"/>
<stop offset="0.60891" stop-color="#E1F4FF"/>
<stop offset="0.9999" stop-color="#D6F0FE"/>
<stop offset="1" stop-color="#A9DFFE"/>
</radialGradient>
<linearGradient id="paint1_linear_881_439" x1="27.4863" y1="8.37129" x2="26.7671" y2="38.431" gradientUnits="userSpaceOnUse">
<stop stop-color="#E6F7FD"/>
<stop offset="1" stop-color="white"/>
</linearGradient>
<linearGradient id="paint2_linear_881_439" x1="26.1291" y1="8.19757" x2="26.1291" y2="44.5478" gradientUnits="userSpaceOnUse">
<stop stop-color="#96D873"/>
<stop offset="1" stop-color="#69C837"/>
</linearGradient>
</defs>
<g filter="url(#filter0_d_881_439)">
<path d="M2.62997 16.5032C2.62997 5.26769 15.4839 -1.62074 25.9667 3.99702L43.1685 13.2155C53.8225 18.925 54.036 33.2242 43.5511 38.8431L26.3493 48.0616C15.8644 53.6805 2.62997 46.3593 2.62997 34.9403L2.62997 16.5032Z" fill="url(#paint0_radial_881_439)"/>
<path d="M2.62997 16.5032C2.62997 5.26769 15.4839 -1.62074 25.9667 3.99702L43.1685 13.2155C53.8225 18.925 54.036 33.2242 43.5511 38.8431L26.3493 48.0616C15.8644 53.6805 2.62997 46.3593 2.62997 34.9403L2.62997 16.5032Z" fill="url(#paint1_linear_881_439)"/>
<path d="M2.62997 16.5032C2.62997 5.26769 15.4839 -1.62074 25.9667 3.99702L43.1685 13.2155C53.8225 18.925 54.036 33.2242 43.5511 38.8431L26.3493 48.0616C15.8644 53.6805 2.62997 46.3593 2.62997 34.9403L2.62997 16.5032Z" fill="white"/>
</g>
<g filter="url(#filter1_d_881_439)">
<path d="M7.74901 18.8333C7.74901 10.5939 17.1752 5.54236 24.8626 9.66205L38.5546 16.9996C46.3675 21.1866 46.5241 31.6727 38.8352 35.7932L25.1432 43.1308C17.4543 47.2513 7.74901 41.8824 7.74901 33.5085L7.74901 18.8333Z" fill="url(#paint2_linear_881_439)"/>
</g>
<path d="M26.1191 23.4543C26.1191 24.0003 25.6581 24.447 25.0946 24.447H15.8738C15.3103 24.447 14.8493 24.0003 14.8493 23.4543C14.8493 22.9083 15.3103 22.4616 15.8738 22.4616H25.0946C25.6581 22.4616 26.1191 22.9083 26.1191 23.4543ZM14.8493 19.4835C14.8493 20.0295 15.3103 20.4762 15.8738 20.4762H25.0946C25.6581 20.4762 26.1191 20.0295 26.1191 19.4835C26.1191 18.9375 25.6581 18.4908 25.0946 18.4908H15.8738C15.3103 18.4908 14.8493 18.9375 14.8493 19.4835ZM22.021 27.4251C22.021 26.8791 21.56 26.4324 20.9965 26.4324H15.8738C15.3103 26.4324 14.8493 26.8791 14.8493 27.4251C14.8493 27.971 15.3103 28.4177 15.8738 28.4177H20.9965C21.56 28.4177 22.021 27.971 22.021 27.4251ZM30.2275 25.3106L30.9549 24.6058C31.3545 24.2187 32 24.2187 32.3995 24.6058L33.127 25.3106C33.5265 25.6978 33.5265 26.3232 33.127 26.7103L32.3995 27.4151L30.2275 25.3106ZM29.5001 26.0154L24.2135 31.1377C24.1213 31.2271 24.0701 31.3462 24.0701 31.4852V32.8849C24.0701 33.1628 24.2955 33.3812 24.5823 33.3812H26.0269C26.1601 33.3812 26.2933 33.3316 26.3855 33.2323L31.6721 28.11L29.5001 26.0154Z" fill="white"/>
</svg>
