<svg width="78" height="97" viewBox="0 0 78 97" fill="none" xmlns="http://www.w3.org/2000/svg">
<path d="M160.006 66.175L24.526 80.5525L0 39.4468L126.378 27.8117L160.006 66.175Z" fill="#7BB5E2"/>
<path d="M5.8518 54.1429L24.5273 80.5508V96.1743L0.558228 54.3932L5.8518 54.1429Z" fill="#6996CE"/>
<path d="M2.02026 42.834L24.5242 80.5516V92.572L3.62088 56.1355L2.02026 42.834Z" fill="#DBECF9"/>
<path d="M160.006 66.1748L24.5258 80.5523V96.1758L158.079 82.3388L160.006 66.1748Z" fill="#6996CE"/>
<path d="M53.2253 77.2929L25.0364 37.1431L21.8 37.4434L50.29 78.0235L50.862 93.3418L52.3372 93.2968L53.8124 93.1466L53.2253 77.2929Z" fill="#A073B2"/>
<path d="M158.424 34.3649L30.6907 56.6792L3.82141 19.1167L123.075 0.00012207L158.424 34.3649Z" fill="#958EC5"/>
<path d="M10.6687 32.728L30.6889 56.6787L32.149 71.5415L5.65112 33.3035L10.6687 32.728Z" fill="#7A72B4"/>
<path d="M6.02795 22.2108L30.6895 56.6806L31.8184 68.1155L8.71739 34.7667L6.02795 22.2108Z" fill="#DAD2E8"/>
<path d="M158.424 34.3646L30.6906 56.6789L32.1507 71.5417L158.002 49.878L158.424 34.3646Z" fill="#7A72B4"/>
<path d="M57.7675 51.7434L27.4411 15.3319L24.3904 15.8173L55.0429 52.6342L56.9195 67.1667L58.3194 67.0366L59.7143 66.7964L57.7675 51.7434Z" fill="#9A3E97"/>
<path d="M49.0699 62.0354C49.2957 63.932 47.675 65.6185 45.4572 65.8136C43.2445 65.9988 41.2625 64.6226 41.0418 62.726C40.816 60.8344 42.4366 59.1429 44.6494 58.9528C46.8722 58.7626 48.8441 60.1438 49.0699 62.0354Z" fill="#9A3E97"/>
</svg>
