<svg width="414" height="258" viewBox="0 0 414 258" fill="none" xmlns="http://www.w3.org/2000/svg">
<g opacity="0.1">
<path d="M258.121 48.844C257.896 48.844 257.676 48.752 257.514 48.579C254.872 45.747 252.065 43.01 249.169 40.44C247.726 40.807 246.593 41.135 245.396 41.48C243.637 41.989 241.814 42.515 238.729 43.261C238.374 43.348 238 43.189 237.814 42.871C237.629 42.553 237.677 42.151 237.928 41.883C241.558 38.022 243.377 35.752 245.479 33.124C245.717 32.829 245.956 32.529 246.204 32.22C245.731 30.806 244.182 26.232 243.071 23.611C242.931 23.281 243.017 22.899 243.287 22.662C243.556 22.425 243.945 22.387 244.256 22.567C247.023 24.177 249.956 25.538 252.975 26.615L259.647 20.607C259.916 20.366 260.311 20.324 260.622 20.507C260.936 20.688 261.096 21.051 261.017 21.404L259.091 30.196C262.331 30.942 265.512 31.978 268.566 33.281C268.884 33.416 269.084 33.734 269.069 34.079C269.057 34.424 268.83 34.725 268.504 34.835C265.101 35.978 261.613 36.995 258.127 37.861L258.95 47.944C258.979 48.297 258.782 48.63 258.459 48.773C258.349 48.821 258.234 48.844 258.121 48.844ZM249.391 38.693C249.591 38.693 249.785 38.766 249.938 38.901C252.403 41.071 254.806 43.361 257.1 45.729L256.41 37.29C256.377 36.882 256.646 36.51 257.044 36.413C259.976 35.701 262.914 34.88 265.808 33.965C263.243 32.995 260.601 32.216 257.927 31.641C257.711 31.594 257.522 31.464 257.403 31.278C257.283 31.092 257.241 30.866 257.289 30.65L258.839 23.575L253.723 28.182C253.495 28.386 253.179 28.449 252.892 28.351C250.345 27.469 247.858 26.392 245.468 25.138C246.641 28.238 247.864 31.934 247.928 32.128C248.014 32.396 247.963 32.69 247.784 32.91C247.436 33.343 247.104 33.758 246.778 34.164C245.055 36.318 243.52 38.233 241.043 40.964C242.596 40.557 243.78 40.215 244.935 39.882C246.261 39.499 247.512 39.137 249.186 38.718C249.256 38.701 249.321 38.693 249.391 38.693Z" fill="#EB4799"/>
<path d="M249.019 130.474C248.864 130.558 248.681 130.579 248.507 130.522C245.665 129.592 242.745 128.789 239.825 128.134C238.987 128.92 238.343 129.565 237.665 130.245C236.662 131.246 235.626 132.283 233.823 133.938C233.613 134.131 233.302 134.162 233.056 134.016C232.814 133.87 232.695 133.581 232.763 133.306C233.778 129.34 234.158 127.127 234.6 124.564C234.651 124.276 234.702 123.984 234.753 123.683C233.906 122.903 231.151 120.389 229.421 119.031C229.203 118.86 229.119 118.569 229.211 118.309C229.304 118.048 229.556 117.877 229.832 117.883C232.305 117.938 234.794 117.764 237.24 117.365L239.507 110.812C239.6 110.548 239.851 110.373 240.129 110.379C240.408 110.386 240.653 110.571 240.731 110.839L242.711 117.502C245.18 116.798 247.717 116.311 250.27 116.052C250.533 116.025 250.788 116.165 250.907 116.403C251.027 116.642 250.988 116.929 250.808 117.126C248.932 119.169 246.955 121.159 244.919 123.046L249.244 129.556C249.393 129.784 249.384 130.082 249.219 130.3C249.163 130.373 249.094 130.432 249.019 130.474ZM239.325 126.87C239.459 126.795 239.618 126.771 239.774 126.806C242.251 127.352 244.728 128.004 247.164 128.749L243.546 123.301C243.37 123.037 243.415 122.685 243.648 122.472C245.366 120.894 247.044 119.243 248.66 117.544C246.562 117.846 244.486 118.305 242.463 118.915C242.298 118.964 242.123 118.946 241.973 118.865C241.823 118.784 241.709 118.646 241.662 118.482L240.07 113.12L238.329 118.146C238.253 118.367 238.062 118.529 237.831 118.569C235.779 118.924 233.694 119.124 231.611 119.169C233.562 120.827 235.767 122.87 235.884 122.977C236.042 123.125 236.118 123.344 236.079 123.559C236.006 123.981 235.935 124.387 235.866 124.783C235.504 126.882 235.184 128.75 234.529 131.521C235.426 130.666 236.099 129.994 236.754 129.336C237.508 128.583 238.218 127.872 239.196 126.962C239.235 126.926 239.277 126.895 239.325 126.87Z" fill="#EB4799"/>
<path d="M15.1683 29.2571C15.0123 29.2361 14.8683 29.1521 14.7753 29.0181C13.2313 26.8281 11.5653 24.6871 9.8173 22.6531C8.7983 22.7691 7.9863 22.8861 7.1373 23.0111C5.8803 23.1941 4.5823 23.3831 2.3973 23.6051C2.1443 23.6311 1.9043 23.4861 1.8093 23.2511C1.7093 23.0151 1.7783 22.7441 1.9793 22.5841C4.8303 20.2781 6.2873 18.8941 7.9783 17.2901C8.1693 17.1101 8.3603 16.9271 8.5623 16.7381C8.3703 15.7241 7.7353 12.4431 7.2243 10.5411C7.1583 10.3021 7.2543 10.0491 7.4603 9.91108C7.6663 9.77408 7.9393 9.78508 8.1343 9.93708C9.8813 11.3021 11.7633 12.5111 13.7293 13.5331L18.8693 10.0421C19.0783 9.90208 19.3513 9.91108 19.5483 10.0651C19.7453 10.2191 19.8203 10.4831 19.7333 10.7171L17.5853 16.5641C19.7363 17.3801 21.8183 18.3891 23.7913 19.5701C23.9973 19.6931 24.1053 19.9291 24.0633 20.1651C24.0213 20.4001 23.8353 20.5851 23.6023 20.6301C21.1603 21.0931 18.6743 21.4621 16.2033 21.7271L15.8193 28.7181C15.8083 28.9631 15.6413 29.1721 15.4043 29.2401C15.3263 29.2621 15.2453 29.2681 15.1683 29.2571ZM10.1353 21.4761C10.2723 21.4951 10.4013 21.5631 10.4943 21.6701C11.9783 23.3891 13.4083 25.1861 14.7613 27.0251L15.0813 21.1741C15.0963 20.8911 15.3143 20.6621 15.5963 20.6331C17.6753 20.4211 19.7673 20.1351 21.8343 19.7791C20.1703 18.8731 18.4323 18.0901 16.6513 17.4441C16.5083 17.3931 16.3923 17.2851 16.3253 17.1461C16.2633 17.0071 16.2543 16.8491 16.3083 16.7051L18.0373 12.0011L14.0943 14.6781C13.9203 14.7961 13.6983 14.8101 13.5103 14.7151C11.8473 13.8711 10.2423 12.8991 8.7233 11.8141C9.2343 14.0491 9.7253 16.6981 9.7493 16.8371C9.7853 17.0291 9.7223 17.2261 9.5783 17.3611C9.3003 17.6241 9.0343 17.8781 8.7713 18.1251C7.3863 19.4391 6.1553 20.6081 4.1993 22.2471C5.3033 22.1141 6.1473 21.9921 6.9703 21.8711C7.9153 21.7341 8.8073 21.6041 9.9943 21.4741C10.0423 21.4691 10.0903 21.4701 10.1353 21.4761Z" fill="#EB4799"/>
<path d="M314.182 206.489C314.344 205.661 314.212 204.737 314.156 203.896C314.101 203.067 314.117 202.237 314.191 201.409C314.23 200.981 314.284 200.556 314.356 200.134C314.673 199.785 314.963 199.416 315.23 199.038C315.858 198.145 316.355 197.11 316.196 195.992C316.154 195.684 315.968 195.455 315.678 195.394C315.355 194 314.485 192.709 313.021 192.49C310.924 192.177 308.593 193.583 307.333 195.17C306.056 196.782 305.26 199.223 306.738 200.977C308.18 202.691 310.643 202.73 312.48 201.68C312.528 201.652 312.578 201.623 312.626 201.593C312.564 202.252 312.545 202.915 312.567 203.575C312.603 204.584 312.725 205.804 313.335 206.639C313.563 206.95 314.101 206.908 314.182 206.489ZM311.346 200.468C309.763 201.1 307.367 200.502 307.543 198.424C307.71 196.509 309.437 194.833 311.163 194.204C312.081 193.869 313.054 193.714 313.832 194.426C314.221 194.781 314.449 195.229 314.628 195.707C314.167 196.095 313.901 196.759 313.683 197.31C313.416 197.984 313.192 198.674 313.012 199.375C312.519 199.829 311.968 200.219 311.346 200.468Z" fill="#EB4799"/>
<path d="M323.314 203.401C322.44 202.946 321.558 202.498 320.699 202.015C320.962 201.386 321.303 200.78 321.471 200.127C321.545 199.834 321.166 199.534 320.912 199.735C320.37 200.157 319.996 200.789 319.697 201.422C319.056 201.028 318.41 200.631 317.71 200.363C317.372 200.233 316.881 200.597 317.168 200.96C317.722 201.663 318.437 202.197 319.176 202.693C318.955 203.326 318.79 203.976 318.704 204.644C318.592 205.493 319.897 205.788 320.008 204.933C320.077 204.42 320.161 203.907 320.274 203.401C321.041 203.878 321.824 204.317 322.647 204.697C323.494 205.088 324.149 203.837 323.314 203.401Z" fill="#EB4799"/>
<path d="M332.517 209.445C332.024 207.282 329.696 206.137 327.622 206.333C327.698 206.188 327.772 206.045 327.847 205.9C330.542 204.527 332.829 202.439 334.597 199.958C335.148 199.181 335.632 198.358 336.015 197.484C336.356 196.698 336.662 195.837 336.446 194.972C336.26 194.234 335.65 193.605 334.89 193.464C333.897 193.277 333.355 194.094 332.873 194.815C330.567 198.28 328.442 201.836 326.489 205.505C326.039 205.777 325.594 206.048 325.154 206.32C324.843 206.509 325.074 207.01 325.42 206.899C325.555 206.856 325.69 206.811 325.822 206.765C325.291 207.79 324.771 208.821 324.262 209.858C323.873 210.652 323.437 211.612 323.853 212.484C324.292 213.405 325.39 213.501 326.282 213.647C327.288 213.812 328.289 213.889 329.295 213.69C331.234 213.305 332.994 211.532 332.517 209.445ZM333.406 195.869C333.636 195.478 333.888 194.833 334.286 194.589C335.084 194.097 335.405 195.352 335.339 195.892C335.168 197.301 334.277 198.832 333.421 199.936C332.15 201.575 330.542 202.861 328.834 204.011C330.097 201.64 331.413 199.294 332.76 196.971C332.975 196.603 333.188 196.236 333.406 195.869ZM328.921 212.132C328.205 212.282 327.44 212.238 326.719 212.151C326.327 212.104 325.917 212.065 325.531 211.978C325.085 211.878 325.109 211.668 325.238 211.251C325.48 210.458 325.947 209.692 326.309 208.948C326.623 208.309 326.94 207.674 327.263 207.041C328.446 207.799 330.261 208.161 330.839 209.588C331.357 210.872 330.046 211.894 328.921 212.132Z" fill="#EB4799"/>
<path d="M284.89 92.6574C285.375 92.1154 285.869 91.5734 286.168 90.9084C286.324 90.5594 285.911 90.3194 285.623 90.4154C285.18 90.5634 284.825 90.8024 284.442 91.0614C284.052 91.3244 283.496 91.6054 283.185 91.9764C283.194 91.8574 283.104 91.5954 283.092 91.4664C283.059 90.9854 283.086 90.4904 283.113 90.0104C283.182 88.7214 283.397 87.4574 283.739 86.2234C283.759 86.1974 283.781 86.1684 283.792 86.1364C283.942 85.8084 284.035 85.4634 284.082 85.1124C284.151 84.9104 284.223 84.7104 284.298 84.5104C284.432 84.1104 284.268 83.7884 284.004 83.6114C283.705 82.3364 282.844 81.1804 281.629 80.6714C279.451 79.7594 277.195 81.1284 275.591 82.5284C273.718 84.1594 271.824 86.4304 272.56 89.0944C273.272 91.6604 276.207 92.4044 278.463 91.4374C279.616 90.9444 280.587 90.0704 281.444 89.1384C281.338 90.0734 281.324 91.0024 281.435 91.8894C281.557 92.8634 282.231 93.9774 283.368 93.7734C284.001 93.6594 284.487 93.1124 284.89 92.6574ZM277.892 89.5444C276.961 89.9764 275.702 90.1504 274.885 89.3834C274.075 88.6214 274.247 87.2944 274.702 86.3944C275.22 85.3714 276.112 84.5394 276.967 83.7984C277.731 83.1364 278.607 82.4714 279.613 82.2504C281.27 81.8864 282.141 83.0484 282.619 84.3934C281.757 86.4824 279.909 88.6094 277.892 89.5444Z" fill="#EB4799"/>
<path d="M295.493 87.589C295.036 85.798 293.459 85.1 291.864 85.234L291.889 85.208C292.888 84.092 293.755 82.869 294.533 81.591C295.272 80.381 295.93 79.117 296.474 77.807C296.909 76.758 297.124 75.654 296.397 74.688C296.176 74.395 295.768 74.362 295.455 74.483C292.531 75.597 291.248 78.614 290.233 81.333C289.102 84.368 287.729 87.421 287.038 90.595C286.765 91.836 286.472 93.497 287.702 94.345C288.792 95.098 290.297 94.719 291.361 94.12C293.621 92.852 296.223 90.464 295.493 87.589ZM295.314 76.281C295.26 77.013 294.638 78.015 294.426 78.465C293.899 79.582 293.298 80.66 292.63 81.697C292.077 82.56 291.472 83.394 290.849 84.209C291.032 83.712 291.212 83.217 291.383 82.723C292.215 80.34 293.004 77.534 295.314 76.281ZM290.629 92.546C290.207 92.781 289.342 93.239 288.848 92.966C288.318 92.671 288.599 91.73 288.686 91.232C288.875 90.137 289.168 89.056 289.51 87.984C290.514 87.602 291.445 86.864 292.567 87.058C293.853 87.281 294.159 88.623 293.666 89.689C293.106 90.893 291.765 91.91 290.629 92.546Z" fill="#EB4799"/>
<path d="M303.587 95.4278C303.787 94.8648 303.058 94.3308 302.603 94.7538C301.682 95.6068 300.197 96.0908 299.126 95.2218C298.07 94.3668 298.139 92.7118 298.575 91.5528C298.971 90.4978 299.757 89.5658 300.733 88.9998C301.215 88.7208 301.744 88.5228 302.295 88.4428C302.543 88.4078 303.1 88.3088 303.297 88.5358C303.477 88.7418 303.267 88.7128 303.066 88.8288C302.842 88.9598 302.662 89.2628 302.816 89.5228C303.372 90.4678 304.736 90.0208 304.993 89.0588C305.293 87.9408 304.383 86.9848 303.351 86.7658C301.128 86.2938 298.74 87.8558 297.543 89.6228C296.257 91.5288 295.819 94.5048 297.495 96.3338C299.27 98.2708 302.645 98.0638 303.587 95.4278Z" fill="#EB4799"/>
<path d="M1.59614 50.3427C1.28214 49.8327 0.409142 50.0687 0.453143 50.6887C0.543143 51.9407 -0.00785732 53.4007 -1.35686 53.6927C-2.68486 53.9817 -3.92986 52.8907 -4.56386 51.8267C-5.13886 50.8567 -5.37286 49.6587 -5.20186 48.5437C-5.11786 47.9937 -4.94186 47.4567 -4.66086 46.9767C-4.53486 46.7627 -4.26186 46.2657 -3.96086 46.2547C-3.68786 46.2437 -3.84086 46.3877 -3.87686 46.6167C-3.91586 46.8747 -3.78986 47.2037 -3.49386 47.2477C-2.40686 47.4057 -1.90186 46.0597 -2.49086 45.2577C-3.17586 44.3267 -4.49286 44.4377 -5.30886 45.1047C-7.06586 46.5427 -7.34386 49.3837 -6.71286 51.4217C-6.03386 53.6187 -3.98386 55.8217 -1.50886 55.6587C1.11214 55.4877 3.06214 52.7267 1.59614 50.3427Z" fill="#EB4799"/>
<path d="M73.8831 245.726L73.8151 245.746C73.4021 245.847 72.9711 245.675 72.7431 245.316L69.8681 240.771L68.3781 241.714C66.0471 243.189 62.9501 242.492 61.4761 240.161L52.2991 225.654C51.5871 224.525 51.3541 223.185 51.6471 221.881C51.9401 220.578 52.7241 219.466 53.8551 218.752L79.0801 202.794C81.4111 201.319 84.5081 202.016 85.9831 204.347L95.1591 218.855C96.6321 221.185 95.9381 224.281 93.6071 225.755L84.2631 231.665C82.1421 233.007 80.2801 234.618 78.7341 236.453C74.9211 240.971 74.5691 244.825 74.5661 244.863C74.5321 245.264 74.2601 245.604 73.8831 245.726ZM69.3921 238.796C69.6921 238.701 70.0091 238.685 70.3221 238.755C70.7831 238.859 71.1751 239.136 71.4271 239.535L73.1481 242.256C73.7251 240.491 74.8861 237.944 77.2221 235.176C78.9011 233.187 80.9111 231.444 83.2031 229.994L92.5471 224.083C93.9571 223.193 94.3791 221.321 93.4871 219.913L84.3111 205.405C83.4191 203.997 81.5461 203.575 80.1371 204.466L54.9101 220.424C54.2291 220.856 53.7561 221.528 53.5761 222.316C53.4001 223.104 53.5401 223.914 53.9711 224.596L63.1481 239.103C64.0391 240.512 65.9121 240.933 67.3191 240.042L68.9881 238.987C69.1171 238.906 69.2511 238.841 69.3921 238.796Z" fill="#EB4799"/>
<path d="M82.6078 208.522L58.1128 224.018C57.7508 224.246 57.2748 224.138 57.0468 223.778C56.8198 223.418 56.9278 222.942 57.2868 222.714L81.7828 207.219C82.1418 206.991 82.6178 207.098 82.8478 207.459C83.0748 207.818 82.9668 208.294 82.6078 208.522Z" fill="#EB4799"/>
<path d="M69.0394 221.549L60.1204 227.193C59.7614 227.42 59.2824 227.313 59.0554 226.952C58.8274 226.593 58.9354 226.116 59.2944 225.889L68.2164 220.246C68.5754 220.019 69.0514 220.125 69.2784 220.486C69.5064 220.846 69.4014 221.321 69.0394 221.549Z" fill="#EB4799"/>
<path d="M75.224 217.637L71.418 220.046C71.056 220.274 70.58 220.166 70.353 219.806C70.125 219.447 70.233 218.97 70.592 218.742L74.401 216.333C74.76 216.106 75.236 216.213 75.463 216.573C75.694 216.933 75.586 217.409 75.224 217.637Z" fill="#EB4799"/>
<path d="M84.6156 211.696L77.6536 216.1C77.2946 216.328 76.8156 216.221 76.5886 215.861C76.3606 215.502 76.4686 215.024 76.8276 214.798L83.7906 210.393C84.1516 210.166 84.6276 210.272 84.8546 210.633C85.0826 210.992 84.9746 211.468 84.6156 211.696Z" fill="#EB4799"/>
<path d="M66.1674 227.813L62.1274 230.368C61.7694 230.595 61.2934 230.488 61.0654 230.127C60.8384 229.768 60.9424 229.292 61.3054 229.064L65.3414 226.509C65.7034 226.282 66.1794 226.389 66.4064 226.749C66.6344 227.109 66.5254 227.585 66.1674 227.813Z" fill="#EB4799"/>
<path d="M81.5013 218.111L69.0813 225.968C68.7193 226.197 68.2433 226.09 68.0163 225.729C67.7883 225.37 67.8973 224.893 68.2553 224.666L80.6783 216.808C81.0373 216.58 81.5133 216.687 81.7403 217.048C81.9683 217.407 81.8633 217.883 81.5013 218.111Z" fill="#EB4799"/>
<path d="M75.4359 226.394L64.1379 233.542C63.7769 233.77 63.3009 233.663 63.0739 233.303C62.8459 232.943 62.9539 232.466 63.3129 232.239L74.6109 225.091C74.9719 224.864 75.4489 224.97 75.6759 225.331C75.9029 225.691 75.7949 226.166 75.4359 226.394Z" fill="#EB4799"/>
<path d="M83.5091 221.286L78.0901 224.714C77.7311 224.941 77.2551 224.835 77.0281 224.474C76.8011 224.114 76.9081 223.638 77.2671 223.41L82.6861 219.983C83.0451 219.755 83.5211 219.862 83.7511 220.223C83.9791 220.583 83.8701 221.058 83.5091 221.286Z" fill="#EB4799"/>
<path d="M86.6234 214.872L84.2634 216.365C83.9004 216.594 83.4254 216.486 83.1974 216.126C82.9704 215.766 83.0774 215.29 83.4364 215.061L85.7984 213.568C86.1594 213.341 86.6354 213.447 86.8624 213.808C87.0904 214.168 86.9824 214.643 86.6234 214.872Z" fill="#EB4799"/>
<path d="M58.2318 77.6973C57.9448 77.6973 57.6789 77.5353 57.5499 77.2733C57.5349 77.2443 55.9309 74.1283 51.1979 71.6343C49.2829 70.6253 47.1829 69.9093 44.9539 69.5063L35.1969 67.7423C32.8329 67.3143 31.2559 65.0413 31.6839 62.6763L34.4208 47.5263C34.6278 46.3793 35.2709 45.3833 36.2259 44.7193C37.1828 44.0553 38.3408 43.8033 39.4868 44.0113L65.8358 48.7743C66.9809 48.9813 67.9768 49.6233 68.6409 50.5793C69.3028 51.5363 69.5539 52.6943 69.3469 53.8403L66.6099 68.9903C66.1819 71.3563 63.9079 72.9323 61.5449 72.5063L59.8629 72.2013L58.9829 77.0723C58.9229 77.3953 58.6639 77.6443 58.3399 77.6903C58.3039 77.6953 58.2678 77.6973 58.2318 77.6973ZM38.7069 45.4633C38.1349 45.4633 37.5759 45.6363 37.0929 45.9693C36.4709 46.4023 36.0549 47.0513 35.9199 47.7963L33.1799 62.9473C32.9019 64.4873 33.9279 65.9663 35.4689 66.2443L45.2259 68.0093C47.6079 68.4393 49.8549 69.2063 51.9069 70.2873C54.9289 71.8783 56.7779 73.7003 57.8129 74.9773L58.3759 71.8683C58.5198 71.0763 59.2799 70.5503 60.0729 70.6933L61.8139 71.0083C63.3549 71.2873 64.8329 70.2603 65.1109 68.7193L67.8518 53.5703C67.9858 52.8233 67.8218 52.0703 67.3909 51.4473C66.9569 50.8243 66.3078 50.4063 65.5629 50.2723L39.2179 45.5093C39.0469 45.4783 38.8769 45.4633 38.7069 45.4633Z" fill="#EB4799"/>
<path d="M38.5091 49.8367L64.0901 54.4617C64.4671 54.5297 64.8261 54.2797 64.8961 53.9037C64.9611 53.5287 64.7131 53.1687 64.3361 53.1007L38.7571 48.4757C38.3801 48.4077 38.0211 48.6567 37.9521 49.0327C37.8831 49.4087 38.1351 49.7687 38.5091 49.8367Z" fill="#EB4799"/>
<path d="M54.1752 56.0932L63.4922 57.7772C63.8662 57.8452 64.2282 57.5952 64.2942 57.2202C64.3632 56.8442 64.1142 56.4842 63.7382 56.4162L54.4202 54.7322C54.0462 54.6642 53.6872 54.9132 53.6182 55.2892C53.5492 55.6652 53.8012 56.0252 54.1752 56.0932Z" fill="#EB4799"/>
<path d="M47.7152 54.9253L51.6942 55.6443C52.0692 55.7123 52.4312 55.4633 52.4962 55.0873C52.5652 54.7113 52.3142 54.3513 51.9402 54.2833L47.9632 53.5643C47.5862 53.4963 47.2282 53.7453 47.1582 54.1213C47.0902 54.4973 47.3412 54.8573 47.7152 54.9253Z" fill="#EB4799"/>
<path d="M37.9105 53.1521L45.1815 54.4671C45.5575 54.5351 45.9175 54.2851 45.9855 53.9091C46.0515 53.5331 45.8035 53.1731 45.4265 53.1061L38.1555 51.7911C37.7815 51.7231 37.4195 51.9721 37.3535 52.3481C37.2845 52.7241 37.5335 53.0841 37.9105 53.1521Z" fill="#EB4799"/>
<path d="M58.6752 60.3306L62.8912 61.0936C63.2682 61.1616 63.6262 60.9116 63.6962 60.5356C63.7642 60.1596 63.5132 59.7996 63.1392 59.7316L58.9202 58.9696C58.5432 58.9016 58.1842 59.1516 58.1152 59.5266C58.0492 59.9026 58.2982 60.2626 58.6752 60.3306Z" fill="#EB4799"/>
<path d="M42.6587 57.4351L55.6327 59.7811C56.0067 59.8491 56.3687 59.5991 56.4337 59.2231C56.5027 58.8471 56.2547 58.4871 55.8777 58.4191L42.9067 56.0741C42.5297 56.0061 42.1717 56.2551 42.1017 56.6311C42.0337 57.0071 42.2847 57.3671 42.6587 57.4351Z" fill="#EB4799"/>
<path d="M50.4916 62.2748L62.2926 64.4088C62.6696 64.4768 63.0286 64.2268 63.0946 63.8518C63.1636 63.4748 62.9146 63.1158 62.5376 63.0478L50.7366 60.9138C50.3626 60.8458 50.0046 61.0958 49.9346 61.4718C49.8666 61.8478 50.1146 62.2068 50.4916 62.2748Z" fill="#EB4799"/>
<path d="M42.0599 60.7502L47.7179 61.7732C48.0949 61.8412 48.4549 61.5922 48.5229 61.2162C48.5889 60.8402 48.3399 60.4802 47.9629 60.4122L42.3059 59.3892C41.9319 59.3212 41.5699 59.5712 41.5029 59.9472C41.4349 60.3232 41.6829 60.6822 42.0599 60.7502Z" fill="#EB4799"/>
<path d="M37.3118 56.4679L39.7778 56.9139C40.1518 56.9819 40.5128 56.7329 40.5798 56.3569C40.6478 55.9809 40.3998 55.6209 40.0228 55.5529L37.5568 55.1069C37.1798 55.0389 36.8218 55.2889 36.7518 55.6639C36.6838 56.0409 36.9348 56.3999 37.3118 56.4679Z" fill="#EB4799"/>
<path d="M89.7923 26.8455C89.1573 26.8455 88.5293 26.6865 87.9553 26.3745C87.0543 25.8825 86.3963 25.0675 86.1053 24.0815L82.3813 11.4145C81.7823 9.37946 82.9493 7.23646 84.9863 6.63746L107.014 0.157459C109.049 -0.442541 111.19 0.72646 111.789 2.76246L115.518 15.4295C116.115 17.4645 114.948 19.6075 112.911 20.2065L111.609 20.5895L112.779 24.5575C112.872 24.8725 112.749 25.2115 112.48 25.3985C112.211 25.5855 111.852 25.5765 111.589 25.3795C111.567 25.3635 109.162 23.6125 104.614 23.5215C102.769 23.4865 100.896 23.7415 99.0433 24.2875L90.8843 26.6875C90.5243 26.7935 90.1563 26.8455 89.7923 26.8455ZM85.4143 8.09746C84.1853 8.45946 83.4793 9.75446 83.8413 10.9855L87.5653 23.6525C87.7423 24.2485 88.1403 24.7405 88.6853 25.0375C89.2303 25.3355 89.8573 25.4025 90.4533 25.2265L98.6123 22.8265C100.614 22.2385 102.643 21.9575 104.645 21.9995C107.43 22.0545 109.491 22.6755 110.805 23.2395L110.104 20.8635C109.893 20.1435 110.305 19.3875 111.026 19.1755L112.483 18.7465C113.713 18.3845 114.419 17.0895 114.057 15.8595L110.329 3.19146C109.97 1.96146 108.675 1.25546 107.441 1.61646L85.4143 8.09746Z" fill="#EB4799"/>
<path d="M86.5072 11.5835L107.894 5.29154C108.211 5.19854 108.391 4.86854 108.298 4.55454C108.205 4.23954 107.875 4.06054 107.562 4.15254L86.1712 10.4455C85.8582 10.5375 85.6782 10.8675 85.7712 11.1815C85.8632 11.4965 86.1932 11.6755 86.5072 11.5835Z" fill="#EB4799"/>
<path d="M100.922 10.3545L108.71 8.06253C109.025 7.97053 109.204 7.64053 109.111 7.32653C109.019 7.01253 108.69 6.83253 108.375 6.92453L100.587 9.21653C100.273 9.30853 100.094 9.63853 100.186 9.95253C100.278 10.2675 100.608 10.4465 100.922 10.3545Z" fill="#EB4799"/>
<path d="M95.5217 11.9434L98.8457 10.9654C99.1607 10.8724 99.3387 10.5434 99.2467 10.2284C99.1577 9.9144 98.8247 9.7344 98.5107 9.8274L95.1867 10.8054C94.8727 10.8984 94.6927 11.2274 94.7857 11.5414C94.8777 11.8564 95.2077 12.0354 95.5217 11.9434Z" fill="#EB4799"/>
<path d="M87.3208 14.356L93.4008 12.567C93.7148 12.475 93.8938 12.145 93.8008 11.831C93.7118 11.516 93.3798 11.336 93.0648 11.429L86.9888 13.218C86.6718 13.31 86.4918 13.64 86.5848 13.954C86.6768 14.269 87.0068 14.448 87.3208 14.356Z" fill="#EB4799"/>
<path d="M106 11.8722L109.527 10.8352C109.841 10.7422 110.021 10.4132 109.928 10.0982C109.835 9.78423 109.506 9.60423 109.192 9.69723L105.664 10.7342C105.351 10.8272 105.171 11.1562 105.264 11.4712C105.356 11.7852 105.686 11.9652 106 11.8722Z" fill="#EB4799"/>
<path d="M92.6107 15.8117L103.457 12.6207C103.771 12.5287 103.951 12.1987 103.858 11.8847C103.765 11.5697 103.436 11.3907 103.122 11.4827L92.2757 14.6737C91.9617 14.7667 91.7817 15.0957 91.8747 15.4107C91.9667 15.7247 92.2967 15.9047 92.6107 15.8117Z" fill="#EB4799"/>
<path d="M100.477 16.5094L110.341 13.6074C110.656 13.5144 110.835 13.1844 110.743 12.8704C110.653 12.5564 110.321 12.3764 110.006 12.4694L100.142 15.3714C99.8279 15.4644 99.6479 15.7944 99.7409 16.1084C99.8329 16.4224 100.163 16.6024 100.477 16.5094Z" fill="#EB4799"/>
<path d="M93.4241 18.5845L98.1571 17.1925C98.4721 17.1005 98.6521 16.7705 98.5591 16.4565C98.4661 16.1415 98.1371 15.9615 97.8221 16.0545L93.0891 17.4465C92.7751 17.5385 92.5961 17.8685 92.6891 18.1825C92.7801 18.4975 93.1111 18.6765 93.4241 18.5845Z" fill="#EB4799"/>
<path d="M88.1372 17.128L90.1992 16.522C90.5132 16.429 90.6932 16.099 90.6002 15.785C90.5102 15.47 90.1782 15.291 89.8642 15.383L87.8022 15.99C87.4892 16.082 87.3092 16.412 87.4022 16.726C87.4942 17.041 87.8242 17.22 88.1372 17.128Z" fill="#EB4799"/>
<path d="M127.722 161.255C129.035 162.817 130.265 164.443 131.615 165.978C131.98 166.392 132.857 166.201 132.838 165.575C132.706 161.357 132.486 157.128 133.93 153.085C134.191 152.358 133.077 151.971 132.802 152.69C131.226 156.795 131.151 161.309 131.453 165.643C131.86 165.448 132.264 165.254 132.668 165.059C131.258 163.577 129.759 162.187 128.344 160.711C127.979 160.328 127.375 160.844 127.722 161.255Z" fill="#EB4799"/>
<path d="M103.367 169.696C101.099 168.436 97.8706 167.666 95.2976 168.192C94.5856 168.337 93.8876 168.598 93.2896 169.008C92.9216 168.752 92.3556 169.109 92.5446 169.592L92.5656 169.638L92.5386 169.664C91.6886 170.635 91.5986 171.473 92.2516 172.534C92.4426 172.846 92.9726 172.619 92.9066 172.27C92.8326 171.861 92.9756 171.444 93.2236 171.074C94.1006 172.885 95.1146 174.641 96.0906 176.392C96.7156 177.514 97.3356 178.64 97.9486 179.769C98.5086 180.803 98.9746 181.978 99.7286 182.884C100.474 183.78 101.255 182.772 101.105 182.103L101.111 182.105C101.024 181.818 100.914 181.533 100.785 181.253C103.006 180.702 104.968 177.778 105.588 175.816C106.365 173.355 105.68 170.981 103.367 169.696ZM103.774 176.035C103.332 176.935 102.706 177.738 101.931 178.374C101.308 178.884 100.528 179.168 99.9116 179.658C99.7166 179.331 99.5216 179.007 99.3426 178.687C98.7596 177.641 98.1666 176.598 97.5716 175.558C96.5176 173.723 95.4346 171.863 94.1866 170.145C94.2596 170.099 94.3316 170.056 94.3996 170.02C95.1386 169.637 96.0146 169.507 96.8386 169.502C98.7446 169.49 100.944 170.039 102.619 170.951C104.63 172.048 104.702 174.146 103.774 176.035Z" fill="#EB4799"/>
<path d="M113.621 170.641C112.221 169.352 109.944 169.391 108.676 170.852C107.718 171.96 107.613 173.79 108.789 174.582C108.48 174.533 108.184 174.878 108.388 175.23C110.611 179.044 116.679 173.452 113.621 170.641ZM111.847 174.614C111.123 175.372 109.791 175.585 109.053 174.735L109.04 174.725C109.19 174.797 109.351 174.859 109.534 174.899C110.007 175.005 110.315 174.294 109.914 174.021C107.918 172.656 111.308 169.849 112.699 171.874C113.211 172.622 112.397 174.037 111.847 174.614Z" fill="#EB4799"/>
<path d="M117.749 168.382C117.172 167.969 115.96 167.015 115.197 167.351C114.664 167.585 114.548 168.314 114.557 168.939C114.353 168.792 114.144 168.649 113.923 168.511C113.605 168.313 113.097 168.68 113.401 169.016C114.024 169.703 114.626 170.445 115.164 171.222C115.439 171.774 115.78 172.299 116.131 172.781C116.728 173.609 117.985 172.666 117.399 171.835C116.828 171.028 116.214 170.328 115.518 169.706C115.373 169.321 115.248 168.829 115.373 168.527C115.64 167.881 116.047 168.262 116.441 168.562C117.572 169.416 118.145 170.594 118.893 171.753C119.302 172.391 120.206 171.786 119.993 171.132C119.613 169.979 118.722 169.074 117.749 168.382Z" fill="#EB4799"/>
<path d="M126.184 166.85C125.31 167.164 124.589 167.762 123.719 168.067C123.288 168.219 122.815 168.267 122.372 168.208C122.857 167.513 123.29 166.788 123.67 166.018C124.015 165.322 124.33 164.586 123.796 163.891C122.587 162.312 120.353 163.817 119.724 165.159C118.911 166.902 119.724 169.015 121.54 169.698C123.512 170.438 125.903 169.317 126.842 167.524C127.058 167.11 126.576 166.71 126.184 166.85ZM120.663 166.556C120.589 165.909 120.903 165.278 121.406 164.877C121.884 164.393 122.367 164.483 122.848 165.146C122.725 165.433 122.6 165.719 122.465 166.001C122.163 166.643 121.825 167.271 121.475 167.891C121.047 167.619 120.736 167.182 120.663 166.556Z" fill="#EB4799"/>
<path d="M171.948 137.791C168.372 140.687 166.6 145.807 168.298 150.187C169.468 153.203 172.328 155.099 173.614 158.06C174.278 159.587 174.613 161.245 174.907 162.878C175.132 164.128 175.464 165.224 175.873 166.395C175.79 166.473 175.709 166.557 175.636 166.654C175.583 166.727 175.547 166.806 175.526 166.886C174.949 166.096 173.479 166.154 173.3 167.475C173.094 168.974 173.824 170.222 174.697 171.384C175.223 172.089 175.454 172.833 175.9 173.564C176.173 174.012 176.573 174.331 177.07 174.488C178.279 174.871 180.142 175.149 181.385 174.84C182.653 174.523 183.389 173.054 184.116 172.078C185.058 170.811 185.944 169.877 185.89 168.239C185.851 167.149 185.579 166.381 184.467 166.074C184.69 162.992 184.981 159.731 186.543 157.019C188.174 154.185 190.992 152.311 191.824 149.004C193.039 144.169 190.112 139.041 185.953 136.629C181.68 134.149 175.777 134.687 171.948 137.791ZM175.718 167.989C175.745 167.868 175.757 167.755 175.757 167.646L175.819 167.704C176.579 168.293 177.259 168.077 178.177 167.994C179.146 167.906 180.125 167.876 181.1 167.887C181.657 167.893 183.655 167.707 184.059 168.073C184.493 168.467 184.338 168.989 184.059 169.44C183.395 169.83 182.605 169.891 181.809 169.923C180.828 169.962 180.02 170.026 179.072 170.288C178.859 170.347 178.736 170.659 178.961 170.796C179.925 171.383 181.222 171.682 182.389 171.531C182.111 171.861 181.818 172.172 181.504 172.419C180.702 173.051 179.296 172.759 178.333 172.644C177.498 172.544 177.435 172.576 177.247 171.687C177.163 171.295 177.079 170.89 176.921 170.519C176.606 169.79 175.523 168.854 175.718 167.989ZM173.689 138.476C177.934 135.494 183.99 136.156 187.51 139.922C189.139 141.67 190.121 144 190.037 146.409C189.938 149.237 188.556 151.195 186.791 153.281C183.703 156.931 182.917 161.166 182.554 165.752C181.537 165.665 180.493 165.677 179.532 165.699C178.608 165.721 177.465 165.618 176.573 165.963C176.786 164.723 176.866 163.626 176.717 162.283C176.567 160.948 176.271 159.647 175.825 158.38C175.352 157.029 174.688 155.769 173.83 154.622C172.773 153.211 171.4 152.03 170.509 150.496C168.138 146.417 169.994 141.072 173.689 138.476Z" fill="#EB4799"/>
<path d="M185.432 148.022C185.57 147.922 185.713 148.073 185.639 148.211C184.574 150.227 184.065 152.563 182.776 154.447C182.617 154.683 182.234 154.594 182.183 154.318C181.702 151.769 183.502 149.456 185.432 148.022Z" fill="#EB4799"/>
<path d="M181.174 147.33C181.564 149.546 181.716 152.132 180.768 154.227C180.609 154.576 180.124 154.63 179.942 154.267C178.808 152.035 179.505 149.223 180.878 147.266C180.959 147.151 181.151 147.19 181.174 147.33Z" fill="#EB4799"/>
<path d="M176.983 147.758C177.86 149.492 178.369 151.188 177.976 153.128C177.886 153.572 177.196 153.854 176.992 153.31C176.358 151.621 176.115 149.916 175.741 148.161C175.58 147.415 176.651 147.1 176.983 147.758Z" fill="#EB4799"/>
<path d="M184.878 133.989C185.555 130.992 187.78 128.139 189.465 125.633C189.911 124.968 191.107 125.541 190.749 126.299C189.42 129.094 188.095 132.484 185.809 134.638C185.339 135.083 184.762 134.499 184.878 133.989Z" fill="#EB4799"/>
<path d="M179.26 131.178C179.16 129.82 178.931 128.512 179.11 127.13C179.289 125.754 179.499 124.388 179.84 123.043C180.145 121.836 181.832 122.384 181.848 123.469C181.865 124.823 181.755 126.187 181.59 127.532C181.429 128.856 180.926 130.032 180.526 131.279C180.337 131.87 179.308 131.844 179.26 131.178Z" fill="#EB4799"/>
<path d="M171.155 124.114C172.561 124.919 173.133 126.668 173.713 128.085C174.332 129.608 174.952 131.321 174.655 132.982C174.539 133.642 173.728 134.008 173.246 133.436C172.163 132.158 171.744 130.447 171.286 128.87C170.858 127.393 170.146 125.875 170.511 124.318C170.58 124.026 170.945 123.993 171.155 124.114Z" fill="#EB4799"/>
<path d="M14.0882 132.453C13.9142 133.057 14.6112 133.591 15.1502 133.268C15.8862 132.829 16.3982 132.124 17.0282 131.556C17.7472 130.911 18.5722 130.346 19.4522 129.941C20.3022 129.548 21.5792 129.314 21.3192 130.729C21.1602 131.597 20.7452 132.454 20.2392 133.17C18.2492 135.983 13.2762 137.549 10.0932 136.104C7.33821 134.852 5.61721 131.428 6.62521 128.503C7.66321 125.495 10.9932 123.847 14.0392 124.154C14.5992 124.21 14.6712 123.354 14.1682 123.201C11.0482 122.249 7.66621 123.798 5.93121 126.492C4.15421 129.248 4.64521 132.807 6.65521 135.296C9.13321 138.36 13.0262 138.63 16.5742 137.469C18.3872 136.875 20.0742 135.938 21.2802 134.431C22.2622 133.206 23.3002 131.241 22.9652 129.612C22.0522 125.182 14.7752 130.061 14.0882 132.453Z" fill="#EB4799"/>
<path d="M24.5931 126.809C24.4581 126.558 24.3351 126.306 24.2251 126.041C24.0511 125.627 23.8801 125.505 24.2611 125.212C24.6501 124.91 25.0501 125.295 25.4901 125.471C26.1661 125.743 26.5041 124.602 25.7951 124.361C25.1221 124.133 24.5121 123.673 23.7671 123.844C23.1421 123.989 22.8001 124.48 22.8161 125.112C22.8161 125.157 22.8241 125.203 22.8271 125.249C22.5911 125.353 22.4391 125.628 22.6001 125.925C22.9651 126.591 23.3631 127.242 23.7761 127.884C24.1741 128.728 24.6731 129.539 25.3201 130.214C25.8111 130.729 26.7651 130.038 26.3281 129.435C25.7391 128.561 25.0951 127.741 24.5931 126.809Z" fill="#EB4799"/>
<path d="M34.3558 125.109C33.3948 125.542 32.3338 126.325 31.2648 126.357C30.4838 126.38 29.9308 126.028 29.6728 125.511C29.7098 125.526 29.7488 125.536 29.7938 125.535C31.5998 125.487 34.2208 124.518 33.8268 122.239C33.6858 121.419 33.0868 120.764 32.2408 120.678C31.1578 120.568 30.2418 121.389 29.5418 122.118C28.1738 123.543 27.3928 125.911 29.3298 127.257C31.3068 128.63 33.7908 127.591 35.0498 125.803C35.3768 125.343 34.7658 124.923 34.3558 125.109ZM29.8408 123.692C30.1198 123.235 30.5318 122.844 30.9508 122.515C31.5218 122.063 32.7368 121.884 32.4978 122.945C32.2668 123.973 30.4748 124.54 29.6228 124.904C29.5808 124.922 29.5468 124.945 29.5238 124.973C29.4818 124.57 29.5808 124.123 29.8408 123.692Z" fill="#EB4799"/>
<path d="M43.6908 120.337C43.0748 121.581 41.5028 119.531 41.1058 119.144C40.4148 118.467 39.6938 117.817 38.9878 117.153C38.8438 117.016 38.6818 116.98 38.5388 117.006C38.0568 116.413 36.3548 117.443 35.9738 117.866C34.7058 119.273 34.7028 121.436 35.8368 122.928C37.0128 124.477 39.0838 124.668 40.2858 123.035C40.7768 122.369 40.9288 121.684 40.8728 121.004C41.2738 121.439 41.7128 121.86 42.2698 122.068C43.3378 122.467 44.8098 121.684 44.3098 120.418C44.2138 120.173 43.8348 120.05 43.6908 120.337ZM39.5168 121.175C39.3108 122.341 38.2758 123.239 37.1408 122.51C36.1188 121.853 35.6838 120.541 36.0408 119.394C36.1778 118.949 36.4378 118.526 36.7608 118.192C36.7798 118.171 37.6738 117.511 38.0958 117.453C38.0688 117.601 38.1018 117.763 38.2308 117.91C38.3268 118.022 38.4198 118.135 38.5118 118.247C39.1488 119.065 39.7028 120.139 39.5168 121.175Z" fill="#EB4799"/>
<path d="M50.4741 116.486C49.2451 116.67 48.5081 118.599 47.1081 118.006C46.4671 117.733 46.1921 116.917 45.8781 116.324C45.4771 115.566 45.0821 114.806 44.6901 114.044C44.3551 113.392 44.0201 112.739 43.6851 112.089C44.3431 111.714 44.9421 111.249 45.4261 110.676C45.6991 110.353 45.3641 109.943 44.9901 110.109C44.3521 110.39 43.7331 110.694 43.1171 110.998C42.9251 110.631 42.7311 110.265 42.5331 109.901C41.7191 108.4 40.7041 107.006 39.9001 105.507C39.8581 105.43 39.7231 105.483 39.7531 105.568C40.4711 107.588 41.0071 109.635 41.8091 111.632C41.1621 111.933 40.5041 112.216 39.8161 112.452C39.4041 112.594 39.4331 113.334 39.9271 113.272C40.7021 113.175 41.5031 112.998 42.2701 112.727C43.0181 114.453 43.8111 116.174 44.6491 117.854C45.3251 119.208 46.4051 120.177 48.0171 119.91C49.3041 119.697 51.1651 118.403 51.0601 116.932C51.0361 116.606 50.7851 116.44 50.4741 116.486Z" fill="#EB4799"/>
<path d="M49.9203 110.529C50.4173 110.893 51.0333 110.086 50.5783 109.678C48.9053 108.177 47.5803 106.324 46.5123 104.354C45.5073 102.496 43.9033 99.8072 44.6213 97.6072C44.8813 96.8162 45.4883 96.1942 46.3513 96.3972C47.0453 96.5612 47.5413 97.2062 47.8733 97.8022C48.4783 98.8852 48.7083 100.211 48.8853 101.423C49.2263 103.744 49.0763 106.253 49.9893 108.449C50.1063 108.732 50.4883 108.627 50.4463 108.323C50.1953 106.549 49.9053 104.786 49.6783 103.008C49.4833 101.468 49.2473 99.9252 48.6963 98.4662C48.0623 96.7962 46.2013 94.5162 44.3013 96.2022C42.2703 98.0042 43.5353 101.491 44.4603 103.483C45.7373 106.222 47.4733 108.728 49.9203 110.529Z" fill="#EB4799"/>
<path d="M53.9418 113.362C52.9548 113.288 52.1818 114.273 52.6458 115.185C52.7178 115.326 52.8288 115.401 52.9488 115.426C53.0448 115.571 53.1518 115.71 53.2648 115.84C53.5858 116.219 54.0408 116.476 54.5488 116.363C55.0278 116.257 55.4218 115.869 55.5428 115.391C55.7908 114.396 54.9108 113.435 53.9418 113.362ZM54.1448 114.787C54.1088 114.744 54.0708 114.701 54.0348 114.658C54.0798 114.695 54.1118 114.739 54.1448 114.787Z" fill="#EB4799"/>
<path d="M236.509 145.757C236.067 145.162 235.654 147.791 235.59 148.089C235.322 149.312 235.091 150.542 234.839 151.768C234.349 154.146 233.804 156.509 233.209 158.861C232 163.621 230.304 168.238 228.93 172.944C228.84 173.255 229.301 173.515 229.466 173.201C232.29 167.815 234.107 162.065 235.36 156.121C235.971 153.229 236.518 150.319 236.94 147.394C236.988 147.063 237.451 145.439 236.629 145.428C236.396 145.425 236.237 145.55 236.309 145.79C236.323 145.844 236.365 145.868 236.422 145.864L236.476 145.859C236.527 145.855 236.532 145.79 236.509 145.757Z" fill="#EB4799"/>
<path d="M247.289 151.756C245.805 153.088 244.922 155.288 244.06 157.053C243.145 158.931 242.218 160.793 241.143 162.588C238.947 166.262 236.413 169.932 233.547 173.11C233.143 173.555 233.729 174.24 234.186 173.814C237.373 170.83 240.165 167.692 242.435 163.939C243.555 162.088 244.524 160.167 245.467 158.22C246.394 156.298 247.651 154.484 248.504 152.544C248.818 151.829 247.812 151.287 247.289 151.756Z" fill="#EB4799"/>
<path d="M253.671 161.652C248.282 167.569 242.379 172.828 236.036 177.701C235.65 177.998 236.105 178.653 236.524 178.403C243.388 174.316 249.578 168.928 254.751 162.838C255.403 162.071 254.377 160.877 253.671 161.652Z" fill="#EB4799"/>
<path d="M168.79 77.2851C168.671 75.7511 167.234 74.8811 165.819 74.6841C164.141 74.4511 162.453 75.2011 161.271 76.3651C158.572 79.0171 158.653 83.4721 161.07 86.2831C163.165 88.7201 168.267 90.2902 170.682 87.3961C171.644 86.2421 171.546 83.7852 170.199 82.8872C168.691 81.8822 165.986 82.2902 164.832 83.5532C164.607 83.7972 164.784 84.1502 165.095 84.1712C166.092 84.2362 168.294 83.6592 169.122 84.2541C170.579 85.3011 169.326 86.8902 168.013 87.2121C165.601 87.8041 162.902 86.5281 161.666 84.4311C160.431 82.3351 160.52 79.6221 162.1 77.7291C163.677 75.8382 166.331 75.4381 167.91 77.5351C168.165 77.8731 168.832 77.8021 168.79 77.2851Z" fill="#EB4799"/>
<path d="M176.199 83.155C174.269 83.975 174.685 86.551 176.212 87.604C178.201 88.974 180.989 87.882 181.965 85.805C182.958 83.688 181.95 81.073 179.652 80.384C177.521 79.747 174.964 81.441 175.648 83.793C175.76 84.182 176.292 84.145 176.409 83.784C176.825 82.504 178.114 81.355 179.481 82.072C180.657 82.691 180.879 84.12 180.304 85.233C179.778 86.259 178.369 86.963 177.261 86.389C176.262 85.871 176.131 84.376 176.474 83.424C176.528 83.275 176.351 83.091 176.199 83.155Z" fill="#EB4799"/>
<path d="M183.82 83.3473C181.325 86.4003 189.762 90.7093 191.141 86.2753C191.827 84.0723 189.642 82.4233 187.781 81.9113C186.166 81.4683 182.602 82.3763 183.623 84.7473C183.739 85.0193 184.087 85.0943 184.259 84.8233C185.029 83.6113 185.87 82.7393 187.455 83.1553C188.503 83.4303 190.606 84.9503 189.299 86.1693C188.503 86.9103 186.998 86.4793 186.163 85.9943C185.091 85.3743 184.897 84.5653 184.457 83.5073C184.358 83.2713 184.02 83.1023 183.82 83.3473Z" fill="#EB4799"/>
<path d="M198.903 68.8726C198.454 71.8006 198.645 74.9366 198.855 77.8836C198.957 79.3586 199.121 80.8326 199.309 82.2996C199.429 83.2126 199.337 85.1746 200.105 85.8116C200.537 86.1666 201.042 86.1556 201.466 85.7946C202.968 84.5196 200.692 82.3946 199.558 81.8176C197.919 80.9816 195.965 81.2746 194.968 82.9126C194.074 84.3886 194.541 86.1556 196.195 86.8236C197.984 87.5466 200.054 86.6286 201.134 85.1226C201.332 84.8476 200.997 84.5246 200.715 84.5936C199.465 84.9006 196.602 86.8126 195.886 84.7476C195.492 83.6086 196.602 82.6246 197.73 82.7216C198.274 82.7686 198.747 83.0406 199.145 83.4106C199.325 83.5796 199.98 84.5486 200.09 84.4516C200.543 84.4466 200.997 84.4406 201.449 84.4356C201.347 84.3546 201.249 82.8106 201.213 82.5806C201.108 81.9296 201.012 81.2776 200.925 80.6246C200.749 79.3386 200.611 78.0466 200.47 76.7556C200.192 74.1766 200.198 71.5526 199.837 68.9876C199.77 68.5156 198.993 68.2896 198.903 68.8726Z" fill="#EB4799"/>
<path d="M214.835 82.4528C215.391 84.4998 216.189 87.8598 214.278 89.4618C213.381 90.2118 212.13 90.3708 211.008 90.1838C210.026 90.0208 208.522 89.6198 207.807 88.9238C207.597 88.7218 207.187 88.7458 207.056 89.0298C206.418 90.3778 208.545 91.0648 209.467 91.4508C211.041 92.1088 212.907 92.3908 214.502 91.6388C215.998 90.9338 216.929 89.4058 217.114 87.7898C217.356 85.6668 216.307 83.9848 215.151 82.3148C215.041 82.1568 214.78 82.2558 214.835 82.4528Z" fill="#EB4799"/>
<path d="M213.886 80.6288C215.005 80.6158 214.988 78.8768 213.865 78.8898C212.746 78.9038 212.767 80.6428 213.886 80.6288Z" fill="#EB4799"/>
<path d="M217.444 83.4728C218.163 84.8448 217.965 87.0458 219.778 87.5988C221.735 88.1938 224.03 85.9028 224.155 84.0348C224.293 82.0158 221.741 80.1798 219.91 80.0588C218.647 79.9758 215.739 81.2508 216.845 82.9228C216.999 83.1528 217.295 83.2378 217.54 83.0958C218.462 82.5618 218.617 81.4768 219.978 81.7018C220.646 81.8108 221.247 82.2458 221.708 82.7178C222.405 83.4308 222.504 84.0658 221.887 84.8638C221.558 85.2898 220.835 86.1148 220.209 85.8678C219.835 85.7198 219.668 85.1688 219.53 84.8358C219.207 84.0488 218.962 83.3718 218.306 82.7918C217.831 82.3728 217.151 82.9108 217.444 83.4728Z" fill="#EB4799"/>
<path d="M226.123 68.3924C225.504 71.7054 225.555 75.0504 225.561 78.4124C225.561 79.9104 225.561 81.4104 225.765 82.8964C225.905 83.9024 225.977 85.2734 227.135 85.5534C227.293 85.5914 227.416 85.5184 227.509 85.3964C228.2 84.4694 227.47 83.0384 227.341 82.0044C227.159 80.5264 227.162 79.0244 227.123 77.5374C227.039 74.4584 226.955 71.4064 226.306 68.3904C226.285 68.2994 226.139 68.3014 226.123 68.3924Z" fill="#EB4799"/>
<path d="M226.818 80.1003C227.479 79.8993 228.856 80.1763 229.439 80.5593C230.265 81.1003 230.547 82.1353 230.295 83.0653C230.055 83.9583 229.346 84.5893 228.479 84.8583C227.766 85.0803 227.043 84.9043 226.36 85.2303C225.957 85.4223 225.801 86.0763 226.058 86.4323C226.929 87.6263 228.832 87.0343 229.906 86.3983C231.255 85.5993 232.114 84.1663 232.099 82.5903C232.088 81.1523 231.345 79.8153 230.041 79.1793C229.484 78.9093 228.856 78.7633 228.246 78.8663C227.464 78.9973 227.211 79.3803 226.725 79.9433C226.666 80.0113 226.722 80.1293 226.818 80.1003Z" fill="#EB4799"/>
<path d="M234.175 69.386C234.25 74.112 234.11 78.672 235.133 83.31C235.184 83.548 235.575 83.548 235.62 83.304C236.467 78.505 235.731 74.028 234.765 69.299C234.696 68.963 234.169 69.053 234.175 69.386Z" fill="#EB4799"/>
<path d="M236.117 87.5067C237.499 87.4897 237.478 85.3407 236.093 85.3567C234.708 85.3737 234.731 87.5237 236.117 87.5067Z" fill="#EB4799"/>
<path d="M97.3704 42.8964C95.2404 41.5654 92.1614 43.1764 91.9914 45.6644C91.8954 47.0514 92.6914 48.5344 94.1124 48.8674C94.2764 48.9054 94.4444 48.9234 94.6154 48.9274C95.5554 49.2414 96.6414 49.1814 97.5294 48.6334C99.5634 47.3764 99.3214 44.1144 97.3704 42.8964Z" fill="#EB4799"/>
<path d="M268.542 201.508C265.322 202.07 263.742 206.301 265.735 208.857C266.848 210.282 268.903 211.028 270.567 210.116C270.759 210.011 270.938 209.882 271.105 209.737C272.29 209.227 273.29 208.225 273.673 206.925C274.553 203.941 271.485 200.995 268.542 201.508Z" fill="#EB4799"/>
<path d="M275.04 221.614C271.823 222.175 270.241 226.407 272.236 228.963C273.347 230.388 275.402 231.134 277.068 230.221C277.26 230.117 277.439 229.988 277.607 229.843C278.789 229.333 279.788 228.331 280.172 227.03C281.051 224.047 277.984 221.1 275.04 221.614Z" fill="#EB4799"/>
<path d="M114.958 44.0905C113.814 42.0315 110.673 43.8115 111.289 45.8875C111.57 46.8425 112.603 47.4645 113.575 47.3295C114.258 47.2345 114.775 46.7625 114.987 46.1535C115.316 45.5235 115.299 44.7075 114.958 44.0905Z" fill="#EB4799"/>
<path d="M107.529 57.5956C107.217 56.4076 105.931 55.5676 104.753 56.0626C104.705 56.0756 104.66 56.0876 104.612 56.1036C103.544 56.4796 103.044 57.7836 103.415 58.8186C103.799 59.8856 105.007 60.3526 106.06 60.0796C107.167 59.7926 107.822 58.7036 107.529 57.5956Z" fill="#EB4799"/>
<path d="M285.644 211.165C284.31 210.287 282.335 210.591 281.626 212.093C281.59 212.145 281.554 212.198 281.524 212.254C280.815 213.546 281.467 215.239 282.724 215.92C284.02 216.622 285.596 216.024 286.377 214.846C287.201 213.607 286.889 211.984 285.644 211.165Z" fill="#EB4799"/>
<path d="M323.562 134.919C322.084 130.585 317.956 127.794 313.377 128.017C310.921 128.136 308.618 129.163 306.807 130.814C305.479 132.026 304.153 133.783 303.899 135.639C303.531 136.342 303.381 137.195 303.27 137.956C303.088 139.226 303.202 140.465 303.579 141.69C303.8 142.411 304.093 143.12 304.456 143.798C303.71 144.356 303.148 145.492 302.762 146.173C301.978 147.554 301.036 148.842 300.198 150.19L300.204 150.193C299.946 150.723 300.634 151.323 301.065 150.956C301.314 151.226 301.559 151.171 302.001 151.167C302.618 151.159 303.238 151.171 303.857 151.188C304.012 152.176 304.198 153.16 304.411 154.138C304.467 154.393 304.779 154.492 305 154.432C306.011 154.155 306.962 153.766 307.926 153.372C308.016 153.855 308.106 154.336 308.205 154.817C308.336 155.444 308.33 155.962 308.85 156.359C308.979 156.457 309.192 156.454 309.266 156.284L309.285 156.238C309.799 156.187 310.11 155.699 310.424 155.291C310.924 154.634 311.381 153.938 311.861 153.264C312.297 152.647 312.747 152.038 313.156 151.401C313.485 150.892 313.925 150.386 313.97 149.787C316.142 149.769 318.299 149.048 320.049 147.578C323.62 144.58 325.071 139.33 323.562 134.919ZM312.121 150.685C311.681 151.3 311.283 151.943 310.871 152.579C310.424 153.273 309.943 153.957 309.524 154.668C309.44 154.808 309.35 154.952 309.269 155.098C309.251 155.031 309.231 154.961 309.209 154.886C309.012 154.143 308.827 153.398 308.653 152.649C308.584 152.355 308.237 152.319 308.016 152.428C307.13 152.866 306.166 153.159 305.209 153.417C305.03 152.511 304.877 151.601 304.751 150.685C304.712 150.405 304.518 150.244 304.24 150.232C303.471 150.199 302.71 150.198 301.945 150.235C301.807 150.241 301.694 150.244 301.592 150.251C302.364 149.156 303.094 148.028 303.931 146.982C304.315 146.502 304.91 145.827 305.272 145.128C305.936 146.077 306.732 146.933 307.629 147.633C309.153 148.824 310.959 149.53 312.809 149.729C312.551 150.013 312.348 150.37 312.121 150.685ZM319.996 145.652C317.357 148.501 313.099 149.176 309.73 147.196C307.719 146.015 306.211 143.945 305.376 141.793C304.533 139.617 305.008 137.469 305.114 135.217C305.125 135.002 304.964 134.876 304.782 134.844C305.359 133.624 306.367 132.525 307.289 131.68C308.725 130.361 310.556 129.462 312.498 129.222C316.465 128.731 320.352 130.807 321.958 134.503C323.559 138.189 322.718 142.716 319.996 145.652Z" fill="#EB4799"/>
<path d="M318.536 138.672C318.183 138.362 317.83 138 317.429 137.735C317.639 136.342 317.884 134.96 318.198 133.586C318.285 133.205 317.836 132.906 317.513 133.118C316.376 133.867 315.054 134.532 314.021 135.443C313.608 135.125 313.105 134.916 312.641 134.681C312.05 134.38 311.481 134.07 310.819 133.96C310.401 133.89 310.101 134.255 310.2 134.652C310.461 135.674 310.679 136.696 310.874 137.732C310.889 137.808 310.915 137.872 310.945 137.931C310.18 138.901 309.222 139.636 308.279 140.432C307.863 140.784 307.966 141.702 308.665 141.589C309.476 141.458 310.29 141.34 311.104 141.224C311.634 141.148 312.225 141.104 312.725 140.886C312.708 141.437 312.896 142.021 313.021 142.539C313.217 143.332 313.408 144.125 313.587 144.92C313.74 145.604 314.626 145.366 314.799 144.85C315.194 143.678 315.515 142.516 316.134 141.441C316.199 141.446 316.268 141.446 316.346 141.431C317.382 141.229 318.41 141.052 319.455 140.912C319.861 140.857 320.077 140.448 319.867 140.086C319.538 139.513 319.027 139.102 318.536 138.672ZM316.122 140.275C315.841 140.304 315.679 140.462 315.616 140.652C315.538 140.689 315.47 140.755 315.425 140.855C315.104 141.554 314.719 142.229 314.356 142.911C314.281 142.664 314.204 142.418 314.12 142.173C313.907 141.562 313.671 140.819 313.159 140.401L313.085 140.361L313.021 140.307C312.435 139.988 311.684 140.041 311.032 140.071C310.765 140.083 310.503 140.104 310.236 140.127C310.733 139.538 311.218 138.934 311.744 138.378C311.822 138.297 311.858 138.21 311.864 138.123C312.022 137.997 312.112 137.787 312.031 137.506C311.822 136.767 311.625 136.029 311.442 135.285C312.292 135.658 313.097 136.222 314.018 136.293C314.177 136.305 314.306 136.233 314.371 136.127C315.302 135.719 316.176 135.109 317.034 134.518C316.767 135.547 316.508 136.576 316.263 137.61C316.182 137.953 316.4 138.188 316.666 138.269C317.097 138.943 317.827 139.421 318.413 139.993C317.65 140.103 316.89 140.194 316.122 140.275Z" fill="#EB4799"/>
<path d="M302.71 130.376C301.235 129.115 298.919 128.618 297.053 128.317C295.138 128.008 292.831 127.755 290.961 128.395C290.605 128.517 290.683 128.998 291.048 129.033C291.993 129.126 292.953 129.025 293.905 129.058C294.916 129.092 295.931 129.189 296.927 129.361C297.815 129.514 298.695 129.725 299.557 129.984C300.505 130.27 301.457 130.688 302.432 130.857C302.687 130.901 302.953 130.582 302.71 130.376Z" fill="#EB4799"/>
<path d="M309.099 123.216C308.953 122.435 308.537 121.672 308.287 120.912C308.045 120.175 307.803 119.446 307.623 118.692C307.432 117.895 307.313 117.091 307.223 116.277C307.154 115.654 307.235 114.976 306.786 114.503C306.663 114.374 306.448 114.382 306.325 114.503C305.834 114.985 305.933 115.784 305.954 116.431C305.987 117.308 306.127 118.197 306.307 119.055C306.624 120.557 307.193 122.566 308.339 123.66C308.683 123.99 309.183 123.653 309.099 123.216Z" fill="#EB4799"/>
<path d="M322.548 114.708C321.629 115.863 320.971 117.184 320.363 118.526C319.816 119.739 319.038 121.258 319.074 122.608C319.086 123.196 319.78 123.301 320.097 122.886C320.884 121.857 321.24 120.298 321.725 119.1C322.257 117.789 322.903 116.52 323.361 115.182C323.514 114.739 322.853 114.325 322.548 114.708Z" fill="#EB4799"/>
<path d="M332.601 125.381C331.838 125.658 331.063 125.854 330.309 126.162C329.6 126.453 328.909 126.774 328.212 127.095C327.467 127.438 326.734 127.784 326.019 128.177C325.367 128.534 324.655 128.816 324.11 129.327C323.801 129.618 324.017 130.293 324.487 130.234C325.902 130.056 327.401 129.207 328.685 128.592C329.42 128.24 330.16 127.896 330.88 127.514C331.608 127.128 332.254 126.653 332.96 126.238C333.406 125.978 333.113 125.195 332.601 125.381Z" fill="#EB4799"/>
<path d="M336.838 141.356C335.32 141.126 333.768 140.915 332.29 140.49C331.59 140.289 330.913 140.044 330.237 139.775C329.495 139.482 328.759 138.981 327.984 138.814C327.434 138.697 327.141 139.293 327.467 139.703C327.957 140.323 328.828 140.715 329.522 141.072C330.264 141.454 331.078 141.752 331.877 141.985C333.525 142.464 335.138 142.653 336.838 142.417C337.364 142.343 337.361 141.436 336.838 141.356Z" fill="#EB4799"/>
<path d="M329.358 158.04C328.813 156.321 327.934 154.78 326.857 153.337C325.95 152.121 324.652 150.367 323.15 149.888C322.707 149.747 322.386 150.259 322.578 150.632C322.922 151.295 323.584 151.828 324.095 152.367C324.661 152.962 325.202 153.577 325.716 154.217C326.767 155.519 327.631 156.975 328.49 158.406C328.759 158.856 329.526 158.566 329.358 158.04Z" fill="#EB4799"/>
<path d="M377.907 58.7007C377.883 56.3727 375.531 54.1047 373.204 53.9787C373.742 53.2257 374.245 52.4407 374.747 51.6897C375.196 51.0127 375.618 50.3257 376.004 49.6097C376.189 49.2657 376.363 48.9147 376.557 48.5757C376.578 48.5417 376.599 48.5067 376.62 48.4727C376.997 49.5097 378.182 50.4447 379.023 50.9837C380.016 51.6177 381.249 51.9247 382.41 51.6667C383.825 51.3517 383.344 49.0997 381.952 49.4727C381.195 49.6767 380.483 49.3877 379.798 49.0607C378.891 48.6297 378.146 47.7787 377.219 47.4417C377.114 47.4027 377.01 47.4017 376.917 47.4267C376.895 47.4217 376.869 47.4187 376.842 47.4207C376.222 47.4717 375.815 48.2297 375.474 48.6817C374.963 49.3647 374.439 50.0367 373.919 50.7127C372.868 52.0777 371.633 53.2507 370.528 54.5637C369.906 55.3057 371.16 56.4027 371.827 55.6897L371.83 55.6857C373.053 55.6487 374.181 55.9847 375.019 56.9717C375.834 57.9297 375.974 59.1577 375.157 60.1637C374.421 61.0697 373.179 61.3057 372.069 61.2067C371.456 61.1517 370.825 60.9737 370.299 60.6547C370.023 60.4897 369.79 60.2807 369.604 60.0217C369.406 59.7497 369.332 59.3827 369.11 59.1317C368.688 58.6577 367.976 58.8337 367.763 59.4117C367.521 60.0667 367.889 60.9117 368.272 61.4317C369.179 62.6677 370.851 63.2737 372.33 63.4087C375.073 63.6587 377.936 61.6217 377.907 58.7007Z" fill="#EB4799"/>
<path d="M386.201 63.8199C385.797 63.1469 385.007 62.7109 384.325 62.2939C384.753 61.6599 385.264 60.9969 385.333 60.2299C385.336 60.1779 385.276 60.1389 385.231 60.1639C384.555 60.5329 384.151 61.2669 383.741 61.9129C383.113 61.4849 382.377 60.9699 381.653 60.9539C381.462 60.9499 381.336 61.1419 381.417 61.3149C381.716 61.9639 382.47 62.4299 383.107 62.8309C382.733 63.3629 382.374 63.9139 382.224 64.5359C382.18 64.7189 382.377 64.8479 382.526 64.7339C383.035 64.3459 383.397 63.7999 383.735 63.2449C384.385 63.6989 385.091 64.2379 385.859 64.3379C386.12 64.3719 386.333 64.0429 386.201 63.8199Z" fill="#EB4799"/>
<path d="M400.655 64.0842C400.742 63.6082 400.464 63.2632 400.053 63.0682C399.602 62.8562 399.117 62.7552 398.677 62.5122C398.241 62.2712 397.825 61.9762 397.451 61.6462C396.678 60.9682 396.104 60.1082 395.353 59.4132C394.614 58.7292 393.669 58.1452 392.628 58.1572C391.673 58.1682 390.823 58.5972 390.551 59.5442C390.395 60.0932 390.946 60.5432 391.458 60.3212C392.113 60.0362 392.783 59.9212 393.438 60.2882C394.192 60.7112 394.713 61.4612 395.288 62.0882C395.895 62.7522 396.687 63.5162 397.567 64.0672C397.502 64.0782 397.442 64.0872 397.394 64.0962C396.774 64.2072 396.149 64.2842 395.539 64.4352C394.177 64.7712 393.025 65.5222 391.925 66.3652C391.601 66.6142 391.278 66.8682 390.964 67.1282L390.878 67.0732C390.752 66.9892 389.202 65.8312 389.115 66.4912C389.05 66.9952 389.708 67.4122 390.263 67.7242C388.499 69.2782 386.952 71.0732 386.063 73.2842C385.704 74.1712 387.158 74.6542 387.487 73.7422C388.251 71.6402 389.731 69.9252 391.385 68.4392C391.969 68.8612 392.592 69.3082 393.264 69.4132C393.454 69.4422 393.618 69.1902 393.513 69.0292C393.211 68.5532 392.759 68.3052 392.296 68.0012L392.065 67.8502C392.346 67.6142 392.628 67.3842 392.912 67.1582C393.944 66.3382 395.039 65.7562 396.341 65.5082C396.925 65.3962 397.516 65.3222 398.1 65.1982C398.588 65.0952 399.126 64.8072 399.623 64.8142C399.659 64.8172 399.695 64.8192 399.73 64.8212C400.176 64.8692 400.577 64.4992 400.655 64.0842Z" fill="#EB4799"/>
<path d="M413.093 58.3573C411.162 53.0203 406.998 48.7383 402.387 45.5833C397.366 42.1463 391.454 39.3503 385.242 39.5863C379.726 39.7953 374.334 41.9303 369.699 44.8473C360.846 50.4183 354.192 59.5623 351.962 69.8153C351.681 71.1103 351.534 72.4053 351.475 73.7283C351.472 73.8013 351.511 73.8603 351.562 73.9013C351.54 74.0733 351.526 74.2463 351.52 74.4213C351.504 74.8333 352.16 75.0343 352.268 74.5873C352.92 71.8743 355.236 69.9823 357.896 69.3613C360.822 68.6793 363.88 69.5933 366.575 70.7063C372.737 73.2493 378.373 76.9113 384.614 79.2873C389.644 81.2013 395.038 82.1823 400.392 81.2083C405.14 80.3443 409.694 77.8433 412.165 73.5733C414.828 68.9703 414.876 63.2793 413.093 58.3573ZM410.804 72.6003C408.315 76.8733 403.683 79.0783 398.913 79.6643C393.396 80.3413 388.058 78.8733 383.029 76.6873C379.729 75.2523 376.563 73.5303 373.343 71.9203C370.333 70.4163 367.249 68.8173 363.966 67.9983C361.204 67.3103 358.161 67.2113 355.583 68.5783C354.321 69.2473 353.207 70.2223 352.465 71.4133C353.567 67.1543 355.08 63.0463 357.387 59.2543C360.05 54.8803 363.532 51.0013 367.629 47.9233C371.883 44.7233 376.919 42.2803 382.194 41.3833C388.417 40.3263 394.183 42.2903 399.473 45.4943C404.227 48.3723 408.608 52.2743 410.977 57.3883C413.155 62.0863 413.473 68.0223 410.804 72.6003Z" fill="#EB4799"/>
<path d="M383.63 110.21C384.001 108.848 384.399 107.493 384.806 106.14C385.192 104.855 385.577 103.57 385.99 102.292C386.398 101.024 387.026 99.6343 387.086 98.2933C387.104 97.9303 386.655 97.7153 386.412 98.0203C385.616 99.0223 385.222 100.387 384.785 101.576C384.274 102.964 383.774 104.358 383.318 105.766C382.885 107.106 382.475 108.456 382.083 109.81C381.739 110.998 381.087 112.423 381.317 113.672C381.422 114.232 382.191 114.322 382.421 113.871C383.178 112.881 383.31 111.384 383.63 110.21Z" fill="#EB4799"/>
<path d="M390.569 95.6395C388.87 94.6695 386.096 95.1875 384.264 95.5025C382.227 95.8525 380.097 96.4755 378.371 97.6385C378.081 97.8345 378.293 98.3515 378.639 98.2745C380.65 97.8255 382.601 97.2185 384.654 96.9445C385.707 96.8045 386.757 96.7605 387.819 96.7405C388.741 96.7235 389.695 96.8085 390.575 96.5065C391.008 96.3575 390.883 95.8195 390.569 95.6395Z" fill="#EB4799"/>
<path d="M390.369 109.982C389.375 109.425 388.071 109.604 387.224 110.25C387.119 110.249 387.009 110.279 386.901 110.356C385.186 111.588 384.734 114.201 386.135 115.848C387.481 117.436 390.043 117.531 391.306 115.807C392.637 113.991 392.442 111.146 390.369 109.982ZM389.555 115.308C388.66 115.764 387.431 115.204 387.032 114.34C386.832 113.908 386.796 113.446 386.862 112.989C387.039 113.004 387.222 112.924 387.281 112.737C387.667 111.524 388.998 110.804 390.072 111.768C391.09 112.684 390.769 114.686 389.555 115.308Z" fill="#EB4799"/>
<path d="M402.871 118.68H402.859C402.895 118.601 402.926 118.517 402.943 118.418C403.736 113.253 404.957 108.171 405.789 103.018C405.869 102.532 405.118 102.34 404.948 102.804C403.509 106.685 402.6 110.786 401.86 114.883C401.609 114.605 401.312 114.362 400.963 114.166C399.538 113.371 397.71 113.677 396.834 115.115C394.787 118.47 400.508 120.899 402.994 119.539C403.353 119.343 403.362 118.711 402.871 118.68ZM398.052 116.593C397.839 115.43 399.275 115.066 400.077 115.485C401.088 116.013 401.334 117.185 401.286 118.225C401.28 118.325 401.295 118.413 401.315 118.498C399.912 118.255 398.258 117.727 398.052 116.593Z" fill="#EB4799"/>
<path d="M409.685 117.702C408.886 117.377 408.003 117.497 407.328 118.003C407.241 117.95 407.132 117.941 407.037 118.025C405.745 119.135 405.062 121.218 406.13 122.715C407.315 124.373 409.84 124.261 411.001 122.649C412.186 120.999 411.626 118.492 409.685 117.702ZM409.197 122.261C408.276 122.752 407.112 122.213 406.92 121.184C406.887 121.008 406.875 120.831 406.878 120.654C407.103 120.754 407.411 120.649 407.5 120.408C407.663 119.972 407.806 119.592 408.243 119.352C408.706 119.097 409.245 119.214 409.619 119.579C410.388 120.334 410.13 121.765 409.197 122.261Z" fill="#EB4799"/>
<path d="M386.73 128.711C389.297 128.451 391.586 127.239 394.246 127.376C397.247 127.529 398.716 129.378 400.176 131.762C401.307 133.608 402.609 135.204 404.742 135.89C407.16 136.668 409.739 136.158 412.222 136.324C415.023 136.512 417.715 137.545 419.915 139.289C421.83 140.806 423.227 143.075 425.632 143.899C427.413 144.51 429.202 144.082 430.94 143.558C433.403 142.814 435.536 142.255 437.965 143.473C442.322 145.658 444.967 150.579 450.17 151.042C450.691 151.088 450.748 150.37 450.263 150.254C445.643 149.153 442.878 144.768 438.86 142.583C437.13 141.643 435.222 141.271 433.265 141.482C431.066 141.72 428.552 142.876 426.341 142.149C423.855 141.329 422.269 138.454 420.13 136.99C418.123 135.617 415.789 134.702 413.377 134.363C410.541 133.964 407.171 134.912 404.566 133.484C402.384 132.291 401.672 129.613 400.081 127.838C398.414 125.984 396.107 125.19 393.645 125.238C391.221 125.287 388.158 125.923 386.131 127.298C385.441 127.768 385.988 128.786 386.73 128.711Z" fill="#EB4799"/>
<path d="M444.273 157.327C443.558 155.064 441.846 152.931 440.099 151.365C438.384 149.832 436.236 148.885 433.909 149.095C431.643 149.3 429.624 150.532 427.368 150.763C424.822 151.023 422.305 149.938 420.663 148C419.265 146.351 418.308 144.319 416.579 142.963C414.835 141.596 412.686 141.397 410.546 141.469C408.26 141.546 405.867 141.932 403.712 140.926C401.242 139.769 399.581 137.442 397.69 135.565C395.91 133.796 393.741 132.112 391.117 132.066C389.1 132.032 387.062 132.928 386.285 134.877C386.126 135.268 386.715 135.641 386.949 135.258C388.094 133.397 390.509 132.839 392.52 133.488C394.946 134.271 396.585 136.36 398.231 138.177C399.743 139.844 401.382 141.541 403.503 142.408C405.419 143.19 407.489 143.086 409.508 142.98C411.567 142.872 413.814 142.739 415.555 144.04C417.246 145.301 418.159 147.317 419.499 148.897C420.86 150.502 422.659 151.613 424.723 152.057C426.799 152.504 428.759 152.069 430.734 151.408C433.319 150.543 435.718 150.027 438.148 151.65C440.502 153.223 441.678 155.751 443.609 157.715C443.917 158.029 444.411 157.762 444.273 157.327Z" fill="#EB4799"/>
<path d="M397.372 191.03C394.401 189.494 390.473 189.805 388.052 192.214C386.383 193.872 385.955 196.332 384.356 198.051C383.531 198.939 382.525 199.646 381.523 200.318C380.758 200.832 380.123 201.371 379.462 201.985C379.384 201.952 379.307 201.923 379.22 201.903C379.157 201.888 379.094 201.889 379.034 201.898C379.393 201.283 378.924 200.321 377.993 200.586C376.934 200.886 376.314 201.737 375.797 202.656C375.479 203.215 375.052 203.585 374.692 204.093C374.475 204.405 374.379 204.767 374.42 205.143C374.516 206.061 374.875 207.384 375.443 208.12C376.024 208.872 377.218 208.934 378.08 209.134C379.198 209.393 380.078 209.711 381.155 209.196C381.87 208.854 382.302 208.447 382.182 207.618V207.617C384.3 206.868 386.556 206.111 388.818 206.36C391.182 206.62 393.252 207.951 395.696 207.541C399.272 206.94 401.836 203.496 402.231 200.023C402.638 196.453 400.556 192.676 397.372 191.03ZM378.354 202.346C378.441 202.33 378.522 202.304 378.594 202.273L378.573 202.331C378.402 203.01 378.744 203.399 379.07 203.987C379.411 204.608 379.713 205.25 379.991 205.902C380.15 206.275 380.856 207.552 380.73 207.927C380.596 208.332 380.201 208.382 379.821 208.328C379.366 207.999 379.097 207.49 378.843 206.969C378.531 206.328 378.253 205.807 377.802 205.253C377.699 205.127 377.457 205.137 377.431 205.327C377.319 206.14 377.499 207.092 377.942 207.825C377.64 207.735 377.347 207.632 377.092 207.494C376.437 207.142 376.222 206.122 376.015 205.447C375.839 204.861 375.8 204.829 376.338 204.444C376.574 204.274 376.82 204.1 377.02 203.886C377.415 203.466 377.721 202.469 378.354 202.346ZM397.423 192.39C400.648 194.348 401.974 198.578 400.49 202.018C399.802 203.615 398.536 204.948 396.905 205.594C394.993 206.352 393.285 206.004 391.382 205.436C388.049 204.443 385 205.154 381.838 206.25C381.601 205.548 381.287 204.854 380.994 204.221C380.71 203.611 380.443 202.82 379.952 202.327C380.841 202.105 381.596 201.84 382.448 201.348C383.292 200.86 384.072 200.284 384.788 199.618C385.551 198.908 386.194 198.099 386.709 197.192C387.34 196.077 387.726 194.817 388.489 193.776C390.515 191.009 394.616 190.685 397.423 192.39Z" fill="#EB4799"/>
<path d="M394.489 202.999C394.596 203.06 394.537 203.199 394.423 203.191C392.771 203.068 391.066 203.411 389.435 203.102C389.231 203.063 389.177 202.784 389.348 202.669C390.907 201.604 392.971 202.13 394.489 202.999Z" fill="#EB4799"/>
<path d="M393.707 199.959C392.346 200.864 390.667 201.721 388.994 201.699C388.716 201.695 388.54 201.39 388.728 201.161C389.883 199.755 391.96 199.399 393.665 199.743C393.764 199.763 393.794 199.902 393.707 199.959Z" fill="#EB4799"/>
<path d="M392.202 197.292C391.302 198.381 390.32 199.214 388.914 199.519C388.591 199.589 388.201 199.211 388.504 198.916C389.446 198.002 390.512 197.343 391.57 196.581C392.019 196.258 392.543 196.879 392.202 197.292Z" fill="#EB4799"/>
<path d="M405.804 183.446C405.992 183.054 405.514 182.704 405.194 182.999C404.209 183.913 403.441 185.129 402.635 186.2C401.866 187.222 401.005 188.259 400.496 189.439C400.344 189.793 400.742 190.083 401.034 189.833C402.013 188.997 402.749 187.871 403.5 186.834C404.287 185.748 405.221 184.657 405.804 183.446Z" fill="#EB4799"/>
<path d="M411.567 190.478C410.37 190.68 409.149 191.683 408.135 192.319C407.025 193.015 405.945 193.737 404.924 194.555C404.569 194.841 405.039 195.303 405.388 195.137C406.648 194.539 407.838 193.823 409.015 193.072C409.987 192.453 411.244 191.866 411.921 190.915C412.09 190.672 411.789 190.441 411.567 190.478Z" fill="#EB4799"/>
<path d="M414.158 203.17C413.353 202.475 411.968 202.384 410.957 202.12C409.715 201.797 408.473 201.474 407.232 201.151C406.651 200.999 406.448 201.892 407.022 202.058C408.255 202.416 409.488 202.775 410.72 203.134C411.728 203.427 412.94 204.037 413.991 203.854C414.29 203.802 414.374 203.357 414.158 203.17Z" fill="#EB4799"/>
<path d="M114.108 113.625C111.204 116.697 106.769 117.111 103.639 119.87C103.232 120.229 103.771 120.938 104.226 120.628C107.61 118.319 112.583 118.112 115.266 114.784C115.916 113.981 114.85 112.843 114.108 113.625Z" fill="#EB4799"/>
<path d="M107.92 112.594C107.714 112.403 107.457 112.282 107.169 112.282C106.898 112.282 106.609 112.401 106.415 112.594C106.314 112.69 106.239 112.804 106.197 112.936C106.131 113.063 106.102 113.199 106.105 113.346C106.116 113.621 106.209 113.906 106.415 114.098C106.625 114.289 106.879 114.409 107.169 114.409C107.441 114.409 107.729 114.291 107.92 114.098C108.025 114.001 108.097 113.887 108.142 113.756C108.208 113.629 108.237 113.492 108.232 113.346C108.22 113.071 108.13 112.785 107.92 112.594Z" fill="#EB4799"/>
<path d="M112.819 121.236C112.819 121.109 112.786 120.991 112.723 120.882C112.667 120.708 112.571 120.557 112.433 120.43C112.338 120.357 112.245 120.283 112.149 120.21L111.814 120.069C111.629 120.01 111.44 120.002 111.255 120.044C111.129 120.044 111.008 120.076 110.898 120.139C110.724 120.196 110.575 120.293 110.446 120.43C110.375 120.525 110.299 120.619 110.228 120.714C110.18 120.826 110.132 120.937 110.088 121.049C110.027 121.236 110.018 121.423 110.06 121.61C110.06 121.736 110.093 121.854 110.156 121.964C110.213 122.138 110.311 122.288 110.446 122.416C110.542 122.489 110.637 122.562 110.73 122.635C110.844 122.682 110.955 122.729 111.066 122.777C111.317 122.843 111.565 122.843 111.814 122.777L111.826 122.774C111.9 122.771 111.975 122.761 112.05 122.74C112.223 122.693 112.37 122.606 112.499 122.48C112.625 122.354 112.712 122.205 112.759 122.033C112.777 121.958 112.789 121.882 112.792 121.807L112.795 121.796C112.852 121.61 112.861 121.423 112.819 121.236Z" fill="#EB4799"/>
<path d="M99.6958 121.502C98.3738 119.772 96.9428 118.124 95.3928 116.593C95.3338 116.534 95.2678 116.495 95.2018 116.472C95.0888 116.356 94.9478 116.256 94.7798 116.181C93.9718 115.815 93.2358 116.357 92.8048 117.031C91.5928 118.932 91.0928 122.068 92.8298 123.794C94.3608 125.315 96.7128 124.806 97.5388 122.839C97.8138 122.186 97.8848 121.554 97.8168 120.945C98.4158 121.714 98.9838 122.503 99.5188 123.317C100.172 124.313 100.905 125.557 100.689 126.798C100.54 127.669 99.6478 128.609 98.7228 128.34C98.6338 128.12 98.5288 127.91 98.4158 127.687C98.2148 127.294 97.5238 127.366 97.4398 127.814C97.3078 128.523 97.1078 129.24 97.8018 129.683C98.3998 130.063 99.1448 130.075 99.7998 129.858C101.177 129.403 102.129 128.026 102.132 126.592C102.134 124.643 100.818 122.974 99.6958 121.502ZM96.7488 120.99C96.8388 122.096 96.1978 123.579 94.9388 123.648C93.3288 123.736 92.6198 121.83 92.6468 120.537C92.6618 119.848 92.8328 119.168 93.0498 118.517C93.1738 118.154 93.2958 117.765 93.4998 117.437C93.6668 117.166 94.1778 116.889 94.5638 116.865C94.5348 117.004 94.5638 117.16 94.6898 117.297C95.6298 118.322 96.6298 119.542 96.7488 120.99Z" fill="#EB4799"/>
<path d="M125.346 109.852C124.933 108.36 123.706 106.723 122.016 106.669C121.459 106.651 120.939 106.808 120.502 107.081C120.17 105.391 119.293 103.761 117.492 103.832C115.37 103.915 114.638 106.494 116.253 107.773C116.472 107.947 116.756 107.678 116.565 107.46C115.386 106.125 117.229 104.087 118.48 105.502C119.189 106.302 119.36 107.601 119.353 108.718C119.308 108.944 119.299 109.182 119.324 109.426V109.438H119.326C119.332 109.497 119.335 109.555 119.347 109.614C119.488 110.394 120.586 110.133 120.646 109.438C120.663 109.201 120.673 108.94 120.669 108.665C120.984 107.918 122.265 107.803 122.908 108.246C123.76 108.834 124.167 110.026 124.206 111.019C124.245 112.004 123.916 113.119 122.964 113.569C122.567 113.756 122.103 113.852 121.672 113.76C121.484 113.72 121.322 113.653 121.163 113.587C121.121 113.368 120.865 113.178 120.655 113.337V113.418C120.625 113.412 120.592 113.408 120.562 113.406L120.496 113.397L120.505 113.405C120.125 113.41 119.826 113.742 119.922 114.15C120.331 115.875 123.025 115.413 124.051 114.631C125.49 113.535 125.801 111.512 125.346 109.852Z" fill="#EB4799"/>
<path d="M78.4398 151.581C74.1948 149.664 69.7518 148.541 65.2148 147.55C62.9118 147.047 60.6138 146.495 58.3908 145.7C56.2518 144.935 54.2378 143.582 51.9938 143.182C51.6498 143.121 51.3178 143.463 51.5178 143.8C52.6818 145.737 54.9378 146.598 56.9748 147.342C59.1808 148.149 61.5028 148.647 63.8058 149.085C68.6478 150.003 73.6708 150.221 78.3988 151.678C78.4558 151.695 78.4948 151.606 78.4398 151.581Z" fill="#EB4799"/>
<path d="M46.3959 139.052C45.7259 137.237 44.7899 135.531 43.7839 133.885C42.9879 132.586 42.2189 130.682 40.7349 130.081C40.5129 129.99 40.3069 130.215 40.2979 130.416C40.2089 132.033 41.7399 133.637 42.5869 134.915C43.6039 136.451 44.7229 137.956 46.0249 139.267C46.1739 139.415 46.4729 139.266 46.3959 139.052Z" fill="#EB4799"/>
<path d="M30.7231 95.8532C30.6851 95.6982 30.4491 95.6112 30.3371 95.7502C28.9911 97.4362 28.9371 99.6872 28.7671 101.762C28.5731 104.124 28.6891 106.548 29.2181 108.862C29.2631 109.053 29.5951 109.072 29.6251 108.862C29.9211 106.693 30.1281 104.502 30.3401 102.324C30.5531 100.191 31.2771 97.9752 30.7231 95.8532Z" fill="#EB4799"/>
<path d="M37.1683 74.8999C35.4533 76.3309 34.4603 78.8539 33.6023 80.8639C32.7553 82.8449 32.0813 84.9359 31.8993 87.0939C31.8873 87.2329 32.0913 87.2749 32.1533 87.1629C33.2573 85.2249 34.1583 83.1699 35.2233 81.2109C36.2233 79.3679 37.7003 77.5869 38.3613 75.5959C38.6073 74.8609 37.6713 74.4799 37.1683 74.8999Z" fill="#EB4799"/>
<path d="M65.1411 25.0715C63.6621 25.5585 62.7471 26.1165 61.5651 27.1885C60.3541 28.2875 59.1991 29.4465 58.1211 30.6775C56.2341 32.8375 53.9711 35.4375 53.4181 38.3315C53.4001 38.4245 53.5041 38.4885 53.5771 38.4235C55.7791 36.4385 57.2721 33.6815 59.3001 31.5085C60.3031 30.4335 61.3651 29.4065 62.4901 28.4595C63.0521 27.9875 63.6681 27.5665 64.2101 27.0715C64.7481 26.5765 65.0061 26.0245 65.4371 25.4575C65.5781 25.2735 65.3441 25.0045 65.1411 25.0715Z" fill="#EB4799"/>
<path d="M78.3928 18.0704C77.5158 18.1004 76.6158 18.4184 75.8338 18.8094C75.2328 19.1114 74.2508 19.6274 74.1018 20.3404C74.0718 20.4804 74.1638 20.6194 74.3138 20.6194C74.9758 20.6234 75.6428 20.0394 76.2468 19.7914C77.0008 19.4854 77.7608 19.3594 78.5418 19.1654C79.1468 19.0154 79.0268 18.0484 78.3928 18.0704Z" fill="#EB4799"/>
<path d="M244.028 79.6846C243.702 79.5796 243.562 80.0276 243.81 80.2036C246.542 82.1466 244.744 85.5166 242.721 87.1026C240.549 88.8096 237.994 90.1306 235.519 91.3366C230.199 93.9306 224.553 95.7646 218.752 96.9186C206.263 99.4026 193.385 98.7046 180.882 96.7066C174.733 95.7256 168.569 94.5576 162.583 92.8296C159.576 91.9596 156.607 90.9296 153.747 89.6546C151.42 88.6186 148.741 87.3576 147.359 85.0986C143.924 79.4846 153.513 75.1246 157.496 73.5566C162.552 71.5646 167.953 70.6126 173.309 69.8396C179.877 68.8916 186.495 68.0166 193.132 67.7776C199.973 67.5316 206.604 68.3276 213.199 70.1556C213.447 70.2246 213.618 69.8546 213.378 69.7326C207.577 66.7546 200.91 66.1286 194.477 66.1956C187.832 66.2656 181.199 67.2396 174.629 68.1596C168.588 69.0056 162.51 70.0766 156.856 72.4456C154.139 73.5826 151.55 75.0136 149.223 76.8256C147.308 78.3186 145.396 80.3566 145.567 82.9706C145.92 88.3176 153.268 90.7306 157.382 92.2456C163.854 94.6286 170.658 96.0416 177.432 97.2596C191.153 99.7256 205.336 100.894 219.126 98.2736C226.253 96.9186 233.245 94.5656 239.552 90.9486C242.042 89.5206 245.195 87.8456 246.171 84.9316C246.859 82.8726 246.24 80.3976 244.028 79.6846Z" fill="#EB4799"/>
<path d="M182.495 44.432C181.681 41.808 181.022 39.082 179.975 36.54C179.799 36.109 179 36.093 179.065 36.663C179.391 39.437 180.251 42.163 181.053 44.829C181.857 47.494 182.683 50.239 184.032 52.688C184.257 53.097 184.816 52.802 184.742 52.389C184.263 49.683 183.306 47.051 182.495 44.432Z" fill="#EB4799"/>
<path d="M191.785 35.0731C191.704 34.7691 191.259 34.7761 191.175 35.0731C190.399 37.8751 190.681 41.1741 190.576 44.0671C190.463 47.2021 190.337 50.4461 190.705 53.5651C190.738 53.8561 191.189 53.9831 191.262 53.6411C191.901 50.6341 192.033 47.4311 192.084 44.3641C192.132 41.3961 192.539 37.9651 191.785 35.0731Z" fill="#EB4799"/>
<path d="M200.165 37.8181C198.979 39.9091 198.196 42.2611 197.579 44.5801C196.976 46.8511 196.409 49.3661 196.499 51.7261C196.52 52.2451 197.224 52.3281 197.388 51.8461C198.151 49.6401 198.566 47.2781 199.195 45.0261C199.829 42.7581 200.631 40.5401 201.224 38.2631C201.386 37.6371 200.494 37.2381 200.165 37.8181Z" fill="#EB4799"/>
<path d="M318.805 79.5678C317.087 80.6918 315.675 82.1008 314.173 83.4918C312.603 84.9418 310.771 86.2598 309.44 87.9408C309.35 88.0558 309.428 88.2878 309.605 88.2218C311.513 87.5078 313.171 86.1058 314.715 84.8028C316.435 83.3508 318.03 81.8808 319.149 79.9128C319.269 79.7018 319.024 79.4248 318.805 79.5678Z" fill="#EB4799"/>
<path d="M333.11 58.5418C331.063 59.4108 329.619 60.9318 328.284 62.6678C326.833 64.5548 326.169 66.4298 325.457 68.6638C325.432 68.7308 325.538 68.7758 325.57 68.7118C327.506 64.9448 330.747 62.1148 333.365 58.8718C333.52 58.6808 333.332 58.4478 333.11 58.5418Z" fill="#EB4799"/>
<path d="M352.693 49.1811C351.49 48.0671 349.488 48.2451 347.977 48.4511C346.2 48.6941 344.725 49.2651 343.435 50.5031C343.373 50.5631 343.435 50.6621 343.516 50.6441C345.072 50.2741 346.709 49.8431 348.306 49.7781C349.698 49.7221 351.131 50.2501 352.493 49.9371C352.819 49.8621 352.935 49.4081 352.693 49.1811Z" fill="#EB4799"/>
<path d="M413.67 79.4753C413.521 79.3643 413.272 79.5513 413.344 79.7253C414.092 81.5543 415.043 83.2903 415.65 85.1773C416.222 86.9543 416.416 88.8343 417.228 90.5293C417.335 90.7533 417.634 90.6563 417.709 90.4663C419.082 86.8823 416.554 81.6463 413.67 79.4753Z" fill="#EB4799"/>
<path d="M423.499 100.426C422.305 101.401 421.225 102.564 420.168 103.686C419.785 104.093 418.93 105.331 418.122 105.956C418.721 104.483 419.118 102.916 419.295 101.344C419.507 99.452 419.72 97.162 418.879 95.391C418.759 95.137 418.347 95.208 418.283 95.469C417.877 97.19 418.122 99.06 417.912 100.82C417.697 102.632 417.305 104.38 416.868 106.14C416.485 105.742 416.207 104.447 416.01 103.953C415.8 103.434 415.588 102.917 415.372 102.4C414.854 101.158 414.364 99.906 413.732 98.717C413.526 98.329 412.939 98.6 413.038 99.009C413.526 100.982 414.28 102.905 414.978 104.815C415.349 105.834 415.665 107.65 416.94 107.954C418.322 108.283 419.298 106.458 420.019 105.594C421.335 104.012 422.721 102.412 423.795 100.655C423.914 100.461 423.654 100.297 423.499 100.426Z" fill="#EB4799"/>
<path d="M390.664 186.395C390.287 184.743 389.426 183.172 388.755 181.622C388.115 180.141 387.585 178.254 386.412 177.115C386.242 176.951 385.913 177.063 385.928 177.316C385.999 178.838 386.918 180.285 387.553 181.642C388.327 183.299 389.001 185.16 390.068 186.647C390.278 186.941 390.751 186.772 390.664 186.395Z" fill="#EB4799"/>
<path d="M387.14 162.074C387.008 161.709 386.437 161.543 386.237 161.956C385.59 163.286 385.76 164.877 385.722 166.327C385.674 167.965 385.763 169.476 386.006 171.085C386.033 171.266 386.308 171.244 386.35 171.085C386.75 169.579 386.999 168.186 387.131 166.621C387.253 165.158 387.643 163.482 387.14 162.074Z" fill="#EB4799"/>
<path d="M396.391 148.047C395.117 147.732 393.995 149.237 393.31 150.116C392.271 151.444 391.7 152.821 391.137 154.384C391.053 154.618 391.395 154.736 391.52 154.546C392.355 153.288 393.471 152.13 394.537 151.064C395.269 150.332 396.633 149.506 396.63 148.361C396.63 148.221 396.529 148.081 396.391 148.047Z" fill="#EB4799"/>
<path d="M137.695 142.56C133.311 139.501 127.477 140.848 122.744 142.231C117.564 143.745 112.603 145.984 107.96 148.717C103.31 151.451 98.9388 154.674 94.8898 158.232C91.0428 161.611 87.4048 165.508 85.3458 170.263C83.6258 174.239 83.2598 178.677 84.7148 182.799C86.1028 186.735 89.1098 189.998 93.2808 190.913C99.4238 192.258 105.863 188.88 111.258 186.334C117.406 183.433 123.177 179.963 128.788 176.131C128.895 176.057 128.797 175.881 128.682 175.954C124.179 178.849 119.44 181.382 114.638 183.745C109.902 186.074 104.884 188.569 99.6898 189.661C94.9508 190.657 90.1248 189.615 87.3208 185.429C85.1098 182.123 84.4128 177.812 85.2898 173.948C86.3508 169.243 89.2898 165.231 92.6228 161.853C96.0538 158.374 99.9528 155.297 103.984 152.547C108.139 149.711 112.565 147.243 117.226 145.342C121.687 143.522 126.845 141.682 131.725 141.859C137.312 142.062 141.099 146.543 141.386 151.97C141.677 157.437 138.311 162.335 134.616 166.039C134.221 166.434 134.807 166.999 135.223 166.644C139.003 163.409 142.021 159.081 142.553 154.023C143.003 149.756 141.282 145.061 137.695 142.56Z" fill="#EB4799"/>
<path d="M117.496 249.301C116.275 248.929 114.905 249 113.633 248.918C111.99 248.813 110.372 248.608 108.75 248.335C105.788 247.838 102.928 247.016 99.9625 246.601C99.5275 246.54 99.2505 247.067 99.6535 247.331C100.989 248.209 102.165 248.854 103.724 249.268C105.285 249.682 106.895 249.98 108.502 250.175C111.225 250.505 114.994 250.949 117.556 249.762C117.762 249.666 117.687 249.36 117.496 249.301Z" fill="#EB4799"/>
<path d="M90.848 243.278C90.029 242.255 89.326 241.162 88.556 240.101C87.922 239.221 87.425 238.053 86.408 237.56C85.98 237.353 85.571 237.611 85.523 238.069C85.391 239.329 86.417 240.495 87.174 241.404C88.03 242.428 89.194 243.261 90.325 243.956C90.774 244.229 91.135 243.638 90.848 243.278Z" fill="#EB4799"/>
<path d="M66.0296 206.136C65.1766 205.598 65.2786 203.931 65.2156 203.063C65.1286 201.83 65.0716 200.583 65.0396 199.348C64.9846 197.088 65.3886 194.821 64.7906 192.609C64.6716 192.166 64.0366 192.077 63.8086 192.48C62.3846 194.994 62.7646 198.286 63.1536 201.045C63.3896 202.692 63.6806 206.374 65.7716 206.751C66.1366 206.817 66.3676 206.349 66.0296 206.136Z" fill="#EB4799"/>
<path d="M68.9798 171.031C67.8668 171.558 67.2648 173.016 66.6938 174.06C65.9818 175.367 65.3588 176.74 64.8918 178.155C64.0398 180.738 63.2318 183.82 63.8808 186.524C63.8988 186.598 64.0008 186.591 64.0218 186.524C64.8538 183.962 65.0748 181.276 66.0388 178.733C66.5588 177.365 67.1608 176.028 67.8778 174.753C68.4468 173.742 69.4978 172.705 69.6588 171.554C69.7148 171.147 69.3658 170.847 68.9798 171.031Z" fill="#EB4799"/>
<path d="M89.6908 156.17C88.2118 155.527 86.7998 154.765 85.4808 153.861C84.8878 153.364 84.2718 152.896 83.6198 152.453C83.0148 152.042 82.2438 153.019 82.8298 153.48C82.8718 153.515 82.9168 153.547 82.9618 153.582C84.0388 154.37 85.0408 155.243 85.9738 156.191C83.5778 156.89 81.2618 157.881 79.1618 159.238C78.0368 159.965 76.9618 160.773 75.9508 161.653C75.0448 162.443 73.8988 163.309 73.5008 164.478C73.4498 164.626 73.6178 164.815 73.7728 164.75C74.7178 164.354 75.3818 163.537 76.1668 162.89C77.3088 161.946 78.5298 161.098 79.8138 160.354C82.2158 158.961 84.7558 157.896 87.4528 157.221C87.7118 157.155 87.8718 156.964 87.9248 156.742C88.0538 156.805 88.1788 156.87 88.3078 156.931C86.3988 158.984 84.4068 160.947 82.5988 163.095C82.4348 163.291 82.6468 163.638 82.8918 163.475C85.5378 161.717 87.6948 159.515 89.8188 157.17C90.0648 156.899 90.0878 156.343 89.6908 156.17Z" fill="#EB4799"/>
<path d="M291.937 251.768C290.805 251.682 289.953 252.3 288.977 252.793C287.907 253.335 286.817 253.848 285.713 254.327C283.544 255.269 280.884 255.958 278.99 257.398C278.856 257.502 278.9 257.694 279.074 257.712C281.483 257.946 284.206 256.818 286.402 255.955C287.508 255.52 288.607 255.056 289.693 254.563C290.761 254.077 291.847 253.715 292.445 252.655C292.678 252.244 292.376 251.801 291.937 251.768Z" fill="#EB4799"/>
<path d="M308.025 235.017C307.953 234.775 307.744 234.629 307.499 234.616C306.233 234.542 305.691 235.818 304.988 236.709C304.222 237.683 303.468 238.666 302.717 239.652C301.116 241.747 299.043 243.881 298.071 246.352C297.918 246.739 298.448 247.129 298.78 246.898C300.958 245.388 302.574 242.863 304.243 240.829C305.095 239.788 305.942 238.744 306.783 237.691C307.465 236.833 308.372 236.171 308.025 235.017Z" fill="#EB4799"/>
<path d="M313.724 217.005C313.012 218.278 312.779 219.836 312.461 221.25C312.132 222.733 311.926 223.987 312.016 225.497C312.019 225.563 312.097 225.578 312.132 225.528C313.057 224.303 313.569 223.147 314.122 221.708C314.646 220.342 315.298 218.929 315.409 217.461C315.481 216.55 314.147 216.252 313.724 217.005Z" fill="#EB4799"/>
<path d="M333.613 178.606C331.791 178.731 330.169 181.283 329.178 182.668C327.85 184.524 326.588 186.676 326.214 188.954C326.177 189.17 326.426 189.274 326.557 189.1C327.901 187.309 328.964 185.343 330.421 183.627C331.054 182.878 331.724 182.153 332.422 181.462C333.095 180.794 333.942 180.286 334.16 179.325C334.235 178.989 333.999 178.58 333.613 178.606Z" fill="#EB4799"/>
<path d="M340.982 163.851C340.74 163.69 340.628 163.723 340.341 163.767C340.051 163.81 339.848 164.095 339.761 164.348C339.312 165.653 339.019 166.996 338.504 168.281C337.951 169.669 337.257 170.993 336.626 172.345C336.503 172.61 336.808 172.876 337.039 172.664C339.154 170.705 340.892 167.652 341.365 164.79C341.431 164.403 341.317 164.071 340.982 163.851Z" fill="#EB4799"/>
<path d="M343.746 150.592C342.63 149.642 341.454 149.049 340.101 148.503C339.181 148.129 337.675 147.11 336.682 147.712C336.185 148.012 336.045 148.556 336.029 149.131C335.958 149.169 335.898 149.238 335.894 149.323C335.832 151.547 336.113 153.884 336.532 156.068C336.712 157.009 338.304 156.808 338.22 155.84C338.172 155.289 337.84 152.87 337.711 151.128C338.133 151.656 338.566 152.181 338.887 152.75C339.727 154.236 340.188 155.874 340.635 157.51C340.748 157.93 341.287 157.79 341.338 157.415C341.583 155.576 341.19 153.787 340.458 152.1C340.135 151.359 339.716 150.486 339.168 149.74C339.769 150.043 340.38 150.392 340.604 150.483C341.564 150.869 342.492 151.049 343.516 151.149C343.791 151.175 343.955 150.769 343.746 150.592Z" fill="#EB4799"/>
<path d="M416.187 40.7857C416.183 40.2907 416.061 39.8287 415.813 39.4017C415.567 38.9897 415.241 38.6607 414.829 38.4177C413.994 37.9287 412.892 37.9097 412.057 38.4177C411.89 38.5197 411.722 38.6217 411.555 38.7247C410.61 39.2987 410.008 40.3027 410.008 41.4167C410.008 42.5167 410.606 43.5547 411.555 44.1097C412.515 44.6727 413.739 44.6727 414.703 44.1097C415.169 43.8327 415.543 43.4597 415.819 42.9907C416.103 42.5047 416.244 41.9797 416.247 41.4167C416.225 41.2067 416.208 40.9957 416.187 40.7857Z" fill="#EB4799"/>
<path d="M37.1439 190.321C37.6709 190.342 38.1589 190.232 38.6139 189.993C39.0859 189.84 39.4969 189.576 39.8429 189.204C40.2139 188.859 40.4779 188.449 40.6299 187.976C40.8699 187.522 40.9799 187.032 40.9589 186.507L40.8249 185.493C40.6419 184.846 40.3159 184.286 39.8429 183.809C39.5859 183.61 39.3289 183.412 39.0719 183.213C38.4759 182.868 37.8319 182.694 37.1439 182.692C36.6209 182.673 36.1299 182.782 35.6749 183.02C35.2029 183.175 34.7919 183.437 34.4459 183.809C34.0749 184.155 33.8109 184.564 33.6589 185.037C33.4189 185.492 33.3089 185.981 33.3299 186.507C33.3739 186.844 33.4189 187.183 33.4669 187.521C33.6469 188.168 33.9729 188.728 34.4459 189.204C34.7059 189.403 34.9629 189.602 35.2199 189.8C35.8129 190.145 36.4569 190.319 37.1439 190.321Z" fill="#EB4799"/>
<path d="M27.5698 177.813C27.9438 177.827 28.2948 177.749 28.6168 177.579C28.9558 177.468 29.2488 177.281 29.4938 177.016C29.7598 176.769 29.9458 176.477 30.0558 176.14C30.2268 175.816 30.3038 175.466 30.2898 175.091C30.2598 174.85 30.2268 174.61 30.1938 174.369C30.0648 173.908 29.8318 173.507 29.4938 173.167C28.9618 172.679 28.3058 172.371 27.5698 172.371C27.1958 172.357 26.8458 172.435 26.5228 172.605C26.1848 172.714 25.8908 172.903 25.6458 173.167C25.3798 173.415 25.1938 173.707 25.0838 174.043C24.9128 174.368 24.8358 174.717 24.8498 175.091C24.8828 175.333 24.9128 175.574 24.9458 175.815C25.0748 176.276 25.3078 176.676 25.6458 177.016C26.1778 177.504 26.8338 177.813 27.5698 177.813Z" fill="#EB4799"/>
<path d="M41.5639 173.877C42.1979 173.877 42.8619 173.603 43.3079 173.154C43.5499 172.931 43.7209 172.666 43.8199 172.359C43.9749 172.065 44.0439 171.749 44.0319 171.409C44.0019 170.771 43.7929 170.108 43.3079 169.664C42.8269 169.22 42.2339 168.94 41.5639 168.94C40.9289 168.94 40.2649 169.216 39.8199 169.664C39.5769 169.887 39.4069 170.152 39.3079 170.458C39.1519 170.752 39.0839 171.069 39.0949 171.409C39.1259 172.047 39.3349 172.709 39.8199 173.154C40.3009 173.598 40.8929 173.877 41.5639 173.877Z" fill="#EB4799"/>
<path d="M307.932 47.4015C307.818 46.9915 307.609 46.6355 307.31 46.3335C307.148 46.2075 306.984 46.0815 306.819 45.9555C306.442 45.7365 306.035 45.6265 305.598 45.6245C305.266 45.6125 304.954 45.6815 304.664 45.8335C304.366 45.9305 304.105 46.0975 303.886 46.3335C303.651 46.5535 303.483 46.8125 303.387 47.1125C303.235 47.4015 303.165 47.7125 303.177 48.0455L303.264 48.6895C303.378 49.0985 303.587 49.4545 303.886 49.7565C304.051 49.8825 304.213 50.0095 304.377 50.1355C304.754 50.3545 305.161 50.4645 305.598 50.4655C305.933 50.4785 306.242 50.4085 306.532 50.2575C306.83 50.1595 307.091 49.9925 307.31 49.7565C307.546 49.5375 307.713 49.2775 307.809 48.9785C307.962 48.6895 308.031 48.3785 308.019 48.0455C307.992 47.8305 307.962 47.6165 307.932 47.4015Z" fill="#EB4799"/>
<path d="M291.972 46.7685C287.488 46.7685 287.478 53.7415 291.972 53.7415C296.46 53.7415 296.466 46.7685 291.972 46.7685Z" fill="#EB4799"/>
<path d="M298.603 37.031C295.802 37.031 295.796 41.384 298.603 41.384C301.404 41.384 301.407 37.031 298.603 37.031Z" fill="#EB4799"/>
</g>
</svg>
