<svg width="51" height="55" viewBox="0 0 51 55" fill="none" xmlns="http://www.w3.org/2000/svg">
<defs>
<linearGradient id="paint0_linear_979_403" x1="25.5" y1="0.817383" x2="25.5" y2="54.1827" gradientUnits="userSpaceOnUse">
<stop stop-color="#CB8CF2"/>
<stop offset="1" stop-color="#AC47EB"/>
</linearGradient>
</defs>
<path fill-rule="evenodd" clip-rule="evenodd" d="M30.8365 0.817383H9.4904C6.5553 0.817383 4.15385 3.21883 4.15385 6.15394V24.5674H3.19231C1.70539 24.5674 0.5 25.7728 0.5 27.2597V43.0289C0.5 44.5158 1.70539 45.7212 3.19231 45.7212H4.15385V48.8462C4.15385 51.7812 6.5286 54.1827 9.4637 54.1827H41.5096C44.4448 54.1827 46.8461 51.7812 46.8461 48.8462V45.7212H47.8077C49.2946 45.7212 50.5 44.5158 50.5 43.0289V27.2597C50.5 25.7728 49.2946 24.5674 47.8077 24.5674H46.8461V16.827L30.8365 0.817383ZM8.33655 50.0001V45.7212H42.6634V50.0001H8.33655ZM8.33655 24.5674H42.6634V18.3414H29.3221V5.00008H8.33655V24.5674ZM47.9053 34.9009V34.4577C47.9053 33.6214 47.7877 32.8702 47.5523 32.2041C47.3169 31.538 46.9864 30.9721 46.5607 30.5064C46.135 30.0356 45.6292 29.6775 45.0433 29.4322C44.4624 29.1818 43.8213 29.0566 43.1202 29.0566C42.4141 29.0566 41.768 29.1818 41.1821 29.4322C40.6011 29.6775 40.0979 30.0356 39.6722 30.5064C39.2515 30.9721 38.9235 31.538 38.6881 32.2041C38.4577 32.8702 38.3425 33.6214 38.3425 34.4577V34.9009C38.3425 35.7372 38.4577 36.4884 38.6881 37.1545C38.9235 37.8156 39.254 38.3815 39.6797 38.8522C40.1104 39.318 40.6162 39.676 41.1971 39.9264C41.7831 40.1718 42.4291 40.2945 43.1352 40.2945C43.8363 40.2945 44.4773 40.1718 45.0583 39.9264C45.6393 39.676 46.1425 39.318 46.5682 38.8522C46.9939 38.3815 47.3219 37.8156 47.5523 37.1545C47.7877 36.4884 47.9053 35.7372 47.9053 34.9009ZM45.231 34.4427V34.9009C45.231 35.4368 45.1835 35.9125 45.0883 36.3282C44.9982 36.7388 44.863 37.0869 44.6827 37.3724C44.5074 37.6578 44.2895 37.8732 44.0291 38.0184C43.7687 38.1636 43.4707 38.2362 43.1352 38.2362C42.7846 38.2362 42.4767 38.1636 42.2113 38.0184C41.9508 37.8732 41.7304 37.6578 41.5502 37.3724C41.3749 37.0869 41.2422 36.7388 41.1521 36.3282C41.0669 35.9125 41.0243 35.4368 41.0243 34.9009V34.4427C41.0243 33.9018 41.0669 33.426 41.1521 33.0154C41.2422 32.5997 41.3749 32.2517 41.5502 31.9712C41.7255 31.6908 41.9433 31.4804 42.2038 31.3402C42.4641 31.195 42.7696 31.1224 43.1202 31.1224C43.4557 31.1224 43.7537 31.195 44.0141 31.3402C44.2795 31.4804 44.5024 31.6908 44.6827 31.9712C44.863 32.2517 44.9982 32.5997 45.0883 33.0154C45.1835 33.426 45.231 33.9018 45.231 34.4427ZM9.09075 29.2068H8.39965H7.27285H6.60425L2.58534 40.1443H5.41737L6.0481 38.101H9.66015L10.2927 40.1443H13.1322L9.09075 29.2068ZM9.02995 36.0653H6.67655L7.8516 32.2588L9.02995 36.0653ZM19.7353 29.2068H22.372V36.3507C22.372 37.2021 22.1942 37.9232 21.8386 38.5142C21.483 39.1001 20.9848 39.5433 20.3438 39.8438C19.7027 40.1443 18.949 40.2945 18.0826 40.2945C17.2262 40.2945 16.4725 40.1443 15.8215 39.8438C15.1755 39.5433 14.6697 39.1001 14.3041 38.5142C13.9435 37.9232 13.7632 37.2021 13.7632 36.3507V29.2068H16.4074V36.3507C16.4074 36.8014 16.4726 37.1695 16.6028 37.455C16.733 37.7354 16.9233 37.9408 17.1737 38.071C17.4241 38.2012 17.727 38.2663 18.0826 38.2663C18.4432 38.2663 18.7462 38.2012 18.9916 38.071C19.237 37.9408 19.4223 37.7354 19.5475 37.455C19.6727 37.1695 19.7353 36.8014 19.7353 36.3507V29.2068ZM26.6688 40.1443H27.5854C28.3165 40.1443 28.9876 40.0191 29.5986 39.7687C30.2146 39.5133 30.7479 39.1527 31.1986 38.687C31.6494 38.2212 31.9974 37.6678 32.2428 37.0268C32.4932 36.3858 32.6184 35.6796 32.6184 34.9084V34.4502C32.6184 33.6739 32.4932 32.9678 32.2428 32.3318C31.9974 31.6908 31.6468 31.1374 31.1911 30.6716C30.7404 30.2009 30.2045 29.8403 29.5835 29.5899C28.9676 29.3345 28.2889 29.2068 27.5478 29.2068H26.6688H25.1139H24.0322V40.1443H25.159H26.6688ZM26.6688 38.116H27.5854C28.0861 38.116 28.5093 37.9959 28.8549 37.7555C29.2055 37.5151 29.4708 37.157 29.6511 36.6812C29.8365 36.2005 29.9291 35.6095 29.9291 34.9084V34.4352C29.9291 33.9093 29.8765 33.4486 29.7714 33.0529C29.6712 32.6523 29.521 32.3193 29.3206 32.0538C29.1203 31.7834 28.8699 31.5806 28.5694 31.4454C28.274 31.3102 27.9334 31.2425 27.5478 31.2425H26.6688V38.116ZM36.7951 29.2068V40.1443H34.1659V29.2068H36.7951Z" fill="url(#paint0_linear_979_403)"/>

</svg>
