<svg width="51" height="55" viewBox="0 0 51 55" fill="none" xmlns="http://www.w3.org/2000/svg">
<defs>
<linearGradient id="paint0_linear_979_399" x1="25.5" y1="0.817383" x2="25.5" y2="54.1827" gradientUnits="userSpaceOnUse">
<stop stop-color="#CB8CF2"/>
<stop offset="1" stop-color="#AC47EB"/>
</linearGradient>
</defs>
<path fill-rule="evenodd" clip-rule="evenodd" d="M30.8365 0.817383H9.4904C6.5553 0.817383 4.15385 3.21883 4.15385 6.15394V24.5674H3.19231C1.70539 24.5674 0.5 25.7728 0.5 27.2597V43.0289C0.5 44.5158 1.70539 45.7212 3.19231 45.7212H4.15385V48.8462C4.15385 51.7812 6.5286 54.1827 9.4637 54.1827H41.5096C44.4448 54.1827 46.8461 51.7812 46.8461 48.8462V45.7212H47.8077C49.2946 45.7212 50.5 44.5158 50.5 43.0289V27.2597C50.5 25.7728 49.2946 24.5674 47.8077 24.5674H46.8461V16.827L30.8365 0.817383ZM8.33655 50.0001V45.7212H42.6634V50.0001H8.33655ZM8.33655 24.5674H42.6634V18.3414H29.3221V5.00008H8.33655V24.5674ZM9.1182 42.452H10.3783C11.3837 42.452 12.3064 42.2799 13.1465 41.9354C13.9934 41.5843 14.7268 41.0885 15.3465 40.4481C15.9663 39.8077 16.4449 39.0468 16.7823 38.1654C17.1266 37.2841 17.2987 36.3131 17.2987 35.2526V34.6225C17.2987 33.5552 17.1266 32.5843 16.7823 31.7099C16.4449 30.8283 15.9629 30.0675 15.3363 29.4272C14.7165 28.7799 13.9797 28.2839 13.1258 27.9397C12.2788 27.5885 11.3458 27.4129 10.3266 27.4129H9.1182H6.98005H5.49267V42.452H7.04205H9.1182ZM9.1182 39.6631H10.3783C11.0669 39.6631 11.6488 39.4979 12.1239 39.1674C12.606 38.8368 12.9709 38.3445 13.2188 37.6902C13.4736 37.0293 13.601 36.2166 13.601 35.2526V34.602C13.601 33.8789 13.5287 33.2454 13.3841 32.7014C13.2464 32.1504 13.0398 31.6925 12.7643 31.3275C12.4889 30.9558 12.1446 30.677 11.7314 30.491C11.3251 30.305 10.8569 30.2122 10.3266 30.2122H9.1182V39.6631ZM31.9142 35.2424V34.6329C31.9142 33.4829 31.7525 32.45 31.4289 31.5343C31.1052 30.6183 30.6508 29.8402 30.0654 29.1999C29.4802 28.5525 28.7846 28.0602 27.979 27.7227C27.1802 27.3785 26.2989 27.2064 25.3348 27.2064C24.3639 27.2064 23.4756 27.3785 22.6698 27.7227C21.8711 28.0602 21.1791 28.5525 20.5937 29.1999C20.0152 29.8402 19.5643 30.6183 19.2406 31.5343C18.9239 32.45 18.7655 33.4829 18.7655 34.6329V35.2424C18.7655 36.3924 18.9239 37.4252 19.2406 38.341C19.5643 39.25 20.0187 40.0281 20.604 40.6754C21.1961 41.3158 21.8918 41.8081 22.6906 42.1524C23.4961 42.4899 24.3845 42.6585 25.3554 42.6585C26.3195 42.6585 27.2008 42.4899 27.9996 42.1524C28.7984 41.8081 29.4904 41.3158 30.0758 40.6754C30.6611 40.0281 31.1121 39.25 31.4289 38.341C31.7525 37.4252 31.9142 36.3924 31.9142 35.2424ZM28.2371 34.6122V35.2424C28.2371 35.9791 28.1718 36.6333 28.041 37.2049C27.917 37.7695 27.7312 38.2481 27.4831 38.6406C27.2421 39.0331 26.9427 39.3291 26.5846 39.5289C26.2266 39.7285 25.8167 39.8283 25.3554 39.8283C24.8734 39.8283 24.4498 39.7285 24.085 39.5289C23.7269 39.3291 23.4238 39.0331 23.1759 38.6406C22.935 38.2481 22.7525 37.7695 22.6285 37.2049C22.5116 36.6333 22.4529 35.9791 22.4529 35.2424V34.6122C22.4529 33.8685 22.5116 33.2145 22.6285 32.6497C22.7525 32.0781 22.935 31.5997 23.1759 31.2139C23.4169 30.8283 23.7166 30.5391 24.0746 30.3464C24.4327 30.1466 24.8527 30.0468 25.3348 30.0468C25.7962 30.0468 26.2057 30.1466 26.5639 30.3464C26.9289 30.5391 27.2352 30.8283 27.4831 31.2139C27.7312 31.5997 27.917 32.0781 28.041 32.6497C28.1718 33.2145 28.2371 33.8685 28.2371 34.6122ZM45.9618 37.3599H42.3467C42.3329 37.9245 42.2227 38.3893 42.0162 38.7541C41.8096 39.1122 41.5169 39.3808 41.1381 39.5599C40.7594 39.732 40.2946 39.8181 39.7436 39.8181C39.2479 39.8181 38.8279 39.7354 38.4837 39.5702C38.1461 39.3979 37.8708 39.1329 37.6573 38.7749C37.4438 38.4168 37.2889 37.9554 37.1925 37.3908C37.096 36.826 37.0479 36.1445 37.0479 35.3456V34.5089C37.0479 33.7102 37.0995 33.0285 37.2027 32.4639C37.3129 31.8924 37.4783 31.4275 37.6987 31.0695C37.9188 30.7114 38.1945 30.4497 38.5248 30.2845C38.8554 30.1191 39.2444 30.0364 39.6921 30.0364C40.3325 30.0364 40.8456 30.1329 41.2312 30.3256C41.6168 30.5185 41.899 30.8077 42.0781 31.1933C42.2571 31.572 42.3534 32.0437 42.3673 32.6083H45.9825C45.8929 31.5687 45.6002 30.6424 45.1045 29.8299C44.6087 29.0104 43.9098 28.3666 43.0077 27.8983C42.1056 27.43 41.0004 27.196 39.6921 27.196C38.7417 27.196 37.8777 27.3647 37.0994 27.7022C36.3214 28.0395 35.6535 28.5285 35.0956 29.1689C34.5448 29.8024 34.1179 30.5735 33.8148 31.4825C33.5188 32.3847 33.3708 33.4002 33.3708 34.5297V35.3456C33.3708 36.4749 33.512 37.4906 33.7943 38.3927C34.0835 39.2947 34.5 40.0625 35.044 40.696C35.5948 41.3295 36.2629 41.8151 37.0479 42.1524C37.8398 42.4899 38.7384 42.6585 39.7436 42.6585C40.9833 42.6585 42.0575 42.4381 42.9664 41.9975C43.8823 41.5499 44.5984 40.9268 45.1148 40.1279C45.6313 39.3291 45.9137 38.4064 45.9618 37.3599Z" fill="url(#paint0_linear_979_399)"/>
</svg>
