<svg width="51" height="55" viewBox="0 0 51 55" fill="none" xmlns="http://www.w3.org/2000/svg">
<defs>
<linearGradient id="paint0_linear_979_394" x1="25.5" y1="0.817383" x2="25.5" y2="54.1827" gradientUnits="userSpaceOnUse">
<stop stop-color="#CB8CF2"/>
<stop offset="1" stop-color="#AC47EB"/>
</linearGradient>
</defs>
<path fill-rule="evenodd" clip-rule="evenodd" d="M30.8365 0.817383H9.4904C6.5553 0.817383 4.15385 3.21883 4.15385 6.15394V24.5674H3.19231C1.70539 24.5674 0.5 25.7728 0.5 27.2597V43.0289C0.5 44.5158 1.70539 45.7212 3.19231 45.7212H4.15385V48.8462C4.15385 51.7812 6.5286 54.1827 9.4637 54.1827H41.5096C44.4448 54.1827 46.8461 51.7812 46.8461 48.8462V45.7212H47.8077C49.2946 45.7212 50.5 44.5158 50.5 43.0289V27.2597C50.5 25.7728 49.2946 24.5674 47.8077 24.5674H46.8461V16.827L30.8365 0.817383ZM8.33655 50.0001V45.7212H42.6634V50.0001H8.33655ZM8.33655 24.5674H42.6634V18.3414H29.3221V5.00008H8.33655V24.5674ZM14.6139 41.4904V38.9551H8.87665V27.8186H5.58075V41.4904H7.7029H8.87665H14.6139ZM19.5061 41.4904V27.8186H16.2197V41.4904H19.5061ZM33.2438 27.8186V41.4904H29.9573L25.1214 32.9831V41.4904H21.8255V27.8186H25.1214L29.9573 36.3259V27.8186H33.2438ZM38.6242 33.8472V27.8186H35.3284V41.4904H38.6242V37.8814L39.973 36.4059L42.8873 41.4904H46.7842L42.1699 33.8564L46.7842 27.8186H42.7183L39.7699 32.1098L38.6242 33.8472Z" fill="url(#paint0_linear_979_394)"/>
</svg>
