<svg width="51" height="55" viewBox="0 0 51 55" fill="none" xmlns="http://www.w3.org/2000/svg">
<defs>
<linearGradient id="paint0_linear_979_389" x1="25.5" y1="0.817383" x2="25.5" y2="54.1827" gradientUnits="userSpaceOnUse">
<stop stop-color="#CB8CF2"/>
<stop offset="1" stop-color="#AC47EB"/>
</linearGradient>
</defs>
<path fill-rule="evenodd" clip-rule="evenodd" d="M30.8365 0.817383H9.4904C6.5553 0.817383 4.15385 3.21883 4.15385 6.15394V24.5674H3.19231C1.70539 24.5674 0.5 25.7728 0.5 27.2597V43.0289C0.5 44.5158 1.70539 45.7212 3.19231 45.7212H4.15385V48.8462C4.15385 51.7812 6.5286 54.1827 9.4637 54.1827H41.5096C44.4448 54.1827 46.8461 51.7812 46.8461 48.8462V45.7212H47.8077C49.2946 45.7212 50.5 44.5158 50.5 43.0289V27.2597C50.5 25.7728 49.2946 24.5674 47.8077 24.5674H46.8461V16.827L30.8365 0.817383ZM8.33655 50.0001V45.7212H42.6634V50.0001H8.33655ZM8.33655 24.5674H42.6634V18.3414H29.3221V5.00008H8.33655V24.5674ZM13.0323 37.1571H10.6566V42.2597H7.03115V27.2206H13.0323C14.2373 27.2206 15.2737 27.441 16.1413 27.8817C17.0158 28.3224 17.6873 28.9283 18.1555 29.6996C18.6238 30.4639 18.8578 31.3385 18.8578 32.3232C18.8578 33.2941 18.6238 34.1411 18.1555 34.8641C17.6873 35.5871 17.0158 36.1518 16.1413 36.5581C15.2737 36.9574 14.2373 37.1571 13.0323 37.1571ZM10.6566 30.0198V34.358H13.0323C13.5418 34.358 13.9551 34.2719 14.2718 34.0997C14.5886 33.9276 14.8192 33.69 14.9639 33.387C15.1153 33.0772 15.191 32.7294 15.191 32.3438C15.191 31.9306 15.1153 31.5485 14.9639 31.1973C14.8192 30.8461 14.5886 30.5638 14.2718 30.3503C13.9551 30.13 13.5418 30.0198 13.0323 30.0198H10.6566ZM25.6957 42.2597H24.4356H22.3594H20.81V27.2206H22.2974H24.4356H25.6441C26.6632 27.2206 27.5962 27.3962 28.4432 27.7474C29.2971 28.0917 30.0339 28.5875 30.6536 29.2348C31.2803 29.8752 31.7623 30.6361 32.0997 31.5175C32.444 32.392 32.6161 33.3629 32.6161 34.4303V35.0603C32.6161 36.1208 32.444 37.0917 32.0997 37.9731C31.7623 38.8545 31.2837 39.6154 30.6639 40.2558C30.0442 40.8962 29.3109 41.392 28.4639 41.7432C27.6238 42.0875 26.701 42.2597 25.6957 42.2597ZM25.6957 39.4708H24.4356V30.0198H25.6441C26.1743 30.0198 26.6425 30.1127 27.0488 30.2987C27.4619 30.4846 27.8062 30.7635 28.0817 31.1353C28.3571 31.5003 28.5637 31.9582 28.7015 32.5091C28.8461 33.0531 28.9184 33.6866 28.9184 34.4096V35.0603C28.9184 36.0244 28.7909 36.8369 28.5361 37.498C28.2882 38.1522 27.9233 38.6445 27.4413 38.975C26.9661 39.3056 26.3843 39.4708 25.6957 39.4708ZM38.1319 33.48V30.0198H44.5668V27.2206H38.1319H37.0989H34.5064V42.2597H38.1319V36.2688H43.9781V33.48H38.1319Z" fill="url(#paint0_linear_979_389)"/>
</svg>
