<svg width="51" height="55" viewBox="0 0 51 55" fill="none" xmlns="http://www.w3.org/2000/svg">
<defs>
<linearGradient id="paint0_linear_979_383" x1="25.5" y1="0.817383" x2="25.5" y2="54.1827" gradientUnits="userSpaceOnUse">
<stop stop-color="#CB8CF2"/>
<stop offset="1" stop-color="#AC47EB"/>
</linearGradient>
</defs>
<path fill-rule="evenodd" clip-rule="evenodd" d="M30.8365 0.817383H9.4904C6.5553 0.817383 4.15385 3.21883 4.15385 6.15394V24.5674H3.19231C1.70539 24.5674 0.5 25.7728 0.5 27.2597V43.0289C0.5 44.5158 1.70539 45.7212 3.19231 45.7212H4.15385V48.8462C4.15385 51.7812 6.5286 54.1827 9.4637 54.1827H41.5096C44.4448 54.1827 46.8461 51.7812 46.8461 48.8462V45.7212H47.8077C49.2946 45.7212 50.5 44.5158 50.5 43.0289V27.2597C50.5 25.7728 49.2946 24.5674 47.8077 24.5674H46.8461V16.827L30.8365 0.817383ZM8.33655 50.0001V45.7212H42.6634V50.0001H8.33655ZM8.33655 24.5674H42.6634V18.3414H29.3221V5.00008H8.33655V24.5674ZM11.2411 31.2921C11.2756 31.3851 11.2928 31.4901 11.2928 31.6072C11.2928 31.7414 11.2601 31.8654 11.1946 31.979C11.1292 32.0892 11.0259 32.1787 10.8848 32.2476C10.7436 32.313 10.5577 32.3457 10.3271 32.3457C10.1136 32.3457 9.9242 32.3268 9.75895 32.2889C9.5937 32.2476 9.45425 32.1821 9.3406 32.0926C9.227 31.9997 9.1409 31.8774 9.0824 31.7259C9.02385 31.5745 8.9946 31.3885 8.9946 31.1682H7.1767C7.1767 31.6123 7.2662 31.9962 7.44525 32.3199C7.6277 32.6401 7.87045 32.9035 8.17345 33.11C8.4764 33.3132 8.81385 33.4647 9.1857 33.5645C9.56095 33.6609 9.9414 33.7091 10.3271 33.7091C10.7471 33.7091 11.1276 33.6626 11.4684 33.5697C11.8092 33.4767 12.1019 33.3407 12.3463 33.1617C12.5908 32.9792 12.7784 32.7571 12.9093 32.4955C13.0401 32.2338 13.1055 31.9342 13.1055 31.5968C13.1055 31.2801 13.0487 30.996 12.9351 30.7447C12.8249 30.4933 12.6614 30.2696 12.4445 30.0733C12.231 29.8736 11.9676 29.6963 11.6543 29.5414C11.3444 29.383 10.9898 29.2401 10.5905 29.1127C10.377 29.0438 10.1842 28.9733 10.012 28.901C9.8433 28.8287 9.6987 28.7529 9.5782 28.6737C9.4611 28.5945 9.3699 28.5102 9.30445 28.4207C9.2425 28.3277 9.2115 28.2244 9.2115 28.1108C9.2115 27.9731 9.2511 27.8474 9.3303 27.7338C9.40945 27.6167 9.52655 27.5238 9.68145 27.4549C9.8364 27.386 10.0275 27.3516 10.2548 27.3516C10.4889 27.3516 10.6834 27.3929 10.8383 27.4756C10.9932 27.5582 11.1086 27.6718 11.1844 27.8164C11.2636 27.961 11.3032 28.128 11.3032 28.3174H13.1055C13.1055 27.8422 12.9851 27.4308 12.7441 27.083C12.5065 26.7319 12.1759 26.4616 11.7524 26.2722C11.3324 26.0794 10.847 25.983 10.2961 25.983C9.87945 25.983 9.49555 26.0329 9.14435 26.1328C8.7932 26.2292 8.48675 26.3703 8.2251 26.5563C7.96685 26.7387 7.76545 26.9608 7.62085 27.2225C7.4762 27.4807 7.4039 27.7717 7.4039 28.0953C7.4039 28.4327 7.4745 28.7288 7.61565 28.9836C7.75685 29.2349 7.9479 29.4553 8.18895 29.6446C8.42995 29.8306 8.70365 29.9941 9.0101 30.1353C9.3165 30.273 9.635 30.3969 9.9655 30.5071C10.2478 30.6001 10.4751 30.6896 10.6473 30.7757C10.8229 30.8583 10.9571 30.9409 11.05 31.0236C11.143 31.1062 11.2067 31.1957 11.2411 31.2921ZM19.6686 33.6058V26.0863H17.861V33.6058H19.6686ZM26.1749 26.0863H27.0219L28.7003 31.3179L30.3787 26.0863H31.2257H31.8559H32.7596V33.6058H30.9417V31.8499L31.1189 28.2538L29.2994 33.6058H28.1012L26.2817 28.2538L26.4589 31.8499V33.6058H24.6462V26.0863H25.5448H26.1749ZM43.5163 26.0863H41.7035V30.9977C41.7035 31.3076 41.6605 31.5607 41.5744 31.7569C41.4884 31.9497 41.3609 32.0909 41.1922 32.1804C41.0235 32.2699 40.8152 32.3147 40.5673 32.3147C40.3228 32.3147 40.1146 32.2699 39.9424 32.1804C39.7703 32.0909 39.6395 31.9497 39.5499 31.7569C39.4604 31.5607 39.4156 31.3076 39.4156 30.9977V26.0863H37.5978V30.9977C37.5978 31.5831 37.7217 32.0789 37.9696 32.4851C38.2209 32.888 38.5686 33.1927 39.0128 33.3992C39.4604 33.6058 39.9785 33.7091 40.5673 33.7091C41.1629 33.7091 41.6811 33.6058 42.1218 33.3992C42.5625 33.1927 42.9052 32.888 43.1496 32.4851C43.3941 32.0789 43.5163 31.5831 43.5163 30.9977V26.0863ZM12.3877 42.2114V43.6058H9.23215H8.5866H7.4194V36.0863H9.23215V42.2114H12.3877ZM16.6588 36.0863H17.1339L19.9123 43.6058H17.9602L17.5254 42.2011H15.0421L14.6084 43.6058H12.6614L15.4244 36.0863H15.8841H16.6588ZM15.4741 40.8015H17.0921L16.2819 38.1845L15.4741 40.8015ZM23.4862 37.4859V43.6058H21.6735V37.4859H19.4631V36.0863H21.6735H23.4862H25.7482V37.4859H23.4862ZM28.4442 43.6058V36.0863H26.6366V43.6058H28.4442ZM36.0825 39.6963V40.001C36.0825 40.576 36.0015 41.0924 35.8397 41.5504C35.6813 42.0048 35.4559 42.3939 35.1632 42.7175C34.8706 43.0377 34.5245 43.2839 34.1251 43.4561C33.7257 43.6248 33.285 43.7091 32.803 43.7091C32.3176 43.7091 31.8734 43.6248 31.4706 43.4561C31.0712 43.2839 30.7234 43.0377 30.4273 42.7175C30.1346 42.3939 29.9074 42.0048 29.7456 41.5504C29.5872 41.0924 29.5081 40.576 29.5081 40.001V39.6963C29.5081 39.1213 29.5872 38.6049 29.7456 38.1469C29.9074 37.689 30.1329 37.3 30.4221 36.9798C30.7148 36.6561 31.0608 36.4099 31.4602 36.2412C31.863 36.0691 32.3072 35.983 32.7926 35.983C33.2747 35.983 33.7154 36.0691 34.1148 36.2412C34.5176 36.4099 34.8654 36.6561 35.158 36.9798C35.4507 37.3 35.6779 37.689 35.8397 38.1469C36.0015 38.6049 36.0825 39.1213 36.0825 39.6963ZM34.2439 40.001V39.686C34.2439 39.3141 34.2112 38.987 34.1457 38.7047C34.0838 38.4189 33.9909 38.1796 33.8669 37.9868C33.743 37.794 33.5897 37.6494 33.4072 37.553C33.2282 37.4532 33.0233 37.4032 32.7926 37.4032C32.5516 37.4032 32.3416 37.4532 32.1626 37.553C31.9835 37.6494 31.8338 37.794 31.7133 37.9868C31.5928 38.1796 31.5016 38.4189 31.4396 38.7047C31.3811 38.987 31.3517 39.3141 31.3517 39.686V40.001C31.3517 40.3694 31.3811 40.6965 31.4396 40.9823C31.5016 41.2646 31.5928 41.5039 31.7133 41.7001C31.8373 41.8964 31.9887 42.0444 32.1677 42.1443C32.3502 42.2441 32.562 42.294 32.803 42.294C33.0337 42.294 33.2385 42.2441 33.4176 42.1443C33.5966 42.0444 33.7464 41.8964 33.8669 41.7001C33.9909 41.5039 34.0838 41.2646 34.1457 40.9823C34.2112 40.6965 34.2439 40.3694 34.2439 40.001ZM43.3024 43.6058V36.0863H41.4949V40.7653L38.8352 36.0863H37.0224V43.6058H38.8352V38.9268L41.4949 43.6058H43.3024Z" fill="url(#paint0_linear_979_383)"/>
</svg>
